<svg width="12" height="13" viewBox="0 0 12 13" fill="none" xmlns="http://www.w3.org/2000/svg">
<path d="M7.40864 6.49915L11.7045 2.21268C11.8926 2.02453 11.9983 1.76935 11.9983 1.50326C11.9983 1.23718 11.8926 0.981998 11.7045 0.79385C11.5164 0.605701 11.2612 0.5 10.9952 0.5C10.7291 0.5 10.474 0.605701 10.2859 0.79385L6 5.09031L1.71414 0.79385C1.52602 0.605701 1.27087 0.5 1.00483 0.5C0.738783 0.5 0.483635 0.605701 0.295513 0.79385C0.107391 0.981998 0.00170495 1.23718 0.00170495 1.50326C0.00170495 1.76935 0.107391 2.02453 0.295513 2.21268L4.59136 6.49915L0.295513 10.7856C0.201875 10.8785 0.127553 10.989 0.0768329 11.1108C0.0261132 11.2325 0 11.3631 0 11.495C0 11.6269 0.0261132 11.7575 0.0768329 11.8793C0.127553 12.001 0.201875 12.1116 0.295513 12.2044C0.388386 12.2981 0.49888 12.3724 0.620622 12.4232C0.742363 12.4739 0.872943 12.5 1.00483 12.5C1.13671 12.5 1.26729 12.4739 1.38903 12.4232C1.51077 12.3724 1.62127 12.2981 1.71414 12.2044L6 7.90799L10.2859 12.2044C10.3787 12.2981 10.4892 12.3724 10.611 12.4232C10.7327 12.4739 10.8633 12.5 10.9952 12.5C11.1271 12.5 11.2576 12.4739 11.3794 12.4232C11.5011 12.3724 11.6116 12.2981 11.7045 12.2044C11.7981 12.1116 11.8724 12.001 11.9232 11.8793C11.9739 11.7575 12 11.6269 12 11.495C12 11.3631 11.9739 11.2325 11.9232 11.1108C11.8724 10.989 11.7981 10.8785 11.7045 10.7856L7.40864 6.49915Z" fill="#272742"/>
</svg>
