<svg width="14" height="16" viewBox="0 0 14 16" fill="none" xmlns="http://www.w3.org/2000/svg">
<path d="M12.6667 2.66666H10.6C10.281 1.11572 8.91672 0.002 7.33331 0H5.99997C4.41656 0.002 3.05225 1.11572 2.73331 2.66666H0.666656C0.298469 2.66666 0 2.96513 0 3.33331C0 3.7015 0.298469 4 0.666656 4H1.33331V12.6667C1.33553 14.5067 2.82663 15.9978 4.66666 16H8.66666C10.5067 15.9978 11.9978 14.5067 12 12.6667V4H12.6667C13.0348 4 13.3333 3.70153 13.3333 3.33334C13.3333 2.96516 13.0348 2.66666 12.6667 2.66666ZM6 11.3333C6 11.7015 5.70153 12 5.33334 12C4.96512 12 4.66666 11.7015 4.66666 11.3333V7.33334C4.66666 6.96516 4.96512 6.66669 5.33331 6.66669C5.7015 6.66669 5.99997 6.96516 5.99997 7.33334V11.3333H6ZM8.66666 11.3333C8.66666 11.7015 8.36819 12 8 12C7.63181 12 7.33334 11.7015 7.33334 11.3333V7.33334C7.33334 6.96516 7.63181 6.66669 8 6.66669C8.36819 6.66669 8.66666 6.96516 8.66666 7.33334V11.3333ZM4.114 2.66666C4.39756 1.86819 5.15269 1.33434 6 1.33331H7.33334C8.18066 1.33434 8.93578 1.86819 9.21934 2.66666H4.114Z" fill="#D23427"/>
</svg>
