<svg width="10" height="11" viewBox="0 0 10 11" fill="none" xmlns="http://www.w3.org/2000/svg">
<path d="M2.33157 6.67197C2.18493 6.52315 2.18493 6.28212 2.33157 6.1333C2.40476 6.05889 2.501 6.02169 2.59697 6.02169C2.69307 6.02169 2.78904 6.05889 2.86236 6.1333L4.62638 7.92365L4.62651 1.36678C4.62651 1.15644 4.79462 0.98584 5.00187 0.98584C5.20913 0.98584 5.37724 1.15645 5.37724 1.36678L5.37711 7.92365L7.13734 6.13741C7.28398 5.9886 7.52175 5.9886 7.66813 6.13741C7.81477 6.28623 7.81477 6.52727 7.66813 6.67609L5.26727 9.11232C5.24973 9.13013 5.23048 9.14607 5.20966 9.16002C5.20076 9.16614 5.19107 9.17012 5.18177 9.17544C5.1696 9.18221 5.15794 9.18965 5.14498 9.1951C5.1328 9.20028 5.1201 9.20321 5.10753 9.20693C5.09667 9.21025 5.08632 9.2145 5.07493 9.21676C5.02636 9.22659 4.97647 9.22659 4.9279 9.21676C4.91664 9.2145 4.90617 9.21025 4.8953 9.20693C4.88273 9.20321 4.87003 9.20028 4.85785 9.1951C4.84489 9.18965 4.83324 9.18221 4.82106 9.17544C4.81176 9.17026 4.80208 9.16614 4.79317 9.16002C4.77249 9.14594 4.75311 9.13013 4.73556 9.11232L2.33157 6.67197ZM0.375368 10.9858L9.62463 10.9858C9.83189 10.9858 10 10.8152 10 10.6049C10 10.3946 9.83189 10.224 9.62463 10.224L0.375368 10.224C0.168107 10.224 0 10.3946 0 10.6049C0 10.8152 0.168114 10.9858 0.375368 10.9858Z" fill="white"/>
</svg>
