<svg width="70" height="66" viewBox="0 0 70 66" fill="none" xmlns="http://www.w3.org/2000/svg">
<path d="M62.0868 0H7.91718C3.55074 0 0 3.5702 0 7.9672V58.0417C0 62.4336 3.55074 66 7.91718 66H62.0866C66.453 66 70 62.4336 70 58.0417V7.9672C70.0002 3.5702 66.4532 0 62.0868 0ZM45.2657 11.8488C49.4883 11.8488 52.9127 15.2933 52.9127 19.5402C52.9127 23.7871 49.488 27.2316 45.2657 27.2316C41.042 27.2316 37.6187 23.7871 37.6187 19.5402C37.6187 15.2933 41.042 11.8488 45.2657 11.8488ZM59.6039 58.639H34.9994H11.4911C9.37914 58.639 8.43855 57.1021 9.39062 55.2059L22.5143 29.0611C23.4652 27.1652 25.2775 26.996 26.5609 28.6828L39.7572 46.0285C41.0406 47.7155 43.2838 47.8591 44.7685 46.3476L47.9968 43.0595C49.4803 41.5481 51.6661 41.7352 52.8769 43.4748L61.2364 55.4852C62.4449 57.2274 61.7159 58.639 59.6039 58.639Z" fill="#E4E4FF"/>
</svg>
