<svg width="16" height="17" viewBox="0 0 16 17" fill="none" xmlns="http://www.w3.org/2000/svg">
<g clip-path="url(#clip0_589_644)">
<path d="M4.65535 16.505C3.73117 16.5072 2.82715 16.2349 2.0579 15.7227C1.28865 15.2105 0.688806 14.4814 0.334411 13.6278C-0.0199827 12.7743 -0.112967 11.8348 0.0672461 10.9283C0.247459 10.0219 0.692755 9.18938 1.34668 8.53632L8.41335 1.47965C9.03882 0.852767 9.8877 0.500026 10.7732 0.499026C11.6588 0.498025 12.5085 0.848848 13.1353 1.47432C13.7622 2.09979 14.115 2.94867 14.116 3.83421C14.117 4.71976 13.7662 5.56943 13.1407 6.19632L6.07335 13.2523C5.69112 13.6166 5.18336 13.8198 4.65535 13.8198C4.12733 13.8198 3.61957 13.6166 3.23735 13.2523C3.05139 13.0666 2.90388 12.846 2.80323 12.6032C2.70258 12.3604 2.65077 12.1001 2.65077 11.8373C2.65077 11.5745 2.70258 11.3142 2.80323 11.0714C2.90388 10.8286 3.05139 10.6081 3.23735 10.4223L9.83335 3.83832L10.7787 4.78165L4.18268 11.367C4.0577 11.492 3.98749 11.6615 3.98749 11.8383C3.98749 12.0151 4.0577 12.1846 4.18268 12.3097C4.31004 12.4312 4.47931 12.499 4.65535 12.499C4.83138 12.499 5.00066 12.4312 5.12801 12.3097L12.2 5.25298C12.5753 4.87682 12.7858 4.36698 12.7852 3.83563C12.7845 3.30427 12.5728 2.79493 12.1967 2.41965C11.8205 2.04437 11.3107 1.83389 10.7793 1.83451C10.248 1.83514 9.73863 2.04682 9.36335 2.42298L2.29201 9.47898C1.66646 10.1058 1.31551 10.9554 1.31639 11.841C1.31726 12.7265 1.66989 13.5754 2.29668 14.201C2.92348 14.8265 3.7731 15.1775 4.65865 15.1766C5.54419 15.1757 6.39312 14.8231 7.01868 14.1963L15.0327 6.19632L15.978 7.13965L7.96402 15.1397C7.5295 15.5738 7.01356 15.9178 6.44579 16.1521C5.87801 16.3864 5.26956 16.5063 4.65535 16.505Z" fill="#654E8A"/>
</g>
<defs>
<clipPath id="clip0_589_644">
<rect width="16" height="16" fill="white" transform="translate(0 0.5)"/>
</clipPath>
</defs>
</svg>
