<svg width="26" height="26" viewBox="0 0 26 26" fill="none" xmlns="http://www.w3.org/2000/svg">
<path d="M6.99999 4H9.24999C10.9068 4 12.25 5.34314 12.25 6.99999V9.24999C12.25 10.9068 10.9068 12.25 9.24999 12.25H6.99999C5.34314 12.25 4 10.9069 4 9.24999V6.99999C4 5.34314 5.34314 4 6.99999 4Z" fill="#D8D8D8"/>
<path d="M16.75 4H19C20.6568 4 22 5.34314 22 6.99999V9.24999C22 10.9068 20.6568 12.25 19 12.25H16.75C15.0931 12.25 13.75 10.9068 13.75 9.24999V6.99999C13.75 5.34314 15.0931 4 16.75 4Z" fill="#D8D8D8"/>
<path d="M6.99999 13.75H9.24999C10.9068 13.75 12.25 15.0931 12.25 16.75V19C12.25 20.6568 10.9068 22 9.24999 22H6.99999C5.34314 22 4 20.6569 4 19V16.75C4 15.0931 5.34314 13.75 6.99999 13.75Z" fill="#D8D8D8"/>
<path d="M16.75 13.75H19C20.6568 13.75 22 15.0931 22 16.75V19C22 20.6569 20.6568 22 19 22H16.75C15.0931 22 13.75 20.6569 13.75 19V16.75C13.75 15.0931 15.0931 13.75 16.75 13.75Z" fill="#D8D8D8"/>
</svg>