<svg width="30" height="28" viewBox="0 0 30 28" fill="none" xmlns="http://www.w3.org/2000/svg">
<path d="M14.638 18.6667C13.673 18.6667 12.7297 18.393 11.9273 17.8802C11.125 17.3674 10.4996 16.6386 10.1304 15.7859C9.76107 14.9331 9.66445 13.9948 9.85271 13.0896C10.041 12.1843 10.5056 11.3528 11.188 10.7002C11.8703 10.0475 12.7397 9.60307 13.6861 9.423C14.6325 9.24294 15.6135 9.33535 16.5051 9.68856C17.3966 10.0418 18.1586 10.6399 18.6947 11.4073C19.2308 12.1748 19.5169 13.077 19.5169 14C19.5169 15.2377 19.0029 16.4247 18.0879 17.2998C17.1729 18.175 15.9319 18.6667 14.638 18.6667ZM6.93281 18.6667H1.22072C0.897227 18.6667 0.58698 18.5438 0.358233 18.325C0.129485 18.1062 0.000976563 17.8094 0.000976562 17.5C0.0125347 15.8248 0.649547 14.2087 1.79712 12.9431C2.9447 11.6775 4.52731 10.8458 6.2595 10.598C6.46079 10.571 6.66593 10.5926 6.85629 10.6607C7.04664 10.7289 7.21618 10.8414 7.34948 10.9882C7.48279 11.1349 7.57565 11.3112 7.61961 11.501C7.66358 11.6908 7.65726 11.8881 7.60123 12.075C7.41431 12.701 7.31948 13.3489 7.31947 14C7.31982 15.038 7.56409 16.0627 8.03424 16.9983C8.12267 17.1759 8.16272 17.372 8.15067 17.5684C8.13862 17.7647 8.07487 17.955 7.96533 18.1214C7.85579 18.2879 7.70403 18.4252 7.52415 18.5205C7.34427 18.6158 7.14211 18.6661 6.93646 18.6667H6.93281ZM20.7367 28H8.53921C8.21572 28 7.90547 27.8771 7.67672 27.6583C7.44797 27.4395 7.31947 27.1428 7.31947 26.8333C7.31947 24.9768 8.09052 23.1963 9.463 21.8836C10.8355 20.5708 12.697 19.8333 14.638 19.8333C16.5789 19.8333 18.4404 20.5708 19.8129 21.8836C21.1854 23.1963 21.9564 24.9768 21.9564 26.8333C21.9564 27.1428 21.8279 27.4395 21.5992 27.6583C21.3704 27.8771 21.0602 28 20.7367 28ZM21.9564 9.33333C20.9915 9.33333 20.0482 9.05964 19.2458 8.54686C18.4435 8.03408 17.8181 7.30525 17.4488 6.45252C17.0796 5.5998 16.9829 4.66149 17.1712 3.75625C17.3595 2.851 17.8241 2.01948 18.5065 1.36684C19.1888 0.714192 20.0582 0.269735 21.0046 0.0896708C21.951 -0.0903936 22.932 0.002022 23.8236 0.355231C24.7151 0.70844 25.4771 1.30658 26.0132 2.07401C26.5493 2.84144 26.8354 3.74369 26.8354 4.66667C26.8354 5.90435 26.3214 7.09133 25.4064 7.9665C24.4914 8.84167 23.2504 9.33333 21.9564 9.33333ZM7.31947 9.33333C6.35449 9.33333 5.41119 9.05964 4.60884 8.54686C3.8065 8.03408 3.18114 7.30525 2.81186 6.45252C2.44258 5.5998 2.34596 4.66149 2.53422 3.75625C2.72248 2.851 3.18716 2.01948 3.8695 1.36684C4.55184 0.714192 5.42119 0.269735 6.36762 0.0896708C7.31405 -0.0903936 8.29506 0.002022 9.18657 0.355231C10.0781 0.70844 10.8401 1.30658 11.3762 2.07401C11.9123 2.84144 12.1985 3.74369 12.1985 4.66667C12.1985 5.90435 11.6844 7.09133 10.7694 7.9665C9.85445 8.84167 8.61346 9.33333 7.31947 9.33333ZM28.0552 18.6667H22.3431C22.1375 18.6661 21.9353 18.6158 21.7554 18.5205C21.5755 18.4252 21.4238 18.2879 21.3142 18.1214C21.2047 17.955 21.1409 17.7647 21.1289 17.5684C21.1169 17.372 21.1569 17.1759 21.2453 16.9983C21.7142 16.0625 21.9572 15.0378 21.9564 14C21.9545 13.3487 21.8576 12.7008 21.6686 12.075C21.6122 11.8876 21.6059 11.6897 21.6501 11.4993C21.6944 11.309 21.7878 11.1323 21.9219 10.9853C22.0559 10.8384 22.2264 10.726 22.4176 10.6583C22.6088 10.5907 22.8147 10.5699 23.0164 10.598C24.7486 10.8458 26.3312 11.6775 27.4788 12.9431C28.6264 14.2087 29.2634 15.8248 29.2749 17.5C29.2749 17.8094 29.1464 18.1062 28.9177 18.325C28.6889 18.5438 28.3787 18.6667 28.0552 18.6667Z" fill="#EE7F35"/>
</svg>
