<svg width="29" height="28" viewBox="0 0 29 28" fill="none" xmlns="http://www.w3.org/2000/svg">
<g clip-path="url(#clip0_37_5826)">
<path d="M7.51258 18.1801C6.28215 17.0435 5.34362 15.6273 4.77642 14.0512C4.20923 12.4751 4.03006 10.7856 4.25408 9.1256C4.47559 7.44241 5.10194 5.83803 6.07944 4.44997C7.05693 3.06191 8.35643 1.93157 9.86654 1.15584C11.3767 0.3801 13.0523 -0.0178974 14.75 -0.00404493C16.4476 0.0098075 18.1166 0.435097 19.6139 1.23537C21.1111 2.03565 22.392 3.18704 23.3467 4.59087C24.3014 5.99469 24.9015 7.60908 25.0955 9.29566C25.2895 10.9822 25.0717 12.6907 24.4607 14.2747C23.8497 15.8586 22.8637 17.2708 21.5872 18.3901C20.7653 19.0968 20.1272 19.9923 19.7276 20.9999H15.8332V12.6186C16.5133 12.3782 17.1025 11.9335 17.5201 11.3454C17.9378 10.7573 18.1636 10.0546 18.1666 9.33327C18.1666 9.02385 18.0437 8.7271 17.8249 8.50831C17.6061 8.28952 17.3093 8.1666 16.9999 8.1666C16.6905 8.1666 16.3938 8.28952 16.175 8.50831C15.9562 8.7271 15.8332 9.02385 15.8332 9.33327C15.8332 9.64269 15.7103 9.93944 15.4915 10.1582C15.2727 10.377 14.976 10.4999 14.6666 10.4999C14.3572 10.4999 14.0604 10.377 13.8416 10.1582C13.6228 9.93944 13.4999 9.64269 13.4999 9.33327C13.4999 9.02385 13.377 8.7271 13.1582 8.50831C12.9394 8.28952 12.6427 8.1666 12.3333 8.1666C12.0238 8.1666 11.7271 8.28952 11.5083 8.50831C11.2895 8.7271 11.1666 9.02385 11.1666 9.33327C11.1696 10.0546 11.3953 10.7573 11.813 11.3454C12.2307 11.9335 12.8199 12.3782 13.4999 12.6186V20.9999H9.49008C9.04406 19.9272 8.36918 18.9649 7.51258 18.1801ZM9.99992 23.3333V23.6949C10.0012 24.8363 10.4551 25.9306 11.2622 26.7377C12.0693 27.5447 13.1635 27.9987 14.3049 27.9999H15.0282C16.1696 27.9987 17.2639 27.5447 18.071 26.7377C18.8781 25.9306 19.332 24.8363 19.3332 23.6949V23.3333H9.99992Z" fill="#9F6E9F"/>
</g>
<defs>
<clipPath id="clip0_37_5826">
<rect width="28" height="28" fill="white" transform="translate(0.666626)"/>
</clipPath>
</defs>
</svg>
