<svg width="28" height="28" viewBox="0 0 28 28" fill="none" xmlns="http://www.w3.org/2000/svg">
<path d="M14 18.6667C13.077 18.6667 12.1748 18.393 11.4073 17.8802C10.6399 17.3674 10.0418 16.6386 9.68856 15.7859C9.33535 14.9331 9.24294 13.9948 9.423 13.0896C9.60307 12.1843 10.0475 11.3528 10.7002 10.7002C11.3528 10.0475 12.1843 9.60307 13.0896 9.423C13.9948 9.24294 14.9331 9.33535 15.7859 9.68856C16.6386 10.0418 17.3674 10.6399 17.8802 11.4073C18.393 12.1748 18.6667 13.077 18.6667 14C18.6667 15.2377 18.175 16.4247 17.2998 17.2998C16.4247 18.175 15.2377 18.6667 14 18.6667ZM6.63017 18.6667H1.16667C0.857247 18.6667 0.560501 18.5438 0.341709 18.325C0.122916 18.1062 0 17.8094 0 17.5C0.0110551 15.8248 0.620345 14.2087 1.71798 12.9431C2.81562 11.6775 4.32935 10.8458 5.98617 10.598C6.17869 10.571 6.37491 10.5926 6.55698 10.6607C6.73905 10.7289 6.9012 10.8414 7.02871 10.9882C7.15622 11.1349 7.24503 11.3112 7.28709 11.501C7.32914 11.6908 7.32309 11.8881 7.2695 12.075C7.09071 12.701 7.00001 13.3489 7 14C7.00034 15.038 7.23398 16.0627 7.68367 16.9983C7.76825 17.1759 7.80655 17.372 7.79503 17.5684C7.78351 17.7647 7.72253 17.955 7.61776 18.1214C7.51298 18.2879 7.36783 18.4252 7.19577 18.5205C7.02372 18.6158 6.83036 18.6661 6.63367 18.6667H6.63017ZM19.8333 28H8.16667C7.85725 28 7.5605 27.8771 7.34171 27.6583C7.12292 27.4395 7 27.1428 7 26.8333C7 24.9768 7.7375 23.1963 9.05025 21.8836C10.363 20.5708 12.1435 19.8333 14 19.8333C15.8565 19.8333 17.637 20.5708 18.9497 21.8836C20.2625 23.1963 21 24.9768 21 26.8333C21 27.1428 20.8771 27.4395 20.6583 27.6583C20.4395 27.8771 20.1428 28 19.8333 28ZM21 9.33333C20.077 9.33333 19.1748 9.05964 18.4073 8.54686C17.6399 8.03408 17.0418 7.30525 16.6886 6.45252C16.3354 5.5998 16.2429 4.66149 16.423 3.75625C16.6031 2.851 17.0475 2.01948 17.7002 1.36684C18.3528 0.714192 19.1843 0.269735 20.0896 0.0896708C20.9948 -0.0903936 21.9331 0.002022 22.7859 0.355231C23.6386 0.70844 24.3674 1.30658 24.8802 2.07401C25.393 2.84144 25.6667 3.74369 25.6667 4.66667C25.6667 5.90435 25.175 7.09133 24.2998 7.9665C23.4247 8.84167 22.2377 9.33333 21 9.33333ZM7 9.33333C6.07702 9.33333 5.17477 9.05964 4.40734 8.54686C3.63991 8.03408 3.04177 7.30525 2.68856 6.45252C2.33535 5.5998 2.24294 4.66149 2.423 3.75625C2.60307 2.851 3.04752 2.01948 3.70017 1.36684C4.35281 0.714192 5.18433 0.269735 6.08958 0.0896708C6.99482 -0.0903936 7.93313 0.002022 8.78586 0.355231C9.63858 0.70844 10.3674 1.30658 10.8802 2.07401C11.393 2.84144 11.6667 3.74369 11.6667 4.66667C11.6667 5.90435 11.175 7.09133 10.2998 7.9665C9.42466 8.84167 8.23768 9.33333 7 9.33333ZM26.8333 18.6667H21.3698C21.1731 18.6661 20.9798 18.6158 20.8077 18.5205C20.6357 18.4252 20.4905 18.2879 20.3857 18.1214C20.281 17.955 20.22 17.7647 20.2085 17.5684C20.1969 17.372 20.2353 17.1759 20.3198 16.9983C20.7683 16.0625 21.0008 15.0378 21 14C20.9981 13.3487 20.9054 12.7008 20.7247 12.075C20.6708 11.8876 20.6647 11.6897 20.707 11.4993C20.7493 11.309 20.8387 11.1323 20.9669 10.9853C21.0952 10.8384 21.2582 10.726 21.441 10.6583C21.6239 10.5907 21.8209 10.5699 22.0138 10.598C23.6706 10.8458 25.1844 11.6775 26.282 12.9431C27.3797 14.2087 27.9889 15.8248 28 17.5C28 17.8094 27.8771 18.1062 27.6583 18.325C27.4395 18.5438 27.1428 18.6667 26.8333 18.6667Z" fill="#88AB74"/>
</svg>
