<svg width="26" height="26" viewBox="0 0 26 26" fill="none" xmlns="http://www.w3.org/2000/svg">
<rect width="26" height="26" rx="4" fill="#F2ECF6"/>
<g clip-path="url(#clip0_45_10299)">
<path d="M9.25 8.5H21.25C21.4489 8.5 21.6397 8.42098 21.7803 8.28033C21.921 8.13968 22 7.94891 22 7.75C22 7.55109 21.921 7.36032 21.7803 7.21967C21.6397 7.07902 21.4489 7 21.25 7H9.25C9.05109 7 8.86032 7.07902 8.71967 7.21967C8.57902 7.36032 8.5 7.55109 8.5 7.75C8.5 7.94891 8.57902 8.13968 8.71967 8.28033C8.86032 8.42098 9.05109 8.5 9.25 8.5Z" fill="#654E8A"/>
<path d="M21.25 12.25H9.25C9.05109 12.25 8.86032 12.329 8.71967 12.4697C8.57902 12.6103 8.5 12.8011 8.5 13C8.5 13.1989 8.57902 13.3897 8.71967 13.5303C8.86032 13.671 9.05109 13.75 9.25 13.75H21.25C21.4489 13.75 21.6397 13.671 21.7803 13.5303C21.921 13.3897 22 13.1989 22 13C22 12.8011 21.921 12.6103 21.7803 12.4697C21.6397 12.329 21.4489 12.25 21.25 12.25Z" fill="#654E8A"/>
<path d="M21.25 17.5H9.25C9.05109 17.5 8.86032 17.579 8.71967 17.7197C8.57902 17.8603 8.5 18.0511 8.5 18.25C8.5 18.4489 8.57902 18.6397 8.71967 18.7803C8.86032 18.921 9.05109 19 9.25 19H21.25C21.4489 19 21.6397 18.921 21.7803 18.7803C21.921 18.6397 22 18.4489 22 18.25C22 18.0511 21.921 17.8603 21.7803 17.7197C21.6397 17.579 21.4489 17.5 21.25 17.5Z" fill="#654E8A"/>
<path d="M5.5 9.25C6.32843 9.25 7 8.57843 7 7.75C7 6.92157 6.32843 6.25 5.5 6.25C4.67157 6.25 4 6.92157 4 7.75C4 8.57843 4.67157 9.25 5.5 9.25Z" fill="#654E8A"/>
<path d="M5.5 14.5C6.32843 14.5 7 13.8284 7 13C7 12.1716 6.32843 11.5 5.5 11.5C4.67157 11.5 4 12.1716 4 13C4 13.8284 4.67157 14.5 5.5 14.5Z" fill="#654E8A"/>
<path d="M5.5 19.75C6.32843 19.75 7 19.0784 7 18.25C7 17.4216 6.32843 16.75 5.5 16.75C4.67157 16.75 4 17.4216 4 18.25C4 19.0784 4.67157 19.75 5.5 19.75Z" fill="#654E8A"/>
</g>
<defs>
<clipPath id="clip0_45_10299">
<rect width="18" height="18" fill="white" transform="translate(4 4)"/>
</clipPath>
</defs>
</svg>
