<svg width="14" height="14" viewBox="0 0 14 14" fill="none" xmlns="http://www.w3.org/2000/svg">
<g clip-path="url(#clip0_114_28399)">
<path d="M9.33333 6.13151C10.1387 6.13151 10.7917 5.47859 10.7917 4.67318C10.7917 3.86776 10.1387 3.21484 9.33333 3.21484C8.52792 3.21484 7.875 3.86776 7.875 4.67318C7.875 5.47859 8.52792 6.13151 9.33333 6.13151Z" fill="#654E8A"/>
<path d="M13.4166 9.33301C13.2619 9.33301 13.1135 9.39447 13.0041 9.50386C12.8947 9.61326 12.8333 9.76163 12.8333 9.91634V11.083C12.8333 11.5471 12.6489 11.9923 12.3207 12.3204C11.9925 12.6486 11.5474 12.833 11.0833 12.833H9.91659C9.76188 12.833 9.6135 12.8945 9.50411 13.0039C9.39471 13.1133 9.33325 13.2616 9.33325 13.4163C9.33325 13.5711 9.39471 13.7194 9.50411 13.8288C9.6135 13.9382 9.76188 13.9997 9.91659 13.9997H11.0833C11.8565 13.9987 12.5978 13.6912 13.1446 13.1444C13.6914 12.5976 13.999 11.8563 13.9999 11.083V9.91634C13.9999 9.76163 13.9385 9.61326 13.8291 9.50386C13.7197 9.39447 13.5713 9.33301 13.4166 9.33301Z" fill="#654E8A"/>
<path d="M0.583333 4.66667C0.738043 4.66667 0.886416 4.60521 0.995812 4.49581C1.10521 4.38642 1.16667 4.23804 1.16667 4.08333V2.91667C1.16667 2.45254 1.35104 2.00742 1.67923 1.67923C2.00742 1.35104 2.45254 1.16667 2.91667 1.16667H4.08333C4.23804 1.16667 4.38642 1.10521 4.49581 0.995812C4.60521 0.886416 4.66667 0.738043 4.66667 0.583333C4.66667 0.428624 4.60521 0.280251 4.49581 0.170854C4.38642 0.0614582 4.23804 0 4.08333 0L2.91667 0C2.1434 0.00092625 1.40208 0.308515 0.855295 0.855295C0.308515 1.40208 0.00092625 2.1434 0 2.91667L0 4.08333C0 4.23804 0.0614582 4.38642 0.170854 4.49581C0.280251 4.60521 0.428624 4.66667 0.583333 4.66667Z" fill="#654E8A"/>
<path d="M4.08333 12.833H2.91667C2.45254 12.833 2.00742 12.6486 1.67923 12.3204C1.35104 11.9923 1.16667 11.5471 1.16667 11.083V9.91634C1.16667 9.76163 1.10521 9.61326 0.995812 9.50386C0.886416 9.39447 0.738043 9.33301 0.583333 9.33301C0.428624 9.33301 0.280251 9.39447 0.170854 9.50386C0.0614582 9.61326 0 9.76163 0 9.91634L0 11.083C0.00092625 11.8563 0.308515 12.5976 0.855295 13.1444C1.40208 13.6912 2.1434 13.9987 2.91667 13.9997H4.08333C4.23804 13.9997 4.38642 13.9382 4.49581 13.8288C4.60521 13.7194 4.66667 13.5711 4.66667 13.4163C4.66667 13.2616 4.60521 13.1133 4.49581 13.0039C4.38642 12.8945 4.23804 12.833 4.08333 12.833Z" fill="#654E8A"/>
<path d="M11.0833 0H9.91659C9.76188 0 9.6135 0.0614582 9.50411 0.170854C9.39471 0.280251 9.33325 0.428624 9.33325 0.583333C9.33325 0.738043 9.39471 0.886416 9.50411 0.995812C9.6135 1.10521 9.76188 1.16667 9.91659 1.16667H11.0833C11.5474 1.16667 11.9925 1.35104 12.3207 1.67923C12.6489 2.00742 12.8333 2.45254 12.8333 2.91667V4.08333C12.8333 4.23804 12.8947 4.38642 13.0041 4.49581C13.1135 4.60521 13.2619 4.66667 13.4166 4.66667C13.5713 4.66667 13.7197 4.60521 13.8291 4.49581C13.9385 4.38642 13.9999 4.23804 13.9999 4.08333V2.91667C13.999 2.1434 13.6914 1.40208 13.1446 0.855295C12.5978 0.308515 11.8565 0.00092625 11.0833 0Z" fill="#654E8A"/>
<path d="M10.9123 10.0879L6.48717 5.66277C6.159 5.33469 5.71396 5.15039 5.24992 5.15039C4.78588 5.15039 4.34084 5.33469 4.01267 5.66277L2.67509 7.00035C2.45628 7.21909 2.33332 7.51579 2.33325 7.82518V9.33368C2.33325 9.79781 2.51763 10.2429 2.84582 10.5711C3.174 10.8993 3.61912 11.0837 4.08325 11.0837H10.4999C10.6153 11.0837 10.728 11.0494 10.8239 10.9853C10.9198 10.9212 10.9946 10.8301 11.0387 10.7236C11.0829 10.617 11.0944 10.4997 11.0719 10.3866C11.0494 10.2734 10.9939 10.1695 10.9123 10.0879Z" fill="#654E8A"/>
</g>
<defs>
<clipPath id="clip0_114_28399">
<rect width="14" height="14" fill="white"/>
</clipPath>
</defs>
</svg>
