<svg width="172" height="97" viewBox="0 0 172 97" fill="none" xmlns="http://www.w3.org/2000/svg">
<g opacity="0.4">
<path d="M93.5664 7.96572C87.9768 7.85394 82.2114 11.0549 80.6299 18.2774C74.1932 16.0804 68.3814 20.4136 68.9851 27.3324C65.6173 28.6937 63.25 31.9838 63.25 35.8509C63.25 40.943 67.3493 45.0423 72.4414 45.0423H83.6069C83.6038 41.9478 83.5974 35.7385 83.5974 34.5623L80.9789 35.5113C79.0794 36.3299 77.6764 33.9379 79.3032 32.4485L84.2575 27.6338C85.3891 26.5022 86.7407 26.632 87.7424 27.6338L92.6968 32.4485C94.3236 33.9379 92.9206 36.3299 91.021 35.5113L88.4026 34.5623V45.0423H99.5586C104.651 45.0423 108.75 40.943 108.75 35.8509C108.75 32.1031 106.525 28.8993 103.323 27.4656C109.528 15.3675 101.736 8.12884 93.5664 7.96572Z" fill="#654E8A"/>
<path d="M93.5664 7.96369C93.255 7.95755 92.9133 7.96824 92.6015 7.98206C85.4623 19.2334 96.4957 27.4631 103.323 27.4631C109.528 15.3648 101.736 8.12681 93.5664 7.96369Z" fill="#9C8BB8"/>
</g>
<path d="M1.369 66.673V61.547H2.447V66.607C2.447 67.883 3.151 68.587 4.416 68.587C5.67 68.587 6.363 67.872 6.363 66.607V61.547H7.452V66.673C7.452 68.499 6.286 69.632 4.416 69.632C2.535 69.632 1.369 68.51 1.369 66.673ZM9.22831 71.909V64.121H10.1633L10.2403 65.089C10.6033 64.352 11.3293 63.967 12.1873 63.967C13.7273 63.967 14.6843 65.122 14.6843 66.772C14.6843 68.411 13.7823 69.643 12.1873 69.643C11.3293 69.643 10.6143 69.28 10.2623 68.62V71.909H9.22831ZM10.2733 66.816C10.2733 67.916 10.9113 68.708 11.9673 68.708C13.0233 68.708 13.6503 67.916 13.6503 66.816C13.6503 65.705 13.0233 64.913 11.9673 64.913C10.9113 64.913 10.2733 65.694 10.2733 66.816ZM17.04 69.5H16.006V61.404H17.04V69.5ZM18.3701 66.805C18.3701 65.144 19.5581 63.978 21.1751 63.978C22.7811 63.978 23.9691 65.144 23.9691 66.805C23.9691 68.466 22.7811 69.632 21.1751 69.632C19.5581 69.632 18.3701 68.466 18.3701 66.805ZM19.4151 66.805C19.4151 67.927 20.1301 68.708 21.1751 68.708C22.2091 68.708 22.9351 67.927 22.9351 66.805C22.9351 65.683 22.2091 64.902 21.1751 64.902C20.1301 64.902 19.4151 65.683 19.4151 66.805ZM26.8467 69.632C25.6917 69.632 25.0097 68.983 25.0097 68.004C25.0097 67.014 25.7467 66.398 27.0117 66.299L28.7057 66.167V66.013C28.7057 65.111 28.1667 64.792 27.4407 64.792C26.5717 64.792 26.0767 65.177 26.0767 65.826H25.1747C25.1747 64.704 26.0987 63.967 27.4847 63.967C28.8157 63.967 29.7177 64.671 29.7177 66.123V69.5H28.8377L28.7277 68.631C28.4527 69.247 27.7157 69.632 26.8467 69.632ZM27.1437 68.829C28.1227 68.829 28.7167 68.191 28.7167 67.179V66.893L27.3417 67.003C26.4287 67.091 26.0547 67.443 26.0547 67.971C26.0547 68.543 26.4727 68.829 27.1437 68.829ZM33.4657 69.632C31.9037 69.632 30.9577 68.466 30.9577 66.827C30.9577 65.177 31.9147 63.967 33.5097 63.967C34.3347 63.967 35.0277 64.33 35.3907 64.99V61.404H36.4137V69.5H35.4897L35.4017 68.521C35.0497 69.258 34.3237 69.632 33.4657 69.632ZM33.6747 68.697C34.7307 68.697 35.3797 67.916 35.3797 66.794C35.3797 65.694 34.7307 64.902 33.6747 64.902C32.6187 64.902 32.0027 65.694 32.0027 66.794C32.0027 67.905 32.6187 68.697 33.6747 68.697ZM38.3404 69.5H37.3174L40.4194 61.558H41.4534L38.3404 69.5ZM45.1662 69.5H42.5372V61.547H45.1222C47.4982 61.547 49.1042 63.153 49.1042 65.529C49.1042 67.894 47.5202 69.5 45.1662 69.5ZM45.0452 62.537H43.6152V68.499H45.0892C46.8602 68.499 47.9822 67.355 47.9822 65.529C47.9822 63.681 46.8602 62.537 45.0452 62.537ZM53.5396 64.077V65.023H53.0776C52.0986 65.023 51.4936 65.617 51.4936 66.651V69.5H50.4596V64.132H51.4276L51.4936 64.946C51.7136 64.385 52.2526 64.011 52.9896 64.011C53.1766 64.011 53.3306 64.033 53.5396 64.077ZM56.0276 69.632C54.8726 69.632 54.1906 68.983 54.1906 68.004C54.1906 67.014 54.9276 66.398 56.1926 66.299L57.8866 66.167V66.013C57.8866 65.111 57.3476 64.792 56.6216 64.792C55.7526 64.792 55.2576 65.177 55.2576 65.826H54.3556C54.3556 64.704 55.2796 63.967 56.6656 63.967C57.9966 63.967 58.8986 64.671 58.8986 66.123V69.5H58.0186L57.9086 68.631C57.6336 69.247 56.8966 69.632 56.0276 69.632ZM56.3246 68.829C57.3036 68.829 57.8976 68.191 57.8976 67.179V66.893L56.5226 67.003C55.6096 67.091 55.2356 67.443 55.2356 67.971C55.2356 68.543 55.6536 68.829 56.3246 68.829ZM60.1496 66.673C60.1496 65.155 61.1286 63.967 62.6906 63.967C63.5596 63.967 64.2306 64.363 64.5716 65.034L64.6486 64.121H65.5726V69.28C65.5726 70.974 64.5276 72.052 62.8776 72.052C61.4146 72.052 60.4136 71.227 60.2156 69.863H61.2496C61.3816 70.655 61.9756 71.117 62.8776 71.117C63.8896 71.117 64.5496 70.457 64.5496 69.434V68.356C64.1976 68.983 63.4936 69.357 62.6466 69.357C61.1176 69.357 60.1496 68.18 60.1496 66.673ZM61.1836 66.651C61.1836 67.663 61.8106 68.455 62.8226 68.455C63.8676 68.455 64.5056 67.707 64.5056 66.651C64.5056 65.617 63.8896 64.869 62.8336 64.869C61.7996 64.869 61.1836 65.661 61.1836 66.651ZM70.1066 63.692C70.1066 62.328 71.2066 61.404 72.8456 61.404C74.3636 61.404 75.3426 62.251 75.4306 63.626H74.3416C74.2866 62.834 73.7256 62.372 72.8346 62.372C71.8336 62.372 71.1846 62.878 71.1846 63.659C71.1846 64.297 71.5476 64.682 72.2956 64.858L73.6046 65.166C74.9026 65.463 75.5626 66.167 75.5626 67.289C75.5626 68.719 74.4516 69.632 72.7576 69.632C71.1406 69.632 70.0626 68.785 69.9966 67.421H71.0966C71.1186 68.18 71.7566 68.664 72.7576 68.664C73.8136 68.664 74.4846 68.169 74.4846 67.377C74.4846 66.75 74.1436 66.354 73.3846 66.178L72.0756 65.881C70.7776 65.584 70.1066 64.836 70.1066 63.692ZM78.4192 69.5H77.3852V64.99H76.3292V64.121H77.3852V62.438H78.4192V64.121H79.4752V64.99H78.4192V69.5ZM84.2812 64.121H85.3042V69.5H84.3802L84.2702 68.686C83.9622 69.247 83.2472 69.632 82.4552 69.632C81.2012 69.632 80.4972 68.785 80.4972 67.465V64.121H81.5312V67.124C81.5312 68.279 82.0262 68.719 82.8182 68.719C83.7642 68.719 84.2812 68.114 84.2812 66.959V64.121ZM89.013 69.632C87.451 69.632 86.505 68.466 86.505 66.827C86.505 65.177 87.462 63.967 89.057 63.967C89.882 63.967 90.575 64.33 90.938 64.99V61.404H91.961V69.5H91.037L90.949 68.521C90.597 69.258 89.871 69.632 89.013 69.632ZM89.222 68.697C90.278 68.697 90.927 67.916 90.927 66.794C90.927 65.694 90.278 64.902 89.222 64.902C88.166 64.902 87.55 65.694 87.55 66.794C87.55 67.905 88.166 68.697 89.222 68.697ZM95.9337 69.632C94.3497 69.632 93.2607 68.488 93.2607 66.816C93.2607 65.133 94.3277 63.967 95.8897 63.967C97.4187 63.967 98.4197 65.023 98.4197 66.618V67.003L94.2617 67.014C94.3387 68.147 94.9327 68.774 95.9557 68.774C96.7587 68.774 97.2867 68.444 97.4627 67.828H98.4307C98.1667 68.983 97.2647 69.632 95.9337 69.632ZM95.8897 64.836C94.9877 64.836 94.4157 65.375 94.2837 66.321H97.3857C97.3857 65.43 96.8027 64.836 95.8897 64.836ZM100.769 69.5H99.7346V64.121H100.67L100.78 64.946C101.121 64.33 101.803 63.967 102.562 63.967C103.981 63.967 104.63 64.836 104.63 66.211V69.5H103.596V66.442C103.596 65.353 103.09 64.913 102.298 64.913C101.33 64.913 100.769 65.606 100.769 66.651V69.5ZM107.74 69.5H106.706V64.99H105.65V64.121H106.706V62.438H107.74V64.121H108.796V64.99H107.74V69.5ZM118.079 69.5H113.228V61.547H118.079V62.537H114.306V65.023H117.705V65.98H114.306V68.499H118.079V69.5ZM120.175 69.5H118.987L120.868 66.838L118.998 64.121H120.197L121.561 66.123L122.892 64.121H124.069L122.199 66.838L124.036 69.5H122.837L121.495 67.531L120.175 69.5ZM124.535 66.816C124.535 65.133 125.602 63.967 127.175 63.967C128.528 63.967 129.474 64.737 129.661 65.936H128.627C128.451 65.254 127.901 64.891 127.208 64.891C126.229 64.891 125.558 65.639 125.558 66.805C125.558 67.96 126.185 68.708 127.164 68.708C127.901 68.708 128.451 68.323 128.638 67.685H129.672C129.463 68.851 128.462 69.632 127.164 69.632C125.58 69.632 124.535 68.51 124.535 66.816ZM133.244 69.632C131.66 69.632 130.571 68.488 130.571 66.816C130.571 65.133 131.638 63.967 133.2 63.967C134.729 63.967 135.73 65.023 135.73 66.618V67.003L131.572 67.014C131.649 68.147 132.243 68.774 133.266 68.774C134.069 68.774 134.597 68.444 134.773 67.828H135.741C135.477 68.983 134.575 69.632 133.244 69.632ZM133.2 64.836C132.298 64.836 131.726 65.375 131.594 66.321H134.696C134.696 65.43 134.113 64.836 133.2 64.836ZM138.101 69.5H137.067V61.404H138.101V69.5ZM142.665 63.692C142.665 62.328 143.765 61.404 145.404 61.404C146.922 61.404 147.901 62.251 147.989 63.626H146.9C146.845 62.834 146.284 62.372 145.393 62.372C144.392 62.372 143.743 62.878 143.743 63.659C143.743 64.297 144.106 64.682 144.854 64.858L146.163 65.166C147.461 65.463 148.121 66.167 148.121 67.289C148.121 68.719 147.01 69.632 145.316 69.632C143.699 69.632 142.621 68.785 142.555 67.421H143.655C143.677 68.18 144.315 68.664 145.316 68.664C146.372 68.664 147.043 68.169 147.043 67.377C147.043 66.75 146.702 66.354 145.943 66.178L144.634 65.881C143.336 65.584 142.665 64.836 142.665 63.692ZM150.494 69.489H149.46V61.404H150.494V64.946C150.835 64.363 151.484 63.967 152.32 63.967C153.695 63.967 154.355 64.836 154.355 66.211V69.5H153.321V66.442C153.321 65.353 152.804 64.913 152.034 64.913C151.033 64.913 150.494 65.639 150.494 66.563V69.489ZM158.268 69.632C156.684 69.632 155.595 68.488 155.595 66.816C155.595 65.133 156.662 63.967 158.224 63.967C159.753 63.967 160.754 65.023 160.754 66.618V67.003L156.596 67.014C156.673 68.147 157.267 68.774 158.29 68.774C159.093 68.774 159.621 68.444 159.797 67.828H160.765C160.501 68.983 159.599 69.632 158.268 69.632ZM158.224 64.836C157.322 64.836 156.75 65.375 156.618 66.321H159.72C159.72 65.43 159.137 64.836 158.224 64.836ZM164.39 69.632C162.806 69.632 161.717 68.488 161.717 66.816C161.717 65.133 162.784 63.967 164.346 63.967C165.875 63.967 166.876 65.023 166.876 66.618V67.003L162.718 67.014C162.795 68.147 163.389 68.774 164.412 68.774C165.215 68.774 165.743 68.444 165.919 67.828H166.887C166.623 68.983 165.721 69.632 164.39 69.632ZM164.346 64.836C163.444 64.836 162.872 65.375 162.74 66.321H165.842C165.842 65.43 165.259 64.836 164.346 64.836ZM169.655 69.5H168.621V64.99H167.565V64.121H168.621V62.438H169.655V64.121H170.711V64.99H169.655V69.5Z" fill="#838283"/>
<mask id="path-4-inside-1_298_1332" fill="white">
<path d="M67.5 78.5H104.5V96.5H67.5V78.5Z"/>
</mask>
<path d="M104.5 95.5H67.5V97.5H104.5V95.5Z" fill="#654E8A" mask="url(#path-4-inside-1_298_1332)"/>
<path d="M68.369 88.673V83.547H69.447V88.607C69.447 89.883 70.151 90.587 71.416 90.587C72.67 90.587 73.363 89.872 73.363 88.607V83.547H74.452V88.673C74.452 90.499 73.286 91.632 71.416 91.632C69.535 91.632 68.369 90.51 68.369 88.673ZM76.2283 93.909V86.121H77.1633L77.2403 87.089C77.6033 86.352 78.3293 85.967 79.1873 85.967C80.7273 85.967 81.6843 87.122 81.6843 88.772C81.6843 90.411 80.7823 91.643 79.1873 91.643C78.3293 91.643 77.6143 91.28 77.2623 90.62V93.909H76.2283ZM77.2733 88.816C77.2733 89.916 77.9113 90.708 78.9673 90.708C80.0233 90.708 80.6503 89.916 80.6503 88.816C80.6503 87.705 80.0233 86.913 78.9673 86.913C77.9113 86.913 77.2733 87.694 77.2733 88.816ZM84.04 91.5H83.006V83.404H84.04V91.5ZM85.3701 88.805C85.3701 87.144 86.5581 85.978 88.1751 85.978C89.7811 85.978 90.9691 87.144 90.9691 88.805C90.9691 90.466 89.7811 91.632 88.1751 91.632C86.5581 91.632 85.3701 90.466 85.3701 88.805ZM86.4151 88.805C86.4151 89.927 87.1301 90.708 88.1751 90.708C89.2091 90.708 89.9351 89.927 89.9351 88.805C89.9351 87.683 89.2091 86.902 88.1751 86.902C87.1301 86.902 86.4151 87.683 86.4151 88.805ZM93.8467 91.632C92.6917 91.632 92.0097 90.983 92.0097 90.004C92.0097 89.014 92.7467 88.398 94.0117 88.299L95.7057 88.167V88.013C95.7057 87.111 95.1667 86.792 94.4407 86.792C93.5717 86.792 93.0767 87.177 93.0767 87.826H92.1747C92.1747 86.704 93.0987 85.967 94.4847 85.967C95.8157 85.967 96.7177 86.671 96.7177 88.123V91.5H95.8377L95.7277 90.631C95.4527 91.247 94.7157 91.632 93.8467 91.632ZM94.1437 90.829C95.1227 90.829 95.7167 90.191 95.7167 89.179V88.893L94.3417 89.003C93.4287 89.091 93.0547 89.443 93.0547 89.971C93.0547 90.543 93.4727 90.829 94.1437 90.829ZM100.466 91.632C98.9037 91.632 97.9577 90.466 97.9577 88.827C97.9577 87.177 98.9147 85.967 100.51 85.967C101.335 85.967 102.028 86.33 102.391 86.99V83.404H103.414V91.5H102.49L102.402 90.521C102.05 91.258 101.324 91.632 100.466 91.632ZM100.675 90.697C101.731 90.697 102.38 89.916 102.38 88.794C102.38 87.694 101.731 86.902 100.675 86.902C99.6187 86.902 99.0027 87.694 99.0027 88.794C99.0027 89.905 99.6187 90.697 100.675 90.697Z" fill="#654E8A"/>
</svg>
