<svg width="188" height="97" viewBox="0 0 188 97" fill="none" xmlns="http://www.w3.org/2000/svg">
<g opacity="0.4">
<path d="M101.566 7.96572C95.9768 7.85394 90.2114 11.0549 88.6299 18.2774C82.1932 16.0804 76.3814 20.4136 76.9851 27.3324C73.6173 28.6937 71.25 31.9838 71.25 35.8509C71.25 40.943 75.3493 45.0423 80.4414 45.0423H91.6069C91.6038 41.9478 91.5974 35.7385 91.5974 34.5623L88.9789 35.5113C87.0794 36.3299 85.6764 33.9379 87.3032 32.4485L92.2575 27.6338C93.3891 26.5022 94.7407 26.632 95.7424 27.6338L100.697 32.4485C102.324 33.9379 100.921 36.3299 99.021 35.5113L96.4026 34.5623V45.0423H107.559C112.651 45.0423 116.75 40.943 116.75 35.8509C116.75 32.1031 114.525 28.8993 111.323 27.4656C117.528 15.3675 109.736 8.12884 101.566 7.96572Z" fill="#654E8A"/>
<path d="M101.566 7.96369C101.255 7.95755 100.913 7.96824 100.602 7.98206C93.4623 19.2334 104.496 27.4631 111.323 27.4631C117.528 15.3648 109.736 8.12681 101.566 7.96369Z" fill="#9C8BB8"/>
</g>
<path d="M1.369 66.673V61.547H2.447V66.607C2.447 67.883 3.151 68.587 4.416 68.587C5.67 68.587 6.363 67.872 6.363 66.607V61.547H7.452V66.673C7.452 68.499 6.286 69.632 4.416 69.632C2.535 69.632 1.369 68.51 1.369 66.673ZM9.22831 71.909V64.121H10.1633L10.2403 65.089C10.6033 64.352 11.3293 63.967 12.1873 63.967C13.7273 63.967 14.6843 65.122 14.6843 66.772C14.6843 68.411 13.7823 69.643 12.1873 69.643C11.3293 69.643 10.6143 69.28 10.2623 68.62V71.909H9.22831ZM10.2733 66.816C10.2733 67.916 10.9113 68.708 11.9673 68.708C13.0233 68.708 13.6503 67.916 13.6503 66.816C13.6503 65.705 13.0233 64.913 11.9673 64.913C10.9113 64.913 10.2733 65.694 10.2733 66.816ZM17.04 69.5H16.006V61.404H17.04V69.5ZM18.3701 66.805C18.3701 65.144 19.5581 63.978 21.1751 63.978C22.7811 63.978 23.9691 65.144 23.9691 66.805C23.9691 68.466 22.7811 69.632 21.1751 69.632C19.5581 69.632 18.3701 68.466 18.3701 66.805ZM19.4151 66.805C19.4151 67.927 20.1301 68.708 21.1751 68.708C22.2091 68.708 22.9351 67.927 22.9351 66.805C22.9351 65.683 22.2091 64.902 21.1751 64.902C20.1301 64.902 19.4151 65.683 19.4151 66.805ZM26.8467 69.632C25.6917 69.632 25.0097 68.983 25.0097 68.004C25.0097 67.014 25.7467 66.398 27.0117 66.299L28.7057 66.167V66.013C28.7057 65.111 28.1667 64.792 27.4407 64.792C26.5717 64.792 26.0767 65.177 26.0767 65.826H25.1747C25.1747 64.704 26.0987 63.967 27.4847 63.967C28.8157 63.967 29.7177 64.671 29.7177 66.123V69.5H28.8377L28.7277 68.631C28.4527 69.247 27.7157 69.632 26.8467 69.632ZM27.1437 68.829C28.1227 68.829 28.7167 68.191 28.7167 67.179V66.893L27.3417 67.003C26.4287 67.091 26.0547 67.443 26.0547 67.971C26.0547 68.543 26.4727 68.829 27.1437 68.829ZM33.4657 69.632C31.9037 69.632 30.9577 68.466 30.9577 66.827C30.9577 65.177 31.9147 63.967 33.5097 63.967C34.3347 63.967 35.0277 64.33 35.3907 64.99V61.404H36.4137V69.5H35.4897L35.4017 68.521C35.0497 69.258 34.3237 69.632 33.4657 69.632ZM33.6747 68.697C34.7307 68.697 35.3797 67.916 35.3797 66.794C35.3797 65.694 34.7307 64.902 33.6747 64.902C32.6187 64.902 32.0027 65.694 32.0027 66.794C32.0027 67.905 32.6187 68.697 33.6747 68.697ZM38.3404 69.5H37.3174L40.4194 61.558H41.4534L38.3404 69.5ZM45.1662 69.5H42.5372V61.547H45.1222C47.4982 61.547 49.1042 63.153 49.1042 65.529C49.1042 67.894 47.5202 69.5 45.1662 69.5ZM45.0452 62.537H43.6152V68.499H45.0892C46.8602 68.499 47.9822 67.355 47.9822 65.529C47.9822 63.681 46.8602 62.537 45.0452 62.537ZM53.5396 64.077V65.023H53.0776C52.0986 65.023 51.4936 65.617 51.4936 66.651V69.5H50.4596V64.132H51.4276L51.4936 64.946C51.7136 64.385 52.2526 64.011 52.9896 64.011C53.1766 64.011 53.3306 64.033 53.5396 64.077ZM56.0276 69.632C54.8726 69.632 54.1906 68.983 54.1906 68.004C54.1906 67.014 54.9276 66.398 56.1926 66.299L57.8866 66.167V66.013C57.8866 65.111 57.3476 64.792 56.6216 64.792C55.7526 64.792 55.2576 65.177 55.2576 65.826H54.3556C54.3556 64.704 55.2796 63.967 56.6656 63.967C57.9966 63.967 58.8986 64.671 58.8986 66.123V69.5H58.0186L57.9086 68.631C57.6336 69.247 56.8966 69.632 56.0276 69.632ZM56.3246 68.829C57.3036 68.829 57.8976 68.191 57.8976 67.179V66.893L56.5226 67.003C55.6096 67.091 55.2356 67.443 55.2356 67.971C55.2356 68.543 55.6536 68.829 56.3246 68.829ZM60.1496 66.673C60.1496 65.155 61.1286 63.967 62.6906 63.967C63.5596 63.967 64.2306 64.363 64.5716 65.034L64.6486 64.121H65.5726V69.28C65.5726 70.974 64.5276 72.052 62.8776 72.052C61.4146 72.052 60.4136 71.227 60.2156 69.863H61.2496C61.3816 70.655 61.9756 71.117 62.8776 71.117C63.8896 71.117 64.5496 70.457 64.5496 69.434V68.356C64.1976 68.983 63.4936 69.357 62.6466 69.357C61.1176 69.357 60.1496 68.18 60.1496 66.673ZM61.1836 66.651C61.1836 67.663 61.8106 68.455 62.8226 68.455C63.8676 68.455 64.5056 67.707 64.5056 66.651C64.5056 65.617 63.8896 64.869 62.8336 64.869C61.7996 64.869 61.1836 65.661 61.1836 66.651ZM71.6246 69.5H70.5686V61.547H71.6246L74.3636 68.235L77.1026 61.547H78.1806V69.5H77.1246V66.354C77.1246 64.869 77.1356 64.33 77.1906 63.769L74.8696 69.5H73.8576L71.5476 63.791C71.6026 64.176 71.6246 64.99 71.6246 66.101V69.5ZM87.3645 65.518C87.3645 67.938 85.7805 69.632 83.5255 69.632C81.2815 69.632 79.7195 67.938 79.7195 65.518C79.7195 63.109 81.2925 61.404 83.5365 61.404C85.7915 61.404 87.3645 63.098 87.3645 65.518ZM86.2315 65.518C86.2315 63.67 85.1535 62.449 83.5365 62.449C81.9195 62.449 80.8525 63.67 80.8525 65.518C80.8525 67.366 81.9195 68.598 83.5365 68.598C85.1535 68.598 86.2315 67.355 86.2315 65.518ZM88.8483 66.673V61.547H89.9263V66.607C89.9263 67.883 90.6303 68.587 91.8953 68.587C93.1493 68.587 93.8423 67.872 93.8423 66.607V61.547H94.9313V66.673C94.9313 68.499 93.7653 69.632 91.8953 69.632C90.0143 69.632 88.8483 68.51 88.8483 66.673ZM99.5234 66.805C99.5234 65.144 100.711 63.978 102.328 63.978C103.934 63.978 105.122 65.144 105.122 66.805C105.122 68.466 103.934 69.632 102.328 69.632C100.711 69.632 99.5234 68.466 99.5234 66.805ZM100.568 66.805C100.568 67.927 101.283 68.708 102.328 68.708C103.362 68.708 104.088 67.927 104.088 66.805C104.088 65.683 103.362 64.902 102.328 64.902C101.283 64.902 100.568 65.683 100.568 66.805ZM105.823 64.121H106.615V63.263C106.615 61.943 107.341 61.404 108.32 61.404C108.518 61.404 108.749 61.415 108.958 61.448V62.339H108.496C107.825 62.339 107.649 62.68 107.649 63.263V64.121H108.925V64.99H107.649V69.5H106.615V64.99H105.823V64.121ZM116.69 69.621C114.424 69.621 112.917 67.993 112.917 65.529C112.917 63.076 114.468 61.415 116.745 61.415C118.538 61.415 119.913 62.482 120.21 64.11H119.055C118.758 63.076 117.867 62.449 116.712 62.449C115.106 62.449 114.05 63.659 114.05 65.518C114.05 67.377 115.106 68.587 116.712 68.587C117.878 68.587 118.802 67.96 119.099 66.981H120.243C119.902 68.565 118.483 69.621 116.69 69.621ZM121.197 66.805C121.197 65.144 122.385 63.978 124.002 63.978C125.608 63.978 126.796 65.144 126.796 66.805C126.796 68.466 125.608 69.632 124.002 69.632C122.385 69.632 121.197 68.466 121.197 66.805ZM122.242 66.805C122.242 67.927 122.957 68.708 124.002 68.708C125.036 68.708 125.762 67.927 125.762 66.805C125.762 65.683 125.036 64.902 124.002 64.902C122.957 64.902 122.242 65.683 122.242 66.805ZM129.156 69.5H128.122V61.404H129.156V69.5ZM131.894 69.5H130.86V61.404H131.894V69.5ZM135.897 69.632C134.313 69.632 133.224 68.488 133.224 66.816C133.224 65.133 134.291 63.967 135.853 63.967C137.382 63.967 138.383 65.023 138.383 66.618V67.003L134.225 67.014C134.302 68.147 134.896 68.774 135.919 68.774C136.722 68.774 137.25 68.444 137.426 67.828H138.394C138.13 68.983 137.228 69.632 135.897 69.632ZM135.853 64.836C134.951 64.836 134.379 65.375 134.247 66.321H137.349C137.349 65.43 136.766 64.836 135.853 64.836ZM139.357 66.673C139.357 65.155 140.336 63.967 141.898 63.967C142.767 63.967 143.438 64.363 143.779 65.034L143.856 64.121H144.78V69.28C144.78 70.974 143.735 72.052 142.085 72.052C140.622 72.052 139.621 71.227 139.423 69.863H140.457C140.589 70.655 141.183 71.117 142.085 71.117C143.097 71.117 143.757 70.457 143.757 69.434V68.356C143.405 68.983 142.701 69.357 141.854 69.357C140.325 69.357 139.357 68.18 139.357 66.673ZM140.391 66.651C140.391 67.663 141.018 68.455 142.03 68.455C143.075 68.455 143.713 67.707 143.713 66.651C143.713 65.617 143.097 64.869 142.041 64.869C141.007 64.869 140.391 65.661 140.391 66.651ZM148.754 69.632C147.17 69.632 146.081 68.488 146.081 66.816C146.081 65.133 147.148 63.967 148.71 63.967C150.239 63.967 151.24 65.023 151.24 66.618V67.003L147.082 67.014C147.159 68.147 147.753 68.774 148.776 68.774C149.579 68.774 150.107 68.444 150.283 67.828H151.251C150.987 68.983 150.085 69.632 148.754 69.632ZM148.71 64.836C147.808 64.836 147.236 65.375 147.104 66.321H150.206C150.206 65.43 149.623 64.836 148.71 64.836ZM156.756 69.489H155.722V61.404H156.756V64.946C157.097 64.363 157.746 63.967 158.582 63.967C159.957 63.967 160.617 64.836 160.617 66.211V69.5H159.583V66.442C159.583 65.353 159.066 64.913 158.296 64.913C157.295 64.913 156.756 65.639 156.756 66.563V69.489ZM164.53 69.632C162.946 69.632 161.857 68.488 161.857 66.816C161.857 65.133 162.924 63.967 164.486 63.967C166.015 63.967 167.016 65.023 167.016 66.618V67.003L162.858 67.014C162.935 68.147 163.529 68.774 164.552 68.774C165.355 68.774 165.883 68.444 166.059 67.828H167.027C166.763 68.983 165.861 69.632 164.53 69.632ZM164.486 64.836C163.584 64.836 163.012 65.375 162.88 66.321H165.982C165.982 65.43 165.399 64.836 164.486 64.836ZM171.411 64.077V65.023H170.949C169.97 65.023 169.365 65.617 169.365 66.651V69.5H168.331V64.132H169.299L169.365 64.946C169.585 64.385 170.124 64.011 170.861 64.011C171.048 64.011 171.202 64.033 171.411 64.077ZM174.669 69.632C173.085 69.632 171.996 68.488 171.996 66.816C171.996 65.133 173.063 63.967 174.625 63.967C176.154 63.967 177.155 65.023 177.155 66.618V67.003L172.997 67.014C173.074 68.147 173.668 68.774 174.691 68.774C175.494 68.774 176.022 68.444 176.198 67.828H177.166C176.902 68.983 176 69.632 174.669 69.632ZM174.625 64.836C173.723 64.836 173.151 65.375 173.019 66.321H176.121C176.121 65.43 175.538 64.836 174.625 64.836ZM178.907 69.632C178.478 69.632 178.115 69.28 178.115 68.862C178.115 68.433 178.478 68.081 178.907 68.081C179.325 68.081 179.688 68.433 179.688 68.862C179.688 69.28 179.325 69.632 178.907 69.632ZM182.107 69.632C181.678 69.632 181.315 69.28 181.315 68.862C181.315 68.433 181.678 68.081 182.107 68.081C182.525 68.081 182.888 68.433 182.888 68.862C182.888 69.28 182.525 69.632 182.107 69.632ZM185.307 69.632C184.878 69.632 184.515 69.28 184.515 68.862C184.515 68.433 184.878 68.081 185.307 68.081C185.725 68.081 186.088 68.433 186.088 68.862C186.088 69.28 185.725 69.632 185.307 69.632Z" fill="#838283"/>
<path d="M112.5 95.5H75.5V97.5H112.5V95.5Z" fill="#654E8A" mask="url(#path-4-inside-1_206_28563)"/>
<path d="M76.369 88.673V83.547H77.447V88.607C77.447 89.883 78.151 90.587 79.416 90.587C80.67 90.587 81.363 89.872 81.363 88.607V83.547H82.452V88.673C82.452 90.499 81.286 91.632 79.416 91.632C77.535 91.632 76.369 90.51 76.369 88.673ZM84.2283 93.909V86.121H85.1633L85.2403 87.089C85.6033 86.352 86.3293 85.967 87.1873 85.967C88.7273 85.967 89.6843 87.122 89.6843 88.772C89.6843 90.411 88.7823 91.643 87.1873 91.643C86.3293 91.643 85.6143 91.28 85.2623 90.62V93.909H84.2283ZM85.2733 88.816C85.2733 89.916 85.9113 90.708 86.9673 90.708C88.0233 90.708 88.6503 89.916 88.6503 88.816C88.6503 87.705 88.0233 86.913 86.9673 86.913C85.9113 86.913 85.2733 87.694 85.2733 88.816ZM92.04 91.5H91.006V83.404H92.04V91.5ZM93.3701 88.805C93.3701 87.144 94.5581 85.978 96.1751 85.978C97.7811 85.978 98.9691 87.144 98.9691 88.805C98.9691 90.466 97.7811 91.632 96.1751 91.632C94.5581 91.632 93.3701 90.466 93.3701 88.805ZM94.4151 88.805C94.4151 89.927 95.1301 90.708 96.1751 90.708C97.2091 90.708 97.9351 89.927 97.9351 88.805C97.9351 87.683 97.2091 86.902 96.1751 86.902C95.1301 86.902 94.4151 87.683 94.4151 88.805ZM101.847 91.632C100.692 91.632 100.01 90.983 100.01 90.004C100.01 89.014 100.747 88.398 102.012 88.299L103.706 88.167V88.013C103.706 87.111 103.167 86.792 102.441 86.792C101.572 86.792 101.077 87.177 101.077 87.826H100.175C100.175 86.704 101.099 85.967 102.485 85.967C103.816 85.967 104.718 86.671 104.718 88.123V91.5H103.838L103.728 90.631C103.453 91.247 102.716 91.632 101.847 91.632ZM102.144 90.829C103.123 90.829 103.717 90.191 103.717 89.179V88.893L102.342 89.003C101.429 89.091 101.055 89.443 101.055 89.971C101.055 90.543 101.473 90.829 102.144 90.829ZM108.466 91.632C106.904 91.632 105.958 90.466 105.958 88.827C105.958 87.177 106.915 85.967 108.51 85.967C109.335 85.967 110.028 86.33 110.391 86.99V83.404H111.414V91.5H110.49L110.402 90.521C110.05 91.258 109.324 91.632 108.466 91.632ZM108.675 90.697C109.731 90.697 110.38 89.916 110.38 88.794C110.38 87.694 109.731 86.902 108.675 86.902C107.619 86.902 107.003 87.694 107.003 88.794C107.003 89.905 107.619 90.697 108.675 90.697Z" fill="#654E8A"/>
</svg>
