<svg width="11" height="10" viewBox="0 0 11 10" fill="none" xmlns="http://www.w3.org/2000/svg">
<path d="M8.16843 4.31338C8.31507 4.4622 8.31507 4.70324 8.16843 4.85205C8.09524 4.92646 7.999 4.96367 7.90303 4.96367C7.80693 4.96367 7.71096 4.92646 7.63764 4.85205L5.87362 3.06171L5.87349 9.61857C5.87349 9.82891 5.70538 9.99951 5.49813 9.99951C5.29087 9.99951 5.12276 9.8289 5.12276 9.61857L5.12289 3.06171L3.36266 4.84794C3.21602 4.99676 2.97825 4.99676 2.83187 4.84794C2.68523 4.69912 2.68523 4.45808 2.83187 4.30927L5.23273 1.87303C5.25027 1.85522 5.26952 1.83928 5.29034 1.82533C5.29924 1.81922 5.30893 1.81523 5.31823 1.80991C5.3304 1.80314 5.34206 1.7957 5.35502 1.79025C5.3672 1.78507 5.3799 1.78214 5.39247 1.77842C5.40333 1.7751 5.41368 1.77085 5.42507 1.76859C5.47364 1.75876 5.52353 1.75876 5.5721 1.76859C5.58336 1.77085 5.59383 1.7751 5.6047 1.77842C5.61727 1.78214 5.62997 1.78507 5.64215 1.79025C5.65511 1.7957 5.66676 1.80314 5.67894 1.80991C5.68824 1.8151 5.69792 1.81922 5.70683 1.82533C5.72751 1.83941 5.74689 1.85522 5.76444 1.87303L8.16895 4.31338H8.16843ZM10.1246 -0.000488281H0.875367C0.668105 -0.000488281 0.5 0.170121 0.5 0.380454C0.5 0.590786 0.668112 0.761395 0.875367 0.761395H10.1246C10.3319 0.761395 10.5 0.590786 10.5 0.380454C10.5 0.170121 10.3319 -0.000488281 10.1246 -0.000488281Z" fill="white"/>
</svg>
