<svg width="251" height="114" viewBox="0 0 251 114" fill="none" xmlns="http://www.w3.org/2000/svg">
<path d="M0.357955 100.818H1.76989L4.59375 105.571H4.71307L7.53693 100.818H8.94886L5.26989 106.804V111H4.03693V106.804L0.357955 100.818ZM12.4066 111.159C11.7172 111.159 11.1123 110.995 10.592 110.667C10.0749 110.339 9.67057 109.88 9.37891 109.29C9.09055 108.7 8.94638 108.01 8.94638 107.222C8.94638 106.426 9.09055 105.732 9.37891 105.138C9.67057 104.545 10.0749 104.085 10.592 103.756C11.1123 103.428 11.7172 103.264 12.4066 103.264C13.096 103.264 13.6992 103.428 14.2163 103.756C14.7366 104.085 15.141 104.545 15.4293 105.138C15.721 105.732 15.8668 106.426 15.8668 107.222C15.8668 108.01 15.721 108.7 15.4293 109.29C15.141 109.88 14.7366 110.339 14.2163 110.667C13.6992 110.995 13.096 111.159 12.4066 111.159ZM12.4066 110.105C12.9303 110.105 13.3612 109.971 13.6992 109.702C14.0373 109.434 14.2875 109.081 14.4499 108.643C14.6123 108.206 14.6935 107.732 14.6935 107.222C14.6935 106.711 14.6123 106.236 14.4499 105.795C14.2875 105.354 14.0373 104.998 13.6992 104.726C13.3612 104.454 12.9303 104.318 12.4066 104.318C11.8829 104.318 11.4521 104.454 11.114 104.726C10.7759 104.998 10.5257 105.354 10.3633 105.795C10.2009 106.236 10.1197 106.711 10.1197 107.222C10.1197 107.732 10.2009 108.206 10.3633 108.643C10.5257 109.081 10.7759 109.434 11.114 109.702C11.4521 109.971 11.8829 110.105 12.4066 110.105ZM22.4703 107.878V103.364H23.6436V111H22.4703V109.707H22.3908C22.2118 110.095 21.9334 110.425 21.5556 110.697C21.1777 110.965 20.7005 111.099 20.1238 111.099C19.6465 111.099 19.2222 110.995 18.851 110.786C18.4798 110.574 18.1882 110.256 17.976 109.832C17.7639 109.404 17.6578 108.866 17.6578 108.216V103.364H18.8311V108.136C18.8311 108.693 18.9869 109.137 19.2985 109.469C19.6133 109.8 20.0144 109.966 20.5016 109.966C20.7933 109.966 21.0899 109.891 21.3915 109.742C21.6964 109.593 21.9516 109.364 22.1571 109.056C22.3659 108.748 22.4703 108.355 22.4703 107.878ZM30.9034 106.406V111H29.7301V100.818H30.9034V104.557H31.0028C31.1818 104.162 31.4503 103.849 31.8082 103.617C32.1695 103.382 32.6501 103.264 33.25 103.264C33.7704 103.264 34.2261 103.369 34.6172 103.577C35.0083 103.783 35.3116 104.099 35.527 104.527C35.7457 104.951 35.8551 105.491 35.8551 106.148V111H34.6818V106.227C34.6818 105.621 34.5244 105.152 34.2095 104.82C33.898 104.486 33.4654 104.318 32.9119 104.318C32.5275 104.318 32.1828 104.399 31.8778 104.562C31.5762 104.724 31.3376 104.961 31.1619 105.273C30.9896 105.584 30.9034 105.962 30.9034 106.406ZM40.2488 111.179C39.7649 111.179 39.3257 111.088 38.9313 110.906C38.5369 110.72 38.2237 110.453 37.9917 110.105C37.7596 109.754 37.6436 109.33 37.6436 108.832C37.6436 108.395 37.7298 108.04 37.9022 107.768C38.0745 107.493 38.3049 107.278 38.5932 107.122C38.8816 106.966 39.1998 106.85 39.5478 106.774C39.8991 106.695 40.2521 106.632 40.6067 106.585C41.0707 106.526 41.4469 106.481 41.7353 106.451C42.0269 106.418 42.2391 106.363 42.3716 106.287C42.5075 106.211 42.5755 106.078 42.5755 105.889V105.849C42.5755 105.359 42.4412 104.978 42.1728 104.706C41.9076 104.434 41.5049 104.298 40.9647 104.298C40.4045 104.298 39.9654 104.421 39.6472 104.666C39.329 104.911 39.1053 105.173 38.976 105.452L37.8624 105.054C38.0613 104.59 38.3264 104.229 38.6578 103.97C38.9926 103.708 39.3572 103.526 39.7516 103.423C40.1493 103.317 40.5404 103.264 40.9249 103.264C41.1702 103.264 41.4519 103.294 41.7701 103.354C42.0916 103.41 42.4015 103.528 42.6998 103.707C43.0014 103.886 43.2516 104.156 43.4505 104.517C43.6493 104.878 43.7488 105.362 43.7488 105.969V111H42.5755V109.966H42.5158C42.4363 110.132 42.3037 110.309 42.1181 110.498C41.9325 110.687 41.6855 110.848 41.3773 110.98C41.0691 111.113 40.6929 111.179 40.2488 111.179ZM40.4277 110.125C40.8917 110.125 41.2828 110.034 41.601 109.852C41.9225 109.669 42.1645 109.434 42.3269 109.146C42.4926 108.857 42.5755 108.554 42.5755 108.236V107.162C42.5257 107.222 42.4164 107.276 42.2473 107.326C42.0816 107.372 41.8894 107.414 41.6706 107.45C41.4552 107.483 41.2447 107.513 41.0392 107.54C40.8371 107.563 40.673 107.583 40.5471 107.599C40.2421 107.639 39.9571 107.704 39.6919 107.793C39.4301 107.879 39.218 108.01 39.0556 108.186C38.8965 108.358 38.8169 108.594 38.8169 108.892C38.8169 109.3 38.9677 109.608 39.2694 109.817C39.5743 110.022 39.9604 110.125 40.4277 110.125ZM51.8612 103.364L49.0373 111H47.8441L45.0202 103.364H46.293L48.4009 109.449H48.4805L50.5884 103.364H51.8612ZM56.3381 111.159C55.6023 111.159 54.9676 110.997 54.4339 110.672C53.9036 110.344 53.4943 109.886 53.206 109.3C52.9209 108.71 52.7784 108.024 52.7784 107.241C52.7784 106.459 52.9209 105.77 53.206 105.173C53.4943 104.573 53.8954 104.106 54.4091 103.771C54.9261 103.433 55.5294 103.264 56.2188 103.264C56.6165 103.264 57.0092 103.33 57.397 103.463C57.7848 103.596 58.1378 103.811 58.456 104.109C58.7741 104.404 59.0277 104.795 59.2166 105.283C59.4055 105.77 59.5 106.37 59.5 107.082V107.58H53.6136V106.565H58.3068C58.3068 106.134 58.2206 105.75 58.0483 105.412C57.8793 105.074 57.6373 104.807 57.3224 104.612C57.0109 104.416 56.643 104.318 56.2188 104.318C55.7514 104.318 55.3471 104.434 55.0057 104.666C54.6676 104.895 54.4074 105.193 54.2251 105.561C54.0429 105.929 53.9517 106.323 53.9517 106.744V107.42C53.9517 107.997 54.0511 108.486 54.25 108.887C54.4522 109.285 54.7322 109.588 55.0902 109.797C55.4482 110.002 55.8641 110.105 56.3381 110.105C56.6463 110.105 56.9247 110.062 57.1733 109.976C57.4252 109.886 57.6423 109.754 57.8246 109.578C58.0069 109.399 58.1477 109.177 58.2472 108.912L59.3807 109.23C59.2614 109.615 59.0608 109.953 58.7791 110.244C58.4974 110.533 58.1494 110.758 57.7351 110.92C57.3208 111.08 56.8551 111.159 56.3381 111.159ZM62.4581 106.406V111H61.2848V103.364H62.4183V104.557H62.5178C62.6967 104.169 62.9685 103.857 63.3331 103.622C63.6977 103.384 64.1683 103.264 64.745 103.264C65.2621 103.264 65.7145 103.37 66.1023 103.582C66.4901 103.791 66.7917 104.109 67.0071 104.537C67.2225 104.961 67.3303 105.498 67.3303 106.148V111H66.157V106.227C66.157 105.627 66.0012 105.16 65.6896 104.825C65.3781 104.487 64.9505 104.318 64.407 104.318C64.0324 104.318 63.6977 104.399 63.4027 104.562C63.111 104.724 62.8807 104.961 62.7116 105.273C62.5426 105.584 62.4581 105.962 62.4581 106.406ZM70.4885 100.818V104.318H69.3947V100.818H70.4885ZM75.8988 103.364V104.358H71.9414V103.364H75.8988ZM73.0948 101.534H74.2681V108.812C74.2681 109.144 74.3162 109.393 74.4123 109.558C74.5117 109.721 74.6377 109.83 74.7901 109.886C74.9459 109.939 75.11 109.966 75.2823 109.966C75.4116 109.966 75.5176 109.959 75.6005 109.946C75.6834 109.929 75.7496 109.916 75.7994 109.906L76.038 110.96C75.9585 110.99 75.8474 111.02 75.7049 111.05C75.5624 111.083 75.3817 111.099 75.163 111.099C74.8316 111.099 74.5067 111.028 74.1886 110.886C73.8737 110.743 73.6119 110.526 73.4031 110.234C73.1976 109.943 73.0948 109.575 73.0948 109.131V101.534ZM86.4137 107.878V103.364H87.587V111H86.4137V109.707H86.3342C86.1552 110.095 85.8768 110.425 85.4989 110.697C85.1211 110.965 84.6438 111.099 84.0671 111.099C83.5898 111.099 83.1656 110.995 82.7944 110.786C82.4232 110.574 82.1315 110.256 81.9194 109.832C81.7073 109.404 81.6012 108.866 81.6012 108.216V103.364H82.7745V108.136C82.7745 108.693 82.9303 109.137 83.2418 109.469C83.5567 109.8 83.9577 109.966 84.445 109.966C84.7366 109.966 85.0333 109.891 85.3349 109.742C85.6398 109.593 85.895 109.364 86.1005 109.056C86.3093 108.748 86.4137 108.355 86.4137 107.878ZM89.736 113.864V103.364H90.8695V104.577H91.0087C91.0949 104.444 91.2142 104.275 91.3667 104.07C91.5224 103.861 91.7445 103.675 92.0328 103.513C92.3245 103.347 92.7189 103.264 93.2161 103.264C93.8591 103.264 94.4258 103.425 94.9164 103.746C95.4069 104.068 95.7897 104.524 96.0648 105.114C96.3399 105.704 96.4775 106.4 96.4775 107.202C96.4775 108.01 96.3399 108.711 96.0648 109.305C95.7897 109.895 95.4086 110.352 94.9213 110.677C94.4341 110.998 93.8723 111.159 93.236 111.159C92.7454 111.159 92.3527 111.078 92.0577 110.915C91.7627 110.75 91.5357 110.562 91.3766 110.354C91.2175 110.142 91.0949 109.966 91.0087 109.827H90.9093V113.864H89.736ZM90.8894 107.182C90.8894 107.759 90.9739 108.267 91.1429 108.708C91.312 109.146 91.5589 109.489 91.8837 109.737C92.2085 109.982 92.6062 110.105 93.0769 110.105C93.5674 110.105 93.9767 109.976 94.3049 109.717C94.6363 109.455 94.8849 109.104 95.0506 108.663C95.2196 108.219 95.3042 107.725 95.3042 107.182C95.3042 106.645 95.2213 106.161 95.0556 105.73C94.8932 105.296 94.6462 104.953 94.3148 104.701C93.9867 104.446 93.574 104.318 93.0769 104.318C92.5996 104.318 92.1986 104.439 91.8738 104.681C91.5489 104.92 91.3037 105.254 91.138 105.685C90.9722 106.113 90.8894 106.612 90.8894 107.182ZM99.4405 100.818V111H98.2672V100.818H99.4405ZM104.692 111.159C104.002 111.159 103.397 110.995 102.877 110.667C102.36 110.339 101.956 109.88 101.664 109.29C101.376 108.7 101.232 108.01 101.232 107.222C101.232 106.426 101.376 105.732 101.664 105.138C101.956 104.545 102.36 104.085 102.877 103.756C103.397 103.428 104.002 103.264 104.692 103.264C105.381 103.264 105.984 103.428 106.501 103.756C107.022 104.085 107.426 104.545 107.714 105.138C108.006 105.732 108.152 106.426 108.152 107.222C108.152 108.01 108.006 108.7 107.714 109.29C107.426 109.88 107.022 110.339 106.501 110.667C105.984 110.995 105.381 111.159 104.692 111.159ZM104.692 110.105C105.215 110.105 105.646 109.971 105.984 109.702C106.322 109.434 106.573 109.081 106.735 108.643C106.897 108.206 106.979 107.732 106.979 107.222C106.979 106.711 106.897 106.236 106.735 105.795C106.573 105.354 106.322 104.998 105.984 104.726C105.646 104.454 105.215 104.318 104.692 104.318C104.168 104.318 103.737 104.454 103.399 104.726C103.061 104.998 102.811 105.354 102.648 105.795C102.486 106.236 102.405 106.711 102.405 107.222C102.405 107.732 102.486 108.206 102.648 108.643C102.811 109.081 103.061 109.434 103.399 109.702C103.737 109.971 104.168 110.105 104.692 110.105ZM112.19 111.179C111.706 111.179 111.267 111.088 110.873 110.906C110.478 110.72 110.165 110.453 109.933 110.105C109.701 109.754 109.585 109.33 109.585 108.832C109.585 108.395 109.671 108.04 109.844 107.768C110.016 107.493 110.246 107.278 110.535 107.122C110.823 106.966 111.141 106.85 111.489 106.774C111.84 106.695 112.193 106.632 112.548 106.585C113.012 106.526 113.388 106.481 113.677 106.451C113.968 106.418 114.18 106.363 114.313 106.287C114.449 106.211 114.517 106.078 114.517 105.889V105.849C114.517 105.359 114.383 104.978 114.114 104.706C113.849 104.434 113.446 104.298 112.906 104.298C112.346 104.298 111.907 104.421 111.589 104.666C111.27 104.911 111.047 105.173 110.917 105.452L109.804 105.054C110.003 104.59 110.268 104.229 110.599 103.97C110.934 103.708 111.299 103.526 111.693 103.423C112.091 103.317 112.482 103.264 112.866 103.264C113.112 103.264 113.393 103.294 113.711 103.354C114.033 103.41 114.343 103.528 114.641 103.707C114.943 103.886 115.193 104.156 115.392 104.517C115.591 104.878 115.69 105.362 115.69 105.969V111H114.517V109.966H114.457C114.378 110.132 114.245 110.309 114.059 110.498C113.874 110.687 113.627 110.848 113.319 110.98C113.01 111.113 112.634 111.179 112.19 111.179ZM112.369 110.125C112.833 110.125 113.224 110.034 113.542 109.852C113.864 109.669 114.106 109.434 114.268 109.146C114.434 108.857 114.517 108.554 114.517 108.236V107.162C114.467 107.222 114.358 107.276 114.189 107.326C114.023 107.372 113.831 107.414 113.612 107.45C113.397 107.483 113.186 107.513 112.981 107.54C112.778 107.563 112.614 107.583 112.488 107.599C112.184 107.639 111.898 107.704 111.633 107.793C111.372 107.879 111.159 108.01 110.997 108.186C110.838 108.358 110.758 108.594 110.758 108.892C110.758 109.3 110.909 109.608 111.211 109.817C111.516 110.022 111.902 110.125 112.369 110.125ZM120.715 111.159C120.079 111.159 119.517 110.998 119.03 110.677C118.543 110.352 118.161 109.895 117.886 109.305C117.611 108.711 117.474 108.01 117.474 107.202C117.474 106.4 117.611 105.704 117.886 105.114C118.161 104.524 118.544 104.068 119.035 103.746C119.525 103.425 120.092 103.264 120.735 103.264C121.232 103.264 121.625 103.347 121.913 103.513C122.205 103.675 122.427 103.861 122.58 104.07C122.735 104.275 122.856 104.444 122.942 104.577H123.042V100.818H124.215V111H123.082V109.827H122.942C122.856 109.966 122.734 110.142 122.575 110.354C122.415 110.562 122.188 110.75 121.893 110.915C121.598 111.078 121.206 111.159 120.715 111.159ZM120.874 110.105C121.345 110.105 121.743 109.982 122.067 109.737C122.392 109.489 122.639 109.146 122.808 108.708C122.977 108.267 123.062 107.759 123.062 107.182C123.062 106.612 122.979 106.113 122.813 105.685C122.647 105.254 122.402 104.92 122.077 104.681C121.753 104.439 121.352 104.318 120.874 104.318C120.377 104.318 119.963 104.446 119.631 104.701C119.303 104.953 119.056 105.296 118.891 105.73C118.728 106.161 118.647 106.645 118.647 107.182C118.647 107.725 118.73 108.219 118.896 108.663C119.065 109.104 119.313 109.455 119.641 109.717C119.973 109.976 120.384 110.105 120.874 110.105ZM132.712 111.179C132.228 111.179 131.789 111.088 131.394 110.906C131 110.72 130.687 110.453 130.455 110.105C130.223 109.754 130.107 109.33 130.107 108.832C130.107 108.395 130.193 108.04 130.365 107.768C130.537 107.493 130.768 107.278 131.056 107.122C131.344 106.966 131.663 106.85 132.011 106.774C132.362 106.695 132.715 106.632 133.07 106.585C133.534 106.526 133.91 106.481 134.198 106.451C134.49 106.418 134.702 106.363 134.835 106.287C134.97 106.211 135.038 106.078 135.038 105.889V105.849C135.038 105.359 134.904 104.978 134.636 104.706C134.371 104.434 133.968 104.298 133.428 104.298C132.867 104.298 132.428 104.421 132.11 104.666C131.792 104.911 131.568 105.173 131.439 105.452L130.325 105.054C130.524 104.59 130.789 104.229 131.121 103.97C131.455 103.708 131.82 103.526 132.214 103.423C132.612 103.317 133.003 103.264 133.388 103.264C133.633 103.264 133.915 103.294 134.233 103.354C134.554 103.41 134.864 103.528 135.163 103.707C135.464 103.886 135.714 104.156 135.913 104.517C136.112 104.878 136.212 105.362 136.212 105.969V111H135.038V109.966H134.979C134.899 110.132 134.767 110.309 134.581 110.498C134.395 110.687 134.148 110.848 133.84 110.98C133.532 111.113 133.156 111.179 132.712 111.179ZM132.891 110.125C133.355 110.125 133.746 110.034 134.064 109.852C134.385 109.669 134.627 109.434 134.79 109.146C134.955 108.857 135.038 108.554 135.038 108.236V107.162C134.989 107.222 134.879 107.276 134.71 107.326C134.545 107.372 134.352 107.414 134.134 107.45C133.918 107.483 133.708 107.513 133.502 107.54C133.3 107.563 133.136 107.583 133.01 107.599C132.705 107.639 132.42 107.704 132.155 107.793C131.893 107.879 131.681 108.01 131.518 108.186C131.359 108.358 131.28 108.594 131.28 108.892C131.28 109.3 131.431 109.608 131.732 109.817C132.037 110.022 132.423 110.125 132.891 110.125ZM139.526 106.406V111H138.353V103.364H139.487V104.557H139.586C139.765 104.169 140.037 103.857 140.401 103.622C140.766 103.384 141.237 103.264 141.813 103.264C142.33 103.264 142.783 103.37 143.171 103.582C143.558 103.791 143.86 104.109 144.075 104.537C144.291 104.961 144.399 105.498 144.399 106.148V111H143.225V106.227C143.225 105.627 143.07 105.16 142.758 104.825C142.446 104.487 142.019 104.318 141.475 104.318C141.101 104.318 140.766 104.399 140.471 104.562C140.179 104.724 139.949 104.961 139.78 105.273C139.611 105.584 139.526 105.962 139.526 106.406ZM147.025 113.864C146.826 113.864 146.649 113.847 146.493 113.814C146.337 113.784 146.229 113.754 146.17 113.724L146.468 112.69C146.753 112.763 147.005 112.79 147.224 112.77C147.442 112.75 147.636 112.652 147.805 112.477C147.978 112.304 148.135 112.024 148.278 111.636L148.496 111.04L145.673 103.364H146.945L149.053 109.449H149.133L151.241 103.364H152.513L149.272 112.114C149.126 112.508 148.946 112.835 148.73 113.093C148.515 113.355 148.264 113.549 147.979 113.675C147.698 113.801 147.379 113.864 147.025 113.864ZM159.392 100.818V111H158.159V100.818H159.392ZM162.878 106.406V111H161.705V103.364H162.838V104.557H162.938C163.117 104.169 163.388 103.857 163.753 103.622C164.118 103.384 164.588 103.264 165.165 103.264C165.682 103.264 166.134 103.37 166.522 103.582C166.91 103.791 167.212 104.109 167.427 104.537C167.642 104.961 167.75 105.498 167.75 106.148V111H166.577V106.227C166.577 105.627 166.421 105.16 166.11 104.825C165.798 104.487 165.37 104.318 164.827 104.318C164.452 104.318 164.118 104.399 163.823 104.562C163.531 104.724 163.301 104.961 163.132 105.273C162.963 105.584 162.878 105.962 162.878 106.406ZM173.215 103.364V104.358H169.258V103.364H173.215ZM170.411 101.534H171.585V108.812C171.585 109.144 171.633 109.393 171.729 109.558C171.828 109.721 171.954 109.83 172.107 109.886C172.262 109.939 172.426 109.966 172.599 109.966C172.728 109.966 172.834 109.959 172.917 109.946C173 109.929 173.066 109.916 173.116 109.906L173.354 110.96C173.275 110.99 173.164 111.02 173.021 111.05C172.879 111.083 172.698 111.099 172.479 111.099C172.148 111.099 171.823 111.028 171.505 110.886C171.19 110.743 170.928 110.526 170.719 110.234C170.514 109.943 170.411 109.575 170.411 109.131V101.534ZM178.1 111.159C177.364 111.159 176.729 110.997 176.196 110.672C175.665 110.344 175.256 109.886 174.968 109.3C174.683 108.71 174.54 108.024 174.54 107.241C174.54 106.459 174.683 105.77 174.968 105.173C175.256 104.573 175.657 104.106 176.171 103.771C176.688 103.433 177.291 103.264 177.98 103.264C178.378 103.264 178.771 103.33 179.159 103.463C179.547 103.596 179.9 103.811 180.218 104.109C180.536 104.404 180.789 104.795 180.978 105.283C181.167 105.77 181.262 106.37 181.262 107.082V107.58H175.375V106.565H180.069C180.069 106.134 179.982 105.75 179.81 105.412C179.641 105.074 179.399 104.807 179.084 104.612C178.773 104.416 178.405 104.318 177.98 104.318C177.513 104.318 177.109 104.434 176.767 104.666C176.429 104.895 176.169 105.193 175.987 105.561C175.805 105.929 175.713 106.323 175.713 106.744V107.42C175.713 107.997 175.813 108.486 176.012 108.887C176.214 109.285 176.494 109.588 176.852 109.797C177.21 110.002 177.626 110.105 178.1 110.105C178.408 110.105 178.686 110.062 178.935 109.976C179.187 109.886 179.404 109.754 179.586 109.578C179.769 109.399 179.909 109.177 180.009 108.912L181.142 109.23C181.023 109.615 180.823 109.953 180.541 110.244C180.259 110.533 179.911 110.758 179.497 110.92C179.083 111.08 178.617 111.159 178.1 111.159ZM183.047 111V103.364H184.18V104.517H184.26C184.399 104.139 184.651 103.833 185.015 103.597C185.38 103.362 185.791 103.244 186.248 103.244C186.334 103.244 186.442 103.246 186.571 103.249C186.701 103.253 186.798 103.258 186.865 103.264V104.457C186.825 104.447 186.734 104.433 186.591 104.413C186.452 104.389 186.305 104.378 186.149 104.378C185.778 104.378 185.446 104.456 185.154 104.612C184.866 104.764 184.637 104.976 184.468 105.248C184.303 105.516 184.22 105.823 184.22 106.168V111H183.047ZM194.732 103.364L191.908 111H190.715L187.891 103.364H189.164L191.272 109.449H191.352L193.46 103.364H194.732ZM196.281 111V103.364H197.454V111H196.281ZM196.877 102.091C196.649 102.091 196.452 102.013 196.286 101.857C196.123 101.701 196.042 101.514 196.042 101.295C196.042 101.077 196.123 100.889 196.286 100.734C196.452 100.578 196.649 100.5 196.877 100.5C197.106 100.5 197.302 100.578 197.464 100.734C197.63 100.889 197.713 101.077 197.713 101.295C197.713 101.514 197.63 101.701 197.464 101.857C197.302 102.013 197.106 102.091 196.877 102.091ZM202.805 111.159C202.069 111.159 201.434 110.997 200.901 110.672C200.37 110.344 199.961 109.886 199.673 109.3C199.388 108.71 199.245 108.024 199.245 107.241C199.245 106.459 199.388 105.77 199.673 105.173C199.961 104.573 200.362 104.106 200.876 103.771C201.393 103.433 201.996 103.264 202.686 103.264C203.083 103.264 203.476 103.33 203.864 103.463C204.252 103.596 204.605 103.811 204.923 104.109C205.241 104.404 205.494 104.795 205.683 105.283C205.872 105.77 205.967 106.37 205.967 107.082V107.58H200.08V106.565H204.774C204.774 106.134 204.687 105.75 204.515 105.412C204.346 105.074 204.104 104.807 203.789 104.612C203.478 104.416 203.11 104.318 202.686 104.318C202.218 104.318 201.814 104.434 201.472 104.666C201.134 104.895 200.874 105.193 200.692 105.561C200.51 105.929 200.419 106.323 200.419 106.744V107.42C200.419 107.997 200.518 108.486 200.717 108.887C200.919 109.285 201.199 109.588 201.557 109.797C201.915 110.002 202.331 110.105 202.805 110.105C203.113 110.105 203.392 110.062 203.64 109.976C203.892 109.886 204.109 109.754 204.291 109.578C204.474 109.399 204.615 109.177 204.714 108.912L205.847 109.23C205.728 109.615 205.528 109.953 205.246 110.244C204.964 110.533 204.616 110.758 204.202 110.92C203.788 111.08 203.322 111.159 202.805 111.159ZM209.482 111L207.155 103.364H208.388L210.039 109.21H210.118L211.749 103.364H213.002L214.612 109.19H214.692L216.343 103.364H217.575L215.249 111H214.095L212.425 105.134H212.306L210.635 111H209.482ZM226.365 111H223.223V100.818H226.504C227.492 100.818 228.337 101.022 229.04 101.43C229.743 101.834 230.281 102.416 230.656 103.175C231.03 103.93 231.218 104.835 231.218 105.889C231.218 106.95 231.029 107.863 230.651 108.629C230.273 109.391 229.723 109.978 229 110.388C228.278 110.796 227.399 111 226.365 111ZM224.456 109.906H226.286C227.128 109.906 227.825 109.744 228.379 109.419C228.932 109.094 229.345 108.632 229.617 108.032C229.888 107.432 230.024 106.718 230.024 105.889C230.024 105.067 229.89 104.36 229.622 103.766C229.353 103.17 228.952 102.712 228.419 102.394C227.885 102.073 227.22 101.912 226.425 101.912H224.456V109.906ZM236.229 111.159C235.539 111.159 234.935 110.995 234.414 110.667C233.897 110.339 233.493 109.88 233.201 109.29C232.913 108.7 232.769 108.01 232.769 107.222C232.769 106.426 232.913 105.732 233.201 105.138C233.493 104.545 233.897 104.085 234.414 103.756C234.935 103.428 235.539 103.264 236.229 103.264C236.918 103.264 237.521 103.428 238.039 103.756C238.559 104.085 238.963 104.545 239.252 105.138C239.543 105.732 239.689 106.426 239.689 107.222C239.689 108.01 239.543 108.7 239.252 109.29C238.963 109.88 238.559 110.339 238.039 110.667C237.521 110.995 236.918 111.159 236.229 111.159ZM236.229 110.105C236.753 110.105 237.183 109.971 237.521 109.702C237.86 109.434 238.11 109.081 238.272 108.643C238.435 108.206 238.516 107.732 238.516 107.222C238.516 106.711 238.435 106.236 238.272 105.795C238.11 105.354 237.86 104.998 237.521 104.726C237.183 104.454 236.753 104.318 236.229 104.318C235.705 104.318 235.274 104.454 234.936 104.726C234.598 104.998 234.348 105.354 234.186 105.795C234.023 106.236 233.942 106.711 233.942 107.222C233.942 107.732 234.023 108.206 234.186 108.643C234.348 109.081 234.598 109.434 234.936 109.702C235.274 109.971 235.705 110.105 236.229 110.105ZM244.582 111.159C243.866 111.159 243.25 110.99 242.733 110.652C242.216 110.314 241.818 109.848 241.54 109.255C241.261 108.662 241.122 107.984 241.122 107.222C241.122 106.446 241.265 105.762 241.55 105.168C241.838 104.572 242.239 104.106 242.753 103.771C243.27 103.433 243.873 103.264 244.562 103.264C245.099 103.264 245.583 103.364 246.014 103.562C246.445 103.761 246.798 104.04 247.073 104.398C247.348 104.756 247.519 105.173 247.585 105.651H246.412C246.322 105.303 246.124 104.994 245.815 104.726C245.51 104.454 245.099 104.318 244.582 104.318C244.125 104.318 243.724 104.437 243.379 104.676C243.038 104.911 242.771 105.245 242.579 105.675C242.39 106.103 242.295 106.605 242.295 107.182C242.295 107.772 242.388 108.286 242.574 108.723C242.763 109.161 243.028 109.5 243.369 109.742C243.714 109.984 244.118 110.105 244.582 110.105C244.887 110.105 245.164 110.052 245.413 109.946C245.661 109.84 245.872 109.688 246.044 109.489C246.216 109.29 246.339 109.051 246.412 108.773H247.585C247.519 109.223 247.355 109.629 247.093 109.991C246.835 110.349 246.491 110.634 246.064 110.846C245.64 111.055 245.146 111.159 244.582 111.159Z" fill="#4B4B4B"/>
<path d="M125.234 84.3362C143.033 84.3362 157.461 69.9077 157.461 52.1093C157.461 34.3108 143.033 19.8823 125.234 19.8823C107.436 19.8823 93.0073 34.3108 93.0073 52.1093C93.0073 69.9077 107.436 84.3362 125.234 84.3362Z" fill="url(#paint0_linear_340_2424)"/>
<g filter="url(#filter0_d_340_2424)">
<path d="M143.711 38.3589H106.757C105.571 38.3589 104.609 39.3208 104.609 40.5073V85.625C104.609 86.8116 105.571 87.7735 106.757 87.7735H143.711C144.897 87.7735 145.859 86.8116 145.859 85.625V40.5073C145.859 39.3208 144.897 38.3589 143.711 38.3589Z" fill="white"/>
<path d="M106.757 38.8589H143.711C144.621 38.8589 145.359 39.5969 145.359 40.5073V85.625C145.359 86.5355 144.621 87.2735 143.711 87.2735H106.757C105.847 87.2735 105.109 86.5355 105.109 85.625V40.5073C105.109 39.5969 105.847 38.8589 106.757 38.8589Z" stroke="#D4DFFB" stroke-opacity="0.42"/>
</g>
<path d="M143.711 16.4443H106.757C105.571 16.4443 104.609 17.4062 104.609 18.5928V31.4836C104.609 32.6701 105.571 33.632 106.757 33.632H143.711C144.897 33.632 145.859 32.6701 145.859 31.4836V18.5928C145.859 17.4062 144.897 16.4443 143.711 16.4443Z" fill="#FF4672"/>
<path d="M120.937 21.1714H109.765C109.053 21.1714 108.476 21.7485 108.476 22.4605C108.476 23.1724 109.053 23.7495 109.765 23.7495H120.937C121.649 23.7495 122.226 23.1724 122.226 22.4605C122.226 21.7485 121.649 21.1714 120.937 21.1714Z" fill="white"/>
<path d="M128.672 26.7573H109.765C109.053 26.7573 108.476 27.3345 108.476 28.0464C108.476 28.7583 109.053 29.3355 109.765 29.3355H128.672C129.384 29.3355 129.961 28.7583 129.961 28.0464C129.961 27.3345 129.384 26.7573 128.672 26.7573Z" fill="white"/>
<path d="M152.04 48.5757C152.27 47.6202 153.629 47.6202 153.86 48.5757V48.5757C153.942 48.9171 154.209 49.1837 154.55 49.2662V49.2662C155.506 49.4968 155.506 50.8559 154.55 51.0865V51.0865C154.209 51.1689 153.942 51.4355 153.86 51.777V51.777C153.629 52.7325 152.27 52.7325 152.04 51.777V51.777C151.957 51.4355 151.691 51.1689 151.349 51.0865V51.0865C150.394 50.8559 150.394 49.4968 151.349 49.2662V49.2662C151.691 49.1837 151.957 48.9171 152.04 48.5757V48.5757Z" fill="url(#paint1_linear_340_2424)"/>
<path d="M135.711 13.7705C135.942 12.815 137.301 12.815 137.531 13.7705V13.7705C137.614 14.112 137.88 14.3786 138.222 14.461V14.461C139.177 14.6916 139.177 16.0507 138.222 16.2813V16.2813C137.88 16.3638 137.614 16.6304 137.531 16.9718V16.9718C137.301 17.9273 135.942 17.9273 135.711 16.9718V16.9718C135.629 16.6304 135.362 16.3638 135.021 16.2813V16.2813C134.065 16.0507 134.065 14.6916 135.021 14.461V14.461C135.362 14.3786 135.629 14.112 135.711 13.7705V13.7705Z" fill="url(#paint2_linear_340_2424)"/>
<path d="M116.667 36.1972C116.824 35.5475 117.748 35.5475 117.905 36.1972V36.1972C117.961 36.4294 118.142 36.6107 118.375 36.6668V36.6668C119.024 36.8236 119.024 37.7478 118.375 37.9046V37.9046C118.142 37.9607 117.961 38.1419 117.905 38.3741V38.3741C117.748 39.0239 116.824 39.0239 116.667 38.3741V38.3741C116.611 38.1419 116.43 37.9607 116.198 37.9046V37.9046C115.548 37.7478 115.548 36.8236 116.198 36.6668V36.6668C116.43 36.6107 116.611 36.4294 116.667 36.1972V36.1972Z" fill="url(#paint3_linear_340_2424)"/>
<path d="M93.0335 49.9472C93.1903 49.2975 94.1145 49.2975 94.2713 49.9472V49.9472C94.3274 50.1794 94.5086 50.3607 94.7408 50.4168V50.4168C95.3906 50.5736 95.3906 51.4978 94.7408 51.6546V51.6546C94.5086 51.7107 94.3274 51.8919 94.2713 52.1241V52.1241C94.1145 52.7739 93.1903 52.7739 93.0335 52.1241V52.1241C92.9774 51.8919 92.7961 51.7107 92.5639 51.6546V51.6546C91.9142 51.4978 91.9142 50.5736 92.5639 50.4168V50.4168C92.7961 50.3607 92.9774 50.1794 93.0335 49.9472V49.9472Z" fill="url(#paint4_linear_340_2424)"/>
<path d="M127.783 47.828L127.063 65.072H121.843L121.123 47.828H127.783ZM124.543 74.288C123.463 74.288 122.575 73.976 121.879 73.352C121.207 72.704 120.871 71.912 120.871 70.976C120.871 70.016 121.207 69.212 121.879 68.564C122.575 67.916 123.463 67.592 124.543 67.592C125.599 67.592 126.463 67.916 127.135 68.564C127.831 69.212 128.179 70.016 128.179 70.976C128.179 71.912 127.831 72.704 127.135 73.352C126.463 73.976 125.599 74.288 124.543 74.288Z" fill="#FF4672"/>
<path d="M171.243 46.6216C171.243 72.37 150.37 93.2432 124.622 93.2432C98.8732 93.2432 78 72.37 78 46.6216C78 20.8732 98.8732 0 124.622 0C150.37 0 171.243 20.8732 171.243 46.6216Z" fill="white" fill-opacity="0.32"/>
<defs>
<filter id="filter0_d_340_2424" x="98.6089" y="29.3589" width="53.2505" height="61.4146" filterUnits="userSpaceOnUse" color-interpolation-filters="sRGB">
<feFlood flood-opacity="0" result="BackgroundImageFix"/>
<feColorMatrix in="SourceAlpha" type="matrix" values="0 0 0 0 0 0 0 0 0 0 0 0 0 0 0 0 0 0 127 0" result="hardAlpha"/>
<feOffset dy="-3"/>
<feGaussianBlur stdDeviation="3"/>
<feColorMatrix type="matrix" values="0 0 0 0 0.788235 0 0 0 0 0.803922 0 0 0 0 0.85098 0 0 0 0.349 0"/>
<feBlend mode="normal" in2="BackgroundImageFix" result="effect1_dropShadow_340_2424"/>
<feBlend mode="normal" in="SourceGraphic" in2="effect1_dropShadow_340_2424" result="shape"/>
</filter>
<linearGradient id="paint0_linear_340_2424" x1="125.234" y1="19.8823" x2="125.234" y2="84.3362" gradientUnits="userSpaceOnUse">
<stop stop-color="#D0DBF9"/>
<stop offset="1" stop-color="#DAE7FF"/>
</linearGradient>
<linearGradient id="paint1_linear_340_2424" x1="152.95" y1="44.8052" x2="152.95" y2="55.5475" gradientUnits="userSpaceOnUse">
<stop stop-color="#70A8FF"/>
<stop offset="1" stop-color="#5597FD"/>
</linearGradient>
<linearGradient id="paint2_linear_340_2424" x1="136.621" y1="10" x2="136.621" y2="20.7423" gradientUnits="userSpaceOnUse">
<stop stop-color="#70A8FF"/>
<stop offset="1" stop-color="#5597FD"/>
</linearGradient>
<linearGradient id="paint3_linear_340_2424" x1="117.286" y1="33.6333" x2="117.286" y2="40.9381" gradientUnits="userSpaceOnUse">
<stop stop-color="#70A8FF"/>
<stop offset="1" stop-color="#5597FD"/>
</linearGradient>
<linearGradient id="paint4_linear_340_2424" x1="93.6524" y1="47.3833" x2="93.6524" y2="54.6881" gradientUnits="userSpaceOnUse">
<stop stop-color="#70A8FF"/>
<stop offset="1" stop-color="#5597FD"/>
</linearGradient>
</defs>
</svg>
