<svg width="21" height="13" viewBox="0 0 21 13" fill="none" xmlns="http://www.w3.org/2000/svg">
<path d="M10.2257 3.68505C12.5485 3.68505 14.4316 5.56812 14.4316 7.89095C14.4316 10.2139 12.5485 12.0969 10.2257 12.0969C7.90276 12.0969 6.0197 10.2139 6.0197 7.89095C6.0197 5.56812 7.90276 3.68505 10.2257 3.68505ZM10.2257 5.26225C8.77388 5.26225 7.59693 6.43917 7.59693 7.89095C7.59693 9.34274 8.77388 10.5197 10.2257 10.5197C11.6774 10.5197 12.8544 9.34274 12.8544 7.89095C12.8544 6.43917 11.6774 5.26225 10.2257 5.26225ZM10.2257 0C15.0767 0 19.2643 3.31218 20.4262 7.95383C20.532 8.37632 20.2752 8.80459 19.8527 8.91037C19.4301 9.01604 19.002 8.75937 18.8962 8.33678C17.909 4.39305 14.3488 1.57722 10.2257 1.57722C6.1006 1.57722 2.5394 4.39547 1.55391 8.34162C1.44838 8.76411 1.02028 9.02109 0.59772 8.91562C0.175161 8.81006 -0.0818425 8.382 0.0236843 7.95941C1.18356 3.31503 5.3725 0 10.2257 0Z" fill="#4F52B2"/>
</svg>
