<svg width="22" height="12" viewBox="0 0 22 12" fill="none" xmlns="http://www.w3.org/2000/svg">
<path d="M5.51912 1.95068L7.68402 5.70164C5.92743 6.79568 4.74296 8.72301 4.68604 10.9313H0.5C0.5 7.13359 2.50765 3.80761 5.51912 1.95068Z" fill="#292B5D"/>
<path d="M15.9686 1.6115L13.8003 5.37236C12.9638 4.96742 12.0302 4.73997 11.0399 4.73997C10.0462 4.73997 9.1058 4.96742 8.26935 5.37574L6.10107 1.61804C7.5735 0.835133 9.25315 0.390137 11.0399 0.390137C12.8199 0.390137 14.4997 0.83176 15.9686 1.6115Z" fill="#292B5D"/>
<path d="M21.5804 10.9308H17.3946C17.3377 8.71911 16.1498 6.78503 14.3865 5.69436L16.5514 1.94678C19.5694 3.80033 21.5804 7.12968 21.5804 10.9308Z" fill="#292B5D"/>
<path d="M10.5492 9.83766C10.0985 10.1123 9.95832 10.6988 10.2355 11.1492C10.5148 11.6029 11.1038 11.7452 11.5545 11.4703L11.8505 11.1906L15.3168 7.87744L10.8133 9.72846L10.5492 9.83766Z" fill="#292B5D"/>
</svg>
