<svg width="18" height="18" viewBox="0 0 18 18" fill="none" xmlns="http://www.w3.org/2000/svg">
<path d="M7.2 3.07317H10.8C10.8 2.1033 9.99414 1.31707 9 1.31707C8.00586 1.31707 7.2 2.1033 7.2 3.07317ZM5.85 3.07317C5.85 1.3759 7.2603 0 9 0C10.7397 0 12.15 1.3759 12.15 3.07317H17.325C17.6978 3.07317 18 3.36801 18 3.73171C18 4.0954 17.6978 4.39024 17.325 4.39024H16.1378L15.083 15.0245C14.9156 16.7123 13.4618 18 11.7237 18H6.27632C4.53829 18 3.08443 16.7123 2.91702 15.0245L1.86217 4.39024H0.675C0.302211 4.39024 0 4.0954 0 3.73171C0 3.36801 0.302211 3.07317 0.675 3.07317H5.85ZM7.65 7.2439C7.65 6.88021 7.34778 6.58537 6.975 6.58537C6.60221 6.58537 6.3 6.88021 6.3 7.2439V13.8293C6.3 14.193 6.60221 14.4878 6.975 14.4878C7.34778 14.4878 7.65 14.193 7.65 13.8293V7.2439ZM11.025 6.58537C11.3978 6.58537 11.7 6.88021 11.7 7.2439V13.8293C11.7 14.193 11.3978 14.4878 11.025 14.4878C10.6522 14.4878 10.35 14.193 10.35 13.8293V7.2439C10.35 6.88021 10.6522 6.58537 11.025 6.58537ZM4.26074 14.8976C4.36119 15.9102 5.2335 16.6829 6.27632 16.6829H11.7237C12.7665 16.6829 13.6388 15.9102 13.7392 14.8976L14.7815 4.39024H3.21847L4.26074 14.8976Z" fill="#696969"/>
</svg>
