<svg width="8" height="12" viewBox="0 0 8 12" fill="none" xmlns="http://www.w3.org/2000/svg">
<path d="M4.15553 7.4911V0.988847C4.15553 0.719957 3.93557 0.5 3.66668 0.5C3.39779 0.5 3.17783 0.719957 3.17783 0.988847V7.50332L0.806714 5.38889C0.598946 5.20559 0.293378 5.22997 0.122288 5.42555C-0.0488191 5.62112 -0.0366275 5.93888 0.158949 6.10997L3.33674 8.93332L3.66676 9.22668L3.99679 8.93332L7.17458 6.10997C7.38234 5.92667 7.39453 5.62113 7.21124 5.42555C7.02794 5.21778 6.72239 5.20559 6.52681 5.38889L4.15553 7.4911ZM6.84443 10.5222C7.11332 10.5222 7.33328 10.7422 7.33328 11.0111C7.33328 11.28 7.11332 11.4999 6.84443 11.4999L0.488847 11.5C0.219957 11.5 0 11.28 0 11.0112C0 10.7423 0.219957 10.5223 0.488847 10.5223L6.84443 10.5222Z" fill="#2C2C2C"/>
</svg>
