<svg width="22" height="10" viewBox="0 0 22 10" fill="none" xmlns="http://www.w3.org/2000/svg">
<path d="M0.910736 5.58331H6.183L4.59521 7.09997C4.35094 7.33331 4.35094 7.70275 4.59521 7.93608C4.83949 8.16942 5.22626 8.16942 5.47053 7.93608L8.11684 5.40831C8.23898 5.29164 8.30005 5.15553 8.30005 4.99997C8.30005 4.84442 8.23898 4.68886 8.11684 4.59164L5.47053 2.06386C5.34839 1.9472 5.18554 1.88886 5.04305 1.88886C4.8802 1.88886 4.71735 1.9472 4.61557 2.06386C4.3713 2.2972 4.3713 2.66664 4.61557 2.89997L6.20336 4.41664H0.910736C0.56468 4.41664 0.300049 4.68886 0.300049 4.99997C0.300049 5.33053 0.585036 5.58331 0.910736 5.58331Z" fill="#424242"/>
<path d="M11 9.5C11.3967 9.5 11.7 9.14706 11.7 8.7437V1.2563C11.7 0.827731 11.3734 0.5 11 0.5C10.6034 0.5 10.3 0.852942 10.3 1.2563V8.71849C10.3 9.14706 10.6034 9.5 11 9.5Z" fill="#424242"/>
<path d="M16.5163 8.30312C16.7612 8.56563 17.1489 8.56563 17.3938 8.30312C17.6387 8.04062 17.6387 7.625 17.3938 7.3625L15.802 5.65625H21.0877C21.4346 5.65625 21.7 5.35 21.7 5C21.7 4.62813 21.4142 4.34375 21.0877 4.34375L15.802 4.34375L17.3938 2.6375C17.6387 2.375 17.6387 1.95938 17.3938 1.69688C17.2714 1.56563 17.1081 1.5 16.9653 1.5C16.802 1.5 16.6387 1.56563 16.5367 1.69688L13.8836 4.54063C13.7612 4.67188 13.7 4.825 13.7 5C13.7 5.175 13.7612 5.35 13.8836 5.45937L16.5163 8.30312Z" fill="#424242"/>
</svg>
