<svg width="15" height="16" viewBox="0 0 15 16" fill="none" xmlns="http://www.w3.org/2000/svg">
<path d="M10.1759 4.68561C10.1818 4.66623 10.1898 4.64762 10.1949 4.62799C10.1954 4.62518 10.1966 4.62264 10.1971 4.62009C10.2139 4.55635 10.2255 4.49108 10.2354 4.42556C10.2383 4.40542 10.24 4.38528 10.2425 4.3654C10.2465 4.32282 10.2485 4.27974 10.2502 4.23691C10.2513 4.21447 10.2547 4.1928 10.2547 4.17062V2.27027C10.2547 2.26594 10.2555 2.26186 10.2555 2.25752C10.255 1.0106 8.95722 0 7.35729 0C5.75678 0 4.45874 1.0106 4.45874 2.25727L4.45818 2.25676V4.16986C4.45818 4.74144 4.73315 5.26178 5.18302 5.65949V5.70436V5.74923L0.5 8.18088V10.7872L5.51951 16L14.2143 11.486V8.87917L10.1759 4.68561ZM4.74222 2.25727C4.74222 1.15311 5.91524 0.254943 7.35729 0.254943C8.79876 0.254943 9.97178 1.15311 9.97178 2.25727C9.97178 2.31795 9.96583 2.37964 9.96045 2.42706L9.95818 2.44822L9.95477 2.4778C9.94599 2.5372 9.93635 2.5887 9.92529 2.63433L9.92359 2.6379L9.91991 2.65473C9.90659 2.7047 9.88873 2.75976 9.86406 2.8235L9.85216 2.8518L9.84394 2.87143C9.82636 2.91349 9.80652 2.95505 9.78753 2.99329L9.7776 3.01241L9.76371 3.03867C9.7331 3.09425 9.70078 3.146 9.66365 3.19903L9.65429 3.21101L9.65117 3.21535C9.61999 3.2592 9.58626 3.30177 9.55593 3.33848L9.53013 3.3678L9.51369 3.38641C9.48335 3.42083 9.45132 3.45372 9.41787 3.4861L9.40823 3.49578L9.40625 3.49782C9.39548 3.50853 9.38499 3.51924 9.37365 3.52995C9.34559 3.55595 9.31894 3.57966 9.29371 3.60133C9.29314 3.60159 9.29286 3.6021 9.29229 3.60235C9.27018 3.62147 9.24892 3.63881 9.22993 3.65385L9.2183 3.66226L9.21434 3.66532C9.21037 3.66838 9.20583 3.67093 9.20186 3.67425C9.15367 3.71121 9.10406 3.74614 9.05446 3.77903L9.02441 3.79764L8.99776 3.8137C8.96063 3.83664 8.92349 3.85831 8.88721 3.87846C8.83334 3.90777 8.7775 3.93607 8.72165 3.96233L8.68594 3.97916C8.67233 3.98579 8.65844 3.99267 8.64483 3.99853C8.56744 4.03244 8.48977 4.06278 8.4138 4.08878L8.38857 4.0972C8.371 4.10306 8.35058 4.10867 8.33188 4.11428C8.26668 4.13442 8.19609 4.15405 8.11332 4.17343C8.09376 4.17801 8.07391 4.18158 8.05407 4.18541L8.02289 4.19127C7.95712 4.20478 7.88994 4.21651 7.82219 4.22594C7.77456 4.23232 7.72665 4.23869 7.67875 4.24302L7.64955 4.24583L7.60391 4.25016C7.51121 4.25654 7.43071 4.25985 7.35757 4.25985C6.58736 4.25985 5.89597 4.0021 5.41689 3.59521C5.41689 3.59521 5.41632 3.5947 5.41576 3.59419C5.33213 3.52281 5.25304 3.44837 5.18302 3.36831C4.90493 3.04989 4.74222 2.66798 4.74222 2.25727ZM9.48704 6.04216V6.04293C9.48647 6.0442 9.48647 6.04522 9.48591 6.04624C9.48647 6.04496 9.48647 6.04344 9.48704 6.04216ZM5.58046 13.0676L0.939104 8.24742L5.18302 6.04369V7.13893V8.57349C5.18302 9.50837 6.15648 10.2666 7.35672 10.2666C7.42419 10.2666 7.49137 10.2635 7.5577 10.2587C7.57811 10.2571 7.59881 10.2548 7.61922 10.2531C7.64586 10.2508 7.67138 10.2475 7.69717 10.2441C7.7105 10.2421 7.72439 10.2411 7.73714 10.239C7.79355 10.2314 7.84912 10.2217 7.90326 10.2105C7.92821 10.2054 7.95315 10.2013 7.97753 10.1957C8.05435 10.1779 8.13032 10.1577 8.20346 10.1332C8.20403 10.1332 8.20459 10.133 8.20459 10.133C8.20913 10.1312 8.21282 10.1297 8.21735 10.1279C8.28482 10.1052 8.35087 10.0797 8.41493 10.0517C8.43705 10.0422 8.45802 10.0313 8.47985 10.0211C8.52577 9.99914 8.57113 9.9767 8.61507 9.95223C8.62556 9.94662 8.63548 9.94025 8.64597 9.93438C8.66581 9.92291 8.68594 9.91195 8.70521 9.89997C8.72194 9.88977 8.73838 9.87957 8.75511 9.86912C8.79933 9.8398 8.84327 9.80895 8.88522 9.77683C8.88806 9.77453 8.89174 9.77224 8.89458 9.76994C8.93937 9.73527 8.9816 9.69882 9.02186 9.66083C9.03405 9.64936 9.04567 9.63737 9.05786 9.62539C9.076 9.60806 9.09216 9.5897 9.10945 9.57185C9.11994 9.56089 9.13043 9.55044 9.14035 9.53922C9.15141 9.52698 9.16189 9.51525 9.17238 9.50276C9.20186 9.46835 9.22936 9.43291 9.25487 9.39671C9.25998 9.38982 9.26593 9.38319 9.27046 9.37631C9.29995 9.33374 9.32688 9.28989 9.35126 9.24527C9.35834 9.23227 9.36515 9.21901 9.37167 9.20601C9.38924 9.1721 9.4054 9.13768 9.42042 9.10301C9.42638 9.08848 9.43261 9.0742 9.438 9.05967C9.45614 9.01251 9.47287 8.96509 9.48562 8.91665C9.48562 8.91435 9.48619 8.91257 9.48676 8.91078C9.49895 8.86285 9.5083 8.81391 9.51567 8.7647C9.51794 8.74966 9.51907 8.73462 9.52077 8.71958C9.52474 8.68771 9.52588 8.65533 9.52729 8.62321C9.52786 8.60664 9.53013 8.59007 9.53013 8.57349V7.13893V5.70436V5.66C9.54544 5.64649 9.56188 5.63374 9.5769 5.61997C9.59306 5.60468 9.60837 5.58887 9.62453 5.57281C9.64834 5.54961 9.67045 5.52539 9.69313 5.50168C9.70702 5.48689 9.72204 5.47313 9.73452 5.45809C9.74897 5.44228 9.76343 5.42596 9.77704 5.4099C9.81644 5.3635 9.85301 5.31659 9.88787 5.26815C9.89383 5.25923 9.90176 5.25031 9.90772 5.24113C9.94712 5.18453 9.98256 5.12615 10.0157 5.06649C10.0256 5.04941 10.0339 5.03156 10.0429 5.01423C10.052 4.99715 10.0591 4.97956 10.0673 4.96248L13.7752 8.81263L5.58046 13.0676Z" fill="#292B5D"/>
</svg>
