<svg width="22" height="23" viewBox="0 0 22 23" fill="none" xmlns="http://www.w3.org/2000/svg">
<path d="M8.74854 10.5C8.74854 10.3703 8.74854 10.2769 8.74854 10.1836C8.74854 7.09785 8.74854 4.01155 8.74854 0.925832C8.74854 0.270059 9.01743 0.000587084 9.67085 0C10.5456 0 11.4209 0 12.2957 0C12.9861 0 13.2485 0.259491 13.2485 0.94227C13.2485 4.02798 13.2485 7.11429 13.2485 10.2V10.5C13.3525 10.5 13.4358 10.5 13.5192 10.5C14.3939 10.5 15.2693 10.5029 16.144 10.4988C16.4951 10.4971 16.7763 10.6174 16.9266 10.9462C17.0734 11.2673 16.9789 11.5526 16.7552 11.8086C15.0421 13.7659 13.3307 15.7256 11.6159 17.6812C11.2395 18.1098 10.7605 18.1127 10.3865 17.6865C8.67105 15.7309 6.96028 13.7718 5.24658 11.8145C5.01645 11.5521 4.91958 11.2609 5.0775 10.9321C5.22956 10.6157 5.50431 10.4977 5.84541 10.4988C6.72017 10.5018 7.59551 10.5 8.47026 10.5C8.55422 10.5 8.63876 10.5 8.74795 10.5H8.74854Z" fill="#00AF50"/>
<rect y="20" width="22" height="3" rx="0.5" fill="#00AF50"/>
</svg>
