<svg width="52" height="53" viewBox="0 0 52 53" fill="none" xmlns="http://www.w3.org/2000/svg">
<rect width="52" height="53" rx="8" fill="#9599B2"/>
<path d="M13.328 32V21.536H16.624C17.4027 21.536 18.096 21.6373 18.704 21.84C19.312 22.0427 19.792 22.3787 20.144 22.848C20.496 23.3173 20.672 23.9573 20.672 24.768C20.672 25.536 20.496 26.1707 20.144 26.672C19.792 27.1733 19.3173 27.5467 18.72 27.792C18.1227 28.0373 17.4453 28.16 16.688 28.16H15.184V32H13.328ZM15.184 26.672H16.544C18.08 26.672 18.848 26.0373 18.848 24.768C18.848 24.1067 18.6453 23.6533 18.24 23.408C17.8453 23.152 17.2587 23.024 16.48 23.024H15.184V26.672ZM22.6405 32V21.536H25.4405C27.0405 21.536 28.2885 21.968 29.1845 22.832C30.0805 23.696 30.5285 24.992 30.5285 26.72C30.5285 28.4587 30.0858 29.776 29.2005 30.672C28.3152 31.5573 27.0938 32 25.5365 32H22.6405ZM24.4965 30.496H25.3125C26.3685 30.496 27.1845 30.192 27.7605 29.584C28.3365 28.9653 28.6245 28.0107 28.6245 26.72C28.6245 25.44 28.3365 24.5067 27.7605 23.92C27.1845 23.3333 26.3685 23.04 25.3125 23.04H24.4965V30.496ZM32.6405 32V21.536H38.9605V23.104H34.4965V26.064H38.3045V27.632H34.4965V32H32.6405Z" fill="white"/>
</svg>
