<svg width="265" height="68" viewBox="0 0 265 68" fill="none" xmlns="http://www.w3.org/2000/svg">
<rect width="265" height="68" rx="4" fill="#BE2F2F"/>
<path d="M47.5078 44H38.0742V27.1953H47.1328V29.5625H40.8633V34.3203H46.6406V36.6758H40.8633V41.6445H47.5078V44ZM60.2227 32L56.2266 38.0703L60.1758 44H57.0234L54.9141 40.2852C54.7812 40.0586 54.625 39.7695 54.4453 39.418H54.3984C54.3672 39.4883 54.2031 39.7773 53.9062 40.2852L51.7617 44H48.6211L52.6992 38.1172L48.832 32H51.9961L54.0703 35.9023C54.2266 36.1914 54.3789 36.4883 54.5273 36.793H54.5625L57.2461 32H60.2227ZM64.9805 42.2305H64.9336V49.5195H62.2148V32H64.9336V34.1094H64.9805C65.9102 32.5156 67.2695 31.7188 69.0586 31.7188C70.582 31.7188 71.7695 32.2539 72.6211 33.3242C73.4727 34.3945 73.8984 35.832 73.8984 37.6367C73.8984 39.6367 73.418 41.2383 72.457 42.4414C71.4961 43.6445 70.1836 44.2461 68.5195 44.2461C66.9883 44.2461 65.8086 43.5742 64.9805 42.2305ZM64.9102 37.4961V38.9844C64.9102 39.8594 65.1875 40.6016 65.7422 41.2109C66.3047 41.8203 67.0156 42.125 67.875 42.125C68.8828 42.125 69.6719 41.7344 70.2422 40.9531C70.8203 40.1641 71.1094 39.0664 71.1094 37.6602C71.1094 36.4805 70.8398 35.5586 70.3008 34.8945C69.7695 34.2227 69.0469 33.8867 68.1328 33.8867C67.1641 33.8867 66.3828 34.2305 65.7891 34.918C65.2031 35.6055 64.9102 36.4648 64.9102 37.4961ZM81.9961 44.2812C80.1445 44.2812 78.6641 43.7227 77.5547 42.6055C76.4531 41.4805 75.9023 39.9922 75.9023 38.1406C75.9023 36.125 76.4766 34.5508 77.625 33.418C78.7812 32.2852 80.3359 31.7188 82.2891 31.7188C84.1641 31.7188 85.625 32.2695 86.6719 33.3711C87.7188 34.4727 88.2422 36 88.2422 37.9531C88.2422 39.8672 87.6758 41.4023 86.543 42.5586C85.418 43.707 83.9023 44.2812 81.9961 44.2812ZM82.125 33.8867C81.0625 33.8867 80.2227 34.2578 79.6055 35C78.9883 35.7422 78.6797 36.7656 78.6797 38.0703C78.6797 39.3281 78.9922 40.3203 79.6172 41.0469C80.2422 41.7656 81.0781 42.125 82.125 42.125C83.1953 42.125 84.0156 41.7695 84.5859 41.0586C85.1641 40.3477 85.4531 39.3359 85.4531 38.0234C85.4531 36.7031 85.1641 35.6836 84.5859 34.9648C84.0156 34.2461 83.1953 33.8867 82.125 33.8867ZM97.9805 34.5898C97.6523 34.332 97.1797 34.2031 96.5625 34.2031C95.7578 34.2031 95.0859 34.5664 94.5469 35.293C94.0078 36.0195 93.7383 37.0078 93.7383 38.2578V44H91.0195V32H93.7383V34.4727H93.7852C94.0508 33.6289 94.457 32.9727 95.0039 32.5039C95.5586 32.0273 96.1758 31.7891 96.8555 31.7891C97.3477 31.7891 97.7227 31.8633 97.9805 32.0117V34.5898ZM106.934 43.8711C106.402 44.1367 105.703 44.2695 104.836 44.2695C102.508 44.2695 101.344 43.1523 101.344 40.918V34.1328H99.3398V32H101.344V29.2227L104.062 28.4492V32H106.934V34.1328H104.062V40.1328C104.062 40.8438 104.191 41.3516 104.449 41.6562C104.707 41.9609 105.137 42.1133 105.738 42.1133C106.199 42.1133 106.598 41.9805 106.934 41.7148V43.8711ZM125.098 44H122.461V42.125H122.414C121.586 43.5625 120.371 44.2812 118.77 44.2812C117.59 44.2812 116.664 43.9609 115.992 43.3203C115.328 42.6797 114.996 41.832 114.996 40.7773C114.996 38.5117 116.301 37.1914 118.91 36.8164L122.473 36.3125C122.473 34.6016 121.66 33.7461 120.035 33.7461C118.605 33.7461 117.316 34.2383 116.168 35.2227V32.8438C117.434 32.0938 118.895 31.7188 120.551 31.7188C123.582 31.7188 125.098 33.2109 125.098 36.1953V44ZM122.473 38.1055L119.953 38.457C119.172 38.5586 118.582 38.75 118.184 39.0312C117.793 39.3047 117.598 39.7891 117.598 40.4844C117.598 40.9922 117.777 41.4102 118.137 41.7383C118.504 42.0586 118.992 42.2188 119.602 42.2188C120.43 42.2188 121.113 41.9297 121.652 41.3516C122.199 40.7656 122.473 40.0312 122.473 39.1484V38.1055ZM127.676 43.625V41.1055C128.691 41.8789 129.812 42.2656 131.039 42.2656C132.68 42.2656 133.5 41.7812 133.5 40.8125C133.5 40.5391 133.43 40.3086 133.289 40.1211C133.148 39.9258 132.957 39.7539 132.715 39.6055C132.48 39.457 132.199 39.3242 131.871 39.207C131.551 39.0898 131.191 38.957 130.793 38.8086C130.301 38.6133 129.855 38.4062 129.457 38.1875C129.066 37.9688 128.738 37.7227 128.473 37.4492C128.215 37.168 128.02 36.8516 127.887 36.5C127.754 36.1484 127.688 35.7383 127.688 35.2695C127.688 34.6914 127.824 34.1836 128.098 33.7461C128.371 33.3008 128.738 32.9297 129.199 32.6328C129.66 32.3281 130.184 32.1016 130.77 31.9531C131.355 31.7969 131.961 31.7188 132.586 31.7188C133.695 31.7188 134.688 31.8867 135.562 32.2227V34.6016C134.719 34.0234 133.75 33.7344 132.656 33.7344C132.312 33.7344 132 33.7695 131.719 33.8398C131.445 33.9102 131.211 34.0078 131.016 34.1328C130.82 34.2578 130.668 34.4102 130.559 34.5898C130.449 34.7617 130.395 34.9531 130.395 35.1641C130.395 35.4219 130.449 35.6406 130.559 35.8203C130.668 36 130.828 36.1602 131.039 36.3008C131.258 36.4336 131.516 36.5586 131.812 36.6758C132.117 36.7852 132.465 36.9062 132.855 37.0391C133.371 37.25 133.832 37.4648 134.238 37.6836C134.652 37.9023 135.004 38.1523 135.293 38.4336C135.582 38.707 135.805 39.0273 135.961 39.3945C136.117 39.7539 136.195 40.1836 136.195 40.6836C136.195 41.293 136.055 41.8242 135.773 42.2773C135.492 42.7305 135.117 43.1055 134.648 43.4023C134.18 43.6992 133.637 43.918 133.02 44.0586C132.41 44.207 131.766 44.2812 131.086 44.2812C129.773 44.2812 128.637 44.0625 127.676 43.625ZM148.477 37.9062V44H145.699V27.1953H150.797C152.727 27.1953 154.223 27.6445 155.285 28.543C156.348 29.4414 156.879 30.707 156.879 32.3398C156.879 33.9727 156.324 35.3086 155.215 36.3477C154.105 37.3867 152.605 37.9062 150.715 37.9062H148.477ZM148.477 29.4922V35.6328H150.281C151.477 35.6328 152.387 35.3555 153.012 34.8008C153.637 34.2461 153.949 33.4648 153.949 32.457C153.949 30.4805 152.801 29.4922 150.504 29.4922H148.477ZM159.738 44V27.1953H164.59C170.785 27.1953 173.883 29.9258 173.883 35.3867C173.883 37.9805 173.023 40.0664 171.305 41.6445C169.586 43.2148 167.281 44 164.391 44H159.738ZM162.516 29.5625V41.6445H164.742C166.703 41.6445 168.227 41.1055 169.312 40.0273C170.406 38.9492 170.953 37.4258 170.953 35.457C170.953 31.5273 168.918 29.5625 164.848 29.5625H162.516ZM186.035 29.5625H179.754V34.6133H185.543V36.9688H179.754V44H176.965V27.1953H186.035V29.5625Z" fill="white"/>
<path d="M203 34V23C203 22.7348 203.105 22.4804 203.293 22.2929C203.48 22.1054 203.735 22 204 22H216L223 29V34" stroke="white" stroke-width="2" stroke-linecap="round" stroke-linejoin="round"/>
<path d="M216 22V29H223" stroke="white" stroke-width="2" stroke-linecap="round" stroke-linejoin="round"/>
<path d="M203 43H205C205.53 43 206.039 42.7893 206.414 42.4142C206.789 42.0391 207 41.5304 207 41C207 40.4696 206.789 39.9609 206.414 39.5858C206.039 39.2107 205.53 39 205 39H203V45" stroke="white" stroke-width="2" stroke-linecap="round" stroke-linejoin="round"/>
<path d="M224 39H220.5V45" stroke="white" stroke-width="2" stroke-linecap="round" stroke-linejoin="round"/>
<path d="M223.5 42.5H220.5" stroke="white" stroke-width="2" stroke-linecap="round" stroke-linejoin="round"/>
<path d="M213 45C213.796 45 214.559 44.6839 215.121 44.1213C215.684 43.5587 216 42.7956 216 42C216 41.2044 215.684 40.4413 215.121 39.8787C214.559 39.3161 213.796 39 213 39H211.25V45H213Z" stroke="white" stroke-width="2" stroke-linecap="round" stroke-linejoin="round"/>
</svg>
