<svg width="123" height="39" viewBox="0 0 123 39" fill="none" xmlns="http://www.w3.org/2000/svg">
<rect x="0.5" y="0.5" width="122" height="38" rx="3.5" fill="#343434"/>
<path d="M13.084 27.4434V25.0508C13.2988 25.2461 13.5527 25.4219 13.8457 25.5781C14.1452 25.7344 14.4609 25.8678 14.793 25.9785C15.125 26.0827 15.457 26.1641 15.7891 26.2227C16.1211 26.2812 16.4271 26.3105 16.707 26.3105C17.6836 26.3105 18.4095 26.1478 18.8848 25.8223C19.3665 25.4967 19.6074 25.0247 19.6074 24.4062C19.6074 24.0742 19.526 23.7878 19.3633 23.5469C19.207 23.2995 18.9857 23.0749 18.6992 22.873C18.4128 22.6712 18.0742 22.4792 17.6836 22.2969C17.2995 22.1081 16.8861 21.9128 16.4434 21.7109C15.9681 21.457 15.5254 21.1999 15.1152 20.9395C14.7051 20.679 14.347 20.3926 14.041 20.0801C13.7415 19.7611 13.5039 19.403 13.3281 19.0059C13.1589 18.6087 13.0742 18.1432 13.0742 17.6094C13.0742 16.9518 13.2207 16.3822 13.5137 15.9004C13.8132 15.4121 14.2038 15.0117 14.6855 14.6992C15.1738 14.3802 15.7272 14.1458 16.3457 13.9961C16.9642 13.8398 17.5957 13.7617 18.2402 13.7617C19.7051 13.7617 20.7728 13.9277 21.4434 14.2598V16.5547C20.6491 15.9818 19.627 15.6953 18.377 15.6953C18.0319 15.6953 17.6868 15.7279 17.3418 15.793C17.0033 15.8581 16.6973 15.9655 16.4238 16.1152C16.1569 16.265 15.9388 16.457 15.7695 16.6914C15.6003 16.9258 15.5156 17.209 15.5156 17.541C15.5156 17.8535 15.5807 18.1237 15.7109 18.3516C15.8411 18.5794 16.0299 18.7878 16.2773 18.9766C16.5312 19.1654 16.8372 19.3509 17.1953 19.5332C17.5599 19.709 17.9798 19.901 18.4551 20.1094C18.9434 20.3633 19.4023 20.6302 19.832 20.9102C20.2682 21.1901 20.6491 21.4993 20.9746 21.8379C21.3066 22.1764 21.5671 22.554 21.7559 22.9707C21.9512 23.3809 22.0488 23.8496 22.0488 24.377C22.0488 25.0866 21.9056 25.6855 21.6191 26.1738C21.3327 26.6621 20.9453 27.0592 20.457 27.3652C19.9753 27.6712 19.4186 27.8926 18.7871 28.0293C18.1556 28.166 17.4883 28.2344 16.7852 28.2344C16.5508 28.2344 16.2611 28.2148 15.916 28.1758C15.5775 28.1432 15.2292 28.0911 14.8711 28.0195C14.513 27.9544 14.1745 27.873 13.8555 27.7754C13.5365 27.6777 13.2793 27.5671 13.084 27.4434ZM33.0938 28H30.8281V26.418H30.7891C30.1315 27.6289 29.1094 28.2344 27.7227 28.2344C25.3594 28.2344 24.1777 26.8151 24.1777 23.9766V18H26.4434V23.7422C26.4434 25.5391 27.1367 26.4375 28.5234 26.4375C29.194 26.4375 29.7441 26.1901 30.1738 25.6953C30.61 25.2005 30.8281 24.5527 30.8281 23.752V18H33.0938V28ZM38.3574 26.5547H38.3184V28H36.0527V13.1953H38.3184V19.7578H38.3574C39.1322 18.4297 40.265 17.7656 41.7559 17.7656C43.0189 17.7656 44.0052 18.2148 44.7148 19.1133C45.431 20.0052 45.7891 21.2031 45.7891 22.707C45.7891 24.3802 45.3887 25.7214 44.5879 26.7305C43.7871 27.7331 42.6934 28.2344 41.3066 28.2344C40.0046 28.2344 39.0215 27.6745 38.3574 26.5547ZM38.2988 22.5801V23.8203C38.2988 24.5495 38.5299 25.168 38.9922 25.6758C39.4609 26.1836 40.0534 26.4375 40.7695 26.4375C41.6094 26.4375 42.2669 26.112 42.7422 25.4609C43.224 24.8034 43.4648 23.8887 43.4648 22.7168C43.4648 21.7337 43.2402 20.9655 42.791 20.4121C42.3483 19.8522 41.7461 19.5723 40.9844 19.5723C40.1771 19.5723 39.526 19.8587 39.0312 20.4316C38.543 21.0046 38.2988 21.7207 38.2988 22.5801ZM63.0547 28H60.7891V22.5508C60.7891 21.5026 60.6393 20.7441 60.3398 20.2754C60.0469 19.8066 59.5488 19.5723 58.8457 19.5723C58.2533 19.5723 57.7487 19.8685 57.332 20.4609C56.9219 21.0534 56.7168 21.763 56.7168 22.5898V28H54.4414V22.3652C54.4414 20.5033 53.7839 19.5723 52.4688 19.5723C51.8568 19.5723 51.3522 19.8522 50.9551 20.4121C50.5645 20.972 50.3691 21.6979 50.3691 22.5898V28H48.1035V18H50.3691V19.582H50.4082C51.1309 18.3711 52.1823 17.7656 53.5625 17.7656C54.2526 17.7656 54.8548 17.9577 55.3691 18.3418C55.89 18.7194 56.2448 19.2174 56.4336 19.8359C57.1758 18.4557 58.2826 17.7656 59.7539 17.7656C61.9544 17.7656 63.0547 19.123 63.0547 21.8379V28ZM66.9609 15.9004C66.5898 15.9004 66.2708 15.7799 66.0039 15.5391C65.7435 15.2982 65.6133 14.9922 65.6133 14.6211C65.6133 14.25 65.7435 13.9408 66.0039 13.6934C66.2708 13.446 66.5898 13.3223 66.9609 13.3223C67.3451 13.3223 67.6706 13.446 67.9375 13.6934C68.2044 13.9408 68.3379 14.25 68.3379 14.6211C68.3379 14.9727 68.2044 15.2754 67.9375 15.5293C67.6706 15.7767 67.3451 15.9004 66.9609 15.9004ZM68.084 28H65.8184V18H68.084V28ZM76.3262 27.8926C75.8835 28.1139 75.3008 28.2246 74.5781 28.2246C72.638 28.2246 71.668 27.2936 71.668 25.4316V19.7773H69.998V18H71.668V15.6855L73.9336 15.041V18H76.3262V19.7773H73.9336V24.7773C73.9336 25.3698 74.041 25.793 74.2559 26.0469C74.4707 26.3008 74.8288 26.4277 75.3301 26.4277C75.7142 26.4277 76.0462 26.3171 76.3262 26.0957V27.8926Z" fill="white"/>
<path d="M94.2022 13.6714L102.3 10.9727C105.934 9.76162 107.908 11.7451 106.707 15.3783L104.007 23.4744C102.195 28.9195 99.2193 28.9195 97.407 23.4744L96.6058 21.0713L94.2022 20.2703C88.756 18.4585 88.756 15.4928 94.2022 13.6714ZM96.787 20.6613L100.202 17.2379L96.787 20.6613Z" fill="white"/>
<path d="M96.787 20.6613L100.202 17.2379M94.2022 13.6714L102.3 10.9727C105.934 9.76162 107.908 11.7451 106.707 15.3783L104.007 23.4744C102.195 28.9195 99.2193 28.9195 97.407 23.4744L96.6058 21.0713L94.2022 20.2703C88.756 18.4585 88.756 15.4928 94.2022 13.6714Z" stroke="#343434" stroke-linecap="round" stroke-linejoin="round"/>
<rect x="0.5" y="0.5" width="122" height="38" rx="3.5" stroke="#343434"/>
</svg>
