<svg width="169" height="179" viewBox="0 0 169 179" fill="none" xmlns="http://www.w3.org/2000/svg">
<g opacity="0.6">
<path d="M109.936 178C49.7008 178 1 129.171 1 68.9359C1 8.82892 49.7008 -40 109.936 -40C170.171 -40 219 8.82892 219 68.9359C219 129.171 170.171 178 109.936 178Z" stroke="#263238"/>
<path d="M109.232 170.968C53.3668 170.968 8.03223 125.633 8.03223 69.639C8.03223 13.7734 53.3668 -31.5613 109.232 -31.5613C165.227 -31.5613 210.561 13.7734 210.561 69.639C210.561 125.633 165.227 170.968 109.232 170.968Z" stroke="#263238"/>
<path d="M111.407 78.142C107.955 78.142 105.078 75.2974 105.078 71.7418C105.078 68.3284 107.955 65.4839 111.407 65.4839C115.003 65.4839 117.736 68.3284 117.736 71.7418C117.736 75.2974 115.003 78.142 111.407 78.142Z" fill="#263238"/>
<path d="M110.703 7.81934V71.1097H58.6644" stroke="#263238" stroke-linecap="round" stroke-linejoin="round"/>
</g>
</svg>
