<svg width="131" height="125" viewBox="0 0 131 125" fill="none" xmlns="http://www.w3.org/2000/svg">
<path d="M1.44547 62.1709C-0.257305 59.0944 0.715649 54.9654 4.1212 53.5081C8.82409 51.565 16.6893 56.5037 19.6895 59.904C19.9327 60.1469 22.2841 63.6282 23.095 64.9236C23.095 64.8696 23.068 64.8156 23.0139 64.7617C21.7166 59.985 21.0678 55.3702 20.7435 50.8364C20.3381 46.3836 20.3381 42.1736 20.4191 38.2875C20.5002 34.4014 20.8246 30.8391 21.1489 27.6816C21.3111 26.0085 21.5004 24.4432 21.7166 22.9859L21.6354 23.0669C21.5543 23.0669 19.8516 17.0758 19.7705 16.7519C19.0408 12.2181 20.1759 2.98859 24.7977 0.640731C28.0411 -1.05944 31.8521 0.802643 33.1495 4.12203C34.4468 7.44142 32.9873 11.6514 31.2034 14.6469C29.4196 17.6425 23.4193 21.7715 21.9598 22.824C21.7976 24.2813 21.6355 25.9005 21.4733 27.6816C21.23 30.8391 20.9868 34.4014 20.9868 38.2875C20.9868 39.34 20.9868 40.4734 20.9868 41.5259C21.3922 39.6638 21.8787 37.235 21.9598 36.9921C23.3382 32.6203 28.6898 25.0099 33.7981 25.0099C37.528 25.0099 40.0416 28.4103 39.6362 31.8916C39.3119 35.5348 36.0685 38.6114 33.1495 40.3925C30.0683 42.2546 22.6896 43.2261 21.0679 43.388C21.1489 45.8168 21.23 48.2457 21.5544 50.7555C22.0409 55.2083 22.7707 59.823 24.1491 64.4378C24.2302 64.6807 24.3112 64.9236 24.3923 65.2474C24.3923 64.2759 24.8789 59.1754 24.96 58.8515C25.8519 54.3177 30.3114 46.2217 35.4198 45.6549C39.0686 45.2501 41.9877 48.3266 41.9877 51.8889C41.9877 55.5321 39.1497 58.9325 36.3928 60.9565C33.3116 63.3853 24.7977 65.3284 24.4734 65.4093C25.7707 69.7003 27.4736 74.0721 29.5007 78.3631C30.8791 81.4396 32.5007 84.5161 34.1224 87.6735C34.1224 86.4591 34.6089 81.6825 34.6089 81.3586C35.5819 76.8248 40.0416 68.7288 45.1499 68.162C48.7987 67.7572 51.6367 70.8337 51.7178 74.396C51.7178 78.0392 48.7988 81.4396 46.123 83.5446C43.0418 85.8924 34.9333 87.7545 34.2035 87.9164C34.9603 89.3197 35.6901 90.7231 36.3928 92.1264C38.8254 96.6602 41.339 101.275 43.6094 105.809C44.4202 107.428 45.0689 109.047 45.7986 110.666C45.9608 108.804 46.2851 105.485 46.3662 105.242C47.2581 100.789 51.7178 92.6122 56.8261 92.0454C60.4749 91.6406 63.3128 94.7172 63.3939 98.2794C63.3939 101.923 60.4749 105.323 57.7992 107.428C55.0423 109.533 48.2311 111.233 46.3662 111.719C47.5014 114.391 48.6365 117.062 49.6095 119.734C50.015 120.867 50.5015 122.001 50.8258 123.134C51.2042 124.322 51.5556 125.455 51.88 126.535C52.4475 128.883 53.0962 131.068 53.5827 133.254C53.826 134.388 54.0692 135.44 54.3125 136.493C54.2314 134.631 53.9881 131.716 54.0692 131.473C54.2314 126.859 57.3937 118.196 62.4209 116.819C65.9886 115.848 69.232 118.52 69.7996 122.001C69.9077 122.433 69.9347 122.864 69.8807 123.296C72.0699 126.778 73.1241 131.797 73.043 134.793C73.043 135.117 72.5564 138.517 72.3132 140.298C72.8808 138.922 73.4484 137.626 73.9349 136.169C74.7457 134.145 75.5566 131.959 76.2863 129.773C76.6647 128.694 77.0432 127.587 77.4215 126.454C77.827 125.32 78.0702 124.187 78.3945 123.053C78.7999 121.353 79.2054 119.572 79.5297 117.791C77.4215 117.062 71.1781 114.957 68.7456 112.771C66.1508 110.424 63.5561 106.861 63.7993 103.218C64.1237 99.7367 67.2049 96.8221 70.8537 97.5508C75.881 98.4413 79.6919 106.861 80.3406 111.395C80.3406 111.557 80.3406 112.529 80.3406 113.743C80.6649 111.962 80.9892 110.262 81.2325 108.48C81.9622 103.461 82.6109 98.2794 83.1785 93.1789C83.3407 92.0994 83.4758 91.0199 83.5839 89.9404C81.8001 89.3737 74.9891 87.1068 72.3944 84.759C69.8807 82.4921 67.286 78.9298 67.5293 75.2866C67.8536 71.7243 70.9348 68.8907 74.5836 69.5384C79.6108 70.5099 83.4218 78.9298 83.9894 83.4636C84.0705 83.6255 84.0704 84.84 84.0704 86.1353C84.4759 83.3017 84.8814 80.549 85.3679 77.7963C86.1787 73.0196 87.3139 68.324 88.7734 63.8711C88.1247 63.6282 80.0974 61.1994 77.2594 58.6087C74.6647 56.3418 72.0699 52.6985 72.3132 49.0553C72.6375 45.5739 75.7188 42.7403 79.3676 43.388C84.3948 44.2786 88.2058 52.7795 88.7734 57.3133C88.8545 57.6371 88.9355 61.8471 88.8544 63.3044C88.9085 63.2504 88.9355 63.1964 88.9355 63.1424C90.4761 58.5277 92.5033 54.2367 94.6926 50.2697C96.8008 46.3835 99.1522 42.8213 101.341 39.6638C103.612 36.4254 105.801 33.6727 107.828 31.1629C108.909 29.8676 109.936 28.6801 110.909 27.6007H110.828C110.747 27.6007 112.612 21.6096 112.774 21.2857C114.639 17.0758 120.721 10.1132 125.829 10.6799C129.478 11.0847 131.586 14.647 130.856 18.1283C130.126 21.6906 126.559 24.3623 123.478 25.8196C120.315 27.3578 113.018 27.5197 111.234 27.6007C110.261 28.7341 109.207 30.0295 108.072 31.4058C106.125 33.9156 104.017 36.7493 101.828 39.9877C101.26 40.7973 100.693 41.7688 100.125 42.6594C101.423 41.364 103.206 39.5019 103.369 39.421C107.017 36.5064 115.612 33.106 119.91 35.9397C122.991 37.9637 123.234 42.1736 120.964 44.9263C118.612 47.7599 114.234 48.4885 110.828 48.4076C107.261 48.2457 100.531 45.0072 99.0711 44.2786C97.8548 46.3026 96.5574 48.4076 95.4223 50.6745C93.3951 54.6415 91.4492 58.9325 89.9896 63.4663C89.9896 63.7902 89.9086 64.033 89.8275 64.2759C90.314 63.5473 93.5573 59.4992 93.8006 59.2563C97.0439 56.0179 105.234 51.727 109.855 54.0748C113.099 55.775 113.828 59.904 111.882 62.8996C109.855 65.8951 105.558 67.1095 102.152 67.3524C98.2603 67.6763 90.0707 64.5998 89.7463 64.5188C88.5301 68.8097 87.5571 73.3435 86.8273 78.0392C86.2597 81.4396 85.8543 84.8399 85.53 88.3212C86.2598 87.3497 89.1788 83.6255 89.4221 83.3826C92.6655 80.1442 100.855 75.8533 105.477 78.2011C108.72 79.9013 109.45 84.0303 107.504 86.9449C105.558 90.0214 101.26 91.2358 97.8548 91.4787C93.9627 91.8026 86.1787 88.888 85.4489 88.6451C85.2868 90.2103 85.1246 91.7756 84.9624 93.3408C84.4759 98.5223 83.9894 103.704 83.3408 108.723C83.1786 110.504 82.8542 112.286 82.611 113.986C83.7462 112.528 85.7732 109.938 86.0165 109.776C89.2599 106.537 97.4494 102.166 101.99 104.513C105.315 106.214 105.963 110.343 104.017 113.338C102.071 116.415 97.7738 117.629 94.3682 117.872C90.9627 118.115 84.3137 115.848 82.4487 115.119C81.9622 118.034 81.3947 120.867 80.746 123.62C80.4217 124.835 80.1784 126.049 79.8541 127.182C79.5297 128.316 79.1783 129.449 78.7999 130.583C78.0702 132.85 77.3405 135.036 76.5296 137.141C76.2053 138.193 75.7999 139.246 75.3944 140.217C76.2864 138.598 77.8269 136.088 77.9891 135.845C80.6649 132.202 88.1247 126.616 92.9897 128.235C96.4764 129.449 97.7738 133.416 96.3143 136.655C94.8547 139.974 90.8005 141.836 87.476 142.646C83.7462 143.456 75.881 141.836 74.908 141.593C73.9349 144.184 72.9619 146.613 71.9889 148.88C70.4483 152.685 68.9888 156.085 67.6914 159H64.0426C65.5832 155.843 67.3671 152.037 69.232 147.746C70.124 145.641 71.0158 143.536 71.9078 141.27C71.0969 140.784 64.3669 137.464 61.6911 134.631C58.691 136.331 55.2855 137.707 54.6368 137.95C55.2855 140.622 55.8531 143.132 56.3396 145.56C57.3126 150.661 58.1235 155.195 58.6911 159H55.2855C54.799 155.357 54.1504 150.985 53.3395 146.127C52.9341 143.941 52.4475 141.593 52.0421 139.246C50.988 139.407 43.0417 140.379 39.3929 139.246C36.1495 138.274 32.2575 136.088 30.9601 132.688C29.7439 129.368 31.3656 125.482 34.9333 124.592C39.9605 123.296 46.9338 129.368 49.3664 133.254C49.5285 133.497 51.0691 136.655 51.7989 138.274C51.4745 136.817 51.2313 135.359 50.907 133.902C50.4205 131.716 49.8529 129.449 49.3664 127.263C49.042 126.184 48.7176 125.05 48.3933 123.863C48.0689 122.73 47.6636 121.677 47.3392 120.463C46.7717 118.843 46.0419 117.143 45.3932 115.443C43.2039 116.091 36.8793 117.71 33.5549 117.224C30.1493 116.738 26.014 115.2 24.2302 112.043C22.5274 108.885 23.5004 104.837 26.9059 103.38C31.6899 101.356 39.4741 106.295 42.4742 109.776C42.6363 109.857 43.2039 110.666 43.8526 111.638C43.1228 110.019 42.3931 108.4 41.6633 106.78C39.4741 102.166 37.1226 97.5508 34.8522 92.936C34.3657 91.9645 33.8792 90.993 33.3927 90.0214C31.5277 90.5072 24.6355 92.3693 21.23 91.8835C17.8244 91.3978 13.6081 89.8595 11.9053 86.6211C10.2025 83.5446 11.1756 79.4965 14.5811 78.0392C19.284 76.0152 27.1492 80.9538 30.1493 84.4351C30.3114 84.5161 30.9601 85.4876 31.6899 86.5401C30.4736 84.0303 29.2574 81.5205 28.1222 78.9298C26.1761 74.477 24.5545 69.9431 23.2571 65.4093C22.6084 65.6522 14.5811 67.9191 10.7702 67.4334C7.36463 66.9476 3.14824 65.3284 1.44547 62.1709Z" fill="#F0AE00"/>
</svg>
