<svg width="715" height="699" viewBox="0 0 715 699" fill="none" xmlns="http://www.w3.org/2000/svg">
<path opacity="0.2" fill-rule="evenodd" clip-rule="evenodd" d="M487.999 45.4189C487.999 46.7166 486.79 47.6898 485.098 48.0143C456.812 52.8806 452.944 55.4759 447.867 88.5668C447.867 89.8645 445.933 91 443.999 91C441.823 91 440.131 89.8645 439.889 88.5668C435.054 55.4759 431.186 52.8806 402.9 48.0143C401.208 47.6898 399.999 46.7166 399.999 45.4189C399.999 44.2834 401.208 43.148 402.9 42.8236C431.186 37.9573 435.054 35.3619 439.889 2.43315C440.131 0.973262 441.823 0 443.999 0C445.933 0 447.867 0.973262 447.867 2.43315C452.944 35.3619 456.812 37.9573 485.098 42.8236C486.79 43.148 487.999 44.2834 487.999 45.4189ZM470.109 45.4189C454.636 41.6881 448.109 36.1729 443.999 22.5473C439.889 36.1729 433.362 41.6881 417.889 45.4189C433.362 49.3119 439.889 54.6649 443.999 68.4528C448.109 54.6649 454.636 49.3119 470.109 45.4189Z" fill="#4F52B2"/>
<path d="M16.3427 697.259C16.3427 697.259 28.4717 635.825 28.4717 630.977C28.4717 626.129 27.6379 608.327 23.6202 586.511C19.6024 564.695 7.39762 510.533 4.21375 501.67C0.954086 492.731 13.0831 476.596 16.3427 457.961C19.6024 439.402 26.8798 421.601 36.583 410.314C46.2862 398.951 81.0813 373.878 81.0813 373.878H98.8958C98.8958 373.878 92.3764 480.611 101.322 496.822C110.191 512.957 126.338 546.893 128.005 561.438C129.597 576.057 119.894 600.298 121.486 614.009C123.154 627.796 109.357 650.369 106.173 660.141C102.913 669.837 104.505 700.517 104.505 700.517" fill="white"/>
<path d="M16.3427 697.259C16.3427 697.259 28.4717 635.825 28.4717 630.977C28.4717 626.129 27.6379 608.327 23.6202 586.511C19.6024 564.695 7.39762 510.533 4.21375 501.67C0.954086 492.731 13.0831 476.596 16.3427 457.961C19.6024 439.402 26.8798 421.601 36.583 410.314C46.2862 398.951 81.0813 373.878 81.0813 373.878H98.8958C98.8958 373.878 92.3764 480.611 101.322 496.822C110.191 512.957 126.338 546.893 128.005 561.437C129.597 576.057 119.894 600.298 121.486 614.009C123.154 627.796 109.357 650.369 106.173 660.141C102.913 669.837 104.505 700.517 104.505 700.517" stroke="#263238" stroke-linecap="round" stroke-linejoin="round"/>
<path d="M34.3423 461.402C34.3423 461.402 41.1096 460.5 47.877 460.5" stroke="#263238" stroke-width="1.14522" stroke-linecap="round" stroke-linejoin="round"/>
<path d="M56.9 413.579C56.9 413.579 65.9232 416.265 65.9232 419.895" stroke="#263238" stroke-width="1.14522" stroke-linecap="round" stroke-linejoin="round"/>
<path d="M0.956055 708.722C0.956055 708.722 4.97462 670.284 4.97462 666.266C4.97462 662.223 4.97462 658.179 4.97462 654.136C4.97462 650.042 9.06899 647.009 9.06899 647.009C9.06899 647.009 48.4963 638.973 87.9236 652.089C127.351 665.205 118.252 686.433 118.252 686.433L116.205 716.758" fill="white"/>
<path d="M0.956055 708.722C0.956055 708.722 4.97462 670.284 4.97462 666.266C4.97462 662.223 4.97462 658.179 4.97462 654.136C4.97462 650.042 9.06899 647.009 9.06899 647.009C9.06899 647.009 48.4963 638.973 87.9236 652.089C127.351 665.205 118.252 686.433 118.252 686.433L116.205 716.758" stroke="#263238" stroke-width="1.14522" stroke-linecap="round" stroke-linejoin="round"/>
<path d="M562.057 563.364H90.4254C82.3776 563.364 75.8483 556.836 75.8483 548.789V268.444C75.8483 260.398 82.3776 253.869 90.4254 253.869H562.057C570.105 253.869 576.634 260.398 576.634 268.444V548.789C576.634 556.836 570.105 563.364 562.057 563.364Z" fill="#D7D8F0" stroke="#263238" stroke-linecap="round" stroke-linejoin="round"/>
<path d="M544.02 546.22H107.562C99.5184 546.22 92.9928 539.677 92.9928 531.612V284.719C92.9928 276.654 99.5184 270.111 107.562 270.111H544.02C552.063 270.111 558.589 276.654 558.589 284.719V531.612C558.589 539.677 552.063 546.22 544.02 546.22Z" fill="white" stroke="#263238" stroke-linecap="round" stroke-linejoin="round"/>
<path d="M525.201 361.245H399.779V280.939H525.201V361.245Z" fill="white" stroke="#263238" stroke-width="1.14522" stroke-linecap="round" stroke-linejoin="round"/>
<path d="M525.201 361.245H399.779V352.222H525.201V361.245Z" fill="#263238" stroke="#263238" stroke-width="1.14522" stroke-linecap="round" stroke-linejoin="round"/>
<path d="M524.299 356.733H399.779V354.026H524.299V356.733Z" fill="white" stroke="#263238" stroke-linecap="round" stroke-linejoin="round"/>
<path d="M460.687 338.687C450.479 338.687 442.189 330.398 442.189 320.189C442.189 309.981 450.479 301.692 460.687 301.692C470.895 301.692 479.184 309.981 479.184 320.189C479.184 330.398 470.895 338.687 460.687 338.687Z" fill="#4F52B2"/>
<path d="M454.822 329.664V311.617L470.161 320.603L454.822 329.664Z" fill="white"/>
<path d="M525.201 448.77H399.779V369.366H525.201V448.77Z" fill="white" stroke="#263238" stroke-width="1.14522" stroke-linecap="round" stroke-linejoin="round"/>
<path d="M525.201 448.77H399.779V440.649H525.201V448.77Z" fill="#263238" stroke="#263238" stroke-width="1.14522" stroke-linecap="round" stroke-linejoin="round"/>
<path d="M525.201 446.063H399.779V443.356H525.201V446.063Z" fill="white" stroke="#263238" stroke-width="1.14522" stroke-linecap="round" stroke-linejoin="round"/>
<path d="M460.687 426.212C450.479 426.212 442.189 418.141 442.189 408.128C442.189 398.189 450.479 390.119 460.687 390.119C470.895 390.119 479.184 398.189 479.184 408.128C479.184 418.141 470.895 426.212 460.687 426.212Z" fill="#4F52B2"/>
<path d="M454.822 418.091V400.044L470.161 409.068L454.822 418.091Z" fill="white"/>
<path d="M524.299 537.197H399.779V457.793H524.299V537.197Z" fill="white" stroke="#263238" stroke-linecap="round" stroke-linejoin="round"/>
<path d="M525.201 537.197H399.779V529.076H525.201V537.197Z" fill="#263238" stroke="#263238" stroke-width="1.14522" stroke-linecap="round" stroke-linejoin="round"/>
<path d="M525.201 534.49H399.779V531.783H525.201V534.49Z" fill="white" stroke="#263238" stroke-width="1.14522" stroke-linecap="round" stroke-linejoin="round"/>
<path d="M460.687 516.444C450.479 516.444 442.189 508.154 442.189 497.946C442.189 487.738 450.479 479.448 460.687 479.448C470.895 479.448 479.184 487.738 479.184 497.946C479.184 508.154 470.895 516.444 460.687 516.444Z" fill="#4F52B2"/>
<path d="M454.822 506.518V488.472L470.161 497.495L454.822 506.518Z" fill="white"/>
<path d="M358.461 539.904H146.04C141.166 539.904 137.205 535.962 137.205 531.111V315.899C137.205 311.048 141.166 307.106 146.04 307.106H358.461C363.336 307.106 367.296 311.048 367.296 315.899V531.111C367.296 535.962 363.336 539.904 358.461 539.904Z" fill="#F0AE00" fill-opacity="0.3"/>
<path d="M54.1934 519.745C54.1934 519.745 68.7458 487.97 70.3375 475.779C72.005 463.587 68.7458 435.089 72.7629 423.735C76.8558 412.306 74.4304 397.676 84.1321 391.961C93.8337 386.322 106.794 387.922 109.22 410.706C111.645 433.489 109.22 469.226 109.978 481.417C110.812 493.685 131.807 511.515 132.64 537.575C133.474 563.559 124.53 590.456 122.105 601.81C119.68 613.163 109.978 640.061 109.978 640.061" fill="white"/>
<path d="M54.1934 519.745C54.1934 519.745 68.7458 487.97 70.3375 475.779C72.005 463.587 68.7458 435.089 72.7629 423.735C76.8558 412.306 74.4304 397.676 84.1321 391.961C93.8337 386.322 106.794 387.922 109.22 410.706C111.645 433.489 109.22 469.226 109.978 481.417C110.812 493.685 131.807 511.515 132.64 537.575C133.474 563.559 124.53 590.456 122.105 601.81C119.68 613.163 109.978 640.061 109.978 640.061" stroke="#263238" stroke-width="1.14522" stroke-linecap="round" stroke-linejoin="round"/>
<path d="M77.6222 396.984C81.3172 388.484 92.4775 387.565 98.0577 391.317C103.638 395.07 102.582 404.411 102.582 404.411C103.336 412.605 102.582 420.798 102.582 420.798C102.582 420.798 97.756 419.114 89.6874 417.505C81.6188 415.897 75.1337 417.812 75.1337 417.812C75.1337 417.812 73.9272 405.483 77.6222 396.984Z" stroke="#263238" stroke-width="1.14522" stroke-linecap="round" stroke-linejoin="round"/>
<path d="M96.6019 431.681C96.6019 431.681 77.8641 426.501 73.1416 433.43" stroke="#263238" stroke-width="1.14522" stroke-linecap="round" stroke-linejoin="round"/>
<path d="M78.5549 437.04C78.5549 437.04 84.1848 439.859 96.6013 438.449" stroke="#263238" stroke-width="1.14522" stroke-linecap="round" stroke-linejoin="round"/>
<path d="M605.508 326.583C605.508 341.181 598.197 362.241 591.791 363.913C585.385 365.51 546.721 316.852 545.138 311.15C543.556 305.447 564.433 298.985 564.433 298.985C564.433 298.985 605.508 311.986 605.508 326.583Z" fill="#263238" stroke="#263238" stroke-width="1.14522" stroke-linecap="round" stroke-linejoin="round"/>
<path d="M681.624 483.058L654.006 457.356C654.006 457.356 645.433 456.671 627.678 446.786C609.924 436.9 584.279 407.928 584.279 407.928L584.658 351.581C584.658 351.581 586.252 344.281 586.252 337.818C586.252 331.278 578.133 318.275 574.947 316.678C571.684 315.081 553.854 312.648 551.426 312.648C548.998 312.648 530.409 315.841 518.269 317.514C506.054 319.111 501.198 322.381 490.727 318.275C480.181 314.244 476.16 306.944 479.346 304.511C482.609 302.078 523.884 287.478 537.693 282.611C551.426 277.744 552.26 274.474 563.566 277.744C574.947 281.014 601.654 286.641 614.628 287.478C627.527 288.314 637.238 291.508 639.666 293.181C642.094 294.778 650.213 295.614 655.903 297.211C661.594 298.808 677.755 333.711 685.038 345.878C692.322 358.045 718.271 418.954 718.271 418.954L738.15 442.984" fill="white"/>
<path d="M681.624 483.058L654.006 457.356C654.006 457.356 645.433 456.671 627.678 446.786C609.924 436.9 584.279 407.928 584.279 407.928L584.658 351.581C584.658 351.581 586.252 344.281 586.252 337.818C586.252 331.278 578.133 318.275 574.947 316.678C571.684 315.081 553.854 312.648 551.426 312.648C548.998 312.648 530.409 315.841 518.269 317.514C506.054 319.111 501.198 322.381 490.727 318.275C480.181 314.244 476.16 306.944 479.346 304.511C482.609 302.078 523.884 287.478 537.693 282.611C551.426 277.744 552.26 274.474 563.566 277.744C574.947 281.014 601.654 286.641 614.628 287.478C627.527 288.314 637.238 291.508 639.666 293.181C642.094 294.778 650.213 295.614 655.903 297.211C661.594 298.808 677.755 333.711 685.038 345.878C692.322 358.045 718.271 418.954 718.271 418.954L738.15 442.984" stroke="#263238" stroke-linecap="round" stroke-linejoin="round"/>
<path d="M639.796 293.571C639.796 293.571 648.265 301.379 653.331 311.617L639.796 293.571Z" fill="white"/>
<path d="M639.796 293.571C639.796 293.571 648.265 301.379 653.331 311.617" stroke="#263238" stroke-width="1.14522" stroke-linecap="round" stroke-linejoin="round"/>
<path d="M716.493 536.294L654.739 466.396C654.739 466.396 626.26 454.174 607.604 441.951C588.872 429.729 566.105 390.616 560.394 381.602C554.759 372.664 542.576 354.713 532.829 348.219C523.082 341.65 505.188 321.33 501.076 313.156C497.04 304.982 504.35 294.363 513.259 293.6C522.245 292.759 559.632 310.711 566.105 320.489C572.653 330.267 591.309 350.664 591.309 350.664" fill="white"/>
<path d="M716.493 536.294L654.739 466.396C654.739 466.396 626.26 454.174 607.604 441.951C588.872 429.729 566.105 390.616 560.394 381.602C554.759 372.664 542.576 354.713 532.829 348.219C523.082 341.65 505.188 321.33 501.076 313.156C497.04 304.982 504.35 294.363 513.259 293.6C522.245 292.759 559.632 310.711 566.105 320.489C572.653 330.267 591.309 350.664 591.309 350.664" stroke="#263238" stroke-width="1.14522" stroke-linecap="round" stroke-linejoin="round"/>
<path d="M545.054 321.543C545.054 321.543 535.011 331.769 534.226 336.883" stroke="#263238" stroke-width="1.14522" stroke-linecap="round" stroke-linejoin="round"/>
<path d="M553.175 321.543C553.175 321.543 545.595 333.464 540.542 337.785" stroke="#263238" stroke-width="1.14522" stroke-linecap="round" stroke-linejoin="round"/>
<path d="M538.737 306.452C527.875 313.533 520.373 326.957 520.373 326.957C520.373 326.957 502.556 320.835 501.149 312.795C499.821 304.756 502.556 296.642 513.652 293.913C524.827 291.11 538.737 306.452 538.737 306.452Z" stroke="#263238" stroke-width="1.14522" stroke-linecap="round" stroke-linejoin="round"/>
<path d="M736.73 583.215C733.691 578.152 665.857 499.1 662.818 488.973C659.78 478.921 671.934 455.719 691.152 434.558C701.331 423.449 726.627 405.235 740.832 420.048C746.681 426.169 751.695 433.576 757.999 439.622" fill="white"/>
<path d="M736.73 583.215C733.691 578.152 665.857 499.1 662.818 488.973C659.78 478.921 671.934 455.719 691.152 434.558C701.331 423.449 726.627 405.235 740.832 420.048C746.681 426.169 751.695 433.576 757.999 439.622" stroke="#263238" stroke-width="1.14522" stroke-linecap="round" stroke-linejoin="round"/>
<path d="M195.538 546.22L188.639 395.589L234.658 367.669C234.658 367.669 263.012 364.854 264.377 364.854C265.742 364.854 318.281 389.579 322.451 390.949C326.62 392.318 328.061 416.13 332.685 434.312C337.31 452.494 344.74 502.857 344.74 502.857C344.74 502.857 316.385 515.942 315.021 513.127C313.656 510.312 311.761 502.857 311.761 502.857L309.031 546.22H195.538Z" fill="white" stroke="#263238" stroke-width="1.31992" stroke-linecap="round" stroke-linejoin="round"/>
<path d="M272.553 429.821C272.403 431.718 272.102 433.522 271.651 435.235" stroke="#263238" stroke-width="1.14522" stroke-linecap="round" stroke-linejoin="round"/>
<path d="M269.847 389.217C269.847 389.217 271.509 406.402 271.652 422.603" stroke="#263238" stroke-width="1.14522" stroke-linecap="round" stroke-linejoin="round"/>
<path d="M306.843 425.31V417.189" stroke="#263238" stroke-width="1.14522" stroke-linecap="round" stroke-linejoin="round"/>
<path d="M304.136 500.202L305.039 431.626" stroke="#263238" stroke-width="1.14522" stroke-linecap="round" stroke-linejoin="round"/>
<path d="M325.884 546.22L314.963 524.248L346.816 518.248L350.153 546.22H325.884Z" fill="white" stroke="#263238" stroke-width="1.31992" stroke-linecap="round" stroke-linejoin="round"/>
<path d="M310.757 510.354C310.757 510.354 317.751 507.335 326.679 501.75C335.607 496.24 344.015 494.73 346.47 499.259C349 503.788 354.431 516.392 352.422 518.355C350.488 520.393 321.173 529.978 318.197 529.978C315.221 529.978 309.789 519.789 309.789 519.789C309.789 519.789 308.822 515.336 310.757 510.354Z" fill="white" stroke="#263238" stroke-width="1.14522" stroke-linecap="round" stroke-linejoin="round"/>
<path d="M271.764 358.249C279.152 365.768 286.088 390.243 286.088 390.243L266.26 376.586L261.586 379.425L249.146 399.142L229.242 370.985C229.242 370.985 230.675 364.387 232.936 360.628C234.67 357.789 239.873 353.569 239.873 353.569C244.019 351.651 264.375 350.731 271.764 358.249Z" fill="white" stroke="#263238" stroke-linecap="round" stroke-linejoin="round"/>
<path d="M265.112 256.576C265.112 256.576 275.76 264.9 276.832 269.625C277.904 274.274 274.917 284.548 274.917 284.548L260.823 257.626L265.112 256.576Z" fill="#828282" stroke="#263238" stroke-width="1.31992" stroke-linecap="round" stroke-linejoin="round"/>
<path d="M260.284 252.065C260.284 252.065 279.177 293.328 281.962 307.259C284.747 321.189 283.392 334.212 278.274 343.903C273.231 353.67 267.66 352.307 267.66 352.307V383.803C267.66 383.803 243.197 364.345 241.842 361.998C240.487 359.727 238.153 355.563 238.153 355.563C238.153 355.563 235.368 335.12 226.637 329.063C226.637 329.063 215.12 330.956 212.335 320.281C209.55 309.606 211.883 305.896 219.26 304.987C219.26 304.987 213.238 289.618 211.883 279.472C210.453 269.251 227.54 265.996 237.702 259.484C247.864 252.973 260.284 252.065 260.284 252.065Z" fill="white" stroke="#263238" stroke-linecap="round" stroke-linejoin="round"/>
<path d="M267.507 365.757L259.019 350.417L268.042 353.842L267.507 365.757Z" fill="#263238" stroke="#263238" stroke-width="1.14522" stroke-linecap="round" stroke-linejoin="round"/>
<path d="M218.444 307.631C218.444 307.631 212.442 305.376 205.907 297.108C199.373 288.765 197.549 282.3 206.363 268.545C215.253 254.714 246.862 241.786 255.752 243.139C264.566 244.567 270.188 255.616 259.475 262.532C248.761 269.447 235.692 272.228 235.692 272.228C235.692 272.228 240.859 268.019 235.236 267.117C229.69 266.215 218.444 271.702 219.432 276.362C220.344 280.947 227.334 279.594 226.878 286.961C226.423 294.327 219.888 302.144 222.168 304.925C224.523 307.631 230.146 309.961 225.435 311.389C220.8 312.742 218.444 307.631 218.444 307.631Z" fill="#828282" stroke="#263238" stroke-linecap="round" stroke-linejoin="round"/>
<path d="M252.702 316.129L245.484 322.445" stroke="#263238" stroke-width="1.31992" stroke-linecap="round" stroke-linejoin="round"/>
<path d="M249.093 319.738C249.093 319.738 257.98 326.997 273.456 320.926" stroke="#263238" stroke-width="1.31992" stroke-linecap="round" stroke-linejoin="round"/>
<path d="M264.433 324.771C264.433 324.771 268.038 333.01 260.828 331.212C253.619 329.34 250.897 323.348 250.897 323.348C254.575 324.771 264.433 324.771 264.433 324.771Z" fill="#263238" stroke="#263238" stroke-width="1.14522" stroke-linecap="round" stroke-linejoin="round"/>
<path d="M244.027 295.253C244.959 297.474 244.679 299.542 243.468 299.848C242.258 300.155 240.581 298.623 239.65 296.402C238.811 294.257 239.091 292.189 240.302 291.806C241.419 291.499 243.189 293.031 244.027 295.253Z" fill="#263238"/>
<path d="M268.43 288.936C269.269 291.157 269.083 293.226 267.87 293.532C266.658 293.838 264.979 292.306 264.046 290.162C263.207 287.94 263.393 285.872 264.606 285.489C265.818 285.183 267.497 286.715 268.43 288.936Z" fill="#263238"/>
<path d="M255.155 297.683L236.771 304.241C235.153 304.794 233.461 303.846 232.947 302.187L230.299 293.496C229.784 291.837 230.593 289.941 232.211 289.388L250.596 282.909C252.14 282.356 253.832 283.225 254.346 284.963L257.067 293.575C257.582 295.313 256.7 297.13 255.155 297.683Z" stroke="#263238" stroke-width="1.14522" stroke-linecap="round" stroke-linejoin="round"/>
<path d="M254.507 284.548L261.725 282.743" stroke="#263238" stroke-width="1.31992" stroke-linecap="round" stroke-linejoin="round"/>
<path d="M229.243 294.473L217.513 306.204" stroke="#263238" stroke-width="1.31992" stroke-linecap="round" stroke-linejoin="round"/>
<path d="M284.284 275.525L275.26 282.743" stroke="#263238" stroke-width="1.31992" stroke-linecap="round" stroke-linejoin="round"/>
<path d="M286.729 288.938L268.344 295.224C266.8 295.754 265.108 294.845 264.52 293.255L261.873 284.923C261.358 283.333 262.24 281.591 263.785 281.06L282.169 274.774C283.787 274.244 285.479 275.153 285.993 276.743L288.641 285.075C289.156 286.665 288.347 288.407 286.729 288.938Z" stroke="#263238" stroke-width="1.14522" stroke-linecap="round" stroke-linejoin="round"/>
<path d="M232.852 287.255C232.852 287.255 238.658 280.078 247.289 281.025L232.852 287.255Z" fill="#4C5559"/>
<path d="M232.852 287.255C232.852 287.255 238.658 280.078 247.289 281.025" stroke="#263238" stroke-width="3.43566" stroke-linecap="round" stroke-linejoin="round"/>
<path d="M258.116 276.427C258.116 276.427 261.906 273.63 268.944 275L258.116 276.427Z" fill="#4C5559"/>
<path d="M258.116 276.427C258.116 276.427 261.906 273.63 268.944 275" stroke="#263238" stroke-width="3.43566" stroke-linecap="round" stroke-linejoin="round"/>
<path d="M261.725 286.353C261.725 286.353 274.698 314.277 273.359 316.16C272.089 318.121 263.418 316.16 263.418 316.16" fill="white"/>
<path d="M261.725 286.353C261.725 286.353 274.698 314.277 273.359 316.16C272.089 318.121 263.418 316.16 263.418 316.16" stroke="#263238" stroke-width="1.14522" stroke-linecap="round" stroke-linejoin="round"/>
<path d="M213.903 436.943C213.903 436.943 199.914 490.921 196.644 491.84C193.375 492.758 164.027 490.921 161.746 488.547C159.389 486.174 181.286 405.935 183.643 398.891C185.924 391.924 193.907 391.924 193.907 391.924" fill="white"/>
<path d="M213.903 436.943C213.903 436.943 199.914 490.921 196.644 491.84C193.375 492.758 164.027 490.921 161.746 488.547C159.389 486.174 181.286 405.935 183.643 398.891C185.924 391.924 193.907 391.924 193.907 391.924" stroke="#263238" stroke-width="1.14522" stroke-linecap="round" stroke-linejoin="round"/>
<path d="M191.341 511.969C183.536 520 177.982 518.546 171.528 517.17C165.148 515.717 157.268 508.222 159.144 496.521C161.02 484.82 162.371 486.197 170.177 480.155C177.982 474.037 190.891 473.578 198.697 477.325C206.502 481.073 204.701 490.403 204.701 490.403C204.701 490.403 199.147 504.016 191.341 511.969Z" fill="white" stroke="#263238" stroke-width="1.31992" stroke-linecap="round" stroke-linejoin="round"/>
<path d="M293.429 445.303C317.116 443.93 321.279 440.649 321.279 440.649C321.279 440.649 319.387 451.406 316.132 470.556C312.954 489.706 306.446 528.997 306.446 528.997C306.446 528.997 288.813 539.296 269.817 541.204C250.746 543.035 239.168 539.296 239.168 539.296C251.201 512.67 254.455 441.107 254.455 441.107C254.455 441.107 269.817 446.753 293.429 445.303Z" fill="white" stroke="#263238" stroke-width="1.14522" stroke-linecap="round" stroke-linejoin="round"/>
<path d="M231.415 500.765C231.415 500.765 256.276 483.96 260.942 483.96C265.609 483.96 280.526 488.675 280.602 490.956C280.832 496.583 262.549 491.716 262.549 491.716L254.44 493.389L280.602 497.951C286.263 501.677 277.313 505.859 277.313 505.859C282.515 507.304 279.072 510.878 276.395 511.486C273.794 512.018 254.823 515.668 256.276 516.124C257.653 516.581 276.854 515.212 274.559 518.938C272.188 522.664 254.823 524.565 248.244 524.565C241.742 524.565 230.497 522.207 225.754 522.207C221.088 522.207 181.692 518.482 175.572 516.581C169.529 514.756 169.07 509.129 173.736 498.408C178.402 487.686 189.647 483.96 193.396 483.96C197.144 483.96 224.377 500.765 224.377 500.765H231.415Z" fill="white" stroke="#263238" stroke-width="1.14522" stroke-linecap="round" stroke-linejoin="round"/>
<path d="M277.065 504.713L252.703 502.909" stroke="#263238" stroke-width="1.31992" stroke-linecap="round" stroke-linejoin="round"/>
<path d="M384.441 253.869C375.797 264.513 361.263 271.483 344.739 271.483C344.382 271.483 344.025 271.483 343.668 271.483L309.474 300.79L327.91 268.935C318.501 266.012 310.545 260.69 305.037 253.869H384.441Z" fill="#263238" stroke="#263238" stroke-width="1.14522" stroke-linecap="round" stroke-linejoin="round"/>
<path d="M391.659 228.539C391.659 250.95 370.419 269.078 344.249 269.078C343.946 269.078 343.617 269.078 343.263 269.078L309.356 298.985L327.637 266.477C309.659 260.741 296.915 245.902 296.915 228.539C296.915 206.204 318.079 188 344.249 188C370.419 188 391.659 206.204 391.659 228.539Z" fill="#FFF6E0"/>
<path d="M323.986 235.823C321.005 235.823 318.572 233.408 318.572 230.448C318.572 227.41 321.005 224.995 323.986 224.995C326.968 224.995 329.4 227.41 329.4 230.448C329.4 233.408 326.968 235.823 323.986 235.823Z" fill="#263238"/>
<path d="M346.542 234.92C343.561 234.92 341.128 232.505 341.128 229.545C341.128 226.507 343.561 224.093 346.542 224.093C349.524 224.093 351.956 226.507 351.956 229.545C351.956 232.505 349.524 234.92 346.542 234.92Z" fill="#263238"/>
<path d="M369.518 234.92C366.804 234.92 364.591 232.505 364.591 229.545C364.591 226.507 366.804 224.093 369.518 224.093C372.302 224.093 374.516 226.507 374.516 229.545C374.516 232.505 372.302 234.92 369.518 234.92Z" fill="#263238"/>
<g opacity="0.2">
<path d="M89.895 224.822C84.7057 224.822 80.46 220.576 80.46 215.309C80.46 210.119 84.7057 205.874 89.895 205.874C95.1629 205.874 99.4086 210.119 99.4086 215.309C99.4086 220.576 95.1629 224.822 89.895 224.822Z" fill="#4F52B2"/>
<path d="M113.845 207.549L106.999 213.994C105.747 205.897 98.6504 199.699 90.1346 199.699C82.2032 199.699 75.5241 205.153 73.6874 212.424L66.9248 206.475C70.8488 197.634 79.782 191.437 90.1346 191.437C100.905 191.437 110.088 198.13 113.845 207.549Z" fill="#4F52B2"/>
<path d="M56.999 195.969C63.8399 184.668 76.6041 177 91.1203 177C105.887 177 118.734 184.83 125.575 196.453L119.318 202.265C114.229 192.175 103.551 185.072 91.1203 185.072C79.0235 185.072 68.5953 191.772 63.3394 201.538L56.999 195.969Z" fill="#4F52B2"/>
</g>
</svg>
