<svg width="491" height="405" viewBox="0 0 491 405" fill="none" xmlns="http://www.w3.org/2000/svg">
<g style="mix-blend-mode:multiply" opacity="0.2">
<path d="M254.432 404.814C249.968 404.814 244.635 403.567 237.534 400.743C218.688 393.084 199.362 370.082 178.958 345.758C167.722 332.4 156.126 318.583 144.471 307.261C127.453 286.804 98.599 272.708 70.6742 259.044C50.2699 249.07 31.0042 239.63 16.083 227.977L16.0531 227.951C4.8472 218.893 -0.396182 210.14 0.0232888 201.209C0.832269 183.78 23.2141 168.259 49.1613 150.295L51.6482 148.565C70.8839 135.182 95.0335 117.269 129.999 90.527L132.966 88.3388C164.246 65.2355 203.197 36.4835 253.653 19.0542C354.716 -21.3257 443.165 9.9452 471.089 43.8369C500.213 83.4535 497.696 125.513 461.501 204.67C423.599 287.185 339.645 350.974 305.308 374.561C291.256 382.347 282.447 389.242 276.035 394.28C267.886 400.641 262.582 404.814 254.432 404.814ZM18.7197 225.534C33.3113 236.933 52.3973 246.271 72.5918 256.169C100.846 269.985 130.089 284.285 147.467 305.2C159.153 316.522 170.808 330.415 182.074 343.824C202.208 367.793 221.234 390.438 239.152 397.74C256.859 404.738 261.024 401.481 273.399 391.812C279.93 386.698 288.889 379.675 303.031 371.838C336.948 348.506 420.303 285.201 457.876 203.423C493.561 125.411 496.168 84.1151 467.853 45.618C440.738 12.7441 354.357 -17.5854 255.212 22.0312C205.265 39.3078 166.583 67.8562 135.512 90.7814L132.576 92.9697C97.5803 119.737 73.4008 137.675 54.1051 151.084L51.6182 152.814C26.39 170.269 4.63747 185.358 3.88842 201.286C3.52887 209.25 8.38274 217.163 18.7197 225.534Z" fill="#CCCCCC" fill-opacity="0.5"/>
<path d="M249.188 381.473C243.008 381.473 236.468 379.794 227.467 376.817L227.287 376.766C210.006 369.415 196.325 351.684 181.865 332.936C171.994 320.114 161.764 306.886 149.463 295.363C132.122 276.665 110.311 262.114 89.2499 248.047C75.0892 238.609 61.7085 229.68 50.0379 219.81L49.8279 219.606C26.0667 192.158 43.1075 180.049 74.0091 158.044C77.3693 155.653 80.9095 153.135 84.5997 150.438C91.8601 145.885 99.6005 140.797 107.821 135.404C144.333 111.415 194.375 78.5739 264.969 51.9142C351.253 23.9061 417.917 44.1554 445.758 76.6406C473.66 110.5 462.829 151.252 431.478 219.326C397.126 288.163 334.423 332.732 300.731 356.67L296.981 359.341C271.929 375.113 261.189 381.473 249.188 381.473ZM228.967 373.765C253.538 381.854 257.709 379.921 294.581 356.772L298.241 354.177C331.662 330.417 393.886 286.179 427.877 218.131C458.719 151.201 469.49 111.212 442.608 78.5994C415.667 47.1571 350.743 27.6456 266.469 54.9922C196.385 81.4485 146.583 114.163 110.191 138.024C101.971 143.417 94.2302 148.505 87.0298 153.033C83.4296 155.653 79.8894 158.172 76.5293 160.588C45.5977 182.618 31.4369 192.692 52.8881 217.571C64.3786 227.263 77.6393 236.09 91.6501 245.452C112.921 259.621 134.882 274.299 152.433 293.226C164.854 304.851 175.174 318.207 185.135 331.129C199.266 349.445 212.646 366.769 228.967 373.765Z" fill="#CCCCCC" fill-opacity="0.5"/>
<path d="M244.261 362.509C236.372 362.509 229.053 360.117 219.935 356.047C204.697 348.261 192.459 332.157 179.501 315.136C171.822 305.01 163.844 294.553 154.725 284.962C141.977 269.9 126.86 257.027 112.282 244.56C100.314 234.332 89.0057 224.69 80.0971 214.742L79.9771 214.589C61.92 188.791 80.577 176.757 114.472 154.903L114.862 154.648L121.131 151.01C156.825 130.376 205.717 102.11 272.696 81.6297C351.764 60.233 402.096 82.0367 421.203 107.173C441.629 133.989 436.62 169.99 403.925 231.432C380.109 274.251 341.235 312.745 288.414 345.845C267.987 357.599 255.539 362.509 244.261 362.509ZM83.2466 212.783C92.0052 222.527 103.193 232.093 115.042 242.194C129.739 254.737 144.947 267.738 157.815 282.926C167.023 292.569 175.032 303.127 182.771 313.33C195.459 330.045 207.457 345.819 221.854 353.172C242.611 362.484 252.96 362.305 286.164 343.148C338.416 310.378 376.87 272.317 400.386 230.033C432.451 169.761 437.55 134.676 417.933 108.929C398.106 82.8509 345.915 65.245 273.926 84.7081C207.487 105.036 158.835 133.15 123.32 153.707L116.811 157.498C82.6767 179.505 67.0492 189.58 83.2466 212.783Z" fill="#CCCCCC" fill-opacity="0.5"/>
<path d="M240.528 345.003C231.724 345.003 223.459 342.441 214.235 337.419L214.175 337.393C200.28 329.327 189.079 314.158 177.22 298.126C171.74 290.694 166.05 283.033 159.881 275.728C151.646 265.023 142.512 255.131 133.677 245.593C122.836 233.874 112.565 222.789 105.856 212.033C94.1472 189.33 111.277 177.459 140.865 160.54C171.351 144.559 218.457 121.78 276.195 108.336C331.328 98.7219 372.625 106.433 392.6 130.024C414.162 155.441 408.801 195.748 377.896 240.621C345.523 293.434 294.343 324.406 279.43 332.625C263.558 340.945 251.609 345.003 240.528 345.003ZM216.331 334.654C233.581 344.014 247.117 345.688 277.333 329.834C292.007 321.742 342.528 291.176 374.482 239.023C404.608 195.266 410.059 156.253 389.425 131.952C370.379 109.477 330.489 102.248 277.064 111.557C219.925 124.875 173.148 147.476 142.931 163.33C112.475 180.731 99.2082 191.081 109.3 210.638C115.799 221.013 125.951 231.971 136.702 243.589C145.596 253.203 154.79 263.121 163.055 273.902C169.254 281.207 174.944 288.944 180.455 296.402C192.134 312.103 203.125 326.968 216.331 334.654Z" fill="#CCCCCC" fill-opacity="0.5"/>
<path d="M238.846 329.686C229.485 329.686 220.874 326.959 211.933 321.505L211.693 321.326C177.459 291.889 136.983 224.476 129.212 211.273L129.092 210.968C123.032 192.056 136.713 180.944 164.047 167.054C189.79 154.769 230.445 138.559 278.091 130.989C321.957 125.127 354.811 133.028 370.653 153.24C388.235 175.694 382.864 209.821 355.951 246.879C332.248 282.611 297.324 308.328 272.541 320.46C259.579 326.628 248.778 329.686 238.846 329.686ZM214.333 318.905C231.465 329.278 246.737 328.921 270.59 317.58C294.923 305.677 329.218 280.394 352.591 245.197C378.334 209.744 383.855 176.076 367.412 155.075C352.471 135.985 320.967 128.568 278.751 134.252C231.675 141.745 191.47 157.802 165.997 169.934C139.834 183.212 127.502 193.076 132.783 209.974C155.106 247.898 188.2 296.374 214.333 318.905Z" fill="#CCCCCC" fill-opacity="0.5"/>
<path d="M237.058 315.099C227.025 315.099 218.344 312.27 211.765 306.79C185.45 285.152 158.054 239.506 149.973 212.057C148.651 205.711 150.544 199.517 155.53 193.604C170.911 175.382 216.481 159.656 277.462 151.552C311.858 148.723 337.512 156.547 349.768 173.598C363.647 192.916 358.66 221.028 336.1 250.694C306.751 288.236 271.634 312.193 242.165 314.844C240.423 315.022 238.711 315.099 237.058 315.099ZM290.86 154.279C286.714 154.279 282.419 154.457 277.973 154.839C218.133 162.791 173.494 178.007 158.744 195.541C154.359 200.741 152.706 206.067 153.818 211.394C161.748 238.282 188.664 283.189 214.529 304.445C221.348 310.103 230.78 312.575 241.775 311.581C270.102 309.033 304.168 285.611 332.856 248.91C354.244 220.773 359.351 193.273 346.464 175.331C336.581 161.593 317.085 154.279 290.86 154.279Z" fill="#CCCCCC" fill-opacity="0.5"/>
<path d="M238.118 300.51C228.833 300.51 220.656 297.966 214.276 293.03C191.513 275.499 170.457 238.428 169.259 213.722V213.671C169.109 190.899 213.677 172.198 275.198 169.246C301.406 168.712 320.844 176.141 329.98 190.237C340.463 206.394 336.15 228.81 318.149 251.76C295.895 279.646 268.039 297.762 243.599 300.23C241.712 300.408 239.885 300.51 238.118 300.51ZM173.153 213.62C174.351 237.588 194.778 273.565 216.912 290.587C223.651 295.803 232.697 297.991 243.12 296.948C266.452 294.582 293.289 277 314.914 249.903C332.076 228.021 336.329 206.827 326.565 191.789C318.149 178.838 299.998 171.969 275.348 172.503C217.002 175.327 173.033 193.011 173.153 213.62Z" fill="#CCCCCC" fill-opacity="0.5"/>
<path d="M239.748 287.381C231.607 287.381 224.336 285.271 218.478 281.127C197.899 266.663 183.269 237.377 186.483 217.142C189.968 197.72 227.431 183.789 271.653 185.391C291.06 186.331 305.36 193.094 311.97 204.406C319.54 217.371 316.085 234.581 302.446 251.588C286.344 271.493 265.104 284.737 245.636 287.025C243.624 287.279 241.671 287.381 239.748 287.381ZM264.653 188.569C225.418 188.569 193.363 200.847 190.359 217.625C187.354 236.513 201.655 265.01 220.972 278.611C227.341 283.085 235.662 284.864 245.096 283.771C263.511 281.61 283.73 268.874 299.232 249.732C312.06 233.742 315.424 217.752 308.485 205.855C302.536 195.661 289.378 189.56 271.473 188.67C269.189 188.619 266.906 188.569 264.653 188.569Z" fill="#CCCCCC" fill-opacity="0.5"/>
<path d="M240.916 274.981C234.416 274.981 228.511 273.364 223.561 270.207C206.415 259.247 196.784 237.199 202.092 221.054C207.489 205.089 235.519 195.489 265.845 199.185C279.293 200.905 289.164 206.655 293.636 215.382C298.706 225.264 296.201 237.789 286.778 249.75C275.954 263.405 261.432 272.44 246.94 274.519C244.912 274.827 242.884 274.981 240.916 274.981ZM205.819 221.978C200.988 236.634 210.173 257.502 225.858 267.538C231.434 271.106 238.501 272.389 246.314 271.26C259.583 269.335 273.538 260.608 283.617 247.902C292.265 236.917 294.621 225.572 290.118 216.742C286.212 209.093 277.385 204.037 265.308 202.496C237.308 199.057 210.62 207.81 205.819 221.978Z" fill="#CCCCCC" fill-opacity="0.5"/>
<path d="M242.5 262.582C237.994 262.582 233.639 261.578 229.82 259.413C217.05 252.276 211.083 237.124 216.483 225.658C221.913 214.243 241.276 208.085 259.685 211.95C268.188 213.728 274.393 218.083 277.168 224.164C280.211 230.863 278.66 239.005 272.931 246.478C265.025 256.733 253.3 262.582 242.5 262.582ZM231.908 256.63C242.917 262.789 259.864 257.429 269.709 244.648C274.722 238.104 276.154 231.069 273.558 225.4C271.261 220.35 266.01 216.717 258.76 215.197C242.142 211.718 224.778 216.975 220.064 226.921C215.32 236.996 220.63 250.317 231.908 256.63Z" fill="#CCCCCC" fill-opacity="0.5"/>
<path d="M243.903 249.452C241.422 249.452 239.002 248.97 236.793 247.955C229.23 244.479 226.174 236.486 230.016 230.116C233.798 223.823 244.175 220.803 253.099 223.392C257.395 224.635 260.542 227.122 261.903 230.421C263.355 233.897 262.659 237.957 259.967 241.535C256.125 246.585 249.923 249.452 243.903 249.452ZM246.323 225.752C240.847 225.752 235.674 227.959 233.465 231.613C230.591 236.409 232.89 242.449 238.639 245.062C244.356 247.701 252.434 245.316 256.609 239.759C258.696 236.993 259.241 234.075 258.152 231.487C257.184 229.152 254.915 227.376 251.768 226.462C249.983 225.98 248.138 225.752 246.323 225.752Z" fill="#CCCCCC" fill-opacity="0.5"/>
</g>
</svg>
