<svg width="186" height="26" viewBox="0 0 186 26" fill="none" xmlns="http://www.w3.org/2000/svg">
<rect y="4" width="3.89242" height="18.35" rx="1.94621" fill="#5B5B5B"/>
<rect x="6.11621" y="6.7804" width="3.89242" height="12.2333" rx="1.94621" fill="#5B5B5B"/>
<rect x="12.2334" y="11.2289" width="3.89242" height="9.45303" rx="1.94621" fill="#5B5B5B"/>
<rect x="18.3501" y="6.7804" width="3.89242" height="9.45303" rx="1.94621" fill="#5B5B5B"/>
<rect x="24.4663" y="8.44849" width="3.89242" height="13.9015" rx="1.94621" fill="#5B5B5B"/>
<path d="M50.9989 19H49.0789C48.8389 19 48.7589 18.86 48.8389 18.58L51.9989 6.56C52.0922 6.28 52.2922 6.14 52.5989 6.14H55.2589C55.5922 6.14 55.7922 6.28 55.8589 6.56L59.0189 18.58C59.0989 18.86 59.0189 19 58.7789 19H56.8589C56.7122 19 56.6122 18.9733 56.5589 18.92C56.5056 18.8533 56.4656 18.74 56.4389 18.58L55.8789 16.38H51.9789L51.4189 18.58C51.3922 18.74 51.3456 18.8533 51.2789 18.92C51.2256 18.9733 51.1322 19 50.9989 19ZM53.8989 8.56L52.4589 14.34H55.4189L53.9789 8.56H53.8989ZM65.2717 19H64.6117C63.585 19 62.805 18.72 62.2717 18.16C61.7517 17.6 61.4917 16.7933 61.4917 15.74V9.22C61.4917 8.94 61.6317 8.8 61.9117 8.8H63.6117C63.8917 8.8 64.0317 8.94 64.0317 9.22V15.62C64.0317 16.0467 64.1184 16.3533 64.2917 16.54C64.4784 16.7133 64.7784 16.8 65.1917 16.8H65.9317C66.8517 16.8 67.3117 16.2933 67.3117 15.28V9.22C67.3117 8.94 67.4517 8.8 67.7317 8.8H69.4117C69.705 8.8 69.8517 8.94 69.8517 9.22V18.58C69.8517 18.86 69.705 19 69.4117 19H67.7317C67.4517 19 67.3117 18.86 67.3117 18.58V17.92H67.2317C67.085 18.28 66.825 18.5533 66.4517 18.74C66.0784 18.9133 65.685 19 65.2717 19ZM76.8004 19H75.9804C74.9538 19 74.1738 18.72 73.6404 18.16C73.1204 17.6 72.8604 16.7933 72.8604 15.74V12.06C72.8604 11.0067 73.1204 10.2 73.6404 9.64C74.1738 9.08 74.9538 8.8 75.9804 8.8H76.8004C77.2138 8.8 77.6071 8.89333 77.9804 9.08C78.3538 9.25333 78.6138 9.52 78.7604 9.88H78.8404V5.36C78.8404 5.08 78.9804 4.94 79.2604 4.94H80.9604C81.2404 4.94 81.3804 5.08 81.3804 5.36V18.58C81.3804 18.86 81.2404 19 80.9604 19H79.2604C78.9804 19 78.8404 18.86 78.8404 18.58V17.92H78.7604C78.6138 18.28 78.3538 18.5533 77.9804 18.74C77.6071 18.9133 77.2138 19 76.8004 19ZM78.8404 15.28V12.52C78.8404 11.5067 78.3804 11 77.4604 11H76.5604C76.1338 11 75.8338 11.0933 75.6604 11.28C75.4871 11.4533 75.4004 11.7533 75.4004 12.18V15.62C75.4004 16.0467 75.4871 16.3533 75.6604 16.54C75.8338 16.7133 76.1338 16.8 76.5604 16.8H77.4604C78.3804 16.8 78.8404 16.2933 78.8404 15.28ZM84.6878 7.08V5.34C84.6878 5.07333 84.8211 4.94 85.0878 4.94H86.8278C87.0945 4.94 87.2278 5.06667 87.2278 5.32V7.08C87.2278 7.34667 87.0945 7.48 86.8278 7.48H85.0878C84.8211 7.48 84.6878 7.34667 84.6878 7.08ZM84.6878 18.58V9.22C84.6878 8.94 84.8211 8.8 85.0878 8.8H86.8078C87.0878 8.8 87.2278 8.94 87.2278 9.22V18.58C87.2278 18.7533 87.1945 18.8667 87.1278 18.92C87.0745 18.9733 86.9745 19 86.8278 19H85.1078C84.8278 19 84.6878 18.86 84.6878 18.58ZM95.4092 19H93.6292C92.5759 19 91.7625 18.72 91.1892 18.16C90.6159 17.6 90.3292 16.7933 90.3292 15.74V12.06C90.3292 11.0067 90.6159 10.2 91.1892 9.64C91.7625 9.08 92.5759 8.8 93.6292 8.8H95.4092C96.4492 8.8 97.2559 9.08667 97.8292 9.66C98.4159 10.22 98.7092 11.02 98.7092 12.06V15.74C98.7092 16.78 98.4159 17.5867 97.8292 18.16C97.2559 18.72 96.4492 19 95.4092 19ZM94.0092 16.82H95.0292C95.4559 16.82 95.7559 16.7333 95.9292 16.56C96.1159 16.3867 96.2092 16.0867 96.2092 15.66V12.14C96.2092 11.7133 96.1159 11.4133 95.9292 11.24C95.7559 11.0667 95.4559 10.98 95.0292 10.98H94.0092C93.5825 10.98 93.2825 11.0667 93.1092 11.24C92.9359 11.4133 92.8492 11.7133 92.8492 12.14V15.66C92.8492 16.0867 92.9359 16.3867 93.1092 16.56C93.2825 16.7333 93.5825 16.82 94.0092 16.82ZM108.64 19H106.72C106.48 19 106.4 18.86 106.48 18.58L109.64 6.56C109.733 6.28 109.933 6.14 110.24 6.14H112.9C113.233 6.14 113.433 6.28 113.5 6.56L116.66 18.58C116.74 18.86 116.66 19 116.42 19H114.5C114.353 19 114.253 18.9733 114.2 18.92C114.146 18.8533 114.106 18.74 114.08 18.58L113.52 16.38H109.62L109.06 18.58C109.033 18.74 108.986 18.8533 108.92 18.92C108.866 18.9733 108.773 19 108.64 19ZM111.54 8.56L110.1 14.34H113.06L111.62 8.56H111.54ZM121.352 19H119.652C119.372 19 119.232 18.86 119.232 18.58V9.22C119.232 8.94 119.372 8.8 119.652 8.8H121.352C121.632 8.8 121.772 8.94 121.772 9.22V9.88H121.852C122.146 9.16 122.799 8.8 123.812 8.8H124.452C126.546 8.8 127.592 9.88667 127.592 12.06V18.58C127.592 18.86 127.446 19 127.152 19H125.472C125.192 19 125.052 18.86 125.052 18.58V12.18C125.052 11.7533 124.959 11.4533 124.772 11.28C124.599 11.0933 124.299 11 123.872 11H123.152C122.232 11 121.772 11.5067 121.772 12.52V18.58C121.772 18.86 121.632 19 121.352 19ZM134.281 19H133.801C132.748 19 131.934 18.72 131.361 18.16C130.788 17.6 130.501 16.7933 130.501 15.74V12.06C130.501 11.0067 130.788 10.2 131.361 9.64C131.934 9.08 132.748 8.8 133.801 8.8H138.421C138.714 8.8 138.861 8.94 138.861 9.22V18.58C138.861 18.86 138.714 19 138.421 19H136.741C136.461 19 136.321 18.86 136.321 18.58V17.92H136.241C136.094 18.28 135.834 18.5533 135.461 18.74C135.088 18.9133 134.694 19 134.281 19ZM136.321 15.28V11.22C136.321 11.0733 136.241 11 136.081 11H134.201C133.774 11 133.474 11.0933 133.301 11.28C133.128 11.4533 133.041 11.7533 133.041 12.18V15.62C133.041 16.0467 133.128 16.3533 133.301 16.54C133.474 16.7133 133.774 16.8 134.201 16.8H134.941C135.861 16.8 136.321 16.2933 136.321 15.28ZM144.273 19H142.573C142.293 19 142.153 18.86 142.153 18.58V5.36C142.153 5.08 142.293 4.94 142.573 4.94H144.273C144.553 4.94 144.693 5.08 144.693 5.36V18.58C144.693 18.86 144.553 19 144.273 19ZM149.654 22.38H148.374C148.107 22.38 147.974 22.2333 147.974 21.94V20.6C147.974 20.3067 148.107 20.16 148.374 20.16H148.794C149.634 20.16 150.201 20.04 150.494 19.8C150.801 19.5733 151.034 19.1267 151.194 18.46H150.134C149.881 18.46 149.714 18.32 149.634 18.04L147.294 9.22C147.214 8.94 147.314 8.8 147.594 8.8H149.374C149.641 8.8 149.807 8.94 149.874 9.22L151.594 16.6H151.674L153.374 9.22C153.427 8.94 153.594 8.8 153.874 8.8H155.554C155.887 8.8 156.021 8.94667 155.954 9.24L153.514 19C153.221 20.1067 152.767 20.9467 152.154 21.52C151.541 22.0933 150.707 22.38 149.654 22.38ZM157.928 18.58V17.92C157.928 17.4667 158.055 17.08 158.308 16.76L162.548 11.06V10.98H158.528C158.248 10.98 158.108 10.8333 158.108 10.54V9.22C158.108 8.94 158.248 8.8 158.528 8.8H165.048C165.328 8.8 165.468 8.94 165.468 9.22V10.42C165.468 10.8467 165.361 11.1933 165.148 11.46L161.228 16.74V16.82H165.268C165.548 16.82 165.688 16.9667 165.688 17.26V18.58C165.688 18.86 165.548 19 165.268 19H158.348C158.068 19 157.928 18.86 157.928 18.58ZM175.912 19H171.492C170.439 19 169.626 18.72 169.052 18.16C168.479 17.6 168.192 16.7933 168.192 15.74V12.06C168.192 11.0067 168.479 10.2 169.052 9.64C169.626 9.08 170.439 8.8 171.492 8.8H173.072C174.126 8.8 174.939 9.08 175.512 9.64C176.086 10.2 176.372 11.0067 176.372 12.06V14.6C176.372 14.88 176.232 15.02 175.952 15.02H170.932C170.772 15.02 170.692 15.0933 170.692 15.24V15.68C170.692 16.0933 170.779 16.3933 170.952 16.58C171.139 16.7533 171.446 16.84 171.872 16.84H175.912C176.192 16.84 176.332 16.9867 176.332 17.28V18.6C176.332 18.7467 176.299 18.8533 176.232 18.92C176.179 18.9733 176.072 19 175.912 19ZM170.932 13.32H173.652C173.799 13.32 173.872 13.2467 173.872 13.1V12.14C173.872 11.7133 173.786 11.4133 173.612 11.24C173.439 11.0667 173.139 10.98 172.712 10.98H171.872C171.446 10.98 171.146 11.0667 170.972 11.24C170.799 11.4133 170.712 11.7133 170.712 12.14V13.1C170.712 13.2467 170.786 13.32 170.932 13.32ZM181.395 19H179.695C179.415 19 179.275 18.86 179.275 18.58V9.22C179.275 8.94 179.415 8.8 179.695 8.8H181.395C181.675 8.8 181.815 8.94 181.815 9.22V9.9H181.895C182.042 9.54 182.302 9.26667 182.675 9.08C183.049 8.89333 183.442 8.8 183.855 8.8H184.575C184.842 8.8 184.975 8.94 184.975 9.22V10.6C184.975 10.76 184.942 10.8733 184.875 10.94C184.822 10.9933 184.722 11.0133 184.575 11H183.195C182.275 11 181.815 11.52 181.815 12.56V18.58C181.815 18.86 181.675 19 181.395 19Z" fill="#5B5B5B"/>
</svg>
