<svg width="32" height="32" viewBox="0 0 32 32" fill="none" xmlns="http://www.w3.org/2000/svg">
<path d="M30.9688 19.4737C30.4013 19.4737 29.9375 19.0827 29.9375 18.602V13.2784C29.9375 12.7959 30.4013 12.4067 30.9688 12.4067C31.5362 12.4067 32 12.7959 32 13.2784V18.6008C32 19.0833 31.5362 19.4737 30.9688 19.4737Z" fill="#00829B"/>
<path d="M28.4375 9.68644V22.1928C28.4375 22.6909 27.9737 23.0975 27.4062 23.0975C26.8388 23.0975 26.375 22.6928 26.375 22.1928V9.68644C26.375 9.18832 26.8388 8.78174 27.4062 8.78174C27.9737 8.78174 28.4375 9.18646 28.4375 9.68644Z" fill="#00829B"/>
<path d="M24.75 5.12941V26.75C24.75 27.0225 24.6414 27.2838 24.448 27.4765C24.2546 27.6691 23.9923 27.7774 23.7188 27.7774C23.4452 27.7774 23.1829 27.6691 22.9895 27.4765C22.7961 27.2838 22.6875 27.0225 22.6875 26.75V5.12941C22.6875 4.85694 22.7961 4.59562 22.9895 4.40296C23.1829 4.21029 23.4452 4.10205 23.7188 4.10205C23.9923 4.10205 24.2546 4.21029 24.448 4.40296C24.6414 4.59562 24.75 4.85694 24.75 5.12941Z" fill="#00829B"/>
<path d="M20.9375 8.85969V23.0198C20.9375 23.5852 20.505 24.0441 19.9375 24.0441C19.37 24.0441 18.9375 23.5858 18.9375 23.0198V8.85969C18.9375 8.29434 19.37 7.83545 19.9375 7.83545C20.505 7.83545 20.9375 8.29434 20.9375 8.85969Z" fill="#00829B"/>
<path d="M17.1875 13.6073V18.2721C17.1875 18.7185 16.7237 19.0815 16.1562 19.0815C15.5888 19.0815 15.125 18.7198 15.125 18.2721V13.6073C15.125 13.1609 15.5888 12.7979 16.1562 12.7979C16.7237 12.7979 17.1875 13.1609 17.1875 13.6073Z" fill="#00829B"/>
<path d="M13.3125 9.60536V22.2736C13.3125 22.7798 12.8487 23.1895 12.2812 23.1895C11.7138 23.1895 11.25 22.7792 11.25 22.2736V9.60536C11.25 9.09915 11.7138 8.68945 12.2812 8.68945C12.8487 8.68945 13.3125 9.09915 13.3125 9.60536Z" fill="#00829B"/>
<path d="M9.5625 5.12923V26.7498C9.5625 27.3152 9.13 27.7741 8.5625 27.7741C7.995 27.7741 7.5625 27.3158 7.5625 26.7498V5.12923C7.5625 4.56387 7.995 4.10498 8.5625 4.10498C9.13 4.10498 9.5625 4.56387 9.5625 5.12923Z" fill="#00829B"/>
<path d="M5.8125 8.85939V23.0195C5.8125 23.292 5.70385 23.5533 5.51045 23.746C5.31706 23.9386 5.05475 24.0469 4.78125 24.0469C4.50775 24.0469 4.24544 23.9386 4.05205 23.746C3.85865 23.5533 3.75 23.292 3.75 23.0195V8.85939C3.75 8.58692 3.85865 8.3256 4.05205 8.13294C4.24544 7.94027 4.50775 7.83203 4.78125 7.83203C5.05475 7.83203 5.31706 7.94027 5.51045 8.13294C5.70385 8.3256 5.8125 8.58692 5.8125 8.85939Z" fill="#00829B"/>
<path d="M1.03125 12.3652C1.59875 12.3652 2.0625 12.7768 2.0625 13.2849V18.5941C2.0625 19.1022 1.59875 19.5138 1.03125 19.5138C0.46375 19.5138 0 19.1022 0 18.5941V13.2849C0 12.7774 0.46375 12.3652 1.03125 12.3652Z" fill="#00829B"/>
</svg>
