<svg width="62" height="43" viewBox="0 0 62 43" fill="none" xmlns="http://www.w3.org/2000/svg">
<path fill-rule="evenodd" clip-rule="evenodd" d="M44.3997 12.72C44.3997 5.71268 38.7176 0 31.6809 0C25.9978 0 21.199 3.71017 19.5505 8.83305C18.5492 11.9837 19.5212 10.6593 15.8404 10.6593C7.0962 10.6593 0 17.7546 0 26.4996C0 35.2446 7.09584 42.34 15.8404 42.34C24.2913 42.34 26.352 39.1015 26.352 30.7684H21.0233L30.9158 19.963L40.8089 30.7684H35.4797C35.4797 40.8969 40.7799 42.34 47.6693 42.34C55.4713 42.34 61.8024 36.0095 61.8024 28.1779C61.8024 20.3754 55.4715 14.046 47.6693 14.046C44.4005 14.046 44.4005 15.4295 44.4005 12.7212L44.3997 12.72ZM23.9375 33.095H21.0234C18.9622 33.095 17.9017 30.6808 19.2852 29.1786L29.1778 18.3732C30.0911 17.3719 31.7102 17.3719 32.623 18.3732L42.5161 29.1786C43.8996 30.6803 42.8401 33.095 40.8081 33.095H37.9224C38.5118 38.6886 41.4268 39.985 47.6684 39.985C54.1747 39.985 59.4751 34.7141 59.4751 28.1777C59.4751 21.6714 54.1749 16.4008 47.6684 16.4008C46.1074 16.4008 44.6653 17.1954 43.3107 16.3128C42.0157 15.4586 42.0743 14.0746 42.0743 12.7204C42.0743 7.00859 37.422 2.35577 31.6809 2.35577C27.1761 2.35577 23.1718 5.27126 21.7878 9.57027C21.4052 10.8067 21.199 12.2781 19.9039 12.9559C18.6959 13.6035 17.2249 12.9853 15.84 12.9853C8.39084 12.9853 2.35474 19.0509 2.35474 26.4996C2.35474 33.9491 8.3906 39.9848 15.84 39.9848C17.8133 39.9848 20.8755 39.8378 22.3474 38.3067C23.4367 37.1583 23.8201 35.0386 23.9375 33.095Z" fill="" fill-opacity="0.37"/>
</svg>
