<svg width="34" height="30" viewBox="0 0 34 30" fill="none" xmlns="http://www.w3.org/2000/svg">
<path d="M29.5548 15C29.5548 23.2843 22.9387 30 14.7774 30C6.61606 30 0 23.2843 0 15C0 6.71573 6.61606 0 14.7774 0C22.9387 0 29.5548 6.71573 29.5548 15Z" fill="url(#paint0_linear_0_38)"/>
<path d="M29.5548 15C29.5548 23.2843 22.9387 30 14.7774 30H34C30.4243 26.2313 29.5569 23.1053 29.5548 15Z" fill="url(#paint1_linear_0_38)"/>
<path d="M14.5859 10.1406L11.1875 20H9.13281L13.4141 8.625H14.7266L14.5859 10.1406ZM17.4297 20L14.0234 10.1406L13.875 8.625H15.1953L19.4922 20H17.4297ZM17.2656 15.7812V17.3359H11.0781V15.7812H17.2656Z" fill="white"/>
<defs>
<linearGradient id="paint0_linear_0_38" x1="0" y1="0" x2="34.44" y2="29.6878" gradientUnits="userSpaceOnUse">
<stop stop-color="#5B59A7"/>
<stop offset="1" stop-color="#36338B"/>
</linearGradient>
<linearGradient id="paint1_linear_0_38" x1="0" y1="0" x2="34.44" y2="29.6878" gradientUnits="userSpaceOnUse">
<stop stop-color="#5B59A7"/>
<stop offset="1" stop-color="#36338B"/>
</linearGradient>
</defs>
</svg>
