<svg width="44" height="44" viewBox="0 0 44 44" fill="none" xmlns="http://www.w3.org/2000/svg">
<circle cx="22" cy="22" r="22" fill="#2E59C1"/>
<g clip-path="url(#clip0_19_858)">
<path d="M22.7412 21.9682V11.8566C22.7412 11.191 23.1817 10.8524 23.7714 11.061C24.0327 11.1494 24.1861 11.3368 24.206 11.6391C24.2102 11.7275 24.2118 11.8159 24.2118 11.9043C24.2118 18.6348 24.2118 25.365 24.2118 32.0949C24.2118 32.802 23.8245 33.1309 23.2215 32.9514C22.8714 32.8471 22.742 32.6411 22.7412 32.178V21.9682Z" fill="white"/>
<path d="M25.6798 21.9682C25.6798 19.5367 25.6798 17.1055 25.6798 14.6746C25.6798 14.0143 26.1418 13.6731 26.7257 13.8923C26.8522 13.9295 26.9635 14.0105 27.042 14.1226C27.1205 14.2346 27.1619 14.3713 27.1595 14.5111C27.1595 14.5659 27.1595 14.6216 27.1595 14.6764C27.1595 19.5611 27.1595 24.4456 27.1595 29.3298C27.1595 29.9114 26.8883 30.1916 26.3583 30.1625C25.9079 30.1368 25.6798 29.8743 25.6798 29.3669C25.6787 26.8983 25.6787 24.432 25.6798 21.9682Z" fill="white"/>
<path d="M13.9008 21.9673C13.9008 19.5352 13.9008 17.1041 13.9008 14.6738C13.9008 14.0338 14.3089 13.7014 14.8788 13.8694C15.1774 13.9578 15.3648 14.1558 15.364 14.5093C15.364 14.5641 15.364 14.6198 15.364 14.6746C15.364 19.5594 15.364 24.4439 15.364 29.3281C15.364 29.9468 15.0057 30.265 14.4441 30.1484C14.0783 30.0732 13.9017 29.8469 13.9017 29.4262C13.8983 27.8238 13.8983 26.2215 13.9017 24.6192L13.9008 21.9673Z" fill="white"/>
<path d="M21.2564 22.023C21.2564 23.6247 21.2564 25.2262 21.2564 26.8273C21.2564 27.4929 20.7629 27.835 20.1781 27.5796C20.0693 27.5408 19.9741 27.4676 19.9053 27.3696C19.8366 27.2717 19.7975 27.1537 19.7933 27.0315C19.7883 26.9537 19.7866 26.8768 19.7866 26.799C19.7866 23.5961 19.7866 20.3933 19.7866 17.1904C19.7866 16.5592 20.1649 16.2392 20.7388 16.3736C21.0847 16.4549 21.2556 16.6812 21.2556 17.0861C21.26 18.732 21.2603 20.3776 21.2564 22.023Z" fill="white"/>
<path d="M12.4202 22.0459C12.4202 23.5935 12.4202 25.1407 12.4202 26.6876C12.4202 27.2003 12.1714 27.469 11.7044 27.4832C11.2374 27.4973 10.9454 27.2127 10.9446 26.6965C10.9446 23.569 10.9446 20.4415 10.9446 17.3141C10.9446 16.7934 11.2191 16.5123 11.6969 16.5185C12.1747 16.5247 12.4194 16.8014 12.4202 17.3388C12.4213 18.9082 12.4213 20.4772 12.4202 22.0459Z" fill="white"/>
<path d="M31.5808 21.9673C31.5808 20.4204 31.5808 18.8731 31.5808 17.3256C31.5808 16.7952 31.8362 16.5203 32.3157 16.5203C32.7951 16.5203 33.0555 16.7961 33.0564 17.3274C33.0564 20.4436 33.0564 23.5596 33.0564 26.6753C33.0564 26.982 32.9966 27.2498 32.7038 27.3824C32.3986 27.5247 32.0726 27.5415 31.8263 27.3038C31.6798 27.1422 31.5952 26.9281 31.5891 26.7035C31.5716 25.1274 31.5808 23.5469 31.5808 21.9673Z" fill="white"/>
<path d="M35.9999 21.9921C35.9999 22.8972 35.9999 23.8024 35.9999 24.7076C35.9999 25.2114 35.7428 25.4819 35.2716 25.4872C34.8005 25.4925 34.5251 25.222 34.5251 24.7244C34.5212 22.9034 34.5212 21.0822 34.5251 19.2606C34.5251 18.7762 34.8212 18.5004 35.2874 18.5146C35.7536 18.5287 35.9991 18.7912 36.0007 19.2765C36.0016 20.1817 35.9999 21.0869 35.9999 21.9921Z" fill="white"/>
<path d="M8.00073 22.0124C8.00073 21.1072 8.00073 20.202 8.00073 19.2969C8.00073 18.7912 8.25537 18.5208 8.72567 18.5146C9.19598 18.5084 9.47219 18.7798 9.47219 19.273C9.47716 21.0951 9.47716 22.9167 9.47219 24.7376C9.47219 25.2256 9.18022 25.4996 8.7124 25.4872C8.24459 25.4749 7.99824 25.2106 7.99658 24.7279C7.99907 23.8227 8.00073 22.9176 8.00073 22.0124Z" fill="white"/>
<path d="M30.1 22.0168C30.1 22.9122 30.1 23.8077 30.1 24.7022C30.1 25.2167 29.8512 25.4784 29.3775 25.4837C28.9039 25.489 28.6385 25.2185 28.6377 24.7199C28.6338 22.9078 28.6338 21.0951 28.6377 19.2818C28.6377 18.7797 28.9048 18.5136 29.3767 18.5181C29.8487 18.5225 30.0983 18.7832 30.1 19.2977C30.1017 20.2038 30.1 21.1107 30.1 22.0168Z" fill="white"/>
<path d="M18.321 21.9805C18.321 22.6877 18.321 23.3949 18.321 24.102C18.321 24.6112 18.0664 24.8684 17.5836 24.8702C17.1009 24.872 16.8429 24.6121 16.8421 24.1082C16.8388 22.7051 16.8388 21.3017 16.8421 19.8979C16.8421 19.3861 17.0909 19.1315 17.5778 19.1298C18.0647 19.128 18.3177 19.3861 18.3243 19.8909C18.3243 20.591 18.321 21.2849 18.321 21.9805Z" fill="white"/>
</g>
<defs>
<clipPath id="clip0_19_858">
<rect width="28" height="22" fill="white" transform="translate(8 11)"/>
</clipPath>
</defs>
</svg>
