<svg width="16" height="16" viewBox="0 0 16 16" fill="none" xmlns="http://www.w3.org/2000/svg">
<path d="M1.46026 0.664761C1.24059 0.445086 0.884428 0.445078 0.664761 0.664746C0.445086 0.884413 0.445078 1.24057 0.664746 1.46024L3.82837 4.62392H2.1875C1.25552 4.62392 0.500001 5.37944 0.500001 6.31142V9.68487C0.500001 10.6168 1.25552 11.3724 2.1875 11.3724H4.94717C5.08497 11.3724 5.21797 11.4229 5.32095 11.5145L8.68955 14.5098C9.29413 15.0474 10.25 14.6181 10.25 13.8092V11.0457L14.5396 15.3354C14.7592 15.5551 15.1154 15.5551 15.3351 15.3354C15.5548 15.1157 15.5548 14.7595 15.3351 14.5399L1.46026 0.664761ZM9.125 9.92067V13.3916L6.06849 10.6737C5.75956 10.3991 5.36056 10.2474 4.94717 10.2474H2.1875C1.87684 10.2474 1.625 9.99553 1.625 9.68487V6.31142C1.625 6.00076 1.87684 5.74892 2.1875 5.74892H4.94721C4.94925 5.74892 4.95129 5.74892 4.95333 5.74891L9.125 9.92067ZM9.125 2.60508V6.73865L10.25 7.86365V2.18749C10.25 1.37852 9.29413 0.949348 8.68963 1.48685L6.14002 3.7536L6.93688 4.55047L9.125 2.60508ZM11.8558 9.4694L12.7092 10.323C13.0556 9.6221 13.25 8.83302 13.25 8C13.25 7.0976 13.0218 6.24682 12.6197 5.50387C12.4718 5.23066 12.1304 5.12908 11.8572 5.27698C11.584 5.42488 11.4824 5.76624 11.6303 6.03943C11.9457 6.62203 12.125 7.28923 12.125 8C12.125 8.51825 12.0297 9.0134 11.8558 9.4694ZM13.5411 11.1548L14.3611 11.9749C15.0828 10.8223 15.5 9.45928 15.5 8C15.5 6.33041 14.9538 4.78676 14.0305 3.5402C13.8456 3.29056 13.4933 3.23808 13.2437 3.42298C12.994 3.60788 12.9416 3.96015 13.1265 4.20979C13.9111 5.26921 14.375 6.57965 14.375 8C14.375 9.14832 14.0718 10.2247 13.5411 11.1548Z" fill="#706D6E"/>
</svg>
