<svg width="16" height="14" viewBox="0 0 16 14" fill="none" xmlns="http://www.w3.org/2000/svg">
<path d="M10.25 1.18713C10.25 0.378167 9.29412 -0.0510052 8.68962 0.486505L5.32095 3.48146C5.21799 3.573 5.085 3.62357 4.94721 3.62357H2.1875C1.25552 3.62357 0.5 4.37909 0.5 5.31107V8.6845C0.5 9.61645 1.25552 10.372 2.1875 10.372H4.94717C5.08497 10.372 5.21797 10.4225 5.32095 10.5141L8.68955 13.5094C9.29412 14.047 10.25 13.6178 10.25 12.8088V1.18713ZM6.06845 4.32221L9.125 1.60472V12.3912L6.06849 9.67345C5.75956 9.39872 5.36055 9.247 4.94717 9.247H2.1875C1.87684 9.247 1.625 8.99515 1.625 8.6845V5.31107C1.625 5.00041 1.87684 4.74857 2.1875 4.74857H4.94721C5.36056 4.74857 5.75954 4.59686 6.06845 4.32221ZM13.2437 2.42263C13.4933 2.23772 13.8456 2.29021 14.0305 2.53985C14.9538 3.78641 15.5 5.33006 15.5 6.99962C15.5 8.6692 14.9538 10.2128 14.0305 11.4594C13.8456 11.7091 13.4933 11.7616 13.2437 11.5766C12.994 11.3918 12.9416 11.0395 13.1265 10.7898C13.9111 9.73045 14.375 8.42005 14.375 6.99962C14.375 5.57927 13.9111 4.26886 13.1265 3.20944C12.9416 2.9598 12.994 2.60753 13.2437 2.42263ZM11.8572 4.27663C12.1304 4.12874 12.4718 4.23032 12.6197 4.50351C13.0218 5.24647 13.25 6.09722 13.25 6.99962C13.25 7.90202 13.0218 8.75282 12.6197 9.49577C12.4718 9.76892 12.1304 9.87055 11.8572 9.72265C11.584 9.57475 11.4824 9.23335 11.6303 8.9602C11.9457 8.3776 12.125 7.7104 12.125 6.99962C12.125 6.28885 11.9457 5.62165 11.6303 5.03908C11.4824 4.76588 11.584 4.42452 11.8572 4.27663Z" fill="#706D6E"/>
</svg>
