<svg width="34" height="30" viewBox="0 0 34 30" fill="none" xmlns="http://www.w3.org/2000/svg">
<path d="M4.44523 14.7774C4.44523 22.9387 11.0613 29.5548 19.2226 29.5548C27.3839 29.5548 34 22.9387 34 14.7774C34 6.61606 27.3839 0 19.2226 0C11.0613 0 4.44523 6.61606 4.44523 14.7774Z" fill="url(#paint0_linear_0_55)"/>
<path d="M4.44523 14.7774C4.44523 22.9387 11.0613 29.5548 19.2226 29.5548H0C3.5757 25.842 4.44314 22.7624 4.44523 14.7774Z" fill="url(#paint1_linear_0_55)"/>
<path d="M19.144 17.9487L22.1362 20.3237L20.8627 21.4409L17.9252 19.0893L19.144 17.9487ZM22.1596 13.4643V14.0893C22.1596 14.9487 22.0476 15.7195 21.8237 16.4018C21.5997 17.0841 21.2794 17.6648 20.8627 18.144C20.4461 18.6231 19.9487 18.9903 19.3705 19.2455C18.7924 19.4955 18.1518 19.6205 17.4487 19.6205C16.7508 19.6205 16.1127 19.4955 15.5346 19.2455C14.9617 18.9903 14.4643 18.6231 14.0424 18.144C13.6205 17.6648 13.2924 17.0841 13.058 16.4018C12.8289 15.7195 12.7143 14.9487 12.7143 14.0893V13.4643C12.7143 12.6049 12.8289 11.8367 13.058 11.1596C13.2872 10.4773 13.6101 9.89659 14.0268 9.41742C14.4487 8.93304 14.9461 8.56586 15.519 8.31586C16.0971 8.06065 16.7351 7.93304 17.433 7.93304C18.1362 7.93304 18.7768 8.06065 19.3549 8.31586C19.9383 8.56586 20.4383 8.93304 20.8549 9.41742C21.2716 9.89659 21.5919 10.4773 21.8159 11.1596C22.045 11.8367 22.1596 12.6049 22.1596 13.4643ZM20.1909 14.0893V13.4487C20.1909 12.8133 20.1284 12.2534 20.0034 11.769C19.8836 11.2794 19.7039 10.8705 19.4643 10.5424C19.2299 10.2091 18.9409 9.95909 18.5971 9.79242C18.2586 9.62054 17.8705 9.53461 17.433 9.53461C17.006 9.53461 16.6231 9.62054 16.2846 9.79242C15.9461 9.95909 15.657 10.2091 15.4174 10.5424C15.1778 10.8705 14.9955 11.2794 14.8705 11.769C14.7455 12.2534 14.683 12.8133 14.683 13.4487V14.0893C14.683 14.7247 14.7455 15.2872 14.8705 15.7768C14.9955 16.2664 15.1778 16.6804 15.4174 17.019C15.6622 17.3523 15.9539 17.6049 16.2924 17.7768C16.6362 17.9435 17.0216 18.0268 17.4487 18.0268C17.8862 18.0268 18.2742 17.9435 18.6127 17.7768C18.9513 17.6049 19.2377 17.3523 19.4721 17.019C19.7065 16.6804 19.8836 16.2664 20.0034 15.7768C20.1284 15.2872 20.1909 14.7247 20.1909 14.0893Z" fill="white"/>
<defs>
<linearGradient id="paint0_linear_0_55" x1="34" y1="0" x2="-1.22952e-06" y2="29.75" gradientUnits="userSpaceOnUse">
<stop stop-color="#8C2C91"/>
<stop offset="1" stop-color="#4D204F"/>
</linearGradient>
<linearGradient id="paint1_linear_0_55" x1="34" y1="0" x2="-1.22952e-06" y2="29.75" gradientUnits="userSpaceOnUse">
<stop stop-color="#8C2C91"/>
<stop offset="1" stop-color="#4D204F"/>
</linearGradient>
</defs>
</svg>
