<svg width="11" height="13" viewBox="0 0 11 13" fill="none" xmlns="http://www.w3.org/2000/svg">
<path d="M10.5303 0.719679C10.8232 1.01257 10.8232 1.48744 10.5303 1.78033L5.81065 6.50001L10.5303 11.2197C10.8232 11.5126 10.8232 11.9875 10.5303 12.2803C10.2374 12.5732 9.76256 12.5732 9.46967 12.2803L4.21966 7.03034C3.92676 6.73745 3.92676 6.26258 4.21966 5.96969L9.46967 0.719679C9.76256 0.426774 10.2374 0.426774 10.5303 0.719679Z" fill="#7E7E7E"/>
<path d="M6.53032 0.719679C6.82323 1.01257 6.82323 1.48744 6.53032 1.78033L1.81065 6.50001L6.53032 11.2197C6.82323 11.5126 6.82323 11.9875 6.53032 12.2803C6.23743 12.5732 5.76256 12.5732 5.46967 12.2803L0.219663 7.03034C-0.0732427 6.73745 -0.0732427 6.26258 0.219663 5.96969L5.46967 0.719679C5.76256 0.426774 6.23743 0.426774 6.53032 0.719679Z" fill="#7E7E7E"/>
</svg>
