<svg width="11" height="13" viewBox="0 0 11 13" fill="none" xmlns="http://www.w3.org/2000/svg">
<path d="M0.469679 12.2803C0.176774 11.9874 0.176774 11.5126 0.469679 11.2197L5.18935 6.49999L0.469679 1.78031C0.176774 1.48742 0.176774 1.01255 0.469679 0.719657C0.762569 0.426781 1.23744 0.426781 1.53033 0.719657L6.78034 5.96966C7.07324 6.26255 7.07324 6.73742 6.78034 7.03031L1.53033 12.2803C1.23744 12.5732 0.762569 12.5732 0.469679 12.2803Z" fill="#7E7E7E"/>
<path d="M4.46968 12.2803C4.17677 11.9874 4.17677 11.5126 4.46968 11.2197L9.18935 6.49999L4.46968 1.78031C4.17677 1.48742 4.17677 1.01255 4.46968 0.719657C4.76257 0.426781 5.23744 0.426781 5.53033 0.719657L10.7803 5.96966C11.0732 6.26255 11.0732 6.73742 10.7803 7.03031L5.53033 12.2803C5.23744 12.5732 4.76257 12.5732 4.46968 12.2803Z" fill="#7E7E7E"/>
</svg>
