<svg width="24" height="24" viewBox="0 0 24 24" fill="none" xmlns="http://www.w3.org/2000/svg">
<g clip-path="url(#clip0_1_1158)">
<g clip-path="url(#clip1_1_1158)">
<g clip-path="url(#clip2_1_1158)">
<path d="M15.5478 12.8997C14.6478 14.7527 12.7419 16.0762 10.5184 16.0762C7.50071 16.0762 4.95954 13.588 4.95954 10.5174C4.95954 7.49974 7.39483 4.95856 10.5184 4.95856C12.0007 4.95856 13.4301 5.54091 14.4889 6.59974C15.1242 7.23503 15.5478 7.97621 15.8125 8.77032L17.0301 7.55268C16.6595 6.75856 16.1831 6.07032 15.5478 5.43503C14.1713 4.1115 12.3713 3.31738 10.4654 3.31738C6.54777 3.37032 3.31836 6.59974 3.31836 10.5174C3.31836 14.488 6.54777 17.6644 10.4654 17.6644C14.1713 17.6644 17.136 14.8586 17.5595 11.4174C16.7654 12.1586 16.4478 12.8997 15.5478 12.8997Z" fill="#2D9596"/>
<path d="M20.0484 20.047C19.2543 20.8411 17.9308 20.8411 17.0837 20.047L14.6484 17.6117C15.2308 17.2411 15.8131 16.8176 16.2896 16.3411C16.819 15.8117 17.2426 15.2823 17.6131 14.647L20.0484 17.0823C20.8426 17.8764 20.8955 19.1999 20.0484 20.047Z" fill="#2D9596"/>
<path d="M19.5714 7.97617L18.5656 8.98205L15.8126 11.6821C15.6009 11.8938 15.2832 11.8938 15.0714 11.6821L13.3244 9.935L10.5714 12.6879C10.3597 12.8997 10.042 12.8997 9.83026 12.6879L8.61262 11.4703L6.86556 13.2173C6.65379 12.9526 6.44203 12.5821 6.2832 12.2644L8.24203 10.4115C8.45379 10.1997 8.77144 10.1997 8.9832 10.4115L10.2009 11.6291L12.9538 8.87617C13.1656 8.66441 13.4832 8.66441 13.695 8.87617L14.9656 10.1468L15.442 10.6232L18.2479 7.81735L18.8303 7.235C19.042 7.02323 19.3597 7.02323 19.5714 7.235C19.7832 7.44676 19.7832 7.76441 19.5714 7.97617Z" fill="#2D9596"/>
</g>
</g>
</g>
<defs>
<clipPath id="clip0_1_1158">
<rect width="18" height="18" fill="white" transform="translate(3 3)"/>
</clipPath>
<clipPath id="clip1_1_1158">
<rect width="18" height="18" fill="white" transform="translate(3 3)"/>
</clipPath>
<clipPath id="clip2_1_1158">
<rect width="18" height="18" fill="white" transform="translate(3 2.99951)"/>
</clipPath>
</defs>
</svg>
