<svg width="24" height="24" viewBox="0 0 24 24" fill="none" xmlns="http://www.w3.org/2000/svg">
<path d="M14.0318 17.0161L16.8906 19.8749C17.6848 20.669 19.0612 20.669 19.8554 19.8749C20.7024 19.0808 20.7024 17.7043 19.8554 16.9102L16.9965 14.0514C17.5259 13.0455 17.8436 11.8808 17.8436 10.6631C17.8436 10.4514 17.8436 10.2396 17.7906 10.0808L19.7495 8.12194C19.9612 7.91018 19.9612 7.59253 19.7495 7.38077C19.5377 7.169 19.2201 7.169 19.0083 7.38077L17.5789 8.81018C17.2612 7.59253 16.6259 6.53371 15.7259 5.63371C12.9201 2.82783 8.42006 2.82783 5.61418 5.63371C2.8083 8.43959 2.8083 12.9396 5.61418 15.7455C7.94359 18.0749 11.3848 18.4455 14.0318 17.0161ZM19.0612 17.6514C19.4848 18.0749 19.4848 18.7102 19.0612 19.1337C18.6377 19.5572 18.0024 19.5572 17.5789 19.1337L14.8789 16.4337C15.1436 16.2219 15.4083 16.0102 15.673 15.7455C15.9377 15.4808 16.1495 15.2161 16.3612 14.9514L19.0612 17.6514ZM6.35535 6.37489C8.73771 3.99253 12.6024 3.99253 14.9848 6.37489C15.8848 7.27489 16.4671 8.43959 16.6789 9.71018L15.6201 10.769L13.873 9.02194C13.6612 8.81018 13.3436 8.81018 13.1318 9.02194L10.3789 11.7749L9.16124 10.5572C8.94947 10.3455 8.63182 10.3455 8.42006 10.5572L6.30241 12.6749C6.09065 12.8867 6.09065 13.2043 6.30241 13.4161C6.51418 13.6278 6.83182 13.6278 7.04359 13.4161L8.79065 11.669C9.58477 12.3043 10.1671 13.469 10.7495 12.8867L13.5024 10.1337L15.2495 11.8808C15.4612 12.0925 15.7789 12.0925 15.9906 11.8808L16.7318 11.1396C16.6259 12.6219 15.9906 13.9455 14.9848 15.0043C12.6024 17.3867 8.73771 17.3867 6.35535 15.0043C3.973 12.6219 3.973 8.75724 6.35535 6.37489Z" fill="black"/>
</svg>
