<svg width="24" height="24" viewBox="0 0 24 24" fill="none" xmlns="http://www.w3.org/2000/svg">
<g clip-path="url(#clip0_2_15440)">
<path d="M16.6875 11.25H15.48C15.39 11.34 15.2925 11.415 15.1875 11.4825C15.1875 11.4825 15.1875 12.315 15.1725 12.375H16.6875C16.7925 12.375 16.875 12.4575 16.875 12.5625V17.25H7.125V12.5625C7.125 12.4575 7.2075 12.375 7.3125 12.375H8.2125C8.37 12.1275 8.5725 11.925 8.8125 11.7675V11.25H7.3125C6.5925 11.25 6 11.8425 6 12.5625V17.8125C6 18.5325 6.5925 19.125 7.3125 19.125H10.095C9.9525 19.455 9.7725 19.8 9.54 20.04C9.195 20.37 9.42 21 9.9375 21H14.0625C14.58 21 14.805 20.37 14.46 20.04C14.2275 19.8075 14.0475 19.455 13.905 19.125H16.6875C17.4075 19.125 18 18.5325 18 17.8125V12.5625C18 11.8425 17.4075 11.25 16.6875 11.25Z" fill="#2D9596"/>
<path d="M21 10.4475C21 11.775 20.4225 12.9675 19.5 13.8V12.5625C19.5 11.01 18.24 9.75 16.6875 9.75H16.125C16.125 8.72025 15.5205 8.298 14.58 7.3575C13.8075 6.5775 12.4425 6.5775 11.67 7.3575C10.8608 8.16 10.4475 8.44425 10.23 9.1125C9.8625 9.24 9.5325 9.4575 9.3 9.75H7.3125C5.76 9.75 4.5 11.01 4.5 12.5625V14.175C3.5925 13.4775 3 12.3975 3 11.175C3 9.2025 4.515 7.575 6.45 7.3725C7.035 4.8525 9.345 3 12 3C14.0925 3 16.02 4.1475 17.0025 5.9475C19.2675 6.2325 21 8.1525 21 10.4475Z" fill="#2D9596"/>
<path d="M14.4592 9.35231L13.5217 8.41481C13.302 8.19506 12.9457 8.19506 12.726 8.41481L11.7885 9.35231C11.4352 9.70481 11.685 10.3123 12.186 10.3123H12.561V12.1873C12.561 12.4978 12.813 12.7498 13.1235 12.7498C13.434 12.7498 13.686 12.4978 13.686 12.1873V10.3123H14.061C14.5635 10.3123 14.8132 9.70481 14.4592 9.35231Z" fill="#2D9596"/>
<path d="M11.8134 12.9375H11.4384V11.0625C11.4384 10.752 11.1864 10.5 10.8759 10.5C10.5654 10.5 10.3134 10.752 10.3134 11.0625V12.9375H9.93841C9.43666 12.9375 9.18691 13.545 9.54091 13.8975L10.4784 14.835C10.5879 14.9453 10.7319 15 10.8759 15C11.0199 15 11.1639 14.9453 11.2734 14.835L12.2109 13.8975C12.5649 13.545 12.3152 12.9375 11.8134 12.9375Z" fill="#2D9596"/>
</g>
<defs>
<clipPath id="clip0_2_15440">
<rect width="18" height="18" fill="white" transform="translate(3 3)"/>
</clipPath>
</defs>
</svg>
