<svg width="24" height="24" viewBox="0 0 24 24" fill="none" xmlns="http://www.w3.org/2000/svg">
<g clip-path="url(#clip0_1_467)">
<path d="M17.625 17.2476C17.835 17.2476 18 17.4201 18 17.6226C18 17.8326 17.835 17.9976 17.625 17.9976H17.25V17.2476H17.625Z" fill="#242424"/>
<path d="M6.75 17.2476H17.25V17.9976H6.75V17.2476Z" fill="#242424"/>
<path d="M18 12.3726V12.8676V17.6226C18 17.4201 17.835 17.2476 17.625 17.2476H17.25V12.3726C17.25 12.1701 17.0775 11.9976 16.875 11.9976H15.375C15.165 11.9976 15 11.8326 15 11.6226C15 11.4201 15.165 11.2476 15.375 11.2476H16.875C17.4975 11.2476 18 11.7576 18 12.3726Z" fill="#242424"/>
<path d="M16.8757 19.4976H13.8682C13.7782 19.3401 13.6957 19.1676 13.6357 18.9951C13.5832 18.8451 13.4332 18.7476 13.2832 18.7476H16.8757C17.0782 18.7476 17.2507 18.5826 17.2507 18.3726V17.9976H17.6257C17.8357 17.9976 18.0007 17.8326 18.0007 17.6226V18.3726C18.0007 18.9951 17.4982 19.4976 16.8757 19.4976Z" fill="#242424"/>
<path d="M13.5 9.53027V12.3728C13.5 12.5828 13.335 12.7478 13.125 12.7478C12.915 12.7478 12.75 12.5828 12.75 12.3728V9.53027L13.125 9.15527L13.5 9.53027Z" fill="#242424"/>
<path d="M13.6345 18.9951C13.6945 19.1676 13.777 19.3401 13.867 19.4976H13.027C12.9895 19.4151 12.9595 19.3326 12.9295 19.2501C12.862 19.0551 12.9595 18.8451 13.1545 18.7701C13.1995 18.7551 13.237 18.7476 13.282 18.7476C13.432 18.7476 13.582 18.8451 13.6345 18.9951Z" fill="#242424"/>
<path d="M13.5 8.81006V9.53006L13.125 9.15506L12.75 9.53006V8.81006C12.75 8.60756 12.915 8.43506 13.125 8.43506C13.335 8.43506 13.5 8.60756 13.5 8.81006Z" fill="#242424"/>
<path d="M10.7109 18.7476H13.2834C13.2384 18.7476 13.2009 18.7551 13.1559 18.7701C12.9609 18.8451 12.8634 19.0551 12.9309 19.2501C12.9609 19.3326 12.9909 19.4151 13.0284 19.4976H10.9659C11.0034 19.4151 11.0334 19.3251 11.0634 19.2426C11.1309 19.0476 11.0259 18.8376 10.8309 18.7701C10.7934 18.7551 10.7484 18.7476 10.7109 18.7476Z" fill="#242424"/>
<path d="M11.7375 9.48506L12.8625 8.36006C13.005 8.21006 13.245 8.21006 13.3875 8.36006L14.5125 9.48506C14.6625 9.62756 14.6625 9.86756 14.5125 10.0176C14.445 10.0851 14.3475 10.1226 14.25 10.1226C14.1525 10.1226 14.055 10.0851 13.9875 10.0176L13.5 9.53006V8.81006C13.5 8.60756 13.335 8.43506 13.125 8.43506C12.915 8.43506 12.75 8.60756 12.75 8.81006V9.53006L12.2625 10.0176C12.12 10.1601 11.88 10.1601 11.7375 10.0176C11.5875 9.86756 11.5875 9.62756 11.7375 9.48506Z" fill="#242424"/>
<path d="M11.25 13.7227V14.4352C11.25 14.6452 11.085 14.8102 10.875 14.8102C10.665 14.8102 10.5 14.6452 10.5 14.4352V13.7227L10.875 14.0977L11.25 13.7227Z" fill="#242424"/>
<path d="M11.25 10.8726V13.7226L10.875 14.0976L10.5 13.7226V10.8726C10.5 10.6701 10.665 10.4976 10.875 10.4976C11.085 10.4976 11.25 10.6701 11.25 10.8726Z" fill="#242424"/>
<path d="M10.8303 18.7701C11.0253 18.8376 11.1303 19.0476 11.0628 19.2426C11.0328 19.3251 11.0028 19.4151 10.9653 19.4976H10.1328C10.2303 19.3401 10.2978 19.1751 10.3578 19.0026C10.4103 18.8451 10.5528 18.7476 10.7103 18.7476C10.7478 18.7476 10.7928 18.7551 10.8303 18.7701Z" fill="#242424"/>
<path d="M12.2625 13.7678L11.1375 14.8928C11.07 14.9603 10.9725 14.9978 10.875 14.9978C10.7775 14.9978 10.68 14.9603 10.6125 14.8928L9.4875 13.7678C9.3375 13.6178 9.3375 13.3853 9.4875 13.2353C9.63 13.0928 9.87 13.0928 10.0125 13.2353L10.5 13.7228V14.4353C10.5 14.6453 10.665 14.8103 10.875 14.8103C11.085 14.8103 11.25 14.6453 11.25 14.4353V13.7228L11.73 13.2353C11.88 13.0928 12.12 13.0928 12.2625 13.2353C12.4125 13.3853 12.4125 13.6178 12.2625 13.7678Z" fill="#242424"/>
<path d="M10.5528 20.2476H13.4478C13.2828 20.0151 13.1403 19.7601 13.0278 19.4976H13.8678C14.0328 19.8051 14.2503 20.0976 14.5128 20.3601C14.6253 20.4651 14.6553 20.6301 14.5953 20.7651C14.5353 20.9076 14.4003 20.9976 14.2503 20.9976H9.75028C9.60028 20.9976 9.45778 20.9076 9.40528 20.7651C9.34528 20.6301 9.37528 20.4651 9.48778 20.3601C9.75028 20.0901 9.96778 19.8051 10.1328 19.4976H10.9653C10.8603 19.7601 10.7253 20.0076 10.5528 20.2476Z" fill="#242424"/>
<path d="M6.75 17.2476V17.9976H6.375C6.165 17.9976 6 17.8326 6 17.6226C6 17.4201 6.165 17.2476 6.375 17.2476H6.75Z" fill="#242424"/>
<path d="M7.125 11.9976C6.915 11.9976 6.75 12.1701 6.75 12.3726V17.2476H6.375C6.165 17.2476 6 17.4201 6 17.6226V13.3626V12.3726C6 11.7576 6.5025 11.2476 7.125 11.2476H8.625C8.835 11.2476 9 11.4201 9 11.6226C9 11.8326 8.835 11.9976 8.625 11.9976H7.125Z" fill="#242424"/>
<path d="M7.125 18.7476H10.71C10.5525 18.7476 10.41 18.8451 10.3575 19.0026C10.2975 19.1751 10.23 19.3401 10.1325 19.4976H7.125C6.5025 19.4976 6 18.9951 6 18.3726V17.6226C6 17.8326 6.165 17.9976 6.375 17.9976H6.75V18.3726C6.75 18.5826 6.915 18.7476 7.125 18.7476Z" fill="#242424"/>
<path d="M6.495 7.51256C7.0125 4.91756 9.3225 2.99756 12 2.99756C14.1 2.99756 16.035 4.18256 16.9875 6.03506C19.2525 6.26756 21 8.19506 21 10.4976C21 11.4351 20.715 12.3276 20.1825 13.0851C20.0625 13.2576 19.83 13.2951 19.6575 13.1751C19.5525 13.1001 19.5 12.9876 19.5 12.8676C19.5 12.7926 19.5225 12.7176 19.5675 12.6501C20.0175 12.0276 20.25 11.2776 20.25 10.4976C20.25 8.51756 18.705 6.87506 16.725 6.76256C16.59 6.75506 16.4625 6.67256 16.41 6.54506C15.615 4.85006 13.8825 3.74756 12 3.74756C9.585 3.74756 7.515 5.54756 7.1775 7.92506C7.155 8.11256 6.9975 8.24756 6.81 8.24756C5.0925 8.24756 3.75 9.59756 3.75 11.2476C3.75 11.9451 3.9825 12.5976 4.4175 13.1301C4.47 13.1976 4.5 13.2801 4.5 13.3626C4.5 13.4751 4.455 13.5801 4.365 13.6551C4.29 13.7151 4.2075 13.7376 4.125 13.7376C4.02 13.7376 3.9075 13.6926 3.8325 13.6026C3.285 12.9351 3 12.1251 3 11.2476C3 9.26756 4.545 7.64006 6.495 7.51256Z" fill="#242424"/>
</g>
<defs>
<clipPath id="clip0_1_467">
<rect width="18" height="18" fill="white" transform="translate(3 3)"/>
</clipPath>
</defs>
</svg>
