<svg width="15" height="16" viewBox="0 0 15 16" fill="none" xmlns="http://www.w3.org/2000/svg">
<path d="M5.71212 2.94697H8.34848C8.34848 2.59737 8.20961 2.26208 7.9624 2.01487C7.71519 1.76767 7.37991 1.62879 7.0303 1.62879C6.6807 1.62879 6.34541 1.76767 6.09821 2.01487C5.851 2.26208 5.71212 2.59737 5.71212 2.94697ZM4.83333 2.94697C4.83333 2.3643 5.0648 1.80549 5.47681 1.39348C5.88882 0.981466 6.44763 0.75 7.0303 0.75C7.61298 0.75 8.17178 0.981466 8.5838 1.39348C8.99581 1.80549 9.22727 2.3643 9.22727 2.94697H13.6212C13.7377 2.94697 13.8495 2.99326 13.9319 3.07567C14.0143 3.15807 14.0606 3.26983 14.0606 3.38636C14.0606 3.5029 14.0143 3.61466 13.9319 3.69706C13.8495 3.77946 13.7377 3.82576 13.6212 3.82576H12.695L11.6457 12.9159C11.5715 13.5585 11.2637 14.1514 10.7808 14.5817C10.298 15.0121 9.67374 15.25 9.02691 15.25H5.0337C4.38687 15.25 3.76263 15.0121 3.27976 14.5817C2.79688 14.1514 2.48908 13.5585 2.41491 12.9159L1.36564 3.82576H0.439394C0.322859 3.82576 0.211098 3.77946 0.128696 3.69706C0.0462932 3.61466 0 3.5029 0 3.38636C0 3.26983 0.0462932 3.15807 0.128696 3.07567C0.211098 2.99326 0.322859 2.94697 0.439394 2.94697H4.83333ZM3.28755 12.8158C3.33713 13.2441 3.54243 13.6392 3.8644 13.926C4.18636 14.2128 4.60252 14.3713 5.0337 14.3712H9.02691C9.45809 14.3713 9.87424 14.2128 10.1962 13.926C10.5182 13.6392 10.7235 13.2441 10.7731 12.8158L11.81 3.82576H2.25058L3.28755 12.8158ZM5.71212 6.02273C5.82866 6.02273 5.94042 6.06902 6.02282 6.15142C6.10522 6.23383 6.15152 6.34559 6.15152 6.46212V11.7348C6.15152 11.8514 6.10522 11.9631 6.02282 12.0455C5.94042 12.1279 5.82866 12.1742 5.71212 12.1742C5.59559 12.1742 5.48382 12.1279 5.40142 12.0455C5.31902 11.9631 5.27273 11.8514 5.27273 11.7348V6.46212C5.27273 6.34559 5.31902 6.23383 5.40142 6.15142C5.48382 6.06902 5.59559 6.02273 5.71212 6.02273ZM8.78788 6.46212C8.78788 6.34559 8.74159 6.23383 8.65918 6.15142C8.57678 6.06902 8.46502 6.02273 8.34848 6.02273C8.23195 6.02273 8.12019 6.06902 8.03779 6.15142C7.95538 6.23383 7.90909 6.34559 7.90909 6.46212V11.7348C7.90909 11.8514 7.95538 11.9631 8.03779 12.0455C8.12019 12.1279 8.23195 12.1742 8.34848 12.1742C8.46502 12.1742 8.57678 12.1279 8.65918 12.0455C8.74159 11.9631 8.78788 11.8514 8.78788 11.7348V6.46212Z" fill="black"/>
</svg>
