<svg width="24" height="24" viewBox="0 0 24 24" fill="none" xmlns="http://www.w3.org/2000/svg">
<path d="M12 14.577L8.462 11.038L9.169 10.319L11.5 12.65V4H12.5V12.65L14.83 10.32L15.538 11.038L12 14.577ZM6.615 18C6.155 18 5.771 17.846 5.463 17.538C5.15433 17.2293 5 16.845 5 16.385V13.962H6V16.385C6 16.5383 6.064 16.6793 6.192 16.808C6.32067 16.936 6.46167 17 6.615 17H17.385C17.5383 17 17.6793 16.936 17.808 16.808C17.936 16.6793 18 16.5383 18 16.385V13.962H19V16.385C19 16.845 18.846 17.229 18.538 17.537C18.2293 17.8457 17.845 18 17.385 18H6.615Z" fill="black"/>
</svg>
