<svg width="24" height="24" viewBox="0 0 24 24" fill="none" xmlns="http://www.w3.org/2000/svg">
<g clip-path="url(#clip0_424_4179)">
<path fill-rule="evenodd" clip-rule="evenodd" d="M12.7318 15.3768C12.5442 15.5642 12.2899 15.6696 12.0248 15.6696C11.7596 15.6696 11.5053 15.5642 11.3178 15.3768L5.66076 9.71978C5.56525 9.62753 5.48906 9.51719 5.43666 9.39518C5.38425 9.27318 5.35666 9.14196 5.35551 9.00918C5.35435 8.8764 5.37965 8.74472 5.42994 8.62182C5.48022 8.49893 5.55447 8.38727 5.64836 8.29338C5.74225 8.19949 5.85391 8.12524 5.9768 8.07495C6.0997 8.02467 6.23138 7.99937 6.36416 8.00053C6.49694 8.00168 6.62816 8.02927 6.75016 8.08168C6.87217 8.13408 6.98251 8.21027 7.07476 8.30578L12.0248 13.2558L16.9748 8.30578C17.1634 8.12362 17.416 8.02282 17.6782 8.0251C17.9404 8.02738 18.1912 8.13255 18.3766 8.31796C18.562 8.50337 18.6672 8.75418 18.6694 9.01638C18.6717 9.27857 18.5709 9.53117 18.3888 9.71978L12.7318 15.3768Z" fill="#616161"/>
</g>
<rect x="23.5" y="23.5" width="23" height="23" rx="0.5" transform="rotate(180 23.5 23.5)" stroke="#E0E0E0"/>
<defs>
<clipPath id="clip0_424_4179">
<rect x="24" y="24" width="24" height="24" rx="1" transform="rotate(180 24 24)" fill="white"/>
</clipPath>
</defs>
</svg>
