<svg width="11" height="14" viewBox="0 0 11 14" fill="none" xmlns="http://www.w3.org/2000/svg">
<path d="M1.33585 2.08339L1.33398 3.4987V10.5015C1.33398 11.6981 2.30403 12.6682 3.50065 12.6682L9.24485 12.6684C9.03885 13.2508 8.48332 13.6682 7.83025 13.6682H3.50065C1.75175 13.6682 0.333984 12.2504 0.333984 10.5015V3.4987C0.333984 2.84489 0.752284 2.28878 1.33585 2.08339ZM9.50065 0.332031C10.3291 0.332031 11.0007 1.0036 11.0007 1.83203V10.4987C11.0007 11.3271 10.3291 11.9987 9.50065 11.9987H3.50065C2.67222 11.9987 2.00065 11.3271 2.00065 10.4987V1.83203C2.00065 1.0036 2.67222 0.332031 3.50065 0.332031H9.50065ZM9.50065 1.33203H3.50065C3.22451 1.33203 3.00065 1.55589 3.00065 1.83203V10.4987C3.00065 10.7748 3.22451 10.9987 3.50065 10.9987H9.50065C9.77678 10.9987 10.0007 10.7748 10.0007 10.4987V1.83203C10.0007 1.55589 9.77678 1.33203 9.50065 1.33203Z" fill="#242424"/>
</svg>
