<svg width="24" height="24" viewBox="0 0 24 24" fill="none" xmlns="http://www.w3.org/2000/svg">
<path d="M20.5147 10.8291C20.5143 10.8287 20.5139 10.8283 20.5135 10.8279L13.1709 3.4856C12.8579 3.17249 12.4418 3 11.9992 3C11.5566 3 11.1405 3.17235 10.8274 3.48546L3.48864 10.8241C3.48616 10.8265 3.48369 10.8291 3.48122 10.8316C2.83852 11.478 2.83962 12.5268 3.48438 13.1716C3.77895 13.4663 4.168 13.637 4.58397 13.6548C4.60086 13.6565 4.61789 13.6573 4.63506 13.6573H4.92771V19.0608C4.92771 20.13 5.79769 21 6.86721 21H9.73986C10.031 21 10.2672 20.7639 10.2672 20.4727V16.2363C10.2672 15.7484 10.6641 15.3515 11.152 15.3515H12.8464C13.3343 15.3515 13.7312 15.7484 13.7312 16.2363V20.4727C13.7312 20.7639 13.9673 21 14.2585 21H17.1312C18.2007 21 19.0707 20.13 19.0707 19.0608V13.6573H19.342C19.7845 13.6573 20.2006 13.4849 20.5139 13.1718C21.1593 12.526 21.1596 11.4754 20.5147 10.8291Z" fill="#2D9596"/>
</svg>
