<svg width="24" height="24" viewBox="0 0 24 24" fill="none" xmlns="http://www.w3.org/2000/svg">
<path d="M6.13297 20.9995C4.95499 20.9995 4 20.0195 4 18.8095V10.0077C4 9.34269 4.295 8.7127 4.79999 8.29771L10.6669 3.47978C11.0417 3.16937 11.5132 2.99951 11.9999 2.99951C12.4866 2.99951 12.958 3.16937 13.3329 3.47978L19.1988 8.29771C19.7048 8.7127 19.9998 9.34269 19.9998 10.0077V18.8095C19.9998 20.0195 19.0448 20.9995 17.8668 20.9995H6.13297Z" stroke="#424242" stroke-width="1.5" stroke-linecap="round" stroke-linejoin="round"/>
<path d="M9.5 20.9994V15.4995C9.5 14.9691 9.71071 14.4604 10.0858 14.0853C10.4608 13.7102 10.9695 13.4995 11.5 13.4995H12.5C13.0304 13.4995 13.5391 13.7102 13.9141 14.0853C14.2892 14.4604 14.4999 14.9691 14.4999 15.4995V20.9994" stroke="#424242" stroke-width="1.5" stroke-linecap="round" stroke-linejoin="round"/>
</svg>
