<svg width="24" height="24" viewBox="0 0 24 24" fill="none" xmlns="http://www.w3.org/2000/svg">
<g clip-path="url(#clip0_2_13401)">
<path d="M17.397 12.1372C17.2946 12.0007 17.1009 11.973 16.9643 12.0754C16.8988 12.1246 16.8554 12.1979 16.8438 12.2791L16.6723 13.4812C16.6682 13.4966 16.6628 13.5117 16.6562 13.5263C16.9714 13.1078 17.2258 12.6468 17.4118 12.157L17.397 12.1372Z" fill="#2D9596"/>
<path d="M16.368 13.7464C16.3534 13.7464 16.3388 13.7454 16.3244 13.7436L14.4888 13.4812C14.3199 13.457 14.2025 13.3004 14.2268 13.1315V13.1314L14.3983 11.9293C14.4222 11.7603 14.3046 11.604 14.1356 11.58C14.0547 11.5686 13.9726 11.5896 13.9072 11.6385L12.9357 12.3669C12.7991 12.4693 12.6054 12.4416 12.503 12.3051L11.3906 10.8218C11.2882 10.6852 11.3158 10.4916 11.4524 10.3892L12.4236 9.66079C12.5602 9.55839 12.5878 9.36471 12.4854 9.22816C12.4362 9.16257 12.363 9.11919 12.2818 9.10764L11.0797 8.93582C10.9107 8.9118 10.7932 8.75532 10.8173 8.58636C10.8173 8.58624 10.8173 8.58613 10.8173 8.58601L11.0797 6.75073C11.1037 6.58178 11.2602 6.46427 11.4291 6.48834C11.4293 6.48834 11.4294 6.48837 11.4295 6.48837L12.6316 6.66019C12.7552 6.67811 12.8774 6.61932 12.9406 6.51155C13.0062 6.40444 12.9989 6.26793 12.9221 6.16854L12.1943 5.19759C12.0919 5.06104 12.1196 4.86736 12.2561 4.76496L12.4313 4.63363C12.1475 4.61991 11.863 4.62752 11.5803 4.65649C8.52809 5.00499 6.33636 7.76181 6.68486 10.814C6.87471 12.4767 7.80309 13.9656 9.21258 14.8678C9.72717 15.1869 10.0432 15.7466 10.0506 16.352V17.6008C10.0506 18.1128 10.4657 18.5279 10.9777 18.5279H13.4499C13.9619 18.5279 14.3769 18.1128 14.3769 17.6008V16.3777C14.3848 15.758 14.7073 15.1849 15.2329 14.8567C15.7201 14.5406 16.1552 14.1507 16.5225 13.7009C16.4759 13.7295 16.4226 13.7452 16.368 13.7464ZM12.5228 17.6008H11.9048V16.6737H12.5228V17.6008ZM11.9048 16.0557C11.9046 15.2386 11.4008 14.5062 10.6378 14.2139C8.41248 13.3438 7.31391 10.8345 8.18404 8.60919C8.52095 7.74752 9.12524 7.01657 9.90818 6.5236L10.2361 7.04647C8.50264 8.1372 7.98167 10.4266 9.0724 12.16C9.49498 12.8316 10.1219 13.3499 10.8609 13.6388C11.8624 14.0219 12.5236 14.9834 12.5228 16.0557H11.9048Z" fill="#2D9596"/>
<path d="M10.9766 20.0729V20.382C10.9766 20.7233 11.2533 21 11.5946 21H12.8307C13.172 21 13.4487 20.7233 13.4487 20.382V20.0729H10.9766Z" fill="#2D9596"/>
<path d="M9.04461 15.1286C8.86152 15.0099 8.68518 14.881 8.51649 14.7426C8.04999 15.6507 6.93566 16.0087 6.02752 15.5423C5.4094 15.2248 5.02158 14.5874 5.02362 13.8925C5.02505 12.9582 5.72085 12.1707 6.64784 12.0541C6.53443 11.713 6.4525 11.3623 6.4031 11.0062L6.34902 11.2633C6.27879 11.5973 5.95104 11.8112 5.61702 11.741C5.53702 11.7242 5.46116 11.6916 5.39383 11.6453L4.75107 11.204L4.18803 11.7658L4.63055 12.4092C4.82423 12.6902 4.75338 13.0751 4.47233 13.2688C4.40492 13.3152 4.32898 13.3478 4.24891 13.3647L3.47852 13.5269V14.2611L4.24891 14.4234C4.58292 14.4937 4.79669 14.8215 4.72634 15.1555C4.70946 15.2357 4.67679 15.3117 4.63024 15.3792L4.18803 16.0192L4.75107 16.581L5.39321 16.1385C5.67427 15.9448 6.05915 16.0156 6.25283 16.2967C6.29926 16.3641 6.33187 16.44 6.34871 16.5201L6.51063 17.2917H7.24518L7.40711 16.5213C7.47741 16.1873 7.80516 15.9735 8.13918 16.0438C8.21925 16.0607 8.2952 16.0933 8.3626 16.1397L9.00444 16.581L9.66729 15.9181C9.55616 15.5915 9.33637 15.3128 9.04461 15.1286Z" fill="#2D9596"/>
<path d="M13.4487 18.8369H10.9766V19.4549H13.4487V18.8369Z" fill="#2D9596"/>
<path d="M19.9283 8.32733C19.4215 8.25487 19.0693 7.7852 19.1418 7.27836C19.1766 7.03497 19.3067 6.81537 19.5034 6.66789L20.2274 6.12463L19.4858 5.13576L18.7618 5.67871C18.3522 5.98603 17.7711 5.90314 17.4638 5.49365C17.3165 5.29726 17.253 5.05039 17.2874 4.80727L17.4154 3.91111L16.1919 3.73651L16.064 4.63267C15.9915 5.13951 15.5219 5.49164 15.015 5.41917C14.7716 5.38437 14.552 5.25431 14.4046 5.05758L13.8613 4.3323L12.8724 5.07396L13.4154 5.79799C13.7226 6.20756 13.6397 6.78864 13.2301 7.09592C13.0333 7.24356 12.7859 7.30691 12.5424 7.27203L11.6462 7.14409L11.4707 8.36782L12.3669 8.49575C12.8737 8.56826 13.2258 9.03789 13.1534 9.54472C13.1186 9.78812 12.9885 10.0077 12.7918 10.1552L12.068 10.6985L12.8097 11.6873L13.5337 11.1444C13.9433 10.8371 14.5244 10.9201 14.8317 11.3296C14.9793 11.5264 15.0426 11.7739 15.0078 12.0174L14.8798 12.9135L16.106 13.089L16.234 12.1929C16.3065 11.6861 16.7761 11.3339 17.2829 11.4064C17.5263 11.4412 17.7459 11.5712 17.8934 11.768L18.4367 12.4917L19.4255 11.7501L18.8807 11.0248C18.5736 10.6151 18.6567 10.0341 19.0663 9.72693C19.2627 9.57968 19.5095 9.51633 19.7525 9.55075L20.6486 9.67869L20.8232 8.45527L19.9283 8.32733ZM16.1481 10.2658C15.124 10.2658 14.2939 9.43572 14.2939 8.4117C14.2939 7.38768 15.124 6.55757 16.1481 6.55757C17.1721 6.55757 18.0022 7.38768 18.0022 8.4117C18.001 9.43522 17.1716 10.2646 16.1481 10.2658Z" fill="#2D9596"/>
<path d="M20.2471 14.5106H18.084V15.1286H20.2471V14.5106Z" fill="#2D9596"/>
<path d="M17.9737 16.1271L17.5781 16.6019L19.4324 18.1468L19.828 17.6719L17.9737 16.1271Z" fill="#2D9596"/>
<path d="M16.8485 16.9827H16.2305V19.1459H16.8485V16.9827Z" fill="#2D9596"/>
<path d="M5.64778 7.72117L3.17578 8.33911L3.32558 8.93838L5.79758 8.32044L5.64778 7.72117Z" fill="#2D9596"/>
<path d="M4.04848 4.67978L3.68945 5.18243L5.85243 6.72738L6.21146 6.22473L4.04848 4.67978Z" fill="#2D9596"/>
<path d="M6.93665 2.9998L6.33789 3.15289L6.96992 5.62487L7.56868 5.47178L6.93665 2.9998Z" fill="#2D9596"/>
</g>
<defs>
<clipPath id="clip0_2_13401">
<rect width="18" height="18" fill="white" transform="translate(3 3)"/>
</clipPath>
</defs>
</svg>
