<svg width="24" height="24" viewBox="0 0 24 24" fill="none" xmlns="http://www.w3.org/2000/svg">
<g clip-path="url(#clip0_1_1712)">
<path d="M20.7437 7.72651C20.7437 7.72651 20.7437 7.72651 20.7437 7.72651L20.7431 7.72591L19.5812 7.56015C19.4179 7.53689 19.3044 7.38565 19.3276 7.22235C19.3388 7.14387 19.3807 7.07309 19.4441 7.02552L20.3832 6.32125C20.5151 6.22227 20.5419 6.03508 20.4429 5.9031L19.3677 4.46946C19.2687 4.33749 19.0815 4.31076 18.9495 4.40973L18.0108 5.114C17.8794 5.21372 17.692 5.18804 17.5923 5.05662C17.5439 4.99282 17.5231 4.91221 17.5347 4.83295L17.7008 3.67111C17.7242 3.50781 17.6108 3.35649 17.4475 3.33304C17.4474 3.33304 17.4473 3.33301 17.4472 3.33301L15.6743 3.07973C15.511 3.05629 15.3596 3.16963 15.3362 3.33293C15.3362 3.33297 15.3362 3.33297 15.3362 3.33301L15.1701 4.49485C15.1468 4.65815 14.9956 4.77169 14.8323 4.74843C14.7538 4.73726 14.683 4.69534 14.6355 4.63194L13.9315 3.69291C13.8325 3.56093 13.6453 3.5342 13.5133 3.63318L12.6158 4.30669C12.2098 4.26353 11.8003 4.26353 11.3943 4.30669C8.73508 4.61063 6.64977 6.73129 6.39055 9.39521C6.38249 9.47973 6.3795 9.56366 6.37532 9.64759H6.28572C6.144 9.64785 6.02195 9.74768 5.99362 9.88653L5.78723 10.868L4.9605 10.2978C4.84185 10.2159 4.68161 10.2305 4.57969 10.3324L3.68367 11.2285C3.58189 11.3304 3.56733 11.4904 3.64902 11.609L4.2165 12.4342L3.23476 12.6406C3.09744 12.6707 2.9997 12.7924 3 12.933V14.1277C2.99993 14.269 3.0989 14.391 3.23715 14.4201L4.21889 14.6265L3.65141 15.4517C3.56972 15.5703 3.58428 15.7304 3.68606 15.8322L4.58208 16.7283C4.684 16.8302 4.84424 16.8448 4.96289 16.7629L5.78813 16.1939L5.99451 17.1757C6.02285 17.3145 6.14489 17.4144 6.28662 17.4146H7.48131C7.62259 17.4147 7.7446 17.3157 7.77372 17.1775L7.9801 16.1957L8.80534 16.7632C8.92395 16.8449 9.08397 16.8303 9.18585 16.7286L9.64969 16.2632V17.1145C9.65104 17.5394 9.87866 17.9313 10.247 18.1431V19.8025C10.247 20.4623 10.7819 20.9972 11.4417 20.9972H12.6364C13.2962 20.9972 13.8311 20.4623 13.8311 19.8025V18.1431C14.1995 17.9313 14.4271 17.5394 14.4285 17.1145V15.9323C14.4366 15.4349 14.6968 14.9757 15.1193 14.7131C15.3672 14.5523 15.6022 14.3725 15.8224 14.1755L15.424 13.7305C15.227 13.907 15.0166 14.0679 14.7947 14.2116C14.2016 14.5839 13.8386 15.2321 13.8311 15.9323V17.1145C13.8311 17.4444 13.5637 17.7118 13.2338 17.7118H10.8444C10.5145 17.7118 10.247 17.4444 10.247 17.1145V15.9075C10.2401 15.2206 9.88281 14.5848 9.29965 14.2218C6.93239 12.7343 6.21915 9.60947 7.70663 7.24221C8.62953 5.77344 10.2402 4.87947 11.9749 4.87327C11.9704 4.88391 11.9665 4.89478 11.9632 4.90583C11.9521 4.98423 11.9727 5.06386 12.0203 5.12715L12.7242 6.06588C12.7985 6.16194 12.8056 6.29388 12.7422 6.39741C12.6811 6.50157 12.563 6.55839 12.4435 6.54107L11.2817 6.37501C11.1184 6.3516 10.967 6.46498 10.9436 6.62825C10.9436 6.62836 10.9436 6.62847 10.9436 6.62858L10.69 8.40241C10.6666 8.56567 10.78 8.71703 10.9432 8.74047C10.9433 8.74047 10.9434 8.74051 10.9436 8.74051L12.1054 8.90657C12.2687 8.92983 12.3822 9.08108 12.359 9.24438C12.3478 9.32285 12.3059 9.39364 12.2425 9.4412L11.3038 10.1452C11.1718 10.2442 11.145 10.4313 11.244 10.5633L12.3192 11.997C12.4182 12.1289 12.6054 12.1557 12.7374 12.0567L13.6764 11.3527C13.8085 11.2539 13.9957 11.2809 14.0945 11.4131C14.1418 11.4763 14.1621 11.5556 14.151 11.6338L13.9853 12.7956C13.9618 12.9589 14.0752 13.1103 14.2385 13.1337C14.2385 13.1337 14.2385 13.1337 14.2385 13.1337L16.0127 13.3873C16.0266 13.3891 16.0407 13.39 16.0548 13.39C16.2035 13.3902 16.3296 13.2809 16.3508 13.1337L16.5165 11.9719C16.5398 11.8086 16.691 11.695 16.8543 11.7183C16.9328 11.7295 17.0036 11.7714 17.0511 11.8348L17.7554 12.7735C17.8544 12.9055 18.0416 12.9322 18.1736 12.8333L19.6072 11.758C19.7392 11.659 19.7659 11.4719 19.6669 11.3399L18.963 10.4011C18.8891 10.3049 18.8819 10.1732 18.945 10.0696C19.0048 9.96407 19.124 9.90687 19.2437 9.92625L20.4056 10.092C20.5688 10.1155 20.7202 10.0021 20.7437 9.83881C20.7437 9.83878 20.7437 9.83878 20.7437 9.83874L20.9969 8.06461C21.0204 7.90131 20.907 7.74996 20.7437 7.72651ZM10.8444 18.3092H13.2338V18.9065H10.8444V18.3092ZM10.8444 19.5038H13.2338V19.8025C13.2338 20.1324 12.9664 20.3999 12.6364 20.3999H11.4417C11.1118 20.3999 10.8444 20.1324 10.8444 19.8025V19.5038ZM8.46664 14.3532C8.62972 14.4866 8.80011 14.6107 8.97708 14.7251C9.25929 14.9034 9.47172 15.1732 9.57891 15.4894L8.93825 16.1288L8.3179 15.7011C8.04626 15.5139 7.6743 15.5824 7.48706 15.854C7.44219 15.9192 7.41068 15.9926 7.3944 16.07L7.23789 16.8158H6.52795L6.37144 16.0712C6.30349 15.7484 5.98671 15.5417 5.66388 15.6097C5.58649 15.6259 5.51309 15.6574 5.44794 15.7023L4.82729 16.1288L4.28311 15.5858L4.71051 14.9658C4.89789 14.6943 4.82964 14.3223 4.55811 14.1349C4.49293 14.0899 4.41945 14.0583 4.34195 14.042L3.59735 13.8852V13.1755L4.34195 13.0187C4.66466 12.9503 4.87082 12.6332 4.80239 12.3105C4.78615 12.2339 4.75505 12.1613 4.71081 12.0967L4.28311 11.4749L4.82729 10.9319L5.44824 11.3596C5.71999 11.5466 6.09195 11.4779 6.27896 11.2061C6.32376 11.1411 6.3552 11.0677 6.37144 10.9904L6.42371 10.7419C6.47157 11.0861 6.55083 11.4251 6.66056 11.7547C5.6778 11.8719 4.97611 12.7636 5.09326 13.7463C5.21042 14.7291 6.10211 15.4308 7.08486 15.3136C7.67646 15.2431 8.19433 14.8831 8.46664 14.3532ZM8.0028 13.9324C7.77977 14.5523 7.09643 14.8741 6.4765 14.6511C5.85656 14.428 5.53481 13.7447 5.75781 13.1248C5.92843 12.6505 6.37872 12.3346 6.88273 12.3357C6.88662 12.3357 6.8902 12.3357 6.89408 12.3357C7.16875 12.9279 7.54385 13.4681 8.0028 13.9324ZM20.1929 9.45763L19.3267 9.33398C18.8368 9.26401 18.383 9.60447 18.313 10.0943C18.2794 10.3296 18.3407 10.5685 18.4833 10.7587L19.0081 11.4585L18.0523 12.1753L17.5272 11.4758C17.2304 11.0798 16.6687 10.9995 16.2728 11.2964C16.0827 11.439 15.957 11.6512 15.9234 11.8865L15.8024 12.7538L14.6199 12.5848L14.7436 11.7186C14.8137 11.2287 14.4735 10.7747 13.9836 10.7046C13.7482 10.6709 13.5091 10.7321 13.3189 10.8748L12.6191 11.3996L11.9023 10.4439L12.6018 9.91878C12.9977 9.6219 13.078 9.06028 12.7811 8.66439C12.6386 8.47428 12.4264 8.34858 12.1911 8.3149L11.325 8.19125L11.494 7.0088L12.3602 7.13245C12.85 7.2026 13.304 6.86233 13.3741 6.37247C13.4078 6.13708 13.3466 5.89799 13.2039 5.70777L12.6774 5.00738L13.6331 4.29056L14.1582 4.99035C14.4551 5.38628 15.0167 5.46659 15.4126 5.16971C15.6027 5.02716 15.7284 4.81492 15.7621 4.57968L15.8857 3.71352L17.0682 3.88227L16.9445 4.74843C16.8746 5.23833 17.215 5.69216 17.7049 5.76213C17.9401 5.79573 18.1791 5.7345 18.3692 5.59188L19.069 5.06711L19.7858 6.02287L19.086 6.54794C18.6901 6.84482 18.6098 7.40644 18.9067 7.80234C19.0492 7.99244 19.2615 8.11815 19.4967 8.15182L20.3629 8.27548L20.1929 9.45763Z" fill="black"/>
<path d="M15.8425 5.84375C14.5229 5.84375 13.4531 6.91353 13.4531 8.23315C13.4531 9.55277 14.5229 10.6225 15.8425 10.6225C17.1621 10.6225 18.2319 9.55277 18.2319 8.23315C18.2304 6.91413 17.1615 5.84521 15.8425 5.84375ZM15.8425 10.0252C14.8528 10.0252 14.0505 9.22288 14.0505 8.23315C14.0505 7.24341 14.8528 6.4411 15.8425 6.4411C16.8323 6.4411 17.6346 7.24341 17.6346 8.23315C17.6334 9.2224 16.8318 10.024 15.8425 10.0252Z" fill="black"/>
<path d="M12.3376 16.2188H11.7402V17.1148H12.3376V16.2188Z" fill="black"/>
<path d="M10.733 13.2852C8.88928 12.5649 7.97851 10.4864 8.6988 8.64263C8.97791 7.9282 9.47883 7.32215 10.1279 6.91356L9.80864 6.4082C7.85471 7.63915 7.2686 10.221 8.49955 12.1749C8.97627 12.9317 9.68308 13.5156 10.5162 13.841C11.2536 14.1236 11.7406 14.8314 11.7408 15.6211H12.3381C12.339 14.585 11.7006 13.6558 10.733 13.2852Z" fill="black"/>
<path d="M19.8056 14.1279H17.7148V14.7253H19.8056V14.1279Z" fill="black"/>
<path d="M17.607 15.6905L17.2246 16.1494L19.0168 17.6425L19.3991 17.1836L17.607 15.6905Z" fill="black"/>
<path d="M16.5192 16.5171H15.9219V18.6078H16.5192V16.5171Z" fill="black"/>
<path d="M5.69392 7.56584L3.30469 8.16309L3.44947 8.74228L5.8387 8.14504L5.69392 7.56584Z" fill="black"/>
<path d="M4.14779 4.62648L3.80078 5.1123L5.89134 6.60552L6.23834 6.1197L4.14779 4.62648Z" fill="black"/>
<path d="M6.93809 3.00243L6.35938 3.15039L6.97024 5.5396L7.54895 5.39164L6.93809 3.00243Z" fill="black"/>
</g>
<defs>
<clipPath id="clip0_1_1712">
<rect width="18" height="18" fill="white" transform="translate(3 3)"/>
</clipPath>
</defs>
</svg>
