<svg width="24" height="24" viewBox="0 0 24 24" fill="none" xmlns="http://www.w3.org/2000/svg">
<g clip-path="url(#clip0_1_2679)">
<path d="M23.8407 10.0078C23.6277 9.79477 23.282 9.79477 23.0692 10.0078L21.7809 11.2961C21.4682 7.06301 18.4681 3.51124 14.3468 2.49502C10.2258 1.4786 5.91837 3.22851 3.67334 6.83083C3.56804 6.99607 3.55945 7.20527 3.65096 7.3787C3.74247 7.55214 3.9199 7.66323 4.11591 7.66942C4.31192 7.67582 4.49635 7.57631 4.59865 7.40907C6.57933 4.23154 10.3673 2.67245 14.0108 3.53521C17.6544 4.39798 20.341 7.4898 20.6867 11.2182L19.4757 10.0078C19.2617 9.80116 18.9214 9.80396 18.7108 10.0146C18.5004 10.225 18.4974 10.5652 18.7042 10.7794L20.8867 12.9617C21.0997 13.1749 21.4452 13.1749 21.6582 12.9617L23.8407 10.7794C24.0539 10.5664 24.0539 10.2208 23.8407 10.0078Z" fill="#595959"/>
<path d="M20.1479 16.4786C19.8924 16.3193 19.5559 16.3968 19.3957 16.6518C17.415 19.8297 13.627 21.3888 9.98315 20.526C6.33947 19.6633 3.65287 16.5713 3.3074 12.8427L4.51803 14.0533C4.73203 14.2599 5.0723 14.2571 5.28289 14.0465C5.49329 13.8361 5.49629 13.4958 5.28949 13.2816L3.10699 11.0993C2.894 10.8862 2.54853 10.8862 2.33554 11.0993L0.153247 13.2816C-0.0535535 13.4958 -0.0507562 13.8361 0.15984 14.0465C0.370237 14.2571 0.710509 14.2599 0.924702 14.0533L2.21286 12.7649C2.52576 16.9981 5.52566 20.5498 9.64688 21.566C13.7681 22.5825 18.0753 20.8328 20.3204 17.2302C20.4798 16.9751 20.4027 16.6388 20.1479 16.4786Z" fill="#595959"/>
</g>
<defs>
<clipPath id="clip0_1_2679">
<rect width="24" height="24" fill="white"/>
</clipPath>
</defs>
</svg>
