<svg width="24" height="24" viewBox="0 0 24 24" fill="none" xmlns="http://www.w3.org/2000/svg">
<path d="M11.0408 17.28C7.58478 17.28 4.80078 14.496 4.80078 11.04C4.80078 7.58405 7.58478 4.80005 11.0408 4.80005C14.4968 4.80005 17.2808 7.58405 17.2808 11.04C17.2808 14.496 14.4968 17.28 11.0408 17.28ZM11.0408 5.76005C8.11278 5.76005 5.76078 8.11205 5.76078 11.04C5.76078 13.968 8.11278 16.32 11.0408 16.32C13.9688 16.32 16.3208 13.968 16.3208 11.04C16.3208 8.11205 13.9688 5.76005 11.0408 5.76005Z" fill="#595959"/>
<path d="M15.6865 15.0082L19.9969 19.3186L19.3182 19.9973L15.0078 15.6869L15.6865 15.0082Z" fill="#595959"/>
</svg>
