<svg width="24" height="24" viewBox="0 0 24 24" fill="none" xmlns="http://www.w3.org/2000/svg">
<path d="M17.6 4H6.4C5.07969 4 4 5.08008 4 6.4V17.6C4 18.9199 5.07969 20 6.4 20H17.6C18.9203 20 20 18.9199 20 17.6V6.4C20 5.08008 18.9203 4 17.6 4ZM15.568 10.568L11.568 14.568C11.4078 14.7199 11.2078 14.8 11 14.8C10.7922 14.8 10.5922 14.7199 10.432 14.568L8.43203 12.568C8.12031 12.2559 8.12031 11.7441 8.43203 11.432C8.74375 11.1199 9.25625 11.1199 9.56797 11.432L11 12.8719L14.432 9.43203C14.7438 9.11992 15.2563 9.11992 15.568 9.43203C15.8797 9.74414 15.8797 10.2559 15.568 10.568Z" fill="#2D9596"/>
</svg>
