<svg width="24" height="24" viewBox="0 0 24 24" fill="none" xmlns="http://www.w3.org/2000/svg">
<g clip-path="url(#clip0_424_4387)">
<path fill-rule="evenodd" clip-rule="evenodd" d="M12.7318 8.62322C12.5442 8.43575 12.2899 8.33044 12.0248 8.33044C11.7596 8.33044 11.5053 8.43575 11.3178 8.62322L5.66076 14.2802C5.56525 14.3725 5.48906 14.4828 5.43666 14.6048C5.38425 14.7268 5.35666 14.858 5.35551 14.9908C5.35435 15.1236 5.37965 15.2553 5.42994 15.3782C5.48022 15.5011 5.55447 15.6127 5.64836 15.7066C5.74225 15.8005 5.85391 15.8748 5.9768 15.925C6.0997 15.9753 6.23138 16.0006 6.36416 15.9995C6.49694 15.9983 6.62816 15.9707 6.75016 15.9183C6.87217 15.8659 6.98251 15.7897 7.07476 15.6942L12.0248 10.7442L16.9748 15.6942C17.1634 15.8764 17.416 15.9772 17.6782 15.9749C17.9404 15.9726 18.1912 15.8675 18.3766 15.682C18.562 15.4966 18.6672 15.2458 18.6694 14.9836C18.6717 14.7214 18.5709 14.4688 18.3888 14.2802L12.7318 8.62322Z" fill="#616161"/>
</g>
<rect x="-0.5" y="0.5" width="23" height="23" rx="0.5" transform="matrix(-1 0 0 1 23 0)" stroke="#E0E0E0"/>
<defs>
<clipPath id="clip0_424_4387">
<rect width="24" height="24" rx="1" transform="matrix(-1 0 0 1 24 0)" fill="white"/>
</clipPath>
</defs>
</svg>
