<svg width="16" height="16" viewBox="0 0 16 16" fill="none" xmlns="http://www.w3.org/2000/svg">
<path d="M15.478 7.57763C15.55 7.34459 15.586 7.10378 15.586 6.85909C15.586 6.30951 15.4 5.78129 15.064 5.35017C15.136 5.11714 15.172 4.87633 15.172 4.63164C15.172 4.08206 14.986 3.55384 14.65 3.12272C14.722 2.88968 14.758 2.64888 14.758 2.40419C14.758 1.40213 14.144 0.499105 13.192 0.104883C13.0247 0.0348331 12.8442 -0.000869735 12.662 1.60885e-05H0.64C0.286 1.60885e-05 0 0.27772 0 0.62145V7.69026C0 8.03399 0.286 8.3117 0.64 8.3117H3.226L4.942 14.3474C5.218 15.3203 6.138 16 7.178 16C7.772 16 8.326 15.7708 8.736 15.3514C9.146 14.9339 9.356 14.3862 9.326 13.8094L9.206 11.4227H14.004C14.246 11.4227 14.482 11.3606 14.69 11.2421C15.498 10.7858 16 9.9585 16 9.08655C16 8.53697 15.814 8.00875 15.478 7.57763ZM1.44 6.91153V1.3963H3.06V6.91153H1.44ZM13.984 10.0265H7.696L7.888 13.8794C7.9 14.1105 7.794 14.328 7.596 14.4717C7.474 14.559 7.324 14.6037 7.174 14.6018C6.98236 14.6 6.7965 14.5379 6.64432 14.4248C6.49213 14.3116 6.38184 14.1537 6.33 13.9745L4.34 6.97367V1.3963H12.648C12.8479 1.48329 13.0177 1.62451 13.1369 1.80297C13.2561 1.98143 13.3197 2.18953 13.32 2.40225C13.32 2.59062 13.274 2.76928 13.182 2.93241L12.904 3.42567L13.342 3.79465C13.4653 3.89833 13.5641 4.02658 13.6318 4.17068C13.6994 4.31478 13.7343 4.47134 13.734 4.6297C13.734 4.81807 13.688 4.99673 13.596 5.15986L13.318 5.65312L13.756 6.0221C13.8793 6.12578 13.9781 6.25403 14.0458 6.39813C14.1134 6.54223 14.1483 6.69879 14.148 6.85715C14.148 7.04552 14.102 7.22419 14.01 7.38731L13.73 7.88252L14.168 8.25149C14.2913 8.35517 14.3901 8.48343 14.4578 8.62752C14.5254 8.77162 14.5603 8.92818 14.56 9.08655C14.56 9.45747 14.34 9.81479 13.984 10.0265Z" fill="#2957A4"/>
</svg>
