<svg width="11" height="10" viewBox="0 0 11 10" fill="none" xmlns="http://www.w3.org/2000/svg">
<path d="M0.886902 5.32622C0.886902 5.62706 1.00641 5.91557 1.21914 6.1283C1.43186 6.34103 1.72038 6.46053 2.02122 6.46053C2.32206 6.46053 2.61058 6.34103 2.8233 6.1283C3.03603 5.91557 3.15554 5.62706 3.15554 5.32622V1.13432C3.15554 0.833479 3.03603 0.54496 2.8233 0.332234C2.61058 0.119508 2.32206 0 2.02122 0C1.72038 0 1.43186 0.119508 1.21914 0.332234C1.00641 0.54496 0.886902 0.833479 0.886902 1.13432V5.32622Z" fill="#3755BE"/>
<path d="M8.00818 5.50543H9.69752C9.84414 5.50543 9.98896 5.47322 10.1218 5.41108C10.2545 5.34894 10.3721 5.25838 10.466 5.14582C10.5599 5.03325 10.628 4.90143 10.6654 4.75966C10.7028 4.61789 10.7085 4.46964 10.6823 4.3254L10.12 1.23291C10.0571 0.886936 9.87481 0.574008 9.60483 0.348694C9.33486 0.12338 8.99437 -2.45545e-05 8.64273 3.6647e-09H5.51283C5.31565 -1.34594e-06 5.12041 0.0388364 4.93824 0.114295C4.75608 0.189754 4.59056 0.300357 4.45114 0.439787L4.32974 0.561246C4.1903 0.700656 4.07969 0.86617 4.00423 1.04834C3.92877 1.2305 3.88994 1.42575 3.88995 1.62292V5.37287C3.89084 5.57295 3.93135 5.77087 4.00914 5.9552C4.08694 6.13954 4.20047 6.30665 4.34319 6.44687C4.52531 6.62798 4.70789 6.81467 4.89095 7.00695C5.66939 7.82543 6.39833 8.6896 7.0739 9.59485C7.16577 9.71933 7.28535 9.82072 7.42318 9.891C7.56102 9.96127 7.71331 9.9985 7.86802 9.99973L7.9052 9.99995C8.06801 10.0013 8.22869 9.96298 8.3733 9.88819C8.51792 9.8134 8.64209 9.70443 8.73504 9.57076C8.82799 9.43709 8.8869 9.28275 8.90667 9.12115C8.92644 8.95954 8.90646 8.79555 8.84847 8.64342C8.47582 7.66863 7.99975 6.4305 7.77381 5.84357C7.75933 5.80571 7.75431 5.76488 7.75918 5.72464C7.76405 5.6844 7.77866 5.64595 7.80175 5.61264C7.82484 5.57932 7.85571 5.55215 7.89169 5.53346C7.92766 5.51478 7.96765 5.50516 8.00818 5.50543Z" fill="#3755BE"/>
</svg>
