<svg width="28" height="28" viewBox="0 0 28 28" fill="none" xmlns="http://www.w3.org/2000/svg">
<circle cx="14" cy="14" r="14" fill="#FFE0E0"/>
<path d="M7.14507 15.404V9.67837H9.69657L9.82541 9.66397C12.1942 9.13916 13.7638 8.76077 14.5461 8.52636C15.5852 8.21516 15.9726 8.13916 16.6774 8.09436C17.2046 8.05996 17.8033 8.25276 18.0761 8.51676C18.2269 8.66236 18.3397 8.96156 18.3843 9.42556C18.3936 9.52286 18.4302 9.61601 18.4903 9.69525C18.5505 9.77449 18.632 9.83691 18.7262 9.87597C18.9359 9.96237 19.1102 10.1032 19.2559 10.308C19.3906 10.4952 19.4782 10.844 19.4942 11.3488C19.497 11.4416 19.5247 11.5322 19.5747 11.612C19.6246 11.6917 19.6952 11.7581 19.7797 11.8048C20.2697 12.0744 20.5123 12.3784 20.5628 12.7352C20.6184 13.1296 20.4836 13.5736 20.1308 14.0792C20.048 14.1977 20.0172 14.3423 20.0449 14.4822C20.0725 14.622 20.1565 14.7461 20.279 14.828C20.6167 15.0536 20.8019 15.3672 20.8483 15.812C20.9224 16.5208 20.4466 17.0448 19.3696 17.1496C18.4103 17.2397 17.4418 17.163 16.5115 16.9232C16.406 16.897 16.2948 16.9 16.191 16.9318C16.0872 16.9636 15.9951 17.0229 15.9256 17.1027C15.856 17.1826 15.812 17.2796 15.7985 17.3824C15.7851 17.4853 15.8028 17.5896 15.8497 17.6832C16.2707 18.5296 16.5048 19.228 16.5595 19.7688C16.6311 20.4864 16.4568 21.0064 16.0492 21.4352C15.7402 21.76 15.2459 21.9456 15.0606 21.9072C14.8164 21.8576 14.6573 21.7232 14.4501 21.2528C14.328 20.9744 14.2691 20.7376 14.168 20.1848C14.0712 19.66 14.0181 19.4232 13.9078 19.1128C13.5752 18.172 12.7592 17.1968 11.6637 16.524C10.8959 16.053 10.0637 15.6842 9.19048 15.428C9.13593 15.412 9.07916 15.4039 9.02207 15.404H7.14507ZM7.1097 8.58797C6.83771 8.58076 6.5935 8.63836 6.38888 8.77436C6.12783 8.94796 6.00489 9.22156 6.00236 9.53677L6.00489 15.3952C5.97626 15.7072 6.0731 15.9936 6.30214 16.2064C6.51688 16.4064 6.79729 16.5008 7.0937 16.4944H8.93365C9.67793 16.7197 10.3875 17.0376 11.0439 17.44C11.9264 17.9824 12.5765 18.76 12.8249 19.4608C12.91 19.7024 12.9554 19.9024 13.0413 20.3728C13.1575 21.004 13.2299 21.2976 13.3967 21.6752C13.7419 22.4608 14.195 22.8448 14.8198 22.9736C15.4345 23.1 16.3296 22.7632 16.8955 22.168C17.5229 21.5088 17.7999 20.684 17.6972 19.6648C17.6534 19.2264 17.5254 18.736 17.3149 18.1896C18.0338 18.2891 18.7629 18.3042 19.4858 18.2344C21.1758 18.0704 22.1249 17.0248 21.9868 15.7032C21.9261 15.1336 21.7089 14.6496 21.3392 14.2696C21.6499 13.7008 21.7737 13.1384 21.6962 12.5896C21.607 11.9576 21.2365 11.4312 20.6201 11.0224C20.5721 10.468 20.4382 10.0256 20.2007 9.69437C20.0136 9.42679 19.7695 9.19949 19.4841 9.02717C19.3931 8.47996 19.202 8.05196 18.8896 7.75116C18.3717 7.25036 17.4462 6.95196 16.6008 7.00636C15.7983 7.05756 15.3234 7.15036 14.2034 7.48636C13.4649 7.70796 11.9357 8.07596 9.63089 8.58797H7.10886H7.1097ZM8.54208 15.6528C8.54186 15.7243 8.55651 15.7953 8.58518 15.8614C8.61386 15.9276 8.65601 15.9878 8.7092 16.0385C8.76239 16.0892 8.82559 16.1294 8.89518 16.1568C8.96476 16.1843 9.03936 16.1984 9.1147 16.1984C9.18989 16.1982 9.26431 16.1839 9.3337 16.1564C9.40309 16.1288 9.46609 16.0886 9.5191 16.0379C9.57212 15.9872 9.61411 15.9272 9.64268 15.8611C9.67126 15.795 9.68585 15.7242 9.68563 15.6528V9.51037C9.68574 9.43893 9.67104 9.36817 9.64236 9.30212C9.61369 9.23608 9.5716 9.17605 9.51851 9.12546C9.46541 9.07487 9.40235 9.03472 9.33292 9.00728C9.26349 8.97984 9.18905 8.96567 9.11385 8.96557C9.03866 8.96567 8.96422 8.97984 8.89479 9.00728C8.82536 9.03472 8.76229 9.07487 8.7092 9.12546C8.65611 9.17605 8.61402 9.23608 8.58535 9.30212C8.55667 9.36817 8.54197 9.43893 8.54208 9.51037V15.6528Z" fill="#AB1313"/>
</svg>
