<svg width="16" height="17" viewBox="0 0 16 17" fill="none" xmlns="http://www.w3.org/2000/svg">
<path d="M7.58169 16.775C9.33472 16.7739 11.0333 16.1657 12.3886 15.0539C13.7439 13.942 14.6724 12.3951 15.0161 10.6761C15.3598 8.95712 15.0976 7.17213 14.2741 5.62459C13.4505 4.07705 12.1164 2.86248 10.4986 2.18736C10.4266 2.15492 10.3488 2.13726 10.2698 2.1354C10.1908 2.13355 10.1123 2.14755 10.0388 2.17657C9.96533 2.20559 9.89842 2.24904 9.84202 2.30437C9.78563 2.35969 9.7409 2.42575 9.71047 2.49866C9.68004 2.57157 9.66454 2.64983 9.66488 2.72883C9.66521 2.80783 9.68138 2.88596 9.71243 2.9586C9.74348 3.03125 9.78877 3.09693 9.84564 3.15177C9.9025 3.20661 9.96978 3.24949 10.0435 3.27789C11.4095 3.847 12.5362 4.87184 13.2318 6.17802C13.9274 7.4842 14.1489 8.99104 13.8587 10.4422C13.5685 11.8933 12.7845 13.199 11.6401 14.1372C10.4957 15.0755 9.06154 15.5882 7.58169 15.5882C6.10184 15.5882 4.66771 15.0755 3.52329 14.1372C2.37887 13.199 1.59487 11.8933 1.30467 10.4422C1.01448 8.99104 1.23602 7.4842 1.9316 6.17802C2.62719 4.87184 3.75384 3.847 5.11988 3.27789C5.1936 3.24949 5.26088 3.20661 5.31775 3.15177C5.37461 3.09693 5.41991 3.03125 5.45095 2.9586C5.482 2.88596 5.49817 2.80783 5.49851 2.72883C5.49884 2.64983 5.48334 2.57157 5.45291 2.49866C5.42249 2.42575 5.37775 2.35969 5.32136 2.30437C5.26496 2.24904 5.19805 2.20559 5.12457 2.17657C5.0511 2.14755 4.97255 2.13355 4.89357 2.1354C4.81459 2.13726 4.73679 2.15492 4.66475 2.18736C3.04694 2.86248 1.71286 4.07705 0.889301 5.62459C0.0657451 7.17213 -0.196454 8.95712 0.147277 10.6761C0.491007 12.3951 1.41945 13.942 2.77478 15.0539C4.13011 16.1657 5.82866 16.7739 7.58169 16.775Z" fill="#242424"/>
<path d="M6.9906 0.816077V8.50001C6.9906 8.65677 7.05287 8.80711 7.16372 8.91796C7.27457 9.0288 7.42491 9.09108 7.58167 9.09108C7.73843 9.09108 7.88878 9.0288 7.99962 8.91796C8.11047 8.80711 8.17274 8.65677 8.17274 8.50001V0.816077C8.17274 0.659316 8.11047 0.508974 7.99962 0.398127C7.88878 0.287279 7.73843 0.225006 7.58167 0.225006C7.42491 0.225006 7.27457 0.287279 7.16372 0.398127C7.05287 0.508974 6.9906 0.659316 6.9906 0.816077Z" fill="#242424"/>
</svg>
