<svg width="12" height="14" viewBox="0 0 12 14" fill="none" xmlns="http://www.w3.org/2000/svg">
<g id="Group">
<g id="Group_2">
<g id="Group_3">
<path id="Vector" d="M10.8758 2.35789H10.3305L10.1537 0.781053C10.1095 0.338947 9.72632 0 9.28421 0H2.46105C2.01895 0 1.63579 0.338947 1.59158 0.781053L1.41474 2.35789H0.869474C0.383158 2.35789 0 2.75579 0 3.22737V13.1305C0 13.6168 0.397895 14 0.869474 14H10.8611C11.3474 14 11.7305 13.6021 11.7305 13.1305V3.22737C11.7453 2.75579 11.3621 2.35789 10.8758 2.35789ZM6.58737 1.29684C6.58737 1.12 6.73474 0.987368 6.89684 0.987368H8.53263C8.70947 0.987368 8.8421 1.13474 8.8421 1.29684V1.75368C8.8421 1.93053 8.69474 2.06316 8.53263 2.06316H6.91158C6.73474 2.06316 6.60211 1.91579 6.60211 1.75368V1.29684H6.58737ZM5.29053 0.987368C5.58526 0.987368 5.83579 1.22316 5.83579 1.53263C5.83579 1.82737 5.6 2.07789 5.29053 2.07789C4.99579 2.07789 4.74526 1.84211 4.74526 1.53263C4.74526 1.23789 4.99579 0.987368 5.29053 0.987368ZM3.44842 0.987368C3.74316 0.987368 3.99368 1.22316 3.99368 1.53263C3.99368 1.82737 3.75789 2.07789 3.44842 2.07789C3.15368 2.07789 2.90316 1.84211 2.90316 1.53263C2.90316 1.23789 3.15368 0.987368 3.44842 0.987368ZM5.88 12.0105C3.77263 12.0105 2.04842 10.3011 2.04842 8.17895C2.04842 6.07158 3.75789 4.34737 5.88 4.34737C7.98737 4.34737 9.71158 6.05684 9.71158 8.17895C9.71158 10.2863 7.98737 12.0105 5.88 12.0105Z" fill="#292B5D"/>
<path id="Vector_2" d="M5.70316 6.73509H6.07158C6.3221 6.73509 6.52842 6.92667 6.57263 7.16246C6.57263 7.20667 6.61684 7.23614 6.66105 7.23614H7.38316C7.42737 7.23614 7.47158 7.19193 7.47158 7.14772C7.42737 6.51404 6.95579 5.98351 6.33684 5.86562V5.32035C6.33684 5.27614 6.29263 5.23193 6.24842 5.23193H5.52631C5.4821 5.23193 5.43789 5.27614 5.43789 5.32035V5.86562C4.76 5.98351 4.25894 6.60246 4.30316 7.32457C4.34737 8.06141 4.99579 8.62141 5.73263 8.62141H6.07158C6.38105 8.62141 6.63158 8.90141 6.55789 9.22562C6.51368 9.46141 6.29263 9.62351 6.0421 9.62351H5.67368C5.42316 9.62351 5.21684 9.43193 5.17263 9.19614C5.17263 9.15193 5.12842 9.12246 5.08421 9.12246H4.3621C4.31789 9.12246 4.27368 9.16667 4.27368 9.21088C4.31789 9.84456 4.78947 10.3751 5.40842 10.493V11.0382C5.40842 11.0825 5.45263 11.1267 5.49684 11.1267H6.21894C6.26316 11.1267 6.30737 11.0825 6.30737 11.0382V10.493C6.91158 10.3604 7.39789 9.8593 7.4421 9.22562C7.50105 8.41509 6.85263 7.7372 6.05684 7.7372H5.67368C5.36421 7.7372 5.11368 7.4572 5.18737 7.13299C5.24631 6.8972 5.46737 6.73509 5.70316 6.73509Z" fill="#292B5D"/>
</g>
</g>
</g>
</svg>
