<svg width="131" height="125" viewBox="0 0 131 125" fill="none" xmlns="http://www.w3.org/2000/svg">
<path opacity="0.7" d="M113.321 57.2296C113.321 83.566 91.918 104.918 65.5192 104.918C39.1205 104.918 17.7177 83.566 17.7177 57.2296C17.7177 30.8932 39.1205 9.54095 65.5192 9.54095C91.918 9.54095 113.321 30.8932 113.321 57.2296Z" fill="#F2F2F3"/>
<g style="mix-blend-mode:multiply" opacity="0.7">
<path d="M107.471 57.2296C107.471 80.3461 88.6904 99.0821 65.5192 99.0821C42.348 99.0821 23.5677 80.3461 23.5677 57.2296C23.5677 34.1131 42.348 15.3771 65.5192 15.3771C88.6904 15.3771 107.471 34.1131 107.471 57.2296Z" fill="#F2F2F3"/>
</g>
<path d="M24.5897 92.5617C24.3073 92.2308 24.0316 91.8954 23.7627 91.5555" stroke="#F2F2F3" stroke-width="1.43384" stroke-linecap="round" stroke-linejoin="round"/>
<path d="M19.4028 91.0539C12.6261 81.754 8.64234 70.3226 8.64234 57.9696C8.64234 26.7284 34.1613 1.40344 65.6417 1.40344C97.1222 1.40344 122.641 26.7284 122.641 57.9696C122.641 76.4569 113.702 92.8689 99.8867 103.189" stroke="#F2F2F3" stroke-width="1.43384" stroke-linecap="round" stroke-linejoin="round" stroke-dasharray="4.3 4.3"/>
<path d="M97.4855 101.832C97.1314 102.083 96.775 102.331 96.4164 102.577" stroke="#F2F2F3" stroke-width="1.43384" stroke-linecap="round" stroke-linejoin="round"/>
<path d="M85.0124 49.1529C85.0124 49.1529 81.0856 53.4864 80.8637 53.5602C80.6418 53.634 76.9368 52.3259 76.9368 52.3259L79.0616 49.5218L85.0124 48.8443" fill="#F9C09E"/>
<path d="M85.0124 49.1529C85.0124 49.1529 81.0856 53.4864 80.8637 53.5602C80.6418 53.634 76.9368 52.3259 76.9368 52.3259L79.0616 49.5218L85.0124 48.8443" stroke="#E4B192" stroke-width="0.865469" stroke-linecap="round" stroke-linejoin="round"/>
<path d="M84.8376 56.8606C84.8376 56.8606 80.9107 61.1941 80.6888 61.2679C80.4669 61.3417 76.7619 60.0336 76.7619 60.0336L78.8867 57.2228L84.8376 56.552" fill="#F9C09E"/>
<path d="M84.8376 56.8606C84.8376 56.8606 80.9107 61.1941 80.6888 61.2679C80.4669 61.3417 76.7619 60.0336 76.7619 60.0336L78.8867 57.2228L84.8376 56.552" stroke="#E4B192" stroke-width="0.865469" stroke-linecap="round" stroke-linejoin="round"/>
<path d="M84.3265 63.9445C84.3265 63.9445 79.9021 68.1102 79.6735 68.1572C79.4381 68.2109 75.908 66.4869 75.908 66.4869L78.3421 63.9377L84.3265 63.9445Z" fill="#F9C09E" stroke="#E4B192" stroke-width="0.865469" stroke-linecap="round" stroke-linejoin="round"/>
<path d="M76.5065 44.3901C75.2961 42.8338 75.5718 40.6 77.1251 39.3992L84.7031 33.7174C86.2497 32.5166 88.4888 32.7983 89.6991 34.3479C90.9095 35.9042 90.6338 38.1381 89.0872 39.3388L81.5092 45.0207C79.9559 46.2215 77.7168 45.9397 76.5065 44.3901Z" fill="#F9C09E" stroke="#E4B192" stroke-width="0.865469" stroke-linecap="round" stroke-linejoin="round"/>
<g style="mix-blend-mode:multiply" opacity="0.8">
<path d="M76.0022 41.7873C76.1098 40.9085 76.5603 40.1237 77.2596 39.5736L82.5716 35.5956C81.9463 37.1855 81.8723 39.2382 82.464 40.7744C82.7733 41.5727 83.1902 42.4045 83.8156 43.0082L81.3747 44.8395C80.783 45.3024 80.077 45.5439 79.3306 45.5439C78.2884 45.5439 77.3268 45.0743 76.688 44.2492C76.1367 43.5449 75.8946 42.6728 76.0022 41.7873Z" fill="#ECEBE8"/>
</g>
<path d="M44.2174 54.0969C45.3605 52.2521 45.5891 49.9378 46.2817 48.6968C46.517 48.6834 46.7456 48.6364 46.9742 48.5358C48.7763 47.7442 50.2825 48.2742 52.1451 48.5358C52.3737 48.5693 52.1854 51.5075 51.8694 52.3863C53.4966 50.6958 57.0335 47.3887 58.775 46.094L75.9079 71.5852C70.0916 80.3796 60.6981 84.2972 60.6981 84.2972C53.0931 83.8612 41.5008 76.3547 41.5008 76.3547C38.085 73.5976 38.159 68.1573 38.159 68.1573C37.3386 61.3417 44.2174 54.0969 44.2174 54.0969Z" fill="#F9C09E" stroke="#E4B192" stroke-width="0.865469" stroke-linecap="round" stroke-linejoin="round"/>
<g style="mix-blend-mode:multiply" opacity="0.8">
<path d="M65.7479 69.9148C68.377 70.1764 71.0061 70.4447 73.6419 70.6594C74.3614 70.7198 75.0809 70.807 75.8071 70.8875C75.7668 70.9881 75.7331 71.0887 75.6995 71.1893C75.6995 71.2027 75.6995 71.2027 75.6928 71.2162C75.6592 71.2765 75.6255 71.3369 75.5919 71.3973C75.4305 71.6522 75.3499 71.8736 75.1952 72.1218C74.9733 72.4773 74.6774 72.8798 74.5161 73.2756C74.5026 73.2957 74.4892 73.3158 74.4757 73.336H54.4044C52.9856 73.336 52.1451 72.5108 52.1451 71.1222V68.5933C56.6838 69.0092 61.2158 69.4653 65.7479 69.9148Z" fill="#ECEBE8"/>
</g>
<path d="M54.8414 72.1219C53.4496 72.1219 52.6225 71.2967 52.6225 69.9014V25.0571C52.6225 23.6618 53.1537 23.1385 54.5456 23.1385H76.2711C78.5304 23.1385 79.7743 23.1788 80.2316 23.3197C81.4621 23.7087 79.2633 25.359 78.7926 25.6541V69.6063C78.7926 70.1765 79.4718 71.1559 79.8752 71.5785C80.4535 72.1889 80.3795 72.1219 76.2711 72.1219H54.8414Z" fill="#244F7A" stroke="#B7B9BB" stroke-width="0.865469" stroke-linecap="round" stroke-linejoin="round"/>
<path d="M55.6483 66.5875C54.4044 66.5875 53.9942 66.3192 53.9942 65.2526V28.7801C53.9942 27.7135 54.4044 27.4452 55.6483 27.4452H76.0626C77.3133 27.4452 77.4209 27.7135 77.4209 28.7801V65.2526C77.4209 66.3192 77.0107 66.5875 75.7668 66.5875H55.6483Z" fill="#DFE4EF" stroke="#292B5D" stroke-width="0.865469" stroke-linecap="round" stroke-linejoin="round"/>
<path d="M70.3539 69.244C70.3539 69.841 69.8697 70.3307 69.2713 70.3307H62.1438C61.5453 70.3307 61.0545 69.841 61.0545 69.244C61.0545 68.647 61.5453 68.1573 62.1438 68.1573H69.2713C69.8697 68.1573 70.3539 68.647 70.3539 69.244Z" fill="#DFE4EF" stroke="#A6A9AB" stroke-width="0.865469" stroke-linecap="round" stroke-linejoin="round"/>
<g opacity="0.7">
<path d="M61.3302 69.1634C62.4127 68.2981 63.6769 68.5329 64.9544 68.5396C66.1984 68.5463 67.4423 68.4926 68.8073 68.4323C69.1368 68.4188 69.4125 68.4188 69.7151 68.4054C69.5806 68.3316 69.4327 68.2914 69.2713 68.2914H62.1438C61.6193 68.2914 61.1889 68.7207 61.1889 69.2439C61.1889 69.2708 61.1889 69.2909 61.1957 69.3177C61.2293 69.2641 61.2696 69.2104 61.3302 69.1634Z" fill="#AFB1B2"/>
</g>
<path d="M71.8265 25.6474H59.5886C59.434 25.6474 59.3129 25.5133 59.3129 25.3523C59.3129 25.1846 59.434 25.0504 59.5886 25.0504H71.8265C71.9744 25.0504 72.0954 25.1846 72.0954 25.3523C72.0954 25.5133 71.9744 25.6474 71.8265 25.6474Z" fill="#DFE4EF"/>
<path d="M80.9174 69.7605C80.8973 68.7207 80.9174 67.6877 80.9174 66.6546C80.9174 65.5276 80.9174 64.4029 80.9174 63.2804C80.9174 61.8717 80.9174 53.9493 80.9174 52.5406C80.9174 50.9619 80.9174 49.381 80.9174 47.7979C80.9174 46.1745 80.9174 44.5511 80.9174 42.921C80.9174 41.2976 80.9174 39.6742 80.9174 38.0508C80.9174 36.6086 80.9242 35.1663 80.9174 33.724C80.9174 32.5032 80.9107 31.2823 80.9174 30.0681C80.9219 29.0574 80.9174 28.0467 80.904 27.036C80.8973 26.5731 80.8905 26.1102 80.8905 25.6541C80.8905 23.3867 80.6014 23.2928 79.8617 23.2928C78.5774 23.2928 78.7926 25.2918 78.7926 25.6541C78.7926 25.7793 78.7926 25.9045 78.7926 26.0297C78.7926 26.2176 78.7926 26.4076 78.7926 26.5999C78.7926 26.9085 78.7926 27.2171 78.7926 27.5257C78.7926 27.9639 78.7926 28.4022 78.7926 28.8405C78.7926 29.404 78.7926 29.9652 78.7926 30.5242C78.7926 31.1816 78.7926 31.839 78.7926 32.4964C78.7926 33.2165 78.7926 33.9365 78.7926 34.6565C78.7926 35.4212 78.7926 36.186 78.7926 36.9507C78.7926 37.7467 78.7926 38.5405 78.7926 39.3321C78.7926 40.155 78.7926 40.9756 78.7926 41.794C78.7926 42.6348 78.7926 43.4733 78.7926 44.3096C78.7926 45.1548 78.7926 46.0023 78.7926 46.852C78.7926 47.6883 78.7926 48.5246 78.7926 49.3609C78.7926 50.1703 78.7926 50.9798 78.7926 51.7892C78.7926 52.5495 78.7926 53.3098 78.7926 54.07C78.7926 54.7677 78.7926 61.979 78.7926 62.6699C78.7926 63.2826 78.7926 63.8953 78.7926 64.508C78.7926 65.0357 78.7926 65.5634 78.7926 66.0911C78.7926 66.5428 78.7926 66.9945 78.7926 67.4462C78.7926 67.8487 78.7926 68.2512 78.7926 68.6537C78.7926 69.5593 78.7523 70.5118 78.9204 71.404C78.9742 71.7126 79.0818 71.9742 79.4045 72.0614C79.539 72.1017 79.7071 72.1218 79.8483 72.1218C80.9914 72.1218 80.9376 70.599 80.9242 69.8008C80.9197 69.7874 80.9174 69.7739 80.9174 69.7605Z" fill="#D7D7D8" stroke="#B7B9BB" stroke-width="0.865469" stroke-linecap="round" stroke-linejoin="round"/>
<path d="M80.2517 36.1324C80.2517 36.2866 80.0769 36.4141 79.8617 36.4141C79.6466 36.4141 79.4717 36.2866 79.4717 36.1324V31.0274C79.4717 30.8731 79.6466 30.7457 79.8617 30.7457C80.0769 30.7457 80.2517 30.8731 80.2517 31.0274V36.1324Z" fill="#F2F2F3"/>
<path d="M80.1442 30.0614C80.1397 30.0658 80.1374 30.0703 80.1374 30.0748C80.0971 30.1821 79.9626 30.2492 79.855 30.2492C79.7878 30.2492 79.7004 30.2157 79.6466 30.1754C79.5726 30.1218 79.5592 30.0413 79.5592 29.9608C79.5592 29.7125 79.5659 29.4711 79.5659 29.2296C79.5659 29.0619 79.5323 28.9411 79.6869 28.8338C79.7743 28.7734 79.8886 28.7533 79.9895 28.8069C80.1845 28.921 80.1442 29.1289 80.1374 29.3168C80.1374 29.4599 80.1374 29.603 80.1374 29.7461C80.1374 29.8467 80.1711 29.9608 80.1442 30.0614Z" fill="#F2F2F3"/>
<path d="M53.4966 23.4606C52.9789 23.6954 52.7704 24.1851 52.7704 25.0571V69.9015C52.7704 70.6662 53.0259 71.2364 53.4966 71.5852C53.4226 71.0888 53.1335 70.2771 53.1335 69.9753C53.1335 69.1166 53.1335 68.8147 53.1335 67.9561C53.1335 66.695 53.1335 65.6082 53.1335 64.3404C53.1335 62.7505 53.2478 61.0466 53.2478 59.4568C53.2478 57.6724 53.1335 51.199 53.1335 49.4213C53.1335 47.543 53.1335 45.8324 53.1335 43.9541C53.1335 42.1161 53.1335 40.2847 53.1335 38.4467C53.1335 36.716 53.1335 35.0859 53.1335 33.3552C53.1335 31.9397 53.1335 30.3834 53.1335 28.968C53.1335 27.6934 53.1335 26.1506 53.1335 24.876C53.1335 24.3259 53.3688 24.0509 53.4966 23.4606Z" fill="#EFEFEF"/>
<g style="mix-blend-mode:multiply">
<path d="M78.7926 69.6063V38.876C78.7321 39.0973 78.6514 39.3254 78.6312 39.5535C78.3421 42.116 78.3017 44.6987 78.3623 46.9728C78.4766 51.1252 78.2479 58.7792 78.2278 62.7505C78.2143 65.4539 78.5505 68.9824 75.8676 70.4918C74.5497 71.2364 73.1982 71.2699 71.7794 71.4175C70.3203 71.5718 68.3501 71.6858 66.9313 71.981H76.298C80.4064 71.981 80.6081 71.9944 79.8752 71.5785C79.4314 71.3236 78.7926 70.1765 78.7926 69.6063Z" fill="#DDDDDB"/>
</g>
<path d="M75.955 43.2967C75.955 43.9608 75.4104 44.5042 74.738 44.5042H56.6771C56.0047 44.5042 55.46 43.9608 55.46 43.2967V33.1472C55.46 32.4764 56.0047 31.9397 56.6771 31.9397H74.738C75.4104 31.9397 75.955 32.4764 75.955 33.1472V43.2967Z" fill="#292B5D" stroke="#391C59" stroke-width="0.258349" stroke-linecap="round" stroke-linejoin="round"/>
<g style="mix-blend-mode:multiply" opacity="0.5">
<path d="M75.4977 40.8683C75.3969 41.9819 75.2758 42.8204 74.1596 43.2833C72.7005 43.887 71.154 43.7663 69.6007 43.8535C68.6056 43.9071 67.5297 44.0681 66.5345 44.1755C66.0773 44.2224 65.5058 44.3096 65.0754 44.417H74.7379C75.3565 44.417 75.8608 43.9138 75.8608 43.2967V36.4141C75.6524 37.8563 75.6255 39.4059 75.4977 40.8683Z" fill="#D7D7D8"/>
</g>
<path d="M73.6486 42.6795C73.5545 42.9277 73.3057 43.1089 73.1443 43.1089C73.1443 43.1089 70.2194 43.1089 70.2059 43.1089C69.4595 43.1089 69.4932 41.1299 70.2059 41.1299C70.2059 41.1299 73.1107 41.1299 73.1443 41.1299C73.6957 41.1299 73.8571 42.0959 73.6486 42.6795Z" fill="#F2F2F3" stroke="#8789B9" stroke-width="0.0516698" stroke-linecap="round" stroke-linejoin="round"/>
<path d="M67.4356 42.8271C67.4356 42.9814 67.328 43.1088 67.2003 43.1088H57.9143C57.7865 43.1088 57.6789 42.9814 57.6789 42.8271C57.6789 42.6795 57.7865 42.5521 57.9143 42.5521H67.2003C67.328 42.5521 67.4356 42.6795 67.4356 42.8271Z" fill="#F2F2F3" stroke="#8789B9" stroke-width="0.0516698" stroke-linecap="round" stroke-linejoin="round"/>
<path d="M68.7132 41.4117C68.7132 41.566 68.5921 41.6867 68.4442 41.6867H57.9479C57.8 41.6867 57.6789 41.566 57.6789 41.4117C57.6789 41.2574 57.8 41.1299 57.9479 41.1299H68.4442C68.5921 41.1299 68.7132 41.2574 68.7132 41.4117Z" fill="#F2F2F3" stroke="#8789B9" stroke-width="0.0516698" stroke-linecap="round" stroke-linejoin="round"/>
<g opacity="0.4">
<path d="M57.8605 44.4169H56.6771C56.6681 44.4169 56.6591 44.4169 56.6502 44.4169C56.6031 44.4169 56.5628 44.4102 56.5291 44.4035C56.3543 44.3834 56.1862 44.3163 56.045 44.2224C56.0316 44.2134 56.0204 44.2067 56.0114 44.2022C56.0069 44.1978 56.0024 44.1955 55.9979 44.1955C55.9038 44.1217 55.8231 44.0345 55.7559 43.9406C55.7514 43.9361 55.7491 43.9339 55.7491 43.9339C55.6147 43.7461 55.5474 43.5247 55.5474 43.2966V33.1471C55.5474 32.53 56.0517 32.0269 56.6771 32.0269H57.2957C56.6166 32.2415 56.0181 32.4495 55.9172 33.288C55.6214 35.6694 55.85 38.0106 55.8097 38.8491C55.8164 38.8893 55.8164 38.9229 55.8164 38.9564C55.8231 39.3053 55.8231 39.6474 55.8097 39.9895C55.7962 40.4389 55.7626 40.8884 55.7828 41.3378C55.8029 41.8745 55.729 43.1289 56.045 43.7193C56.3207 44.2358 57.6184 44.3565 57.8605 44.4169Z" fill="#9EA0A1"/>
</g>
<path d="M62.722 36.0049C62.722 36.1525 62.6009 36.2732 62.4597 36.2732H58.5262C58.3849 36.2732 58.2639 36.1525 58.2639 36.0049V33.7979C58.2639 33.657 58.3849 33.5363 58.5262 33.5363H62.4597C62.6009 33.5363 62.722 33.657 62.722 33.7979V36.0049Z" fill="#AFB5B9" stroke="#8E9494" stroke-width="0.50378" stroke-linecap="round" stroke-linejoin="round"/>
<path d="M58.358 34.3547H62.6345" stroke="#8E9494" stroke-width="0.50378" stroke-linecap="round" stroke-linejoin="round"/>
<path d="M58.358 35.3005H62.6345" stroke="#8E9494" stroke-width="0.50378" stroke-linecap="round" stroke-linejoin="round"/>
<path d="M60.4963 33.5363V36.2732" stroke="#8E9494" stroke-width="0.50378" stroke-linecap="round" stroke-linejoin="round"/>
<path fill-rule="evenodd" clip-rule="evenodd" d="M68.1819 33.8381H68.6056C68.7894 33.8381 68.9283 33.8627 69.0225 33.9119C69.1704 33.9835 69.2443 34.1154 69.2443 34.3077C69.2443 34.4285 69.2107 34.5246 69.1435 34.5962C69.1031 34.6364 69.0426 34.6767 68.9619 34.7169C69.1906 34.7795 69.3049 34.9293 69.3049 35.1664C69.3049 35.3721 69.2354 35.5174 69.0964 35.6024C68.9933 35.6605 68.8387 35.6896 68.6325 35.6896H68.1819C68.1595 35.6896 68.1461 35.6874 68.1416 35.6829C68.1326 35.6739 68.1282 35.6583 68.1282 35.6359V33.8918C68.1282 33.856 68.1461 33.8381 68.1819 33.8381ZM68.4913 34.6029H68.5787C68.7759 34.6029 68.8745 34.5179 68.8745 34.348C68.8745 34.1959 68.7849 34.1199 68.6056 34.1199H68.4913V34.6029ZM68.4913 35.4079H68.5921C68.7042 35.4079 68.7849 35.3922 68.8342 35.3609C68.9014 35.3206 68.935 35.2491 68.935 35.1462C68.935 35.0434 68.9014 34.9718 68.8342 34.9316C68.7849 34.9047 68.7064 34.8913 68.5988 34.8913H68.4913V35.4079Z" fill="#F2F2F3"/>
<path fill-rule="evenodd" clip-rule="evenodd" d="M70.6228 35.6425L70.421 35.7298C70.3897 35.7342 70.3762 35.7365 70.3807 35.7365C70.3717 35.7365 70.3583 35.7186 70.3404 35.6828C70.3224 35.647 70.3112 35.6112 70.3067 35.5755C70.1992 35.6828 70.0804 35.7365 69.9504 35.7365C69.8248 35.7365 69.7262 35.6984 69.6545 35.6224C69.5828 35.5509 69.5469 35.4502 69.5469 35.3206C69.5469 35.1238 69.6388 34.9896 69.8226 34.9181C69.9212 34.8823 70.0647 34.8644 70.2529 34.8644V34.7772C70.2529 34.7056 70.2395 34.6542 70.2126 34.6229C70.1857 34.5916 70.1342 34.5759 70.058 34.5759C69.9997 34.5759 69.9302 34.5894 69.8495 34.6162C69.7688 34.643 69.7262 34.6564 69.7217 34.6564C69.7128 34.6564 69.7038 34.6475 69.6949 34.6296L69.6411 34.4686C69.6366 34.4552 69.6343 34.444 69.6343 34.4351C69.6343 34.4038 69.6881 34.3747 69.7957 34.3479C69.8988 34.321 70.0042 34.3076 70.1117 34.3076C70.4255 34.3076 70.5824 34.453 70.5824 34.7437V35.2669C70.5824 35.3697 70.6048 35.486 70.6497 35.6157C70.6497 35.6247 70.6407 35.6336 70.6228 35.6425ZM70.2529 35.3809V35.0858C70.1543 35.0858 70.0826 35.0925 70.0378 35.1059C69.9257 35.1372 69.8697 35.202 69.8697 35.3004C69.8697 35.3541 69.8876 35.3988 69.9235 35.4346C69.9593 35.4704 70.0019 35.4883 70.0512 35.4883C70.1185 35.4883 70.1857 35.4525 70.2529 35.3809Z" fill="#F2F2F3"/>
<path d="M72.0213 34.7034V35.656C72.0213 35.6783 72.0101 35.6895 71.9877 35.6895H71.7188C71.6919 35.6895 71.6784 35.6783 71.6784 35.656V34.8174C71.6784 34.6654 71.6291 34.5894 71.5305 34.5894C71.4498 34.5894 71.3691 34.6274 71.2884 34.7034V35.656C71.2884 35.6783 71.275 35.6895 71.2481 35.6895H70.9791C70.9567 35.6895 70.9455 35.6783 70.9455 35.656V34.8376C70.9455 34.681 70.9365 34.5692 70.9186 34.5022C70.9007 34.4351 70.8917 34.406 70.8917 34.4149C70.8917 34.4015 70.9007 34.3904 70.9186 34.3814L71.127 34.3143C71.145 34.3099 71.1584 34.3076 71.1674 34.3076C71.1988 34.3076 71.2279 34.3702 71.2548 34.4954C71.3938 34.3702 71.5327 34.3076 71.6717 34.3076C71.9048 34.3076 72.0213 34.4395 72.0213 34.7034Z" fill="#F2F2F3"/>
<path d="M73.0569 34.9382L73.5545 35.5353C73.5679 35.5532 73.5747 35.5666 73.5747 35.5755C73.5747 35.5845 73.5702 35.5934 73.5612 35.6024L73.3326 35.7298C73.3192 35.7343 73.3079 35.7365 73.299 35.7365C73.29 35.7365 73.2788 35.7276 73.2654 35.7097L72.7678 35.0657V35.656C72.7678 35.6784 72.7543 35.6896 72.7274 35.6896H72.4585C72.4316 35.6896 72.4181 35.6784 72.4181 35.656V33.8314C72.4181 33.809 72.4361 33.7934 72.4719 33.7844L72.7005 33.7375C72.7185 33.733 72.7319 33.7308 72.7409 33.7308C72.7588 33.7308 72.7678 33.7487 72.7678 33.7844V34.8578L73.2855 34.3345C73.299 34.3166 73.3124 34.3077 73.3259 34.3077C73.3348 34.3077 73.3505 34.3166 73.3729 34.3345L73.5074 34.4486C73.5164 34.4575 73.5209 34.4664 73.5209 34.4754C73.5209 34.4843 73.5141 34.4977 73.5007 34.5156L73.0569 34.9382Z" fill="#F2F2F3"/>
<path d="M75.3095 53.0973C75.3095 54.7006 74.005 56.002 72.398 56.002H60.8258C59.2188 56.002 57.9143 54.7006 57.9143 53.0973C57.9143 51.4941 59.2188 50.1994 60.8258 50.1994H72.398C74.005 50.1994 75.3095 51.4941 75.3095 53.0973Z" fill="#292B5D" stroke="#292B5D" stroke-width="0.542533" stroke-linecap="round" stroke-linejoin="round"/>
<g opacity="0.4">
<path d="M64.6922 50.877C66.232 50.8032 67.8928 50.8032 69.4327 50.7898C70.5287 50.7831 71.7525 50.7965 72.8418 50.9172C73.9378 51.038 74.5093 51.8027 75.128 52.6614C74.9195 51.3466 73.7764 50.3403 72.398 50.3403H60.8258C59.2927 50.3403 58.0555 51.5746 58.0555 53.0974C58.0555 53.1578 58.0555 53.2114 58.0622 53.2651C58.8086 50.3403 62.6279 50.9776 64.6922 50.877Z" fill="#ABADAF"/>
</g>
<path d="M85.4159 46.8319C85.7252 48.4821 84.8174 50.0317 83.3785 50.3134L78.1673 51.3063C76.7284 51.5813 75.3028 50.4744 74.9868 48.8309C74.6708 47.1874 75.5853 45.6311 77.0242 45.3561L82.2354 44.3566C83.6743 44.0815 85.0931 45.1884 85.4159 46.8319Z" fill="#F9C09E" stroke="#E4B192" stroke-width="0.865469" stroke-linecap="round" stroke-linejoin="round"/>
<path d="M78.6582 45.98C78.4833 45.933 78.3018 45.9665 78.127 46.0001C77.7571 46.0672 77.394 46.1611 77.0242 46.2349C76.103 46.4093 75.5449 47.5027 75.7735 48.6767C75.9954 49.8573 76.9234 50.669 77.8378 50.4946C78.1135 50.4409 78.3892 50.3873 78.6649 50.3336C79.0616 50.2531 79.5323 50.2933 79.687 49.7433C79.8349 49.2267 79.7811 48.4821 79.6735 47.932C79.5659 47.3619 79.3575 46.5502 78.9608 46.1544C78.8666 46.0605 78.7658 46.0068 78.6582 45.98Z" fill="#FBD4AF"/>
<path d="M86.458 53.5937C86.7741 55.2373 85.6982 56.8271 84.0508 57.1424L78.0798 58.2828C76.4324 58.5981 74.8388 57.518 74.5228 55.8745C74.2067 54.231 75.2893 52.6412 76.9367 52.3259L82.901 51.1855C84.5484 50.8702 86.142 51.9502 86.458 53.5937Z" fill="#F9C09E" stroke="#E4B192" stroke-width="0.865469" stroke-linecap="round" stroke-linejoin="round"/>
<path d="M78.4296 53.1175C78.2413 53.0773 78.0395 53.1108 77.8513 53.1443C77.4478 53.2248 77.0444 53.3255 76.6342 53.3993C75.6323 53.5938 74.9935 54.6403 75.202 55.7471C75.4172 56.8473 76.3989 57.5852 77.4008 57.3906C77.7056 57.337 78.0082 57.2811 78.3085 57.2229C78.7456 57.1357 79.2499 57.1559 79.4449 56.6326C79.6197 56.1429 79.5794 55.4453 79.4785 54.9287C79.3776 54.3921 79.1692 53.634 78.759 53.2718C78.6514 53.1846 78.5439 53.1376 78.4296 53.1175Z" fill="#FBD4AF"/>
<path d="M86.8885 60.4093C87.2045 62.0528 86.1287 63.6427 84.4812 63.9579L78.5103 65.0983C76.8629 65.4136 75.2692 64.3403 74.9532 62.6968C74.6372 61.0533 75.7198 59.4634 77.3672 59.1482L83.3314 58.001C84.9788 57.6925 86.5724 58.7658 86.8885 60.4093Z" fill="#F9C09E" stroke="#E4B192" stroke-width="0.865469" stroke-linecap="round" stroke-linejoin="round"/>
<path d="M78.8061 59.819C78.6178 59.7787 78.4161 59.8123 78.2278 59.8458C77.8177 59.9263 77.4075 60.0269 76.9973 60.1007C75.9887 60.2953 75.3499 61.3954 75.5718 62.5492C75.7937 63.7098 76.7956 64.4946 77.8042 64.3001C78.109 64.2419 78.4139 64.1838 78.7187 64.1257C79.1625 64.0385 79.6735 64.0653 79.8618 63.5152C80.0366 63.0054 79.9895 62.2675 79.882 61.7241C79.7744 61.1606 79.5659 60.3624 79.1423 59.98C79.0347 59.8928 78.9204 59.8391 78.8061 59.819Z" fill="#FBD4AF"/>
<path d="M51.5601 73.0006C55.803 64.9977 52.9991 56.9814 51.4929 54.0633C52.0779 51.6551 52.7973 47.5832 52.9991 46.1343C53.3487 43.6522 54.7204 37.4538 50.2086 36.6489C48.7562 36.3872 47.4517 39.8151 47.1155 41.6398L45.9858 47.8918C45.0579 50.9843 43.9888 53.1309 42.6641 55.4251C42.6641 55.4251 38.9592 59.7117 38.1725 66.3125" fill="#F9C09E"/>
<path d="M51.5601 73.0006C55.803 64.9977 52.9991 56.9814 51.4929 54.0633C52.0779 51.6551 52.7973 47.5832 52.9991 46.1343C53.3487 43.6522 54.7204 37.4538 50.2086 36.6489C48.7562 36.3872 47.4517 39.8151 47.1155 41.6398L45.9858 47.8918C45.0579 50.9843 43.9888 53.1309 42.6641 55.4251C42.6641 55.4251 38.9592 59.7117 38.1725 66.3125" stroke="#E4B192" stroke-width="0.865469" stroke-linecap="round" stroke-linejoin="round"/>
<g opacity="0.4">
<path d="M52.6023 69.9752C52.8847 68.1841 53.1335 65.91 52.9587 64.1793C52.757 62.2675 52.7503 60.2081 52.1451 58.3767C51.5466 56.5655 50.3296 54.7006 50.5582 53.4127C51.1499 50.0116 52.0577 46.5837 52.4678 43.2296C52.7503 40.9421 52.1451 38.1381 49.8051 36.9105C49.8858 36.8769 49.9732 36.8568 50.0539 36.8568C50.0942 36.8568 50.1346 36.8613 50.1749 36.8702C54.0951 37.5679 53.3016 42.6795 52.878 45.4232C52.8444 45.6714 52.804 45.8995 52.7771 46.1007C52.5821 47.496 51.8761 51.5545 51.271 54.0097C51.2575 54.0634 51.2642 54.1237 51.2911 54.1707C51.7416 55.036 55.1978 62.1266 52.6023 69.9752Z" fill="#9EA0A1"/>
</g>
<path d="M49.3479 40.5664C49.1596 41.3244 48.9108 42.0556 48.6284 42.7801C48.0636 42.6929 47.9157 42.7063 47.1088 42.4313L47.2365 41.7336C47.4786 40.4255 48.225 38.2319 49.1596 37.2391C50.2153 37.7825 49.5093 39.9023 49.3479 40.5664Z" fill="#FBD4AF"/>
<g style="mix-blend-mode:multiply" opacity="0.8">
<path d="M42.3279 56.21C41.1042 58.9737 40.4116 61.865 40.5124 64.9239C40.6335 68.7744 41.9043 71.8602 45.1588 73.8324C48.541 75.8784 52.5553 77.864 56.3275 79.0648C59.3331 80.0174 62.6548 80.9431 65.8286 81.1578C63.1121 82.9757 60.994 83.9215 60.6578 84.0691C53.1941 83.6129 41.7362 76.2406 41.6219 76.1669C38.3473 73.5238 38.3809 68.2176 38.3809 68.164C38.0918 63.7634 40.4116 58.9737 42.3279 56.21Z" fill="#ECEBE8"/>
</g>
<path d="M31.4013 86.4304C31.0382 87.2287 31.0449 87.7653 31.8921 88.1477L55.7761 98.9814C56.6233 99.3705 57.0335 99.0217 57.3966 98.2234L63.1053 85.7059C63.4684 84.9076 63.4617 84.3777 62.6077 83.9886L38.7238 73.1549C37.8766 72.7725 37.4731 73.1146 37.11 73.9129L31.4013 86.4304Z" fill="#E6E7E8" stroke="#BBBDBF" stroke-width="0.865469" stroke-linecap="round" stroke-linejoin="round"/>
<path d="M23.0702 100.585C22.4247 101.993 22.3036 102.866 23.2517 103.295L49.8253 115.356C50.7734 115.785 51.3584 115.115 51.9972 113.706L62.0766 91.6024C62.7153 90.1937 62.8364 89.315 61.895 88.8856L35.3147 76.831C34.3666 76.4017 33.7884 77.0725 33.1428 78.4812L23.0702 100.585Z" fill="#292B5D"/>
<g opacity="0.3">
<path d="M56.5762 87.5372C53.5639 86.2627 50.6591 84.7802 47.6601 83.4989C45.9522 82.7744 44.0695 81.9091 42.4019 81.1041C40.8755 80.3662 38.3136 79.1319 36.6999 78.6019C34.9852 78.0317 34.5414 78.0183 32.968 79.4069L33.3513 78.5684C33.8825 77.4011 34.2994 76.9249 34.7835 76.9249C34.9113 76.9249 35.0659 76.9651 35.2206 77.0322L61.8009 89.0935C62.4128 89.3686 62.6212 89.8583 61.8681 91.5085L61.579 92.1458C62.4396 89.1271 58.4657 88.3422 56.5762 87.5372Z" fill="#9EA0A1"/>
</g>
<g style="mix-blend-mode:multiply">
<path d="M23.7762 99.5651C25.5043 99.9609 27.2525 100.283 28.947 100.846C32.8335 102.141 36.3233 104.395 40.3443 105.327C44.0089 106.173 47.7946 106.307 51.3382 104.885C53.5302 104.013 55.5945 102.845 57.3898 101.343L51.7954 113.612C51.2642 114.779 50.8473 115.256 50.3632 115.256C50.2287 115.256 50.0808 115.222 49.9194 115.148L23.3458 103.094C22.7272 102.812 22.5188 102.329 23.2719 100.679L23.7762 99.5651Z" fill="#BCBCBC"/>
</g>
<path d="M93.6326 66.3393C92.8324 63.2267 92.1668 62.5425 90.6404 62.737C89.114 62.9382 88.6702 64.0317 88.8451 65.3599L89.1409 70.6728C88.6164 70.5453 89.1409 70.6728 88.5761 70.5856L87.2716 62.9919C87.0968 61.6637 85.7184 60.7514 84.1987 60.9459C82.6724 61.1472 81.5763 62.3815 81.7512 63.7097L82.1344 70.0825C81.6839 70.0758 81.9529 70.0758 81.5293 70.0825L80.3055 62.6968C80.1307 61.3685 78.7522 60.4495 77.2326 60.6508C75.7062 60.852 74.6102 62.0863 74.785 63.4145L75.3229 70.4649C75.0204 70.5252 74.738 70.6124 74.4623 70.7063L72.3106 54.1639C72.1357 52.8357 70.7573 51.9167 69.2377 52.1179C67.7113 52.3125 66.6153 53.5535 66.7901 54.8817C66.8708 55.5123 66.9537 56.1451 67.0389 56.7801C67.2361 58.323 67.4378 59.8681 67.644 61.4155C67.8996 63.3788 68.1551 65.3443 68.4106 67.312C68.6459 69.1433 68.8813 70.9814 69.1301 72.8194C69.4528 75.1807 69.6478 77.589 69.9975 79.957C70.1051 80.6613 70.2126 81.359 70.3135 82.0566C70.3404 82.2042 70.327 82.4524 70.3942 82.5866C69.3923 80.6881 68.5787 78.8367 67.7718 77.7634C66.1379 75.5966 64.8536 74.852 63.7239 74.1879C61.8479 73.0878 58.2707 74.4764 59.239 76.0796C59.7567 76.9248 62.6346 80.5137 63.381 81.3925C64.9477 83.2373 65.8218 85.3638 66.3866 87.6848C66.8304 89.5228 67.7382 91.5957 69.0292 93.0514C69.8428 93.957 72.0685 95.4596 73.615 97.1501C73.6217 97.1501 94.6278 94.6479 94.6278 94.6479C94.7152 92.4879 95.5826 91.428 96.3693 89.5161C96.8064 88.4428 97.1896 86.7255 97.156 85.5315C97.0888 82.7207 96.5038 79.5545 96.0062 77.0121C95.2733 73.2823 94.4933 69.6733 93.6326 66.3393Z" fill="#F9C09E" stroke="#D9A98C" stroke-width="0.65879" stroke-linecap="round" stroke-linejoin="round"/>
<g style="mix-blend-mode:multiply">
<path d="M88.751 93.4606C86.3909 93.1184 83.9567 93.8228 81.6168 94.1113C78.0732 94.5473 74.4085 95.9828 71.766 92.991C70.401 91.4414 68.4039 89.2411 67.7248 87.3695C66.8843 85.0485 66.0303 82.6402 64.356 80.8223C63.455 79.8429 59.7702 75.704 59.3399 75.1673C59.3399 75.1718 59.3376 75.1762 59.3332 75.1807C59.2054 75.449 59.2256 75.7174 59.3869 75.9924C59.8845 76.8108 62.749 80.3863 63.5088 81.2852C64.941 82.9622 65.9026 84.9881 66.5481 87.6446C67.0457 89.6838 68.0207 91.6628 69.157 92.9373C69.5 93.3197 70.1119 93.8161 70.8179 94.393C71.7525 95.1577 72.8082 96.0231 73.6891 96.969C74.9801 96.8147 90.5598 94.9632 93.9554 94.554C92.2206 94.1716 90.4925 93.7155 88.751 93.4606Z" fill="#ECEBEA"/>
</g>
<path d="M71.6449 55.6196C71.6987 55.4653 71.6786 55.2976 71.6584 55.1366C71.618 54.7945 71.5508 54.4524 71.5037 54.1103C71.3961 53.265 70.4212 52.6948 69.3318 52.8424C68.2425 52.9833 67.4424 53.7816 67.5567 54.6268C67.5881 54.8817 67.6217 55.1344 67.6576 55.3848C67.7046 55.7538 67.6441 56.1764 68.1417 56.3575C68.6057 56.5185 69.2915 56.5051 69.8025 56.438C70.3337 56.3709 71.0868 56.2233 71.4701 55.8879C71.5643 55.8074 71.618 55.7135 71.6449 55.6196Z" fill="#FBD4AF"/>
<path opacity="0.4" d="M75.7332 64.3269C75.6256 62.6834 75.7198 61.5094 77.7168 60.8587C77.7572 60.852 77.7841 60.8185 77.8177 60.7984C77.6361 60.7916 77.4479 60.7983 77.2596 60.8185C75.8274 61.0063 74.7986 62.1601 74.96 63.3944L75.4844 70.324C75.9148 67.9426 75.8206 65.7222 75.7332 64.3269Z" fill="#9EA0A1"/>
<path opacity="0.4" d="M85.0797 61.1337C84.804 61.0868 84.5148 61.0801 84.2257 61.1136C83.5264 61.2075 82.9011 61.5295 82.464 62.0192C82.0404 62.5022 81.8454 63.0992 81.9261 63.6896L82.2623 69.358C83.2171 65.7825 80.7897 62.0528 85.0797 61.1337Z" fill="#9EA0A1"/>
<path opacity="0.4" d="M89.2889 66.0441C89.4234 64.7025 89.3427 63.5889 90.8489 62.8912C90.7884 62.8979 90.7279 62.8979 90.6673 62.9114C89.9949 62.9986 89.5242 63.2669 89.2553 63.7163C89.0065 64.1188 88.9258 64.6689 89.0132 65.3397L89.2418 69.3445C89.3898 68.2243 89.2082 66.829 89.2889 66.0441Z" fill="#9EA0A1"/>
<path opacity="0.4" d="M70.0312 73.3427C69.7757 70.76 69.3991 67.8353 68.7738 64.072C68.3165 61.3149 67.6845 58.0614 67.4357 55.0897C67.2877 53.3053 68.2358 52.7619 70.1656 52.3326C70.1791 52.3259 70.1925 52.3192 70.1993 52.3192C69.9034 52.2588 69.5874 52.2454 69.2579 52.2856C68.5586 52.3796 67.94 52.6948 67.5029 53.1912C67.0793 53.6742 66.8843 54.2646 66.9583 54.8616L69.8765 77.2402C69.8765 77.2536 69.8765 77.2692 69.8765 77.2871C69.8496 77.4481 70.4481 81.7414 70.4481 81.7414C70.7237 78.9575 70.3069 76.1199 70.0312 73.3427Z" fill="#9EA0A1"/>
<path d="M73.1511 109.601C73.2453 110.345 73.4873 110.727 74.2875 110.634L96.6316 107.903C97.4251 107.809 97.573 107.373 97.4789 106.629L96.0399 94.9163C95.9525 94.1649 95.7037 93.7826 94.9103 93.8765L72.5661 96.6067C71.766 96.7006 71.6248 97.1367 71.7189 97.8813L73.1511 109.601Z" fill="#E6E7E8" stroke="#BBBDBF" stroke-width="0.65879" stroke-linecap="round" stroke-linejoin="round"/>
<path d="M73.0704 123.104C73.2318 124.406 73.5276 125.096 74.4085 124.989L100.263 121.823C101.137 121.716 101.264 120.978 101.103 119.67L97.8352 99.3168C97.6738 98.0155 97.378 97.3245 96.4971 97.4318L71.9071 100.43C71.033 100.538 70.9053 101.282 71.0666 102.584L73.0704 123.104Z" fill="#292B5D"/>
<g opacity="0.3">
<path d="M92.0525 98.8004C89.3091 99.2028 86.5455 99.4108 83.8021 99.8133C82.2488 100.041 80.5005 100.249 78.9338 100.404C77.5016 100.538 75.1011 100.779 73.6958 101.101C72.203 101.443 71.8735 101.631 71.3491 103.335L71.2549 102.564C71.1272 101.477 71.2146 100.954 71.5642 100.739C71.6584 100.679 71.7861 100.638 71.9341 100.625L96.524 97.6197C97.0956 97.5526 97.4587 97.8075 97.6469 99.337L97.7209 99.934C97.0082 97.3648 93.7806 98.5522 92.0525 98.8004Z" fill="#9EA0A1"/>
</g>
<g style="mix-blend-mode:multiply">
<path d="M73.1309 122.051C74.5564 121.581 75.9685 121.038 77.4411 120.703C80.83 119.924 84.8644 119.951 88.1929 118.844C91.2187 117.845 94.0159 116.268 95.9524 113.679C97.1493 112.076 98.5076 110.486 99.1397 108.608L100.915 119.696C101.043 120.776 100.955 121.306 100.606 121.521C100.505 121.581 100.384 121.615 100.236 121.635L74.3816 124.801C73.8168 124.868 73.447 124.607 73.2587 123.077L73.1309 122.051Z" fill="#BCBCBC"/>
</g>
<path d="M16.8146 56.3726C16.8146 60.9208 13.123 64.6036 8.56412 64.6036C4.00519 64.6036 0.313671 60.9208 0.313671 56.3726C0.313671 51.8245 4.00519 48.1417 8.56412 48.1417C13.123 48.1417 16.8146 51.8245 16.8146 56.3726Z" fill="#F2F2F3"/>
<path fill-rule="evenodd" clip-rule="evenodd" d="M13.4256 60.4177V60.733C13.4256 60.8873 13.3315 60.9477 13.1029 60.9477H4.01193C3.78331 60.9477 3.68917 60.8873 3.68917 60.733V60.4177C3.68917 60.2634 3.78331 60.1964 4.01193 60.1964H4.50951C4.48261 60.1628 4.46244 60.1226 4.46244 60.0622V59.7402C4.46244 59.5926 4.54313 59.5255 4.73813 59.5255H5.01381C5.01381 59.5211 5.01381 59.5166 5.01381 59.5121V55.7153C4.86588 55.6884 4.83226 55.5945 4.83226 55.3866V55.0109C4.7964 55.0109 4.76054 55.0132 4.72468 55.0176H4.46244C4.26072 55.0176 4.09262 55.0109 3.85727 54.9908C3.78331 54.9841 3.72279 54.9371 3.6959 54.8633C3.66228 54.7694 3.68917 54.6554 3.76986 54.5749C3.8371 54.5078 3.89089 54.4541 3.95141 54.4005C4.01193 54.3401 4.07917 54.2797 4.14641 54.2126C4.51847 53.8191 4.89278 53.4255 5.26933 53.032C5.5876 52.6966 5.90588 52.3634 6.22415 52.0325L7.90517 50.2615C8.05982 50.1005 8.26827 50.0133 8.49016 50.0133C8.71206 50.0133 8.9205 50.1005 9.07516 50.2615L9.10206 50.2951C9.28361 50.4829 10.151 51.3952 10.6015 51.8715C11.0924 52.3813 11.6034 52.871 12.0943 53.3473C12.4843 53.7229 12.8877 54.1187 13.2844 54.5212C13.2934 54.5257 13.3001 54.5324 13.3046 54.5413C13.3786 54.6084 13.513 54.7359 13.4122 54.9237C13.3718 54.9975 13.2912 55.0243 13.2441 55.031C13.1499 55.0512 13.0424 55.0579 12.9213 55.0579C12.8272 55.0579 12.7331 55.0512 12.6389 55.0512C12.5515 55.0445 12.4574 55.0377 12.37 55.0377C12.3386 55.0377 12.3072 55.0377 12.2758 55.0377V55.3866C12.2758 55.5945 12.2489 55.6884 12.0943 55.7153V59.5121C12.0943 59.5166 12.0943 59.5211 12.0943 59.5255H12.3767C12.5717 59.5255 12.6524 59.5926 12.6524 59.7402V60.0622C12.6524 60.1226 12.6322 60.1628 12.6053 60.1964H13.1029C13.3315 60.1964 13.4256 60.2634 13.4256 60.4177ZM7.79758 55.3866V55.0109C7.58689 55.0109 7.37621 55.0109 7.16552 55.0109H6.54018C6.47742 55.0109 6.41466 55.0109 6.35191 55.0109V55.3866C6.35191 55.5945 6.31829 55.6884 6.17036 55.7153V59.5121C6.17036 59.5166 6.16811 59.5211 6.16363 59.5255H7.97913C7.97913 59.5211 7.97913 59.5166 7.97913 59.5121V55.7153C7.8312 55.6884 7.79758 55.5945 7.79758 55.3866ZM10.7562 55.3866V55.0176C10.5007 55.0132 10.2451 55.0109 9.98963 55.0109H9.31722V55.3866C9.31722 55.5945 9.28361 55.6884 9.13568 55.7153V59.5121C9.13568 59.5166 9.13568 59.5211 9.13568 59.5255H10.9445C10.9445 59.5211 10.9422 59.5166 10.9377 59.5121V55.7153C10.7898 55.6884 10.7562 55.5945 10.7562 55.3866Z" fill="#8789B9"/>
<path d="M38.9648 13.2696C38.9648 17.8178 35.2666 21.5006 30.7144 21.5006C26.1554 21.5006 22.4572 17.8178 22.4572 13.2696C22.4572 8.72144 26.1554 5.03864 30.7144 5.03864C35.2666 5.03864 38.9648 8.72144 38.9648 13.2696Z" fill="#F2F2F3"/>
<path fill-rule="evenodd" clip-rule="evenodd" d="M36.2214 12.5317C36.1474 12.5787 36.0466 12.5586 35.9995 12.4848C35.9188 12.364 35.8045 12.297 35.6835 12.3104C35.6341 12.3148 35.5871 12.3327 35.5422 12.364C35.6566 12.4512 35.7574 12.5653 35.8179 12.7196C35.8986 12.9275 35.8583 13.1154 35.7104 13.2227C35.6364 13.2831 35.549 13.3099 35.4548 13.3099C35.354 13.3099 35.2531 13.2764 35.1724 13.216C34.9841 13.0751 34.9304 12.8269 35.0379 12.5452C35.0021 12.5452 34.9685 12.5519 34.9371 12.5653C34.8429 12.5988 34.7824 12.6592 34.7555 12.7464C34.9976 13.2898 35.1254 13.8801 35.1186 14.4168C35.1052 15.745 34.4731 17.2946 33.1081 17.8044L33.2023 18.2807C33.2157 18.3679 33.1888 18.4551 33.1283 18.5222C33.0678 18.596 32.9871 18.6429 32.8862 18.6563L32.0995 18.8039C32.0726 18.8084 32.0457 18.8106 32.0188 18.8106C31.844 18.8106 31.7028 18.7033 31.6759 18.5624L31.5885 18.0928C30.8892 18.1666 30.1966 18.1599 29.5645 18.0794L29.4771 18.5624C29.4502 18.7033 29.309 18.8106 29.1342 18.8106C29.1073 18.8106 29.0804 18.8084 29.0535 18.8039L28.2601 18.6563C28.1659 18.6429 28.0785 18.596 28.0247 18.5222C27.9642 18.4551 27.9373 18.3679 27.9508 18.2807L28.0583 17.6904C28.0449 17.6859 28.0292 17.6792 28.0113 17.6702C27.433 17.422 26.9354 16.9927 26.5858 16.4225C26.5813 16.4225 26.5746 16.4225 26.5656 16.4225H25.5772C25.3284 16.4225 25.1266 16.2213 25.1266 15.9731V13.7593C25.1266 13.5111 25.3284 13.3099 25.5772 13.3099H26.1487C26.337 12.5317 26.7337 11.9079 27.3254 11.4584C27.3209 11.4316 27.3142 11.4025 27.3052 11.3712C27.2246 11.1566 27.0833 11.009 26.9623 10.8882C26.8615 10.7876 26.7875 10.7138 26.7942 10.6266C26.8032 10.5819 26.8368 10.5394 26.8951 10.4992C26.9892 10.441 27.1147 10.412 27.2716 10.412C27.4128 10.412 27.5608 10.4388 27.702 10.479C27.628 10.3046 27.5137 10.1705 27.4195 10.0631C27.3187 9.94909 27.2447 9.86189 27.2582 9.77468C27.2671 9.72549 27.3052 9.683 27.3725 9.64722C27.4577 9.6025 27.5697 9.58014 27.7087 9.58014C28.1592 9.58014 28.7375 9.83505 28.9795 10.1369C29.1476 10.3516 29.2418 10.5193 29.2754 10.6602C29.6116 10.5998 29.9747 10.5662 30.358 10.5461C30.47 10.5461 30.5821 10.5439 30.6942 10.5394C31.918 10.5394 33.5519 10.801 34.379 12.042C34.4597 12.1628 34.5269 12.2835 34.5942 12.411C34.6614 12.3439 34.7421 12.2903 34.8295 12.2634C34.9438 12.2165 35.085 12.2098 35.2195 12.2299C35.3338 12.089 35.4817 12.0085 35.6498 11.9884C35.8919 11.9616 36.1272 12.089 36.2752 12.3104C36.3222 12.3842 36.2953 12.4848 36.2214 12.5317ZM35.5154 12.8403C35.4817 12.7464 35.4212 12.6793 35.354 12.6257C35.3495 12.6346 35.345 12.6436 35.3405 12.6525C35.2867 12.7934 35.3002 12.9074 35.3674 12.9544C35.4145 12.9946 35.4817 12.9946 35.5154 12.9678C35.549 12.9409 35.5288 12.8672 35.5154 12.8403Z" fill="#8789B9"/>
<path d="M31.2523 10.1771C31.3688 10.2129 31.4876 10.2308 31.6086 10.2308C32.1533 10.2308 32.6307 9.87526 32.7988 9.34531C32.8997 9.02332 32.866 8.68791 32.7181 8.39275C32.5635 8.09759 32.3079 7.88293 31.9986 7.7823C31.8821 7.74653 31.7611 7.72864 31.6355 7.72864C31.0909 7.72864 30.6135 8.08417 30.4521 8.61412C30.3512 8.93611 30.3781 9.27153 30.5328 9.56669C30.6807 9.86185 30.9362 10.0765 31.2523 10.1771Z" fill="#8789B9"/>
<path d="M111.177 13.2696C111.177 17.8178 107.485 21.5006 102.926 21.5006C98.3674 21.5006 94.6691 17.8178 94.6691 13.2696C94.6691 8.72144 98.3674 5.03864 102.926 5.03864C107.485 5.03864 111.177 8.72144 111.177 13.2696Z" fill="#F2F2F3"/>
<path fill-rule="evenodd" clip-rule="evenodd" d="M108.01 12.4512V13.2093C108.01 13.3971 107.929 13.4977 107.593 13.4977H107.546C107.546 13.5067 107.546 13.5156 107.546 13.5246L106.907 17.9922C106.907 18.2069 106.826 18.3209 106.483 18.3209H99.3693C99.0264 18.3209 98.9389 18.2069 98.9389 17.9922L98.3069 13.5246C98.3069 13.5156 98.3069 13.5067 98.3069 13.4977H98.2531C97.9236 13.4977 97.8429 13.3971 97.8429 13.2093V12.4512C97.8429 12.2634 97.9236 12.1628 98.2531 12.1628H99.45L101.481 8.33911C101.534 8.2452 101.629 8.19153 101.696 8.23178L102.045 8.4129C102.113 8.44644 102.126 8.55378 102.072 8.6544L100.21 12.1628H105.609L103.747 8.6544C103.693 8.55378 103.706 8.44644 103.774 8.4129L104.123 8.23178C104.19 8.19153 104.285 8.2452 104.338 8.33911L106.369 12.1628H107.593C107.929 12.1628 108.01 12.2634 108.01 12.4512ZM101.097 17.3415C101.104 17.5495 101.239 17.7172 101.393 17.7105C101.555 17.7105 101.676 17.5361 101.669 17.3214L101.575 14.4771C101.568 14.2692 101.434 14.1015 101.279 14.1082C101.118 14.1149 100.997 14.2893 101.003 14.4972L101.097 17.3415ZM102.899 17.7105C103.061 17.7105 103.189 17.5428 103.195 17.3348L103.229 14.4838C103.236 14.2759 103.108 14.1082 102.946 14.1015C102.792 14.1015 102.664 14.2692 102.657 14.4771L102.624 17.3281C102.617 17.5361 102.745 17.7105 102.899 17.7105ZM104.486 17.7105C104.648 17.7105 104.775 17.5495 104.782 17.3348L104.856 14.4905C104.856 14.2826 104.735 14.1082 104.574 14.1015C104.419 14.1015 104.285 14.2692 104.285 14.4771L104.211 17.3214C104.204 17.5293 104.332 17.7038 104.486 17.7105ZM106.524 14.5241C106.544 14.3161 106.436 14.135 106.282 14.1149C106.127 14.0947 105.979 14.249 105.952 14.457L105.616 17.2879C105.589 17.4958 105.697 17.6769 105.851 17.6971C106.006 17.7172 106.154 17.5629 106.181 17.3549L106.524 14.5241ZM100.19 17.2879L99.8467 14.457C99.8198 14.249 99.6786 14.0947 99.5172 14.1149C99.3626 14.135 99.255 14.3161 99.2819 14.5241L99.6181 17.3549C99.645 17.5629 99.7929 17.7105 99.9476 17.6971C100.109 17.6769 100.217 17.4958 100.19 17.2879Z" fill="#8789B9"/>
<path d="M130.645 56.3726C130.645 60.9208 126.954 64.6036 122.395 64.6036C117.836 64.6036 114.144 60.9208 114.144 56.3726C114.144 51.8245 117.836 48.1417 122.395 48.1417C126.954 48.1417 130.645 51.8245 130.645 56.3726Z" fill="#F2F2F3"/>
<path d="M127.895 55.4201C127.673 54.2193 127.021 53.1125 126.059 52.3075C125.044 51.4555 123.74 50.986 122.395 50.986C120.902 50.986 119.497 51.5495 118.441 52.5624C117.654 53.3271 117.123 54.2931 116.908 55.3463C116.841 55.6817 116.807 56.0305 116.807 56.3726C116.807 59.3444 119.315 61.7593 122.395 61.7593C125.474 61.7593 127.982 59.3444 127.982 56.3726C127.982 56.0574 127.956 55.7354 127.895 55.4201Z" fill="#8789B9"/>
<path d="M120.626 57.0167C120.579 57.0167 120.532 57.01 120.485 56.9898C120.451 56.9831 120.425 56.9563 120.404 56.9295C120.377 56.9026 120.351 56.8758 120.317 56.8557C120.263 56.8355 120.203 56.849 120.149 56.8624C120.126 56.8713 120.104 56.878 120.082 56.8825C120.041 56.887 120.017 56.8825 120.008 56.8691C119.987 56.849 120.001 56.7953 120.014 56.7483C120.028 56.6947 120.041 56.641 120.035 56.594C120.001 56.4532 119.873 56.4263 119.759 56.3995C119.698 56.3861 119.645 56.3727 119.597 56.3458C119.557 56.319 119.51 56.2922 119.47 56.2586C119.382 56.1983 119.295 56.1379 119.187 56.1043C119.113 56.0775 119.06 56.0976 119.006 56.1178C118.988 56.1222 118.97 56.1289 118.952 56.1379C118.932 56.1446 118.912 56.1446 118.905 56.1446C118.898 56.1446 118.898 56.1446 118.878 56.1312C118.869 56.1222 118.856 56.1111 118.838 56.0976C118.811 56.0798 118.786 56.0708 118.764 56.0708C118.71 56.0708 118.683 56.1043 118.656 56.1446C118.643 56.158 118.629 56.1714 118.616 56.1848C118.569 56.2318 118.501 56.2184 118.421 56.1916C118.398 56.1826 118.374 56.1759 118.347 56.1714C118.297 56.158 118.268 56.1424 118.259 56.1245C118.246 56.1043 118.253 56.0708 118.266 56.0306C118.28 55.9836 118.293 55.9232 118.266 55.8561C118.246 55.8092 118.152 55.7287 118.098 55.7153C118.058 55.7086 118.017 55.7354 117.99 55.7555C117.97 55.7689 117.957 55.7756 117.943 55.7756C117.943 55.7086 118.024 55.6012 118.058 55.5543C118.067 55.5498 118.076 55.5431 118.085 55.5342C118.098 55.514 118.118 55.5006 118.118 55.4738C118.118 55.4559 118.109 55.438 118.091 55.4201C118.085 55.4134 118.071 55.4067 118.011 55.4067C117.984 55.4067 117.923 55.4134 117.91 55.4201C117.863 55.4335 117.836 55.4738 117.809 55.5073C117.775 55.5543 117.755 55.5811 117.708 55.5811C117.553 55.5744 117.54 55.3664 117.547 55.1719C117.547 55.1585 117.547 55.1473 117.547 55.1384C117.695 55.0445 117.903 54.9304 118.098 54.9304C118.147 54.9304 118.194 54.9394 118.239 54.9572C118.306 54.9841 118.306 54.9975 118.313 55.0512C118.313 55.069 118.318 55.0936 118.327 55.125C118.347 55.192 118.387 55.2323 118.427 55.2323C118.448 55.2323 118.488 55.2256 118.522 55.1585C118.549 55.1048 118.549 55.0579 118.542 55.0042C118.542 54.964 118.542 54.9237 118.555 54.8902C118.575 54.8432 118.643 54.8097 118.696 54.7828C118.71 54.7739 118.723 54.7649 118.737 54.756C118.831 54.6956 118.851 54.6554 118.871 54.5816C118.876 54.5637 118.882 54.5458 118.891 54.5279C118.912 54.4743 118.965 54.434 119.019 54.3938C119.037 54.3803 119.053 54.3669 119.066 54.3535C119.107 54.3222 119.145 54.2931 119.181 54.2663C119.225 54.2305 119.27 54.1925 119.315 54.1523C119.329 54.1433 119.344 54.1321 119.362 54.1187C119.402 54.0718 119.45 54.0248 119.497 54.0248C119.497 54.0248 119.497 54.027 119.497 54.0315C119.497 54.0382 119.503 54.0516 119.503 54.0516C119.499 54.0651 119.501 54.074 119.51 54.0785C119.515 54.0874 119.524 54.0897 119.537 54.0852C119.557 54.0718 119.597 54.0718 119.631 54.0651C119.685 54.0583 119.745 54.0516 119.779 54.0248C119.824 53.998 119.842 53.9711 119.833 53.9443C119.819 53.8906 119.725 53.8839 119.698 53.8839C119.665 53.8437 119.685 53.8236 119.725 53.7766C119.73 53.7677 119.734 53.761 119.739 53.7565C119.752 53.7431 119.752 53.7296 119.739 53.7229C119.719 53.6961 119.692 53.6961 119.665 53.6894C119.647 53.6849 119.636 53.6805 119.631 53.676C119.678 53.6693 119.759 53.6693 119.84 53.6693C119.88 53.6737 119.92 53.676 119.961 53.676C120.088 53.676 120.236 53.6559 120.277 53.5217C120.297 53.4345 120.263 53.4009 120.23 53.3741C120.221 53.3652 120.212 53.354 120.203 53.3406C120.169 53.3003 120.169 53.2802 120.169 53.2399C120.169 53.2265 120.169 53.1997 120.169 53.1729C120.162 53.1393 120.156 53.0722 120.095 53.0722C120.082 53.0722 120.064 53.0767 120.041 53.0857C120.032 53.0857 120.023 53.0879 120.014 53.0924C119.974 53.0991 119.934 53.0991 119.887 53.0924C119.873 53.0879 119.857 53.0857 119.84 53.0857C119.826 53.0052 119.799 52.8911 119.692 52.8911C119.665 52.8911 119.631 52.9001 119.591 52.918C119.544 52.9381 119.53 52.9649 119.524 52.9917C119.517 53.0052 119.517 53.0119 119.503 53.0253C119.483 53.0454 119.47 53.0521 119.456 53.0588C119.429 53.0722 119.402 53.0924 119.389 53.1527C119.38 53.1706 119.376 53.1885 119.376 53.2064C119.362 53.2467 119.362 53.2668 119.308 53.2869C119.295 53.2936 119.281 53.2936 119.261 53.3003C119.228 53.3003 119.187 53.3003 119.16 53.3473C119.14 53.3808 119.14 53.4211 119.147 53.4546C119.147 53.4949 119.154 53.5284 119.127 53.5418C119.1 53.5619 119.053 53.5418 119.046 53.515C119.039 53.5083 119.053 53.4814 119.06 53.4613C119.073 53.4211 119.086 53.3808 119.06 53.354C119.046 53.3272 119.019 53.3272 118.999 53.3272C118.986 53.3272 118.974 53.3272 118.965 53.3272C118.945 53.3272 118.932 53.3272 118.925 53.3272C118.912 53.2668 118.851 53.2399 118.804 53.2198C118.757 53.1997 118.723 53.1863 118.723 53.146C118.717 53.0924 118.797 53.0521 118.858 53.0253C118.876 53.0163 118.894 53.0074 118.912 52.9985C118.934 52.9806 118.956 52.9649 118.979 52.9515C119.039 52.9112 119.093 52.871 119.167 52.8576C119.19 52.8531 119.21 52.8486 119.228 52.8442C119.308 52.8307 119.389 52.8173 119.47 52.7637C119.577 52.6966 119.692 52.6027 119.658 52.5356C119.645 52.5132 119.624 52.502 119.597 52.502C119.564 52.502 119.524 52.5289 119.483 52.549C119.47 52.5624 119.443 52.5758 119.429 52.5758C119.396 52.5758 119.362 52.5289 119.329 52.4886C119.288 52.435 119.255 52.3947 119.214 52.3947C119.167 52.3947 119.14 52.4484 119.127 52.4886C119.118 52.511 119.111 52.5311 119.107 52.549C119.093 52.6161 119.086 52.6295 118.999 52.6295C118.963 52.6295 118.93 52.6295 118.898 52.6295C118.849 52.634 118.8 52.6362 118.75 52.6362C118.656 52.6362 118.589 52.6295 118.528 52.6228C118.519 52.6183 118.513 52.6206 118.508 52.6295C117.728 53.3808 117.204 54.3267 116.995 55.3597C116.995 55.3687 116.998 55.3754 117.002 55.3799C117.015 55.4067 117.027 55.4358 117.036 55.4671C117.069 55.5945 117.163 55.8092 117.392 55.8293C117.419 55.8293 117.452 55.8293 117.479 55.8226C117.526 55.8226 117.567 55.8159 117.6 55.8293C117.668 55.8494 117.748 55.9031 117.802 55.9299C117.856 55.9635 117.903 56.0306 117.964 56.1043C118.064 56.2385 118.172 56.3794 118.32 56.3526C118.338 56.3481 118.354 56.3436 118.367 56.3391C118.414 56.3324 118.414 56.3257 118.475 56.366C118.461 56.3973 118.452 56.4286 118.448 56.4599C118.448 56.4778 118.445 56.4979 118.441 56.5203C118.434 56.5672 118.434 56.6142 118.407 56.6477C118.394 56.6678 118.374 56.6813 118.354 56.7014C118.32 56.7215 118.28 56.7483 118.266 56.802C118.253 56.8557 118.273 56.8959 118.293 56.9295C118.306 56.9496 118.32 56.9764 118.313 56.9965C118.313 57.0167 118.3 57.0301 118.28 57.0502C118.259 57.077 118.226 57.1106 118.239 57.171C118.253 57.2447 118.32 57.3387 118.387 57.4259C118.407 57.4594 118.434 57.4862 118.448 57.5131C118.495 57.5869 118.555 57.6741 118.629 57.7546C118.663 57.7948 118.71 57.8216 118.757 57.8552C118.838 57.9089 118.918 57.9625 118.932 58.0564C118.932 58.0967 118.925 58.1302 118.918 58.1705C118.912 58.2174 118.905 58.2644 118.912 58.3113C118.912 58.3516 118.925 58.3918 118.939 58.4321C118.947 58.4545 118.954 58.4768 118.959 58.4992C118.979 58.5596 118.999 58.64 119.006 58.7205C119.006 58.7608 118.999 58.801 118.992 58.8413C118.979 58.8748 118.972 58.9084 118.972 58.9419C118.972 58.9956 118.986 59.0492 118.999 59.0962C119.006 59.1297 119.012 59.1566 119.019 59.1901C119.024 59.208 119.026 59.2259 119.026 59.2438C119.033 59.2975 119.039 59.3511 119.066 59.4048C119.08 59.445 119.1 59.4786 119.12 59.5054C119.14 59.5389 119.16 59.5658 119.174 59.5993C119.187 59.6329 119.194 59.6664 119.207 59.7067C119.214 59.7402 119.221 59.7737 119.234 59.8073C119.342 60.0756 119.483 60.3238 119.779 60.3238C119.819 60.3238 119.86 60.3193 119.9 60.3104C119.914 60.3104 119.92 60.3059 119.92 60.297C119.925 60.288 119.925 60.2791 119.92 60.2701L119.887 60.2366C119.826 60.1695 119.766 60.0957 119.678 60.0622C119.678 60.0443 119.678 60.0242 119.678 60.0018C119.685 59.8945 119.685 59.8073 119.651 59.767C119.647 59.7626 119.64 59.7581 119.631 59.7536C119.636 59.7402 119.64 59.7268 119.645 59.7134C119.665 59.6731 119.678 59.6262 119.658 59.5725C119.645 59.5457 119.624 59.5389 119.611 59.5322C119.597 59.5255 119.597 59.5255 119.597 59.5121C119.591 59.492 119.618 59.4719 119.645 59.4585C119.658 59.4517 119.658 59.4383 119.658 59.4316C119.654 59.3914 119.658 59.3645 119.671 59.3511C119.692 59.331 119.725 59.331 119.759 59.3243C119.806 59.3243 119.853 59.3176 119.887 59.284C119.947 59.2237 119.9 59.1365 119.866 59.0627C119.857 59.0492 119.849 59.0358 119.84 59.0224C119.981 59.0157 120.061 59.009 120.162 58.8748C120.209 58.8078 120.263 58.7138 120.277 58.6065C120.277 58.573 120.27 58.5461 120.27 58.5193C120.263 58.4791 120.263 58.4522 120.297 58.412C120.306 58.3941 120.315 58.3784 120.324 58.365C120.357 58.3248 120.384 58.2845 120.425 58.2577C120.451 58.2376 120.485 58.2241 120.519 58.204C120.572 58.1772 120.633 58.1504 120.673 58.0967C120.727 58.0229 120.714 57.9424 120.7 57.8686C120.68 57.7948 120.667 57.7277 120.72 57.6607C120.734 57.6428 120.747 57.6249 120.761 57.607C120.862 57.4795 120.969 57.3454 120.889 57.171C120.821 57.0301 120.72 57.0234 120.626 57.0167Z" fill="#F2F2F3"/>
<path d="M118.791 55.5409C118.797 55.5207 118.791 55.4872 118.737 55.4469C118.717 55.4268 118.683 55.4268 118.663 55.4201C118.643 55.4134 118.629 55.4134 118.616 55.4067C118.596 55.4 118.575 55.3799 118.562 55.3597C118.549 55.3463 118.535 55.3329 118.515 55.3195C118.481 55.2927 118.421 55.2792 118.367 55.2792C118.307 55.2792 118.259 55.2994 118.233 55.3329C118.21 55.3597 118.203 55.3843 118.212 55.4067C118.233 55.4469 118.286 55.4537 118.34 55.4604C118.36 55.4604 118.38 55.4671 118.394 55.4671C118.428 55.4805 118.454 55.5006 118.481 55.5274C118.528 55.5543 118.569 55.5878 118.629 55.6012C118.638 55.6057 118.649 55.6079 118.663 55.6079C118.717 55.6079 118.77 55.5878 118.791 55.5409Z" fill="#F2F2F3"/>
<path d="M118.831 55.7287C118.858 55.7287 118.898 55.7153 118.925 55.7019C118.939 55.6952 118.965 55.6952 118.986 55.6885C119.026 55.6885 119.066 55.6817 119.093 55.6549C119.107 55.6415 119.147 55.608 119.134 55.5677C119.12 55.5342 119.066 55.5208 118.972 55.5208H118.952C118.811 55.5208 118.77 55.5878 118.764 55.6415C118.759 55.6683 118.764 55.6907 118.777 55.7086C118.784 55.7153 118.797 55.7287 118.831 55.7287Z" fill="#F2F2F3"/>
<path fill-rule="evenodd" clip-rule="evenodd" d="M127.808 55.4402C127.808 55.4603 127.801 55.467 127.781 55.467C127.687 55.4603 127.572 55.5811 127.498 55.6616C127.48 55.6839 127.465 55.7018 127.451 55.7152C127.384 55.7756 127.344 55.836 127.337 55.9165C127.33 55.95 127.33 55.9836 127.337 56.0238C127.337 56.0775 127.344 56.1379 127.323 56.1982C127.297 56.2653 127.256 56.2989 127.196 56.2989C127.135 56.2989 127.068 56.2519 127.034 56.1848C126.987 56.0775 126.96 55.9702 126.933 55.8628C126.907 55.7756 126.886 55.6884 126.853 55.6012C126.853 55.5967 126.851 55.59 126.846 55.5811C126.839 55.5542 126.826 55.5207 126.806 55.514C126.799 55.5073 126.786 55.5073 126.772 55.5073C126.752 55.514 126.732 55.514 126.712 55.5073C126.658 55.4872 126.624 55.4402 126.597 55.3932C126.584 55.3798 126.573 55.3664 126.564 55.353C126.517 55.2926 126.456 55.2926 126.382 55.2859C126.355 55.2859 126.331 55.2837 126.308 55.2792L126.261 55.2725C126.18 55.2591 126.106 55.2457 126.026 55.192C125.979 55.1585 125.932 55.1585 125.885 55.1585C125.851 55.1585 125.811 55.1585 125.77 55.145C125.716 55.1316 125.663 55.0914 125.609 55.0578C125.575 55.031 125.535 55.0042 125.495 54.984C125.499 54.9885 125.501 54.993 125.501 54.9975C125.521 55.078 125.568 55.1719 125.636 55.2054C125.669 55.2255 125.71 55.2188 125.75 55.2054C125.777 55.1987 125.804 55.1853 125.837 55.1853C125.918 55.1853 126.059 55.2725 126.12 55.3597C126.16 55.4134 126.153 55.4536 126.147 55.4737C126.113 55.561 126.019 55.6414 125.932 55.7085C125.914 55.7219 125.896 55.7354 125.878 55.7488C125.804 55.8159 125.703 55.9031 125.582 55.9634C125.508 56.0037 125.421 56.0439 125.333 56.0439C125.293 56.0439 125.257 56.0328 125.226 56.0104C125.221 56.0059 125.219 56.0037 125.219 56.0037C125.232 56.0305 125.252 56.0439 125.279 56.0574C125.34 56.0775 125.427 56.0708 125.495 56.0507C125.515 56.0507 125.535 56.0439 125.555 56.0305C125.589 56.0171 125.622 56.0037 125.663 56.0037C125.69 56.0037 125.714 56.0149 125.737 56.0372C125.743 56.0439 125.743 56.0574 125.737 56.0641C125.716 56.1043 125.696 56.1513 125.683 56.1915C125.663 56.2385 125.649 56.2854 125.622 56.3257C125.595 56.3726 125.562 56.4196 125.535 56.4666C125.512 56.4934 125.492 56.5225 125.474 56.5538C125.407 56.6477 125.353 56.7282 125.259 56.7953C125.172 56.8556 125.138 56.9495 125.098 57.0502L125.084 57.0837C125.037 57.1978 125.051 57.2984 125.071 57.4124C125.078 57.4728 125.091 57.5399 125.091 57.607C125.084 57.6942 125.064 57.7881 125.031 57.8619C125.004 57.9021 124.977 57.9289 124.943 57.9625C124.916 57.9826 124.896 58.0094 124.876 58.0296C124.822 58.1101 124.809 58.1436 124.829 58.2375C124.842 58.2979 124.842 58.3314 124.829 58.3583C124.809 58.3784 124.782 58.3918 124.735 58.3985C124.755 58.5394 124.674 58.6199 124.593 58.6937C124.571 58.7116 124.546 58.7317 124.52 58.7541C124.446 58.8144 124.365 58.8882 124.284 58.9352C124.204 58.9821 124.116 59.009 124.035 59.009C124 59.009 123.966 59.0045 123.935 58.9956C123.834 58.962 123.814 58.8815 123.793 58.801L123.787 58.7876C123.778 58.7518 123.766 58.716 123.753 58.6803C123.733 58.6266 123.713 58.5729 123.699 58.5193C123.695 58.479 123.69 58.441 123.686 58.4052C123.679 58.3449 123.672 58.2845 123.652 58.2241C123.632 58.1839 123.605 58.1436 123.585 58.1034C123.538 58.0296 123.491 57.9558 123.477 57.8619C123.471 57.7747 123.497 57.7009 123.524 57.6271C123.538 57.5935 123.551 57.56 123.558 57.5265C123.598 57.3923 123.538 57.2045 123.464 57.0971C123.376 56.9697 123.343 56.8691 123.336 56.7215C123.329 56.6209 123.282 56.6007 123.202 56.5605C123.184 56.556 123.168 56.5493 123.155 56.5404L123.121 56.5202C123.04 56.4867 122.993 56.4666 122.899 56.48C122.868 56.4889 122.834 56.4956 122.798 56.5001C122.697 56.5202 122.583 56.5471 122.475 56.5471C122.314 56.5605 122.227 56.4733 122.139 56.3726C122.117 56.3458 122.092 56.319 122.065 56.2921C121.998 56.2184 121.924 56.1446 121.89 56.0507C121.857 55.95 121.877 55.8628 121.89 55.7689C121.897 55.7287 121.904 55.6884 121.911 55.6482C121.911 55.6213 121.911 55.5923 121.911 55.561C121.911 55.4737 121.911 55.3932 121.964 55.306L121.991 55.2591C122.038 55.1719 122.092 55.078 122.166 55.0109L122.18 54.9975C122.22 54.9572 122.267 54.9237 122.28 54.87C122.287 54.8432 122.287 54.823 122.287 54.8029C122.287 54.7627 122.287 54.7291 122.354 54.6889C122.583 54.5681 122.765 54.5145 122.98 54.5011C123.013 54.5011 123.06 54.4876 123.107 54.4742C123.175 54.4541 123.235 54.434 123.296 54.434C123.336 54.434 123.37 54.4429 123.397 54.4608C123.437 54.4876 123.45 54.5279 123.457 54.5681C123.462 54.586 123.466 54.6017 123.471 54.6151C123.491 54.6621 123.518 54.6688 123.571 54.6956L123.598 54.7023C123.699 54.7493 123.766 54.7761 123.861 54.7426C123.883 54.7336 123.905 54.7291 123.928 54.7291C123.982 54.7291 124.022 54.756 124.062 54.7828C124.103 54.8029 124.136 54.8231 124.177 54.8298C124.284 54.8432 124.506 54.7962 124.607 54.7358C124.647 54.7157 124.674 54.6621 124.681 54.6151C124.681 54.5883 124.674 54.5547 124.641 54.5346C124.6 54.5078 124.546 54.5011 124.486 54.4943C124.405 54.4876 124.318 54.4742 124.264 54.387C124.255 54.3736 124.248 54.3579 124.244 54.3401C124.237 54.3132 124.23 54.2931 124.21 54.2864C124.183 54.273 124.143 54.2998 124.109 54.3199C124.109 54.3289 124.112 54.3378 124.116 54.3468C124.136 54.3937 124.163 54.4541 124.136 54.4876C124.116 54.5145 124.096 54.5212 124.082 54.5212C124.029 54.5212 123.968 54.4541 123.955 54.4273C123.928 54.387 123.908 54.3468 123.894 54.3065C123.861 54.2394 123.834 54.1791 123.787 54.1321C123.733 54.0784 123.592 53.9577 123.558 54.0248C123.545 54.0717 123.645 54.1187 123.706 54.1455C123.733 54.1589 123.753 54.1701 123.766 54.1791C123.807 54.2126 123.827 54.273 123.82 54.3334C123.807 54.3937 123.773 54.4273 123.726 54.4474C123.722 54.4474 123.715 54.4452 123.706 54.4407C123.701 54.4362 123.697 54.4317 123.692 54.4273C123.679 54.3334 123.639 54.2663 123.571 54.2126C123.558 54.2037 123.542 54.1925 123.524 54.1791C123.471 54.1388 123.397 54.0717 123.35 54.065C123.329 54.065 123.323 54.0717 123.309 54.0852C123.296 54.0919 123.282 54.0986 123.262 54.1053C123.242 54.1187 123.215 54.1187 123.188 54.1187C123.175 54.1142 123.161 54.112 123.148 54.112C123.094 54.1187 123.067 54.1589 123.027 54.2126C123.013 54.2327 122.993 54.2596 122.973 54.2797C122.953 54.3065 122.939 54.3334 122.933 54.3669C122.919 54.4071 122.912 54.4474 122.879 54.4742C122.832 54.5279 122.711 54.5413 122.65 54.5413H122.61C122.543 54.5413 122.482 54.5413 122.422 54.4809C122.348 54.4071 122.361 54.3602 122.381 54.3065C122.386 54.2842 122.39 54.2596 122.395 54.2327C122.399 54.2193 122.401 54.2059 122.401 54.1925C122.408 54.1187 122.415 54.0852 122.509 54.0516C122.57 54.0315 122.623 54.0114 122.691 54.0181C122.709 54.0225 122.726 54.027 122.744 54.0315C122.765 54.0382 122.778 54.0382 122.798 54.0382C122.812 53.9711 122.825 53.9174 122.785 53.8705C122.771 53.8571 122.758 53.8504 122.744 53.8437C122.711 53.8168 122.664 53.79 122.67 53.7363C122.67 53.7229 122.677 53.7162 122.691 53.7095C122.798 53.7028 122.933 53.6156 123.013 53.5485C123.027 53.5306 123.042 53.515 123.06 53.5015C123.128 53.4345 123.195 53.3674 123.282 53.3204C123.35 53.2869 123.383 53.2936 123.444 53.3137C123.497 53.3338 123.545 53.3405 123.605 53.3405C123.623 53.3405 123.641 53.3405 123.659 53.3405C123.766 53.3405 123.847 53.3271 123.894 53.2466L123.908 53.2265C123.928 53.1862 123.941 53.1728 123.995 53.146C124.009 53.1415 124.022 53.1348 124.035 53.1259C124.049 53.1214 124.065 53.1169 124.082 53.1125C124.074 53.1125 124.065 53.1125 124.056 53.1125C124.009 53.1125 123.948 53.1057 123.914 53.0588C123.861 52.9917 123.894 52.9313 123.921 52.8844C123.928 52.8643 123.941 52.8441 123.941 52.824C123.923 52.8285 123.903 52.833 123.881 52.8374C123.766 52.871 123.76 52.9515 123.753 53.0521C123.746 53.146 123.74 53.2466 123.632 53.307C123.61 53.3204 123.589 53.3271 123.571 53.3271C123.524 53.3271 123.491 53.2869 123.464 53.2533C123.45 53.2332 123.43 53.2131 123.41 53.1997C123.383 53.1863 123.343 53.193 123.302 53.193C123.285 53.1974 123.267 53.1997 123.249 53.1997C123.208 53.1997 123.161 53.193 123.121 53.1393C123.034 52.9984 123.222 52.871 123.309 52.8173L123.329 52.8039C123.383 52.7703 123.424 52.7301 123.471 52.6831C123.524 52.6362 123.578 52.5825 123.645 52.5423C123.766 52.4752 123.887 52.4416 124.029 52.4416C124.13 52.4416 124.244 52.4618 124.378 52.502C124.392 52.5065 124.41 52.511 124.432 52.5154C124.533 52.5356 124.661 52.5624 124.681 52.6496C124.685 52.6809 124.681 52.7055 124.667 52.7234C124.632 52.7636 124.551 52.7636 124.425 52.7234C124.439 52.7569 124.506 52.8039 124.54 52.8106C124.58 52.8173 124.62 52.7905 124.661 52.7703C124.688 52.7569 124.715 52.7368 124.741 52.7301C124.755 52.7256 124.766 52.7234 124.775 52.7234C124.802 52.7167 124.822 52.71 124.842 52.6966C124.856 52.6898 124.862 52.6764 124.869 52.6697C124.889 52.6496 124.91 52.6295 124.95 52.6161C124.977 52.6093 125.004 52.6093 125.024 52.6093C125.051 52.6026 125.078 52.6026 125.098 52.5959C125.125 52.5915 125.152 52.5847 125.178 52.5758C125.21 52.5624 125.241 52.5512 125.273 52.5423C125.326 52.5288 125.387 52.5356 125.447 52.5423C125.521 52.549 125.589 52.5557 125.649 52.5221C125.649 52.5221 125.647 52.5199 125.642 52.5154C125.616 52.4752 125.575 52.4148 125.622 52.3746C125.631 52.3611 125.647 52.3544 125.669 52.3544C125.71 52.3544 125.763 52.388 125.79 52.4081C125.851 52.4483 125.898 52.502 125.932 52.5557C125.941 52.5691 125.947 52.5847 125.952 52.6026C125.972 52.6362 125.985 52.6831 126.019 52.6764C126.019 52.672 126.019 52.6675 126.019 52.663C126.026 52.6362 126.032 52.6161 126.039 52.6093C126.053 52.5959 126.073 52.5892 126.086 52.5892L126.1 52.5959C126.1 52.5915 126.102 52.5892 126.106 52.5892C126.102 52.5847 126.1 52.5825 126.1 52.5825L126.086 52.5758C126.073 52.5691 126.053 52.5624 126.032 52.5557C125.965 52.5288 125.858 52.4886 125.871 52.388C125.878 52.3746 125.885 52.3678 125.898 52.3678C125.911 52.3678 125.927 52.3678 125.945 52.3678C125.954 52.3678 125.965 52.3656 125.979 52.3611C125.988 52.3611 125.994 52.3634 125.999 52.3678C126.947 53.1594 127.586 54.2461 127.808 55.4335C127.808 55.4335 127.808 55.4357 127.808 55.4402ZM125.105 55.8494C125.122 55.8628 125.138 55.8785 125.152 55.8964C125.138 55.8628 125.131 55.8226 125.125 55.7823C125.118 55.7488 125.118 55.722 125.111 55.6951C125.031 55.4469 124.896 55.1652 124.721 55.0645C124.735 55.1249 124.768 55.192 124.809 55.2591C124.862 55.3396 124.896 55.4335 124.93 55.5274C124.963 55.6012 124.99 55.6884 125.037 55.7622C125.057 55.7957 125.078 55.8226 125.105 55.8494Z" fill="#F2F2F3"/>
<path d="M122.489 53.5619C122.502 53.5619 122.516 53.5574 122.529 53.5485C122.596 53.5284 122.643 53.4278 122.63 53.3674C122.623 53.3137 122.576 53.2936 122.516 53.3271C122.469 53.354 122.415 53.4546 122.428 53.515C122.435 53.5418 122.462 53.5619 122.489 53.5619Z" fill="#F2F2F3"/>
<path d="M122.704 53.4345C122.704 53.4546 122.697 53.4747 122.691 53.4949C122.67 53.5284 122.657 53.5619 122.677 53.5888C122.691 53.6156 122.731 53.6223 122.758 53.629C122.762 53.629 122.767 53.629 122.771 53.629C122.832 53.629 122.946 53.5821 123 53.5284C123.022 53.506 123.031 53.4837 123.027 53.4613C123.027 53.4144 122.986 53.3942 122.953 53.3808C122.939 53.3808 122.926 53.3741 122.919 53.3674C122.892 53.3406 122.892 53.3204 122.886 53.2869C122.886 53.278 122.886 53.2668 122.886 53.2534C122.879 53.1863 122.825 53.1125 122.758 53.1125C122.738 53.1125 122.704 53.1192 122.677 53.146C122.61 53.2198 122.644 53.3003 122.677 53.3607C122.691 53.3875 122.704 53.4144 122.704 53.4345Z" fill="#F2F2F3"/>
</svg>
