<svg width="28" height="28" viewBox="0 0 28 28" fill="none" xmlns="http://www.w3.org/2000/svg">
<circle cx="14" cy="14" r="14" fill="#DEFFE0"/>
<path d="M7.14507 12.596V18.3216H9.69657L9.82541 18.336C12.1942 18.8608 13.7638 19.2392 14.5461 19.4736C15.5852 19.7848 15.9726 19.8608 16.6774 19.9056C17.2046 19.94 17.8033 19.7472 18.0761 19.4832C18.2269 19.3376 18.3397 19.0384 18.3843 18.5744C18.3936 18.4771 18.4302 18.384 18.4903 18.3047C18.5505 18.2255 18.632 18.1631 18.7262 18.124C18.9359 18.0376 19.1102 17.8968 19.2559 17.692C19.3906 17.5048 19.4782 17.156 19.4942 16.6512C19.497 16.5584 19.5247 16.4678 19.5747 16.388C19.6246 16.3083 19.6952 16.2419 19.7797 16.1952C20.2697 15.9256 20.5123 15.6216 20.5628 15.2648C20.6184 14.8704 20.4836 14.4264 20.1308 13.9208C20.048 13.8023 20.0172 13.6577 20.0449 13.5178C20.0725 13.378 20.1565 13.2539 20.279 13.172C20.6167 12.9464 20.8019 12.6328 20.8483 12.188C20.9224 11.4792 20.4466 10.9552 19.3696 10.8504C18.4103 10.7603 17.4418 10.837 16.5115 11.0768C16.406 11.103 16.2948 11.1 16.191 11.0682C16.0872 11.0364 15.9951 10.9771 15.9256 10.8973C15.856 10.8174 15.812 10.7204 15.7985 10.6176C15.7851 10.5147 15.8028 10.4104 15.8497 10.3168C16.2707 9.47042 16.5048 8.77202 16.5595 8.23122C16.6311 7.51362 16.4568 6.99362 16.0492 6.56482C15.7402 6.24002 15.2459 6.05442 15.0606 6.09282C14.8164 6.14242 14.6573 6.27682 14.4501 6.74722C14.328 7.02562 14.2691 7.26242 14.168 7.81522C14.0712 8.34002 14.0181 8.57682 13.9078 8.88722C13.5752 9.82802 12.7592 10.8032 11.6637 11.476C10.8959 11.947 10.0637 12.3158 9.19048 12.572C9.13593 12.588 9.07916 12.5961 9.02207 12.596H7.14507ZM7.1097 19.412C6.83771 19.4192 6.5935 19.3616 6.38888 19.2256C6.12783 19.052 6.00489 18.7784 6.00236 18.4632L6.00489 12.6048C5.97626 12.2928 6.0731 12.0064 6.30214 11.7936C6.51688 11.5936 6.79729 11.4992 7.0937 11.5056H8.93365C9.67793 11.2803 10.3875 10.9624 11.0439 10.56C11.9264 10.0176 12.5765 9.24002 12.8249 8.53922C12.91 8.29762 12.9554 8.09762 13.0413 7.62722C13.1575 6.99602 13.2299 6.70242 13.3967 6.32482C13.7419 5.53922 14.195 5.15521 14.8198 5.02641C15.4345 4.90001 16.3296 5.23681 16.8955 5.83202C17.5229 6.49122 17.7999 7.31602 17.6972 8.33522C17.6534 8.77362 17.5254 9.26402 17.3149 9.81042C18.0338 9.71088 18.7629 9.69584 19.4858 9.76562C21.1758 9.92962 22.1249 10.9752 21.9868 12.2968C21.9261 12.8664 21.7089 13.3504 21.3392 13.7304C21.6499 14.2992 21.7737 14.8616 21.6962 15.4104C21.607 16.0424 21.2365 16.5688 20.6201 16.9776C20.5721 17.532 20.4382 17.9744 20.2007 18.3056C20.0136 18.5732 19.7695 18.8005 19.4841 18.9728C19.3931 19.52 19.202 19.948 18.8896 20.2488C18.3717 20.7496 17.4462 21.048 16.6008 20.9936C15.7983 20.9424 15.3234 20.8496 14.2034 20.5136C13.4649 20.292 11.9357 19.924 9.63089 19.412H7.10886H7.1097ZM8.54208 12.3472C8.54186 12.2757 8.55651 12.2047 8.58518 12.1386C8.61386 12.0724 8.65601 12.0122 8.7092 11.9615C8.76239 11.9108 8.82559 11.8706 8.89518 11.8432C8.96476 11.8157 9.03936 11.8016 9.1147 11.8016C9.18989 11.8018 9.26431 11.8161 9.3337 11.8436C9.40309 11.8712 9.46609 11.9114 9.5191 11.9621C9.57212 12.0128 9.61411 12.0728 9.64268 12.1389C9.67126 12.205 9.68585 12.2758 9.68563 12.3472V18.4896C9.68574 18.5611 9.67104 18.6318 9.64236 18.6979C9.61369 18.7639 9.5716 18.8239 9.51851 18.8745C9.46541 18.9251 9.40235 18.9653 9.33292 18.9927C9.26349 19.0202 9.18905 19.0343 9.11385 19.0344C9.03866 19.0343 8.96422 19.0202 8.89479 18.9927C8.82536 18.9653 8.76229 18.9251 8.7092 18.8745C8.65611 18.8239 8.61402 18.7639 8.58535 18.6979C8.55667 18.6318 8.54197 18.5611 8.54208 18.4896V12.3472Z" fill="#276F2C"/>
</svg>
