<svg width="18" height="18" viewBox="0 0 18 18" fill="none" xmlns="http://www.w3.org/2000/svg">
<path d="M17.5995 17.1071H11.0012C11.0461 17.0884 11.0916 17.0713 11.1338 17.0459L13.3634 15.7038C13.4279 15.6635 13.5032 15.642 13.5812 15.642H14.3719V12.1753H13.3365C13.0487 12.1753 12.7663 12.2748 12.5404 12.455C12.5134 12.4692 11.0051 13.3479 10.4501 13.3479L8.27764 13.353C7.97022 13.353 7.7278 13.6258 7.77883 13.9431C7.81884 14.1918 8.05185 14.3644 8.30372 14.3642L10.5104 14.3797C10.66 14.3795 10.781 14.5016 10.7795 14.6512C10.778 14.7986 10.6581 14.9173 10.5107 14.9173L8.43793 14.9008C8.34768 14.9001 8.25799 14.8864 8.17161 14.8602L5.11486 13.9342C5.08259 13.9288 5.05031 13.9261 5.01804 13.9261C4.78137 13.9261 4.56622 14.0687 4.47746 14.2946C4.35643 14.6039 4.51781 14.9481 4.82978 15.053L10.2304 17.1071H0.268944C0.12042 17.1071 0 17.2275 0 17.376C0 17.5246 0.12042 17.645 0.268944 17.645H17.5995C17.7482 17.645 17.8685 17.5246 17.8685 17.376C17.8685 17.2275 17.7482 17.1071 17.5995 17.1071Z" fill="#292B5D"/>
<path d="M1.56704 5.58106H3.49805C3.64599 5.58106 3.767 5.46272 3.767 5.31211V1.63027C3.767 1.47966 3.64599 1.36133 3.49805 1.36133H1.56704C1.41912 1.36133 1.2981 1.47966 1.2981 1.63027V5.31211C1.2981 5.46272 1.41912 5.58106 1.56704 5.58106Z" fill="#292B5D"/>
<path d="M8.45523 1.35008V0.69116C8.45523 0.502913 8.29656 0.35498 8.10024 0.35498C7.92811 0.35498 7.78557 0.467948 7.7506 0.618556C7.71564 0.467948 7.57311 0.35498 7.40098 0.35498C7.23154 0.35498 7.08632 0.467948 7.05404 0.618556C7.01908 0.467948 6.87386 0.35498 6.70442 0.35498C6.53498 0.35498 6.38974 0.467948 6.35747 0.618556C6.32251 0.467948 6.17728 0.35498 6.00785 0.35498C5.81152 0.35498 5.65015 0.502913 5.65015 0.69116V1.22368L5.65284 1.35008H8.45523Z" fill="#292B5D"/>
<path d="M5.11304 1.20703L5.11327 1.21786C5.13382 1.21488 5.15284 1.20703 5.17413 1.20703H5.11304Z" fill="#292B5D"/>
<path d="M8.90987 4.80164C8.90987 4.57281 8.72192 4.3869 8.49309 4.3869H8.68922C8.9228 4.3869 9.10396 4.19535 9.10396 3.97012C9.10396 3.73926 8.91805 3.55333 8.68922 3.55333H9.08761C9.31661 3.55333 9.50439 3.36592 9.50439 3.13655C9.50439 2.90774 9.31849 2.72181 9.08761 2.72181H8.73009C8.99639 2.72181 9.20116 2.47102 9.13392 2.20075C9.08707 2.01243 8.90537 1.88825 8.71132 1.88825H5.12764L5.11303 1.21875C4.9299 1.24529 4.7785 1.37991 4.74487 1.56657L4.73682 1.61125C4.70792 1.77159 4.56837 1.88825 4.40544 1.88825H4.30542V5.21842H8.49309C8.71764 5.21842 8.90987 5.03554 8.90987 4.80164Z" fill="#292B5D"/>
<path d="M9.16217 5.4815C8.98737 5.65632 8.748 5.75583 8.4925 5.75583H4.63048C3.46325 7.06827 2.69946 9.11224 2.69946 10.621C2.69946 13.0334 4.65469 13.176 7.06711 13.176C9.47953 13.176 11.4348 13.0334 11.4348 10.621C11.4348 8.98315 10.5365 6.72134 9.20252 5.43848C9.18908 5.45461 9.17563 5.46805 9.16217 5.4815ZM7.33874 10.9948L7.34143 11.2719C7.34412 11.4198 7.22579 11.5435 7.07786 11.5462C7.07518 11.5462 7.07518 11.5462 7.07249 11.5462C6.92725 11.5462 6.80624 11.4279 6.80355 11.2799L6.80085 10.9975C6.30062 10.8765 5.92409 10.4274 5.92409 9.88949C5.92409 9.74158 6.04512 9.62055 6.19304 9.62055C6.34365 9.62055 6.46198 9.74158 6.46198 9.88949C6.46198 10.223 6.73362 10.4946 7.0671 10.4946C7.40059 10.4946 7.67223 10.223 7.67223 9.88949C7.67223 9.556 7.40059 9.28437 7.0671 9.28437C6.43777 9.28437 5.92409 8.77339 5.92409 8.14136C5.92409 7.60616 6.29524 7.15972 6.79547 7.036L6.79008 6.75898C6.78741 6.61106 6.90842 6.49004 7.05635 6.48736H7.05903C7.20696 6.48736 7.3253 6.6057 7.32797 6.75361L7.33336 7.036C7.83359 7.15434 8.20742 7.60347 8.20742 8.14136C8.20742 8.29197 8.08909 8.4103 7.93848 8.4103C7.79056 8.4103 7.66954 8.29197 7.66954 8.14136C7.66954 7.81056 7.40059 7.53893 7.0671 7.53893C6.73362 7.53893 6.46198 7.81056 6.46198 8.14136C6.46198 8.47484 6.73362 8.74648 7.0671 8.74648C7.69644 8.74648 8.21012 9.26017 8.21012 9.88949C8.21012 10.4247 7.83628 10.8711 7.33874 10.9948Z" fill="#292B5D"/>
<path d="M15.1793 16.3682H16.8338C16.9823 16.3682 17.1027 16.2478 17.1027 16.0992V11.7719C17.1027 11.6233 16.9823 11.5029 16.8338 11.5029H15.1793C15.0308 11.5029 14.9104 11.6233 14.9104 11.7719V16.0992C14.9104 16.2478 15.0308 16.3682 15.1793 16.3682Z" fill="#292B5D"/>
</svg>
