<svg width="10" height="9" viewBox="0 0 10 9" fill="none" xmlns="http://www.w3.org/2000/svg">
<path d="M1.64091 3.09779H0.273554C0.201094 3.09811 0.131688 3.12919 0.0804507 3.18426C0.0292137 3.23933 0.000297467 3.31394 0 3.39182V8.70531C0.000188924 8.78329 0.0290508 8.85803 0.0802936 8.91323C0.131536 8.96843 0.201005 8.99962 0.273554 9H1.64091C1.71346 8.99962 1.78293 8.96843 1.83417 8.91323C1.88541 8.85803 1.91428 8.78329 1.91446 8.70531V3.39204C1.91422 3.31412 1.88533 3.23946 1.83409 3.18434C1.78284 3.12922 1.71341 3.09811 1.64091 3.09779ZM8.70215 3.33882H6.25732C6.25732 3.33639 6.01171 3.2527 6.1546 3.08576L7.34619 1.69691C7.65169 1.34116 7.50644 -0.031788 6.99077 0.00056228C6.43914 0.0348999 5.9586 0.473781 5.57749 0.862536C4.7932 1.66147 4.31492 2.23979 3.6771 3.01002C3.58722 3.11822 3.49282 3.23249 3.27217 3.49781C3.15044 3.65548 3.06456 3.71863 3.06456 3.95314V8.38557C3.06456 8.73954 3.3677 9 3.70268 9H8.23969C8.59973 9 8.78412 8.67837 8.88469 8.34041L9.73894 5.43849C9.8959 4.90665 10.2394 4.06002 9.73668 3.60469C9.45285 3.34732 8.98361 3.33871 8.70215 3.33871V3.33882Z" fill="#3755BE"/>
</svg>
