<svg width="16" height="16" viewBox="0 0 16 16" fill="none" xmlns="http://www.w3.org/2000/svg">
<path d="M1.14507 7.59603V13.3216H3.69657L3.82541 13.336C6.19419 13.8608 7.76383 14.2392 8.54612 14.4736C9.58525 14.7848 9.97261 14.8608 10.6774 14.9056C11.2046 14.94 11.8033 14.7472 12.0761 14.4832C12.2269 14.3376 12.3397 14.0384 12.3843 13.5744C12.3936 13.4771 12.4302 13.384 12.4903 13.3047C12.5505 13.2255 12.632 13.1631 12.7262 13.124C12.9359 13.0376 13.1102 12.8968 13.2559 12.692C13.3906 12.5048 13.4782 12.156 13.4942 11.6512C13.497 11.5584 13.5247 11.4678 13.5747 11.388C13.6246 11.3083 13.6952 11.2419 13.7797 11.1952C14.2697 10.9256 14.5123 10.6216 14.5628 10.2648C14.6184 9.87043 14.4836 9.42643 14.1308 8.92083C14.048 8.80225 14.0172 8.65767 14.0449 8.51784C14.0725 8.378 14.1565 8.25394 14.279 8.17203C14.6167 7.94643 14.8019 7.63282 14.8483 7.18802C14.9224 6.47922 14.4466 5.95522 13.3696 5.85042C12.4103 5.76029 11.4418 5.83701 10.5115 6.07682C10.406 6.10302 10.2948 6.10004 10.191 6.06824C10.0872 6.03643 9.9951 5.97712 9.92557 5.89728C9.85604 5.81744 9.81196 5.7204 9.79851 5.61757C9.78507 5.51474 9.80281 5.4104 9.84966 5.31682C10.2707 4.47042 10.5048 3.77202 10.5595 3.23122C10.6311 2.51362 10.4568 1.99362 10.0492 1.56482C9.74019 1.24002 9.24589 1.05442 9.06063 1.09282C8.81643 1.14242 8.65728 1.27682 8.45012 1.74722C8.32802 2.02562 8.26908 2.26242 8.16803 2.81522C8.07119 3.34002 8.01814 3.57682 7.90782 3.88722C7.5752 4.82802 6.75922 5.80322 5.66368 6.47602C4.89586 6.947 4.06372 7.31576 3.19048 7.57203C3.13593 7.588 3.07916 7.59609 3.02207 7.59603H1.14507ZM1.1097 14.412C0.837708 14.4192 0.593505 14.3616 0.388879 14.2256C0.127834 14.052 0.00488994 13.7784 0.00236369 13.4632L0.00488994 7.60483C-0.0237408 7.29282 0.0730985 7.00642 0.302145 6.79362C0.516875 6.59362 0.797289 6.49922 1.0937 6.50562H2.93365C3.67793 6.28032 4.38752 5.96236 5.0439 5.56002C5.92641 5.01762 6.57649 4.24002 6.82491 3.53922C6.90996 3.29762 6.95543 3.09762 7.04132 2.62722C7.15753 1.99602 7.22995 1.70242 7.39668 1.32482C7.74193 0.539216 8.19497 0.155215 8.8198 0.0264147C9.43452 -0.0999854 10.3296 0.236815 10.8955 0.832016C11.5229 1.49122 11.7999 2.31602 11.6972 3.33522C11.6534 3.77362 11.5254 4.26402 11.3149 4.81042C12.0338 4.71088 12.7629 4.69584 13.4858 4.76562C15.1758 4.92962 16.1249 5.97522 15.9868 7.29682C15.9261 7.86643 15.7089 8.35043 15.3392 8.73043C15.6499 9.29923 15.7737 9.86163 15.6962 10.4104C15.607 11.0424 15.2365 11.5688 14.6201 11.9776C14.5721 12.532 14.4382 12.9744 14.2007 13.3056C14.0136 13.5732 13.7695 13.8005 13.4841 13.9728C13.3931 14.52 13.202 14.948 12.8896 15.2488C12.3717 15.7496 11.4462 16.048 10.6008 15.9936C9.7983 15.9424 9.32336 15.8496 8.20339 15.5136C7.46489 15.292 5.93567 14.924 3.63089 14.412H1.10886H1.1097ZM2.54208 7.34723C2.54186 7.27565 2.55651 7.20474 2.58518 7.13855C2.61386 7.07237 2.65601 7.01221 2.7092 6.96152C2.76239 6.91084 2.82559 6.87062 2.89518 6.84319C2.96476 6.81575 3.03936 6.80162 3.1147 6.80162C3.18989 6.80183 3.26431 6.81611 3.3337 6.84365C3.40309 6.87118 3.46609 6.91143 3.5191 6.96209C3.57212 7.01275 3.61411 7.07284 3.64268 7.13892C3.67126 7.205 3.68585 7.27579 3.68563 7.34723V13.4896C3.68574 13.5611 3.67104 13.6318 3.64236 13.6979C3.61369 13.7639 3.5716 13.8239 3.51851 13.8745C3.46541 13.9251 3.40235 13.9653 3.33292 13.9927C3.26349 14.0202 3.18905 14.0343 3.11385 14.0344C3.03866 14.0343 2.96422 14.0202 2.89479 13.9927C2.82536 13.9653 2.76229 13.9251 2.7092 13.8745C2.65611 13.8239 2.61402 13.7639 2.58535 13.6979C2.55667 13.6318 2.54197 13.5611 2.54208 13.4896V7.34723Z" fill="#2957A4"/>
</svg>
