<svg width="11" height="14" viewBox="0 0 11 14" fill="none" xmlns="http://www.w3.org/2000/svg">
<g id="Group">
<path id="Vector" d="M3.5625 3.5H7.9375C8.179 3.5 8.375 3.304 8.375 3.0625V1.3125C8.375 1.071 8.179 0.875 7.9375 0.875H6.98725C6.807 0.36575 6.3205 0 5.75 0C5.1795 0 4.693 0.36575 4.51188 0.875H3.5625C3.321 0.875 3.125 1.071 3.125 1.3125V3.0625C3.125 3.304 3.321 3.5 3.5625 3.5Z" fill="#292B5D"/>
<path id="Vector_2" d="M10.125 1.75H9.25V3.0625C9.25 3.78612 8.66113 4.375 7.9375 4.375H3.5625C2.83888 4.375 2.25 3.78612 2.25 3.0625V1.75H1.375C0.892875 1.75 0.5 2.14288 0.5 2.625V13.125C0.5 13.6159 0.884125 14 1.375 14H10.125C10.6159 14 11 13.6159 11 13.125V2.625C11 2.13412 10.6159 1.75 10.125 1.75ZM5.3125 11.375H2.6875C2.44687 11.375 2.25 11.1781 2.25 10.9375C2.25 10.6969 2.44687 10.5 2.6875 10.5H5.3125C5.55312 10.5 5.75 10.6969 5.75 10.9375C5.75 11.1781 5.55312 11.375 5.3125 11.375ZM5.3125 9.625H2.6875C2.44687 9.625 2.25 9.42812 2.25 9.1875C2.25 8.94688 2.44687 8.75 2.6875 8.75H5.3125C5.55312 8.75 5.75 8.94688 5.75 9.1875C5.75 9.42812 5.55312 9.625 5.3125 9.625ZM5.3125 7.875H2.6875C2.44687 7.875 2.25 7.67812 2.25 7.4375C2.25 7.19688 2.44687 7 2.6875 7H5.3125C5.55312 7 5.75 7.19688 5.75 7.4375C5.75 7.67812 5.55312 7.875 5.3125 7.875ZM8.375 11.3076V11.8125C8.375 12.054 8.179 12.25 7.9375 12.25C7.696 12.25 7.5 12.054 7.5 11.8125V11.3146C7.35913 11.2744 7.227 11.214 7.108 11.1353C6.90763 11.0014 6.85337 10.7292 6.98725 10.528C7.122 10.3276 7.39325 10.2751 7.5945 10.4073C7.6855 10.4676 7.8045 10.5 7.9375 10.5C8.20525 10.5 8.375 10.3565 8.375 10.2812C8.375 10.206 8.20525 10.0625 7.9375 10.0625C7.21387 10.0625 6.625 9.57163 6.625 8.96875C6.625 8.49363 6.99162 8.09287 7.5 7.94237V7.4375C7.5 7.196 7.696 7 7.9375 7C8.179 7 8.375 7.196 8.375 7.4375V7.93538C8.51587 7.97563 8.648 8.036 8.767 8.11475C8.96737 8.24863 9.02163 8.52075 8.88775 8.722C8.75388 8.92238 8.48263 8.97575 8.2805 8.84275C8.1895 8.78237 8.0705 8.75 7.9375 8.75C7.66975 8.75 7.5 8.8935 7.5 8.96875C7.5 9.044 7.66975 9.1875 7.9375 9.1875C8.66113 9.1875 9.25 9.67837 9.25 10.2812C9.25 10.7564 8.88338 11.1571 8.375 11.3076ZM8.8125 6.125H2.6875C2.44687 6.125 2.25 5.92812 2.25 5.6875C2.25 5.44688 2.44687 5.25 2.6875 5.25H8.8125C9.05313 5.25 9.25 5.44688 9.25 5.6875C9.25 5.92812 9.05313 6.125 8.8125 6.125Z" fill="#292B5D"/>
</g>
</svg>
