<svg width="14" height="20" viewBox="0 0 14 20" fill="none" xmlns="http://www.w3.org/2000/svg">
<path d="M6.92924 14.9789H6.4563V17.0612H6.91277C7.54571 17.0636 7.86571 16.7153 7.86571 16.0165C7.86571 15.3224 7.54571 14.9765 6.92924 14.9789Z" fill="#EF2222"/>
<path d="M4.32724 14.9623H3.81665V16.0611H4.32724C4.73665 16.0588 4.92018 15.8282 4.92018 15.5105C4.92018 15.1858 4.73665 14.9623 4.32724 14.9623Z" fill="#EF2222"/>
<path d="M9.08235 0L0.828235 0C0.371765 0 0 0.376471 0 0.837647L0 18.3412C0 18.8024 0.371765 19.1788 0.828235 19.1788H13.1718C13.6282 19.1788 14 18.8024 14 18.3412V4.91765L9.08235 0ZM4.40235 16.5082H3.81647V17.5318H3.27294V14.5059H4.40941C5.10353 14.5059 5.47294 14.9271 5.47529 15.5082C5.47294 16.0871 5.09882 16.5082 4.40235 16.5082ZM6.94118 17.5318H5.91294V14.5059H6.95765C7.86118 14.5059 8.40471 15.0729 8.40706 16.0141C8.40706 16.9624 7.86118 17.5318 6.94118 17.5318ZM10.8282 14.9624H9.43294V15.7906H10.6941V16.2471H9.43294V17.5341H8.88941V14.5059H10.8282V14.9624ZM13.3224 12.6188H0.677647L0.677647 0.837647C0.677647 0.752941 0.745882 0.684706 0.828235 0.684706L8.82353 0.684706V4.76C8.82353 5.05412 9.06353 5.29412 9.35765 5.29412H13.3224V12.6188Z" fill="#EF2222"/>
</svg>
