<svg width="22" height="23" viewBox="0 0 22 23" fill="none" xmlns="http://www.w3.org/2000/svg">
<path d="M21.5019 10.6818L1.35922 0.596826C1.20135 0.517767 1.02402 0.486089 0.848584 0.505608C0.673149 0.525127 0.507089 0.59501 0.370398 0.706843C0.239859 0.816396 0.142426 0.960238 0.0890505 1.1222C0.0356753 1.28416 0.0284747 1.45782 0.0682584 1.62365L2.49453 10.5809H12.8497V12.4145H2.49453L0.0316354 21.3443C-0.0056959 21.4828 -0.0100536 21.6281 0.0189128 21.7686C0.0478791 21.9091 0.109361 22.0408 0.198416 22.1531C0.28747 22.2655 0.401611 22.3554 0.531662 22.4155C0.661713 22.4757 0.804044 22.5044 0.947211 22.4995C1.09054 22.4986 1.23166 22.464 1.35922 22.3986L21.5019 12.3137C21.6519 12.2367 21.7777 12.1199 21.8656 11.9759C21.9535 11.8319 22 11.6665 22 11.4977C22 11.329 21.9535 11.1635 21.8656 11.0195C21.7777 10.8756 21.6519 10.7587 21.5019 10.6818Z" fill="#2957A4"/>
</svg>
