<svg width="34" height="34" viewBox="0 0 34 34" fill="none" xmlns="http://www.w3.org/2000/svg">
<g clip-path="url(#clip0_777_3794)">
<path d="M0.0144472 11.2942H33.9847V11.6867C33.9847 18.2997 33.9664 24.9126 34 31.5246C34.0068 32.9522 32.9873 34.0029 31.5643 33.999C21.8564 33.9757 12.1488 33.9757 2.44158 33.999C1.00029 33.999 -0.00764321 32.9328 4.36661e-05 31.5314C0.0336737 24.9194 0.0144472 18.3064 0.0144472 11.6935V11.2942ZM26.6716 16.685H23.3211V20.8603H19.1894V24.2429H23.3297V28.3989H26.6927V24.2312H30.8013V20.8409H26.6696L26.6716 16.685ZM6.0131 24.5462C6.45605 24.5462 6.89997 24.5462 7.34292 24.5462C7.87043 24.5395 8.14332 24.271 8.14716 23.7447C8.15293 22.8401 8.15293 21.9355 8.14716 21.0309C8.14716 20.5221 7.87908 20.2478 7.3679 20.242C6.45829 20.231 5.54835 20.231 4.6381 20.242C4.14614 20.2478 3.87614 20.5104 3.86941 21.0047C3.85532 21.9339 3.85532 22.864 3.86941 23.7951C3.87806 24.2875 4.15767 24.5404 4.64867 24.5482C5.10796 24.5511 5.56725 24.5453 6.01789 24.5462H6.0131ZM5.98907 17.8684C6.44452 17.8684 6.899 17.8684 7.35445 17.8684C7.86082 17.8616 8.14235 17.5912 8.1462 17.093C8.15388 16.1748 8.15388 15.257 8.1462 14.3395C8.1462 13.8548 7.88004 13.5699 7.39193 13.5641C6.47078 13.5486 5.54867 13.5486 4.62561 13.5641C4.15094 13.5709 3.87902 13.8335 3.87037 14.3036C3.85372 15.2457 3.85372 16.1877 3.87037 17.1298C3.87998 17.6144 4.16729 17.8664 4.66021 17.8732C5.10797 17.8722 5.55092 17.8684 5.99387 17.8684H5.98907ZM6.01502 31.2241C6.45797 31.2241 6.90093 31.2299 7.34388 31.2241C7.87428 31.2164 8.14428 30.9498 8.14716 30.4226C8.15293 29.518 8.15293 28.6134 8.14716 27.7088C8.14716 27.199 7.87524 26.9257 7.36694 26.9208C6.45669 26.9124 5.54644 26.9124 4.63619 26.9208C4.16249 26.9208 3.87999 27.1796 3.8675 27.6487C3.85021 28.6024 3.85021 29.5564 3.8675 30.5108C3.87711 30.9634 4.15576 31.2154 4.60832 31.2251C5.08683 31.2319 5.55284 31.2241 6.01982 31.2241H6.01502ZM16.425 15.7371V14.3966C16.425 14.3724 16.425 14.3482 16.425 14.3239C16.4086 13.85 16.1646 13.568 15.6957 13.5602C14.7502 13.5434 13.8044 13.5434 12.8583 13.5602C12.423 13.568 12.1626 13.8355 12.1559 14.2716C12.1418 15.2253 12.1418 16.1793 12.1559 17.1337C12.1626 17.5873 12.4384 17.8577 12.8804 17.8625C13.8143 17.8722 14.7483 17.8722 15.6822 17.8625C16.1425 17.8625 16.4134 17.5776 16.423 17.1124C16.4326 16.6472 16.4298 16.1965 16.4298 15.7371H16.425ZM14.2774 24.5453C14.7444 24.5453 15.2114 24.553 15.6784 24.5453C16.1454 24.5375 16.4173 24.2642 16.4221 23.797C16.4304 22.8679 16.4304 21.9381 16.4221 21.0076C16.4221 20.523 16.154 20.2468 15.6611 20.24C14.7399 20.2284 13.8182 20.2284 12.8957 20.24C12.422 20.2468 12.1588 20.5114 12.153 20.9873C12.1395 21.9164 12.1395 22.8462 12.153 23.7767C12.1597 24.2884 12.4316 24.5395 12.9486 24.5453C13.3963 24.5501 13.8393 24.5462 14.2822 24.5453H14.2774ZM14.2611 31.2251H15.662C16.1502 31.2057 16.4182 30.946 16.4221 30.4555C16.4298 29.5374 16.4298 28.6195 16.4221 27.702C16.4221 27.1893 16.155 26.9218 15.6409 26.9169C14.7313 26.9092 13.8214 26.9092 12.9111 26.9169C12.4201 26.9228 12.1568 27.1844 12.1511 27.6846C12.1389 28.6014 12.1389 29.5193 12.1511 30.4381C12.1568 30.9586 12.4201 31.2135 12.9322 31.2232C13.38 31.2299 13.823 31.2241 14.2659 31.2251H14.2611Z" fill="#5FAFFF"/>
<path d="M3.94649 4.08137C3.94649 4.77048 3.9388 5.43245 3.94649 6.09443C3.94001 6.37175 3.96776 6.64881 4.02912 6.91922C4.16066 7.40163 4.46033 7.81997 4.8731 8.09741C5.28587 8.37484 5.78402 8.49274 6.27604 8.42945C6.76807 8.36616 7.22093 8.12593 7.55146 7.75288C7.88199 7.37984 8.06799 6.89902 8.0753 6.39876C8.08971 5.64956 8.08587 4.90035 8.09067 4.15115C8.09067 4.14146 8.10316 4.13177 8.12526 4.10172H14.9195C14.9195 4.85189 14.9128 5.58656 14.9195 6.32025C14.931 7.28074 15.5066 8.07647 16.3723 8.3556C17.6993 8.77721 19.0176 7.80412 19.0627 6.35902C19.0819 5.74357 19.0627 5.12618 19.0627 4.50976V4.10366H25.905V4.44676C25.905 5.10001 25.8964 5.75326 25.905 6.40554C25.9139 6.94255 26.1293 7.45505 26.5058 7.83482C26.8823 8.21459 27.3904 8.43191 27.9228 8.44089C29.0489 8.4564 29.9637 7.62094 30.0175 6.48986C30.0492 5.82692 30.029 5.16107 30.0319 4.49619C30.0319 4.36729 30.0319 4.23741 30.0319 4.13468C30.7842 4.13468 31.4982 4.05811 32.189 4.15309C33.2239 4.29557 33.9522 5.20566 33.9657 6.26016C33.983 7.67424 33.9657 9.08833 33.9762 10.5034C33.9762 10.7854 33.8801 10.9095 33.5986 10.8852C33.5275 10.8794 33.4545 10.8852 33.3834 10.8852H0.606541C0.0146517 10.8852 0.0146484 10.8852 0.0146484 10.2892C0.0146484 9.00788 0.0146484 7.72658 0.0146484 6.44528C0.0204136 5.02345 0.95053 4.09009 2.36107 4.08234C2.87705 4.07846 3.38919 4.08137 3.94649 4.08137Z" fill="#5FAFFF"/>
<path d="M15.3409 4.01256C15.3409 3.25076 15.3409 2.48896 15.3409 1.72812C15.3476 0.733711 16.05 0.00389293 16.9926 0.000985289C17.9352 -0.00192235 18.651 0.722081 18.6549 1.71359C18.6613 3.24947 18.6613 4.78502 18.6549 6.32026C18.6549 7.30207 17.9189 8.04643 16.9878 8.0377C16.0567 8.02898 15.3543 7.29432 15.3409 6.33383C15.3342 5.5604 15.3409 4.78696 15.3409 4.01256Z" fill="#5FAFFF"/>
<path d="M7.66589 4.02894C7.66589 4.85083 7.68992 5.6766 7.65821 6.49559C7.6265 7.31457 7.0077 7.92421 6.19001 8.02307C5.81162 8.06332 5.431 7.97119 5.11193 7.76209C4.79286 7.553 4.55472 7.23966 4.43741 6.87455C4.38563 6.71352 4.35779 6.54564 4.35478 6.37637C4.34805 4.80431 4.3394 3.23225 4.35478 1.66115C4.35511 1.25773 4.50081 0.868184 4.76472 0.565064C5.02864 0.261944 5.39279 0.0659159 5.78934 0.0134899C6.64163 -0.0834314 7.38724 0.401177 7.60728 1.20853C7.65512 1.40771 7.67709 1.61231 7.67262 1.8172C7.67935 2.55477 7.67262 3.29234 7.67262 4.02991L7.66589 4.02894Z" fill="#5FAFFF"/>
<path d="M26.3219 4.01838C26.3219 3.26918 26.3161 2.51997 26.3219 1.7698C26.3315 0.734684 27.0156 0.00680654 27.9698 0.00292969C28.9402 0.00292969 29.6407 0.738562 29.6445 1.78628C29.6493 3.29728 29.6532 4.80926 29.6445 6.32026C29.6388 7.22744 29.0421 7.90686 28.1879 8.02123C27.7982 8.07489 27.4024 7.98493 27.0732 7.7679C26.7441 7.55086 26.5035 7.2213 26.3959 6.83976C26.3442 6.629 26.3203 6.41229 26.3248 6.19523C26.3219 5.46638 26.3219 4.74141 26.3219 4.01838Z" fill="#5FAFFF"/>
</g>
<defs>
<clipPath id="clip0_777_3794">
<rect width="34" height="34" fill="white"/>
</clipPath>
</defs>
</svg>
