<svg width="32" height="32" viewBox="0 0 32 32" fill="none" xmlns="http://www.w3.org/2000/svg">
<g clip-path="url(#clip0_777_3790)">
<path d="M5.30518 3.97747C6.007 3.97747 6.70977 3.9584 7.41064 3.97747C9.20662 4.0366 10.2255 4.87484 10.3627 6.66194C10.4925 8.32206 10.7595 9.96856 11.1607 11.5846C11.373 12.4428 11.174 13.2553 10.6122 13.9686C9.96653 14.7926 9.35231 15.6432 8.70763 16.47C8.55717 16.6607 8.56384 16.8038 8.67906 17.0079C10.1663 19.6802 12.3699 21.8831 15.0412 23.3676C15.1114 23.4198 15.1978 23.4452 15.285 23.4395C15.3722 23.4337 15.4545 23.3971 15.5173 23.3362C16.2982 22.7306 17.1085 22.1632 17.8704 21.5338C18.7341 20.8205 19.6739 20.6641 20.7443 20.9149C21.8146 21.1657 22.8802 21.3707 23.9572 21.55C24.481 21.6377 25.0295 21.5796 25.5552 21.6616C27.0026 21.8876 27.8653 22.8107 27.9996 24.2698C28.0482 24.8009 28.012 25.3388 28.012 25.8738C28.012 26.8989 28.0244 27.9241 27.9996 28.9483C27.9871 29.341 27.9283 29.7309 27.8244 30.1098C27.5121 31.2751 26.7017 31.9217 25.4609 31.9722C22.0565 32.1229 18.7579 31.5908 15.6611 30.1603C8.07628 26.6462 3.03116 20.8958 0.701915 12.8243C0.150552 10.917 -0.0427558 8.94493 0.00771439 6.9547C0.0543755 5.11038 0.99617 4.10812 2.84262 4.00798C3.66157 3.96316 4.48432 4.00036 5.30518 4.00036V3.97747Z" fill="#5FAFFF"/>
<path d="M22.6476 9.37599C23.2476 9.37599 23.8046 9.37599 24.3617 9.37599C25.314 9.37599 25.873 9.931 25.8854 10.8799C25.8911 11.3446 25.8911 11.8093 25.8854 12.2741C25.8739 13.2115 25.3349 13.7541 24.3931 13.7694C23.8218 13.7779 23.2561 13.7694 22.6486 13.7694C22.6486 14.3654 22.6486 14.9223 22.6486 15.4802C22.6486 16.4491 22.0868 17.006 21.125 17.0136C20.6488 17.0136 20.1727 17.0212 19.6966 17.0136C18.8624 16.9983 18.2929 16.4252 18.2815 15.5832C18.2739 15.0005 18.2815 14.4178 18.2815 13.7713C17.9672 13.7713 17.6768 13.7713 17.3864 13.7713C17.0169 13.7713 16.6465 13.7846 16.2808 13.7503C15.6028 13.6864 15.1038 13.1981 15.0609 12.5172C15.0233 11.8986 15.0233 11.2782 15.0609 10.6596C15.1066 9.89667 15.6885 9.39029 16.4693 9.37885C17.0616 9.37026 17.653 9.37885 18.2843 9.37885C18.2843 8.78188 18.2843 8.22496 18.2843 7.66804C18.2843 6.6877 18.8319 6.14986 19.8146 6.14795C20.2908 6.14795 20.7669 6.14795 21.243 6.14795C22.0753 6.15653 22.6476 6.73157 22.6562 7.57172C22.6524 8.15248 22.6476 8.73515 22.6476 9.37599Z" fill="#5FAFFF"/>
<path d="M20.331 1.15395C17.1666 1.23215 14.4355 2.50238 12.3377 5.08863C12.2996 5.1344 12.2653 5.18399 12.2263 5.22786C11.9653 5.52443 11.6425 5.57116 11.3787 5.34992C11.1292 5.14108 11.0873 4.8073 11.3283 4.52408C11.7673 4.00816 12.191 3.46555 12.6957 3.01925C16.322 -0.180179 20.4453 -0.795271 24.8619 0.974666C28.5357 2.44516 30.9431 5.18399 31.7258 9.11104C32.6486 13.739 31.2392 17.6203 27.5854 20.6404C27.4955 20.71 27.3928 20.761 27.2831 20.7905C27.1734 20.8199 27.059 20.8273 26.9464 20.8121C26.4827 20.7072 26.4427 20.1588 26.8217 19.8003C27.4511 19.2043 28.1329 18.6445 28.67 17.9712C31.7001 14.1767 31.5459 8.6018 28.3386 4.8054C26.2827 2.37269 23.6335 1.21117 20.331 1.15395Z" fill="#5FAFFF"/>
</g>
<defs>
<clipPath id="clip0_777_3790">
<rect width="32" height="32" fill="white"/>
</clipPath>
</defs>
</svg>
