<svg width="40" height="40" viewBox="0 0 40 40" fill="none" xmlns="http://www.w3.org/2000/svg">
<g clip-path="url(#clip0_435_5003)">
<path d="M0.860048 39.22C0.565128 39.0943 0.32108 38.8731 0.166932 38.592C0.0127845 38.3109 -0.0424963 37.9862 0.010072 37.6699C-0.028164 36.7506 0.0490867 35.8301 0.240052 34.9299C0.622687 33.6499 1.43054 32.5388 2.53009 31.78C3.14163 32.4305 3.87991 32.9489 4.6994 33.3032C5.5189 33.6576 6.40228 33.8403 7.29511 33.8403C8.18794 33.8403 9.07131 33.6576 9.89081 33.3032C10.7103 32.9489 11.4486 32.4305 12.0601 31.78C13.159 32.524 13.965 33.6269 14.34 34.8999C14.5971 35.9833 14.6716 37.1021 14.5601 38.21C14.5601 38.72 14.1601 39 13.7401 39.21L0.860048 39.22Z" fill="#5FAFFF"/>
<path d="M25.54 39.22C25.2472 39.0915 25.0051 38.8699 24.8514 38.5896C24.6977 38.3093 24.641 37.9858 24.69 37.6699C24.6497 36.7533 24.7304 35.8354 24.93 34.9399C25.3058 33.6566 26.1105 32.5413 27.2099 31.78C27.8223 32.4308 28.5615 32.9492 29.3818 33.3037C30.2021 33.6582 31.0863 33.8411 31.9799 33.8411C32.8736 33.8411 33.7577 33.6582 34.5781 33.3037C35.3984 32.9492 36.1375 32.4308 36.7499 31.78C37.3846 32.2161 37.9263 32.7739 38.3435 33.4211C38.7606 34.0683 39.045 34.792 39.18 35.55C39.18 35.68 39.24 35.7999 39.26 35.9199V38.3699C39.0863 38.7415 38.7896 39.0419 38.42 39.22H25.54Z" fill="#5FAFFF"/>
<path d="M11.1999 25.72L14.0198 24.8499C14.6398 24.6499 15.2598 24.45 15.8798 24.27C15.9727 24.258 16.0581 24.2131 16.1206 24.1433C16.183 24.0735 16.2182 23.9835 16.2198 23.8899C16.2837 23.2954 16.5019 22.728 16.8527 22.2439C17.2036 21.7598 17.6748 21.3757 18.2198 21.1299C18.2754 21.1018 18.3235 21.061 18.3601 21.0105C18.3966 20.96 18.4206 20.9017 18.4299 20.8401C18.4299 19.2801 18.4299 17.7199 18.4299 16.0999H13.6098C13.4304 16.1234 13.2481 16.1052 13.077 16.0464C12.9059 15.9876 12.7508 15.8899 12.6239 15.761C12.4969 15.6321 12.4016 15.4754 12.3454 15.3035C12.2892 15.1315 12.2736 14.949 12.2999 14.77C12.2236 13.7641 12.3011 12.7525 12.5299 11.77C12.9046 10.4996 13.7064 9.39741 14.7999 8.6499C15.4163 9.29736 16.1579 9.81282 16.9796 10.165C17.8012 10.5173 18.6859 10.699 19.5799 10.699C20.4739 10.699 21.3585 10.5173 22.1801 10.165C23.0018 9.81282 23.7434 9.29736 24.3598 8.6499C25.0051 9.07698 25.5533 9.63532 25.9686 10.2883C26.3838 10.9413 26.6568 11.6744 26.7698 12.4399C26.8617 13.29 26.8884 14.1459 26.8498 15C26.8436 15.1507 26.8069 15.2986 26.7421 15.4348C26.6773 15.571 26.5857 15.6928 26.4727 15.7927C26.3597 15.8927 26.2277 15.9687 26.0845 16.0164C25.9414 16.064 25.7902 16.0823 25.6398 16.0701H20.7298V16.74C20.7298 18.06 20.7298 19.39 20.7298 20.74C20.7314 20.8145 20.7503 20.8877 20.785 20.9536C20.8197 21.0196 20.8693 21.0764 20.9299 21.1199C21.4848 21.3566 21.9674 21.7357 22.3291 22.2185C22.6907 22.7013 22.9186 23.2708 22.9898 23.8699C22.9907 23.9632 23.0242 24.0533 23.0844 24.1245C23.1447 24.1957 23.228 24.2437 23.3199 24.26C24.7599 24.7 26.1898 25.1399 27.6298 25.5999C27.9198 25.6899 28.0498 25.6699 28.2098 25.3699C28.6714 24.5159 29.416 23.8493 30.3156 23.4844C31.2152 23.1194 32.2137 23.0789 33.1398 23.3699C33.8456 23.5796 34.4843 23.9703 34.9924 24.5032C35.5004 25.0361 35.8602 25.6927 36.036 26.4077C36.2118 27.1227 36.1975 27.8711 35.9945 28.5789C35.7914 29.2866 35.4068 29.9288 34.8787 30.4419C34.3507 30.955 33.6976 31.3209 32.9843 31.5034C32.271 31.686 31.5224 31.6788 30.8128 31.4824C30.1032 31.2861 29.4573 30.9075 28.9393 30.3843C28.4213 29.8611 28.0491 29.2115 27.8598 28.5C27.8364 28.3606 27.7713 28.2314 27.6732 28.1296C27.575 28.0279 27.4484 27.9583 27.3099 27.9299C25.7399 27.4599 24.1898 26.98 22.6298 26.48C22.5457 26.4417 22.451 26.4338 22.3616 26.4575C22.2723 26.4812 22.1939 26.5349 22.1398 26.6099C21.8207 26.9784 21.426 27.274 20.9826 27.4766C20.5392 27.6791 20.0574 27.7839 19.5699 27.7839C19.0824 27.7839 18.6006 27.6791 18.1572 27.4766C17.7138 27.274 17.319 26.9784 16.9998 26.6099C16.9489 26.534 16.873 26.4785 16.7852 26.4529C16.6975 26.4273 16.6036 26.4334 16.5198 26.47C14.8932 26.99 13.2632 27.4967 11.6298 27.99C11.3798 28.06 11.3599 28.2299 11.3099 28.4099C11.1259 29.1455 10.7467 29.8178 10.2124 30.3557C9.67797 30.8936 9.00824 31.2773 8.27388 31.4661C7.53951 31.6549 6.7678 31.642 6.04023 31.4285C5.31267 31.215 4.65624 30.8088 4.14033 30.2532C3.62443 29.6975 3.26819 29.0129 3.1092 28.2715C2.95022 27.5301 2.99443 26.7594 3.23713 26.041C3.47984 25.3227 3.91205 24.6832 4.48811 24.1902C5.06416 23.6971 5.76263 23.3689 6.50984 23.24C8.53984 22.92 10.0899 23.74 11.1999 25.72Z" fill="#5FAFFF"/>
<path d="M19.66 4.76585e-05C20.4946 0.00401259 21.3093 0.255473 22.001 0.72246C22.6928 1.18945 23.2306 1.85098 23.5463 2.62358C23.862 3.39619 23.9415 4.24498 23.7748 5.06279C23.6081 5.88061 23.2026 6.63069 22.6097 7.21807C22.0167 7.80544 21.2629 8.20389 20.4435 8.36284C19.6242 8.52179 18.7761 8.43418 18.0065 8.11113C17.2369 7.78808 16.5805 7.24406 16.12 6.5479C15.6596 5.85174 15.416 5.03462 15.42 4.2C15.4226 3.64582 15.5343 3.09771 15.7488 2.58672C15.9633 2.07573 16.2764 1.61198 16.6701 1.22197C17.0638 0.831964 17.5305 0.52317 18.0435 0.313524C18.5565 0.103878 19.1058 -0.00258501 19.66 4.76585e-05Z" fill="#5FAFFF"/>
</g>
<defs>
<clipPath id="clip0_435_5003">
<rect width="39.26" height="39.25" fill="white"/>
</clipPath>
</defs>
</svg>
