<svg width="43" height="37" viewBox="0 0 43 37" fill="none" xmlns="http://www.w3.org/2000/svg">
<g clip-path="url(#clip0_435_5088)">
<path d="M42.3799 36.47H41.8499H25.0099V29.3999H27.4698V31.8401H29.9498V29.3899H32.4198V26.9099H29.9698V24.4299H27.4698V26.8699H24.9899C25.0581 25.9931 24.8355 25.1184 24.3564 24.3809C23.8774 23.6433 23.1686 23.0842 22.3398 22.79V19.79H41.8499C42.0299 19.79 42.1999 19.79 42.3799 19.79V36.47Z" fill="#5FAFFF"/>
<path d="M0 17.1099H10.47V36.3699H8.02002V29.0701H2.46997V36.3699H0.0100098L0 17.1099Z" fill="#5FAFFF"/>
<path d="M8.6199 7.93985C5.9899 6.93985 4.87987 5.28977 5.33987 3.10977C5.48816 2.39249 5.8306 1.72979 6.32974 1.19375C6.82889 0.657719 7.46554 0.268937 8.17044 0.0699737C8.87535 -0.12899 9.62143 -0.130366 10.3272 0.0655791C11.0329 0.261524 11.6713 0.647409 12.1728 1.1813C12.6742 1.71519 13.0193 2.37653 13.1707 3.09317C13.322 3.8098 13.2738 4.55421 13.031 5.24527C12.7883 5.93632 12.3605 6.54753 11.7942 7.01211C11.228 7.4767 10.545 7.77673 9.81986 7.87979C10.3799 7.87979 10.8199 7.92991 11.3399 7.99991C12.5657 8.18056 13.687 8.79215 14.5026 9.725C15.3182 10.6579 15.7745 11.851 15.7898 13.09C15.7898 15.09 15.7898 17.1799 15.7898 19.2199V19.7099H19.7898V22.4699H12.9999V14.5998H2.6199C2.46329 13.7414 2.49578 12.8594 2.71512 12.0148C2.93446 11.1702 3.3354 10.3836 3.88992 9.70987C4.4765 9.05442 5.21321 8.5511 6.03702 8.24283C6.86082 7.93455 7.74713 7.8305 8.6199 7.93985Z" fill="#5FAFFF"/>
<path d="M39.7102 17.24H32.1702C31.9002 17.24 31.8003 17.1599 31.7703 16.8799C31.5803 15.2599 31.3702 13.65 31.1602 11.98H26.7002C26.9897 10.6972 27.7589 9.57387 28.8502 8.84009C29.9147 8.13279 31.1865 7.80496 32.4602 7.90991C31.4312 7.72181 30.5167 7.1382 29.913 6.28394C29.3092 5.42967 29.0641 4.37291 29.2302 3.34009C29.4304 2.43875 29.9363 1.63434 30.662 1.06348C31.3877 0.492616 32.2884 0.190346 33.2115 0.208008C34.1347 0.22567 35.0233 0.562199 35.7266 1.1604C36.4299 1.7586 36.9046 2.58165 37.0702 3.48999C37.1876 4.50336 36.9135 5.52341 36.3038 6.34131C35.6941 7.15921 34.7949 7.71305 33.7902 7.88989C34.3302 7.88989 34.7902 7.89 35.3202 8C36.5197 8.1956 37.6146 8.80064 38.4186 9.71216C39.2225 10.6237 39.686 11.7854 39.7302 13C39.7302 14.31 39.7302 15.6199 39.7302 16.9299C39.7402 17.0299 39.7202 17.11 39.7102 17.24Z" fill="#5FAFFF"/>
<path d="M18.4701 36.37V29.0501H13.0801V25.0501H20.8901C21.1148 25.0176 21.344 25.0382 21.5592 25.1104C21.7744 25.1827 21.9696 25.3046 22.1292 25.4661C22.2887 25.6276 22.4081 25.8243 22.4778 26.0404C22.5474 26.2564 22.5654 26.4858 22.5302 26.71V36.42L18.4701 36.37Z" fill="#5FAFFF"/>
<path d="M22.6699 14.47H28.97L29.3099 17.2H23.02L22.6699 14.47Z" fill="#5FAFFF"/>
</g>
<defs>
<clipPath id="clip0_435_5088">
<rect width="42.38" height="36.42" fill="white"/>
</clipPath>
</defs>
</svg>
