<svg width="39" height="36" viewBox="0 0 39 36" fill="none" xmlns="http://www.w3.org/2000/svg">
<g clip-path="url(#clip0_435_5009)">
<path d="M29.17 19.41C27.6769 19.159 26.3406 18.3349 25.4459 17.1134C24.5512 15.8918 24.1688 14.3693 24.38 12.87C24.5795 11.4993 25.2679 10.247 26.3183 9.3441C27.3688 8.44117 28.7103 7.94861 30.0954 7.95714C31.4806 7.96567 32.8159 8.4747 33.8551 9.39049C34.8943 10.3063 35.5673 11.567 35.75 12.9401C35.9396 14.4197 35.5518 15.9156 34.6672 17.1168C33.7826 18.318 32.4693 19.132 31 19.39C31.58 19.47 32.09 19.51 32.6 19.62C34.3709 19.9905 35.9613 20.957 37.1059 22.3583C38.2506 23.7595 38.8803 25.5106 38.89 27.3199C38.89 29.0899 38.89 30.86 38.89 32.62C38.9027 32.9814 38.8406 33.3417 38.7078 33.6781C38.5749 34.0145 38.3741 34.3198 38.1179 34.5751C37.8617 34.8303 37.5555 35.0301 37.2186 35.1617C36.8817 35.2933 36.5214 35.3539 36.16 35.34C32.08 35.34 27.9933 35.34 23.9 35.34C23.5534 35.3548 23.2073 35.2994 22.8827 35.1769C22.5581 35.0544 22.2616 34.8674 22.0112 34.6273C21.7608 34.3872 21.5615 34.0989 21.4255 33.7796C21.2895 33.4604 21.2196 33.1171 21.22 32.7701C21.22 30.7101 21.15 28.65 21.28 26.6C21.4503 24.7768 22.2501 23.0701 23.5421 21.7726C24.8341 20.4751 26.5376 19.6681 28.36 19.4901L29.17 19.41Z" fill="#5FAFFF"/>
<path d="M19.4499 32.6699H19.0099C14.3399 32.6699 9.66993 32.6699 5.00993 32.6699C4.78635 32.6973 4.5595 32.6674 4.35063 32.583C4.14176 32.4987 3.95765 32.3627 3.81572 32.1878C3.67379 32.0128 3.57861 31.8048 3.53911 31.583C3.4996 31.3613 3.51709 31.1331 3.58989 30.9199C3.72552 30.1721 4.1189 29.4956 4.70171 29.0078C5.28451 28.52 6.01995 28.2518 6.77995 28.25H11.4699V26.48H10.9899C8.84991 26.48 6.70987 26.48 4.56987 26.48C3.53811 26.5125 2.52767 26.1818 1.71452 25.5459C0.901375 24.91 0.337098 24.0092 0.119919 23C0.0507047 22.6711 0.013877 22.3361 0.00993388 22C0.00993388 16.17 0.00993388 10.35 0.00993388 4.52003C-0.0231204 3.45909 0.331044 2.42241 1.00639 1.60352C1.68174 0.784637 2.63203 0.239342 3.67986 0.0698304C4.01032 0.0157124 4.34508 -0.00754496 4.67986 6.23241e-06H28.04C28.6639 -0.0394348 29.2891 0.0540639 29.8741 0.274664C30.4591 0.495265 30.9906 0.837924 31.4332 1.27955C31.8757 1.72117 32.2192 2.2519 32.4411 2.83643C32.6629 3.42097 32.758 4.04587 32.7199 4.66993V6.57984L30.0699 6.08985V4.57984C30.094 4.32296 30.0617 4.06411 29.9751 3.82105C29.8886 3.57799 29.75 3.35672 29.569 3.17286C29.388 2.989 29.169 2.84692 28.9273 2.7566C28.6856 2.66627 28.4272 2.62983 28.17 2.64991H4.55986C4.30669 2.6304 4.05229 2.66583 3.81413 2.75391C3.57598 2.842 3.35977 2.98061 3.18022 3.16016C3.00067 3.33971 2.86206 3.55604 2.77397 3.7942C2.68589 4.03235 2.65046 4.28687 2.66997 4.54005C2.66997 9.44671 2.66997 14.3634 2.66997 19.29C2.6506 19.5541 2.68964 19.8192 2.78447 20.0664C2.8793 20.3136 3.02755 20.5369 3.21855 20.7202C3.40956 20.9036 3.6387 21.0425 3.88957 21.1272C4.14045 21.2119 4.40691 21.2401 4.66997 21.21H21.67L21.41 21.5698C20.1207 23.2367 19.4177 25.2826 19.41 27.3899V32.6699H19.4499ZM16.3799 22.54C16.2067 22.5347 16.0342 22.5639 15.8725 22.6262C15.7108 22.6885 15.5631 22.7826 15.4383 22.9028C15.3134 23.023 15.2138 23.167 15.1454 23.3262C15.077 23.4854 15.0412 23.6565 15.04 23.8298C15.036 24.0057 15.0671 24.1806 15.1316 24.3442C15.1962 24.5079 15.2928 24.657 15.4158 24.7827C15.5388 24.9085 15.6856 25.0085 15.8477 25.0767C16.0098 25.1449 16.184 25.18 16.3599 25.1799C16.71 25.1799 17.0457 25.0408 17.2933 24.7932C17.5408 24.5457 17.6799 24.21 17.6799 23.8599C17.6799 23.5098 17.5408 23.1741 17.2933 22.9265C17.0457 22.679 16.71 22.54 16.3599 22.54H16.3799Z" fill="#5FAFFF"/>
<path d="M17.0399 12.3298C21.1499 12.0498 23.5598 15.3299 22.9398 19.4099H9.79975C9.34975 16.1199 10.5399 13.36 13.9099 12.5C14.4703 12.3916 15.039 12.3312 15.6098 12.3198C14.8881 12.1879 14.2165 11.86 13.6686 11.372C13.1207 10.8841 12.7176 10.2549 12.5034 9.5532C12.2891 8.85149 12.2719 8.10432 12.4538 7.39353C12.6357 6.68274 13.0095 6.03575 13.5345 5.52317C14.0594 5.01059 14.7152 4.65215 15.4301 4.48728C16.145 4.32241 16.8916 4.35743 17.588 4.58835C18.2844 4.81928 18.9038 5.23724 19.3786 5.79661C19.8534 6.35598 20.1652 7.03531 20.2799 7.75998C20.5799 9.92999 19.3799 11.6598 17.0399 12.3298Z" fill="#5FAFFF"/>
</g>
<defs>
<clipPath id="clip0_435_5009">
<rect width="38.92" height="35.35" fill="white"/>
</clipPath>
</defs>
</svg>
