<svg width="43" height="43" viewBox="0 0 43 43" fill="none" xmlns="http://www.w3.org/2000/svg">
<g clip-path="url(#clip0_435_5095)">
<path d="M25.27 42.4699C24.6848 42.2577 24.1951 41.8426 23.89 41.3C23.06 40.01 22.1901 38.7499 21.3501 37.4699C21.2985 37.3681 21.2175 37.2842 21.1177 37.2289C21.0178 37.1737 20.9037 37.1495 20.79 37.1598C19.79 37.1598 18.79 37.1598 17.79 37.1598C17.3206 37.1598 16.8704 36.9735 16.5385 36.6415C16.2065 36.3096 16.02 35.8592 16.02 35.3898C16.02 34.9204 16.2065 34.4703 16.5385 34.1383C16.8704 33.8064 17.3206 33.6198 17.79 33.6198C19.21 33.6198 20.63 33.6198 22.05 33.6198C22.3687 33.6105 22.6842 33.6852 22.965 33.8361C23.2458 33.987 23.482 34.209 23.65 34.4799L25.4401 37.1698C25.5701 36.9098 25.69 36.6999 25.8 36.4799C26.96 34.1599 28.13 31.8399 29.27 29.4799C29.3987 29.142 29.6235 28.8491 29.9167 28.6376C30.21 28.4261 30.5588 28.3054 30.92 28.29C31.2681 28.2764 31.6127 28.3633 31.9125 28.5407C32.2122 28.7181 32.4545 28.9783 32.6101 29.29C34.0901 31.78 35.6101 34.2899 37.0701 36.7499C37.1249 36.857 37.2102 36.9454 37.3152 37.0041C37.4202 37.0628 37.5401 37.0893 37.66 37.08C38.53 37.08 39.4 37.08 40.27 37.08C40.7446 37.0152 41.2268 37.1229 41.6287 37.3835C42.0306 37.6441 42.3256 38.0402 42.4601 38.4999V39.2399C42.3203 39.7096 42.0129 40.1117 41.5963 40.3698C41.1797 40.6279 40.6829 40.7239 40.2001 40.6398C38.9901 40.6398 37.7701 40.6398 36.5601 40.6398C36.1651 40.6707 35.7698 40.5836 35.4244 40.3896C35.0791 40.1955 34.799 39.9034 34.62 39.55C33.55 37.73 32.45 35.9298 31.37 34.1198L31.1101 33.7199C31.0101 33.9199 30.93 34.0498 30.87 34.1798C29.74 36.4398 28.59 38.6899 27.49 40.9499C27.3759 41.2932 27.1879 41.6074 26.9391 41.87C26.6903 42.1327 26.3867 42.3375 26.05 42.4699H25.27Z" fill="#5FAFFF"/>
<path d="M30.0498 24.8401C29.7598 24.9201 29.5098 24.97 29.2598 25.05C28.5849 25.2584 27.9599 25.6028 27.4233 26.062C26.8867 26.5212 26.4499 27.0854 26.1398 27.72L24.8398 30.31C24.7798 30.43 24.7098 30.55 24.6298 30.72C23.3865 30.1235 21.9987 29.8946 20.6298 30.06C19.6298 30.06 18.7298 30.06 17.7798 30.06C16.4073 30.0245 15.0756 30.528 14.0699 31.4626C13.0643 32.3973 12.4647 33.6887 12.3998 35.06C12.4154 35.7308 12.4823 36.3994 12.5999 37.06H1.59985C1.38491 37.0949 1.16474 37.0777 0.957639 37.0105C0.750541 36.9432 0.562412 36.8278 0.408933 36.6733C0.255454 36.5189 0.141008 36.3301 0.0750709 36.1225C0.00913353 35.915 -0.00639519 35.6947 0.0297828 35.48V30.0998C-0.00115897 27.9804 0.733048 25.9209 2.09778 24.2991C3.4625 22.6772 5.3663 21.6018 7.45984 21.27C7.93533 21.1883 8.41739 21.1514 8.89978 21.1599C13.5664 21.1599 18.2331 21.1599 22.8998 21.1599C24.202 21.1464 25.4906 21.4252 26.6709 21.9756C27.8512 22.5259 28.8931 23.3339 29.7198 24.3401C29.8498 24.5301 29.9498 24.6701 30.0498 24.8401Z" fill="#5FAFFF"/>
<path d="M15.8997 17.6699C14.1505 17.6679 12.4412 17.147 10.9881 16.1731C9.53505 15.1992 8.40367 13.8162 7.73701 12.199C7.07036 10.5818 6.89846 8.80309 7.24312 7.08815C7.58778 5.3732 8.43347 3.79905 9.67317 2.56495C10.9129 1.33086 12.4909 0.492419 14.2073 0.155531C15.9238 -0.181358 17.7017 -0.00159657 19.3159 0.672376C20.9301 1.34635 22.3079 2.48421 23.2752 3.94166C24.2425 5.39912 24.7556 7.11065 24.7497 8.85988C24.7391 11.2001 23.8021 13.441 22.1435 15.0921C20.485 16.7431 18.24 17.67 15.8997 17.6699Z" fill="#5FAFFF"/>
</g>
<defs>
<clipPath id="clip0_435_5095">
<rect width="42.42" height="42.42" fill="white"/>
</clipPath>
</defs>
</svg>
