<svg width="43" height="41" viewBox="0 0 43 41" fill="none" xmlns="http://www.w3.org/2000/svg">
<g clip-path="url(#clip0_435_4998)">
<path d="M0 38.5099C0.238457 37.904 0.690135 37.4062 1.27002 37.11C7.21002 33.45 13.1467 29.7834 19.0801 26.11C19.2767 25.9369 19.5073 25.8069 19.7573 25.7287C20.0073 25.6504 20.271 25.6258 20.5312 25.6559C20.7915 25.6861 21.0424 25.7706 21.2678 25.904C21.4933 26.0373 21.6882 26.2166 21.84 26.4301C23.57 28.1701 25.31 29.9001 27.05 31.6401C27.1468 31.7409 27.237 31.8478 27.3201 31.9601L34.5601 24.7299L34.3201 24.4601C33.6601 23.8101 33.0001 23.1601 32.3201 22.4601C32.0551 22.2218 31.8734 21.9049 31.8014 21.5558C31.7294 21.2068 31.771 20.8437 31.92 20.5199C32.0475 20.1802 32.2803 19.8902 32.5844 19.6923C32.8884 19.4944 33.2478 19.3991 33.61 19.4201H40.61C40.8496 19.4132 41.0881 19.4551 41.3108 19.5436C41.5335 19.6321 41.7358 19.7653 41.9053 19.9347C42.0747 20.1042 42.2077 20.3065 42.2963 20.5292C42.3848 20.7519 42.427 20.9903 42.42 21.2299V28.2299C42.4426 28.5924 42.3478 28.9526 42.1497 29.257C41.9515 29.5614 41.6607 29.794 41.3201 29.9201C40.9963 30.0691 40.6334 30.1107 40.2843 30.0387C39.9352 29.9668 39.6184 29.7849 39.38 29.5199C38.63 28.7899 37.9 28.0401 37.03 27.1601C36.9526 27.3226 36.8588 27.4766 36.75 27.62L28.87 35.5099C28.7043 35.7554 28.4809 35.9564 28.2194 36.0954C27.9578 36.2343 27.6661 36.3071 27.37 36.3071C27.0738 36.3071 26.7823 36.2343 26.5208 36.0954C26.2592 35.9564 26.0357 35.7554 25.87 35.5099L20.3301 29.9799L20.01 29.6801L16.17 32.06L3.01001 40.2001C2.72001 40.3801 2.40999 40.5301 2.10999 40.6901H1.35999C1.02795 40.5897 0.726097 40.4082 0.481689 40.162C0.237282 39.9159 0.0579791 39.6127 -0.0400391 39.28L0 38.5099Z" fill="#5FAFFF"/>
<path d="M25.6501 27.1201L23.1802 24.6401C22.7933 24.2394 22.3259 23.9253 21.8088 23.7184C21.2917 23.5116 20.7366 23.4167 20.1802 23.4401C19.4299 23.472 18.7031 23.7107 18.0802 24.1301L11.0802 28.56C10.9873 28.6232 10.8775 28.6569 10.7651 28.6569C10.6528 28.6569 10.5431 28.6232 10.4502 28.56C8.14191 27.5243 6.14526 25.902 4.65917 23.8544C3.17309 21.8069 2.24935 19.4057 1.98009 16.8901C1.53975 13.6546 2.1766 10.3641 3.79235 7.52655C5.4081 4.68905 7.91296 2.46246 10.9202 1.19013C14.2659 -0.255643 18.0236 -0.433867 21.4911 0.688906C24.9586 1.81168 27.8985 4.15851 29.7618 7.29096C31.6251 10.4234 32.2842 14.1272 31.6158 17.7101C30.9475 21.2931 28.9975 24.51 26.1301 26.76C25.9401 26.91 25.8101 27.0001 25.6501 27.1201ZM15.4701 8.89008L15.1001 8.99994C14.2755 9.23178 13.5556 9.73972 13.0605 10.4387C12.5655 11.1376 12.3252 11.9853 12.3801 12.84C12.4287 13.7237 12.7924 14.5607 13.4051 15.1992C14.0179 15.8376 14.8392 16.2352 15.7201 16.32C16.2901 16.38 16.8801 16.3201 17.4601 16.3701C17.6483 16.3603 17.8356 16.4038 18.0001 16.4958C18.1647 16.5878 18.2999 16.7246 18.3901 16.8901C18.4945 17.054 18.5527 17.243 18.5586 17.4372C18.5645 17.6314 18.5179 17.8236 18.4237 17.9936C18.3295 18.1635 18.1913 18.3048 18.0234 18.4028C17.8556 18.5007 17.6644 18.5516 17.4701 18.55C16.2701 18.55 15.0701 18.55 13.8601 18.55C13.654 18.5336 13.447 18.5629 13.2534 18.6354C13.0599 18.708 12.8846 18.8221 12.7401 18.9699C12.5602 19.1452 12.4373 19.3707 12.3873 19.6169C12.3374 19.863 12.3627 20.1185 12.4601 20.35C12.5385 20.5897 12.6894 20.799 12.8917 20.9494C13.0941 21.0998 13.338 21.184 13.5901 21.1901C14.2001 21.1901 14.8201 21.1901 15.4701 21.1901C15.4701 21.6801 15.4701 22.0899 15.4701 22.4999C15.4608 22.85 15.591 23.1894 15.832 23.4435C16.073 23.6977 16.405 23.8456 16.7551 23.8549C17.1052 23.8642 17.4446 23.7341 17.6987 23.4931C17.9528 23.2521 18.1008 22.9201 18.1101 22.57C18.1401 22.2674 18.1401 21.9627 18.1101 21.6601C18.0926 21.5868 18.091 21.5105 18.1053 21.4365C18.1196 21.3625 18.1496 21.2924 18.1931 21.2309C18.2366 21.1694 18.2928 21.1179 18.3578 21.0798C18.4228 21.0417 18.4952 21.0178 18.5702 21.01C19.3606 20.7715 20.0492 20.277 20.5276 19.6042C21.006 18.9314 21.2469 18.1185 21.2125 17.2936C21.1781 16.4688 20.8705 15.6787 20.3378 15.048C19.805 14.4173 19.0776 13.9818 18.2701 13.81C17.6071 13.7235 16.9386 13.6869 16.2701 13.7001C16.1162 13.7148 15.9609 13.697 15.8142 13.6481C15.6675 13.5993 15.5325 13.5202 15.4181 13.4162C15.3037 13.3122 15.2123 13.1856 15.1498 13.0441C15.0872 12.9027 15.0549 12.7496 15.0549 12.5949C15.0549 12.4403 15.0872 12.2874 15.1498 12.1459C15.2123 12.0045 15.3037 11.8779 15.4181 11.7739C15.5325 11.6698 15.6675 11.5908 15.8142 11.5419C15.9609 11.4931 16.1162 11.4753 16.2701 11.4899H19.7501C19.9361 11.505 20.1231 11.4819 20.2997 11.4216C20.4762 11.3613 20.6385 11.2653 20.7764 11.1396C20.9142 11.0139 21.0249 10.8611 21.1012 10.6909C21.1775 10.5206 21.218 10.3366 21.2201 10.1501C21.2167 9.96608 21.1755 9.78474 21.099 9.61737C21.0225 9.45001 20.9122 9.30009 20.7753 9.17719C20.6383 9.05428 20.4775 8.96104 20.3028 8.90302C20.1282 8.845 19.9434 8.82352 19.7601 8.84003C19.2301 8.84003 18.6901 8.84003 18.1301 8.84003C18.1301 8.36003 18.1301 7.92995 18.1301 7.50995C18.1301 7.15986 17.9911 6.82415 17.7435 6.5766C17.496 6.32905 17.1603 6.19013 16.8102 6.19013C16.4601 6.19013 16.1242 6.32905 15.8767 6.5766C15.6292 6.82415 15.4901 7.15986 15.4901 7.50995C15.4601 7.98995 15.4701 8.43008 15.4701 8.89008Z" fill="#5FAFFF"/>
</g>
<defs>
<clipPath id="clip0_435_4998">
<rect width="42.43" height="40.66" fill="white"/>
</clipPath>
</defs>
</svg>
