<svg width="24" height="24" viewBox="0 0 24 24" fill="none" xmlns="http://www.w3.org/2000/svg">
<g clip-path="url(#clip0_435_4986)">
<path d="M-1.29119e-05 23.0623C0.170852 22.456 0.346727 21.8515 0.511334 21.2458C0.85369 19.9812 1.19417 18.7153 1.52338 17.4469C1.55606 17.3078 1.54266 17.1618 1.4852 17.031C-1.08466 11.6442 0.62712 5.31788 5.57157 1.99122C7.2666 0.840957 9.23781 0.164566 11.2815 0.0319441C17.2336 -0.382087 22.5198 3.60225 23.7471 9.4275C25.054 15.6286 21.176 21.8252 15.0217 23.3454C12.2597 24.0276 9.58597 23.7369 7.01047 22.5312C6.85315 22.4511 6.67082 22.4356 6.50226 22.4879C4.73352 22.9671 2.96353 23.4381 1.19417 23.9136C1.10529 23.9374 1.0208 23.9762 0.934426 24.0056H0.558898C0.431895 23.9545 0.316532 23.8782 0.219733 23.7813C0.122934 23.6845 0.0466966 23.569 -0.00439453 23.4419L-1.29119e-05 23.0623ZM1.81504 22.1785C1.89077 22.1635 1.92144 22.1591 1.95086 22.1509C3.46486 21.7469 4.98012 21.3492 6.49037 20.932C6.81708 20.8412 7.08871 20.8894 7.38537 21.0354C10.6562 22.6408 13.9427 22.6364 17.1285 20.8888C20.383 19.1037 22.1355 16.2631 22.4484 12.5581C22.6174 10.5619 22.1981 8.66958 21.2355 6.91575C19.1507 3.11932 15.202 1.07923 10.8809 1.58346C8.17085 1.89977 5.88139 3.10303 4.19714 5.24334C1.43075 8.75853 1.05835 12.5932 2.97605 16.6389C3.11061 16.9233 3.15505 17.1857 3.06805 17.4933C2.8177 18.3783 2.58613 19.2696 2.34829 20.1585C2.1743 20.8212 1.99967 21.4814 1.81504 22.1785Z" fill="white"/>
<path d="M15.6781 8.98779C16.0649 8.76481 16.4416 8.54933 16.8209 8.32948C17.6527 7.85532 18.4651 8.32948 18.4664 9.28595C18.4664 11.0903 18.4664 12.8951 18.4664 14.7003C18.4664 15.6618 17.6577 16.1334 16.8234 15.6618C16.4442 15.4469 16.0667 15.2277 15.6762 15.0028C15.6474 15.0805 15.6261 15.145 15.5998 15.207C15.2744 15.98 14.7023 16.4247 13.8618 16.5092C13.7686 16.5185 13.675 16.5231 13.5814 16.523C11.6136 16.523 9.64584 16.5268 7.67807 16.523C6.64224 16.523 5.86302 15.9693 5.60828 15.0586C5.55558 14.8629 5.52886 14.6612 5.5288 14.4585C5.52295 12.8174 5.52295 11.1765 5.5288 9.53587C5.5288 8.39024 6.32429 7.54401 7.46902 7.482C8.01417 7.45193 8.56181 7.46947 9.10821 7.46885C10.5139 7.46885 11.9197 7.49202 13.3248 7.4607C14.4664 7.43502 15.2863 7.85281 15.6781 8.98779ZM10.6191 8.96837C9.64334 8.96837 8.66759 8.96837 7.69184 8.96837C7.2024 8.96837 7.02528 9.14689 7.02528 9.6292C7.02528 11.2072 7.02528 12.7851 7.02528 14.3627C7.02528 14.8431 7.20366 15.0216 7.69372 15.0222C9.64521 15.0222 11.5967 15.0222 13.5482 15.0222C14.0558 15.0222 14.2323 14.84 14.2323 14.3257C14.2323 12.7711 14.2323 11.2166 14.2323 9.6624C14.2323 9.14877 14.0558 8.969 13.5438 8.96837C12.5695 8.96712 11.5946 8.96712 10.6191 8.96837ZM16.9536 9.98748C16.5537 10.218 16.1756 10.4303 15.8051 10.6546C15.7607 10.6815 15.7357 10.7723 15.735 10.8337C15.7304 11.6058 15.7304 12.3783 15.735 13.1513C15.735 13.2089 15.7444 13.2966 15.7813 13.3191C16.1625 13.5509 16.5505 13.772 16.9542 14.0081L16.9536 9.98748Z" fill="white"/>
</g>
<defs>
<clipPath id="clip0_435_4986">
<rect width="24" height="24" fill="white"/>
</clipPath>
</defs>
</svg>
