<svg width="80" height="60" viewBox="0 0 80 60" fill="none" xmlns="http://www.w3.org/2000/svg">
<mask id="mask0_437_328" style="mask-type:luminance" maskUnits="userSpaceOnUse" x="0" y="0" width="80" height="60">
<path d="M0.00390625 0H79.9961V60H0.00390625V0Z" fill="white"/>
</mask>
<g mask="url(#mask0_437_328)">
<path fill-rule="evenodd" clip-rule="evenodd" d="M-5 0H85V60H-5V0Z" fill="#165D31"/>
<path fill-rule="evenodd" clip-rule="evenodd" d="M17.6756 17.004C17.5819 18.4103 17.4412 20.8712 18.6483 21.129C20.0897 21.2696 19.2928 18.6915 19.8201 18.2228C19.9139 17.9884 20.0897 17.9884 20.1014 18.2813V20.4728C20.1014 21.1759 20.5701 21.3868 20.9217 21.5274C21.2967 21.504 21.5545 21.5274 21.6951 21.879L21.8826 25.6642C21.8826 25.6642 22.7498 25.922 22.7967 23.5431C22.8319 22.1368 22.5155 20.9767 22.703 20.7071C22.703 20.4376 23.0545 20.4259 23.2889 20.5548C23.6639 20.8126 23.828 21.1407 24.4139 21.0235C25.3045 20.7657 25.8436 20.3321 25.8553 19.6524C25.8377 18.9845 25.6987 18.3253 25.4451 17.7071C25.492 17.5899 25.2811 17.2735 25.328 17.1563C25.4803 17.4142 25.7264 17.3907 25.7733 17.1563C25.6209 16.6642 25.3866 16.1837 25.0116 15.9845C24.6951 15.7032 24.2264 15.7501 24.0741 16.336C23.9803 17.004 24.3084 17.7892 24.7889 18.4454C24.8944 18.6915 25.035 19.1134 24.9764 19.4884C24.7186 19.6407 24.4608 19.5704 24.2381 19.3478C24.2381 19.3478 23.535 18.8204 23.535 18.6915C23.7225 17.4962 23.5701 17.3556 23.4647 17.0157C23.3944 16.5587 23.1717 16.4063 22.9959 16.1017C22.8201 15.9142 22.5858 15.9142 22.4686 16.1017C22.1522 16.6407 22.3045 17.8009 22.5272 18.3282C22.6912 18.8087 22.9373 19.1134 22.8201 19.1134C22.7264 19.3829 22.5272 19.3126 22.3748 18.9962C22.2033 18.3303 22.1206 17.6447 22.1287 16.9571C22.0701 16.4181 21.9998 15.2696 21.6366 14.9649C21.4256 14.6837 21.1092 14.8243 20.992 15.0821C20.9611 15.6057 20.9728 16.1308 21.0272 16.6524C21.2616 17.5196 21.3436 18.2931 21.4608 19.172C21.4959 20.3556 20.7811 19.6876 20.8162 19.0899C20.97 18.3386 20.958 17.5627 20.7811 16.8165C20.6639 16.5118 20.535 16.4415 20.242 16.4884C20.0194 16.4884 19.4451 17.1095 19.2811 18.1642C19.2811 18.1642 19.1405 18.7032 19.0819 19.1837C18.9998 19.7228 18.6483 20.1212 18.3905 19.1134C18.1795 18.3751 18.0389 16.5821 17.6873 17.004H17.6756Z" fill="white"/>
<path fill-rule="evenodd" clip-rule="evenodd" d="M21.6016 22.7578L17.8516 24.5625C17.8867 23.707 19.6211 22.1719 20.8164 22.1602C21.5781 22.1719 21.3906 22.4531 21.5898 22.7578H21.6016Z" fill="white"/>
<path fill-rule="evenodd" clip-rule="evenodd" d="M20.9338 23.9296C18.965 29.0272 25.5627 29.7421 26.301 24.1405C26.3713 23.9061 26.6525 23.6835 26.6994 24.0585C26.547 29.1327 21.59 29.4725 20.7463 27.8788C20.5478 27.3304 20.4486 26.751 20.4533 26.1679C20.3361 25.1718 19.8088 25.5585 19.7267 26.5429C19.6447 27.0936 19.6681 27.246 19.6681 27.7733C19.926 31.7811 26.3127 30.0585 27.3556 26.7538C27.9064 24.9257 27.2619 23.578 27.5549 23.578C28.1877 24.2577 29.0783 23.6718 29.2775 23.4374C29.3595 23.3202 29.5705 23.2382 29.7111 23.3905C30.2033 23.7421 31.0705 23.578 31.258 22.9569C31.3635 22.3358 31.4455 21.703 31.4689 21.0585C31.0588 21.1757 30.7658 21.2577 30.7306 21.4335L30.6486 21.9725C30.6135 22.1483 30.2736 22.1483 30.2502 21.9257C30.0978 21.2225 29.465 21.1405 29.0783 22.2186C28.8322 22.4296 28.3635 22.4764 28.3166 22.16C28.3752 21.4335 28.0822 21.3397 27.4963 21.6796L26.9338 17.4374C27.1681 17.4374 27.4025 17.6132 27.6252 17.3319C27.3908 16.5702 26.8635 15.0233 26.5705 14.9061C26.4416 14.7421 26.3244 14.8475 26.1369 14.8944C25.8322 14.9882 25.551 15.246 25.6447 15.7616C25.9963 17.9647 26.2306 19.6405 26.5939 21.8554C26.6525 22.1014 26.4416 22.4413 26.1603 22.4061C25.6916 22.0897 25.5744 21.4452 24.7541 21.4686C24.1681 21.4686 23.5119 22.1132 23.4299 22.7225C23.3244 23.2147 23.2892 23.7421 23.4299 24.1639C23.84 24.6561 24.3322 24.6093 24.7658 24.5038C25.1174 24.3514 25.4103 23.9999 25.5392 24.0819C25.6213 24.1874 25.551 25.3593 23.8635 26.2499C22.8439 26.7186 22.0236 26.8124 21.59 25.9804C21.3205 25.453 21.6135 23.4725 20.9338 23.9296Z" fill="white"/>
<path fill-rule="evenodd" clip-rule="evenodd" d="M29.3357 18.7501C29.7224 18.6095 31.5974 16.4532 31.5974 16.4532L31.3162 16.2188C31.2107 16.1368 31.2224 16.0431 31.3162 15.961C31.7849 15.6798 31.6326 15.0938 31.3982 14.8126C31.2391 14.735 31.0641 14.6957 30.8871 14.6977C30.7101 14.6998 30.536 14.7431 30.3787 14.8243C30.0506 15.1407 29.9802 15.6446 30.2381 15.9493C30.4841 16.0665 30.7302 16.3243 30.5662 16.4649C29.7927 17.2853 27.6951 18.7032 27.9412 18.7501C27.9881 18.8204 29.2888 18.8204 29.324 18.7501H29.3357ZM17.9685 26.3673C17.2654 27.4923 17.2068 29.1681 17.5935 29.672C17.8045 29.9063 18.1443 30.0118 18.3904 29.9298C18.8357 29.7423 19.0349 28.8399 18.9295 28.5235C18.7771 28.2892 18.6599 28.254 18.5076 28.4415C18.2029 29.0743 18.074 28.6407 18.0388 28.2892C18.0052 27.6938 18.0367 27.0965 18.1326 26.5079C18.2146 26.0157 18.1326 26.1563 17.9685 26.3673ZM48.0974 24.5743C47.4177 23.0978 46.4685 21.6446 46.1756 21.0938C45.2623 19.6501 44.2928 18.2428 43.2693 16.8751C42.5427 16.0079 44.4646 17.2384 43.0349 15.504L41.992 14.6251C41.7576 14.461 41.1951 14.1563 41.1013 14.6485C41.0545 15.0938 41.0779 15.3282 41.1482 15.6915C41.2068 15.9259 41.5584 16.336 41.7341 16.5704C44.1366 19.7526 46.2468 23.1453 48.0388 26.7071C48.3435 26.5548 48.2732 24.8204 48.0974 24.5743Z" fill="white"/>
<path fill-rule="evenodd" clip-rule="evenodd" d="M45.1096 29.4725C44.969 29.6249 45.4377 30.2694 46.0471 30.2694C47.0549 30.1522 47.9455 29.5897 48.7658 28.0897C49.0992 27.5907 49.3118 27.021 49.3869 26.4257C49.4862 23.5808 49.2581 20.734 48.7072 17.9413C48.6721 17.7069 48.7072 17.4257 48.7307 17.3554C48.801 17.2733 49.0236 17.3554 49.1408 17.1561C49.3166 16.9804 48.6721 15.5155 48.3205 14.9647C48.2033 14.7069 48.1447 14.5429 47.9338 14.9882C47.6793 15.4795 47.558 16.0291 47.5822 16.5819C48.0627 19.9218 48.2151 22.8397 48.5197 26.1796C48.5549 26.5077 48.508 26.9765 48.2854 27.164C47.4011 28.1485 46.3189 28.9352 45.1096 29.4725ZM58.7619 29.4608C58.0354 29.8827 58.0354 30.3632 58.6213 30.3749C59.6291 30.2577 60.8244 30.1757 61.6447 28.9335C61.9345 28.3484 62.102 27.7104 62.1369 27.0585C62.2845 24.2575 62.0996 21.4488 61.5861 18.6913C61.5627 18.4569 61.4572 17.9061 61.4924 17.8358C61.5627 17.6718 61.8908 17.8475 62.008 17.66C62.1721 17.4843 61.1526 16.1718 60.7893 15.6093C60.6721 15.3515 60.6252 15.1874 60.4026 15.6327C60.1665 16.1286 60.0927 16.6862 60.1916 17.2265C60.7307 20.8593 61.1291 23.578 61.2111 26.789C61.1643 27.0936 61.1526 27.2577 61.0119 27.6444C60.6955 28.0429 60.344 28.5585 60.0158 28.8046C59.6877 29.039 58.9846 29.2733 58.7619 29.4608Z" fill="white"/>
<path fill-rule="evenodd" clip-rule="evenodd" d="M59.3009 26.2149C59.3009 25.3594 59.3126 24.6328 59.2892 23.9883C59.2816 23.4424 59.1619 22.904 58.9376 22.4063C58.7267 21.9258 58.8556 21.5391 58.7501 21.0235C58.6564 20.5078 58.6798 19.7344 58.5392 19.1367C58.4923 18.9024 58.3751 18.1406 58.4103 18.0586C58.4689 17.8945 58.6915 18.0586 58.8087 17.8711C58.9728 17.6953 58.2228 15.7617 57.8478 15.211C57.7189 14.9649 57.4611 15.0469 57.1681 15.4453C56.8751 15.7149 56.9806 16.3125 57.0978 16.8867C57.8126 20.6719 58.3634 24.1055 58.2462 27.7031C58.1993 28.0078 59.3009 26.7891 59.3009 26.2149ZM53.9454 21.5274C53.4884 21.5039 52.5392 20.625 52.2579 20.1211C52.2119 19.998 52.1923 19.8665 52.2004 19.7353C52.2084 19.604 52.244 19.476 52.3048 19.3594C52.4806 19.2422 52.7384 19.125 52.9376 19.2422C52.9376 19.2422 53.1368 19.5235 53.1017 19.5586C53.3361 19.6758 53.4532 19.6172 53.4767 19.5117C53.4884 19.336 53.4064 19.2305 53.4064 19.043C53.5118 18.5039 54.1095 18.4219 54.3439 18.7617C54.5079 18.9727 54.5782 19.4063 54.59 19.6992C54.59 19.8516 54.3556 19.6758 54.2032 19.6992C54.0743 19.7461 54.0392 19.9102 54.0275 20.0508C54.004 20.4375 53.9571 21.0586 53.9454 21.5156V21.5274ZM45.5314 27.1524C45.6486 26.0039 45.4845 23.9531 45.4728 23.2735C45.4101 21.5254 45.2654 19.7813 45.0392 18.0469C44.8986 17.0625 45.4376 18.1524 45.3673 17.5781C45.1915 16.6055 44.6525 15.9375 44.0079 15.0586C43.8087 14.7656 43.8087 14.707 43.4923 15.1289C43.1407 15.9141 43.4454 16.4649 43.5392 17.086C43.9962 19.1016 44.2657 20.9531 44.3946 22.793C44.5296 24.7042 44.5452 26.622 44.4415 28.5352C44.7931 28.5469 45.3321 27.9844 45.5314 27.1524Z" fill="white"/>
<path fill-rule="evenodd" clip-rule="evenodd" d="M60.8592 25.3125C60.0506 23.9531 58.8435 22.5 58.5154 21.9492C57.4288 20.4317 56.2874 18.9542 55.0935 17.5195C54.0974 16.4648 55.5623 17.3437 54.906 16.5234C54.3553 15.9257 54.2029 15.7265 53.7224 15.3632C53.4881 15.2109 53.3474 14.9179 53.2537 15.4218C53.2163 15.8583 53.2085 16.2968 53.2303 16.7343C53.2303 16.9336 53.4412 17.3203 53.6287 17.5546C56.0545 20.5429 58.7146 23.5898 60.8474 27.4218C61.1521 27.2695 61.0467 25.5468 60.8474 25.3125H60.8592Z" fill="white"/>
<path fill-rule="evenodd" clip-rule="evenodd" d="M24.367 22.8163C24.3084 22.9218 24.1795 23.0507 24.2264 23.1796C24.3084 23.2968 24.3904 23.332 24.5311 23.332C24.66 23.332 24.8475 23.3671 24.8826 23.2968C24.9529 23.2148 24.9998 23.0624 24.9529 22.9101C24.8123 22.5585 24.4373 22.6992 24.367 22.8163Z" fill="#165D31"/>
<path fill-rule="evenodd" clip-rule="evenodd" d="M51.5078 42.4804C52.5859 42.5273 53.2891 42.539 54.2383 42.6445L55.3633 42.5273C56.6055 42.4101 56.6523 44.2968 56.6523 44.2968C56.6523 45.4101 56.2188 45.4687 55.668 45.5859C55.3516 45.6327 55.1992 45.3984 55.0234 45.164C54.7584 45.2489 54.4761 45.2651 54.2031 45.2109C53.7461 45.1874 53.3008 45.1874 52.8555 45.1523C52.3867 45.1171 52.1289 45.2109 51.6484 45.164C51.5547 45.3163 51.4141 45.5273 51.1328 45.4687C50.8984 45.4335 50.6055 44.7656 50.6875 44.2382C50.8633 43.8632 50.8047 43.9921 50.8047 43.8281C46.3984 43.7109 41.957 43.5116 37.6445 43.5702C34.2695 43.582 30.9414 43.7226 27.6016 43.8632C25.8203 43.8398 24.4609 43.5585 23.5234 42.1874C23.6172 42.1874 28.0703 42.4335 29.3711 42.3515C31.7734 42.3281 33.9766 42.1288 36.4258 42.0585C41.2539 42.1406 46.0469 42.1406 50.875 42.4804C50.4062 42.164 50.4062 41.4257 51.1094 41.2382C51.168 41.1913 51.2031 41.6015 51.3086 41.5898C51.8828 41.5546 51.625 42.3281 51.5078 42.4804ZM32.1016 15.8554C31.375 17.9413 32.5234 20.2382 33.3203 20.0156C33.9062 20.2499 34.2578 19.1484 34.4922 17.9531C34.668 17.6132 34.7852 17.5781 34.8672 17.7538C34.8437 19.3476 34.9844 19.7109 35.3945 20.1913C36.3086 20.8945 37.0703 20.2851 37.1289 20.2265L37.832 19.5116C37.9961 19.3359 38.207 19.3359 38.4297 19.4765C38.6523 19.6757 38.6172 20.0156 39.0859 20.2499C39.4844 20.414 40.3164 20.2968 40.5156 19.957C40.7734 19.4999 40.8438 19.3476 40.9609 19.1835C41.1484 18.9374 41.4648 19.0429 41.4648 19.1249C41.4297 19.2656 41.2422 19.3945 41.3711 19.6523C41.6055 19.8163 41.6523 19.7109 41.7813 19.6757C42.25 19.4413 42.6016 18.4335 42.6016 18.4335C42.6133 18.0585 42.4023 18.082 42.2617 18.1757L41.8984 18.4218C41.6641 18.457 41.2305 18.6093 41.0078 18.2695C40.7852 17.871 40.7852 17.2968 40.6211 16.8866C40.6211 16.8632 40.3164 16.2421 40.5977 16.207C40.7383 16.2304 41.0313 16.3124 41.0781 16.0663C41.2188 15.8202 40.7734 15.1288 40.457 14.7773C40.1875 14.4843 39.8125 14.4491 39.4492 14.7538C39.1914 14.9882 39.2266 15.246 39.1797 15.4921C39.1352 15.6685 39.1333 15.8529 39.174 16.0301C39.2148 16.2074 39.2971 16.3724 39.4141 16.5116C39.6719 17.0038 40.1289 17.6484 39.9766 18.5624C39.9766 18.5624 39.707 18.9843 39.2383 18.9257C39.0391 18.8906 38.7227 18.8085 38.5586 17.5429C38.4297 16.6054 38.582 15.2695 38.1836 14.6484C38.0312 14.2616 37.9258 13.8984 37.5742 14.5429C37.4805 14.8007 37.0703 15.1874 37.3633 15.9726C37.6405 16.6801 37.7215 17.4494 37.5977 18.1991C37.4219 18.457 37.3867 18.539 37.1641 18.7851C36.8594 19.1366 36.5195 19.0429 36.2617 18.914C36.0273 18.7616 35.8398 18.6796 35.7227 18.1523C35.7461 17.332 35.793 15.9843 35.6406 15.7031C35.418 15.2577 35.0547 15.4218 34.9023 15.5624C34.2052 16.3369 33.7385 17.2907 33.5547 18.3163C33.3437 18.996 33.1211 18.7968 32.9687 18.5273C32.5937 18.1757 32.5586 15.3984 32.1016 15.8554Z" fill="white"/>
<path fill-rule="evenodd" clip-rule="evenodd" d="M34.3048 20.4024C34.6447 20.168 34.4923 20.0039 34.9845 20.4961C35.6198 21.6202 35.9886 22.8751 36.0626 24.1641C36.0392 24.4688 36.2501 24.6563 36.3556 24.586C36.4025 23.8828 38.1251 22.8985 39.7072 22.7578C39.9415 22.6993 39.8244 22.2422 39.8595 22.0078C39.7658 21.1289 40.3517 20.3321 41.172 20.2735C42.297 20.4375 42.672 21.0352 42.6954 21.9375C42.5665 23.6953 40.7384 23.9883 39.7189 24.1289C39.5665 24.1875 39.4962 24.2578 39.7189 24.3399L44.0079 24.3633L44.2306 24.4805C44.254 24.5977 44.1603 24.5039 43.9962 24.7852C43.7603 25.1997 43.6127 25.6585 43.5626 26.1328C42.2853 26.5547 40.9611 26.7188 39.6251 26.8946C39.1564 27.1289 38.922 27.4453 39.0158 27.7969C39.1798 28.1836 40.2111 28.5821 40.2111 28.5938C40.4103 28.711 40.6329 29.0039 40.1525 29.6016C38.0665 29.5078 36.4376 28.6172 35.8751 27.3633C35.7111 27.2344 35.5236 27.3633 35.4064 27.5274C34.5861 28.5821 33.7892 29.5196 32.3947 30.0352C31.5744 30.2461 30.7189 29.9063 30.3204 29.3672C30.0509 29.0508 30.0626 28.711 29.9689 28.6407C29.5119 28.8399 25.6447 30.4805 26.1369 29.7071C27.0744 28.711 28.715 27.961 30.1447 26.9766C30.2501 26.6368 30.4376 25.5118 31.0001 25.1485C31.0353 25.1485 30.9181 25.8047 30.9298 26.086C30.9298 26.3203 30.9064 26.4024 30.9533 26.3438C31.0587 26.2852 32.7931 24.9141 32.9454 24.4922C33.1095 24.2578 32.9806 23.6485 32.9806 23.625C32.6525 22.7813 32.1954 22.711 32.0314 22.2891C31.879 21.7383 31.9494 21.1055 32.2658 20.918C32.547 20.6719 32.8751 20.6953 33.1915 20.9766C33.5431 21.293 33.8478 21.9141 33.9415 22.3711C33.8829 22.5469 33.4728 22.2539 33.3556 22.336C33.5812 22.5952 33.7311 22.9114 33.7892 23.25C34.0236 24.211 33.9533 24.586 33.7189 25.2071C32.9454 26.836 31.9611 27.3164 31.0939 27.9258C31.0704 27.9258 31.0587 28.336 31.3751 28.5586C31.4923 28.6758 31.9494 28.7344 32.4767 28.5586C33.6033 27.933 34.5143 26.9811 35.09 25.8282C35.1896 24.9508 35.0935 24.0624 34.8087 23.2266C34.4689 22.4414 34.0704 21.3282 34.0704 21.3047C34.0587 20.8125 34.0939 20.6485 34.3048 20.4024ZM23.0783 15.8789C23.5704 16.1133 24.5079 16.0078 24.4611 15.211L24.4376 14.8477C24.3439 14.6133 24.0626 14.6719 24.004 14.9063C23.9806 14.9883 24.0392 15.1172 23.9689 15.1524C23.922 15.1993 23.7697 15.1758 23.7697 14.9532C23.7697 14.8828 23.7228 14.8125 23.6876 14.7657C23.6642 14.7422 23.6408 14.7422 23.5822 14.7422C23.5119 14.7422 23.5119 14.7539 23.4767 14.8125C23.465 14.8711 23.4415 14.9297 23.4415 15C23.4415 15.0821 23.3947 15.1055 23.3478 15.1172C23.2775 15.1172 23.2892 15.1172 23.2306 15.0938C23.2072 15.0586 23.172 15.0469 23.172 14.9766L23.1369 14.7891C23.1134 14.7539 23.0665 14.7305 23.0197 14.7188C22.7501 14.7188 22.7267 15.0352 22.7501 15.1524C22.7267 15.1758 22.715 15.7266 23.0783 15.8789Z" fill="white"/>
<path fill-rule="evenodd" clip-rule="evenodd" d="M37.551 21.996C38.0431 22.2304 39.2267 22.1015 38.9338 21.3397L38.9103 20.9647C38.8049 20.7304 38.5353 20.789 38.4767 21.0351C38.4533 21.1054 38.5119 21.2343 38.4299 21.2694C38.3947 21.3163 38.2306 21.2929 38.2424 21.0819C38.2424 21.0116 38.1955 20.9296 38.1603 20.8827C38.1252 20.871 38.1135 20.8593 38.0431 20.8593C37.9845 20.8593 37.9845 20.8827 37.9494 20.9413C37.926 20.9999 37.9142 21.0585 37.9142 21.1288C37.9025 21.1991 37.8674 21.2226 37.8088 21.246C37.7502 21.246 37.7619 21.246 37.715 21.2108C37.6799 21.1757 37.6447 21.164 37.6447 21.1054L37.6095 20.9179C37.5861 20.8827 37.5392 20.8593 37.4924 20.8476C37.2228 20.8476 37.1994 21.1522 37.2111 21.2694C37.1994 21.2929 37.1877 21.8554 37.5627 21.996H37.551ZM45.9885 19.4647C46.4806 19.6991 47.4064 19.5936 47.3713 18.8085L47.3478 18.4335C47.2424 18.1991 46.9728 18.2577 46.9142 18.4921C46.8908 18.5741 46.9494 18.703 46.8674 18.7499C46.8322 18.7851 46.6681 18.7616 46.6799 18.539C46.6799 18.4686 46.633 18.3983 46.5978 18.3515C46.5627 18.328 46.551 18.328 46.4806 18.328C46.422 18.328 46.422 18.3515 46.3869 18.4101L46.3517 18.5858C46.34 18.6679 46.3049 18.703 46.2463 18.703C46.1877 18.703 46.1994 18.703 46.1525 18.6796C46.1174 18.6444 46.0822 18.6327 46.0822 18.5741C46.0822 18.5155 46.0705 18.4218 46.047 18.3749C46.0236 18.3397 45.9767 18.328 45.9299 18.3163C45.6603 18.3163 45.6369 18.621 45.6486 18.7382C45.6369 18.7616 45.6252 19.3124 46.0002 19.4647H45.9885ZM50.3595 25.828C49.5041 26.8007 49.8791 28.4061 50.0783 28.7577C50.3595 29.3202 50.5822 29.6835 51.133 29.9647C51.6369 30.328 52.0353 30.1054 52.2463 29.8476C52.7502 29.3202 52.7619 27.9726 52.9963 27.7147C53.1603 27.2226 53.5822 27.3046 53.7814 27.5272C53.9678 27.7918 54.2176 28.0054 54.508 28.1483C54.9767 28.5585 55.5392 28.6405 56.1017 28.2655C56.4767 28.0429 56.7228 27.7733 56.9455 27.2226C57.1799 26.5663 57.0627 23.5194 57.0041 21.7147L56.5119 19.1952C56.5119 19.1718 56.4533 17.9999 56.3947 17.7304C56.3947 17.6132 56.3596 17.578 56.4767 17.5897C56.6056 17.7069 56.6174 17.7069 56.7111 17.7421C56.8283 17.7655 56.9455 17.5429 56.8635 17.3554L55.6916 15.1757C55.5978 15.0819 55.4689 14.9882 55.3166 15.1991C55.2267 15.2805 55.1552 15.38 55.1067 15.4911C55.0582 15.6023 55.0339 15.7224 55.0353 15.8436C55.0705 16.3593 55.1525 16.8866 55.1877 17.4022L55.6564 20.0507C55.8088 21.9257 55.8439 23.4726 55.9963 25.3593C55.9728 26.1561 55.7267 26.8476 55.4924 26.953C55.4924 26.953 55.1408 27.1522 54.9064 26.9296C54.7306 26.8593 54.0392 25.7694 54.0392 25.7694C53.6877 25.453 53.4533 25.5351 53.2072 25.7694C52.5041 26.4491 52.1994 27.6913 51.7189 28.5585C51.6017 28.7577 51.2502 28.9101 50.8752 28.5468C49.9142 27.2226 50.4767 25.3476 50.3595 25.828ZM46.2111 14.8476C46.6564 15.0233 46.9611 15.9257 46.8674 16.371C46.7736 16.8983 46.5392 17.4843 46.3752 17.414C46.1877 17.3437 46.4924 16.8749 46.3166 16.3827C46.2228 16.0546 45.6135 15.4687 45.6838 15.3046C45.5666 14.9413 45.9416 14.7772 46.2111 14.8358V14.8476Z" fill="white"/>
<path fill-rule="evenodd" clip-rule="evenodd" d="M51.7889 26.3671C51.8709 25.289 51.7186 24.6328 51.6951 24C51.6717 23.3671 50.9803 18.539 50.8397 18.0703C50.6639 17.1562 51.5076 17.9531 51.4139 17.414C51.1209 16.7578 50.4061 15.7851 50.1834 15.2109C50.0428 14.9765 50.1014 14.7421 49.7967 15.1523C49.5343 15.8714 49.4421 16.6415 49.5272 17.4023C50.2537 21.1875 50.992 24.3281 50.8748 27.9257C51.2264 27.9257 51.6131 27.1406 51.7889 26.3671ZM59.3358 16.371C59.7459 16.5703 59.9803 17.6953 59.9334 18.0117C59.8514 18.5976 59.6404 19.2304 59.4881 19.1484C59.3123 19.0781 59.5233 18.2812 59.4412 18.0351C59.3475 17.6835 58.7967 17.0507 58.8553 16.8632C58.7381 16.4648 59.0897 16.3007 59.3358 16.371ZM29.3709 24.3281C29.7576 24.4804 29.992 25.3007 29.9568 25.5351C29.8631 25.9687 29.6639 26.4375 29.5115 26.3671C29.3592 26.3203 29.5467 25.7343 29.4764 25.5468C29.4412 25.1132 28.9022 24.8789 28.9139 24.6914C28.8201 24.3398 29.1483 24.2812 29.3826 24.3281H29.3709Z" fill="white"/>
<path fill-rule="evenodd" clip-rule="evenodd" d="M38.6992 25.5703C39.1914 25.5938 39.4375 25.9922 38.9805 26.1563C38.5117 26.3086 38.0781 26.4375 38.0664 27.0938C38.2422 28.0313 37.832 27.7031 37.5977 27.5859C37.3164 27.375 36.5195 26.8828 36.4023 25.8281C36.3906 25.582 36.5898 25.3594 36.9063 25.3594C37.375 25.4883 38.0781 25.5 38.6992 25.5703Z" fill="#165D31"/>
<path fill-rule="evenodd" clip-rule="evenodd" d="M19.0701 14.5782C19.6326 14.7423 19.6677 15.586 19.6326 15.8321C19.5506 16.2774 19.3513 16.7579 19.2107 16.6993C19.0466 16.6407 19.2107 16.0313 19.1287 15.8438C19.0466 15.586 18.5662 15.0938 18.6131 14.9532C18.5076 14.6602 18.8474 14.5196 19.0701 14.5782ZM30.3084 18.5157C29.8631 18.7501 29.699 19.4532 29.9685 19.8751C30.2263 20.2266 30.6248 20.0977 30.6716 20.0977C31.1052 20.1446 31.3631 19.2891 31.3631 19.2891C31.3631 19.2891 31.3748 19.0548 30.8709 19.5118C30.6482 19.547 30.6365 19.4649 30.5779 19.3477C30.5242 19.1246 30.5448 18.8901 30.6365 18.6798C30.7185 18.4688 30.5545 18.3751 30.3084 18.5157ZM33.5896 14.2501C33.3552 14.4024 32.9216 14.8595 32.9099 15.3751C32.8982 15.6681 32.8396 15.6681 33.0271 15.8438C33.1795 16.0548 33.3084 16.0431 33.5896 15.8907C33.6597 15.8466 33.7198 15.7884 33.7662 15.7198C33.8126 15.6512 33.8443 15.5737 33.8591 15.4923C33.9295 15.1641 33.5076 15.6563 33.4607 15.2813C33.367 14.9298 33.6365 14.7891 33.8943 14.461C33.8943 14.2266 33.8943 14.0743 33.5779 14.2501H33.5896ZM36.2146 14.7188C36.1113 15.1456 36.0485 15.5811 36.0271 16.0196C35.9568 16.3477 36.3787 16.4884 36.5545 16.0665C36.8357 15.3048 36.8357 14.9766 36.8591 14.6602C36.7771 14.1563 36.4373 14.1681 36.2146 14.7188ZM52.8552 23.1915C52.9021 23.1329 55.199 21.504 55.199 21.504C55.4334 21.422 55.3748 22.3477 55.2693 22.336C54.557 23.0225 53.7377 23.5885 52.8435 24.0118C52.7263 24.0938 52.6209 23.3907 52.8435 23.1915H52.8552ZM54.9295 23.1681C55.3396 23.3673 55.5037 24.5509 55.4568 24.8673C55.4568 25.5001 55.0701 25.9923 54.906 25.922C54.742 25.8399 54.9295 25.1368 54.8474 24.8907C54.7537 24.5391 54.4138 23.8946 54.4724 23.7071C54.3552 23.3087 54.6834 23.0977 54.9412 23.1681H54.9295ZM41.3357 28.254C41.5258 28.0321 41.7468 27.8387 41.992 27.6798C42.2263 27.5626 42.4373 27.7735 42.4256 27.7618C42.4607 27.9962 42.2849 28.1954 42.3435 28.5001C42.3904 28.6173 42.4256 28.7579 42.6482 28.711C43.0115 28.4181 43.3513 28.3946 43.7029 28.3829C43.9959 28.3946 44.0076 28.8751 43.8201 28.8751C43.1521 29.0157 42.8591 29.2032 42.3787 29.379C42.1443 29.5196 41.9568 29.3438 41.9568 29.3321C41.9568 29.3204 41.8279 29.2032 41.9099 28.8985C41.9334 28.6641 41.8396 28.5235 41.6287 28.547C41.4881 28.6407 41.3474 28.6876 41.2771 28.5118C41.242 28.3946 41.2302 28.3243 41.3357 28.254ZM57.3435 28.8868C57.4373 29.004 57.5076 29.1212 57.3318 29.3321L56.8982 29.7071C56.8279 29.8243 56.781 30.0352 57.0154 30.0938C57.4373 30.211 58.4216 29.5665 58.4216 29.5548C58.5857 29.4376 58.5388 29.2032 58.5154 29.2032C58.4216 29.0977 58.2107 29.1681 58.0701 29.1446C57.9998 29.1446 57.7771 29.1212 57.8826 28.9102C57.9613 28.8067 58.0245 28.6922 58.0701 28.5704C58.1287 28.4298 58.0701 28.336 57.8357 28.254C57.5896 28.2071 57.4841 28.2306 57.2146 28.254C57.074 28.2774 57.0271 28.3477 56.992 28.5235C57.0037 28.7931 57.1677 28.7813 57.3435 28.8751V28.8868Z" fill="white"/>
<path fill-rule="evenodd" clip-rule="evenodd" d="M41.4179 22.2304C41.3593 22.3476 41.1484 22.3476 40.9492 22.2304C40.7499 22.1132 40.6328 21.9257 40.7031 21.8202C40.7734 21.7148 40.9726 21.7148 41.1718 21.8202C41.371 21.9257 41.4765 22.1249 41.4179 22.2304ZM30.9882 15.9492C30.871 15.9843 30.707 15.8788 30.6367 15.7148C30.5663 15.5507 30.6015 15.4101 30.7187 15.3749C30.8359 15.3398 30.9882 15.457 31.0703 15.6093C31.1523 15.7616 31.1054 15.9257 30.9765 15.9609L30.9882 15.9492ZM51.6249 43.9452C52.7265 43.9921 53.7578 43.9452 54.8476 44.0038C55.0468 44.1796 54.9062 44.5898 54.7773 44.5663L53.8632 44.5312C53.8515 44.1796 52.9609 44.2382 52.9843 44.5429C52.5038 44.6015 52.0703 44.5312 51.5781 44.5077C51.4374 44.332 51.4609 44.0156 51.6249 43.9452Z" fill="#165D31"/>
</g>
</svg>
