<svg width="33" height="25" viewBox="0 0 33 25" fill="none" xmlns="http://www.w3.org/2000/svg">
<mask id="mask0_185_3607" style="mask-type:luminance" maskUnits="userSpaceOnUse" x="0" y="0" width="33" height="25">
<path d="M32.0391 0.0522461L0.0390663 0.0435595L0.0325514 24.0436L32.0325 24.0522L32.0391 0.0522461Z" fill="white"/>
</mask>
<g mask="url(#mask0_185_3607)">
<path fill-rule="evenodd" clip-rule="evenodd" d="M32.0391 0.0522461L32.0325 24.0522L0.0325514 24.0436L0.0390663 0.0435595L32.0391 0.0522461Z" fill="#2E42A5"/>
<mask id="mask1_185_3607" style="mask-type:luminance" maskUnits="userSpaceOnUse" x="0" y="0" width="33" height="25">
<path fill-rule="evenodd" clip-rule="evenodd" d="M32.0391 0.0522461L32.0325 24.0522L0.0325514 24.0436L0.0390663 0.0435595L32.0391 0.0522461Z" fill="white"/>
</mask>
<g mask="url(#mask1_185_3607)">
<mask id="mask2_185_3607" style="mask-type:luminance" maskUnits="userSpaceOnUse" x="0" y="0" width="33" height="25">
<path d="M32.0391 0.0522461L0.0390663 0.0435595L0.0325514 24.0436L32.0325 24.0522L32.0391 0.0522461Z" fill="white"/>
</mask>
<g mask="url(#mask2_185_3607)">
<path d="M35.5959 22.3384L28.5534 25.3145L-0.121857 3.28114L-3.83496 -1.14535L3.69531 -2.13867L15.3911 7.35598L24.8054 13.7536L35.5959 22.3384Z" fill="white"/>
<path d="M34.6314 24.4247L31.0435 26.1519L-2.50101 -1.55616L2.53609 -1.5548L34.6314 24.4247Z" fill="#F50100"/>
<path d="M-3.53056 22.3278L3.51033 25.3077L32.1975 3.28989L35.9131 -1.13458L28.3833 -2.13199L16.6823 7.35631L7.26457 13.7488L-3.53056 22.3278Z" fill="white"/>
<path d="M-3.29067 23.8254L0.296256 25.5545L14.5863 13.6991L18.8224 12.3752L36.2705 -1.11926L31.2334 -1.12063L13.7951 12.0534L9.16369 13.641L-3.29067 23.8254Z" fill="#F50100"/>
<path fill-rule="evenodd" clip-rule="evenodd" d="M12.2615 -1.95329L19.817 -1.95124L19.8143 8.04876L34.009 8.05261L34.0068 16.0526L19.8121 16.0488L19.8094 26.0488L12.2539 26.0467L12.2566 16.0467L-1.9932 16.0428L-1.99102 8.04284L12.2588 8.04671L12.2615 -1.95329Z" fill="#F50100"/>
<mask id="mask3_185_3607" style="mask-type:luminance" maskUnits="userSpaceOnUse" x="-2" y="-2" width="37" height="29">
<path fill-rule="evenodd" clip-rule="evenodd" d="M12.2615 -1.95329L19.817 -1.95124L19.8143 8.04876L34.009 8.05261L34.0068 16.0526L19.8121 16.0488L19.8094 26.0488L12.2539 26.0467L12.2566 16.0467L-1.9932 16.0428L-1.99102 8.04284L12.2588 8.04671L12.2615 -1.95329Z" fill="white"/>
</mask>
<g mask="url(#mask3_185_3607)">
<path d="M19.8169 -1.9513L19.8175 -3.9513L21.8175 -3.95075L21.8169 -1.95075L19.8169 -1.9513ZM12.2614 -1.95335L10.2614 -1.95389L10.262 -3.95389L12.262 -3.95335L12.2614 -1.95335ZM19.8142 8.0487L19.8137 10.0487L17.8137 10.0482L17.8142 8.04816L19.8142 8.0487ZM34.0089 8.05256L34.0095 6.05256L36.0095 6.0531L36.0089 8.0531L34.0089 8.05256ZM34.0068 16.0526L36.0068 16.0531L36.0062 18.0531L34.0062 18.0526L34.0068 16.0526ZM19.812 16.0487L17.812 16.0482L17.8126 14.0482L19.8126 14.0487L19.812 16.0487ZM19.8093 26.0487L21.8093 26.0492L21.8088 28.0492L19.8088 28.0487L19.8093 26.0487ZM12.2538 26.0466L12.2533 28.0466L10.2533 28.0461L10.2538 26.0461L12.2538 26.0466ZM12.2565 16.0467L12.2571 14.0467L14.2571 14.0472L14.2565 16.0472L12.2565 16.0467ZM-1.99325 16.0428L-1.99379 18.0428L-3.99379 18.0422L-3.99325 16.0422L-1.99325 16.0428ZM-1.99108 8.04278L-3.99108 8.04224L-3.99054 6.04224L-1.99054 6.04278L-1.99108 8.04278ZM12.2587 8.04665L14.2587 8.04719L14.2582 10.0472L12.2582 10.0467L12.2587 8.04665ZM19.8164 0.0487039L12.2609 0.046653L12.262 -3.95335L19.8175 -3.9513L19.8164 0.0487039ZM17.8142 8.04816L17.8169 -1.95184L21.8169 -1.95075L21.8142 8.04925L17.8142 8.04816ZM34.0084 10.0526L19.8137 10.0487L19.8148 6.0487L34.0095 6.05256L34.0084 10.0526ZM32.0068 16.052L32.009 8.05201L36.0089 8.0531L36.0068 16.0531L32.0068 16.052ZM19.8126 14.0487L34.0073 14.0526L34.0062 18.0526L19.8115 18.0487L19.8126 14.0487ZM17.8093 26.0482L17.812 16.0482L21.812 16.0492L21.8093 26.0492L17.8093 26.0482ZM12.2544 24.0466L19.8099 24.0487L19.8088 28.0487L12.2533 28.0466L12.2544 24.0466ZM14.2565 16.0472L14.2538 26.0472L10.2538 26.0461L10.2565 16.0461L14.2565 16.0472ZM-1.99271 14.0428L12.2571 14.0467L12.256 18.0467L-1.99379 18.0428L-1.99271 14.0428ZM0.00892118 8.04333L0.00674953 16.0433L-3.99325 16.0422L-3.99108 8.04224L0.00892118 8.04333ZM12.2582 10.0467L-1.99162 10.0428L-1.99054 6.04278L12.2593 6.04665L12.2582 10.0467ZM14.2614 -1.9528L14.2587 8.04719L10.2587 8.04611L10.2614 -1.95389L14.2614 -1.9528Z" fill="white"/>
</g>
</g>
</g>
</g>
</svg>
