<svg width="131" height="131" viewBox="0 0 131 131" fill="none" xmlns="http://www.w3.org/2000/svg">
<path d="M65.0788 130.28C101.021 130.28 130.158 101.116 130.158 65.1402C130.158 29.1643 101.021 0 65.0788 0C29.1368 0 0 29.1643 0 65.1402C0 101.116 29.1368 130.28 65.0788 130.28Z" fill="url(#paint0_linear_148_329)"/>
<path fill-rule="evenodd" clip-rule="evenodd" d="M31.9349 20.5918H96.4057C97.505 20.5918 98.5592 21.028 99.3365 21.8044C100.114 22.5809 100.551 23.634 100.551 24.732V110.001C100.551 111.099 100.114 112.152 99.3365 112.928C98.5592 113.705 97.505 114.141 96.4057 114.141H31.9349C30.8356 114.141 29.7814 113.705 29.004 112.928C28.2267 112.152 27.79 111.099 27.79 110.001V24.732C27.79 23.634 28.2267 22.5809 29.004 21.8044C29.7814 21.028 30.8356 20.5918 31.9349 20.5918V20.5918Z" fill="url(#paint1_linear_148_329)"/>
<path fill-rule="evenodd" clip-rule="evenodd" d="M32.0009 24.0566H92.8749C93.9917 24.0566 95.0627 24.4924 95.8524 25.2681C96.6421 26.0437 97.0858 27.0957 97.0858 28.1926V110.005C97.0858 111.102 96.6421 112.154 95.8524 112.93C95.0627 113.705 93.9917 114.141 92.8749 114.141H32.0009C30.8841 114.141 29.8131 113.705 29.0234 112.93C28.2337 112.154 27.79 111.102 27.79 110.005V28.1926C27.79 27.0957 28.2337 26.0437 29.0234 25.2681C29.8131 24.4924 30.8841 24.0566 32.0009 24.0566V24.0566Z" fill="url(#paint2_linear_148_329)"/>
<path d="M85.8768 29.2539H35.5315C35.0824 29.2539 34.7183 29.6351 34.7183 30.1053V106.36C34.7183 106.83 35.0824 107.212 35.5315 107.212H85.8768C86.326 107.212 86.6901 106.83 86.6901 106.36V30.1053C86.6901 29.6351 86.326 29.2539 85.8768 29.2539Z" fill="#A8A0FF"/>
<path fill-rule="evenodd" clip-rule="evenodd" d="M36.1335 29.2539H85.0248C85.4665 29.2539 85.8901 29.4361 86.2024 29.7605C86.5147 30.0849 86.6902 30.5249 86.6902 30.9836C86.6902 30.9836 84.9858 65.2943 84.9858 87.7526C84.9858 99.9896 61.2556 107.212 61.2556 107.212L10.4648 100.725C10.4648 100.725 23.1101 97.583 27.1176 85.158C32.7491 67.695 34.4681 30.9836 34.4681 30.9836C34.4681 30.7565 34.5112 30.5316 34.5949 30.3217C34.6786 30.1118 34.8013 29.9212 34.9559 29.7605C35.1105 29.5999 35.2941 29.4725 35.4962 29.3856C35.6982 29.2986 35.9148 29.2539 36.1335 29.2539Z" fill="url(#paint3_linear_148_329)"/>
<path fill-rule="evenodd" clip-rule="evenodd" d="M61.5703 107.211C66.7675 105.478 84.9576 99.4149 84.9576 88.1543C76.4257 96.4573 68.193 93.9917 67.3916 93.5398C66.5903 93.0879 68.3974 103.211 61.5703 107.211Z" fill="#7B6FFF"/>
<path fill-rule="evenodd" clip-rule="evenodd" d="M45.4852 44.846H77.3015C77.407 44.8428 77.512 44.8635 77.6085 44.9066C77.7051 44.9496 77.7908 45.0139 77.8594 45.0947C77.9279 45.1755 77.9776 45.2708 78.0046 45.3735C78.0317 45.4761 78.0355 45.5836 78.0157 45.6879L77.9541 46.1087C77.9156 46.339 77.7989 46.5488 77.6238 46.7023C77.4488 46.8559 77.2261 46.9436 76.9939 46.9505H45.1786C45.073 46.9537 44.968 46.933 44.8715 46.89C44.7749 46.8469 44.6892 46.7826 44.6206 46.7018C44.5521 46.621 44.5025 46.5258 44.4754 46.4231C44.4483 46.3204 44.4445 46.213 44.4643 46.1087L44.5259 45.6879C44.5643 45.4577 44.6809 45.2479 44.8558 45.0944C45.0307 44.9409 45.2532 44.8531 45.4852 44.846V44.846ZM44.2562 53.2645H76.0724C76.178 53.2613 76.2829 53.282 76.3795 53.3251C76.4761 53.3681 76.5618 53.4324 76.6303 53.5132C76.6989 53.594 76.7485 53.6893 76.7756 53.7919C76.8026 53.8946 76.8064 54.0021 76.7867 54.1064L76.725 54.5273C76.6866 54.7577 76.5699 54.9675 76.3948 55.121C76.2197 55.2746 75.9971 55.3623 75.7649 55.3692H43.9489C43.8433 55.3724 43.7384 55.3517 43.6418 55.3087C43.5453 55.2656 43.4595 55.2013 43.391 55.1205C43.3224 55.0397 43.2728 54.9445 43.2457 54.8418C43.2187 54.7391 43.2149 54.6317 43.2347 54.5273L43.2963 54.1064C43.3347 53.8761 43.4514 53.6663 43.6264 53.5128C43.8015 53.3593 44.024 53.2715 44.2562 53.2645V53.2645ZM43.0272 61.6832H62.3889C62.4945 61.6801 62.5994 61.7008 62.696 61.7439C62.7925 61.7869 62.8782 61.8512 62.9468 61.932C63.0154 62.0128 63.065 62.108 63.0921 62.2107C63.1192 62.3133 63.1231 62.4208 63.1034 62.5251L63.0418 62.946C63.0032 63.1763 62.8865 63.3861 62.7114 63.5396C62.5363 63.693 62.3138 63.7807 62.0816 63.7877H42.7199C42.6143 63.7909 42.5094 63.7702 42.4128 63.7272C42.3163 63.6841 42.2306 63.6198 42.162 63.5391C42.0935 63.4583 42.0439 63.3631 42.0168 63.2604C41.9897 63.1578 41.9859 63.0504 42.0056 62.946L42.0672 62.5251C42.1057 62.2948 42.2224 62.085 42.3974 61.9315C42.5724 61.7779 42.795 61.6902 43.0272 61.6832V61.6832ZM41.7981 70.1017H73.6144C73.7199 70.0985 73.8249 70.1192 73.9214 70.1623C74.018 70.2053 74.1037 70.2696 74.1723 70.3504C74.2408 70.4312 74.2905 70.5265 74.3175 70.6291C74.3446 70.7318 74.3484 70.8392 74.3286 70.9436L74.267 71.3645C74.2285 71.5949 74.1118 71.8047 73.9367 71.9582C73.7617 72.1117 73.539 72.1995 73.3068 72.2064H41.4908C41.3853 72.2096 41.2803 72.1889 41.1838 72.1458C41.0872 72.1028 41.0015 72.0385 40.9329 71.9577C40.8644 71.8769 40.8147 71.7817 40.7877 71.679C40.7606 71.5763 40.7568 71.4689 40.7766 71.3645L40.8382 70.9436C40.8767 70.7133 40.9933 70.5035 41.1684 70.35C41.3434 70.1964 41.566 70.1087 41.7981 70.1017V70.1017ZM40.4463 79.3623H72.2623C72.3679 79.3592 72.4728 79.3799 72.5693 79.4229C72.6659 79.466 72.7516 79.5303 72.8201 79.6111C72.8887 79.6919 72.9384 79.7871 72.9655 79.8897C72.9926 79.9924 72.9964 80.0998 72.9767 80.2042L72.9151 80.6251C72.8766 80.8555 72.7598 81.0653 72.5847 81.2187C72.4096 81.3722 72.187 81.4599 71.9548 81.4668H40.139C40.0334 81.47 39.9285 81.4493 39.8319 81.4062C39.7354 81.3632 39.6497 81.2989 39.5811 81.2181C39.5125 81.1374 39.4629 81.0422 39.4358 80.9395C39.4087 80.8369 39.4048 80.7294 39.4245 80.6251L39.4861 80.2042C39.5247 79.9739 39.6414 79.7641 39.8165 79.6106C39.9915 79.4571 40.2141 79.3693 40.4463 79.3623ZM39.2172 87.7808H58.579C58.6846 87.7776 58.7895 87.7983 58.8861 87.8413C58.9826 87.8844 59.0683 87.9487 59.1369 88.0295C59.2055 88.1103 59.2551 88.2055 59.2821 88.3082C59.3092 88.4109 59.313 88.5183 59.2932 88.6227L59.2316 89.0436C59.1932 89.274 59.0764 89.4838 58.9014 89.6373C58.7263 89.7908 58.5037 89.8785 58.2715 89.8855H38.9099C38.8044 89.8886 38.6994 89.8679 38.6029 89.8248C38.5063 89.7818 38.4206 89.7175 38.3521 89.6367C38.2835 89.5559 38.2338 89.4607 38.2067 89.358C38.1796 89.2554 38.1758 89.1479 38.1955 89.0436L38.2571 88.6227C38.2956 88.3923 38.4124 88.1826 38.5874 88.0291C38.7625 87.8755 38.9851 87.7878 39.2172 87.7808V87.7808ZM66.2613 61.6832C66.3932 61.6795 66.5243 61.7055 66.6449 61.7594C66.7655 61.8132 66.8726 61.8936 66.9582 61.9945C67.0439 62.0955 67.106 62.2145 67.1399 62.3427C67.1738 62.4709 67.1787 62.6052 67.1543 62.7356C67.1061 63.0235 66.9602 63.2857 66.7413 63.4775C66.5225 63.6694 66.2442 63.779 65.954 63.7877C65.8221 63.7915 65.6911 63.7654 65.5705 63.7116C65.4499 63.6577 65.3428 63.5774 65.2572 63.4765C65.1715 63.3755 65.1094 63.2566 65.0755 63.1284C65.0416 63.0002 65.0366 62.866 65.061 62.7356C65.1091 62.4476 65.255 62.1853 65.4739 61.9934C65.6928 61.8015 65.9711 61.6919 66.2613 61.6832V61.6832ZM62.4514 87.7808C62.5834 87.777 62.7146 87.803 62.8353 87.857C62.956 87.9109 63.0631 87.9914 63.1488 88.0924C63.2344 88.1935 63.2965 88.3126 63.3303 88.441C63.3642 88.5693 63.369 88.7037 63.3443 88.8342C63.2965 89.1223 63.1507 89.3848 62.9318 89.5769C62.7129 89.769 62.4345 89.8788 62.1441 89.8876C62.012 89.8914 61.8809 89.8653 61.7602 89.8114C61.6395 89.7574 61.5323 89.677 61.4467 89.5759C61.361 89.4748 61.2989 89.3557 61.2651 89.2274C61.2313 89.099 61.2265 88.9646 61.2511 88.8342C61.299 88.546 61.4448 88.2835 61.6637 88.0914C61.8826 87.8993 62.161 87.7895 62.4514 87.7808Z" fill="#BBB5FD"/>
<path fill-rule="evenodd" clip-rule="evenodd" d="M50.3096 24.0566H72.8307V30.9862H50.3096V24.0566Z" fill="#BBB5FD"/>
<path fill-rule="evenodd" clip-rule="evenodd" d="M52.1176 20.5918H72.8307L71.6525 24.0566H50.3096L52.1176 20.5918Z" fill="#A9A2FF"/>
<path fill-rule="evenodd" clip-rule="evenodd" d="M62.4425 14.817C61.8292 14.8168 61.2408 15.06 60.8068 15.4933C60.3727 15.9266 60.1284 16.5145 60.1275 17.1278C60.1277 17.5841 60.263 18.0301 60.5165 18.4096C60.7701 18.7894 61.1306 19.0855 61.5524 19.2604C61.9743 19.4354 62.4385 19.4814 62.8865 19.3926C63.3344 19.3038 63.746 19.0842 64.0692 18.7616C64.3925 18.439 64.6128 18.0278 64.7024 17.58C64.7919 17.1321 64.7468 16.6678 64.5726 16.2457C64.3984 15.8235 64.1029 15.4625 63.7236 15.2082C63.3445 14.9541 62.8988 14.818 62.4425 14.817ZM62.4453 12.5071L62.4472 10.1973C60.6084 10.1958 58.8444 10.9247 57.5431 12.2238C56.2417 13.5228 55.5096 15.2855 55.5078 17.1243L55.5078 17.1264C55.5077 18.4965 55.9138 19.8358 56.6746 20.9752C57.4355 22.1145 58.517 23.0028 59.7825 23.5277C61.048 24.0526 62.4407 24.1905 63.7846 23.9242C65.1285 23.6578 66.3633 22.9991 67.333 22.0311C68.3026 21.0632 68.9636 19.8296 69.2323 18.4862C69.5011 17.1428 69.3656 15.7498 68.8429 14.4834C68.3203 13.2169 67.434 12.1338 66.296 11.3709C65.158 10.6081 63.8194 10.1996 62.4493 10.1973L62.4453 12.5071Z" fill="#BBB5FD"/>
<path d="M128.268 95.0856C128.268 105.61 119.736 114.142 109.212 114.142C98.6871 114.142 90.1553 105.61 90.1553 95.0856C90.1553 84.5611 98.6871 76.0293 109.212 76.0293C119.736 76.0293 128.268 84.5611 128.268 95.0856Z" fill="#EFEDFF"/>
<path d="M104.014 89.8886C104.014 87.9751 105.565 86.4238 107.478 86.4238C109.392 86.4238 110.943 87.9751 110.943 89.8886V96.8182C110.943 98.7317 109.392 100.283 107.478 100.283C105.565 100.283 104.014 98.7317 104.014 96.8182V89.8886Z" fill="#7B6EFF"/>
<path d="M117.873 93.3534C119.786 93.3534 121.338 94.9046 121.338 96.8182C121.338 98.7317 119.786 100.283 117.873 100.283H107.478C105.565 100.283 104.014 98.7317 104.014 96.8182C104.014 94.9046 105.565 93.3534 107.478 93.3534L117.873 93.3534Z" fill="#7B6EFF"/>
<path fill-rule="evenodd" clip-rule="evenodd" d="M128.08 36.6389C127.856 36.3435 127.397 36.1824 126.669 36.1836C125.994 36.1846 125.51 36.355 125.235 36.6817C124.866 37.1191 124.717 37.7237 124.849 38.271C124.963 38.7458 125.352 39.1647 125.93 39.4388C126.479 39.6987 127.006 39.7114 127.392 39.506C127.727 39.3279 127.985 38.8992 128.149 38.1974C128.328 37.4333 128.301 36.9314 128.08 36.6389ZM126.666 34.4512C127.511 34.4498 128.718 34.6107 129.462 35.5945C130.198 36.5685 130.023 37.7952 129.836 38.5921C129.642 39.4204 129.227 40.492 128.206 41.0354C127.195 41.5729 126.068 41.421 125.188 41.0043C124.302 40.5844 123.439 39.8154 123.165 38.6765C122.9 37.5754 123.199 36.4094 123.91 35.5652C124.664 34.6709 125.772 34.4526 126.666 34.4512Z" fill="url(#paint4_linear_148_329)"/>
<path d="M107.479 63.036C112.029 64.4257 115.618 68.0148 117.008 72.5641C118.398 68.015 121.987 64.4257 126.536 63.036C121.987 61.6463 118.398 58.057 117.008 53.5078C115.618 58.057 112.029 61.6463 107.479 63.036Z" fill="url(#paint5_linear_148_329)"/>
<path d="M7 59.5712C9.06779 60.2029 10.6992 61.8343 11.331 63.9022C11.9627 61.8344 13.5942 60.2029 15.662 59.5712C13.5942 58.9395 11.9627 57.308 11.331 55.2402C10.6994 57.308 9.06779 58.9395 7 59.5712Z" fill="url(#paint6_linear_148_329)"/>
<circle r="2.59859" transform="matrix(-1 0 0 1 103.148 7.59859)" fill="url(#paint7_linear_148_329)"/>
<defs>
<linearGradient id="paint0_linear_148_329" x1="64.5771" y1="-21.2112" x2="65.9128" y2="207.551" gradientUnits="userSpaceOnUse">
<stop stop-color="#CAE0FF" stop-opacity="0"/>
<stop offset="1" stop-color="#BCD8FF"/>
</linearGradient>
<linearGradient id="paint1_linear_148_329" x1="64.1703" y1="20.5918" x2="64.1703" y2="114.141" gradientUnits="userSpaceOnUse">
<stop stop-color="#AAA3FF"/>
<stop offset="1" stop-color="#5597FD"/>
</linearGradient>
<linearGradient id="paint2_linear_148_329" x1="62.4379" y1="24.0566" x2="62.8033" y2="341.413" gradientUnits="userSpaceOnUse">
<stop stop-color="#F9F8FF"/>
<stop offset="1" stop-color="#6C55FD"/>
</linearGradient>
<linearGradient id="paint3_linear_148_329" x1="48.5775" y1="29.2539" x2="48.5775" y2="107.212" gradientUnits="userSpaceOnUse">
<stop stop-color="white"/>
<stop offset="1" stop-color="#FFF6EB"/>
</linearGradient>
<linearGradient id="paint4_linear_148_329" x1="126.534" y1="34.4512" x2="126.534" y2="41.3809" gradientUnits="userSpaceOnUse">
<stop stop-color="#70A8FF"/>
<stop offset="1" stop-color="#5597FD"/>
</linearGradient>
<linearGradient id="paint5_linear_148_329" x1="117.008" y1="53.5078" x2="117.008" y2="72.5641" gradientUnits="userSpaceOnUse">
<stop stop-color="#70A8FF"/>
<stop offset="1" stop-color="#5597FD"/>
</linearGradient>
<linearGradient id="paint6_linear_148_329" x1="11.331" y1="55.2402" x2="11.331" y2="63.9022" gradientUnits="userSpaceOnUse">
<stop stop-color="#70A8FF"/>
<stop offset="1" stop-color="#5597FD"/>
</linearGradient>
<linearGradient id="paint7_linear_148_329" x1="2.59859" y1="0" x2="2.59859" y2="5.19718" gradientUnits="userSpaceOnUse">
<stop stop-color="#9EC4FF" stop-opacity="0"/>
<stop offset="0.885417" stop-color="#5E9CFD"/>
</linearGradient>
</defs>
</svg>
