<svg width="18" height="18" viewBox="0 0 20 20" fill="none" xmlns="http://www.w3.org/2000/svg">
<circle cx="10" cy="10" r="10" fill="#F9E429"/>
<path d="M10.5801 5.27273L10.4949 11.5455H9.50621L9.42099 5.27273H10.5801ZM10.0005 14.0682C9.79031 14.0682 9.60991 13.9929 9.45934 13.8423C9.30877 13.6918 9.23349 13.5114 9.23349 13.3011C9.23349 13.0909 9.30877 12.9105 9.45934 12.7599C9.60991 12.6094 9.79031 12.5341 10.0005 12.5341C10.2108 12.5341 10.3912 12.6094 10.5417 12.7599C10.6923 12.9105 10.7676 13.0909 10.7676 13.3011C10.7676 13.4403 10.7321 13.5682 10.661 13.6847C10.5929 13.8011 10.5005 13.8949 10.3841 13.9659C10.2704 14.0341 10.1426 14.0682 10.0005 14.0682Z" fill="white"/>
</svg>
