<svg width="150" height="102" viewBox="0 0 150 102" fill="none" xmlns="http://www.w3.org/2000/svg">
<g clip-path="url(#clip0_3367_11283)">
<path d="M116.945 28.469L121.892 30.9555L122.412 29.9151L128.759 17.379L116.102 10.8457L113.561 15.7509C113.425 15.9621 113.213 16.1125 112.968 16.1707C112.724 16.2288 112.466 16.1903 112.249 16.063C112.017 15.9382 111.843 15.727 111.765 15.4752C111.626 14.9617 111.292 14.5228 110.833 14.2528C110.435 14.0938 109.991 14.0908 109.591 14.2443C109.191 14.3978 108.863 14.6967 108.674 15.081C108.484 15.4653 108.447 15.9069 108.57 16.3175C108.692 16.7281 108.965 17.0775 109.334 17.2958C109.572 17.4288 109.841 17.4986 110.115 17.4986C110.388 17.4986 110.657 17.4288 110.896 17.2958C111.011 17.2486 111.135 17.2265 111.26 17.231C111.385 17.2355 111.507 17.2664 111.619 17.3218C111.73 17.3713 111.831 17.4423 111.914 17.5306C111.998 17.619 112.063 17.723 112.106 17.8366C112.149 17.9502 112.169 18.0713 112.165 18.1927C112.161 18.3142 112.133 18.4336 112.083 18.5442L109.204 24.4585L111.104 25.4208L113.967 26.8929C114.077 26.9476 114.175 27.0235 114.256 27.1162C114.337 27.2089 114.398 27.3167 114.437 27.4332C114.475 27.5497 114.491 27.6727 114.482 27.7951C114.473 27.9175 114.439 28.037 114.384 28.1465C114.311 28.2528 114.217 28.3431 114.107 28.412C113.998 28.4808 113.876 28.5268 113.749 28.5471C113.499 28.6014 113.262 28.7059 113.053 28.8544C112.845 29.0028 112.669 29.192 112.536 29.4105C112.124 30.1804 112.484 31.0647 113.4 31.5536C114.316 32.0426 115.321 31.8501 115.732 31.0751C115.833 30.8265 115.883 30.5603 115.878 30.2922C115.874 30.0241 115.815 29.7596 115.706 29.5146C115.66 29.4033 115.638 29.2831 115.644 29.1626C115.649 29.042 115.681 28.9242 115.738 28.8175C115.792 28.7135 115.867 28.6216 115.958 28.5473C116.049 28.473 116.154 28.4179 116.267 28.3853C116.38 28.3527 116.498 28.3433 116.615 28.3577C116.731 28.3721 116.844 28.41 116.945 28.469Z" fill="#F5F5F5"/>
<path d="M6.16342 89.2299L6.21027 96.6631H7.7722L26.6767 96.5747L26.7548 77.4429L19.32 77.4065C18.9839 77.3734 18.6738 77.2112 18.4552 76.954C18.2367 76.6968 18.1267 76.3647 18.1486 76.028C18.1501 75.8532 18.1863 75.6805 18.2551 75.5197C18.3239 75.359 18.424 75.2135 18.5495 75.0917C19.081 74.6125 19.4026 73.9436 19.445 73.2295C19.445 72.0019 18.4714 71.1488 17.1333 71.1801C16.8426 71.1567 16.5502 71.1945 16.2751 71.2912C16 71.3879 15.7483 71.5413 15.5362 71.7413C15.3242 71.9414 15.1566 72.1837 15.0443 72.4526C14.9319 72.7216 14.8774 73.011 14.8842 73.3024C14.8675 73.6684 14.9449 74.0327 15.109 74.3604C15.273 74.6882 15.5182 74.9686 15.8213 75.175C15.9477 75.2856 16.0495 75.4215 16.1203 75.5737C16.1912 75.726 16.2294 75.8914 16.2326 76.0592C16.241 76.2223 16.2171 76.3854 16.1621 76.5391C16.1072 76.6929 16.0224 76.8343 15.9125 76.9551C15.8027 77.076 15.67 77.174 15.5221 77.2434C15.3742 77.3128 15.214 77.3523 15.0508 77.3597L6.22589 77.5157V80.3819V84.7097C6.25066 84.9661 6.1889 85.2234 6.05045 85.4407C5.91199 85.658 5.70478 85.8228 5.46178 85.9089C5.21877 85.995 4.95393 85.9975 4.70937 85.9159C4.4648 85.8343 4.25457 85.6734 4.11209 85.4587C3.89418 85.1925 3.6245 84.9732 3.31935 84.814C3.01419 84.6549 2.67991 84.5592 2.3367 84.5328C1.15485 84.5328 0.316613 85.4847 0.295787 86.8788C0.274962 88.2728 1.1184 89.36 2.29505 89.3756C2.65038 89.3422 2.99562 89.2391 3.311 89.0722C3.62638 88.9053 3.90568 88.6778 4.13291 88.4029C4.23674 88.2792 4.3667 88.1801 4.51343 88.1127C4.66017 88.0452 4.82004 88.0111 4.98156 88.0127C5.1405 88.0105 5.29824 88.0406 5.44507 88.1015C5.59191 88.1623 5.72474 88.2525 5.83543 88.3665C5.94611 88.4805 6.0323 88.6159 6.0887 88.7644C6.1451 88.9128 6.17053 89.0713 6.16342 89.2299Z" fill="#F5F5F5"/>
<path d="M143.498 63.7989C143.222 63.5863 142.872 63.4917 142.526 63.5355C142.18 63.5794 141.865 63.7582 141.65 64.033C141.546 64.1749 141.473 64.3375 141.438 64.5098C141.402 64.6821 141.403 64.86 141.442 65.0317C141.545 65.3768 141.577 65.7395 141.534 66.0973C141.492 66.4551 141.378 66.8005 141.197 67.1124C140.468 68.1007 139.114 68.1787 137.943 67.31C136.771 66.4413 136.428 65.1461 137.157 64.1578C137.402 63.8888 137.7 63.6729 138.032 63.5235C138.365 63.3741 138.724 63.2944 139.088 63.2891C139.266 63.2721 139.437 63.2167 139.591 63.1269C139.744 63.0371 139.877 62.9149 139.979 62.7689C140.139 62.5362 140.218 62.2568 140.203 61.9745C140.188 61.6922 140.08 61.4228 139.895 61.2084L134.829 57.6401L133.46 56.6934L128.181 64.0954C128.088 64.2394 128.025 64.4005 127.995 64.5691C127.966 64.7378 127.97 64.9107 128.007 65.0777C128.045 65.2448 128.116 65.4026 128.215 65.5421C128.315 65.6815 128.441 65.7998 128.587 65.89C128.732 65.9896 128.896 66.0581 129.069 66.0913C129.242 66.1244 129.42 66.1214 129.592 66.0824C129.955 65.952 130.344 65.9156 130.725 65.9765C131.106 66.0375 131.464 66.1938 131.768 66.4309C132.887 67.3568 133.023 68.5116 132.237 69.63C131.451 70.7483 130.154 71.0708 129.082 70.3322C128.503 69.8611 128.13 69.1843 128.04 68.444C127.997 68.1961 127.891 67.9637 127.731 67.7692C127.571 67.5747 127.364 67.4248 127.129 67.3342C126.894 67.2436 126.64 67.2153 126.391 67.2521C126.142 67.2889 125.906 67.3895 125.708 67.5441C125.68 67.5983 125.649 67.6505 125.614 67.7001L121.079 73.9422L137.651 85.6044L149.704 68.2567L143.498 63.7989Z" fill="#EBEBEB"/>
<path d="M11.323 19.3138C11.0443 19.5237 10.8604 19.8355 10.8115 20.1807C10.7627 20.526 10.8531 20.8765 11.0627 21.1552C11.1716 21.2928 11.3089 21.4054 11.4652 21.4853C11.6215 21.5652 11.7932 21.6105 11.9686 21.6182C12.3316 21.6095 12.6926 21.6752 13.0293 21.8112C13.3659 21.9472 13.6712 22.1505 13.9262 22.4088C14.6915 23.366 14.4156 24.682 13.265 25.5975C12.1144 26.513 10.7711 26.487 10.011 25.5299C9.81786 25.2234 9.68919 24.8809 9.6328 24.5232C9.57641 24.1655 9.59348 23.8001 9.68297 23.4492C9.71402 23.2753 9.7078 23.0969 9.66472 22.9256C9.62164 22.7544 9.54268 22.5942 9.43306 22.4557C9.2485 22.2323 8.99408 22.0775 8.71075 22.0162C8.42743 21.9548 8.13168 21.9905 7.87114 22.1175L3.09686 26.0708L1.82129 27.1424L7.58479 34.1751C7.7001 34.3021 7.83948 34.4049 7.99487 34.4776C8.15026 34.5504 8.31856 34.5915 8.49001 34.5988C8.66145 34.6061 8.83264 34.5793 8.99363 34.5199C9.15462 34.4606 9.30222 34.3699 9.42786 34.2531C9.56128 34.1396 9.66955 33.9996 9.74575 33.842C9.82195 33.6843 9.86441 33.5126 9.8704 33.3376C9.84223 32.9506 9.91298 32.5629 10.076 32.2108C10.239 31.8586 10.489 31.5537 10.8024 31.3246C11.9946 30.4871 13.114 30.6535 14.0147 31.7095C14.23 31.9246 14.3981 32.1821 14.5083 32.4658C14.6185 32.7494 14.6683 33.0528 14.6546 33.3567C14.6409 33.6606 14.5639 33.9583 14.4286 34.2309C14.2934 34.5035 14.1028 34.7449 13.8689 34.9397C13.2667 35.3724 12.5216 35.5585 11.7864 35.4599C11.6015 35.4388 11.4142 35.4546 11.2354 35.5064C11.0567 35.5582 10.89 35.6449 10.7451 35.7616C10.4868 35.9535 10.3013 36.2272 10.219 36.5381C10.1368 36.849 10.1625 37.1786 10.2921 37.473C10.3377 37.5124 10.3795 37.5559 10.4171 37.603L15.2747 43.6162L30.8939 30.7055L17.2271 14.4971L11.323 19.3138Z" fill="#EBEBEB"/>
<path d="M140.301 101.625C140.301 101.703 114.217 101.761 82.0469 101.761C49.8765 101.761 23.8184 101.703 23.8184 101.625C23.8184 101.547 49.8973 101.49 82.0729 101.49C114.249 101.49 140.301 101.547 140.301 101.625Z" fill="#263238"/>
<path d="M75.9451 23.0491L77.7465 19.1271C76.4675 15.907 76.4401 12.3255 77.6698 9.08633C78.8995 5.84718 81.2973 3.18464 84.392 1.62198C87.4866 0.0593174 91.0544 -0.290464 94.3941 0.641376C97.7337 1.57322 100.604 3.7193 102.44 6.65785C104.277 9.5964 104.947 13.1149 104.319 16.5219C103.691 19.9289 101.81 22.9781 99.0459 25.07C96.282 27.162 92.835 28.1456 89.3821 27.8275C85.9293 27.5094 82.7204 25.9126 80.3861 23.3508L75.9451 23.0491Z" fill="white"/>
<path d="M75.9451 23.0489H76.247L77.1061 23.0957L80.3966 23.283L80.3341 23.3766C80.3267 23.3621 80.3253 23.3452 80.3301 23.3297C80.335 23.3141 80.3458 23.3011 80.3601 23.2934C80.3712 23.2845 80.385 23.2797 80.3992 23.2797C80.4134 23.2797 80.4271 23.2845 80.4382 23.2934C81.9899 24.9768 83.934 26.2508 86.0976 27.0022C88.4644 27.8208 91.0099 27.9793 93.4602 27.4605C95.9105 26.9418 98.1728 25.7654 100.004 24.058C102.335 21.9007 103.843 19.0009 104.269 15.8552C104.695 12.7095 104.014 9.51348 102.342 6.81442L101.883 6.10179L101.363 5.43597C101.016 4.99821 100.644 4.58133 100.249 4.18755C97.9891 1.99735 95.0474 0.645727 91.9125 0.357366C88.7775 0.069006 85.6383 0.86128 83.0165 2.60249C80.3947 4.34369 78.4483 6.92895 77.501 9.92848C76.5536 12.928 76.6623 16.1611 77.809 19.0904V19.1424C77.2154 20.3908 76.7677 21.3583 76.4449 22.0242L76.0804 22.7784C75.9971 22.9501 75.9503 23.0385 75.9503 23.0385C75.9503 23.0385 75.9815 22.9605 76.0544 22.794L76.3824 22.045C76.6844 21.3584 77.1269 20.37 77.6944 19.0904V19.1372C76.825 16.9959 76.5081 14.6706 76.7729 12.375C77.1997 8.80399 78.9814 5.5326 81.7508 3.23509C84.5202 0.937587 88.0662 -0.21096 91.658 0.0261965C94.9657 0.278538 98.0814 1.67676 100.467 3.97949C100.871 4.38078 101.25 4.80639 101.602 5.25391L102.123 5.93012L102.586 6.65836C103.912 8.79394 104.637 11.2475 104.684 13.7603C104.731 16.2731 104.099 18.752 102.854 20.9357C101.608 23.1193 99.7965 24.9268 97.6089 26.1676C95.4213 27.4083 92.9391 28.0363 90.4241 27.9853C88.9227 27.967 87.4345 27.7016 86.0195 27.1999C83.8364 26.4237 81.8821 25.1148 80.3341 23.3922L80.4382 23.3194C80.4459 23.3347 80.4474 23.3523 80.4426 23.3687C80.4378 23.3851 80.4269 23.3991 80.4122 23.4078H80.3757L77.0488 23.1425L76.2106 23.0697C76.1217 23.0699 76.0329 23.0629 75.9451 23.0489Z" fill="#263238"/>
<path d="M90.2264 19.9537L82.927 15.0745L84.6295 12.5308L89.5235 15.8027L95.615 7.75049L98.062 9.59709L90.2264 19.9537Z" fill="#A8AAEC"/>
<path d="M39.4377 24.9474C38.3097 22.7145 37.3743 20.3896 36.6419 17.9979C35.9129 15.5922 35.7948 13.043 36.2983 10.5803C36.3816 10.211 37.199 7.70376 37.579 7.69336C37.8498 7.69336 37.4437 9.9769 37.6051 10.1954C39.167 12.2448 39.8751 14.8769 39.9948 17.4465C40.088 19.9597 39.9012 22.4755 39.4377 24.9474Z" fill="#263238"/>
<path d="M55.9577 44.3289C55.7547 42.5759 54.7759 33.8058 54.7915 33.8058C54.8071 33.8058 60.7268 32.4274 60.3624 26.4246C60.1853 23.5221 59.3211 17.5817 58.4985 12.2032C58.07 9.41433 56.6055 6.88915 54.3969 5.13078C52.1882 3.37242 49.3976 2.50998 46.581 2.71532L46.0031 2.75692C39.7554 3.58399 37.0012 9.32146 38.0008 15.5167L42.5044 44.3289L53.1046 43.8087L55.9577 44.3289Z" fill="#FED7C1"/>
<path d="M54.7914 33.7798C52.016 33.9763 49.2424 33.3733 46.7996 32.0425C46.7996 32.0425 49.0019 36.3599 54.958 35.3768L54.7914 33.7798Z" fill="#D3A28C"/>
<path d="M56.7021 17.8C56.7212 18.0229 56.6524 18.2444 56.5104 18.4173C56.3684 18.5902 56.1645 18.701 55.942 18.7259C55.8333 18.7435 55.7222 18.739 55.6154 18.7127C55.5085 18.6864 55.408 18.6388 55.32 18.5727C55.232 18.5066 55.1583 18.4235 55.1032 18.3282C55.0482 18.233 55.0129 18.1277 54.9996 18.0185C54.9792 17.7953 55.0475 17.5731 55.1898 17.3999C55.332 17.2266 55.5368 17.1162 55.7598 17.0926C55.8684 17.075 55.9795 17.0794 56.0864 17.1058C56.1933 17.1321 56.2937 17.1797 56.3817 17.2458C56.4697 17.3119 56.5435 17.395 56.5985 17.4902C56.6536 17.5855 56.6888 17.6908 56.7021 17.8Z" fill="#263238"/>
<path d="M57.3947 14.7622C57.2957 14.8818 56.6137 14.4501 55.6922 14.5177C54.7706 14.5853 54.1302 15.1003 54.0157 14.9963C53.9012 14.8922 54.0574 14.7362 54.3333 14.5021C54.7138 14.1965 55.179 14.0149 55.6661 13.982C56.1463 13.9461 56.6255 14.0626 57.0354 14.3149C57.3322 14.5125 57.4467 14.705 57.3947 14.7622Z" fill="#263238"/>
<path d="M48.3198 18.8405C48.3388 19.0642 48.2693 19.2864 48.1262 19.4595C47.9831 19.6326 47.7779 19.7427 47.5545 19.7664C47.4463 19.7825 47.336 19.777 47.23 19.75C47.124 19.723 47.0245 19.6752 46.9372 19.6093C46.85 19.5434 46.7767 19.4608 46.7218 19.3663C46.6669 19.2718 46.6313 19.1674 46.6173 19.059C46.5969 18.8359 46.6652 18.6137 46.8074 18.4404C46.9497 18.2672 47.1544 18.1568 47.3775 18.1331C47.4861 18.1155 47.5972 18.12 47.7041 18.1463C47.811 18.1726 47.9114 18.2203 47.9994 18.2863C48.0874 18.3524 48.1612 18.4355 48.2162 18.5308C48.2713 18.626 48.3065 18.7314 48.3198 18.8405Z" fill="#263238"/>
<path d="M48.3825 15.7974C48.2836 15.917 47.5963 15.4853 46.6748 15.5581C45.7532 15.6309 45.1128 16.1355 44.9983 16.0314C44.8838 15.9274 45.04 15.7766 45.3211 15.5425C45.6977 15.2336 46.1624 15.0516 46.6487 15.0223C47.1292 14.9824 47.6097 15.0992 48.018 15.3552C48.32 15.5529 48.4293 15.7453 48.3825 15.7974Z" fill="#263238"/>
<path d="M52.2143 22.6431C52.6893 22.4551 53.1861 22.3276 53.6929 22.2633C53.9272 22.2217 54.1459 22.1593 54.1771 21.9928C54.1761 21.7486 54.1038 21.5099 53.9689 21.3062L53.1358 19.5637C51.98 17.0825 51.1262 15.033 51.2251 14.9914C51.324 14.9498 52.3445 16.9212 53.5003 19.4024L54.3021 21.1554C54.4716 21.4286 54.5397 21.7526 54.4947 22.0709C54.4659 22.1566 54.4182 22.2347 54.3551 22.2996C54.2921 22.3644 54.2152 22.4142 54.1303 22.4454C54.0025 22.4901 53.8695 22.5181 53.7346 22.5286C53.2347 22.6309 52.7239 22.6693 52.2143 22.6431Z" fill="#263238"/>
<path d="M56.5513 10.8817C56.4159 11.1106 55.7599 10.9701 54.9893 11.0482C54.2188 11.1262 53.5992 11.3499 53.4274 11.1522C53.3493 11.0534 53.4274 10.8297 53.6825 10.6008C54.0319 10.3153 54.461 10.1446 54.9112 10.1119C55.3599 10.0669 55.8114 10.1633 56.2024 10.3875C56.4992 10.5696 56.6189 10.7725 56.5513 10.8817Z" fill="#263238"/>
<path d="M48.4031 13.6753C48.2522 13.8937 47.6013 13.7169 46.8412 13.7533C46.0811 13.7897 45.4355 13.9822 45.2793 13.7533C45.2064 13.6545 45.2793 13.436 45.5656 13.2331C45.9275 12.9651 46.3647 12.8177 46.8152 12.8118C47.2657 12.7914 47.7114 12.9114 48.0907 13.1551C48.3667 13.358 48.4656 13.566 48.4031 13.6753Z" fill="#263238"/>
<path d="M38.8181 19.9224C38.714 19.886 34.6009 19.0069 35.033 23.1006C35.4652 27.1944 39.8854 26.0656 39.8802 25.946C39.875 25.8263 38.8181 19.9224 38.8181 19.9224Z" fill="#FED7C1"/>
<path d="M38.0684 24.3804C38.0684 24.3804 38.0059 24.4376 37.8913 24.5052C37.7316 24.5897 37.5467 24.6137 37.3707 24.5728C36.923 24.4584 36.4856 23.8082 36.3867 23.0748C36.3395 22.7253 36.3715 22.3698 36.4804 22.0344C36.5049 21.9018 36.5613 21.7771 36.6448 21.6711C36.7282 21.5651 36.8362 21.4809 36.9594 21.4258C37.0393 21.3961 37.1269 21.395 37.2076 21.4224C37.2882 21.4499 37.3569 21.5044 37.4019 21.5767C37.4696 21.6859 37.4488 21.7743 37.4748 21.7743C37.5009 21.7743 37.5529 21.6963 37.4748 21.535C37.4426 21.4357 37.3762 21.3509 37.2874 21.2958C37.2275 21.2584 37.1606 21.2336 37.0908 21.2228C37.021 21.2121 36.9497 21.2157 36.8813 21.2334C36.7166 21.2838 36.5677 21.3759 36.4491 21.5008C36.3305 21.6256 36.2463 21.779 36.2045 21.946C36.0673 22.3181 36.0227 22.718 36.0743 23.1112C36.1888 23.933 36.6939 24.6717 37.303 24.7705C37.417 24.7899 37.5339 24.7842 37.6455 24.7536C37.757 24.7231 37.8605 24.6685 37.9486 24.5936C38.0736 24.4792 38.084 24.3856 38.0684 24.3804Z" fill="#D3A28C"/>
<path d="M55.0571 5.70623C55.6766 5.26409 53.4431 3.34987 51.7302 2.79849C49.1269 1.96102 45.3054 1.70612 43.1083 2.61122C40.4687 3.69837 38.3549 5.31611 37.2667 7.95337C36.2378 10.6347 35.9395 13.5408 36.4025 16.3749C36.4694 17.2486 36.7677 18.0887 37.2667 18.8093C37.9436 19.6468 39.1046 20.0889 39.1983 21.3425C39.2212 21.8022 39.4252 22.2342 39.7658 22.5441C40.6093 23.2515 41.4371 22.3985 41.7755 21.6026C42.4888 19.8965 42.369 17.9614 42.2389 16.1304C42.2169 14.8142 41.9795 13.5104 41.536 12.2708C41.2549 11.6102 40.8592 11.0016 40.6197 10.3305C40.4763 10.0008 40.4067 9.64383 40.4157 9.28446C40.4247 8.92509 40.5121 8.57202 40.6717 8.24987C40.7593 8.11643 40.8586 7.99109 40.9685 7.87535C41.4812 7.31198 42.1351 6.89544 42.8627 6.66868C43.5903 6.44192 44.3652 6.41314 45.1076 6.58532C47.5078 7.1367 51.5844 7.90134 52.5215 7.00145C53.8752 5.70623 54.1407 4.92077 54.1407 4.92077L55.0571 5.70623Z" fill="#263238"/>
<path d="M52.8652 25.1086C52.8183 24.9629 52.0894 25.1086 51.3293 24.7861C50.5691 24.4636 50.1526 23.8654 50.0121 23.933C49.9496 23.9642 49.9652 24.1775 50.1318 24.4532C50.3675 24.8261 50.7131 25.1169 51.121 25.2855C51.5284 25.4535 51.9787 25.4881 52.407 25.3843C52.7298 25.3167 52.8912 25.1762 52.8652 25.1086Z" fill="#263238"/>
<path d="M42.041 14.7626C41.0593 14.8845 40.0652 14.8652 39.089 14.7054C37.4698 14.5389 36.1838 14.1852 36.2099 14.076C36.2359 13.9668 37.5115 14.2685 39.1202 14.4401C40.729 14.6118 42.041 14.6794 42.041 14.7626Z" fill="#EBEBEB"/>
<path d="M32.4612 65.5047L23.5478 65.0469L32.003 58.0558L25.2347 45.5718C25.2347 45.5718 11.0628 62.1288 9.82888 64.4851C8.44918 67.1276 7.27773 71.419 11.0992 73.5205C13.7545 74.9769 34.7416 74.8261 34.7416 74.8261L32.4612 65.5047Z" fill="#FED7C1"/>
<path d="M44.5764 98.3327V101.625L70.4471 102L71.1447 91.3208L44.5764 98.3327Z" fill="#263238"/>
<path d="M68.2708 36.9165C68.2708 36.9165 85.53 51.9702 85.8007 51.6061C86.0715 51.242 91.5018 36.9165 91.5018 36.9165L101.342 37.1142C101.342 37.1142 96.1355 58.826 92.9387 61.6818C89.742 64.5375 86.1704 63.6116 83.7182 63.1278C81.266 62.6441 69.3745 51.7361 69.3745 51.7361L68.2708 36.9165Z" fill="#FED7C1"/>
<path d="M41.6452 36.6356L27.8118 41.3172L30.8315 52.402L36.9178 70.2438L44.0454 98.4682L84.1035 88.3353L72.6494 52.8181L68.276 36.9217L64.5326 35.5381L57.7643 36.5784L55.4422 36.412C55.4422 36.412 55.9941 39.3301 50.5326 39.533C47.2473 39.6474 41.6452 36.6356 41.6452 36.6356Z" fill="#ECF8FF"/>
<path d="M71.7176 56.2927L76.5908 59.3357L82.094 47.4707C82.094 47.4707 71.374 36.4743 67.8701 35.7305C64.3662 34.9866 63.0906 36.0738 63.0906 36.0738L71.7176 56.2927Z" fill="#E0E0E0"/>
<path d="M27.4162 64.6516L15.1499 56.3705C15.1499 56.3705 23.2875 45.4469 24.4433 44.1101C25.4326 42.9207 26.6529 41.9439 28.0306 41.2388L33.0548 58.8101L27.4162 64.6516Z" fill="#ECF8FF"/>
<path d="M29.759 48.7242C29.7069 48.7242 30.894 52.5266 32.4038 57.1769C33.9137 61.8272 35.1736 65.5828 35.2205 65.5672C35.2674 65.5516 34.0855 61.77 32.5756 57.1197C31.0658 52.4694 29.8058 48.7086 29.759 48.7242Z" fill="#263238"/>
<path d="M71.7175 70.0875L59.9927 70.0355V72.5895L60.1385 101.875L91.8976 102L91.9496 90.4781C91.9496 89.4378 93.0638 88.6784 94.2405 88.6628C94.8237 88.6592 95.3848 88.8853 95.8024 89.2922C96.6252 90.1208 97.7282 90.6124 98.895 90.6706C99.3603 90.6813 99.8227 90.5946 100.252 90.4162C100.682 90.2377 101.07 89.9714 101.391 89.6344C101.711 89.2974 101.958 88.8971 102.114 88.4592C102.271 88.0213 102.334 87.5556 102.3 87.0918C102.264 85.0112 101.061 83.768 98.7753 83.6067C97.104 83.4871 96.2814 84.439 95.6514 85.058C95.4617 85.2555 95.2348 85.4138 94.9837 85.5236C94.7327 85.6334 94.4624 85.6926 94.1884 85.6978C93.9254 85.7199 93.6606 85.6898 93.4093 85.6094C93.158 85.529 92.925 85.3997 92.7237 85.2291C92.5225 85.0585 92.357 84.8499 92.2366 84.6152C92.1163 84.3805 92.0435 84.1244 92.0225 83.8616V70.2904H87.0296L79.22 70.2124C78.6872 70.2306 78.169 70.0373 77.7787 69.6746C77.3883 69.3119 77.1577 68.8095 77.1374 68.2773C77.1424 68.0117 77.2067 67.7506 77.3256 67.5131C77.4445 67.2755 77.615 67.0674 77.8246 66.9041C78.5171 66.3475 79.4959 65.3436 79.5167 64.1836C79.548 62.3526 77.9548 61.0626 75.6275 61.0262C73.3003 60.9897 71.6655 62.2486 71.6342 64.0743C71.6342 65.2551 72.5558 66.2695 73.2326 66.8416C73.4364 67.0118 73.5996 67.2253 73.7104 67.4664C73.8212 67.7076 73.8767 67.9704 73.873 68.2357C73.8278 68.7648 73.5767 69.2551 73.1737 69.6013C72.7707 69.9476 72.2479 70.1221 71.7175 70.0875Z" fill="#455A64"/>
<path d="M111.385 70.2643C110.851 70.2299 110.325 70.4071 109.92 70.7576C109.516 71.1081 109.266 71.6036 109.225 72.1369C109.222 72.4026 109.278 72.6655 109.39 72.9067C109.502 73.1478 109.666 73.3611 109.87 73.531C110.542 74.1031 111.489 75.1175 111.469 76.2983C111.437 78.124 109.782 79.3829 107.475 79.3465C105.169 79.31 103.555 78.02 103.586 76.189C103.586 75.0134 104.58 74.0251 105.273 73.4685C105.482 73.3047 105.653 73.0967 105.773 72.8593C105.893 72.6219 105.958 72.361 105.965 72.0953C105.955 71.6545 105.795 71.2304 105.511 70.8929C105.227 70.5553 104.836 70.3244 104.403 70.2383L94.6466 70.2747L92.0434 70.3111L92.0226 83.8615C92.0651 84.3904 92.3159 84.8809 92.7201 85.2252C93.1242 85.5694 93.6486 85.7394 94.178 85.6977C94.452 85.6925 94.7223 85.6333 94.9734 85.5235C95.2244 85.4137 95.4513 85.2555 95.641 85.0579C96.2554 84.4389 97.078 83.4974 98.7649 83.6066C101.05 83.7679 102.253 85.0215 102.29 87.0918C102.324 87.5555 102.261 88.0213 102.104 88.4591C101.947 88.897 101.701 89.2973 101.38 89.6344C101.06 89.9714 100.672 90.2377 100.242 90.4161C99.8123 90.5946 99.3499 90.6812 98.8846 90.6705C97.7178 90.6123 96.6148 90.1207 95.792 89.2921C95.3745 88.8853 94.8133 88.6591 94.2301 88.6627C93.1576 88.6627 92.1475 89.3025 91.9653 90.2232C91.9817 90.3107 91.9904 90.3995 91.9913 90.4885L91.8872 102.015L123.782 101.891L123.407 70.3371L111.385 70.2643Z" fill="#A8AAEC"/>
<path d="M111.234 70.3891L123.407 70.3163V67.8871L123.261 38.6068L91.9184 38.4819L91.8611 50.0037C91.8611 51.044 90.7625 51.8035 89.6015 51.8191C89.0296 51.817 88.4809 51.5932 88.0708 51.1949C87.2649 50.3658 86.1751 49.8716 85.0199 49.8112C83.005 49.8424 81.6253 51.3197 81.6565 53.39C81.6878 55.4603 82.88 56.7139 85.1396 56.8803C86.7901 57 87.597 56.0428 88.2114 55.4238C88.3959 55.2266 88.6182 55.0683 88.865 54.9584C89.1118 54.8485 89.3782 54.7892 89.6484 54.784C90.175 54.7453 90.6955 54.9169 91.0957 55.2612C91.4959 55.6054 91.7431 56.0942 91.783 56.6202L92.0381 70.2955H96.7239H103.815C104.079 70.2851 104.343 70.3269 104.591 70.4187C104.838 70.5104 105.066 70.6502 105.259 70.8301C105.453 71.0099 105.609 71.2263 105.718 71.4666C105.828 71.7069 105.889 71.9666 105.898 72.2305C105.861 72.5014 105.767 72.7615 105.623 72.9936C105.478 73.2258 105.286 73.4249 105.059 73.5778C104.629 73.9056 104.272 74.3197 104.011 74.7936C103.75 75.2675 103.591 75.7906 103.544 76.3294C103.513 78.1552 105.106 79.4505 107.387 79.4869C109.667 79.5233 111.448 78.2125 111.479 76.3659C111.479 75.1851 110.552 74.0927 109.886 73.5205C109.684 73.3658 109.521 73.1663 109.41 72.9379C109.299 72.7095 109.243 72.4584 109.245 72.2045C109.25 71.9528 109.307 71.7048 109.41 71.4755C109.514 71.2462 109.664 71.0403 109.85 70.8706C110.036 70.7008 110.255 70.5705 110.493 70.4878C110.731 70.405 110.983 70.3714 111.234 70.3891Z" fill="#455A64"/>
<g opacity="0.3">
<path d="M72.7587 54.4617C72.6825 54.2075 72.5567 53.9708 72.3886 53.7654C72.2205 53.5599 72.0134 53.3896 71.7792 53.2644C71.545 53.1392 71.2884 53.0615 71.024 53.0358C70.7596 53.01 70.4928 53.0368 70.2388 53.1145C69.9763 53.1859 69.7314 53.3111 69.5199 53.4822C69.3084 53.6532 69.1348 53.8663 69.0101 54.108C68.5832 54.8882 68.0417 56.0482 66.4069 56.3239C64.189 56.7036 62.726 55.7205 62.1689 53.6346C61.6118 51.5487 62.5646 49.7073 64.4961 49.1924C65.6379 48.9762 66.819 49.2152 67.7866 49.8582C68.275 50.159 68.8628 50.2544 69.4214 50.1235C70.5356 49.827 71.4207 48.8022 71.1395 47.7411L69.1142 39.4808L68.2395 36.0581L37.6987 43.8606L45.5396 75.747L56.8635 73.1046C57.3925 72.9882 57.8552 72.6705 58.1536 72.2189C58.452 71.7674 58.5626 71.2174 58.4619 70.6858C58.3994 70.4185 58.2802 70.1677 58.1122 69.9505C57.9442 69.7333 57.7314 69.5548 57.4883 69.427C56.6969 69.0108 55.5255 68.2098 55.2443 67.0082C54.8122 65.1512 56.0826 63.4814 58.3161 62.9561C60.5497 62.4307 62.4344 63.3566 62.8665 65.2188C63.1477 66.4152 62.4552 67.6532 61.9294 68.3814C61.7689 68.6042 61.6581 68.8588 61.6042 69.1279C61.5503 69.3971 61.5547 69.6746 61.617 69.9419C61.7281 70.377 61.9828 70.7621 62.3399 71.0348C62.6969 71.3076 63.1356 71.4521 63.585 71.4452L73.7844 68.8444L76.1793 68.2098L72.7587 54.4617Z" fill="black"/>
</g>
<g opacity="0.3">
<path d="M91.7362 38.508C93.9333 37.6029 96.2658 39.4599 98.4629 38.5548C98.7796 38.3786 99.1477 38.3179 99.5042 38.3831C99.6986 38.4725 99.8684 38.6078 99.999 38.7772C100.13 38.9466 100.217 39.1452 100.254 39.3558C100.393 39.9302 100.411 40.5274 100.305 41.1088C100.199 41.6903 99.9724 42.2431 99.6396 42.7317C98.9615 43.7082 98.0083 44.4614 96.901 44.8956C96.032 45.2969 95.0549 45.4011 94.1208 45.1921C92.5432 44.7448 91.7154 40.1673 91.7362 38.508Z" fill="black"/>
</g>
<path d="M91.3091 37.0467C91.6309 36.8682 91.8905 36.596 92.0536 36.2664C92.3088 35.5642 94.2612 35.2261 94.2612 35.2261C94.5698 35.0551 94.8899 34.9056 95.2191 34.7787C95.7398 34.5967 96.7811 35.3249 96.7811 35.3249C97.9004 34.7059 98.2441 35.0232 98.9157 35.4602C99.204 35.6147 99.4761 35.7977 99.7279 36.0063C99.7913 35.934 99.8735 35.8806 99.9654 35.8522C100.057 35.8237 100.155 35.8213 100.249 35.8451C100.551 35.8855 100.835 36.0134 101.065 36.213C101.295 36.4127 101.462 36.6754 101.545 36.9686C101.85 37.8681 102.058 38.7975 102.164 39.7411C102.133 40.5318 101.123 42.472 101.123 42.472C101.123 42.472 100.238 43.0234 99.6602 42.7685C99.0823 42.5136 99.7435 40.7347 99.7435 40.7347L99.2489 38.3263C99.2489 38.3263 98.4315 43.5852 98.0254 44.2042C97.6193 44.8232 96.3177 44.7244 96.3177 44.7244C95.0213 45.8375 94.4069 44.8648 94.4069 44.8648C94.4069 44.8648 94.2455 45.0417 93.6728 44.7868C93.1001 44.5319 92.0745 38.4823 92.0745 38.4823L90.3303 38.6956C90.341 38.3606 90.4364 38.0337 90.6075 37.7454C90.7787 37.4571 91.02 37.2167 91.3091 37.0467Z" fill="#FED7C1"/>
<path d="M97.1717 36.937C97.1499 37.04 97.1343 37.1443 97.1248 37.2491C97.1248 37.4676 97.0727 37.7693 97.0363 38.0918C96.9686 38.8044 96.8801 39.7927 96.7916 40.8799C96.7492 41.8095 96.6484 42.7355 96.4896 43.6524C96.4311 43.9281 96.3528 44.1993 96.2553 44.4639C96.2134 44.5588 96.1769 44.6561 96.146 44.7552C96.146 44.7552 96.146 44.7552 96.1929 44.6875C96.2397 44.6199 96.2553 44.5731 96.297 44.4795C96.4124 44.2193 96.5048 43.9495 96.5729 43.6732C96.7534 42.7552 96.8648 41.825 96.9061 40.8903C96.9999 39.7979 97.0727 38.8096 97.1196 38.097L97.1717 37.2491C97.1849 37.1455 97.1849 37.0406 97.1717 36.937Z" fill="#D3A28C"/>
<path d="M94.6257 36.9268C94.6021 37.0309 94.5898 37.1373 94.5892 37.2441C94.5892 37.466 94.5736 37.7521 94.5424 38.1023C94.5059 38.8254 94.4643 39.8293 94.4226 40.9373C94.381 42.0452 94.355 43.0179 94.3393 43.7722C94.3393 44.1155 94.3393 44.4068 94.3393 44.6305C94.3283 44.7359 94.3283 44.8423 94.3393 44.9478C94.363 44.8436 94.3752 44.7372 94.3758 44.6305C94.3758 44.4051 94.3914 44.119 94.4226 43.7722C94.4591 43.0492 94.5007 42.0452 94.5424 40.9373C94.584 39.8293 94.6101 38.8306 94.6257 38.1023C94.6257 37.759 94.6257 37.4677 94.6257 37.2441C94.6367 37.1386 94.6367 37.0322 94.6257 36.9268Z" fill="#D3A28C"/>
<path d="M37.6676 65.6035L21.0851 65.0781L18.9297 74.4516L36.7044 75.0966L37.6676 65.6035Z" fill="#FED7C1"/>
<path d="M13.6609 64.2771C13.6609 64.3084 14.2388 64.2355 15.1655 64.2303C16.3842 64.243 17.6011 64.3263 18.81 64.48L22.4181 64.9586C22.8814 65.0158 23.2563 65.0574 23.5166 65.0782C23.6513 65.0976 23.7881 65.0976 23.9227 65.0782C23.7941 65.0367 23.6615 65.0088 23.527 64.995L22.4337 64.8181C21.5174 64.6725 20.247 64.4592 18.8309 64.298C17.6225 64.143 16.4044 64.0769 15.1864 64.1003C14.9573 64.1003 14.7438 64.1263 14.5564 64.1419C14.369 64.1575 14.2128 64.1731 14.0826 64.1939C13.9389 64.2021 13.797 64.2301 13.6609 64.2771Z" fill="#D3A28C"/>
<path d="M71.4312 53.1717C71.3557 52.9171 71.2303 52.6802 71.0622 52.4745C70.8942 52.2689 70.6869 52.0987 70.4524 51.9738C70.2179 51.8489 69.9609 51.7718 69.6964 51.7471C69.4318 51.7224 69.165 51.7504 68.9113 51.8296C68.6493 51.9009 68.4051 52.026 68.1944 52.1971C67.9837 52.3682 67.8112 52.5815 67.6878 52.8231C67.2557 53.5982 66.7194 54.7582 65.0846 55.0391C62.8667 55.4188 61.4037 54.4357 60.8414 52.3446C60.2791 50.2535 61.2371 48.4225 63.1739 47.9075C64.3149 47.6904 65.4958 47.9275 66.4643 48.5682C66.7053 48.7193 66.9739 48.8211 67.2545 48.8675C67.5352 48.9139 67.8223 48.9041 68.0991 48.8387C69.2081 48.5422 70.0984 47.5122 69.812 46.4511L67.7816 38.1908L66.9069 34.7681L36.3608 42.5706L44.2069 74.457L55.5256 71.8093C56.0555 71.6941 56.5195 71.3769 56.819 70.9252C57.1185 70.4735 57.2298 69.9229 57.1292 69.3905C57.0667 69.1239 56.9474 68.8739 56.7794 68.6576C56.6114 68.4412 56.3986 68.2636 56.1556 68.1369C55.359 67.7156 54.1928 66.9145 53.9117 65.7181C53.4743 63.8611 54.7499 62.1862 56.9834 61.6608C59.217 61.1355 61.0965 62.0666 61.5339 63.9236C61.815 65.1252 61.1225 66.3632 60.5967 67.0914C60.4344 67.3133 60.3221 67.5677 60.2673 67.837C60.2124 68.1063 60.2165 68.3843 60.2791 68.6519C60.3927 69.0857 60.648 69.4691 61.0046 69.7414C61.3611 70.0137 61.7984 70.1594 62.2471 70.1552L72.4517 67.5543L74.8466 66.9197L71.4312 53.1717Z" fill="#A8AAEC"/>
<path d="M32.5706 68.2047L37.0845 62.1551L40.6353 59.5127L40.6717 61.3333C40.6717 61.3333 47.6952 60.6259 48.7157 60.8703C49.3352 61.0212 50.2359 62.7638 48.8614 63.1591C49.1888 63.2955 49.4808 63.5045 49.7153 63.7704C49.9499 64.0363 50.1208 64.352 50.2151 64.6936C50.4286 65.7755 49.8871 66.2853 48.6011 66.7014C48.6011 66.7014 50.0381 67.4609 49.7465 68.4024C49.6263 68.7037 49.4442 68.9766 49.212 69.2033C48.9797 69.4299 48.7024 69.6054 48.3981 69.7184C48.3981 69.7184 49.1686 71.1697 48.471 71.7107C47.2893 72.4799 45.9996 73.069 44.6442 73.4584L39.9272 74.3947L36.9752 75.2374L32.5706 68.2047Z" fill="#FED7C1"/>
<path d="M44.644 64.0955C44.644 64.1891 45.6281 64.0591 46.7943 63.8042C47.9605 63.5493 48.8769 63.284 48.8769 63.18C48.8769 63.0759 47.8928 63.2216 46.7266 63.4713C45.5604 63.7209 44.644 63.9758 44.644 64.0955Z" fill="#D3A28C"/>
<path d="M45.1648 67.4762C45.1648 67.5698 45.9562 67.4762 46.8985 67.2941C47.8409 67.1121 48.5802 66.8728 48.5646 66.7739C48.549 66.6751 47.768 66.7739 46.8308 66.956C45.8937 67.1381 45.1648 67.3877 45.1648 67.4762Z" fill="#D3A28C"/>
<path d="M45.5239 70.3373C45.5604 70.4361 46.2008 70.2437 46.9713 70.0512C47.7419 69.8587 48.3979 69.8067 48.3979 69.7079C48.3979 69.609 47.7158 69.5206 46.8932 69.7079C46.3872 69.7869 45.9132 70.0048 45.5239 70.3373Z" fill="#D3A28C"/>
<path d="M39.8387 61.6505C39.8387 61.7442 40.8019 61.6037 41.9629 61.4113C43.124 61.2188 44.0455 61.0524 44.0455 60.9535C44.0455 60.8547 43.0719 60.8807 41.9057 61.0784C40.7394 61.276 39.8179 61.5621 39.8387 61.6505Z" fill="#D3A28C"/>
</g>
<defs>
<clipPath id="clip0_3367_11283">
<rect width="149.408" height="102" fill="white" transform="translate(0.295898)"/>
</clipPath>
</defs>
</svg>
