<svg width="42" height="42" viewBox="0 0 42 42" fill="none" xmlns="http://www.w3.org/2000/svg">
<path d="M21 0C9.41684 0 0 9.41684 0 21C0 32.5832 9.41684 42 21 42C32.5832 42 42 32.5832 42 21C42 9.41684 32.5832 0 21 0ZM21 11.3179C24.6254 11.3179 27.5874 14.28 27.5874 17.9053C27.5874 21.5304 24.6253 24.4926 21 24.4926C17.3747 24.4926 14.4126 21.5304 14.4126 17.9051C14.4126 14.28 17.3747 11.3179 21 11.3179ZM9.81474 33.9979C10.3011 30.0191 13.7053 26.9241 17.8168 26.9241H24.1832C28.2947 26.9241 31.6989 30.0187 32.1853 33.9979C29.1792 36.6062 25.2886 38.1538 21.0001 38.1538C16.7116 38.1538 12.8211 36.6062 9.81482 33.9979H9.81474Z" fill="#4F52B2"/>
</svg>
