<svg width="42" height="34" viewBox="0 0 42 34" fill="none" xmlns="http://www.w3.org/2000/svg">
<path d="M40.8646 20.966C38.9174 22.1865 36.9703 23.4043 35.0231 24.6194C32.3594 26.2846 29.6723 27.9237 27.032 29.6243C25.4513 30.641 23.8285 30.8824 22.027 30.3664C18.8621 29.4598 15.6762 28.629 12.5043 27.7509C12.1386 27.6503 11.8314 27.6503 11.5229 27.8846C11.3519 27.9987 11.174 28.1019 10.9902 28.1935L6.39062 19.947C6.5612 19.844 6.72008 19.7458 6.88131 19.6511C8.62089 18.6298 10.3581 17.6037 12.1024 16.5906C13.752 15.6332 15.4332 15.3432 17.2849 16.0924C19.6456 17.065 22.0842 17.8307 24.5739 18.3812C26.1114 18.7114 26.7563 20.6157 25.859 21.9258C25.4174 22.5708 24.6721 22.8323 23.8449 22.6122C22.2537 22.1885 20.666 21.7542 19.0771 21.3269C18.5467 21.1849 18.1834 21.3577 18.0665 21.8003C17.9591 22.2075 18.1962 22.5483 18.7044 22.6879C20.319 23.1306 21.9324 23.585 23.554 24.004C24.8029 24.3271 25.8906 24.017 26.7528 23.0146C26.8155 22.9347 26.8909 22.8659 26.9759 22.811C28.8701 21.7435 30.7655 20.6784 32.662 19.6156C34.2649 18.7138 35.8386 17.7493 37.4835 16.935C38.1495 16.6048 38.9661 16.4936 39.7208 16.4687C40.8447 16.4309 41.6438 17.1232 41.9067 18.1481C42.1964 19.2842 41.798 20.379 40.8646 20.966Z" fill="#4F52B2"/>
<path d="M10.8156 30.7647C10.1021 29.4771 9.3852 28.191 8.66476 26.9066C7.27215 24.4118 5.88072 21.917 4.49045 19.4222C4.24277 18.9772 3.91799 18.6825 3.28244 18.6719C3.1193 18.7053 2.96052 18.7577 2.80928 18.8281C2.08026 19.2305 1.35359 19.64 0.640928 20.0708C-0.0168206 20.4672 -0.176877 21.0957 0.200482 21.7833C2.33923 25.6304 4.48461 29.4747 6.6366 33.3163C7.02681 34.0146 7.65068 34.1826 8.34815 33.798C9.00006 33.4429 9.64612 33.0666 10.2898 32.6914C11.1182 32.2097 11.2829 31.6062 10.8156 30.7647ZM2.87821 22.3797C2.6729 22.3767 2.47686 22.2926 2.33178 22.1454C2.1867 21.9982 2.10401 21.7995 2.10129 21.5915C2.09804 21.38 2.17788 21.1758 2.32325 21.0239C2.46862 20.8719 2.66762 20.7847 2.87645 20.7814C3.08529 20.7781 3.28687 20.859 3.43684 21.0063C3.58682 21.1535 3.6729 21.3551 3.67615 21.5667C3.67692 21.6733 3.65684 21.779 3.61707 21.8776C3.5773 21.9763 3.51863 22.0661 3.44444 22.1417C3.37026 22.2172 3.28202 22.2772 3.18483 22.3181C3.08765 22.3589 2.98343 22.3799 2.87821 22.3797Z" fill="#4F52B2"/>
<path d="M30.1418 14.1499C28.248 14.1499 26.3542 14.1499 24.4604 14.1499C22.5958 14.1499 20.7308 14.1499 18.8654 14.1499C18.0932 14.1499 17.8759 13.8516 18.0804 13.0848C18.4662 11.6601 19.3072 10.4051 20.4719 9.51591C21.6365 8.62676 23.0592 8.15358 24.5175 8.17035C25.9757 8.18712 27.3874 8.69289 28.5318 9.60859C29.6763 10.5243 30.4889 11.7983 30.8428 13.2315C30.9853 13.8221 30.7458 14.1487 30.1418 14.1499Z" fill="#4F52B2"/>
<path d="M18.4236 9.50085C17.423 10.6735 16.7648 12.1054 16.5228 13.6359H15.0519C12.7808 13.6359 10.5092 13.6359 8.23729 13.6359C7.4779 13.6359 7.25826 13.3507 7.44636 12.6229C8.68124 7.85936 14.5472 6.05928 18.1841 9.32688C18.261 9.38897 18.3409 9.44704 18.4236 9.50085Z" fill="#4F52B2"/>
<path d="M40.7218 13.6359C38.0557 13.6359 35.3893 13.6359 32.7225 13.6359C32.5064 13.6359 32.3381 13.6359 32.2879 13.3459C32.0562 12.0158 31.4864 10.7697 30.6348 9.73037C30.5904 9.67475 30.5553 9.61203 30.5039 9.53273C33.0391 6.87936 37.5604 7.09357 40.0161 9.94577C40.6926 10.7272 41.1791 11.6582 41.4368 12.6642C41.6085 13.3211 41.3807 13.6347 40.7218 13.6359Z" fill="#4F52B2"/>
<path d="M17.1561 3.39858C17.1519 4.06578 16.9526 4.71676 16.5834 5.26929C16.2142 5.82182 15.6916 6.25111 15.0817 6.50292C14.4717 6.75474 13.8018 6.81778 13.1565 6.68409C12.5112 6.5504 11.9195 6.22597 11.4562 5.75179C10.9928 5.27761 10.6786 4.67495 10.5531 4.01995C10.4277 3.36494 10.4968 2.68697 10.7515 2.07169C11.0063 1.45641 11.4354 0.93142 11.9845 0.56304C12.5337 0.19466 13.1783 -0.000582102 13.8369 0.00197798C14.7212 0.00823542 15.567 0.369191 16.1891 1.0058C16.8111 1.64242 17.1589 2.50281 17.1561 3.39858Z" fill="#4F52B2"/>
<path d="M38.3927 3.44622C38.3722 4.34308 38.0035 5.19561 37.3667 5.819C36.7299 6.4424 35.8762 6.78644 34.9906 6.77655C33.1529 6.73867 31.6575 5.16819 31.7124 3.32551C31.765 1.43785 33.2814 -0.0462376 35.1086 0.00110171C35.9944 0.0191453 36.837 0.391664 37.4524 1.03723C38.0678 1.68279 38.4058 2.5489 38.3927 3.44622Z" fill="#4F52B2"/>
<path d="M27.7694 3.88902C27.7694 4.33305 27.683 4.77273 27.5153 5.18296C27.3476 5.59319 27.1017 5.96593 26.7917 6.2799C26.4818 6.59388 26.1138 6.84294 25.7089 7.01286C25.3039 7.18278 24.8699 7.27024 24.4316 7.27024C23.9932 7.27024 23.5592 7.18278 23.1542 7.01286C22.7493 6.84294 22.3813 6.59388 22.0714 6.2799C21.7614 5.96593 21.5156 5.59319 21.3478 5.18296C21.1801 4.77273 21.0937 4.33305 21.0938 3.88902C21.0938 2.99227 21.4454 2.13225 22.0714 1.49815C22.6973 0.864046 23.5463 0.507813 24.4316 0.507812C25.3168 0.507813 26.1658 0.864046 26.7917 1.49815C27.4177 2.13225 27.7694 2.99227 27.7694 3.88902Z" fill="#4F52B2"/>
<path d="M2.10156 21.5906C2.10557 21.3839 2.1886 21.1869 2.33317 21.0411C2.47774 20.8952 2.67255 20.8119 2.87656 20.8087C3.08058 20.8055 3.27786 20.8826 3.42685 21.0238C3.57583 21.165 3.66489 21.3593 3.67525 21.5657C3.67602 21.6723 3.65594 21.778 3.61618 21.8767C3.57641 21.9754 3.51773 22.0651 3.44355 22.1407C3.36936 22.2163 3.28112 22.2763 3.18394 22.3171C3.08675 22.358 2.98253 22.379 2.87731 22.3788C2.6722 22.3754 2.47646 22.2912 2.33163 22.1441C2.1868 21.9969 2.10427 21.7984 2.10156 21.5906Z" fill="white"/>
</svg>
