<svg width="29" height="28" viewBox="0 0 29 28" fill="none" xmlns="http://www.w3.org/2000/svg">
<path d="M25.6366 21.6077L23.7338 22.0608C23.3071 22.1654 22.9727 22.4907 22.8804 22.9207L22.4768 24.6287C22.2577 25.5583 21.0814 25.8487 20.4702 25.1167L17.0221 21.1197C16.9579 21.0452 16.9136 20.9556 16.8934 20.8591C16.8732 20.7626 16.8777 20.6625 16.9066 20.5683C16.9354 20.4741 16.9877 20.3889 17.0583 20.3207C17.129 20.2524 17.2157 20.2035 17.3104 20.1785C19.3575 19.6771 21.1895 18.5239 22.5345 16.8902C22.7536 16.623 23.1457 16.5881 23.3878 16.8321L25.948 19.4116C26.8244 20.2947 26.5131 21.3985 25.6366 21.6077ZM4.24447 21.6077L6.14728 22.0608C6.57397 22.1654 6.9084 22.4907 7.00066 22.9207L7.40428 24.6287C7.62339 25.5583 8.79967 25.8487 9.41088 25.1167L12.859 21.1197C13.1358 20.7943 12.9858 20.2831 12.5707 20.1785C10.5236 19.6771 8.69162 18.5239 7.34662 16.8902C7.29682 16.8263 7.23425 16.7736 7.16295 16.7357C7.09166 16.6977 7.01323 16.6752 6.93277 16.6697C6.85231 16.6643 6.7716 16.6759 6.69588 16.7039C6.62016 16.7318 6.55112 16.7755 6.49324 16.8321L3.93311 19.4116C3.05666 20.2947 3.36803 21.3985 4.24447 21.6077ZM14.9694 2.47058C10.5064 2.47058 6.89687 6.10744 6.89687 10.6041C6.89687 12.2889 7.39275 13.8343 8.24613 15.1241C8.87146 16.0638 9.68488 16.8614 10.6342 17.4657C11.5835 18.07 12.6477 18.4676 13.7585 18.6331C14.1506 18.7028 14.5542 18.7377 14.9694 18.7377C15.3845 18.7377 15.7882 18.7028 16.1803 18.6331C18.4751 18.2962 20.4471 16.9832 21.6926 15.1241C22.5779 13.7859 23.0477 12.2124 23.0419 10.6041C23.0419 6.10744 19.4323 2.47058 14.9694 2.47058ZM18.4982 10.3485L17.541 11.3129C17.3796 11.4756 17.2873 11.7893 17.345 12.0217L17.6218 13.2185C17.8409 14.1597 17.345 14.5315 16.5147 14.0318L15.3615 13.3463C15.2444 13.2833 15.1137 13.2504 14.9809 13.2504C14.8482 13.2504 14.7175 13.2833 14.6003 13.3463L13.4471 14.0318C12.6168 14.5199 12.1209 14.1597 12.34 13.2185L12.6168 12.0217C12.6629 11.8009 12.5822 11.4756 12.4208 11.3129L11.4405 10.3485C10.8755 9.77916 11.06 9.20981 11.8442 9.082L13.0781 8.87285C13.2857 8.83799 13.5279 8.65208 13.6201 8.46617L14.3005 7.09509C14.6695 6.35145 15.2692 6.35145 15.6382 7.09509L16.3186 8.46617C16.4109 8.65208 16.6531 8.83799 16.8722 8.87285L18.1061 9.082C18.8788 9.20981 19.0633 9.77916 18.4982 10.3485Z" fill="#13DE69"/>
<circle cx="14.9406" cy="10.7059" r="8.23529" fill="#1ABD5F"/>
<path d="M13.5777 7.86821C13.8771 6.9469 15.1805 6.9469 15.4798 7.86821L15.5061 7.94897C15.64 8.36099 16.0239 8.63995 16.4571 8.63995H16.542C17.5108 8.63995 17.9135 9.87957 17.1298 10.449L17.0611 10.4989C16.7107 10.7535 16.564 11.2049 16.6979 11.6169L16.7241 11.6977C17.0235 12.619 15.969 13.3851 15.1853 12.8157L15.1166 12.7658C14.7661 12.5112 14.2915 12.5112 13.941 12.7658L13.8723 12.8157C13.0886 13.3851 12.0341 12.619 12.3335 11.6977L12.3597 11.6169C12.4936 11.2049 12.3469 10.7535 11.9964 10.4989L11.9277 10.449C11.144 9.87957 11.5468 8.63995 12.5155 8.63995H12.6004C13.0337 8.63995 13.4176 8.36099 13.5515 7.94897L13.5777 7.86821Z" fill="#D8FFE9"/>
</svg>
