<svg width="24" height="29" viewBox="0 0 24 29" fill="none" xmlns="http://www.w3.org/2000/svg">
<path d="M-0.000328741 9.4V5.9C-0.000328741 3.198 2.21175 0.999999 4.93106 0.999999L19.0208 0.999999C21.7401 0.999999 23.9521 3.198 23.9521 5.9V6.81C23.9521 9.008 22.1487 10.8 19.9366 10.8L1.40864 10.8C0.633707 10.8 -0.000328741 10.17 -0.000328741 9.4ZM7.04452 29L16.9073 29C22.5432 29 23.9521 27.6 23.9521 22L23.9521 11.388C22.8813 12.326 21.4724 12.9 19.9366 12.9L1.40864 12.9C0.633707 12.9 -0.000328741 13.53 -0.000328741 14.3L-0.000328741 22C-0.000328741 27.6 1.40864 29 7.04452 29ZM10.5669 16.75H17.6118C18.1895 16.75 18.6685 17.226 18.6685 17.8C18.6685 18.374 18.1895 18.85 17.6118 18.85H10.5669C9.98926 18.85 9.51021 18.374 9.51021 17.8C9.51021 17.226 9.98926 16.75 10.5669 16.75ZM6.34003 21.65H17.6118C18.1895 21.65 18.6685 22.126 18.6685 22.7C18.6685 23.274 18.1895 23.75 17.6118 23.75H6.34003C5.76236 23.75 5.28331 23.274 5.28331 22.7C5.28331 22.126 5.76236 21.65 6.34003 21.65Z" fill="#FF763B"/>
<path d="M0.000488281 5C0.000488281 2.23858 2.23906 0 5.00049 0H18.953C21.7144 0 23.953 2.23858 23.953 5V8C23.953 9.65685 22.6098 11 20.953 11H1.00049C0.448204 11 0.000488281 10.5523 0.000488281 10V5Z" fill="#E26129"/>
</svg>
