<svg width="28" height="29" viewBox="0 0 28 29" fill="none" xmlns="http://www.w3.org/2000/svg">
<g clip-path="url(#clip0_220_4788)">
<path d="M21.2915 13.333H19.4132C19.2732 13.473 19.1215 13.5897 18.9582 13.6947C18.9582 13.6947 18.9582 14.9897 18.9348 15.083H21.2915C21.4548 15.083 21.5832 15.2113 21.5832 15.3747V22.6663H6.4165V15.3747C6.4165 15.2113 6.54484 15.083 6.70817 15.083H8.10817C8.35317 14.698 8.66817 14.383 9.0415 14.138V13.333H6.70817C5.58817 13.333 4.6665 14.2547 4.6665 15.3747V23.5413C4.6665 24.6613 5.58817 25.583 6.70817 25.583H11.0365C10.8148 26.0963 10.5348 26.633 10.1732 27.0063C9.6365 27.5197 9.9865 28.4997 10.7915 28.4997H17.2082C18.0132 28.4997 18.3632 27.5197 17.8265 27.0063C17.4648 26.6447 17.1848 26.0963 16.9632 25.583H21.2915C22.4115 25.583 23.3332 24.6613 23.3332 23.5413V15.3747C23.3332 14.2547 22.4115 13.333 21.2915 13.333Z" fill="#2D9596"/>
<path d="M28 12.085C28 14.15 27.1017 16.005 25.6667 17.3V15.375C25.6667 12.96 23.7067 11 21.2917 11H20.4167C20.4167 9.39817 19.4763 8.74133 18.0133 7.27833C16.8117 6.065 14.6883 6.065 13.4867 7.27833C12.2278 8.52667 11.585 8.96883 11.2467 10.0083C10.675 10.2067 10.1617 10.545 9.8 11H6.70833C4.29333 11 2.33333 12.96 2.33333 15.375V17.8833C0.921667 16.7983 0 15.1183 0 13.2167C0 10.1483 2.35667 7.61667 5.36667 7.30167C6.27667 3.38167 9.87 0.5 14 0.5C17.255 0.5 20.2533 2.285 21.7817 5.085C25.305 5.52833 28 8.515 28 12.085Z" fill="#2D9596"/>
<path d="M17.8269 10.3817L16.3685 8.92337C16.0267 8.58153 15.4725 8.58153 15.1307 8.92337L13.6724 10.3817C13.1229 10.93 13.5114 11.875 14.2907 11.875H14.874V14.7917C14.874 15.2747 15.266 15.6667 15.749 15.6667C16.232 15.6667 16.624 15.2747 16.624 14.7917V11.875H17.2074C17.989 11.875 18.3775 10.93 17.8269 10.3817Z" fill="#2D9596"/>
<path d="M13.7081 15.9587H13.1248V13.042C13.1248 12.559 12.7328 12.167 12.2498 12.167C11.7668 12.167 11.3748 12.559 11.3748 13.042V15.9587H10.7915C10.011 15.9587 9.62246 16.9037 10.1731 17.452L11.6315 18.9103C11.8018 19.0818 12.0258 19.167 12.2498 19.167C12.4738 19.167 12.6978 19.0818 12.8681 18.9103L14.3265 17.452C14.8771 16.9037 14.4886 15.9587 13.7081 15.9587Z" fill="#2D9596"/>
</g>
<defs>
<clipPath id="clip0_220_4788">
<rect width="28" height="28" fill="white" transform="translate(0 0.5)"/>
</clipPath>
</defs>
</svg>
