<svg width="30" height="29" viewBox="0 0 30 29" fill="none" xmlns="http://www.w3.org/2000/svg">
<g clip-path="url(#clip0_220_4798)">
<g clip-path="url(#clip1_220_4798)">
<path d="M20.7137 15.949C19.2637 18.9343 16.1931 21.0666 12.6107 21.0666C7.74898 21.0666 3.65486 17.0578 3.65486 12.1107C3.65486 7.24898 7.57839 3.15486 12.6107 3.15486C14.999 3.15486 17.3019 4.0931 19.0078 5.79898C20.0313 6.82251 20.7137 8.01663 21.1402 9.29604L23.1019 7.33427C22.5049 6.05486 21.7372 4.94604 20.7137 3.92251C18.496 1.79015 15.596 0.510742 12.5254 0.510742C6.21368 0.596036 1.01074 5.79898 1.01074 12.1107C1.01074 18.5078 6.21368 23.6255 12.5254 23.6255C18.496 23.6255 23.2725 19.1049 23.9549 13.5607C22.6755 14.7549 22.1637 15.949 20.7137 15.949Z" fill="#2D9596"/>
<path d="M27.9637 27.4637C26.6843 28.7431 24.5519 28.7431 23.1872 27.4637L19.2637 23.5401C20.2019 22.9431 21.1401 22.2607 21.9078 21.4931C22.7607 20.6401 23.4431 19.7872 24.0401 18.7637L27.9637 22.6872C29.2431 23.9666 29.3284 26.099 27.9637 27.4637Z" fill="#2D9596"/>
<path d="M27.1959 8.01641L25.5753 9.637L21.1401 13.987C20.7989 14.3282 20.2871 14.3282 19.9459 13.987L17.1312 11.1723L12.6959 15.6076C12.3548 15.9488 11.843 15.9488 11.5018 15.6076L9.54005 13.6458L6.72534 16.4605C6.38417 16.0341 6.04299 15.437 5.78711 14.9252L8.94299 11.9399C9.28417 11.5988 9.79593 11.5988 10.1371 11.9399L12.0989 13.9017L16.5342 9.46641C16.8753 9.12523 17.3871 9.12523 17.7283 9.46641L19.7753 11.5135L20.543 12.2811L25.0636 7.76052L26.0018 6.82229C26.343 6.48111 26.8548 6.48111 27.1959 6.82229C27.5371 7.16347 27.5371 7.67523 27.1959 8.01641Z" fill="#2D9596"/>
</g>
</g>
<defs>
<clipPath id="clip0_220_4798">
<rect width="29" height="29" fill="white" transform="translate(0.5)"/>
</clipPath>
<clipPath id="clip1_220_4798">
<rect width="29" height="29" fill="white" transform="translate(0.499023 -0.000976562)"/>
</clipPath>
</defs>
</svg>
