<svg width="18" height="18" viewBox="0 0 18 18" fill="none" xmlns="http://www.w3.org/2000/svg">
<path d="M0.797862 0.64646L0.881415 0.546454C1.13207 0.295796 1.52117 0.267944 1.80259 0.462901L1.9026 0.546454L9.33492 7.97894L16.7672 0.546454C17.0179 0.295796 17.407 0.267944 17.6884 0.462901L17.7884 0.546454C18.0391 0.797113 18.0669 1.18621 17.872 1.46763L17.7884 1.56763L10.3559 8.99996L17.7884 16.4323C18.0391 16.6829 18.0669 17.072 17.872 17.3535L17.7884 17.4535C17.5378 17.7041 17.1487 17.732 16.8673 17.537L16.7672 17.4535L9.33492 10.021L1.9026 17.4535C1.65194 17.7041 1.26284 17.732 0.981421 17.537L0.881415 17.4535C0.630757 17.2028 0.602905 16.8137 0.797862 16.5323L0.881415 16.4323L8.3139 8.99996L0.881415 1.56763C0.630757 1.31698 0.602905 0.927882 0.797862 0.64646L0.881415 0.546454L0.797862 0.64646Z" fill="#424242"/>
</svg>
