<svg width="16" height="16" viewBox="0 0 16 16" fill="none" xmlns="http://www.w3.org/2000/svg">
<path d="M2.7417 2.34723C2.7417 1.98441 3.03617 1.68994 3.39899 1.68994H12.6011C12.9639 1.68994 13.2584 1.98441 13.2584 2.34723V4.18765C13.2584 4.36197 13.1891 4.52916 13.0659 4.65242C12.9426 4.77569 12.7754 4.84494 12.6011 4.84494C12.4268 4.84494 12.2596 4.77569 12.1363 4.65242C12.013 4.52916 11.9438 4.36197 11.9438 4.18765V3.00452H8.65733V12.9954H9.44608C9.6204 12.9954 9.78759 13.0646 9.91085 13.1879C10.0341 13.3111 10.1034 13.4783 10.1034 13.6526C10.1034 13.827 10.0341 13.9942 9.91085 14.1174C9.78759 14.2407 9.6204 14.3099 9.44608 14.3099H6.55399C6.37967 14.3099 6.21248 14.2407 6.08922 14.1174C5.96595 13.9942 5.8967 13.827 5.8967 13.6526C5.8967 13.4783 5.96595 13.3111 6.08922 13.1879C6.21248 13.0646 6.37967 12.9954 6.55399 12.9954H7.34274V3.00452H4.05628V4.18765C4.05628 4.36197 3.98703 4.52916 3.86377 4.65242C3.7405 4.77569 3.57332 4.84494 3.39899 4.84494C3.22467 4.84494 3.05748 4.77569 2.93422 4.65242C2.81095 4.52916 2.7417 4.36197 2.7417 4.18765V2.34723Z" fill="#424242"/>
</svg>
