<svg width="30" height="31" viewBox="0 0 30 31" fill="none" xmlns="http://www.w3.org/2000/svg">
<path fill-rule="evenodd" clip-rule="evenodd" d="M6.98739 4.83669C7.35374 4.47079 7.94733 4.47115 8.31322 4.83749L16.9549 13.4898L16.9624 10.0604C16.9635 9.54268 17.3842 9.12386 17.9019 9.125C18.4198 9.12614 18.8385 9.5468 18.8374 10.0646L18.8249 15.752C18.824 16.131 18.5953 16.4721 18.2449 16.6166C17.8947 16.7611 17.4919 16.6806 17.224 16.4125L6.98659 6.16251C6.62069 5.79616 6.62105 5.20258 6.98739 4.83669Z" fill="#2D9596"/>
<path fill-rule="evenodd" clip-rule="evenodd" d="M11.755 14.3834C12.1053 14.2389 12.5081 14.3194 12.776 14.5875L23.0135 24.8375C23.3793 25.2039 23.379 25.7974 23.0126 26.1634C22.6462 26.5293 22.0527 26.5289 21.6867 26.1625L13.0451 17.5103L13.0376 20.9395C13.0365 21.4574 12.6158 21.8761 12.098 21.875C11.5803 21.8739 11.1615 21.4533 11.1626 20.9355L11.1751 15.248C11.1759 14.869 11.4048 14.5279 11.755 14.3834Z" fill="#2D9596"/>
<path fill-rule="evenodd" clip-rule="evenodd" d="M15 3.9375C8.61776 3.9375 3.4375 9.11776 3.4375 15.5C3.4375 21.8822 8.61776 27.0625 15 27.0625C21.3822 27.0625 26.5625 21.8822 26.5625 15.5C26.5625 12.8989 25.696 10.4943 24.2495 8.56177C23.9392 8.14727 24.0237 7.55972 24.4382 7.24946C24.8527 6.9392 25.4402 7.02371 25.7505 7.43822C27.429 9.68065 28.4375 12.4761 28.4375 15.5C28.4375 22.9177 22.4177 28.9375 15 28.9375C7.58224 28.9375 1.5625 22.9177 1.5625 15.5C1.5625 8.08224 7.58224 2.0625 15 2.0625C16.9189 2.0625 18.7617 2.46511 20.4202 3.20666C20.8929 3.41801 21.1047 3.97252 20.8934 4.44519C20.682 4.91785 20.1275 5.12969 19.6547 4.91834C18.2382 4.28489 16.6561 3.9375 15 3.9375Z" fill="#2D9596"/>
</svg>
