<svg width="62" height="45" viewBox="0 0 62 45" fill="none" xmlns="http://www.w3.org/2000/svg">
<path d="M61.682 22.4957C61.6948 27.3667 60.1145 32.1084 57.1821 35.9978C57.0206 36.2127 56.8184 36.3937 56.5869 36.5304C56.3555 36.6671 56.0994 36.7569 55.8332 36.7947C55.5671 36.8324 55.2961 36.8174 55.0358 36.7504C54.7755 36.6834 54.5309 36.5658 54.316 36.4044C54.1011 36.2429 53.9201 36.0406 53.7834 35.8092C53.6467 35.5777 53.5569 35.3216 53.5191 35.0555C53.4814 34.7893 53.4964 34.5184 53.5634 34.258C53.6304 33.9977 53.748 33.7531 53.9095 33.5382C56.3098 30.3583 57.6029 26.4798 57.5912 22.4957C57.5912 17.6134 55.6517 12.9311 52.1994 9.47886C48.7472 6.02659 44.0649 4.08713 39.1826 4.08713C34.3004 4.08713 29.6181 6.02659 26.1658 9.47886C22.7136 12.9311 20.7741 17.6134 20.7741 22.4957C20.7741 23.0381 20.5586 23.5584 20.175 23.942C19.7914 24.3256 19.2712 24.5411 18.7287 24.5411C18.1862 24.5411 17.666 24.3256 17.2824 23.942C16.8988 23.5584 16.6833 23.0381 16.6833 22.4957C16.6823 20.4316 16.9654 18.3771 17.5245 16.3902C17.2458 16.3595 16.9646 16.3595 16.6833 16.3595C13.4285 16.3595 10.307 17.6525 8.00544 19.954C5.70393 22.2555 4.41095 25.377 4.41095 28.6319C4.41095 31.8867 5.70393 35.0082 8.00544 37.3097C10.307 39.6112 13.4285 40.9042 16.6833 40.9042H22.8195C23.362 40.9042 23.8822 41.1197 24.2658 41.5033C24.6494 41.8869 24.8649 42.4071 24.8649 42.9496C24.8649 43.4921 24.6494 44.0123 24.2658 44.3959C23.8822 44.7795 23.362 44.995 22.8195 44.995H16.6833C14.4338 44.9955 12.2084 44.5322 10.146 43.634C8.08362 42.7359 6.22857 41.4221 4.69673 39.7748C3.16488 38.1275 1.98914 36.182 1.24294 34.0599C0.496734 31.9378 0.196093 29.6846 0.359793 27.4411C0.523493 25.1975 1.14802 23.0119 2.19436 21.0206C3.24071 19.0292 4.68639 17.2751 6.44114 15.8676C8.19588 14.46 10.222 13.4295 12.3929 12.8402C14.5638 12.2509 16.8329 12.1155 19.0585 12.4426C21.3248 7.90986 25.055 4.27498 29.6448 2.1267C34.2346 -0.021587 39.4152 -0.557459 44.3476 0.60588C49.2799 1.76922 53.6751 4.56363 56.8212 8.5365C59.9673 12.5094 61.68 17.428 61.682 22.4957ZM38.5844 21.0486C38.3944 20.8584 38.1688 20.7075 37.9205 20.6046C37.6722 20.5016 37.406 20.4487 37.1372 20.4487C36.8684 20.4487 36.6023 20.5016 36.354 20.6046C36.1057 20.7075 35.8801 20.8584 35.6901 21.0486L27.5086 29.2301C27.3185 29.4202 27.1678 29.6458 27.0649 29.8941C26.9621 30.1424 26.9091 30.4085 26.9091 30.6772C26.9091 30.946 26.9621 31.2121 27.0649 31.4604C27.1678 31.7087 27.3185 31.9343 27.5086 32.1244C27.8923 32.5082 28.4129 32.7238 28.9557 32.7238C29.2244 32.7238 29.4905 32.6708 29.7388 32.568C29.9871 32.4651 30.2127 32.3144 30.4028 32.1244L35.0918 27.4327V42.9496C35.0918 43.4921 35.3073 44.0123 35.6909 44.3959C36.0745 44.7795 36.5948 44.995 37.1372 44.995C37.6797 44.995 38.2 44.7795 38.5836 44.3959C38.9671 44.0123 39.1826 43.4921 39.1826 42.9496V27.4327L43.8717 32.1244C44.0617 32.3144 44.2873 32.4651 44.5356 32.568C44.7839 32.6708 45.0501 32.7238 45.3188 32.7238C45.5876 32.7238 45.8537 32.6708 46.102 32.568C46.3503 32.4651 46.5759 32.3144 46.7659 32.1244C46.956 31.9343 47.1067 31.7087 47.2096 31.4604C47.3124 31.2121 47.3653 30.946 47.3653 30.6772C47.3653 30.4085 47.3124 30.1424 47.2096 29.8941C47.1067 29.6458 46.956 29.4202 46.7659 29.2301L38.5844 21.0486Z" fill="#2D9596"/>
</svg>
