<svg width="24" height="23" viewBox="0 0 24 23" fill="none" xmlns="http://www.w3.org/2000/svg">
<mask id="path-1-inside-1_403_3627" fill="white">
<path d="M9.29167 11.0833H1.375C1.04167 11.0833 0.75 10.7917 0.75 10.4583V2.54166C0.75 2.20832 1.04167 1.91666 1.375 1.91666H9.29167C9.625 1.91666 9.91667 2.20832 9.91667 2.54166V10.4583C9.91667 10.7917 9.66667 11.0833 9.29167 11.0833ZM2 9.83332H8.66667V3.16666H2V9.83332Z"/>
</mask>
<path d="M9.29167 11.0833H1.375C1.04167 11.0833 0.75 10.7917 0.75 10.4583V2.54166C0.75 2.20832 1.04167 1.91666 1.375 1.91666H9.29167C9.625 1.91666 9.91667 2.20832 9.91667 2.54166V10.4583C9.91667 10.7917 9.66667 11.0833 9.29167 11.0833ZM2 9.83332H8.66667V3.16666H2V9.83332Z" fill="#2D9596"/>
<path d="M2 9.83332H-34V45.8333H2V9.83332ZM8.66667 9.83332V45.8333H44.6667V9.83332H8.66667ZM8.66667 3.16666H44.6667V-32.8333H8.66667V3.16666ZM2 3.16666V-32.8333H-34V3.16666H2ZM9.29167 -24.9167H1.375V47.0833H9.29167V-24.9167ZM1.375 -24.9167C20.9239 -24.9167 36.75 -9.09059 36.75 10.4583H-35.25C-35.25 30.6739 -18.8406 47.0833 1.375 47.0833V-24.9167ZM36.75 10.4583V2.54166H-35.25V10.4583H36.75ZM36.75 2.54166C36.75 22.0906 20.9239 37.9167 1.375 37.9167V-34.0833C-18.8406 -34.0833 -35.25 -17.6739 -35.25 2.54166H36.75ZM1.375 37.9167H9.29167V-34.0833H1.375V37.9167ZM9.29167 37.9167C-10.2573 37.9167 -26.0833 22.0906 -26.0833 2.54166H45.9167C45.9167 -17.6739 29.5073 -34.0833 9.29167 -34.0833V37.9167ZM-26.0833 2.54166V10.4583H45.9167V2.54166H-26.0833ZM-26.0833 10.4583C-26.0833 -7.49402 -11.7755 -24.9167 9.29167 -24.9167V47.0833C31.1088 47.0833 45.9167 29.0773 45.9167 10.4583H-26.0833ZM2 45.8333H8.66667V-26.1667H2V45.8333ZM44.6667 9.83332V3.16666H-27.3333V9.83332H44.6667ZM8.66667 -32.8333H2V39.1667H8.66667V-32.8333ZM-34 3.16666V9.83332H38V3.16666H-34Z" fill="#2D9596" mask="url(#path-1-inside-1_403_3627)"/>
<mask id="path-3-inside-2_403_3627" fill="white">
<path d="M17.0007 12.7083C16.834 12.7083 16.6673 12.6667 16.5423 12.5417L10.959 6.91666C10.709 6.66666 10.709 6.29166 10.959 6.04166L16.584 0.458328C16.834 0.208328 17.209 0.208328 17.459 0.458328L23.0423 6.04166C23.1673 6.16666 23.209 6.33333 23.209 6.49999C23.209 6.66666 23.1257 6.83333 23.0423 6.95833L17.459 12.5417C17.334 12.6667 17.1673 12.7083 17.0007 12.7083ZM12.2923 6.49999L17.0007 11.2083L21.709 6.49999L17.0007 1.75L12.2923 6.49999Z"/>
</mask>
<path d="M17.0007 12.7083C16.834 12.7083 16.6673 12.6667 16.5423 12.5417L10.959 6.91666C10.709 6.66666 10.709 6.29166 10.959 6.04166L16.584 0.458328C16.834 0.208328 17.209 0.208328 17.459 0.458328L23.0423 6.04166C23.1673 6.16666 23.209 6.33333 23.209 6.49999C23.209 6.66666 23.1257 6.83333 23.0423 6.95833L17.459 12.5417C17.334 12.6667 17.1673 12.7083 17.0007 12.7083ZM12.2923 6.49999L17.0007 11.2083L21.709 6.49999L17.0007 1.75L12.2923 6.49999Z" fill="#2D9596"/>
<path d="M16.5423 12.5417L-9.00798 37.9027L-8.96084 37.9502L-8.91353 37.9975L16.5423 12.5417ZM10.959 6.91666L36.5093 -18.4444L36.4621 -18.4919L36.4148 -18.5392L10.959 6.91666ZM10.959 6.04166L-14.4021 -19.5086L-14.4495 -19.4615L-14.4969 -19.4142L10.959 6.04166ZM16.584 0.458328L41.945 26.0086L41.9925 25.9615L42.0398 25.9142L16.584 0.458328ZM17.459 0.458328L-7.99686 25.9142L-7.99686 25.9142L17.459 0.458328ZM23.0423 6.04166L48.4982 -19.4142L48.4982 -19.4142L23.0423 6.04166ZM23.0423 6.95833L48.4982 32.4142L51.0188 29.8935L52.9961 26.9275L23.0423 6.95833ZM17.459 12.5417L-7.99686 -12.9142L-7.99686 -12.9142L17.459 12.5417ZM12.2923 6.49999L-13.2754 -18.8435L-38.5075 6.61189L-13.1635 31.9558L12.2923 6.49999ZM17.0007 11.2083L-8.45519 36.6642L17.0006 62.12L42.4565 36.6642L17.0007 11.2083ZM21.709 6.49999L47.1648 31.9558L72.5088 6.61189L47.2767 -18.8435L21.709 6.49999ZM17.0007 1.75L42.5684 -23.5935L17.0006 -49.3875L-8.56709 -23.5935L17.0007 1.75ZM17.0007 -23.2917C22.3833 -23.2917 32.9908 -21.9216 41.9982 -12.9142L-8.91353 37.9975C0.343871 47.2549 11.2846 48.7083 17.0007 48.7083V-23.2917ZM42.0926 -12.8194L36.5093 -18.4444L-14.5913 32.2777L-9.00798 37.9027L42.0926 -12.8194ZM36.4148 -18.5392C50.2237 -4.73031 50.2237 17.6886 36.4148 31.4975L-14.4969 -19.4142C-28.8057 -5.10531 -28.8057 18.0636 -14.4969 32.3725L36.4148 -18.5392ZM36.32 31.592L41.945 26.0086L-8.77705 -25.092L-14.4021 -19.5086L36.32 31.592ZM42.0398 25.9142C28.231 39.723 5.81201 39.723 -7.99686 25.9142L42.9148 -24.9975C28.606 -39.3064 5.43701 -39.3064 -8.87186 -24.9975L42.0398 25.9142ZM-7.99686 25.9142L-2.41352 31.4975L48.4982 -19.4142L42.9148 -24.9975L-7.99686 25.9142ZM-2.41353 31.4975C-11.4209 22.4901 -12.791 11.8826 -12.791 6.49999H59.209C59.209 0.784015 57.7556 -10.1568 48.4982 -19.4142L-2.41353 31.4975ZM-12.791 6.49999C-12.791 0.717028 -11.3841 -3.83577 -10.2682 -6.62532C-9.12303 -9.48834 -7.81896 -11.6497 -6.91149 -13.0109L52.9961 26.9275C54.2748 25.0096 59.209 17.4876 59.209 6.49999H-12.791ZM-2.41352 -18.4975L-7.99686 -12.9142L42.9148 37.9975L48.4982 32.4142L-2.41352 -18.4975ZM-7.99686 -12.9142C1.01055 -21.9216 11.618 -23.2917 17.0007 -23.2917V48.7083C22.7167 48.7083 33.6574 47.2549 42.9148 37.9975L-7.99686 -12.9142ZM-13.1635 31.9558L-8.45519 36.6642L42.4565 -14.2475L37.7482 -18.9558L-13.1635 31.9558ZM42.4565 36.6642L47.1648 31.9558L-3.74686 -18.9558L-8.45519 -14.2475L42.4565 36.6642ZM47.2767 -18.8435L42.5684 -23.5935L-8.56708 27.0935L-3.85875 31.8435L47.2767 -18.8435ZM-8.56709 -23.5935L-13.2754 -18.8435L37.8601 31.8435L42.5684 27.0935L-8.56709 -23.5935Z" fill="#2D9596" mask="url(#path-3-inside-2_403_3627)"/>
<mask id="path-5-inside-3_403_3627" fill="white">
<path d="M9.29167 22.75H1.375C1.04167 22.75 0.75 22.4583 0.75 22.125V14.2083C0.75 13.875 1.04167 13.5833 1.375 13.5833H9.29167C9.625 13.5833 9.91667 13.875 9.91667 14.2083V22.125C9.91667 22.4583 9.66667 22.75 9.29167 22.75ZM2 21.5H8.66667V14.8333H2V21.5Z"/>
</mask>
<path d="M9.29167 22.75H1.375C1.04167 22.75 0.75 22.4583 0.75 22.125V14.2083C0.75 13.875 1.04167 13.5833 1.375 13.5833H9.29167C9.625 13.5833 9.91667 13.875 9.91667 14.2083V22.125C9.91667 22.4583 9.66667 22.75 9.29167 22.75ZM2 21.5H8.66667V14.8333H2V21.5Z" fill="#2D9596"/>
<path d="M2 21.5H-34V57.5H2V21.5ZM8.66667 21.5V57.5H44.6667V21.5H8.66667ZM8.66667 14.8333H44.6667V-21.1667H8.66667V14.8333ZM2 14.8333V-21.1667H-34V14.8333H2ZM9.29167 -13.25H1.375V58.75H9.29167V-13.25ZM1.375 -13.25C20.9239 -13.25 36.75 2.57608 36.75 22.125H-35.25C-35.25 42.3406 -18.8406 58.75 1.375 58.75V-13.25ZM36.75 22.125V14.2083H-35.25V22.125H36.75ZM36.75 14.2083C36.75 33.7572 20.9239 49.5833 1.375 49.5833V-22.4167C-18.8406 -22.4167 -35.25 -6.00726 -35.25 14.2083H36.75ZM1.375 49.5833H9.29167V-22.4167H1.375V49.5833ZM9.29167 49.5833C-10.2573 49.5833 -26.0833 33.7572 -26.0833 14.2083H45.9167C45.9167 -6.00726 29.5073 -22.4167 9.29167 -22.4167V49.5833ZM-26.0833 14.2083V22.125H45.9167V14.2083H-26.0833ZM-26.0833 22.125C-26.0833 4.17266 -11.7755 -13.25 9.29167 -13.25V58.75C31.1088 58.75 45.9167 40.744 45.9167 22.125H-26.0833ZM2 57.5H8.66667V-14.5H2V57.5ZM44.6667 21.5V14.8333H-27.3333V21.5H44.6667ZM8.66667 -21.1667H2V50.8333H8.66667V-21.1667ZM-34 14.8333V21.5H38V14.8333H-34Z" fill="#2D9596" mask="url(#path-5-inside-3_403_3627)"/>
<mask id="path-7-inside-4_403_3627" fill="white">
<path d="M20.9577 22.75H13.041C12.7077 22.75 12.416 22.4583 12.416 22.125V14.2083C12.416 13.875 12.7077 13.5833 13.041 13.5833H20.9577C21.291 13.5833 21.5827 13.875 21.5827 14.2083V22.125C21.5827 22.4583 21.3327 22.75 20.9577 22.75ZM13.666 21.5H20.3327V14.8333H13.666V21.5Z"/>
</mask>
<path d="M20.9577 22.75H13.041C12.7077 22.75 12.416 22.4583 12.416 22.125V14.2083C12.416 13.875 12.7077 13.5833 13.041 13.5833H20.9577C21.291 13.5833 21.5827 13.875 21.5827 14.2083V22.125C21.5827 22.4583 21.3327 22.75 20.9577 22.75ZM13.666 21.5H20.3327V14.8333H13.666V21.5Z" fill="#2D9596"/>
<path d="M13.666 21.5H-22.334V57.5H13.666V21.5ZM20.3327 21.5V57.5H56.3327V21.5H20.3327ZM20.3327 14.8333H56.3327V-21.1667H20.3327V14.8333ZM13.666 14.8333V-21.1667H-22.334V14.8333H13.666ZM20.9577 -13.25H13.041V58.75H20.9577V-13.25ZM13.041 -13.25C32.5899 -13.25 48.416 2.57608 48.416 22.125H-23.584C-23.584 42.3406 -7.17457 58.75 13.041 58.75V-13.25ZM48.416 22.125V14.2083H-23.584V22.125H48.416ZM48.416 14.2083C48.416 33.7572 32.5899 49.5833 13.041 49.5833V-22.4167C-7.17457 -22.4167 -23.584 -6.00726 -23.584 14.2083H48.416ZM13.041 49.5833H20.9577V-22.4167H13.041V49.5833ZM20.9577 49.5833C1.40877 49.5833 -14.4173 33.7572 -14.4173 14.2083H57.5827C57.5827 -6.00726 41.1733 -22.4167 20.9577 -22.4167V49.5833ZM-14.4173 14.2083V22.125H57.5827V14.2083H-14.4173ZM-14.4173 22.125C-14.4173 4.17266 -0.109449 -13.25 20.9577 -13.25V58.75C42.7748 58.75 57.5827 40.744 57.5827 22.125H-14.4173ZM13.666 57.5H20.3327V-14.5H13.666V57.5ZM56.3327 21.5V14.8333H-15.6673V21.5H56.3327ZM20.3327 -21.1667H13.666V50.8333H20.3327V-21.1667ZM-22.334 14.8333V21.5H49.666V14.8333H-22.334Z" fill="#2D9596" mask="url(#path-7-inside-4_403_3627)"/>
</svg>
