<svg width="19" height="16" viewBox="0 0 19 16" fill="none" xmlns="http://www.w3.org/2000/svg">
<path d="M18.5046 5.73564C18.3961 5.58962 18.2547 5.47114 18.092 5.38977C17.9292 5.30839 17.7496 5.26639 17.5676 5.26715H16.3971V4.09593C16.3966 3.68191 16.2319 3.28497 15.9392 2.99221C15.6464 2.69945 15.2495 2.53477 14.8354 2.53431H8.88115C8.76497 2.53455 8.6502 2.50875 8.5453 2.4588C8.4404 2.40885 8.34802 2.33603 8.27497 2.24568L7.51016 1.30379C7.32754 1.07796 7.09663 0.895918 6.83441 0.771059C6.57218 0.6462 6.28531 0.581692 5.99488 0.582279H1.56162C1.1476 0.582744 0.750663 0.747421 0.457903 1.04018C0.165142 1.33294 0.000464995 1.72988 0 2.1439L0 13.6887C0.000526969 14.1471 0.182857 14.5866 0.506992 14.9107C0.831127 15.2349 1.2706 15.4172 1.72899 15.4177H14.8715C15.2454 15.4163 15.6089 15.2944 15.908 15.07C16.2071 14.8457 16.426 14.5309 16.532 14.1723L18.6922 6.76631C18.7439 6.59183 18.7538 6.40765 18.7212 6.22862C18.6886 6.0496 18.6144 5.88073 18.5046 5.73564ZM1.72899 14.6369C1.4776 14.6366 1.23658 14.5366 1.05882 14.3589C0.881064 14.1811 0.781081 13.9401 0.780812 13.6887V2.1439C0.781019 1.93688 0.863349 1.7384 1.00973 1.59201C1.15612 1.44563 1.3546 1.3633 1.56162 1.36309H5.99488C6.16913 1.36273 6.34125 1.40143 6.49858 1.47635C6.6559 1.55127 6.79443 1.6605 6.90398 1.79601L7.66879 2.73791C7.81494 2.91855 7.9997 3.06416 8.20949 3.16404C8.41929 3.26393 8.64879 3.31555 8.88115 3.31512H14.8354C15.0425 3.31533 15.2409 3.39766 15.3873 3.54404C15.5337 3.69043 15.616 3.88891 15.6162 4.09593V5.26715H6.46993C6.09608 5.26863 5.73267 5.39058 5.43362 5.61493C5.13457 5.83927 4.91581 6.15405 4.8098 6.51255L2.63915 13.9541C2.58101 14.1506 2.46107 14.3232 2.29712 14.4462C2.13317 14.5692 1.93395 14.6361 1.72899 14.6369ZM17.9426 6.54769L15.7824 13.9537C15.7242 14.1504 15.6041 14.323 15.44 14.4461C15.2759 14.5692 15.0766 14.6361 14.8715 14.6369H3.17357C3.26822 14.4939 3.34076 14.3374 3.38872 14.1727L5.55938 6.73118C5.61754 6.53454 5.73752 6.36188 5.90154 6.23881C6.06556 6.11575 6.26487 6.04882 6.46993 6.04797H17.5677C17.6283 6.04793 17.6881 6.06202 17.7423 6.08912C17.7966 6.11621 17.8438 6.15556 17.8801 6.20405C17.9165 6.25254 17.9411 6.30884 17.952 6.36848C17.9628 6.42813 17.9595 6.48948 17.9426 6.54769Z" fill="black"/>
</svg>
