<svg width="16" height="16" viewBox="0 0 16 16" fill="none" xmlns="http://www.w3.org/2000/svg">
<path d="M0.594246 7.04062C0.106033 10.1153 1.47228 13.8236 5.68507 15.1917C5.76028 15.2055 5.82984 15.2118 5.89502 15.2118C6.38511 15.2118 6.72229 14.847 6.72229 14.397C6.6615 14.0693 6.96232 12.7412 6.14571 12.9199C4.56701 13.2558 4.37774 12.374 4.13708 11.9127C4.81769 12.7864 5.8405 12.7644 6.61199 12.426C7.04003 12.238 6.81629 11.7592 7.01935 11.5843C7.3302 11.3173 7.17227 10.8053 6.76428 10.7608C5.31405 10.601 3.971 10.1335 3.971 7.81399C3.971 6.45527 4.91421 6.33368 4.65412 5.76525C4.64472 5.74457 4.44542 5.29271 4.62592 4.60645C5.51523 4.77065 5.92448 5.40865 6.35127 5.29396C7.40854 5.00567 8.57236 5.00567 9.629 5.29396C10.0702 5.41241 10.3854 4.79196 11.345 4.60269C11.6213 5.63928 11.0485 5.89248 11.4095 6.28041C11.8056 6.70658 12.0068 7.22237 12.0068 7.81399C12.0068 11.301 9.05054 10.2939 8.80988 11.0855C8.75473 11.266 8.81302 11.4609 8.95716 11.5818C9.33946 11.9033 9.28932 12.7287 9.24858 13.3924C9.20659 14.0805 9.17025 14.674 9.55066 15.0087C9.68478 15.1278 9.92356 15.255 10.3554 15.1673C14.513 13.8317 15.8893 10.1397 15.4086 7.07196C14.095 -1.306 1.91787 -1.29597 0.594246 7.04062ZM5.7772 13.9207L5.7797 14.2372C5.45193 14.1238 5.14359 13.9928 4.8553 13.8468C5.12165 13.9151 5.42749 13.9445 5.7772 13.9207ZM6.00908 11.6019C6.00595 11.6182 6.00282 11.6351 5.99968 11.652C5.46509 11.8099 5.05397 11.6526 4.7732 11.1807C4.7732 11.1801 4.7732 11.1801 4.77257 11.1795C5.19874 11.4076 5.63807 11.5304 6.00908 11.6019ZM7.99954 1.73734C15.4155 1.73734 17.0882 11.9322 10.1736 14.2347C10.1498 14.0486 10.1717 13.6976 10.1868 13.4501C10.2231 12.8541 10.2657 12.1596 10.0533 11.5793C13.242 10.9156 13.5084 7.41415 12.2806 5.85425C12.4329 5.25761 12.3715 3.85564 11.8238 3.68392C11.6947 3.64319 11.0059 3.4934 9.66974 4.33383C8.57862 4.07312 7.40102 4.07249 6.30991 4.33383C5.64308 3.91581 4.14021 3.23582 3.85192 3.9578C3.51726 4.79885 3.59685 5.47884 3.6965 5.85675C2.60663 7.23804 2.93315 9.55063 4.03116 10.6361C3.40883 10.3384 2.55148 10.2369 2.3666 10.8329C2.16417 11.4828 2.93817 11.4038 3.41886 12.5902C3.46461 12.7381 3.54922 12.9117 3.67895 13.0841C-0.589623 9.59637 1.46977 1.73734 7.99954 1.73734Z" fill="#424242"/>
</svg>
