<svg width="24" height="24" viewBox="0 0 24 24" fill="none" xmlns="http://www.w3.org/2000/svg">
<path d="M9.84375 13.5625C10.2664 13.5625 10.6718 13.7304 10.9707 14.0293C11.2696 14.3282 11.4375 14.7336 11.4375 15.1562V19.4062C11.4375 19.8289 11.2696 20.2343 10.9707 20.5332C10.6718 20.8321 10.2664 21 9.84375 21H5.59375C5.17106 21 4.76568 20.8321 4.4668 20.5332C4.16791 20.2343 4 19.8289 4 19.4062V15.1562C4 14.7336 4.16791 14.3282 4.4668 14.0293C4.76568 13.7304 5.17106 13.5625 5.59375 13.5625H9.84375ZM19.4062 13.5625C19.8289 13.5625 20.2343 13.7304 20.5332 14.0293C20.8321 14.3282 21 14.7336 21 15.1562V19.4062C21 19.8289 20.8321 20.2343 20.5332 20.5332C20.2343 20.8321 19.8289 21 19.4062 21H15.1562C14.7336 21 14.3282 20.8321 14.0293 20.5332C13.7304 20.2343 13.5625 19.8289 13.5625 19.4062V15.1562C13.5625 14.7336 13.7304 14.3282 14.0293 14.0293C14.3282 13.7304 14.7336 13.5625 15.1562 13.5625H19.4062ZM9.84375 14.625H5.59375C5.45285 14.625 5.31773 14.681 5.2181 14.7806C5.11847 14.8802 5.0625 15.0154 5.0625 15.1562V19.4062C5.0625 19.5471 5.11847 19.6823 5.2181 19.7819C5.31773 19.8815 5.45285 19.9375 5.59375 19.9375H9.84375C9.98465 19.9375 10.1198 19.8815 10.2194 19.7819C10.319 19.6823 10.375 19.5471 10.375 19.4062V15.1562C10.375 15.0154 10.319 14.8802 10.2194 14.7806C10.1198 14.681 9.98465 14.625 9.84375 14.625ZM19.4062 14.625H15.1562C15.0154 14.625 14.8802 14.681 14.7806 14.7806C14.681 14.8802 14.625 15.0154 14.625 15.1562V19.4062C14.625 19.5471 14.681 19.6823 14.7806 19.7819C14.8802 19.8815 15.0154 19.9375 15.1562 19.9375H19.4062C19.5471 19.9375 19.6823 19.8815 19.7819 19.7819C19.8815 19.6823 19.9375 19.5471 19.9375 19.4062V15.1562C19.9375 15.0154 19.8815 14.8802 19.7819 14.7806C19.6823 14.681 19.5471 14.625 19.4062 14.625ZM9.84375 4C10.2664 4 10.6718 4.16791 10.9707 4.4668C11.2696 4.76568 11.4375 5.17106 11.4375 5.59375V9.84375C11.4375 10.2664 11.2696 10.6718 10.9707 10.9707C10.6718 11.2696 10.2664 11.4375 9.84375 11.4375H5.59375C5.17106 11.4375 4.76568 11.2696 4.4668 10.9707C4.16791 10.6718 4 10.2664 4 9.84375V5.59375C4 5.17106 4.16791 4.76568 4.4668 4.4668C4.76568 4.16791 5.17106 4 5.59375 4H9.84375ZM19.4062 4C19.8289 4 20.2343 4.16791 20.5332 4.4668C20.8321 4.76568 21 5.17106 21 5.59375V9.84375C21 10.2664 20.8321 10.6718 20.5332 10.9707C20.2343 11.2696 19.8289 11.4375 19.4062 11.4375H15.1562C14.7336 11.4375 14.3282 11.2696 14.0293 10.9707C13.7304 10.6718 13.5625 10.2664 13.5625 9.84375V5.59375C13.5625 5.17106 13.7304 4.76568 14.0293 4.4668C14.3282 4.16791 14.7336 4 15.1562 4H19.4062ZM9.84375 5.0625H5.59375C5.45285 5.0625 5.31773 5.11847 5.2181 5.2181C5.11847 5.31773 5.0625 5.45285 5.0625 5.59375V9.84375C5.0625 9.98465 5.11847 10.1198 5.2181 10.2194C5.31773 10.319 5.45285 10.375 5.59375 10.375H9.84375C9.98465 10.375 10.1198 10.319 10.2194 10.2194C10.319 10.1198 10.375 9.98465 10.375 9.84375V5.59375C10.375 5.45285 10.319 5.31773 10.2194 5.2181C10.1198 5.11847 9.98465 5.0625 9.84375 5.0625ZM19.4062 5.0625H15.1562C15.0154 5.0625 14.8802 5.11847 14.7806 5.2181C14.681 5.31773 14.625 5.45285 14.625 5.59375V9.84375C14.625 9.98465 14.681 10.1198 14.7806 10.2194C14.8802 10.319 15.0154 10.375 15.1562 10.375H19.4062C19.5471 10.375 19.6823 10.319 19.7819 10.2194C19.8815 10.1198 19.9375 9.98465 19.9375 9.84375V5.59375C19.9375 5.45285 19.8815 5.31773 19.7819 5.2181C19.6823 5.11847 19.5471 5.0625 19.4062 5.0625Z" fill="black"/>
</svg>
