<svg width="175" height="179" viewBox="0 0 175 179" fill="none" xmlns="http://www.w3.org/2000/svg">
<path opacity="0.3" d="M118.498 47.6547C115.959 43.5305 112.874 39.838 109.384 36.6413L112.242 26.9864L102.576 21.8687L92.9111 16.751L86.5414 24.5467C81.9369 23.4574 77.1642 22.9771 72.3146 23.2014L67.5182 14.3559L46.6228 20.79L47.6327 30.8013C43.511 33.3395 39.8211 36.4256 36.6268 39.9162L26.9752 37.0538L21.8626 46.7218L16.75 56.3899L24.5442 62.7647C23.4568 67.3709 22.9781 72.1455 23.2037 76.9973L14.3635 81.7931L20.8009 102.7L30.8076 101.692C33.3459 105.816 36.4318 109.509 39.9218 112.706L37.0634 122.36L46.7288 127.478L56.3942 132.596L62.7639 124.8C67.3684 125.889 72.1411 126.37 76.9908 126.145L81.7871 134.991L102.683 128.557L101.673 118.546C105.794 116.007 109.484 112.921 112.679 109.431L122.33 112.293L127.443 102.625L132.555 92.9569L124.761 86.5821C125.849 81.976 126.327 77.2013 126.102 72.3495L134.942 67.5537L128.504 46.6473L118.498 47.6547ZM85.9296 111.322C65.7123 117.547 44.2606 106.201 38.0277 85.9586C31.7949 65.7165 43.1345 44.273 63.3659 38.0434C83.5974 31.8138 105.035 43.1647 111.268 63.4068C117.501 83.6488 106.161 105.092 85.9296 111.322Z" fill="#DEDEDE"/>
<path opacity="0.3" d="M160.148 132.187C158.976 130.289 157.574 128.6 155.966 127.146L157.279 122.718L152.844 120.369L148.408 118.021L145.488 121.597C143.381 121.085 141.184 120.88 138.97 120.974L136.762 116.918L127.183 119.867L127.639 124.462C125.742 125.635 124.054 127.036 122.6 128.645L118.174 127.33L115.828 131.767L113.482 136.204L117.058 139.126C116.546 141.234 116.342 143.432 116.436 145.647L112.383 147.855L115.334 157.439L119.927 156.984C121.099 158.882 122.501 160.571 124.109 162.026L122.796 166.454L127.232 168.802L131.667 171.151L134.587 167.574C136.694 168.086 138.892 168.291 141.106 168.198L143.313 172.254L152.892 169.304L152.436 164.709C154.334 163.537 156.021 162.135 157.475 160.527L161.901 161.841L164.247 157.404L166.593 152.968L163.018 150.045C163.529 147.938 163.733 145.739 163.639 143.524L167.693 141.317L164.742 131.733L160.148 132.187ZM145.223 161.374C135.955 164.228 126.123 159.022 123.268 149.749C120.412 140.477 125.613 130.642 134.881 127.788C144.149 124.935 153.981 130.14 156.836 139.413C159.691 148.686 154.491 158.521 145.223 161.374Z" fill="#DEDEDE"/>
</svg>
