<svg width="18" height="18" viewBox="0 0 18 18" fill="none" xmlns="http://www.w3.org/2000/svg">
<path fill-rule="evenodd" clip-rule="evenodd" d="M4.61236 0H10.6304L15.7308 5.31635V15.6567C15.7308 16.952 14.6828 18 13.392 18H4.61236C3.31702 18 2.26904 16.952 2.26904 15.6567V2.34332C2.26902 1.04797 3.31699 0 4.61236 0Z" fill="#E5252A"/>
<path opacity="0.302" fill-rule="evenodd" clip-rule="evenodd" d="M10.6255 0V5.27586H15.7304L10.6255 0Z" fill="white"/>
<path d="M4.87305 13.4303V10.1424H6.27185C6.61818 10.1424 6.89255 10.2368 7.09945 10.4303C7.30634 10.6192 7.4098 10.8755 7.4098 11.1949C7.4098 11.5142 7.30634 11.7706 7.09945 11.9595C6.89255 12.1529 6.61818 12.2473 6.27185 12.2473H5.71413V13.4303H4.87305ZM5.71413 11.5322H6.1774C6.30333 11.5322 6.40228 11.5052 6.46976 11.4423C6.53722 11.3838 6.57322 11.3028 6.57322 11.1949C6.57322 11.087 6.53724 11.006 6.46976 10.9475C6.40231 10.8845 6.30335 10.8576 6.1774 10.8576H5.71413V11.5322ZM7.7561 13.4303V10.1424H8.92102C9.1504 10.1424 9.3663 10.1739 9.56869 10.2413C9.77108 10.3088 9.95551 10.4033 10.1174 10.5337C10.2793 10.6596 10.4098 10.8306 10.5042 11.0464C10.5942 11.2623 10.6437 11.5097 10.6437 11.7886C10.6437 12.0629 10.5942 12.3103 10.5042 12.5262C10.4098 12.7421 10.2793 12.913 10.1174 13.0389C9.95548 13.1694 9.77108 13.2638 9.56869 13.3313C9.3663 13.3988 9.1504 13.4303 8.92102 13.4303H7.7561ZM8.57919 12.7151H8.82206C8.9525 12.7151 9.07394 12.7016 9.18638 12.6701C9.29432 12.6387 9.39778 12.5892 9.49673 12.5217C9.59119 12.4543 9.66765 12.3598 9.72162 12.2339C9.77559 12.1079 9.80258 11.9595 9.80258 11.7886C9.80258 11.6132 9.77559 11.4647 9.72162 11.3388C9.66765 11.2129 9.59119 11.1184 9.49673 11.051C9.39778 10.9835 9.29434 10.934 9.18638 10.9025C9.07394 10.8711 8.9525 10.8575 8.82206 10.8575H8.57919V12.7151ZM11.0665 13.4303V10.1424H13.4053V10.8575H11.9075V11.3838H13.1039V12.0944H11.9075V13.4303H11.0665Z" fill="white"/>
</svg>
