<svg width="24" height="24" viewBox="0 0 24 24" fill="none" xmlns="http://www.w3.org/2000/svg">
<path d="M6.5 16H4.5C4.36739 16 4.24021 16.0527 4.14645 16.1464C4.05268 16.2402 4 16.3674 4 16.5V18.5C4 18.6326 4.05268 18.7598 4.14645 18.8536C4.24021 18.9473 4.36739 19 4.5 19H6.5C6.63261 19 6.75979 18.9473 6.85355 18.8536C6.94732 18.7598 7 18.6326 7 18.5V16.5C7 16.3674 6.94732 16.2402 6.85355 16.1464C6.75979 16.0527 6.63261 16 6.5 16ZM6.5 6H4.5C4.36739 6 4.24021 6.05268 4.14645 6.14645C4.05268 6.24021 4 6.36739 4 6.5V8.5C4 8.63261 4.05268 8.75979 4.14645 8.85355C4.24021 8.94732 4.36739 9 4.5 9H6.5C6.63261 9 6.75979 8.94732 6.85355 8.85355C6.94732 8.75979 7 8.63261 7 8.5V6.5C7 6.36739 6.94732 6.24021 6.85355 6.14645C6.75979 6.05268 6.63261 6 6.5 6ZM6.5 11H4.5C4.36739 11 4.24021 11.0527 4.14645 11.1464C4.05268 11.2402 4 11.3674 4 11.5V13.5C4 13.6326 4.05268 13.7598 4.14645 13.8536C4.24021 13.9473 4.36739 14 4.5 14H6.5C6.63261 14 6.75979 13.9473 6.85355 13.8536C6.94732 13.7598 7 13.6326 7 13.5V11.5C7 11.3674 6.94732 11.2402 6.85355 11.1464C6.75979 11.0527 6.63261 11 6.5 11ZM19.5 16.5H9.5C9.36739 16.5 9.24021 16.5527 9.14645 16.6464C9.05268 16.7402 9 16.8674 9 17V18C9 18.1326 9.05268 18.2598 9.14645 18.3536C9.24021 18.4473 9.36739 18.5 9.5 18.5H19.5C19.6326 18.5 19.7598 18.4473 19.8536 18.3536C19.9473 18.2598 20 18.1326 20 18V17C20 16.8674 19.9473 16.7402 19.8536 16.6464C19.7598 16.5527 19.6326 16.5 19.5 16.5ZM19.5 6.5H9.5C9.36739 6.5 9.24021 6.55268 9.14645 6.64645C9.05268 6.74021 9 6.86739 9 7V8C9 8.13261 9.05268 8.25979 9.14645 8.35355C9.24021 8.44732 9.36739 8.5 9.5 8.5H19.5C19.6326 8.5 19.7598 8.44732 19.8536 8.35355C19.9473 8.25979 20 8.13261 20 8V7C20 6.86739 19.9473 6.74021 19.8536 6.64645C19.7598 6.55268 19.6326 6.5 19.5 6.5ZM19.5 11.5H9.5C9.36739 11.5 9.24021 11.5527 9.14645 11.6464C9.05268 11.7402 9 11.8674 9 12V13C9 13.1326 9.05268 13.2598 9.14645 13.3536C9.24021 13.4473 9.36739 13.5 9.5 13.5H19.5C19.6326 13.5 19.7598 13.4473 19.8536 13.3536C19.9473 13.2598 20 13.1326 20 13V12C20 11.8674 19.9473 11.7402 19.8536 11.6464C19.7598 11.5527 19.6326 11.5 19.5 11.5Z" fill="#616161"/>
</svg>
