<svg width="28" height="29" viewBox="0 0 28 29" fill="none" xmlns="http://www.w3.org/2000/svg">
<path d="M22.1663 2.83301H5.83301C3.90755 2.83301 2.33301 4.40812 2.33301 6.33301V22.6663C2.33301 24.5912 3.90755 26.1663 5.83301 26.1663H22.1663C24.0918 26.1663 25.6663 24.5912 25.6663 22.6663V6.33301C25.6663 4.40812 24.0918 2.83301 22.1663 2.83301ZM19.203 12.4113L13.3696 18.2446C13.1361 18.4662 12.8444 18.583 12.5413 18.583C12.2383 18.583 11.9466 18.4662 11.7131 18.2446L8.79639 15.328C8.3418 14.8728 8.3418 14.1265 8.79639 13.6714C9.25098 13.2162 9.99837 13.2162 10.453 13.6714L12.5413 15.7712L17.5464 10.7547C18.001 10.2996 18.7484 10.2996 19.203 10.7547C19.6576 11.2099 19.6576 11.9561 19.203 12.4113Z" fill="#2D9596"/>
</svg>
