<svg width="16" height="16" viewBox="0 0 16 16" fill="none" xmlns="http://www.w3.org/2000/svg">
<path d="M14.0083 3.70357L11.1554 0.850627C11.0752 0.77035 10.9664 0.725198 10.853 0.725098H5.14709C4.88227 0.725098 4.62829 0.8303 4.44103 1.01756C4.25377 1.20482 4.14856 1.4588 4.14856 1.72363V3.00745H2.86474C2.59991 3.00745 2.34593 3.11265 2.15867 3.29991C1.97141 3.48717 1.86621 3.74115 1.86621 4.00598V14.2766C1.86621 14.5414 1.97141 14.7954 2.15867 14.9826C2.34593 15.1699 2.59991 15.2751 2.86474 15.2751H10.853C11.1178 15.2751 11.3718 15.1699 11.559 14.9826C11.7463 14.7954 11.8515 14.5414 11.8515 14.2766V12.9927H13.1353C13.4002 12.9927 13.6541 12.8875 13.8414 12.7003C14.0287 12.513 14.1339 12.259 14.1339 11.9942V4.00598C14.1338 3.89252 14.0886 3.78375 14.0083 3.70357ZM10.9956 14.2766C10.9956 14.3144 10.9806 14.3507 10.9538 14.3774C10.9271 14.4042 10.8908 14.4192 10.853 14.4192H2.86474C2.82691 14.4192 2.79063 14.4042 2.76387 14.3774C2.73712 14.3507 2.72209 14.3144 2.72209 14.2766V4.00598C2.72209 3.96815 2.73712 3.93186 2.76387 3.90511C2.79063 3.87836 2.82691 3.86333 2.86474 3.86333H8.39303L10.9956 6.46593V14.2766ZM13.278 11.9942C13.278 12.032 13.2629 12.0683 13.2362 12.0951C13.2094 12.1218 13.1732 12.1369 13.1353 12.1369H11.8515V6.28833C11.8514 6.17487 11.8063 6.0661 11.726 5.98592L8.87303 3.13298C8.79286 3.0527 8.68408 3.00755 8.57062 3.00745H5.00445V1.72363C5.00445 1.68579 5.01947 1.64951 5.04623 1.62276C5.07298 1.59601 5.10926 1.58098 5.14709 1.58098H10.6754L13.278 4.18358V11.9942ZM8.99856 9.71186C8.99856 9.82536 8.95348 9.93421 8.87322 10.0145C8.79297 10.0947 8.68412 10.1398 8.57062 10.1398H5.14709C5.0336 10.1398 4.92475 10.0947 4.84449 10.0145C4.76424 9.93421 4.71915 9.82536 4.71915 9.71186C4.71915 9.59837 4.76424 9.48952 4.84449 9.40926C4.92475 9.32901 5.0336 9.28392 5.14709 9.28392H8.57062C8.68412 9.28392 8.79297 9.32901 8.87322 9.40926C8.95348 9.48952 8.99856 9.59837 8.99856 9.71186ZM8.99856 11.9942C8.99856 12.1077 8.95348 12.2166 8.87322 12.2968C8.79297 12.3771 8.68412 12.4222 8.57062 12.4222H5.14709C5.0336 12.4222 4.92475 12.3771 4.84449 12.2968C4.76424 12.2166 4.71915 12.1077 4.71915 11.9942C4.71915 11.8807 4.76424 11.7719 4.84449 11.6916C4.92475 11.6114 5.0336 11.5663 5.14709 11.5663H8.57062C8.68412 11.5663 8.79297 11.6114 8.87322 11.6916C8.95348 11.7719 8.99856 11.8807 8.99856 11.9942Z" fill="#424242"/>
</svg>
