<svg width="341" height="202" viewBox="0 0 341 202" fill="none" xmlns="http://www.w3.org/2000/svg">
<g opacity="0.34">
<g opacity="0.6">
<path d="M296.285 129.463C298.647 139.863 298.247 149.388 295.096 159.575C291.153 172.321 282.262 184.176 269.56 191.475C265.102 194.038 260.316 195.964 255.332 197.333C254.519 198.625 253.638 199.876 252.703 201.086H295.244C306.064 188.243 312.262 171.777 313.238 155.022C313.502 150.49 313.384 145.936 312.872 141.428C310.887 123.956 303.122 107.31 291.463 94.1038C291.291 95.0317 291.144 95.9625 291.037 96.8978C289.765 108.023 293.859 118.786 296.285 129.463Z" fill="#2D9596"/>
</g>
<g opacity="0.41">
<path d="M164.574 198.499C162.08 195.059 160.127 190.676 157.479 187.164C151.81 188.314 146.212 189.992 140.55 191.439C128.963 194.4 117.025 196.602 105.068 196.766C91.7821 196.947 78.2342 194.393 66.6783 187.585C57.8659 182.394 50.1162 174.461 45.9258 164.991C47.0955 178.053 51.8448 190.79 59.8476 201.087H166.587C165.889 200.247 165.217 199.385 164.574 198.499Z" fill="#2D9596"/>
</g>
<g opacity="0.41">
<path d="M181.405 19.2961C184.634 19.1869 188.105 18.994 191.892 18.7082C209.566 17.3739 227.073 21.3896 244.048 26.9354C245.686 27.4702 247.315 28.0463 248.932 28.6608C241.621 20.6412 232.3 14.4022 222.043 10.8573C201.741 3.8419 177.121 6.63105 159.238 17.6784C166.586 17.6971 173.981 18.2501 181.405 19.2961Z" fill="#2D9596"/>
</g>
<g opacity="0.35">
<path d="M66.2479 187.718C77.7707 194.372 91.3058 196.914 104.593 196.804C116.551 196.705 128.498 194.631 140.1 191.82C145.769 190.446 151.376 188.849 157.05 187.763C154.732 184.753 151.872 182.396 147.617 181.892C131.158 179.941 113.839 186.707 97.4527 187.857C86.4425 188.629 74.7466 187.14 65.8478 180.575C60.0753 176.315 55.8633 170.178 52.9921 163.581C47.0346 149.895 46.8747 134.189 51.9072 120.198C55.3127 110.73 63.5874 103.535 66.4818 93.8887C68.8996 85.8312 66.0975 77.421 66.8878 69.2764C67.0491 67.6154 67.3594 65.9657 67.8942 64.3323C70.7284 55.6746 84.3399 43.166 92.6822 38.9864C112.676 28.9698 133.541 24.097 154.82 23.5996C142.724 21.5819 131.276 17.9534 111 13.6578C86.9166 8.55524 59.8602 26.1821 45.6493 46.6877C44.1999 48.7787 42.9256 50.975 41.8269 53.2495C36.9119 63.4285 35.5246 75.1853 37.8033 86.1943C40.4821 99.1364 48.7622 109.111 45.8027 122.889C44.0001 131.281 43.5205 139.061 42.5862 147.369C41.856 153.863 43.0583 160.07 45.6054 165.722C49.7494 174.92 57.4612 182.644 66.2479 187.718Z" fill="#2D9596"/>
</g>
<g opacity="0.47">
<path d="M191.893 18.7082C188.105 18.994 184.634 19.1869 181.406 19.2961C192.371 20.8415 203.398 23.4624 214.429 27.0801C214.43 27.0806 255.646 40.5992 255.646 40.5992C275.017 46.9529 287.857 65.4684 286.65 85.7693C286.642 85.9026 286.634 86.0364 286.625 86.1698C285.853 97.9374 281.918 109.472 275.419 119.145C269.534 127.903 261.413 137.699 259.38 148.448C257.76 157.013 261.259 165.672 261.684 174.389C262.089 182.677 259.606 190.541 255.332 197.333C260.316 195.963 265.102 194.037 269.56 191.475C282.262 184.176 291.153 172.321 295.096 159.575C298.247 149.389 298.647 139.863 296.285 129.463C293.86 118.786 289.765 108.022 291.037 96.8973C291.143 95.9625 291.291 95.0317 291.463 94.1033C292.721 87.3358 295.4 80.7243 294.828 73.8865C294.395 68.72 292.114 63.8728 289.324 59.4974C280.065 44.9736 265.126 34.8148 248.933 28.6604C247.316 28.0459 245.687 27.4697 244.049 26.9349C227.073 21.3901 209.566 17.3739 191.893 18.7082Z" fill="#2D9596"/>
</g>
<g opacity="0.7">
<path d="M67.706 60.2339C67.1796 61.9224 66.8772 63.6267 66.7242 65.3418C65.9749 73.7511 68.8184 82.4172 66.4411 90.7453C63.595 100.716 55.3569 108.184 51.9987 117.974C47.0363 132.438 47.2746 148.647 53.3011 162.742C56.2054 169.535 60.4481 175.848 66.2423 180.214C75.1741 186.945 86.8769 188.421 97.8832 187.567C114.263 186.297 131.548 179.225 148.017 181.153C152.274 181.652 155.146 184.069 157.479 187.164C160.126 190.675 162.079 195.059 164.574 198.499C165.217 199.385 165.889 200.247 166.586 201.086H252.703C253.638 199.876 254.518 198.626 255.331 197.333C259.605 190.541 262.089 182.676 261.684 174.389C261.258 165.671 257.759 157.013 259.379 148.448C261.412 137.699 269.533 127.903 275.419 119.145C281.918 109.472 285.853 97.9373 286.624 86.1697C286.633 86.0364 286.641 85.903 286.649 85.7692C287.856 65.4683 275.016 46.9524 255.645 40.5992C255.645 40.5992 214.429 27.0805 214.428 27.08C203.397 23.4623 192.37 20.8414 181.405 19.2961C173.981 18.2496 166.586 17.6966 159.238 17.6784C157.631 17.6744 156.028 17.701 154.426 17.7482C133.15 18.3716 112.31 23.5076 92.3667 33.9483C84.0452 38.3045 70.4963 51.2839 67.706 60.2339Z" fill="#2D9596"/>
</g>
<g opacity="0.35">
<path d="M143.82 13.7021C147.521 13.7021 150.522 10.7099 150.522 7.01878C150.522 3.32768 147.521 0.335449 143.82 0.335449C140.119 0.335449 137.119 3.32768 137.119 7.01878C137.119 10.7099 140.119 13.7021 143.82 13.7021Z" fill="#2D9596"/>
</g>
<g opacity="0.35">
<path d="M324.945 101.601C333.303 101.601 340.079 94.8438 340.079 86.5084C340.079 78.173 333.303 71.4158 324.945 71.4158C316.587 71.4158 309.812 78.173 309.812 86.5084C309.812 94.8438 316.587 101.601 324.945 101.601Z" fill="#2D9596"/>
</g>
<g opacity="0.35">
<path d="M31.2704 127.039C37.6993 121.713 38.5815 112.197 33.2407 105.785C27.9 99.3739 18.3587 98.4941 11.9297 103.82C5.50077 109.147 4.61861 118.662 9.95937 125.074C15.3001 131.485 24.8414 132.365 31.2704 127.039Z" fill="#2D9596"/>
</g>
<g opacity="0.35">
<path d="M262.045 25.695C264.584 25.695 266.642 23.6423 266.642 21.1101C266.642 18.5779 264.584 16.5251 262.045 16.5251C259.506 16.5251 257.447 18.5779 257.447 21.1101C257.447 23.6423 259.506 25.695 262.045 25.695Z" fill="#2D9596"/>
</g>
</g>
<path d="M317.349 199.207H32.6514C32.3337 199.207 32.0762 198.95 32.0762 198.633V198.417C32.0762 198.1 32.3337 197.843 32.6514 197.843H317.349C317.666 197.843 317.924 198.1 317.924 198.417V198.633C317.924 198.95 317.667 199.207 317.349 199.207Z" fill="#233863" stroke="#233863" stroke-width="3" stroke-miterlimit="10"/>
<g opacity="0.57">
<path d="M113.953 155.755C113.68 155.755 113.46 155.535 113.46 155.263C113.46 138.425 120.526 122.16 132.847 110.638C135.026 108.6 137.374 106.705 139.826 105.005C140.049 104.85 140.357 104.905 140.513 105.128C140.668 105.352 140.613 105.658 140.389 105.813C137.977 107.485 135.666 109.351 133.522 111.356C121.4 122.693 114.447 138.696 114.447 155.263C114.447 155.535 114.226 155.755 113.953 155.755Z" fill="#2D9596"/>
<path d="M235.627 155.755C235.354 155.755 235.134 155.535 235.134 155.263C235.134 148.392 233.982 141.654 231.711 135.236C231.621 134.979 231.756 134.699 232.012 134.608C232.27 134.52 232.551 134.653 232.642 134.909C234.95 141.432 236.12 148.28 236.12 155.263C236.12 155.535 235.899 155.755 235.627 155.755Z" fill="#2D9596"/>
<path d="M230.862 132.176C230.67 132.176 230.487 132.064 230.408 131.876C225.664 120.67 217.722 111.253 207.438 104.643C207.209 104.496 207.143 104.191 207.291 103.963C207.439 103.734 207.743 103.668 207.973 103.816C218.424 110.534 226.496 120.105 231.316 131.494C231.422 131.744 231.305 132.033 231.053 132.138C230.991 132.164 230.926 132.176 230.862 132.176Z" fill="#2D9596"/>
<path d="M144.101 103.357C143.931 103.357 143.766 103.27 143.674 103.113C143.537 102.878 143.616 102.577 143.851 102.44C153.199 96.9827 163.897 94.0977 174.79 94.0977C183.862 94.0977 192.597 96.0268 200.75 99.8319C200.997 99.947 201.104 100.24 200.988 100.486C200.872 100.732 200.579 100.838 200.332 100.723C192.31 96.9803 183.716 95.0822 174.79 95.0822C164.072 95.0822 153.546 97.9205 144.349 103.289C144.271 103.335 144.185 103.357 144.101 103.357Z" fill="#2D9596"/>
<path d="M103.125 155.755C102.852 155.755 102.631 155.535 102.631 155.263C102.631 126.73 119.555 100.864 145.746 89.3655C145.998 89.2544 146.286 89.369 146.396 89.6174C146.506 89.8659 146.392 90.1567 146.143 90.2659C120.31 101.607 103.618 127.12 103.618 155.263C103.618 155.535 103.397 155.755 103.125 155.755Z" fill="#2D9596"/>
<path d="M246.456 155.755C246.183 155.755 245.962 155.535 245.962 155.263C245.962 132.886 235.187 111.557 217.14 98.2104C216.921 98.0485 216.875 97.7405 217.037 97.5221C217.2 97.3041 217.509 97.2589 217.728 97.4197C226.595 103.978 233.947 112.605 238.987 122.369C244.27 132.604 246.949 143.671 246.949 155.262C246.949 155.535 246.728 155.755 246.456 155.755Z" fill="#2D9596"/>
<path d="M213.164 95.3818C213.073 95.3818 212.981 95.3572 212.9 95.3051C211.44 94.3806 209.928 93.498 208.404 92.6822C208.164 92.5538 208.074 92.2557 208.203 92.0161C208.332 91.7769 208.631 91.6864 208.871 91.8153C210.416 92.6424 211.949 93.5373 213.428 94.4746C213.658 94.6202 213.726 94.9248 213.58 95.1535C213.487 95.3011 213.327 95.3818 213.164 95.3818Z" fill="#2D9596"/>
<path d="M205.48 91.1497C205.408 91.1497 205.337 91.1344 205.268 91.1019C195.708 86.577 185.454 84.2828 174.79 84.2828C166.991 84.2828 159.325 85.5325 152.006 87.9974C151.744 88.0845 151.467 87.9463 151.38 87.6889C151.293 87.4316 151.432 87.1522 151.689 87.0656C159.111 84.5662 166.883 83.2988 174.789 83.2988C185.601 83.2988 195.998 85.6255 205.691 90.2134C205.937 90.33 206.042 90.6232 205.925 90.8687C205.842 91.0459 205.664 91.1497 205.48 91.1497Z" fill="#2D9596"/>
<path d="M258.46 155.755C258.187 155.755 257.966 155.535 257.966 155.263C257.966 146.129 256.487 137.152 253.57 128.582C253.483 128.325 253.621 128.045 253.879 127.958C254.138 127.871 254.418 128.008 254.505 128.266C257.456 136.937 258.953 146.02 258.953 155.262C258.953 155.535 258.732 155.755 258.46 155.755Z" fill="#2D9596"/>
<path d="M252.292 124.254C252.098 124.254 251.913 124.139 251.836 123.948C245.961 109.589 236.174 97.1711 223.53 88.0381C223.309 87.8787 223.26 87.5712 223.42 87.3512C223.578 87.1308 223.887 87.0816 224.108 87.241C236.901 96.4823 246.805 109.047 252.749 123.577C252.852 123.829 252.73 124.116 252.478 124.218C252.418 124.242 252.355 124.254 252.292 124.254Z" fill="#2D9596"/>
<path d="M219.02 84.911C218.931 84.911 218.841 84.8869 218.76 84.8367C205.592 76.643 190.387 72.3114 174.79 72.3114C167.76 72.3114 160.775 73.1877 154.031 74.9156C153.768 74.9825 153.498 74.825 153.43 74.5613C153.362 74.2981 153.521 74.03 153.785 73.9621C160.61 72.2135 167.677 71.3269 174.79 71.3269C190.572 71.3269 205.958 75.7096 219.282 84.0008C219.514 84.145 219.584 84.4485 219.44 84.6788C219.347 84.8289 219.185 84.911 219.02 84.911Z" fill="#2D9596"/>
<path d="M138.001 80.7895C137.818 80.7895 137.643 80.6881 137.557 80.514C137.437 80.2699 137.538 79.9752 137.783 79.8557C140.355 78.5981 143.019 77.4611 145.701 76.4756C145.956 76.3821 146.241 76.512 146.335 76.7674C146.428 77.0227 146.298 77.3051 146.042 77.3991C143.392 78.3728 140.759 79.4965 138.217 80.7393C138.148 80.7732 138.073 80.7895 138.001 80.7895Z" fill="#2D9596"/>
<path d="M91.1208 155.755C90.848 155.755 90.6274 155.535 90.6274 155.263C90.6274 140.358 94.5953 125.719 102.101 112.927C109.387 100.512 119.813 90.1017 132.253 82.8211C132.489 82.6838 132.791 82.762 132.928 82.9962C133.066 83.2309 132.988 83.532 132.753 83.6698C107.378 98.5213 91.6141 125.954 91.6141 155.263C91.6141 155.535 91.3931 155.755 91.1208 155.755Z" fill="#2D9596"/>
</g>
<g opacity="0.22">
<path d="M82.2908 151.602C81.8823 151.602 81.5508 151.271 81.5508 150.864C81.5508 137.783 84.2202 125.135 89.4851 113.27C94.5713 101.809 101.818 91.6312 111.024 83.0212C114.339 79.9216 117.908 77.0405 121.634 74.4575C121.97 74.2248 122.431 74.3069 122.664 74.6425C122.898 74.977 122.815 75.437 122.479 75.6693C118.812 78.2114 115.299 81.0473 112.037 84.0977C93.6029 101.337 83.0308 125.672 83.0308 150.864C83.0308 151.271 82.6993 151.602 82.2908 151.602Z" fill="#2D9596"/>
<path d="M267.29 151.602C266.881 151.602 266.55 151.271 266.55 150.864C266.55 140.417 264.799 130.171 261.346 120.411C261.211 120.027 261.413 119.605 261.798 119.47C262.183 119.336 262.606 119.536 262.743 119.92C266.251 129.838 268.03 140.25 268.03 150.865C268.03 151.271 267.698 151.602 267.29 151.602Z" fill="#2D9596"/>
<path d="M260.046 115.753C259.757 115.753 259.483 115.584 259.364 115.302C252.151 98.2626 240.074 83.9429 224.437 73.8909C224.093 73.67 223.994 73.2134 224.216 72.871C224.438 72.5275 224.897 72.4301 225.238 72.6505C241.126 82.864 253.398 97.4144 260.727 114.729C260.885 115.104 260.709 115.537 260.332 115.696C260.239 115.734 260.142 115.753 260.046 115.753Z" fill="#2D9596"/>
<path d="M128.127 71.9336C127.873 71.9336 127.626 71.8028 127.488 71.5686C127.282 71.2168 127.4 70.7646 127.753 70.559C141.965 62.2624 158.23 57.8767 174.79 57.8767C188.582 57.8767 201.862 60.8095 214.258 66.5945C214.628 66.7671 214.788 67.2065 214.615 67.5755C214.442 67.945 214.002 68.1039 213.631 67.9312C201.432 62.2388 188.364 59.3527 174.79 59.3527C158.493 59.3527 142.486 63.668 128.501 71.8328C128.383 71.9012 128.255 71.9336 128.127 71.9336Z" fill="#2D9596"/>
<path d="M65.8259 151.602C65.4175 151.602 65.0859 151.272 65.0859 150.864C65.0859 107.486 90.8147 68.161 130.634 50.6802C131.009 50.5164 131.445 50.6856 131.609 51.0585C131.774 51.4315 131.604 51.8674 131.23 52.0317C91.9479 69.2768 66.5659 108.071 66.5659 150.865C66.5659 151.272 66.2344 151.602 65.8259 151.602Z" fill="#2D9596"/>
<path d="M283.754 151.602C283.345 151.602 283.014 151.272 283.014 150.864C283.014 116.837 266.63 84.4054 239.187 64.1114C238.859 63.8683 238.79 63.4063 239.033 63.0787C239.277 62.751 239.74 62.6826 240.069 62.9252C253.55 72.895 264.726 86.0108 272.389 100.855C280.421 116.415 284.494 133.241 284.494 150.864C284.494 151.272 284.162 151.602 283.754 151.602Z" fill="#2D9596"/>
<path d="M233.136 59.8078C233.001 59.8078 232.863 59.7709 232.74 59.6927C230.517 58.2846 228.217 56.9429 225.904 55.7045C225.544 55.5117 225.408 55.0645 225.602 54.7053C225.796 54.3461 226.245 54.2123 226.604 54.4042C228.949 55.6593 231.28 57.0197 233.534 58.447C233.879 58.6654 233.98 59.1215 233.762 59.4654C233.62 59.6868 233.381 59.8078 233.136 59.8078Z" fill="#2D9596"/>
<path d="M221.453 53.3735C221.346 53.3735 221.238 53.3504 221.136 53.3022C206.599 46.4216 191.006 42.9328 174.79 42.9328C162.931 42.9328 151.275 44.8334 140.145 48.5814C139.758 48.7118 139.338 48.5042 139.207 48.1185C139.076 47.7322 139.284 47.3136 139.671 47.1832C150.955 43.3835 162.77 41.4568 174.79 41.4568C191.227 41.4568 207.033 44.9933 221.771 51.9689C222.14 52.1435 222.297 52.5834 222.122 52.9519C221.996 53.2176 221.73 53.3735 221.453 53.3735Z" fill="#2D9596"/>
<path d="M302.005 151.602C301.597 151.602 301.265 151.272 301.265 150.864C301.265 136.974 299.016 123.324 294.582 110.295C294.45 109.909 294.657 109.49 295.044 109.359C295.431 109.228 295.851 109.434 295.983 109.82C300.47 123.003 302.745 136.812 302.745 150.864C302.745 151.272 302.414 151.602 302.005 151.602Z" fill="#2D9596"/>
<path d="M292.629 103.707C292.337 103.707 292.061 103.534 291.944 103.248C283.011 81.4139 268.128 62.5324 248.903 48.6442C248.572 48.4051 248.498 47.9436 248.737 47.6135C248.977 47.2828 249.44 47.21 249.771 47.4486C269.221 61.4987 284.277 80.6011 293.314 102.69C293.468 103.068 293.287 103.498 292.909 103.652C292.816 103.689 292.722 103.707 292.629 103.707Z" fill="#2D9596"/>
<path d="M242.041 43.8876C241.908 43.8876 241.772 43.8517 241.65 43.7755C221.628 31.3161 198.508 24.7306 174.79 24.7306C164.1 24.7306 153.48 26.063 143.225 28.6903C142.829 28.7926 142.426 28.5535 142.324 28.1594C142.223 27.7648 142.461 27.3623 142.857 27.261C153.232 24.6027 163.977 23.2546 174.79 23.2546C198.786 23.2546 222.177 29.9178 242.433 42.5238C242.78 42.7393 242.886 43.1949 242.669 43.5403C242.529 43.7646 242.288 43.8876 242.041 43.8876Z" fill="#2D9596"/>
<path d="M118.854 37.6214C118.58 37.6214 118.317 37.4694 118.189 37.2082C118.009 36.8421 118.16 36.3998 118.527 36.2207C122.434 34.3098 126.485 32.5809 130.565 31.0818C130.949 30.9416 131.374 31.1369 131.515 31.5192C131.657 31.9015 131.46 32.3261 131.076 32.4668C127.043 33.9482 123.04 35.6569 119.178 37.5457C119.075 37.5973 118.963 37.6214 118.854 37.6214Z" fill="#2D9596"/>
<path d="M47.575 151.602C47.1665 151.602 46.835 151.271 46.835 150.864C46.835 128.204 52.8674 105.947 64.2792 86.5002C75.3555 67.6256 91.2068 51.7979 110.12 40.7289C110.472 40.5232 110.926 40.6399 111.133 40.9916C111.34 41.3429 111.222 41.7956 110.869 42.0017C72.2846 64.5845 48.315 106.298 48.315 150.864C48.315 151.271 47.9834 151.602 47.575 151.602Z" fill="#2D9596"/>
</g>
<path d="M199.554 161.616C198.989 161.616 198.427 161.496 197.898 161.256C196.912 160.811 196.162 160.005 195.786 158.988L194.579 155.728C191.932 156.173 189.275 156.096 186.67 155.498L185.219 158.687C184.769 159.678 183.962 160.436 182.949 160.822C181.934 161.209 180.831 161.178 179.846 160.732C177.814 159.812 176.918 157.399 177.849 155.352L179.3 152.163C177.131 150.601 175.323 148.659 173.917 146.379L170.662 147.62C169.646 148.007 168.545 147.975 167.559 147.529C166.574 147.083 165.824 146.277 165.447 145.26C164.671 143.165 165.742 140.811 167.834 140.014L171.096 138.769C170.674 136.11 170.773 133.437 171.393 130.81L168.237 129.384C166.206 128.464 165.31 126.051 166.241 124.003C166.692 123.012 167.498 122.254 168.512 121.867C169.527 121.481 170.63 121.512 171.615 121.958L174.771 123.386C176.344 121.191 178.296 119.356 180.581 117.921L179.37 114.654C178.594 112.558 179.665 110.205 181.757 109.407C182.774 109.019 183.875 109.052 184.86 109.497C185.845 109.943 186.596 110.749 186.973 111.766L188.179 115.026C190.825 114.58 193.482 114.657 196.089 115.256L197.539 112.067C198.47 110.02 200.882 109.102 202.913 110.022C203.898 110.468 204.648 111.274 205.025 112.291C205.401 113.307 205.36 114.411 204.91 115.401L203.459 118.59C205.626 120.151 207.435 122.094 208.842 124.374L212.096 123.133C213.113 122.746 214.214 122.778 215.199 123.224C216.185 123.67 216.935 124.475 217.312 125.492C218.087 127.588 217.017 129.942 214.925 130.739L211.663 131.983C212.085 134.643 211.985 137.316 211.366 139.942L214.521 141.37C216.553 142.289 217.449 144.702 216.518 146.749C215.587 148.796 213.176 149.715 211.144 148.794L207.989 147.367C206.415 149.561 204.463 151.397 202.179 152.831L203.389 156.099C204.165 158.194 203.094 160.548 201.003 161.345C200.531 161.527 200.042 161.616 199.554 161.616ZM195.217 154.61L196.711 158.646C196.995 159.415 197.562 160.024 198.305 160.36C199.049 160.697 199.882 160.721 200.648 160.428C202.237 159.822 203.051 158.033 202.461 156.442L200.971 152.414L201.32 152.204C203.751 150.741 205.8 148.814 207.412 146.473L207.645 146.133L211.551 147.9C213.086 148.596 214.911 147.897 215.619 146.344C216.325 144.792 215.649 142.962 214.112 142.268L210.208 140.5L210.31 140.1C211.016 137.351 211.12 134.543 210.622 131.755L210.55 131.354L214.571 129.821C216.16 129.215 216.974 127.426 216.384 125.834C216.1 125.065 215.533 124.457 214.79 124.121C214.047 123.784 213.215 123.762 212.447 124.053L208.418 125.59L208.206 125.231C206.772 122.801 204.872 120.759 202.559 119.163L202.22 118.929L204.01 114.996C204.352 114.242 204.384 113.403 204.098 112.632C203.814 111.863 203.247 111.254 202.504 110.919C200.968 110.222 199.143 110.921 198.436 112.474L196.647 116.408L196.248 116.307C193.519 115.622 190.728 115.541 187.951 116.066L187.54 116.143L186.046 112.108C185.761 111.339 185.195 110.73 184.451 110.394C183.709 110.058 182.877 110.034 182.109 110.326C180.519 110.932 179.705 112.721 180.295 114.313L181.786 118.341L181.437 118.551C179.005 120.013 176.956 121.941 175.345 124.281L175.112 124.621L171.206 122.854C170.462 122.517 169.631 122.494 168.863 122.786C168.094 123.08 167.481 123.656 167.139 124.409C166.432 125.962 167.108 127.792 168.644 128.487L172.549 130.253L172.447 130.653C171.741 133.403 171.636 136.211 172.135 138.999L172.206 139.399L168.186 140.932C166.596 141.538 165.782 143.327 166.372 144.919C166.656 145.688 167.223 146.297 167.966 146.633C168.71 146.97 169.542 146.993 170.308 146.701L174.338 145.164L174.551 145.523C175.983 147.952 177.883 149.993 180.197 151.591L180.536 151.824L178.747 155.758C178.04 157.311 178.715 159.14 180.252 159.835C180.996 160.172 181.828 160.196 182.595 159.903C183.365 159.609 183.977 159.033 184.32 158.28L186.109 154.346L186.509 154.447C189.237 155.131 192.029 155.211 194.806 154.687L195.217 154.61ZM191.231 150.445C189.182 150.445 187.105 150.021 185.125 149.125C181.482 147.476 178.709 144.497 177.316 140.734C175.923 136.973 176.075 132.88 177.745 129.209C179.416 125.538 182.403 122.727 186.158 121.296C189.914 119.863 193.99 119.982 197.632 121.629C205.149 125.03 208.459 133.964 205.011 141.545C202.471 147.129 196.962 150.445 191.231 150.445ZM191.509 121.286C189.826 121.286 188.137 121.595 186.51 122.215C183 123.554 180.206 126.183 178.645 129.616C177.082 133.05 176.939 136.878 178.242 140.394C179.543 143.908 182.133 146.691 185.533 148.229C192.555 151.407 200.89 148.225 204.113 141.139C207.336 134.053 204.246 125.703 197.225 122.527C195.4 121.701 193.459 121.286 191.509 121.286Z" fill="white"/>
<path d="M150.837 154.404C150.094 154.404 149.396 154.12 148.867 153.603C148.327 153.075 148.028 152.367 148.024 151.61L148.015 149.467C146.355 149.145 144.798 148.528 143.377 147.628L141.86 149.174C141.327 149.716 140.616 150.022 139.859 150.034C139.076 150.059 138.383 149.762 137.842 149.234C137.302 148.706 137.003 147.998 136.999 147.24C136.996 146.485 137.287 145.77 137.82 145.227L139.337 143.682C138.406 142.283 137.756 140.744 137.398 139.097L135.25 139.131C134.503 139.128 133.774 138.858 133.233 138.331C132.693 137.803 132.394 137.095 132.391 136.338C132.384 134.779 133.65 133.49 135.213 133.464L137.37 133.43C137.711 131.768 138.348 130.206 139.269 128.775L137.741 127.283C137.201 126.755 136.902 126.047 136.898 125.289C136.895 124.533 137.186 123.819 137.719 123.276C138.251 122.733 138.962 122.428 139.72 122.416C140.499 122.413 141.196 122.688 141.736 123.216L143.263 124.708C144.679 123.76 146.232 123.093 147.891 122.718L147.881 120.566C147.874 119.007 149.14 117.718 150.704 117.693C151.47 117.693 152.179 117.966 152.719 118.493C153.26 119.021 153.559 119.729 153.563 120.487L153.573 122.629C155.232 122.951 156.788 123.569 158.21 124.468L159.727 122.923V122.923C160.26 122.38 160.97 122.074 161.728 122.063C162.49 122.038 163.204 122.334 163.745 122.862C164.858 123.95 164.868 125.747 163.767 126.869L162.25 128.414C163.181 129.814 163.832 131.353 164.188 133L166.337 132.965C167.11 132.972 167.813 133.238 168.353 133.765C168.894 134.293 169.193 135.001 169.196 135.759C169.204 137.318 167.938 138.607 166.374 138.632L164.217 138.667C163.876 140.329 163.239 141.891 162.319 143.322L163.846 144.813C164.96 145.902 164.969 147.699 163.868 148.82C163.335 149.363 162.625 149.669 161.867 149.68C161.112 149.7 160.391 149.409 159.851 148.881L158.324 147.389C156.908 148.336 155.354 149.004 153.696 149.378L153.706 151.53C153.713 153.09 152.447 154.378 150.884 154.403C150.868 154.403 150.853 154.404 150.837 154.404ZM143.245 146.358L143.586 146.588C145.095 147.608 146.777 148.275 148.586 148.569L148.998 148.636L149.011 151.606C149.014 152.099 149.207 152.558 149.558 152.901C149.901 153.236 150.354 153.42 150.837 153.42C150.848 153.42 150.858 153.42 150.868 153.42C151.894 153.403 152.724 152.558 152.719 151.535L152.706 148.575L153.106 148.497C154.912 148.144 156.589 147.423 158.091 146.354L158.427 146.114L160.541 148.178C160.892 148.521 161.354 148.716 161.851 148.697C162.347 148.69 162.813 148.489 163.162 148.133C163.883 147.4 163.88 146.226 163.154 145.518L161.041 143.454L161.275 143.113C162.315 141.594 163.004 139.907 163.321 138.098L163.391 137.698L166.359 137.65C167.384 137.634 168.215 136.789 168.21 135.766C168.207 135.273 168.013 134.812 167.663 134.47C167.32 134.135 166.867 133.951 166.384 133.951C166.373 133.951 166.363 133.951 166.353 133.951L163.376 133.999L163.3 133.59C162.968 131.794 162.265 130.13 161.211 128.646L160.972 128.31L163.062 126.183C163.782 125.449 163.779 124.276 163.054 123.568C162.704 123.225 162.246 123.018 161.744 123.049C161.248 123.057 160.782 123.258 160.432 123.613V123.614L158.342 125.741L158.002 125.511C156.492 124.491 154.81 123.823 153.002 123.529L152.59 123.462L152.576 120.493C152.574 120 152.38 119.54 152.03 119.197C151.687 118.862 151.234 118.678 150.751 118.678C150.74 118.678 150.73 118.679 150.719 118.679C149.694 118.695 148.864 119.541 148.868 120.563L148.882 123.523L148.482 123.601C146.676 123.954 144.998 124.675 143.497 125.745L143.16 125.984L141.046 123.919C140.696 123.577 140.233 123.391 139.737 123.401C139.241 123.409 138.775 123.609 138.425 123.965C138.075 124.322 137.883 124.79 137.886 125.286C137.888 125.779 138.082 126.238 138.433 126.581L140.546 128.646L140.313 128.986C139.272 130.505 138.583 132.193 138.267 134L138.196 134.401L135.228 134.449C134.203 134.465 133.372 135.311 133.377 136.334C133.38 136.827 133.574 137.286 133.924 137.628C134.274 137.971 134.734 138.146 135.234 138.148L138.21 138.1L138.286 138.509C138.619 140.306 139.322 141.969 140.376 143.453L140.614 143.789L138.524 145.916C138.174 146.272 137.983 146.741 137.985 147.236C137.987 147.729 138.181 148.189 138.532 148.531C138.882 148.874 139.339 149.067 139.841 149.05C140.338 149.042 140.803 148.842 141.154 148.486L143.245 146.358ZM150.68 146.08C148.054 146.08 145.588 145.08 143.717 143.253C139.777 139.404 139.746 133.04 143.648 129.068C145.537 127.144 148.056 126.062 150.742 126.018C153.446 125.967 155.961 126.979 157.87 128.844C159.779 130.709 160.838 133.213 160.85 135.893C160.862 138.571 159.829 141.105 157.939 143.029C156.05 144.953 153.53 146.036 150.845 146.079C150.791 146.08 150.735 146.08 150.68 146.08ZM150.907 127.001C150.857 127.001 150.808 127.001 150.757 127.002C148.334 127.041 146.058 128.019 144.353 129.757C140.831 133.342 140.856 139.08 144.407 142.55C146.127 144.23 148.404 145.121 150.829 145.096C153.253 145.057 155.527 144.079 157.234 142.34H157.234C158.941 140.604 159.875 138.315 159.863 135.898C159.853 133.482 158.899 131.227 157.179 129.547C155.495 127.902 153.273 127.001 150.907 127.001Z" fill="white"/>
<path d="M159.294 194.602C158.894 194.602 158.489 194.533 158.094 194.389C157.22 194.07 156.525 193.431 156.14 192.59C155.754 191.749 155.723 190.807 156.053 189.938L157.063 187.28C155.181 186.123 153.571 184.641 152.269 182.868L149.655 184.059C147.9 184.861 145.824 184.101 145.029 182.367C144.643 181.526 144.612 180.584 144.943 179.715C145.273 178.847 145.922 178.157 146.771 177.769L149.384 176.578C148.892 174.436 148.821 172.252 149.174 170.074L146.498 169.098C145.624 168.779 144.929 168.14 144.544 167.299C144.158 166.458 144.127 165.516 144.458 164.646C145.138 162.857 147.157 161.937 148.958 162.594L151.642 163.574C152.829 161.696 154.342 160.087 156.147 158.782L154.968 156.211C154.583 155.37 154.552 154.428 154.882 153.559C155.212 152.692 155.861 152.001 156.711 151.614C158.466 150.812 160.542 151.572 161.337 153.306L162.516 155.877C164.687 155.371 166.897 155.282 169.097 155.615L170.111 152.949C170.79 151.159 172.809 150.242 174.611 150.896C175.486 151.216 176.18 151.855 176.566 152.696C176.951 153.537 176.982 154.479 176.652 155.348L175.642 158.005C177.524 159.163 179.134 160.645 180.436 162.418L183.05 161.226C183.899 160.838 184.848 160.801 185.721 161.12C186.596 161.439 187.291 162.078 187.676 162.919C188.062 163.76 188.092 164.702 187.762 165.571C187.433 166.438 186.784 167.129 185.934 167.516L183.32 168.708C183.813 170.85 183.884 173.034 183.531 175.212L186.206 176.188C187.082 176.507 187.776 177.147 188.161 177.988C188.547 178.829 188.577 179.771 188.247 180.64C187.567 182.429 185.549 183.347 183.747 182.692L181.063 181.712C179.876 183.589 178.363 185.198 176.558 186.504L177.737 189.075C178.123 189.915 178.153 190.857 177.823 191.727C177.493 192.594 176.844 193.285 175.994 193.672C175.143 194.06 174.195 194.097 173.322 193.779C172.448 193.459 171.753 192.82 171.368 191.979L170.189 189.408C168.018 189.916 165.808 190.004 163.608 189.671L162.595 192.337C162.064 193.734 160.716 194.602 159.294 194.602ZM152.604 181.634L152.839 181.971C154.179 183.889 155.889 185.462 157.921 186.646L158.28 186.856L156.977 190.287C156.741 190.909 156.762 191.582 157.038 192.182C157.313 192.782 157.809 193.237 158.434 193.466C159.729 193.94 161.183 193.276 161.673 191.989L162.973 188.567L163.375 188.637C165.704 189.045 168.049 188.951 170.344 188.358L170.744 188.254L172.265 191.571C172.54 192.171 173.036 192.627 173.661 192.856C174.288 193.085 174.971 193.057 175.583 192.778C176.195 192.499 176.663 192.003 176.9 191.379C177.136 190.757 177.115 190.085 176.839 189.485L175.319 186.168L175.659 185.934C177.61 184.591 179.215 182.883 180.43 180.86L180.64 180.51L184.086 181.768C185.381 182.243 186.835 181.579 187.324 180.292C187.561 179.671 187.539 178.998 187.264 178.398C186.989 177.797 186.493 177.341 185.867 177.113L182.412 175.852L182.488 175.443C182.919 173.135 182.845 170.817 182.267 168.551L182.165 168.153L185.523 166.622C186.135 166.343 186.603 165.846 186.84 165.223C187.076 164.602 187.054 163.929 186.779 163.329C186.504 162.729 186.008 162.272 185.382 162.044C184.755 161.815 184.073 161.842 183.46 162.121L180.102 163.653L179.867 163.315C178.527 161.398 176.817 159.825 174.785 158.64L174.425 158.43L175.729 154.999C175.965 154.377 175.944 153.705 175.669 153.105C175.393 152.505 174.898 152.048 174.272 151.82C172.976 151.346 171.522 152.01 171.034 153.297L169.732 156.719L169.331 156.649C167.002 156.241 164.657 156.336 162.362 156.928L161.962 157.031L160.442 153.715C159.873 152.475 158.384 151.932 157.122 152.508C156.51 152.787 156.042 153.284 155.806 153.907C155.569 154.529 155.591 155.201 155.866 155.802L157.387 159.118L157.047 159.352C155.096 160.696 153.49 162.403 152.275 164.426L152.066 164.776L148.62 163.518C147.323 163.044 145.87 163.707 145.382 164.995C145.145 165.616 145.166 166.289 145.442 166.889C145.717 167.489 146.213 167.945 146.838 168.173L150.293 169.434L150.217 169.843C149.786 172.151 149.86 174.469 150.438 176.734L150.54 177.132L147.182 178.663C146.57 178.942 146.103 179.439 145.866 180.063C145.63 180.684 145.651 181.357 145.926 181.956C146.495 183.197 147.984 183.737 149.245 183.164L152.604 181.634ZM166.266 185.243C161.456 185.243 156.866 182.531 154.758 177.931C151.866 171.625 154.716 164.122 161.109 161.206C167.505 158.29 175.058 161.05 177.949 167.356C179.35 170.413 179.46 173.835 178.26 176.996C177.059 180.153 174.694 182.669 171.597 184.081C169.867 184.869 168.051 185.243 166.266 185.243ZM166.441 161.027C164.793 161.027 163.118 161.372 161.519 162.101C155.62 164.791 152.989 171.708 155.654 177.522C158.32 183.335 165.288 185.875 171.186 183.186C174.045 181.883 176.229 179.56 177.336 176.647C178.443 173.735 178.342 170.581 177.051 167.766C175.108 163.527 170.877 161.027 166.441 161.027Z" fill="white"/>
<path d="M122.033 67.7276L107.61 64.3132C106.926 64.1508 106.502 63.4659 106.665 62.7835L109.385 51.3553C109.548 50.6725 110.234 50.2503 110.919 50.4127L125.342 53.8272C126.027 53.989 126.45 54.6739 126.287 55.3568L123.567 66.785C123.405 67.4674 122.718 67.8895 122.033 67.7276Z" fill="#265073"/>
<path d="M122.327 68.5C122.174 68.5 122.018 68.4823 121.863 68.4454H121.862L107.44 65.0309C106.36 64.7751 105.689 63.6907 105.945 62.6127L108.666 51.184C108.923 50.1071 110.012 49.4384 111.09 49.6938L125.513 53.1083C126.593 53.3641 127.264 54.449 127.008 55.5264L124.286 66.9546C124.067 67.8771 123.239 68.5 122.327 68.5ZM122.204 67.0092C122.493 67.0771 122.779 66.8995 122.846 66.6142L125.568 55.186C125.636 54.9001 125.458 54.6123 125.171 54.5449L110.748 51.1304C110.463 51.0606 110.173 51.2401 110.105 51.526L107.385 62.9537C107.317 63.2395 107.495 63.5268 107.781 63.5947L122.204 67.0092Z" fill="#233863"/>
<path d="M115.303 61.7704C115.22 61.7704 115.136 61.7611 115.052 61.7434C114.746 61.677 114.485 61.4954 114.317 61.2322L112.504 58.3914C112.285 58.0475 112.386 57.5914 112.731 57.3724C113.075 57.1545 113.532 57.2549 113.752 57.5988L115.395 60.1734L121.517 56.2379C121.859 56.0165 122.318 56.1149 122.54 56.4583C122.761 56.8007 122.662 57.2573 122.319 57.4782L115.933 61.584C115.743 61.707 115.525 61.7704 115.303 61.7704Z" fill="white"/>
<path d="M246.332 68.8047L231.599 70.4377C230.9 70.5154 230.27 70.0126 230.192 69.3154L228.891 57.6417C228.813 56.9446 229.317 56.3163 230.017 56.2385L244.749 54.6056C245.449 54.5278 246.078 55.0307 246.156 55.7278L247.457 67.4015C247.535 68.0992 247.031 68.7275 246.332 68.8047Z" fill="#2D9596"/>
<path d="M231.454 71.184C231 71.184 230.561 71.031 230.2 70.7436C229.78 70.4086 229.516 69.9304 229.456 69.397L228.155 57.7229C228.033 56.6218 228.831 55.627 229.935 55.5049L244.667 53.872C245.774 53.7485 246.768 54.546 246.892 55.6456L248.193 67.3203C248.316 68.4214 247.517 69.4162 246.413 69.5382L231.681 71.1712C231.605 71.1796 231.529 71.184 231.454 71.184ZM244.89 55.3357C244.871 55.3357 244.851 55.3367 244.831 55.3391L230.099 56.9721C229.806 57.0045 229.595 57.2683 229.627 57.56L230.928 69.2342C230.943 69.3754 231.014 69.5023 231.125 69.5914C231.236 69.6804 231.377 69.7198 231.518 69.7045L246.25 68.0716C246.542 68.0391 246.754 67.7754 246.722 67.4837L245.421 55.81C245.391 55.5374 245.159 55.3357 244.89 55.3357Z" fill="#233863"/>
<path d="M237.584 65.527C237.326 65.527 237.078 65.4423 236.871 65.2824L234.205 63.2185C233.882 62.9686 233.824 62.5046 234.074 62.1828C234.324 61.8611 234.79 61.8025 235.113 62.0525L237.53 63.9245L241.963 58.1622C242.212 57.839 242.676 57.7775 243.001 58.0259C243.325 58.2739 243.386 58.7374 243.137 59.0606L238.512 65.0723C238.322 65.3198 238.046 65.4782 237.735 65.5181C237.685 65.5235 237.635 65.527 237.584 65.527Z" fill="white"/>
<path d="M69.0315 83.5016C71.2556 83.5016 73.0586 81.7035 73.0586 79.4854C73.0586 77.2673 71.2556 75.4692 69.0315 75.4692C66.8074 75.4692 65.0044 77.2673 65.0044 79.4854C65.0044 81.7035 66.8074 83.5016 69.0315 83.5016Z" fill="#2D9596"/>
<path d="M174.56 28.009C176.784 28.009 178.587 26.2108 178.587 23.9928C178.587 21.7747 176.784 19.9766 174.56 19.9766C172.336 19.9766 170.533 21.7747 170.533 23.9928C170.533 26.2108 172.336 28.009 174.56 28.009Z" fill="#2D9596"/>
<path d="M94.7852 78.5831C94.7852 79.4254 94.1005 80.1088 93.2554 80.1088C92.4103 80.1088 91.7256 79.4259 91.7256 78.5831C91.7256 77.7408 92.4103 77.0574 93.2554 77.0574C94.1005 77.0574 94.7852 77.7403 94.7852 78.5831Z" fill="#2D9596"/>
<path d="M270.897 65.2129C270.897 66.0553 270.212 66.7386 269.367 66.7386C268.522 66.7386 267.837 66.0557 267.837 65.2129C267.837 64.3706 268.522 63.6873 269.367 63.6873C270.212 63.6873 270.897 64.3702 270.897 65.2129Z" fill="#2D9596"/>
<path d="M123.998 36.4552C124.843 36.4552 125.528 35.7721 125.528 34.9295C125.528 34.0869 124.843 33.4038 123.998 33.4038C123.153 33.4038 122.468 34.0869 122.468 34.9295C122.468 35.7721 123.153 36.4552 123.998 36.4552Z" fill="#2D9596"/>
<path d="M73.6387 108.555C74.4836 108.555 75.1685 107.872 75.1685 107.03C75.1685 106.187 74.4836 105.504 73.6387 105.504C72.7938 105.504 72.1089 106.187 72.1089 107.03C72.1089 107.872 72.7938 108.555 73.6387 108.555Z" fill="#265073"/>
<path d="M279.153 121.692C279.998 121.692 280.683 121.009 280.683 120.166C280.683 119.323 279.998 118.64 279.153 118.64C278.308 118.64 277.623 119.323 277.623 120.166C277.623 121.009 278.308 121.692 279.153 121.692Z" fill="#265073"/>
<path d="M304.631 139.11C304.631 140.662 303.369 141.92 301.814 141.92C300.258 141.92 298.996 140.662 298.996 139.11C298.996 137.559 300.258 136.301 301.814 136.301C303.369 136.301 304.631 137.559 304.631 139.11Z" fill="#265073"/>
<path d="M215.484 48.4482C215.484 50.2834 213.992 51.7712 212.152 51.7712C210.312 51.7712 208.82 50.2834 208.82 48.4482C208.82 46.6131 210.312 45.1252 212.152 45.1252C213.992 45.1257 215.484 46.6131 215.484 48.4482Z" fill="#265073"/>
<path d="M130.827 188.518L77.9968 188.629C73.9426 188.637 70.618 185.336 70.6096 181.293L70.5371 146.985C70.5287 142.941 73.839 139.626 77.8932 139.618L130.723 139.507C134.778 139.498 138.102 142.8 138.11 146.843L138.183 181.151C138.192 185.194 134.881 188.51 130.827 188.518Z" fill="#2D9596"/>
<path d="M77.9808 189.367C73.5156 189.368 69.8788 185.749 69.8694 181.294L69.7979 146.986C69.788 142.526 73.4194 138.889 77.8925 138.879L130.723 138.768C130.728 138.768 130.733 138.768 130.739 138.768C135.205 138.768 138.842 142.386 138.851 146.841L138.923 181.149C138.928 183.302 138.086 185.333 136.553 186.868C135.02 188.403 132.986 189.251 130.828 189.255L77.9981 189.366C77.9921 189.367 77.9867 189.367 77.9808 189.367ZM130.738 140.245C130.734 140.245 130.729 140.245 130.725 140.245L77.8949 140.355C74.2384 140.363 71.2695 143.337 71.2774 146.984L71.3489 181.292C71.3568 184.934 74.3306 187.892 77.9803 187.892C77.9852 187.892 77.9902 187.892 77.9946 187.892L130.825 187.781C132.588 187.777 134.249 187.083 135.503 185.828C136.758 184.572 137.446 182.912 137.442 181.153L137.37 146.845C137.363 143.203 134.39 140.245 130.738 140.245Z" fill="#233863"/>
<path opacity="0.24" d="M130.827 188.518L77.9968 188.629C73.9426 188.637 70.618 185.336 70.6096 181.293L70.5371 146.985C70.5287 142.941 73.839 139.626 77.8932 139.618L130.723 139.507C134.778 139.498 138.102 142.8 138.11 146.843L138.183 181.151C138.192 185.194 134.881 188.51 130.827 188.518Z" fill="#233863"/>
<path d="M127.856 180.864L104.592 158.621C104.341 158.381 104.333 157.983 104.574 157.733L134.77 126.321C135.011 126.071 135.41 126.063 135.661 126.303L158.925 148.546C159.176 148.786 159.184 149.184 158.943 149.434L128.747 180.845C128.506 181.096 128.107 181.104 127.856 180.864Z" fill="white"/>
<path d="M128.291 181.777C127.936 181.777 127.601 181.643 127.344 181.397C127.343 181.397 127.343 181.397 127.343 181.397L104.08 159.154C103.816 158.901 103.666 158.561 103.659 158.197C103.651 157.831 103.786 157.486 104.04 157.222L134.236 125.811C134.76 125.266 135.628 125.249 136.174 125.77L159.437 148.013C159.982 148.536 160.001 149.402 159.477 149.946L129.281 181.356C129.028 181.62 128.687 181.77 128.321 181.777C128.311 181.777 128.302 181.777 128.291 181.777ZM128.368 180.331C128.368 180.331 128.368 180.331 128.368 180.331ZM105.184 158.164L128.289 180.255L158.333 149.003L135.228 126.911L105.184 158.164Z" fill="#233863"/>
<path d="M152.056 149.261C151.933 149.261 151.81 149.215 151.715 149.124L142.956 140.75C142.76 140.562 142.753 140.25 142.942 140.054C143.131 139.859 143.443 139.852 143.64 140.04L152.398 148.414C152.594 148.602 152.601 148.913 152.412 149.11C152.315 149.21 152.186 149.261 152.056 149.261Z" fill="#265073"/>
<path d="M147.654 155.025C147.531 155.025 147.408 154.979 147.313 154.888L129.796 138.14C129.599 137.952 129.593 137.64 129.781 137.444C129.97 137.249 130.283 137.242 130.479 137.43L147.996 154.178C148.192 154.366 148.199 154.678 148.01 154.874C147.913 154.974 147.784 155.025 147.654 155.025Z" fill="#233863"/>
<path d="M141.944 160.965C141.821 160.965 141.698 160.919 141.603 160.828L124.086 144.079C123.889 143.891 123.883 143.58 124.072 143.383C124.26 143.188 124.572 143.181 124.769 143.369L142.286 160.118C142.482 160.306 142.489 160.617 142.3 160.813C142.204 160.914 142.074 160.965 141.944 160.965Z" fill="#233863"/>
<path d="M136.571 166.555C136.448 166.555 136.325 166.509 136.23 166.418L118.712 149.669C118.516 149.481 118.509 149.17 118.698 148.973C118.886 148.778 119.199 148.771 119.396 148.959L136.913 165.708C137.109 165.896 137.116 166.207 136.927 166.404C136.83 166.504 136.7 166.555 136.571 166.555Z" fill="#233863"/>
<path d="M130.861 172.495C130.738 172.495 130.615 172.449 130.519 172.358L113.002 155.609C112.806 155.421 112.799 155.11 112.988 154.913C113.176 154.718 113.488 154.712 113.685 154.899L131.202 171.648C131.399 171.836 131.406 172.147 131.217 172.344C131.12 172.443 130.99 172.495 130.861 172.495Z" fill="#233863"/>
<path d="M114.461 152.507L84.6263 164.662C84.3041 164.793 83.9361 164.639 83.8049 164.318L67.3039 124.034C67.1722 123.713 67.3266 123.346 67.6487 123.215L97.483 111.06C97.8052 110.929 98.1732 111.083 98.3044 111.404L114.805 151.687C114.937 152.009 114.783 152.375 114.461 152.507Z" fill="white"/>
<path d="M84.3881 165.447C84.2085 165.447 84.0285 165.411 83.8578 165.339C83.5198 165.198 83.2579 164.935 83.1198 164.597L66.6187 124.313C66.4801 123.976 66.4821 123.604 66.6237 123.267C66.7653 122.931 67.0302 122.669 67.3696 122.531L97.2034 110.376C97.905 110.092 98.7042 110.427 98.9898 111.124L115.491 151.408C115.776 152.105 115.44 152.904 114.741 153.19C114.741 153.19 114.74 153.19 114.74 153.19L84.9061 165.345C84.7389 165.413 84.5637 165.447 84.3881 165.447ZM68.0302 123.856L84.4483 163.937L114.079 151.865L97.6608 111.784L68.0302 123.856Z" fill="#233863"/>
<path d="M93.2563 126.346C93.0625 126.346 92.8775 126.23 92.7995 126.04C92.6964 125.788 92.8173 125.501 93.0699 125.398L98.2 123.307C98.4497 123.204 98.7397 123.325 98.8433 123.577C98.9464 123.828 98.8256 124.116 98.573 124.219L93.4428 126.309C93.3821 126.334 93.3185 126.346 93.2563 126.346Z" fill="#233863"/>
<path d="M79.0425 141.025C78.8481 141.025 78.6636 140.91 78.5856 140.719C78.4825 140.467 78.6034 140.18 78.856 140.077L101.32 130.925C101.57 130.821 101.86 130.942 101.963 131.194C102.066 131.446 101.945 131.733 101.693 131.836L79.2289 140.988C79.1683 141.013 79.1046 141.025 79.0425 141.025Z" fill="#233863"/>
<path d="M94.7002 140.693C94.5058 140.693 94.3213 140.578 94.2434 140.387C94.1402 140.135 94.2611 139.848 94.5137 139.745L103.443 136.108C103.695 136.004 103.983 136.125 104.086 136.377C104.189 136.629 104.069 136.916 103.816 137.019L94.8867 140.657C94.8255 140.681 94.7623 140.693 94.7002 140.693Z" fill="#265073"/>
<path d="M81.165 146.207C80.9712 146.207 80.7866 146.092 80.7082 145.901C80.6051 145.65 80.726 145.363 80.9785 145.26L86.4442 143.033C86.6943 142.93 86.9844 143.051 87.0875 143.303C87.1906 143.554 87.0697 143.841 86.8172 143.944L81.3515 146.171C81.2908 146.196 81.2272 146.207 81.165 146.207Z" fill="#265073"/>
<path d="M82.9282 152.25C82.7338 152.25 82.5493 152.135 82.4714 151.944C82.3683 151.693 82.4891 151.406 82.7417 151.303L96.5782 145.665C96.8284 145.562 97.1184 145.683 97.2216 145.935C97.3247 146.186 97.2038 146.474 96.9512 146.577L83.1147 152.214C83.054 152.239 82.9904 152.25 82.9282 152.25Z" fill="#233863"/>
<path d="M90.7359 130.079L78.8066 135.234C78.3054 135.45 77.7232 135.22 77.5062 134.721L71.9616 121.958C71.7445 121.459 71.9749 120.878 72.4756 120.661L84.4049 115.507C84.9062 115.29 85.4883 115.52 85.7054 116.019L91.2499 128.782C91.4675 129.282 91.2371 129.862 90.7359 130.079Z" fill="#265073"/>
<path d="M78.4146 135.807C78.2301 135.807 78.0456 135.773 77.8695 135.703C77.501 135.558 77.2119 135.278 77.0545 134.916L71.5099 122.153C71.3531 121.791 71.3461 121.389 71.4917 121.022C71.6372 120.655 71.9174 120.366 72.281 120.209L84.2103 115.055C84.9602 114.731 85.8349 115.075 86.1595 115.824L91.704 128.586C91.8609 128.948 91.8678 129.35 91.7223 129.717C91.5768 130.084 91.2965 130.373 90.933 130.53C90.933 130.53 90.933 130.53 90.933 130.53L79.0037 135.685C78.8142 135.766 78.6144 135.807 78.4146 135.807ZM84.7979 115.918C84.7323 115.918 84.6652 115.93 84.6015 115.958L72.6722 121.113C72.5509 121.165 72.4571 121.262 72.4088 121.385C72.3599 121.507 72.3619 121.642 72.4147 121.763L77.9598 134.526C78.0121 134.647 78.1088 134.74 78.2321 134.788C78.3544 134.838 78.4891 134.834 78.6115 134.782L90.5408 129.627C90.6621 129.575 90.7554 129.478 90.8042 129.356C90.853 129.233 90.8511 129.099 90.7983 128.978L85.2537 116.215C85.1723 116.029 84.9898 115.918 84.7979 115.918Z" fill="#233863"/>
<path d="M78.0139 123.318C77.8689 123.318 77.7234 123.291 77.5847 123.236C77.2947 123.121 77.0667 122.902 76.9429 122.616L76.2927 121.12C76.2389 120.995 76.2962 120.85 76.421 120.796C76.5468 120.742 76.6913 120.8 76.7456 120.924L77.3958 122.421C77.4673 122.586 77.5986 122.713 77.7658 122.779C77.9345 122.845 78.1166 122.842 78.2808 122.77L78.3908 122.723C78.6538 122.609 78.7752 122.303 78.6612 122.041L77.0154 118.253C76.898 117.982 76.5808 117.858 76.3085 117.974L76.1215 118.055C75.8324 118.18 75.6992 118.516 75.824 118.804L75.8645 118.897C75.9188 119.022 75.862 119.166 75.7372 119.22C75.6134 119.275 75.4669 119.218 75.4126 119.093L75.3717 119C75.1378 118.462 75.3864 117.836 75.9252 117.603L76.1121 117.522C76.6321 117.298 77.2419 117.537 77.4678 118.056L79.1136 121.845C79.3351 122.356 79.0993 122.952 78.5867 123.174L78.4767 123.221C78.3287 123.286 78.1713 123.318 78.0139 123.318Z" fill="#233863"/>
<path d="M85.0117 117.728C85.4172 118.139 85.4108 118.801 84.9978 119.205C84.5849 119.61 83.9214 119.604 83.5159 119.192C83.1104 118.78 83.1168 118.118 83.5297 117.714C83.9426 117.309 84.6061 117.315 85.0117 117.728Z" fill="white"/>
<path d="M142.658 120.206L112.993 132.766C112.673 132.902 112.303 132.753 112.166 132.433L95.1158 92.3777C94.9796 92.0584 95.1291 91.6894 95.4498 91.5536L125.115 78.9938C125.435 78.858 125.805 79.0071 125.941 79.3269L142.992 119.382C143.128 119.701 142.978 120.07 142.658 120.206Z" fill="white"/>
<path d="M112.747 133.554C112.573 133.554 112.4 133.521 112.234 133.454C111.895 133.318 111.629 133.057 111.486 132.721L94.4346 92.666C94.1396 91.9728 94.4647 91.1694 95.1603 90.8747L124.826 78.3149C125.162 78.1722 125.535 78.1693 125.875 78.3056C126.214 78.4423 126.48 78.7031 126.623 79.0391L143.674 119.094C143.817 119.43 143.82 119.801 143.683 120.139C143.546 120.478 143.285 120.743 142.948 120.886L113.283 133.445C113.11 133.518 112.929 133.554 112.747 133.554ZM95.8401 92.1903L112.805 132.044L142.268 119.569L125.303 79.7161L95.8401 92.1903Z" fill="#233863"/>
<path d="M121.091 94.3359C120.9 94.3359 120.717 94.2232 120.637 94.0357C120.531 93.7858 120.647 93.497 120.899 93.3907L126 91.2309C126.248 91.1256 126.54 91.2407 126.647 91.4916C126.753 91.7416 126.636 92.0304 126.385 92.1366L121.284 94.2965C121.221 94.3231 121.156 94.3359 121.091 94.3359Z" fill="#233863"/>
<path d="M107.079 109.207C106.887 109.207 106.705 109.094 106.625 108.907C106.518 108.657 106.635 108.368 106.886 108.262L129.223 98.8047C129.472 98.6989 129.764 98.8151 129.871 99.0655C129.977 99.3154 129.86 99.6042 129.609 99.7105L107.272 109.168C107.209 109.194 107.144 109.207 107.079 109.207Z" fill="#233863"/>
<path d="M122.732 108.663C122.54 108.663 122.357 108.55 122.277 108.362C122.171 108.112 122.288 107.824 122.539 107.717L131.417 103.958C131.666 103.852 131.957 103.968 132.064 104.219C132.171 104.469 132.053 104.758 131.802 104.864L122.924 108.623C122.862 108.65 122.796 108.663 122.732 108.663Z" fill="#265073"/>
<path d="M109.273 114.36C109.081 114.36 108.899 114.248 108.819 114.061C108.712 113.811 108.829 113.521 109.08 113.415L114.515 111.114C114.764 111.009 115.055 111.124 115.162 111.375C115.269 111.625 115.152 111.914 114.901 112.02L109.466 114.321C109.403 114.348 109.337 114.36 109.273 114.36Z" fill="#265073"/>
<path d="M111.119 120.379C110.927 120.379 110.744 120.267 110.664 120.079C110.558 119.829 110.675 119.54 110.926 119.434L124.684 113.608C124.934 113.503 125.225 113.619 125.331 113.869C125.438 114.119 125.321 114.408 125.07 114.515L111.311 120.34C111.249 120.367 111.183 120.379 111.119 120.379Z" fill="#233863"/>
<path d="M127.494 162.925L95.6308 158.104C95.287 158.052 95.0502 157.732 95.1025 157.389L101.648 114.366C101.7 114.023 102.021 113.787 102.365 113.839L134.228 118.66C134.572 118.712 134.808 119.032 134.756 119.375L128.211 162.398C128.159 162.741 127.838 162.977 127.494 162.925Z" fill="#2D9596"/>
<path d="M127.591 163.671C127.522 163.671 127.452 163.666 127.383 163.655L95.5199 158.834C95.1583 158.779 94.8386 158.587 94.622 158.292C94.405 157.998 94.3157 157.638 94.3709 157.276L100.916 114.255C100.97 113.894 101.163 113.576 101.458 113.36C101.752 113.144 102.114 113.054 102.475 113.108L134.339 117.93C134.7 117.984 135.02 118.176 135.236 118.47C135.453 118.765 135.543 119.125 135.488 119.486L128.943 162.509C128.888 162.87 128.696 163.188 128.401 163.404C128.163 163.579 127.881 163.671 127.591 163.671ZM95.8505 157.391L127.496 162.179L134.008 119.372L102.362 114.584L95.8505 157.391Z" fill="#233863"/>
<path d="M112.594 121.508C112.57 121.508 112.544 121.506 112.52 121.502L106.403 120.577C106.134 120.536 105.949 120.285 105.99 120.016C106.031 119.748 106.283 119.561 106.552 119.604L112.668 120.529C112.938 120.57 113.123 120.821 113.082 121.09C113.044 121.333 112.834 121.508 112.594 121.508Z" fill="white"/>
<path d="M128.473 130.52C128.449 130.52 128.423 130.518 128.399 130.514L121.375 129.451C121.106 129.411 120.921 129.16 120.962 128.891C121.003 128.622 121.253 128.436 121.524 128.478L128.547 129.541C128.817 129.581 129.002 129.832 128.961 130.101C128.923 130.345 128.713 130.52 128.473 130.52Z" fill="#233863"/>
<path d="M116.477 128.705C116.452 128.705 116.427 128.703 116.402 128.699L104.406 126.884C104.137 126.844 103.952 126.593 103.993 126.324C104.034 126.055 104.284 125.869 104.555 125.912L116.551 127.727C116.82 127.767 117.005 128.018 116.964 128.287C116.927 128.53 116.717 128.705 116.477 128.705Z" fill="white"/>
<path d="M116.911 137.093C116.886 137.093 116.861 137.091 116.836 137.087L103.169 135.019C102.899 134.979 102.714 134.728 102.755 134.459C102.796 134.19 103.047 134.005 103.317 134.047L116.985 136.115C117.254 136.155 117.439 136.406 117.398 136.675C117.361 136.918 117.151 137.093 116.911 137.093Z" fill="#233863"/>
<path d="M126.07 146.312C126.046 146.312 126.021 146.31 125.996 146.306L102.004 142.676C101.734 142.636 101.549 142.385 101.59 142.116C101.631 141.847 101.882 141.662 102.152 141.703L126.144 145.333C126.414 145.374 126.599 145.625 126.558 145.894C126.52 146.137 126.311 146.312 126.07 146.312Z" fill="white"/>
<path d="M114.332 152.858C114.308 152.858 114.283 152.856 114.258 152.852L100.766 150.812C100.497 150.771 100.312 150.52 100.353 150.251C100.393 149.983 100.64 149.798 100.915 149.839L114.406 151.88C114.676 151.92 114.861 152.171 114.82 152.44C114.783 152.684 114.573 152.858 114.332 152.858Z" fill="white"/>
<path d="M132.778 194.641L76.0447 194.759C73.0635 194.766 70.6196 192.338 70.6131 189.365L70.5327 151.165C70.5263 148.191 72.9604 145.754 75.9416 145.748L132.674 145.629C135.656 145.622 138.1 148.05 138.106 151.023L138.186 189.223C138.193 192.196 135.759 194.634 132.778 194.641Z" fill="white"/>
<path d="M76.0336 195.252C74.4648 195.252 72.9853 194.64 71.8659 193.528C70.7435 192.413 70.1239 190.935 70.1205 189.366L70.0401 151.166C70.0366 149.597 70.6503 148.116 71.7682 146.996C72.8856 145.877 74.3681 145.259 75.9413 145.256L132.674 145.137C132.679 145.137 132.683 145.137 132.686 145.137C135.942 145.137 138.594 147.774 138.6 151.022L138.68 189.223C138.687 192.474 136.04 195.126 132.779 195.133L76.0459 195.252C76.042 195.252 76.037 195.252 76.0336 195.252ZM132.686 146.121C132.682 146.121 132.679 146.121 132.676 146.121L75.9428 146.24C74.633 146.243 73.3982 146.758 72.4668 147.691C71.5349 148.624 71.0233 149.857 71.0262 151.164L71.1066 189.364C71.1096 190.67 71.6261 191.902 72.5615 192.831C73.4949 193.758 74.7272 194.268 76.0331 194.268C76.0365 194.268 76.0405 194.268 76.0434 194.268L132.776 194.149C135.493 194.143 137.699 191.934 137.693 189.225L137.613 151.024C137.607 148.319 135.398 146.121 132.686 146.121Z" fill="#233863"/>
<path d="M133.242 136.438L118.932 136.468C116.279 136.474 114.112 138.643 114.118 141.289L114.133 148.119L77.8883 148.195C73.8341 148.203 70.5234 151.518 70.5322 155.562L70.6043 189.87C70.6127 193.913 73.9372 197.215 77.9914 197.206L130.822 197.095C134.876 197.087 138.186 193.771 138.178 189.728L138.107 156.123L138.106 155.421L138.076 141.24C138.071 138.593 135.895 136.433 133.242 136.438Z" fill="#2D9596"/>
<path d="M77.9764 197.944C73.5112 197.944 69.8739 194.326 69.8645 189.871L69.7925 155.563C69.7826 151.103 73.4141 147.466 77.8871 147.457L113.391 147.382L113.379 141.291C113.375 139.814 113.953 138.421 115.004 137.368C116.055 136.315 117.45 135.734 118.931 135.73L133.241 135.7C133.245 135.7 133.249 135.7 133.252 135.7C136.315 135.7 138.81 138.181 138.816 141.238L138.918 189.727C138.927 194.187 135.296 197.824 130.824 197.833L77.9932 197.945C77.9873 197.944 77.9818 197.944 77.9764 197.944ZM133.243 137.177L118.933 137.207C117.848 137.209 116.824 137.636 116.052 138.41C115.279 139.183 114.855 140.205 114.858 141.288L114.872 148.118C114.872 148.313 114.795 148.501 114.656 148.64C114.518 148.779 114.33 148.857 114.133 148.857L77.8891 148.933C74.2325 148.941 71.2636 151.914 71.2715 155.561L71.3435 189.869C71.3514 193.511 74.3252 196.469 77.9754 196.469C77.9799 196.469 77.9843 196.469 77.9887 196.469L130.819 196.357C134.475 196.35 137.444 193.377 137.437 189.73L137.335 141.241C137.33 138.998 135.499 137.176 133.251 137.176C133.249 137.177 133.246 137.177 133.243 137.177Z" fill="#233863"/>
<path opacity="0.12" d="M132.745 141.91L119.941 141.937C117.567 141.942 115.629 143.884 115.634 146.252L115.647 152.364L83.2173 152.432C79.5898 152.439 76.6279 155.406 76.6353 159.025L76.6999 189.728C76.7073 193.347 79.6816 196.301 83.3096 196.293L130.579 196.194C134.207 196.187 137.169 193.22 137.161 189.601L137.098 159.527L137.097 158.898L137.07 146.207C137.065 143.839 135.118 141.905 132.745 141.91Z" fill="white"/>
<path d="M133.489 190.021C133.489 191.348 132.41 192.423 131.08 192.423C129.749 192.423 128.671 191.348 128.671 190.021C128.671 188.694 129.749 187.618 131.08 187.618C132.41 187.618 133.489 188.694 133.489 190.021Z" fill="white"/>
<path d="M135.173 149.41C134.9 149.41 134.679 149.19 134.679 148.918V142.379C134.679 141.282 133.703 140.389 132.503 140.389H127.725C127.452 140.389 127.232 140.169 127.232 139.897C127.232 139.624 127.452 139.405 127.725 139.405H132.503C134.247 139.405 135.666 140.739 135.666 142.379V148.918C135.666 149.19 135.445 149.41 135.173 149.41Z" fill="white"/>
<path d="M99.8847 168.812C99.5661 168.812 99.2469 168.689 99.0051 168.444C98.5276 167.96 98.5345 167.181 99.0199 166.705L104.817 161.021L110.522 166.712C111.004 167.193 111.004 167.971 110.522 168.451C110.041 168.932 109.26 168.932 108.779 168.451L104.802 164.485L100.749 168.459C100.509 168.695 100.197 168.812 99.8847 168.812Z" fill="white"/>
<path d="M104.768 176.432C104.087 176.432 103.535 175.881 103.535 175.202V162.754C103.535 162.074 104.087 161.524 104.768 161.524C105.45 161.524 106.002 162.074 106.002 162.754V175.202C106.002 175.881 105.45 176.432 104.768 176.432Z" fill="white"/>
<path d="M113.848 182.343H95.5438C94.0815 182.343 92.8916 181.156 92.8916 179.698V173.066C92.8916 172.386 93.4436 171.836 94.1249 171.836C94.8062 171.836 95.3583 172.386 95.3583 173.066V179.698C95.3583 179.8 95.4416 179.883 95.5438 179.883H113.848C114.029 179.883 114.177 179.736 114.177 179.555V173.066C114.177 172.386 114.729 171.836 115.41 171.836C116.092 171.836 116.644 172.386 116.644 173.066V179.555C116.644 181.092 115.39 182.343 113.848 182.343Z" fill="white"/>
<path d="M267.464 188.519L214.634 188.629C210.579 188.638 207.255 185.336 207.246 181.293L207.174 146.985C207.166 142.942 210.476 139.626 214.53 139.618L267.361 139.507C271.415 139.499 274.739 142.8 274.748 146.843L274.82 181.151C274.828 185.195 271.518 188.51 267.464 188.519Z" fill="#2D9596"/>
<path d="M214.617 189.367C212.465 189.367 210.435 188.528 208.9 187.004C207.361 185.475 206.511 183.447 206.506 181.295L206.434 146.986C206.424 142.526 210.056 138.889 214.528 138.879L267.359 138.769C267.364 138.769 267.37 138.769 267.375 138.769C271.84 138.769 275.478 142.387 275.487 146.841L275.559 181.149C275.568 185.609 271.937 189.246 267.464 189.256L214.634 189.366C214.628 189.367 214.622 189.367 214.617 189.367ZM267.375 140.245C267.371 140.245 267.366 140.245 267.362 140.245L214.531 140.356C210.875 140.364 207.906 143.337 207.914 146.984L207.986 181.292C207.99 183.051 208.686 184.708 209.945 185.958C211.201 187.205 212.859 187.892 214.618 187.892C214.622 187.892 214.627 187.892 214.632 187.892L267.462 187.781C269.225 187.777 270.887 187.083 272.141 185.828C273.395 184.572 274.084 182.912 274.08 181.153L274.008 146.845C274 143.203 271.025 140.245 267.375 140.245Z" fill="#233863"/>
<path d="M267.464 188.519L214.634 188.629C210.579 188.638 207.255 185.336 207.246 181.293L207.174 146.985C207.166 142.942 210.476 139.626 214.53 139.618L267.361 139.507C271.415 139.499 274.739 142.8 274.748 146.843L274.82 181.151C274.828 185.195 271.518 188.51 267.464 188.519Z" fill="#265073"/>
<path d="M214.617 189.367C212.465 189.367 210.435 188.528 208.9 187.004C207.361 185.475 206.511 183.447 206.506 181.295L206.434 146.986C206.424 142.526 210.056 138.889 214.528 138.879L267.359 138.769C267.364 138.769 267.37 138.769 267.375 138.769C271.84 138.769 275.478 142.387 275.487 146.841L275.559 181.149C275.568 185.609 271.937 189.246 267.464 189.256L214.634 189.366C214.628 189.367 214.622 189.367 214.617 189.367ZM267.375 140.245C267.371 140.245 267.366 140.245 267.362 140.245L214.531 140.356C210.875 140.364 207.906 143.337 207.914 146.984L207.986 181.292C207.99 183.051 208.686 184.708 209.945 185.958C211.201 187.205 212.859 187.892 214.618 187.892C214.622 187.892 214.627 187.892 214.632 187.892L267.462 187.781C269.225 187.777 270.887 187.083 272.141 185.828C273.395 184.572 274.084 182.912 274.08 181.153L274.008 146.845C274 143.203 271.025 140.245 267.375 140.245Z" fill="#233863"/>
<path opacity="0.24" d="M267.464 188.519L214.634 188.629C210.579 188.638 207.255 185.336 207.246 181.293L207.174 146.985C207.166 142.942 210.476 139.626 214.53 139.618L267.361 139.507C271.415 139.499 274.739 142.8 274.748 146.843L274.82 181.151C274.828 185.195 271.518 188.51 267.464 188.519Z" fill="#233863"/>
<path d="M269.414 191.578L212.681 191.696C209.7 191.703 207.256 189.275 207.25 186.302L207.169 148.102C207.163 145.129 209.597 142.691 212.578 142.685L269.311 142.566C272.292 142.559 274.736 144.987 274.743 147.96L274.823 186.16C274.83 189.134 272.395 191.571 269.414 191.578Z" fill="white"/>
<path d="M212.67 192.188C209.415 192.188 206.763 189.551 206.757 186.303L206.676 148.103C206.669 144.851 209.317 142.199 212.578 142.192L269.31 142.074C269.315 142.074 269.319 142.074 269.323 142.074C272.578 142.074 275.229 144.711 275.236 147.959L275.316 186.159C275.323 189.412 272.675 192.063 269.415 192.07L212.682 192.188C212.678 192.188 212.674 192.188 212.67 192.188ZM269.413 191.086C272.13 191.08 274.335 188.871 274.33 186.161L274.25 147.961C274.244 145.256 272.035 143.058 269.323 143.058C269.319 143.058 269.316 143.058 269.313 143.058L212.58 143.177C209.863 143.183 207.658 145.391 207.663 148.101L207.744 186.302C207.75 189.007 209.959 191.205 212.67 191.205C212.674 191.205 212.677 191.205 212.681 191.205L269.413 191.086Z" fill="#233863"/>
<path d="M269.414 194.641L212.681 194.76C209.7 194.766 207.256 192.338 207.25 189.365L207.169 151.165C207.163 148.192 209.597 145.754 212.578 145.748L269.311 145.629C272.292 145.623 274.736 148.05 274.743 151.023L274.823 189.224C274.83 192.197 272.395 194.635 269.414 194.641Z" fill="white"/>
<path d="M212.67 195.252C209.415 195.252 206.763 192.614 206.757 189.366L206.676 151.166C206.673 149.597 207.287 148.116 208.404 146.997C209.522 145.877 211.004 145.259 212.578 145.256L269.31 145.137C269.315 145.137 269.319 145.137 269.323 145.137C272.578 145.137 275.229 147.775 275.236 151.023L275.316 189.223C275.323 192.475 272.675 195.126 269.415 195.133L212.682 195.252C212.678 195.252 212.674 195.252 212.67 195.252ZM269.323 146.121C269.319 146.121 269.316 146.121 269.312 146.121L212.579 146.24C211.27 146.243 210.035 146.758 209.103 147.691C208.172 148.624 207.66 149.857 207.663 151.164L207.743 189.364C207.749 192.07 209.958 194.268 212.67 194.268C212.674 194.268 212.677 194.268 212.681 194.268L269.413 194.149C272.13 194.143 274.335 191.935 274.33 189.225L274.25 151.025C274.244 148.319 272.034 146.121 269.323 146.121Z" fill="#233863"/>
<path d="M269.878 136.438L255.568 136.468C252.915 136.474 250.749 138.644 250.754 141.29L250.768 148.119L214.525 148.195C210.47 148.203 207.16 151.518 207.168 155.562L207.24 189.87C207.249 193.913 210.573 197.215 214.628 197.206L267.458 197.096C271.512 197.087 274.822 193.772 274.814 189.728L274.743 156.123L274.742 155.421L274.712 141.24C274.706 138.593 272.531 136.433 269.878 136.438Z" fill="#265073"/>
<path d="M214.613 197.944C210.147 197.944 206.51 194.326 206.501 189.872L206.429 155.563C206.419 151.103 210.051 147.467 214.524 147.457L250.028 147.382L250.015 141.291C250.012 139.815 250.589 138.421 251.641 137.368C252.692 136.315 254.087 135.734 255.568 135.73L269.877 135.7C269.881 135.7 269.886 135.7 269.889 135.7C271.366 135.7 272.758 136.276 273.811 137.322C274.866 138.37 275.45 139.761 275.452 141.238L275.555 189.727C275.56 191.879 274.718 193.911 273.185 195.446C271.651 196.981 269.618 197.829 267.46 197.834L214.63 197.945C214.624 197.944 214.619 197.944 214.613 197.944ZM269.879 137.177L255.57 137.207C254.484 137.209 253.461 137.636 252.688 138.41C251.916 139.183 251.492 140.206 251.494 141.289L251.508 148.118C251.509 148.525 251.178 148.857 250.77 148.857L214.526 148.933C210.869 148.941 207.9 151.914 207.908 155.561L207.98 189.869C207.988 193.511 210.961 196.469 214.612 196.469C214.617 196.469 214.621 196.469 214.625 196.469L267.456 196.358C269.219 196.354 270.88 195.66 272.134 194.404C273.388 193.149 274.077 191.488 274.073 189.73L273.971 141.241C273.969 140.158 273.54 139.138 272.765 138.368C271.992 137.6 270.97 137.176 269.888 137.176C269.886 137.177 269.883 137.177 269.879 137.177Z" fill="#233863"/>
<path opacity="0.12" d="M269.242 141.91L256.439 141.937C254.065 141.942 252.126 143.884 252.131 146.252L252.144 152.364L219.715 152.432C216.087 152.44 213.125 155.406 213.133 159.025L213.197 189.728C213.205 193.347 216.18 196.301 219.807 196.294L267.077 196.195C270.704 196.187 273.666 193.22 273.659 189.601L273.596 159.527L273.594 158.898L273.568 146.207C273.563 143.839 271.616 141.905 269.242 141.91Z" fill="white"/>
<path d="M269.986 190.021C269.986 191.348 268.908 192.424 267.577 192.424C266.247 192.424 265.168 191.348 265.168 190.021C265.168 188.694 266.247 187.619 267.577 187.619C268.908 187.619 269.986 188.694 269.986 190.021Z" fill="white"/>
<path d="M271.67 149.411C271.397 149.411 271.176 149.191 271.176 148.919V142.379C271.176 141.282 270.2 140.389 269.001 140.389H264.222C263.95 140.389 263.729 140.169 263.729 139.897C263.729 139.625 263.95 139.405 264.222 139.405H269.001C270.744 139.405 272.163 140.739 272.163 142.379V148.919C272.163 149.191 271.943 149.411 271.67 149.411Z" fill="white"/>
<path d="M242.894 176.934L237.188 171.243C236.706 170.763 236.706 169.984 237.188 169.504C237.67 169.023 238.45 169.023 238.932 169.504L242.908 173.47L246.961 169.497C247.447 169.021 248.227 169.028 248.706 169.511C249.183 169.996 249.176 170.774 248.691 171.251L242.894 176.934Z" fill="white"/>
<path d="M242.942 176.432C242.261 176.432 241.709 175.881 241.709 175.202V162.754C241.709 162.074 242.261 161.524 242.942 161.524C243.624 161.524 244.176 162.074 244.176 162.754V175.202C244.176 175.881 243.624 176.432 242.942 176.432Z" fill="white"/>
<path d="M252.023 182.343H233.719C232.256 182.343 231.066 181.156 231.066 179.698V173.066C231.066 172.386 231.618 171.836 232.3 171.836C232.981 171.836 233.533 172.386 233.533 173.066V179.698C233.533 179.8 233.616 179.883 233.719 179.883H252.023C252.204 179.883 252.352 179.736 252.352 179.555V173.066C252.352 172.386 252.904 171.836 253.585 171.836C254.266 171.836 254.818 172.386 254.818 173.066V179.555C254.818 181.092 253.564 182.343 252.023 182.343Z" fill="white"/>
<path d="M236.964 131.736L212.592 114.217C212.31 114.014 212.245 113.621 212.449 113.339L236.25 80.4075C236.453 80.126 236.847 80.0621 237.129 80.2653L261.502 97.7844C261.784 97.9871 261.848 98.3802 261.644 98.6617L237.844 131.594C237.64 131.875 237.247 131.939 236.964 131.736Z" fill="white"/>
<path d="M237.33 132.592C237.045 132.592 236.768 132.504 236.532 132.335L212.16 114.816C211.548 114.375 211.408 113.519 211.849 112.908L235.65 79.9764C235.864 79.6802 236.18 79.4849 236.542 79.4263C236.901 79.3688 237.265 79.4529 237.562 79.6664L261.934 97.1856C262.546 97.6259 262.686 98.4815 262.245 99.0926L238.445 132.025C238.23 132.321 237.914 132.517 237.552 132.575C237.478 132.586 237.404 132.592 237.33 132.592ZM237.397 131.137L237.396 131.137L237.397 131.137ZM213.114 113.682L237.308 131.074L260.98 98.3191L236.786 80.9284L213.114 113.682Z" fill="#233863"/>
<path d="M236.964 131.736L212.592 114.217C212.31 114.014 212.245 113.621 212.449 113.339L236.25 80.4075C236.453 80.126 236.847 80.0621 237.129 80.2653L261.502 97.7844C261.784 97.9871 261.848 98.3802 261.644 98.6617L237.844 131.594C237.64 131.875 237.247 131.939 236.964 131.736Z" fill="#2D9596"/>
<path d="M237.33 132.592C237.045 132.592 236.768 132.504 236.532 132.335L212.16 114.816C211.548 114.375 211.408 113.519 211.849 112.908L235.65 79.9764C235.864 79.6802 236.18 79.4849 236.542 79.4263C236.901 79.3688 237.265 79.4529 237.562 79.6664L261.934 97.1856C262.546 97.6259 262.686 98.4815 262.245 99.0926L238.445 132.025C238.23 132.321 237.914 132.517 237.552 132.575C237.478 132.586 237.404 132.592 237.33 132.592ZM237.397 131.137L237.396 131.137L237.397 131.137ZM213.114 113.682L237.308 131.074L260.98 98.3191L236.786 80.9284L213.114 113.682Z" fill="#233863"/>
<path d="M251.885 105.307C251.785 105.307 251.684 105.277 251.597 105.214L247.394 102.193C247.173 102.034 247.123 101.726 247.282 101.506C247.441 101.285 247.749 101.235 247.971 101.395L252.173 104.416C252.394 104.574 252.444 104.882 252.285 105.102C252.189 105.236 252.038 105.307 251.885 105.307Z" fill="#233863"/>
<path d="M247.375 111.546C247.275 111.546 247.174 111.516 247.087 111.454L228.684 98.226C228.463 98.0671 228.414 97.7596 228.572 97.5397C228.731 97.3193 229.04 97.2686 229.261 97.428L247.663 110.655C247.884 110.814 247.934 111.122 247.775 111.342C247.679 111.475 247.528 111.546 247.375 111.546Z" fill="#233863"/>
<path d="M244.306 115.792C244.207 115.792 244.105 115.762 244.018 115.7L236.704 110.442C236.483 110.283 236.433 109.975 236.592 109.755C236.751 109.535 237.059 109.485 237.281 109.643L244.595 114.901C244.816 115.06 244.866 115.367 244.707 115.588C244.611 115.721 244.46 115.792 244.306 115.792Z" fill="#265073"/>
<path d="M230.382 105.782C230.282 105.782 230.181 105.752 230.094 105.689L225.617 102.471C225.396 102.312 225.346 102.005 225.505 101.785C225.664 101.564 225.972 101.514 226.194 101.673L230.671 104.891C230.892 105.05 230.942 105.358 230.783 105.578C230.686 105.711 230.535 105.782 230.382 105.782Z" fill="#265073"/>
<path d="M233.308 115.099C233.209 115.099 233.107 115.069 233.02 115.006L221.685 106.858C221.464 106.699 221.414 106.392 221.573 106.171C221.732 105.951 222.041 105.9 222.263 106.06L233.597 114.207C233.818 114.366 233.868 114.673 233.709 114.894C233.613 115.027 233.462 115.099 233.308 115.099Z" fill="#233863"/>
<path d="M239.374 127.77L209.295 116.23C208.97 116.106 208.808 115.742 208.933 115.418L224.598 74.804C224.723 74.4803 225.087 74.3184 225.412 74.4434L255.492 85.9827C255.816 86.1072 255.978 86.4708 255.853 86.795L240.188 127.409C240.063 127.733 239.698 127.894 239.374 127.77Z" fill="white"/>
<path d="M239.598 128.55C239.434 128.55 239.269 128.52 239.108 128.459L209.029 116.919C208.323 116.648 207.971 115.855 208.242 115.152L223.907 74.5393C224.179 73.8362 224.972 73.4844 225.677 73.754L255.757 85.2939C256.462 85.5645 256.815 86.3566 256.544 87.0592L240.879 127.673C240.669 128.216 240.148 128.55 239.598 128.55ZM209.663 115.581L239.537 127.042L255.124 86.6321L225.25 75.1715L209.663 115.581Z" fill="#233863"/>
<path d="M239.374 127.77L209.295 116.23C208.97 116.106 208.808 115.742 208.933 115.418L224.598 74.804C224.723 74.4803 225.087 74.3184 225.412 74.4434L255.492 85.9827C255.816 86.1072 255.978 86.4708 255.853 86.795L240.188 127.409C240.063 127.733 239.698 127.894 239.374 127.77Z" fill="white"/>
<path d="M239.598 128.55C239.434 128.55 239.269 128.52 239.108 128.459L209.029 116.919C208.323 116.648 207.971 115.855 208.242 115.152L223.907 74.5393C224.179 73.8362 224.972 73.4844 225.677 73.754L255.757 85.2939C256.462 85.5645 256.815 86.3566 256.544 87.0592L240.879 127.673C240.669 128.216 240.148 128.55 239.598 128.55ZM209.663 115.581L239.537 127.042L255.124 86.6321L225.25 75.1715L209.663 115.581Z" fill="#233863"/>
<path d="M230.73 89.5084C230.672 89.5084 230.611 89.4976 230.553 89.4755L225.381 87.4912C225.127 87.3938 225 87.109 225.097 86.8556C225.195 86.6017 225.481 86.4753 225.735 86.5732L230.908 88.5574C231.162 88.6548 231.289 88.9397 231.191 89.1931C231.115 89.3884 230.928 89.5084 230.73 89.5084Z" fill="#233863"/>
<path d="M244.458 104.023C244.399 104.023 244.339 104.013 244.281 103.99L221.632 95.3017C221.378 95.2043 221.251 94.9195 221.349 94.6661C221.447 94.4122 221.732 94.2853 221.987 94.3837L244.636 103.072C244.89 103.17 245.017 103.455 244.919 103.708C244.843 103.903 244.656 104.023 244.458 104.023Z" fill="#233863"/>
<path d="M242.442 109.248C242.384 109.248 242.323 109.237 242.265 109.215L233.263 105.762C233.009 105.664 232.882 105.379 232.98 105.126C233.077 104.872 233.363 104.746 233.618 104.843L242.62 108.297C242.874 108.395 243.001 108.68 242.903 108.933C242.827 109.128 242.64 109.248 242.442 109.248Z" fill="#265073"/>
<path d="M225.304 102.674C225.246 102.674 225.185 102.663 225.127 102.641L219.617 100.527C219.363 100.429 219.235 100.144 219.333 99.891C219.431 99.6371 219.716 99.5107 219.971 99.6086L225.482 101.723C225.736 101.82 225.863 102.105 225.765 102.358C225.689 102.554 225.502 102.674 225.304 102.674Z" fill="#265073"/>
<path d="M230.875 111.517C230.817 111.517 230.756 111.507 230.698 111.485L216.748 106.133C216.494 106.035 216.367 105.75 216.465 105.497C216.563 105.243 216.847 105.117 217.102 105.214L231.053 110.566C231.307 110.663 231.434 110.948 231.336 111.202C231.26 111.397 231.073 111.517 230.875 111.517Z" fill="#233863"/>
<path d="M183.813 109.962L148.189 97.8317C147.782 97.6929 147.564 97.2511 147.703 96.8447L164.317 48.3178C164.456 47.9114 164.899 47.6944 165.307 47.8332L200.93 59.9634C201.338 60.1022 201.555 60.544 201.416 60.9504L184.802 109.477C184.663 109.884 184.22 110.101 183.813 109.962Z" fill="#265073"/>
<path d="M184.063 110.741C183.901 110.741 183.736 110.715 183.574 110.66L147.95 98.5298C147.567 98.3994 147.256 98.1273 147.077 97.7637C146.899 97.4002 146.872 96.9888 147.003 96.6056L163.617 48.0786C163.749 47.6954 164.021 47.3864 164.386 47.2078C164.75 47.0297 165.162 47.0026 165.547 47.134L201.17 59.2642C201.554 59.3951 201.864 59.6672 202.043 60.0308C202.222 60.3944 202.249 60.8057 202.117 61.1889L185.503 109.715C185.287 110.344 184.695 110.741 184.063 110.741ZM165.059 48.5298C165.042 48.5298 165.023 48.5411 165.018 48.5559L148.404 97.0828C148.397 97.1005 148.411 97.1266 148.428 97.133L184.052 109.263H184.052C184.069 109.269 184.096 109.256 184.102 109.239L200.716 60.7117C200.723 60.694 200.709 60.6674 200.691 60.6615L165.069 48.5313C165.065 48.5303 165.062 48.5298 165.059 48.5298Z" fill="#233863"/>
<path d="M191.206 106.728L153.684 103.731C153.255 103.696 152.934 103.322 152.969 102.893L157.074 51.7794C157.108 51.3514 157.484 51.0321 157.914 51.0665L195.436 54.0638C195.865 54.0982 196.185 54.4731 196.151 54.9012L192.046 106.015C192.011 106.443 191.635 106.762 191.206 106.728Z" fill="white"/>
<path d="M191.271 107.468C191.23 107.468 191.188 107.467 191.147 107.464L153.624 104.466C153.22 104.434 152.852 104.246 152.589 103.938C152.325 103.63 152.198 103.238 152.231 102.834L156.335 51.7209C156.403 50.8875 157.137 50.2646 157.972 50.331L195.494 53.3283C196.329 53.3952 196.954 54.1268 196.887 54.9598L192.782 106.074C192.75 106.478 192.562 106.845 192.253 107.107C191.976 107.342 191.632 107.468 191.271 107.468ZM157.851 51.8021C157.83 51.8021 157.813 51.8179 157.811 51.839L153.707 102.952C153.705 102.972 153.724 102.994 153.743 102.995L191.266 105.992C191.289 105.988 191.307 105.975 191.309 105.957L195.414 54.8422C195.415 54.8205 195.399 54.8013 195.377 54.7994L157.854 51.8021C157.853 51.8021 157.852 51.8021 157.851 51.8021Z" fill="#233863"/>
<path d="M189.939 62.6767C189.927 62.6767 189.913 62.6762 189.899 62.6752L180.394 61.9156C180.123 61.8939 179.92 61.6568 179.942 61.3857C179.964 61.1151 180.194 60.9124 180.473 60.9345L189.978 61.6942C190.25 61.7158 190.452 61.953 190.431 62.224C190.41 62.4814 190.194 62.6767 189.939 62.6767Z" fill="#265073"/>
<path d="M189.697 65.7051C189.684 65.7051 189.67 65.7046 189.657 65.7036L180.151 64.9444C179.88 64.9228 179.677 64.6856 179.699 64.4146C179.721 64.144 179.956 63.9408 180.23 63.9634L189.736 64.723C190.007 64.7447 190.21 64.9818 190.188 65.2529C190.167 65.5097 189.952 65.7051 189.697 65.7051Z" fill="#265073"/>
<path d="M167.442 98.2666C167.43 98.2666 167.416 98.2661 167.402 98.2651L157.897 97.5055C157.626 97.4838 157.423 97.2467 157.444 96.9756C157.466 96.705 157.703 96.5018 157.976 96.5244L167.481 97.2836C167.753 97.3052 167.955 97.5424 167.934 97.8135C167.913 98.0713 167.697 98.2666 167.442 98.2666Z" fill="#265073"/>
<path d="M167.859 81.7944C167.846 81.7944 167.832 81.7939 167.819 81.7929L159.368 81.1179C159.096 81.0962 158.893 80.8591 158.915 80.588C158.937 80.3179 159.171 80.1122 159.446 80.1373L167.898 80.8123C168.169 80.834 168.372 81.0711 168.35 81.3422C168.329 81.5991 168.114 81.7944 167.859 81.7944Z" fill="#233863"/>
<path d="M173.039 93.5146C173.026 93.5146 173.013 93.5141 172.999 93.5131L158.465 92.3525C158.194 92.3309 157.991 92.0937 158.013 91.8231C158.035 91.5525 158.268 91.3469 158.544 91.3719L173.078 92.5326C173.35 92.5542 173.552 92.7914 173.531 93.062C173.51 93.3193 173.294 93.5146 173.039 93.5146Z" fill="#233863"/>
<path d="M169.959 87.6156C169.946 87.6156 169.933 87.6151 169.919 87.6141L158.916 86.7349C158.645 86.7133 158.442 86.4761 158.464 86.205C158.485 85.9344 158.715 85.7317 158.995 85.7539L169.998 86.6331C170.27 86.6547 170.472 86.8918 170.451 87.1629C170.43 87.4203 170.214 87.6156 169.959 87.6156Z" fill="#233863"/>
<path d="M188.235 78.2243C188.222 78.2243 188.208 78.2239 188.195 78.2229L159.739 75.9498C159.467 75.9282 159.265 75.691 159.286 75.4199C159.308 75.1493 159.538 74.9427 159.818 74.9688L188.274 77.2418C188.545 77.2635 188.748 77.5006 188.726 77.7717C188.705 78.029 188.49 78.2243 188.235 78.2243Z" fill="#233863"/>
<path d="M187.066 88.9377C187.053 88.9377 187.04 88.9372 187.026 88.9363L173.43 87.8504C173.158 87.8288 172.955 87.5916 172.977 87.3205C172.999 87.0504 173.23 86.8452 173.508 86.8694L187.105 87.9557C187.377 87.9773 187.579 88.2145 187.558 88.4856C187.537 88.7424 187.321 88.9377 187.066 88.9377Z" fill="#233863"/>
<path d="M188.452 83.4389C188.438 83.4389 188.423 83.4384 188.41 83.4375L170.972 81.9698C170.7 81.9472 170.499 81.7091 170.522 81.438C170.546 81.1669 170.786 80.9701 171.055 80.9888L188.492 82.4564C188.764 82.479 188.966 82.7172 188.942 82.9883C188.921 83.2451 188.705 83.4389 188.452 83.4389Z" fill="#233863"/>
</svg>
