<svg width="24" height="21" viewBox="0 0 24 21" fill="none" xmlns="http://www.w3.org/2000/svg">
<path d="M6.11835 5.54707L1.37955 10.2859L6.11835 15.0247C6.3415 15.2478 6.3415 15.6096 6.11835 15.8328C5.89519 16.0559 5.53338 16.0559 5.31022 15.8328L0.167368 10.6899C-0.0557892 10.4668 -0.0557892 10.105 0.167368 9.8818L5.31022 4.73895C5.53338 4.51579 5.89519 4.51579 6.11835 4.73895C6.3415 4.9621 6.3415 5.32391 6.11835 5.54707ZM17.8817 15.0247L22.6204 10.2859L17.8817 5.54707C17.6585 5.32391 17.6585 4.9621 17.8817 4.73895C18.1048 4.51579 18.4666 4.51579 18.6898 4.73895L23.8326 9.8818C24.0558 10.105 24.0558 10.4668 23.8326 10.6899L18.6898 15.8328C18.4666 16.0559 18.1048 16.0559 17.8817 15.8328C17.6585 15.6096 17.6585 15.2478 17.8817 15.0247ZM9.69107 20.1614C9.60202 20.4642 9.28439 20.6374 8.98162 20.5484C8.67885 20.4593 8.5056 20.1417 8.59465 19.8389L14.3089 0.41034C14.398 0.107573 14.7156 -0.0656804 15.0184 0.0233689C15.3211 0.112418 15.4944 0.430048 15.4054 0.732816L9.69107 20.1614Z" fill="#232C79"/>
</svg>
