<svg width="20" height="22" viewBox="0 0 20 22" fill="none" xmlns="http://www.w3.org/2000/svg">
<rect x="0.625" y="0.625" width="18.75" height="20" rx="3.125" stroke="#232C79" stroke-width="1.25"/>
<path d="M12.509 4.00297L15.5525 7.0463C15.7327 7.22644 15.7492 7.5083 15.602 7.70711L15.5529 7.76407L12.5094 10.8143C12.3113 11.0128 11.9898 11.0131 11.7912 10.815C11.6108 10.6349 11.5941 10.3528 11.7413 10.1539L11.7905 10.0969L13.9685 7.91472L6.0495 7.91516C5.79241 7.91516 5.57995 7.72413 5.54632 7.47626L5.54169 7.40735C5.54169 7.15027 5.73273 6.9378 5.98059 6.90418L6.0495 6.89954L13.9699 6.89909L11.7909 4.72115C11.6106 4.54087 11.5942 4.25876 11.7417 4.05995L11.7908 4.003C11.9711 3.8227 12.2533 3.8063 12.4521 3.95381L12.509 4.00297ZM15.7034 13.7729L15.708 13.8418C15.708 14.0989 15.517 14.3114 15.2691 14.345L15.2002 14.3496L7.28101 14.349L9.46201 16.5288C9.64238 16.7091 9.65883 16.9912 9.51143 17.1901L9.46228 17.247C9.28211 17.4274 8.99998 17.4439 8.80112 17.2965L8.74414 17.2474L5.69727 14.203C5.51691 14.0228 5.5004 13.7407 5.64782 13.5418L5.69697 13.4849L8.74384 10.4354C8.94207 10.237 9.2636 10.2369 9.46201 10.4351C9.64238 10.6153 9.65883 10.8975 9.51143 11.0963L9.46228 11.1533L7.28371 13.3334L15.2002 13.334C15.4572 13.334 15.6697 13.525 15.7034 13.7729Z" fill="#232C79"/>
</svg>
