<svg width="16" height="16" viewBox="0 0 16 16" fill="none" xmlns="http://www.w3.org/2000/svg">
<path d="M4.16663 2C3.3382 2 2.66663 2.67157 2.66663 3.5V5.16667C2.66663 5.99509 3.3382 6.66667 4.16663 6.66667H10.5C11.3284 6.66667 12 5.99509 12 5.16667V3.5C12 2.67157 11.3284 2 10.5 2H4.16663ZM3.66663 3.5C3.66663 3.22386 3.89049 3 4.16663 3H10.5C10.7761 3 11 3.22386 11 3.5V5.16667C11 5.44281 10.7761 5.66667 10.5 5.66667H4.16663C3.89049 5.66667 3.66663 5.44281 3.66663 5.16667V3.5ZM5.79996 10.6667C5.54223 10.6667 5.33329 10.8905 5.33329 11.1667C5.33329 11.4428 5.54223 11.6667 5.79996 11.6667H8.86663C9.12436 11.6667 9.33329 11.4428 9.33329 11.1667C9.33329 10.8905 9.12436 10.6667 8.86663 10.6667H5.79996ZM11.5686 10.9635L11.5202 11.0196C11.3427 11.1971 11.0649 11.2133 10.8692 11.068L10.8131 11.0196L9.47976 9.68627C9.30223 9.5088 9.28609 9.231 9.43136 9.03527L9.47976 8.9792L10.8131 7.64587C11.0084 7.4506 11.3249 7.4506 11.5202 7.64587C11.6977 7.82333 11.7138 8.10113 11.5686 8.29687L11.5202 8.35293L11.0408 8.83353L12.0404 8.8332C12.4719 8.8332 12.8268 8.50527 12.8694 8.08507L12.8738 7.99987V6.49984C12.8738 6.22369 13.0976 5.99984 13.3738 5.99984C13.6269 5.99984 13.8361 6.18794 13.8692 6.43199L13.8738 6.49984V7.99987C13.8738 8.97487 13.1126 9.77213 12.1521 9.8298L12.0404 9.8332L11.0414 9.83353L11.5202 10.3125C11.6977 10.49 11.7138 10.7678 11.5686 10.9635ZM12 12.8333V11.4826L11.9916 11.491C11.721 11.7615 11.3513 11.8713 11 11.8207V12.8333C11 13.1095 10.7761 13.3333 10.5 13.3333H4.16663C3.89049 13.3333 3.66663 13.1095 3.66663 12.8333V9.5C3.66663 9.22387 3.89049 9 4.16663 9H8.71496C8.75296 8.87213 8.81323 8.7494 8.89589 8.638L8.91056 8.61827L8.99103 8.52507L9.51609 8H4.16663C3.3382 8 2.66663 8.6716 2.66663 9.5V12.8333C2.66663 13.6617 3.3382 14.3333 4.16663 14.3333H10.5C11.3284 14.3333 12 13.6617 12 12.8333Z" fill="white"/>
</svg>
