<svg width="16" height="16" viewBox="0 0 16 16" fill="none" xmlns="http://www.w3.org/2000/svg">
<path d="M3.66849 3.08467L3.66663 4.49998V11.5028C3.66663 12.6994 4.63667 13.6694 5.83329 13.6694L11.5775 13.6696C11.3715 14.2521 10.816 14.6694 10.1629 14.6694H5.83329C4.08439 14.6694 2.66663 13.2517 2.66663 11.5028V4.49998C2.66663 3.84617 3.08493 3.29006 3.66849 3.08467ZM11.8333 1.33331C12.6617 1.33331 13.3333 2.00489 13.3333 2.83331V11.5C13.3333 12.3284 12.6617 13 11.8333 13H5.83329C5.00487 13 4.33329 12.3284 4.33329 11.5V2.83331C4.33329 2.00489 5.00487 1.33331 5.83329 1.33331H11.8333ZM11.8333 2.33331H5.83329C5.55715 2.33331 5.33329 2.55717 5.33329 2.83331V11.5C5.33329 11.7761 5.55715 12 5.83329 12H11.8333C12.1094 12 12.3333 11.7761 12.3333 11.5V2.83331C12.3333 2.55717 12.1094 2.33331 11.8333 2.33331Z" fill="#242424"/>
</svg>
