<svg width="56" height="57" viewBox="0 0 56 57" fill="none" xmlns="http://www.w3.org/2000/svg">
<path opacity="0.3" d="M48.1489 16.1876C46.9765 14.2891 45.5749 12.6005 43.9669 11.1457L45.2794 6.71787L40.844 4.36941L36.4087 2.02094L33.4884 5.59746C31.3818 5.08543 29.184 4.88004 26.97 4.97368L24.7622 0.917939L15.1833 3.86743L15.6393 8.46261C13.742 9.6349 12.0545 11.0366 10.6008 12.6449L6.17451 11.3305L3.82839 15.7671L1.48226 20.2037L5.05811 23.1264C4.54693 25.2337 4.34226 27.4324 4.43651 29.6473L0.383175 31.8549L3.33421 41.4388L7.92727 40.984C9.09961 42.8825 10.5012 44.5711 12.1093 46.0259L10.7967 50.4538L15.2321 52.8022L19.6675 55.1507L22.5878 51.5742C24.6944 52.0862 26.8921 52.2916 29.1061 52.198L31.3139 56.2537L40.8928 53.3042L40.4369 48.709C42.3342 47.5367 44.0216 46.135 45.4753 44.5267L49.9016 45.8411L52.2478 41.4045L54.5939 36.9679L51.018 34.0453C51.5292 31.9379 51.7339 29.7392 51.6396 27.5243L55.693 25.3167L52.7419 15.7328L48.1489 16.1876ZM33.2231 45.3745C23.955 48.2283 14.1233 43.0225 11.268 33.7496C8.41274 24.4767 13.6133 14.6422 22.8814 11.7884C32.1494 8.93466 41.9811 14.1404 44.8364 23.4133C47.6916 32.6863 42.4911 42.5207 33.2231 45.3745Z" fill="#D3D3D3"/>
</svg>
