<svg width="121" height="121" viewBox="0 0 121 121" fill="none" xmlns="http://www.w3.org/2000/svg">
<path opacity="0.3" d="M104.498 33.6547C101.959 29.5305 98.8736 25.838 95.3835 22.6413L98.2419 12.9864L88.5765 7.86871L78.9111 2.75102L72.5414 10.5467C67.9369 9.45744 63.1642 8.97709 58.3145 9.20137L53.5182 0.355904L32.6228 6.78996L33.6327 16.8013C29.511 19.3395 25.821 22.4256 22.6268 25.9162L12.9752 23.0538L7.86261 32.7218L2.75003 42.3899L10.5442 48.7647C9.45677 53.3709 8.97807 58.1455 9.20368 62.9973L0.363455 67.7931L6.8009 88.6996L16.8076 87.6921C19.3459 91.8163 22.4318 95.5089 25.9218 98.7056L23.0634 108.36L32.7288 113.478L42.3942 118.596L48.7639 110.8C53.3684 111.889 58.1411 112.37 62.9908 112.145L67.7871 120.991L88.6826 114.557L87.6726 104.546C91.7943 102.007 95.4843 98.9212 98.6785 95.4306L108.33 98.2931L113.443 88.625L118.555 78.9569L110.761 72.5821C111.849 67.976 112.327 63.2013 112.102 58.3495L120.942 53.5537L114.504 32.6473L104.498 33.6547ZM71.9296 97.322C51.7123 103.547 30.2606 92.2007 24.0277 71.9586C17.7949 51.7165 29.1345 30.273 49.3659 24.0434C69.5974 17.8138 91.035 29.1647 97.2678 49.4068C103.501 69.6488 92.161 91.0924 71.9296 97.322Z" fill="#D3D3D3"/>
</svg>
