<svg width="14" height="14" viewBox="0 0 14 14" fill="none" xmlns="http://www.w3.org/2000/svg">
<path d="M6.99974 0.332031C10.6822 0.332031 13.6674 3.31726 13.6674 6.99973C13.6674 10.6822 10.6822 13.6674 6.99974 13.6674C3.31726 13.6674 0.332031 10.6822 0.332031 6.99973C0.332031 3.31726 3.31726 0.332031 6.99974 0.332031ZM6.99974 1.33203C3.86954 1.33203 1.33203 3.86955 1.33203 6.99973C1.33203 10.1299 3.86954 12.6674 6.99974 12.6674C10.1299 12.6674 12.6674 10.1299 12.6674 6.99973C12.6674 3.86955 10.1299 1.33203 6.99974 1.33203ZM6.99727 5.99907C7.2504 5.99893 7.45974 6.18687 7.493 6.43093L7.4976 6.49873L7.5 10.1665C7.5002 10.4426 7.27647 10.6667 7.00034 10.6668C6.74721 10.667 6.53787 10.479 6.5046 10.235L6.5 10.1671L6.4976 6.4994C6.49747 6.22327 6.72114 5.99927 6.99727 5.99907ZM7 3.66724C7.36774 3.66724 7.6658 3.96532 7.6658 4.33302C7.6658 4.70071 7.36774 4.99879 7 4.99879C6.63234 4.99879 6.33427 4.70071 6.33427 4.33302C6.33427 3.96532 6.63234 3.66724 7 3.66724Z" fill="#424242"/>
</svg>
