<svg width="16" height="17" viewBox="0 0 16 17" fill="none" xmlns="http://www.w3.org/2000/svg">
<g clip-path="url(#clip0_1666_5388)">
<path d="M13.0233 2.13603L11.9193 1.0307C11.6104 0.720243 11.2431 0.474127 10.8384 0.306597C10.4338 0.139067 9.99994 0.0534502 9.562 0.054701H5.33333C4.4496 0.0557596 3.60237 0.407289 2.97748 1.03218C2.35259 1.65707 2.00106 2.5043 2 3.38803V12.7214C2.00106 13.6051 2.35259 14.4523 2.97748 15.0772C3.60237 15.7021 4.4496 16.0536 5.33333 16.0547H10.6667C11.5504 16.0536 12.3976 15.7021 13.0225 15.0772C13.6474 14.4523 13.9989 13.6051 14 12.7214V4.4927C14.0011 4.05482 13.9153 3.62108 13.7477 3.21656C13.58 2.81205 13.3338 2.44479 13.0233 2.13603ZM12.0807 3.0787C12.1752 3.17291 12.2599 3.27657 12.3333 3.38803H10.6667V1.72137C10.778 1.79558 10.8818 1.88042 10.9767 1.9747L12.0807 3.0787ZM12.6667 12.7214C12.6667 13.2518 12.456 13.7605 12.0809 14.1356C11.7058 14.5107 11.1971 14.7214 10.6667 14.7214H5.33333C4.8029 14.7214 4.29419 14.5107 3.91912 14.1356C3.54405 13.7605 3.33333 13.2518 3.33333 12.7214V3.38803C3.33333 2.8576 3.54405 2.34889 3.91912 1.97382C4.29419 1.59875 4.8029 1.38803 5.33333 1.38803H9.33333V3.38803C9.33333 3.74166 9.47381 4.0808 9.72386 4.33084C9.97391 4.58089 10.313 4.72137 10.6667 4.72137H12.6667V12.7214ZM10.6667 6.0547C10.8435 6.0547 11.013 6.12494 11.1381 6.24996C11.2631 6.37499 11.3333 6.54456 11.3333 6.72137C11.3333 6.89818 11.2631 7.06775 11.1381 7.19277C11.013 7.3178 10.8435 7.38804 10.6667 7.38804H5.33333C5.15652 7.38804 4.98695 7.3178 4.86193 7.19277C4.7369 7.06775 4.66667 6.89818 4.66667 6.72137C4.66667 6.54456 4.7369 6.37499 4.86193 6.24996C4.98695 6.12494 5.15652 6.0547 5.33333 6.0547H10.6667ZM11.3333 9.38804C11.3333 9.56485 11.2631 9.73442 11.1381 9.85944C11.013 9.98446 10.8435 10.0547 10.6667 10.0547H5.33333C5.15652 10.0547 4.98695 9.98446 4.86193 9.85944C4.7369 9.73442 4.66667 9.56485 4.66667 9.38804C4.66667 9.21122 4.7369 9.04166 4.86193 8.91663C4.98695 8.79161 5.15652 8.72137 5.33333 8.72137H10.6667C10.8435 8.72137 11.013 8.79161 11.1381 8.91663C11.2631 9.04166 11.3333 9.21122 11.3333 9.38804ZM11.2053 11.6634C11.309 11.8059 11.3519 11.9837 11.3248 12.1579C11.2977 12.3321 11.2027 12.4884 11.0607 12.5927C10.3852 13.074 9.5852 13.3502 8.75667 13.388C8.27259 13.3857 7.80321 13.2214 7.42333 12.9214C7.20467 12.7714 7.12133 12.7214 6.95667 12.7214C6.51095 12.7903 6.09041 12.9726 5.73533 13.2507C5.5945 13.3511 5.42016 13.3928 5.24913 13.3671C5.0781 13.3413 4.92377 13.2501 4.81872 13.1127C4.71368 12.9753 4.66615 12.8025 4.68616 12.6307C4.70618 12.4589 4.79218 12.3016 4.926 12.192C5.51345 11.736 6.21885 11.4571 6.95933 11.388C7.40342 11.3951 7.83275 11.5486 8.18067 11.8247C8.33926 11.9673 8.54344 12.0489 8.75667 12.0547C9.30178 12.0139 9.82598 11.8276 10.2747 11.5154C10.4177 11.4117 10.5961 11.369 10.7706 11.3968C10.9451 11.4245 11.1015 11.5204 11.2053 11.6634Z" fill="#929292"/>
</g>
<defs>
<clipPath id="clip0_1666_5388">
<rect width="16" height="16" fill="white" transform="translate(0 0.0546875)"/>
</clipPath>
</defs>
</svg>
