<svg width="14" height="11" viewBox="0 0 14 11" fill="none" xmlns="http://www.w3.org/2000/svg">
<path d="M4.74877 9.03124L1.44071 5.63665C1.28242 5.47427 1.06775 5.38304 0.843927 5.38304C0.6201 5.38304 0.405437 5.47427 0.247143 5.63665C0.0888974 5.79909 0 6.01936 0 6.24905C0 6.47873 0.0888974 6.69901 0.247143 6.86144L3.5552 10.256C3.71197 10.417 3.89811 10.5446 4.10298 10.6317C4.30785 10.7188 4.52743 10.7637 4.74919 10.7637C4.97095 10.7637 5.19053 10.7188 5.3954 10.6317C5.60027 10.5446 5.7864 10.417 5.94318 10.256L13.7529 2.24207C13.9111 2.07963 14 1.85935 14 1.62967C14 1.39999 13.9111 1.17971 13.7529 1.01728C13.5946 0.854894 13.3799 0.763672 13.1561 0.763672C12.9322 0.763672 12.7176 0.854894 12.5593 1.01728L4.74877 9.03124Z" fill="#654E8A"/>
</svg>
