<svg width="24" height="24" viewBox="0 0 24 24" fill="none" xmlns="http://www.w3.org/2000/svg">
<path d="M8.81049 15.8653V8.13318C8.81065 8.03644 8.83756 7.94152 8.88839 7.85837C8.93921 7.77523 9.01209 7.70691 9.09939 7.66058C9.18668 7.61426 9.28517 7.59163 9.38454 7.59507C9.48391 7.59851 9.5805 7.62788 9.66419 7.68012L15.8463 11.5451C15.9246 11.5939 15.989 11.6611 16.0336 11.7404C16.0782 11.8198 16.1016 11.9088 16.1016 11.9992C16.1016 12.0897 16.0782 12.1787 16.0336 12.2581C15.989 12.3374 15.9246 12.4046 15.8463 12.4534L9.66419 16.3195C9.5805 16.3717 9.48391 16.4011 9.38454 16.4045C9.28517 16.408 9.18668 16.3853 9.09939 16.339C9.01209 16.2927 8.93921 16.2244 8.88839 16.1412C8.83756 16.0581 8.81065 15.9631 8.81049 15.8664V15.8653Z" fill="black"/>
<circle cx="12" cy="12" r="11.5443" stroke="black" stroke-width="0.911392"/>
</svg>
