<svg width="16" height="17" viewBox="0 0 16 17" fill="none" xmlns="http://www.w3.org/2000/svg">
<g clip-path="url(#clip0_1125_6359)">
<path d="M14.8 1.49581C14.4252 1.18243 13.986 0.955408 13.5137 0.830858C13.0413 0.706307 12.5472 0.687287 12.0667 0.775148L9.51867 1.23781C8.9304 1.34584 8.39553 1.6485 8 2.09715C7.60344 1.64772 7.06704 1.345 6.47733 1.23781L3.93333 0.775148C3.45277 0.68721 2.95875 0.705981 2.48625 0.830132C2.01375 0.954282 1.57431 1.18078 1.19904 1.49358C0.823778 1.80639 0.521857 2.19786 0.314655 2.64029C0.107452 3.08271 3.25416e-05 3.56527 0 4.05381L0 11.2491C3.83039e-05 12.0297 0.273984 12.7854 0.774089 13.3847C1.27419 13.984 1.96874 14.3888 2.73667 14.5285L6.92733 15.2905C7.63664 15.4194 8.36336 15.4194 9.07267 15.2905L13.2667 14.5285C14.034 14.3881 14.7278 13.983 15.2272 13.3838C15.7266 12.7846 16.0001 12.0292 16 11.2491V4.05381C16.0003 3.56544 15.8929 3.08301 15.6855 2.64088C15.4781 2.19874 15.1758 1.80777 14.8 1.49581ZM7.33333 14.0058C7.27733 13.9978 7.22133 13.9885 7.16533 13.9785L2.97533 13.2171C2.51451 13.1333 2.09773 12.8904 1.79766 12.5307C1.49759 12.1711 1.33326 11.7175 1.33333 11.2491V4.05381C1.33333 3.52338 1.54405 3.01467 1.91912 2.6396C2.29419 2.26453 2.8029 2.05381 3.33333 2.05381C3.45406 2.0541 3.57453 2.06503 3.69333 2.08648L6.24 2.55315C6.54641 2.60922 6.82351 2.7708 7.02323 3.00984C7.22294 3.24889 7.33266 3.55032 7.33333 3.86181V14.0058ZM14.6667 11.2491C14.6667 11.7175 14.5024 12.1711 14.2023 12.5307C13.9023 12.8904 13.4855 13.1333 13.0247 13.2171L8.83467 13.9785C8.77867 13.9885 8.72267 13.9978 8.66667 14.0058V3.86181C8.66662 3.54956 8.77617 3.24718 8.97622 3.00742C9.17626 2.76766 9.45412 2.60571 9.76133 2.54981L12.3087 2.08315C12.5971 2.03066 12.8936 2.04225 13.1771 2.11709C13.4606 2.19193 13.7242 2.32819 13.9492 2.51622C14.1742 2.70425 14.3551 2.93945 14.4791 3.20516C14.6031 3.47088 14.6671 3.7606 14.6667 4.05381V11.2491Z" fill="#424242"/>
</g>
<defs>
<clipPath id="clip0_1125_6359">
<rect width="16" height="16" fill="white" transform="translate(0 0.0546875)"/>
</clipPath>
</defs>
</svg>
