<svg width="32" height="32" viewBox="0 0 32 32" fill="none" xmlns="http://www.w3.org/2000/svg">
<rect width="32" height="32" rx="4" fill="#E8E2FD"/>
<path d="M11.75 9.5C11.34 9.5 11 9.16 11 8.75V5.75C11 5.34 11.34 5 11.75 5C12.16 5 12.5 5.34 12.5 5.75V8.75C12.5 9.16 12.16 9.5 11.75 9.5ZM19.75 9.5C19.34 9.5 19 9.16 19 8.75V5.75C19 5.34 19.34 5 19.75 5C20.16 5 20.5 5.34 20.5 5.75V8.75C20.5 9.16 20.16 9.5 19.75 9.5ZM12.25 18.248C12.12 18.248 11.99 18.218 11.87 18.168C11.74 18.118 11.64 18.048 11.54 17.958C11.36 17.768 11.25 17.518 11.25 17.248C11.25 17.118 11.28 16.988 11.33 16.868C11.38 16.748 11.45 16.638 11.54 16.538C11.64 16.448 11.74 16.378 11.87 16.328C12.23 16.178 12.68 16.258 12.96 16.538C13.14 16.728 13.25 16.988 13.25 17.248C13.25 17.308 13.24 17.378 13.23 17.448C13.22 17.508 13.2 17.568 13.17 17.628C13.15 17.688 13.12 17.748 13.08 17.808C13.05 17.858 13 17.908 12.96 17.958C12.77 18.138 12.51 18.248 12.25 18.248ZM15.75 18.249C15.62 18.249 15.49 18.219 15.37 18.169C15.24 18.119 15.14 18.049 15.04 17.959C14.86 17.769 14.75 17.519 14.75 17.249C14.75 17.119 14.78 16.989 14.83 16.869C14.88 16.749 14.95 16.639 15.04 16.539C15.14 16.449 15.24 16.379 15.37 16.329C15.73 16.169 16.18 16.259 16.46 16.539C16.64 16.729 16.75 16.989 16.75 17.249C16.75 17.309 16.74 17.379 16.73 17.449C16.72 17.509 16.7 17.569 16.67 17.629C16.65 17.689 16.62 17.749 16.58 17.809C16.55 17.859 16.5 17.909 16.46 17.959C16.27 18.139 16.01 18.249 15.75 18.249ZM19.25 18.249C19.12 18.249 18.99 18.219 18.87 18.169C18.74 18.119 18.64 18.049 18.54 17.959L18.42 17.809C18.3821 17.7533 18.3519 17.6927 18.33 17.629C18.3011 17.5723 18.2809 17.5117 18.27 17.449C18.26 17.379 18.25 17.309 18.25 17.249C18.25 16.989 18.36 16.729 18.54 16.539C18.64 16.449 18.74 16.379 18.87 16.329C19.24 16.169 19.68 16.259 19.96 16.539C20.14 16.729 20.25 16.989 20.25 17.249C20.25 17.309 20.24 17.379 20.23 17.449C20.22 17.509 20.2 17.569 20.17 17.629C20.15 17.689 20.12 17.749 20.08 17.809C20.05 17.859 20 17.909 19.96 17.959C19.77 18.139 19.51 18.249 19.25 18.249ZM12.25 21.75C12.12 21.75 11.99 21.72 11.87 21.67C11.75 21.62 11.64 21.55 11.54 21.46C11.36 21.27 11.25 21.01 11.25 20.75C11.25 20.62 11.28 20.49 11.33 20.37C11.38 20.24 11.45 20.13 11.54 20.04C11.91 19.67 12.59 19.67 12.96 20.04C13.14 20.23 13.25 20.49 13.25 20.75C13.25 21.01 13.14 21.27 12.96 21.46C12.77 21.64 12.51 21.75 12.25 21.75ZM15.75 21.75C15.49 21.75 15.23 21.64 15.04 21.46C14.86 21.27 14.75 21.01 14.75 20.75C14.75 20.62 14.78 20.49 14.83 20.37C14.88 20.24 14.95 20.13 15.04 20.04C15.41 19.67 16.09 19.67 16.46 20.04C16.55 20.13 16.62 20.24 16.67 20.37C16.72 20.49 16.75 20.62 16.75 20.75C16.75 21.01 16.64 21.27 16.46 21.46C16.27 21.64 16.01 21.75 15.75 21.75ZM19.25 21.75C18.99 21.75 18.73 21.64 18.54 21.46C18.4475 21.3661 18.3759 21.2536 18.33 21.13C18.2786 21.0098 18.2515 20.8807 18.25 20.75C18.25 20.62 18.28 20.49 18.33 20.37C18.38 20.24 18.45 20.13 18.54 20.04C18.77 19.81 19.12 19.7 19.44 19.77C19.51 19.78 19.57 19.8 19.63 19.83C19.69 19.85 19.75 19.88 19.81 19.92C19.86 19.95 19.91 20 19.96 20.04C20.14 20.23 20.25 20.49 20.25 20.75C20.25 21.01 20.14 21.27 19.96 21.46C19.77 21.64 19.51 21.75 19.25 21.75ZM24.25 13.59H7.25C6.84 13.59 6.5 13.25 6.5 12.84C6.5 12.43 6.84 12.09 7.25 12.09H24.25C24.66 12.09 25 12.43 25 12.84C25 13.25 24.66 13.59 24.25 13.59Z" fill="#2C2C2C"/>
<path d="M19.75 26.5H11.75C8.1 26.5 6 24.4 6 20.75V12.25C6 8.6 8.1 6.5 11.75 6.5H19.75C23.4 6.5 25.5 8.6 25.5 12.25V20.75C25.5 24.4 23.4 26.5 19.75 26.5ZM11.75 8C8.89 8 7.5 9.39 7.5 12.25V20.75C7.5 23.61 8.89 25 11.75 25H19.75C22.61 25 24 23.61 24 20.75V12.25C24 9.39 22.61 8 19.75 8H11.75Z" fill="#2C2C2C"/>
</svg>
