<svg width="32" height="32" viewBox="0 0 32 32" fill="none" xmlns="http://www.w3.org/2000/svg">
<rect width="32" height="32" rx="4" fill="#E8E2FD"/>
<path d="M16 25C11.0358 25 7 20.9642 7 16C7 11.0358 11.0358 7 16 7C20.9642 7 25 11.0358 25 16C25 20.9642 20.9642 25 16 25ZM16 8.42105C11.8221 8.42105 8.42105 11.8221 8.42105 16C8.42105 20.1779 11.8221 23.5789 16 23.5789C20.1779 23.5789 23.5789 20.1779 23.5789 16C23.5789 11.8221 20.1779 8.42105 16 8.42105Z" fill="#2C2C2C"/>
<rect x="15.5264" y="11.0264" width="0.947368" height="5.68421" rx="0.473684" stroke="#2C2C2C"/>
<rect x="15.5264" y="16.2373" width="0.947368" height="3.78947" rx="0.473684" transform="rotate(-30 15.5264 16.2373)" stroke="#2C2C2C"/>
</svg>
