<svg width="12" height="15" viewBox="0 0 12 15" fill="none" xmlns="http://www.w3.org/2000/svg">
<path fill-rule="evenodd" clip-rule="evenodd" d="M9.6719 5.4001H8.3999V1.4001C8.3999 0.960098 8.0399 0.600098 7.5999 0.600098H4.3999C3.9599 0.600098 3.5999 0.960098 3.5999 1.4001V5.4001H2.3279C1.6159 5.4001 1.2559 6.2641 1.7599 6.7681L5.4319 10.4401C5.7439 10.7521 6.2479 10.7521 6.5599 10.4401L10.2319 6.7681C10.7359 6.2641 10.3839 5.4001 9.6719 5.4001ZM0.399902 13.4001C0.399902 13.8401 0.759902 14.2001 1.1999 14.2001H10.7999C11.2399 14.2001 11.5999 13.8401 11.5999 13.4001C11.5999 12.9601 11.2399 12.6001 10.7999 12.6001H1.1999C0.759902 12.6001 0.399902 12.9601 0.399902 13.4001Z" fill="#7657E1"/>
</svg>
