<svg width="24" height="23" viewBox="0 0 24 23" fill="none" xmlns="http://www.w3.org/2000/svg">
<g clip-path="url(#clip0_2943_1406)">
<path d="M12.0006 0.000813013H20.7928C22.6779 0.000813013 23.9988 1.34841 23.9995 3.28571C23.9995 7.38885 23.9995 11.4932 23.9995 15.5987C23.9995 17.5374 22.682 18.8908 20.7963 18.8908C18.2577 18.8908 15.7193 18.8908 13.1812 18.8908C12.5584 18.8908 12.1528 18.3676 12.3154 17.7879C12.4209 17.4129 12.7441 17.176 13.1686 17.1753C14.6772 17.1753 16.1862 17.1753 17.6956 17.1753C18.742 17.1753 19.7892 17.1753 20.8374 17.1753C21.7451 17.1753 22.3253 16.5835 22.326 15.6517C22.326 11.5209 22.326 7.3898 22.326 3.25852C22.326 2.31026 21.7486 1.72342 20.8235 1.72342H3.18462C2.25534 1.72342 1.67795 2.30668 1.67725 3.25422C1.67725 7.38503 1.67725 11.5161 1.67725 15.6474C1.67725 16.5713 2.2358 17.1503 3.13436 17.176C3.93175 17.1969 4.69017 17.534 5.25008 18.1163C5.81 18.6987 6.12776 19.4809 6.13654 20.2985C6.13654 20.5039 6.14003 20.71 6.13654 20.9154C6.13654 21.0585 6.16097 21.1866 6.30201 21.2489C6.44304 21.3111 6.56871 21.2489 6.67483 21.1358C7.21662 20.5785 7.75934 20.022 8.30299 19.4662C8.95649 18.7963 9.6072 18.1228 10.2656 17.4573C10.4037 17.3113 10.5881 17.2207 10.7857 17.2018C10.9832 17.1829 11.1808 17.237 11.3429 17.3542C11.4959 17.4673 11.6078 17.6296 11.6607 17.8152C11.7135 18.0009 11.7044 18.1993 11.6347 18.3791C11.579 18.5106 11.4972 18.6288 11.3945 18.7262C10.216 19.9332 9.03771 21.1406 7.85965 22.3481C7.23129 22.9922 6.40324 23.1812 5.65479 22.8355C4.85048 22.4641 4.4602 21.8042 4.4609 20.9032C4.4609 20.7336 4.4609 20.564 4.4609 20.3937C4.45392 19.5155 3.87862 18.918 3.02055 18.8958C2.34389 18.8841 1.68988 18.644 1.15976 18.2128C0.62965 17.7816 0.253018 17.1833 0.0881872 16.5105C0.0238872 16.2412 -0.00661307 15.9646 -0.00257555 15.6874C-0.00257555 11.5294 -0.00257555 7.37143 -0.00257555 3.21343C-0.00257555 1.37059 1.34422 0.0101185 3.15041 0.00940281C6.10186 0.00129196 9.05191 -0.00157253 12.0006 0.000813013Z" fill="#F4F4F4"/>
<path d="M12.0004 10.3028C13.4833 10.3028 14.9663 10.3028 16.4492 10.3028C16.6296 10.3004 16.806 10.3572 16.9527 10.465C17.0993 10.5728 17.2084 10.7259 17.264 10.9018C17.3155 11.0696 17.3151 11.2496 17.2627 11.4171C17.2103 11.5846 17.1085 11.7314 16.9714 11.8372C16.8199 11.9606 16.6307 12.025 16.4373 12.019C13.4798 12.019 10.5226 12.019 7.56553 12.019C7.06982 12.019 6.71096 11.654 6.70886 11.168C6.70886 10.6671 7.06563 10.305 7.5781 10.3042C9.05172 10.3033 10.5258 10.3028 12.0004 10.3028Z" fill="#BA7AFD"/>
<path d="M9.79762 5.73536C10.5042 5.73536 11.2114 5.75898 11.9166 5.72749C12.464 5.70315 12.8389 6.16404 12.8389 6.57626C12.8389 7.05504 12.4759 7.44365 11.962 7.44794C10.4874 7.45844 9.0131 7.45844 7.539 7.44794C7.03701 7.44365 6.69351 7.04216 6.70887 6.54048C6.72283 6.0617 7.06564 5.73894 7.57322 5.73679C8.31469 5.73321 9.05616 5.73536 9.79762 5.73536Z" fill="#BA7AFD"/>
</g>
<defs>
<clipPath id="clip0_2943_1406">
<rect width="24" height="23" fill="white"/>
</clipPath>
</defs>
</svg>
