<svg width="22" height="24" viewBox="0 0 22 24" fill="none" xmlns="http://www.w3.org/2000/svg">
<path d="M6.41857 5.02326C5.9609 5.02326 5.58136 4.64372 5.58136 4.18605V0.837209C5.58136 0.379535 5.9609 0 6.41857 0C6.87625 0 7.25578 0.379535 7.25578 0.837209V4.18605C7.25578 4.64372 6.87625 5.02326 6.41857 5.02326ZM15.3488 5.02326C14.8911 5.02326 14.5116 4.64372 14.5116 4.18605V0.837209C14.5116 0.379535 14.8911 0 15.3488 0C15.8065 0 16.186 0.379535 16.186 0.837209V4.18605C16.186 4.64372 15.8065 5.02326 15.3488 5.02326ZM6.97671 14.7885C6.83159 14.7885 6.68648 14.755 6.55252 14.6992C6.40741 14.6433 6.29578 14.5652 6.18415 14.4647C5.98322 14.2527 5.86043 13.9736 5.86043 13.6722C5.86043 13.5271 5.89392 13.382 5.94973 13.248C6.00555 13.114 6.08369 12.9913 6.18415 12.8796C6.29578 12.7792 6.40741 12.701 6.55252 12.6452C6.95438 12.4778 7.45671 12.5671 7.76927 12.8796C7.9702 13.0917 8.09299 13.382 8.09299 13.6722C8.09299 13.7392 8.08183 13.8173 8.07066 13.8954C8.0595 13.9624 8.03718 14.0294 8.00369 14.0964C7.98136 14.1633 7.94787 14.2303 7.90322 14.2973C7.86973 14.3531 7.81392 14.4089 7.76927 14.4647C7.55718 14.6657 7.26694 14.7885 6.97671 14.7885ZM10.8837 14.7896C10.7386 14.7896 10.5935 14.7561 10.4595 14.7003C10.3144 14.6445 10.2028 14.5663 10.0911 14.4659C9.8902 14.2538 9.76741 13.9747 9.76741 13.6733C9.76741 13.5282 9.8009 13.3831 9.85671 13.2491C9.91252 13.1152 9.99066 12.9924 10.0911 12.8807C10.2028 12.7803 10.3144 12.7021 10.4595 12.6463C10.8614 12.4677 11.3637 12.5682 11.6762 12.8807C11.8772 13.0928 12 13.3831 12 13.6733C12 13.7403 11.9888 13.8184 11.9776 13.8966C11.9665 13.9635 11.9442 14.0305 11.9107 14.0975C11.8883 14.1645 11.8548 14.2314 11.8102 14.2984C11.7767 14.3542 11.7209 14.41 11.6762 14.4659C11.4642 14.6668 11.1739 14.7896 10.8837 14.7896ZM14.7907 14.7896C14.6455 14.7896 14.5004 14.7561 14.3665 14.7003C14.2214 14.6445 14.1097 14.5663 13.9981 14.4659L13.8642 14.2984C13.8219 14.2362 13.7881 14.1686 13.7637 14.0975C13.7314 14.0342 13.7089 13.9665 13.6967 13.8966C13.6855 13.8184 13.6744 13.7403 13.6744 13.6733C13.6744 13.3831 13.7972 13.0928 13.9981 12.8807C14.1097 12.7803 14.2214 12.7021 14.3665 12.6463C14.7795 12.4677 15.2707 12.5682 15.5832 12.8807C15.7842 13.0928 15.9069 13.3831 15.9069 13.6733C15.9069 13.7403 15.8958 13.8184 15.8846 13.8966C15.8735 13.9635 15.8511 14.0305 15.8176 14.0975C15.7953 14.1645 15.7618 14.2314 15.7172 14.2984C15.6837 14.3542 15.6279 14.41 15.5832 14.4659C15.3711 14.6668 15.0809 14.7896 14.7907 14.7896ZM6.97671 18.6977C6.83159 18.6977 6.68648 18.6642 6.55252 18.6084C6.41857 18.5526 6.29578 18.4744 6.18415 18.374C5.98322 18.1619 5.86043 17.8716 5.86043 17.5814C5.86043 17.4363 5.89392 17.2912 5.94973 17.1572C6.00555 17.0121 6.08369 16.8893 6.18415 16.7888C6.59718 16.3758 7.35625 16.3758 7.76927 16.7888C7.9702 17.0009 8.09299 17.2912 8.09299 17.5814C8.09299 17.8716 7.9702 18.1619 7.76927 18.374C7.55718 18.5749 7.26694 18.6977 6.97671 18.6977ZM10.8837 18.6977C10.5935 18.6977 10.3032 18.5749 10.0911 18.374C9.8902 18.1619 9.76741 17.8716 9.76741 17.5814C9.76741 17.4363 9.8009 17.2912 9.85671 17.1572C9.91252 17.0121 9.99066 16.8893 10.0911 16.7888C10.5042 16.3758 11.2632 16.3758 11.6762 16.7888C11.7767 16.8893 11.8549 17.0121 11.9107 17.1572C11.9665 17.2912 12 17.4363 12 17.5814C12 17.8716 11.8772 18.1619 11.6762 18.374C11.4642 18.5749 11.1739 18.6977 10.8837 18.6977ZM14.7907 18.6977C14.5004 18.6977 14.2102 18.5749 13.9981 18.374C13.8948 18.2691 13.8149 18.1436 13.7637 18.0056C13.7063 17.8714 13.676 17.7273 13.6744 17.5814C13.6744 17.4363 13.7079 17.2912 13.7637 17.1572C13.8195 17.0121 13.8976 16.8893 13.9981 16.7888C14.2549 16.5321 14.6455 16.4093 15.0028 16.4874C15.0809 16.4986 15.1479 16.5209 15.2149 16.5544C15.2818 16.5767 15.3488 16.6102 15.4158 16.6549C15.4716 16.6884 15.5274 16.7442 15.5832 16.7888C15.7842 17.0009 15.9069 17.2912 15.9069 17.5814C15.9069 17.8716 15.7842 18.1619 15.5832 18.374C15.3711 18.5749 15.0809 18.6977 14.7907 18.6977ZM20.3721 9.58884H1.39531C0.93764 9.58884 0.558105 9.2093 0.558105 8.75163C0.558105 8.29395 0.93764 7.91442 1.39531 7.91442H20.3721C20.8297 7.91442 21.2093 8.29395 21.2093 8.75163C21.2093 9.2093 20.8297 9.58884 20.3721 9.58884Z" fill="#616161"/>
<path d="M15.3488 23.9999H6.4186C2.34419 23.9999 0 21.6557 0 17.5813V8.09292C0 4.0185 2.34419 1.67432 6.4186 1.67432H15.3488C19.4233 1.67432 21.7674 4.0185 21.7674 8.09292V17.5813C21.7674 21.6557 19.4233 23.9999 15.3488 23.9999ZM6.4186 3.34873C3.22605 3.34873 1.67442 4.90036 1.67442 8.09292V17.5813C1.67442 20.7738 3.22605 22.3255 6.4186 22.3255H15.3488C18.5414 22.3255 20.093 20.7738 20.093 17.5813V8.09292C20.093 4.90036 18.5414 3.34873 15.3488 3.34873H6.4186Z" fill="#616161"/>
</svg>
