<svg width="30" height="30" viewBox="0 0 30 30" fill="none" xmlns="http://www.w3.org/2000/svg">
<path d="M22.475 13.4875V18.4875C22.475 18.8125 22.4625 19.125 22.425 19.425C22.1375 22.8 20.15 24.475 16.4875 24.475H15.9875C15.675 24.475 15.375 24.625 15.1875 24.875L13.6875 26.875C13.025 27.7625 11.95 27.7625 11.2875 26.875L9.7875 24.875C9.68744 24.7585 9.56516 24.6631 9.42779 24.5944C9.29043 24.5257 9.14074 24.4851 8.9875 24.475H8.4875C4.5 24.475 2.5 23.4875 2.5 18.4875V13.4875C2.5 9.825 4.1875 7.8375 7.55 7.55C7.85 7.5125 8.1625 7.5 8.4875 7.5H16.4875C20.475 7.5 22.475 9.5 22.475 13.4875Z" stroke="#7657E1" stroke-width="2" stroke-miterlimit="10" stroke-linecap="round" stroke-linejoin="round"/>
<path d="M27.475 8.4875V13.4875C27.475 17.1625 25.7875 19.1375 22.425 19.425C22.4625 19.125 22.475 18.8125 22.475 18.4875V13.4875C22.475 9.5 20.475 7.5 16.4875 7.5H8.48755C8.16255 7.5 7.85005 7.5125 7.55005 7.55C7.83755 4.1875 9.82505 2.5 13.4875 2.5H21.4875C25.475 2.5 27.475 4.5 27.475 8.4875Z" stroke="#7657E1" stroke-width="2" stroke-miterlimit="10" stroke-linecap="round" stroke-linejoin="round"/>
<path d="M16.8687 16.5625H16.8812M12.4937 16.5625H12.5062M8.11865 16.5625H8.13115" stroke="#7657E1" stroke-width="2" stroke-linecap="round" stroke-linejoin="round"/>
</svg>
