<svg width="24" height="24" viewBox="0 0 24 24" fill="none" xmlns="http://www.w3.org/2000/svg">
<path d="M12 24C18.6274 24 24 18.6274 24 12C24 5.37258 18.6274 0 12 0C5.37258 0 0 5.37258 0 12C0 18.6274 5.37258 24 12 24Z" fill="#7657E1"/>
<g clip-path="url(#clip0_435_2098)">
<path d="M15.4884 11.2942V13.6275C15.4884 13.7792 15.4826 13.925 15.4651 14.065C15.3309 15.64 14.4034 16.4217 12.6942 16.4217H12.4609C12.3151 16.4217 12.1751 16.4917 12.0876 16.6083L11.3876 17.5417C11.0784 17.9558 10.5767 17.9558 10.2676 17.5417L9.56758 16.6083C9.52089 16.554 9.46382 16.5094 9.39972 16.4774C9.33561 16.4453 9.26576 16.4264 9.19425 16.4217H8.96091C7.10008 16.4217 6.16675 15.9608 6.16675 13.6275V11.2942C6.16675 9.585 6.95425 8.6575 8.52341 8.52333C8.66341 8.50583 8.80925 8.5 8.96091 8.5H12.6942C14.5551 8.5 15.4884 9.43333 15.4884 11.2942Z" stroke="white" stroke-miterlimit="10" stroke-linecap="round" stroke-linejoin="round"/>
<path d="M17.8218 8.96116V11.2945C17.8218 13.0095 17.0343 13.9312 15.4651 14.0653C15.4826 13.9253 15.4884 13.7795 15.4884 13.6278V11.2945C15.4884 9.43366 14.5551 8.50033 12.6943 8.50033H8.96094C8.80927 8.50033 8.66344 8.50616 8.52344 8.52366C8.6576 6.95449 9.5851 6.16699 11.2943 6.16699H15.0276C16.8884 6.16699 17.8218 7.10033 17.8218 8.96116Z" stroke="white" stroke-miterlimit="10" stroke-linecap="round" stroke-linejoin="round"/>
<path d="M12.8719 12.7295H12.8777M10.8302 12.7295H10.8361M8.78857 12.7295H8.79441" stroke="white" stroke-linecap="round" stroke-linejoin="round"/>
</g>
<defs>
<clipPath id="clip0_435_2098">
<rect width="14" height="14" fill="white" transform="translate(5 5)"/>
</clipPath>
</defs>
</svg>
