<svg width="35" height="34" viewBox="0 0 35 34" fill="none" xmlns="http://www.w3.org/2000/svg">
<g clip-path="url(#clip0_435_5044)">
<path d="M34.1482 20.3732L34.1475 20.3769C33.5332 23.307 32.1321 26.0147 30.0948 28.2092C28.0575 30.4037 25.4607 32.0023 22.5832 32.8333C19.7057 33.6643 16.656 33.6962 13.7617 32.9259C10.8673 32.1555 8.23755 30.6119 6.15454 28.4606C4.07155 26.3094 2.61404 23.6318 1.93835 20.7152C1.26265 17.7986 1.39432 14.7532 2.31923 11.9058C3.24414 9.05834 4.92734 6.51633 7.18825 4.55272C9.44917 2.58912 12.2025 1.27801 15.1526 0.760108L15.154 0.759858C15.6169 0.677233 16.0791 0.619733 16.5544 0.560614C16.7127 0.540918 16.8725 0.521043 17.0343 0.5H18.9694L19.6598 0.580726L19.6597 0.580795L19.6681 0.581627C23.1308 0.927943 26.3922 2.37075 28.977 4.69977L28.977 4.6998L28.9816 4.70385C31.7705 7.15537 33.6287 10.4929 34.2431 14.1539L34.243 14.1539L34.2442 14.1601C34.3539 14.7669 34.4281 15.3904 34.5037 16.0248L34.504 16.0278V17.9933C34.504 17.9933 34.503 18.0066 34.4918 18.0551C34.4905 18.0609 34.4889 18.0678 34.487 18.0757C34.4761 18.1217 34.4573 18.2008 34.4471 18.2798C34.4127 18.5262 34.3847 18.7625 34.3574 18.9926C34.301 19.467 34.2478 19.9155 34.1482 20.3732ZM33.2393 16.9934L33.2403 16.4923H33.2006C33.1074 13.6539 32.222 10.8942 30.6399 8.52738C28.9649 6.02177 26.5842 4.06884 23.7989 2.91566C21.0136 1.76248 17.9488 1.46077 14.9919 2.04866C12.0351 2.63654 9.31917 4.08765 7.18738 6.21847C5.0556 8.3493 3.60369 11.0642 3.01551 14.0198C2.42734 16.9754 2.7293 20.039 3.88303 22.8231C5.03677 25.6072 6.99061 27.9868 9.49731 29.661C12.004 31.3352 14.951 32.2287 17.9658 32.2287C22.011 32.2287 25.8912 30.6247 28.7546 27.7684C31.6181 24.9122 33.2309 21.037 33.2393 16.9934Z" fill="white" stroke="white"/>
<path d="M25.3433 17.2886H25.3766L25.4096 17.2842C25.5708 17.2626 25.7344 17.3018 25.8684 17.394C26.0024 17.4862 26.0972 17.6249 26.1345 17.7829L26.1344 17.7829L26.136 17.7892C26.1562 17.8702 26.1595 17.9547 26.1456 18.0375L26.6387 18.1204L26.1456 18.0375C26.1317 18.1201 26.1009 18.1989 26.0553 18.269C26.0095 18.3391 25.9498 18.3991 25.8799 18.4451C25.8152 18.4877 25.743 18.5175 25.6673 18.5331C25.5713 18.5402 25.4749 18.5396 25.379 18.5312L25.3573 18.5293H25.3356H16.5017V18.5152V18.4928V18.4704V18.448V18.4255V18.4031V18.3807V18.3583V18.3359V18.3135V18.2911V18.2687V18.2463V18.2239V18.2015V18.1791V18.1567V18.1343V18.1119V18.0895V18.0671V18.0447V18.0223V17.9999V17.9774V17.955V17.9326V17.9102V17.8878V17.8654V17.843V17.8206V17.7982V17.7758V17.7534V17.731V17.7086V17.6862V17.6638V17.6414V17.619V17.5965V17.5741V17.5517V17.5293V17.5069V17.4845V17.4621V17.4397V17.4173V17.3949V17.3725V17.3501V17.3277V17.3052V17.2828V17.2604V17.238V17.2156V17.1932V17.1708V17.1484V17.126V17.1036V17.0812V17.0587V17.0363V17.0139V16.9915V16.9691V16.9467V16.9243V16.9019V16.8795V16.857V16.8346V16.8122V16.7898V16.7674V16.745V16.7226V16.7002V16.6777V16.6553V16.6329V16.6105V16.5881V16.5657V16.5433V16.5208V16.4984V16.476V16.4536V16.4312V16.4088V16.3864V16.3639V16.3415V16.3191V16.2967V16.2743V16.2519V16.2294V16.207V16.1846V16.1622V16.1398V16.1174V16.0949V16.0725V16.0501V16.0277V16.0053V15.9828V15.9604V15.938V15.9156V15.8932V15.8707V15.8483V15.8259V15.8035V15.781V15.7586V15.7362V15.7138V15.6914V15.6689V15.6465V15.6241V15.6017V15.5792V15.5568V15.5344V15.512V15.4895V15.4671V15.4447V15.4223V15.3998V15.3774V15.355V15.3325V15.3101V15.2877V15.2653V15.2428V15.2204V15.198V15.1755V15.1531V15.1307V15.1082V15.0858V15.0634V15.041V15.0185V14.9961V14.9737V14.9512V14.9288V14.9064V14.8839V14.8615V14.839V14.8166V14.7942V14.7717V14.7493V14.7269V14.7044V14.682V14.6596V14.6371V14.6147V14.5922V14.5698V14.5474V14.5249V14.5025V14.48V14.4576V14.4351V14.4127V14.3903V14.3678V14.3454V14.3229V14.3005V14.278V14.2556V14.2331V14.2107V14.1883V14.1658V14.1434V14.1209V14.0985V14.076V14.0536V14.0311V14.0087V13.9862V13.9638V13.9413V13.9189V13.8964V13.874V13.8515V13.8291V13.8066V13.7841V13.7617V13.7392V13.7168V13.6943V13.6719V13.6494V13.627V13.6045V13.582V13.5596V13.5371V13.5147V13.4922V13.4697V13.4473V13.4248V13.4023V13.3799V13.3574V13.335V13.3125V13.29V13.2676V13.2451V13.2226V13.2002V13.1777V13.1552V13.1328V13.1103V13.0878V13.0654V13.0429V13.0204V12.9979V12.9755V12.953V12.9305V12.908V12.8856V12.8631V12.8406V12.8181V12.7957V12.7732V12.7507V12.7282V12.7058V12.6833V12.6608V12.6383V12.6158V12.5934V12.5709V12.5484V12.5259V12.5034V12.4809V12.4585V12.436V12.4135V12.391V12.3685V12.346V12.3235V12.301V12.2786V12.2561V12.2336V12.2111V12.1886V12.1661V12.1436V12.1211V12.0986V12.0761V12.0536V12.0311V12.0086V11.9861V11.9636V11.9411V11.9186V11.8961V11.8736V11.8511V11.8286V11.8061V11.7836V11.7611V11.7386V11.7161V11.6936V11.6711V11.6486V11.6261V11.6036V11.5811V11.5586V11.5361V11.5135V11.491V11.4685V11.446V11.4235V11.401V11.3785V11.356V11.3334V11.3109V11.2884V11.2659V11.2434V11.2208V11.1983V11.1758V11.1533V11.1308V11.1082V11.0857V11.0632V11.0407V11.0181V10.9956V10.9731V10.9506V10.928V10.9055V10.883V10.8604V10.8379V10.8154V10.7928V10.7703V10.7478V10.7252V10.7027V10.6802V10.6576V10.6351V10.6125V10.59V10.5675V10.5449V10.5224V10.4998V10.4773V10.4548V10.4322V10.4097V10.3871V10.3646V10.342V10.3195V10.2969V10.2744V10.2518V10.2293V10.2067V10.1842V10.1616V10.1391V10.1165V10.0939V10.0714V10.0488V10.0263V10.0037V9.98115V9.95859V9.93603V9.91346V9.8909V9.86833V9.84577V9.8232V9.80064V9.77807V9.7555V9.73293V9.71036V9.68779V9.66522V9.64264V9.62007V9.5975V9.57492V9.55234V9.52977V9.50719V9.48461V9.46203V9.43945V9.41687V9.39429V9.3717V9.34912V9.32654V9.30395V9.28136V9.25878V9.23619V9.2136V9.19101V9.16842V9.14583V9.12323V9.10064V9.07805V9.05545V9.03286V9.01026V8.98766V8.96506V8.94246V8.91986V8.89726V8.87466V8.85206V8.82945V8.80685V8.78424V8.76163V8.73903V8.71642V8.69381V8.6712V8.64859V8.62597V8.60336V8.58075V8.55813V8.53551V8.5129V8.49028V8.46766V8.44504V8.42242V8.3998V8.37718V8.35455V8.33193V8.3093V8.28668V8.26405V8.24142V8.21879V8.19616V8.17353V8.1509V8.12826V8.10563V8.08299V8.06036V8.03772V8.01508V7.99244V7.9698V7.94716V7.92452V7.90188V7.87923V7.85659V7.83394V7.8113V7.78865V7.766V7.74335V7.7207V7.69805V7.67539V7.65274V7.63008V7.60743V7.58477V7.56211V7.53945V7.51679V7.49413V7.47147V7.44881V7.42614V7.40348V7.38081V7.35814V7.33548V7.31281V7.29014V7.26746V7.24479V7.21976L16.4992 7.19485C16.4906 7.10831 16.4999 7.02072 16.5268 6.93756C16.5536 6.85463 16.5974 6.77804 16.6553 6.71275C16.7131 6.6475 16.7839 6.59494 16.8631 6.55832C16.9423 6.52172 17.0283 6.50191 17.1156 6.50013C17.203 6.49835 17.2898 6.51466 17.3703 6.54798C17.4508 6.58126 17.5236 6.63089 17.5842 6.69389C17.6448 6.75688 17.6917 6.83164 17.7218 6.91329C17.7519 6.99484 17.7647 7.08191 17.7596 7.1692L17.7587 7.18402V7.19886V7.20832V7.21777V7.22723V7.23668V7.24614V7.25559V7.26505V7.2745V7.28395V7.29341V7.30286V7.31232V7.32177V7.33123V7.34068V7.35014V7.35959V7.36905V7.3785V7.38796V7.39741V7.40686V7.41632V7.42577V7.43523V7.44468V7.45414V7.46359V7.47305V7.4825V7.49196V7.50141V7.51087V7.52032V7.52977V7.53923V7.54868V7.55814V7.56759V7.57705V7.5865V7.59596V7.60541V7.61487V7.62432V7.63378V7.64323V7.65269V7.66214V7.67159V7.68105V7.6905V7.69996V7.70941V7.71887V7.72832V7.73778V7.74723V7.75669V7.76614V7.7756V7.78505V7.79451V7.80396V7.81341V7.82287V7.83232V7.84178V7.85123V7.86069V7.87014V7.8796V7.88905V7.89851V7.90796V7.91742V7.92687V7.93633V7.94578V7.95523V7.96469V7.97414V7.9836V7.99305V8.00251V8.01196V8.02142V8.03087V8.04033V8.04978V8.05924V8.06869V8.07815V8.0876V8.09706V8.10651V8.11596V8.12542V8.13487V8.14433V8.15378V8.16324V8.17269V8.18215V8.1916V8.20106V8.21051V8.21997V8.22942V8.23888V8.24833V8.25779V8.26724V8.27669V8.28615V8.2956V8.30506V8.31451V8.32397V8.33342V8.34288V8.35233V8.36179V8.37124V8.3807V8.39015V8.39961V8.40906V8.41852V8.42797V8.43743V8.44688V8.45633V8.46579V8.47524V8.4847V8.49415V8.50361V8.51306V8.52252V8.53197V8.54143V8.55088V8.56034V8.56979V8.57925V8.5887V8.59816V8.60761V8.61707V8.62652V8.63597V8.64543V8.65488V8.66434V8.67379V8.68325V8.6927V8.70216V8.71161V8.72107V8.73052V8.73998V8.74943V8.75889V8.76834V8.7778V8.78725V8.79671V8.80616V8.81562V8.82507V8.83452V8.84398V8.85343V8.86289V8.87234V8.8818V8.89125V8.90071V8.91016V8.91962V8.92907V8.93853V8.94798V8.95744V8.96689V8.97635V8.9858V8.99526V9.00471V9.01417V9.02362V9.03307V9.04253V9.05198V9.06144V9.07089V9.08035V9.0898V9.09926V9.10871V9.11817V9.12762V9.13708V9.14653V9.15599V9.16544V9.1749V9.18435V9.19381V9.20326V9.21272V9.22217V9.23162V9.24108V9.25053V9.25999V9.26944V9.2789V9.28835V9.29781V9.30726V9.31672V9.32617V9.33563V9.34508V9.35454V9.36399V9.37345V9.3829V9.39236V9.40181V9.41127V9.42072V9.43018V9.43963V9.44908V9.45854V9.46799V9.47745V9.4869V9.49636V9.50581V9.51527V9.52472V9.53418V9.54363V9.55309V9.56254V9.572V9.58145V9.59091V9.60036V9.60982V9.61927V9.62873V9.63818V9.64763V9.65709V9.66654V9.676V9.68545V9.69491V9.70436V9.71382V9.72327V9.73273V9.74218V9.75164V9.76109V9.77055V9.78V9.78946V9.79891V9.80837V9.81782V9.82728V9.83673V9.84619V9.85564V9.86509V9.87455V9.884V9.89346V9.90291V9.91237V9.92182V9.93128V9.94073V9.95019V9.95964V9.9691V9.97855V9.98801V9.99746V10.0069V10.0164V10.0258V10.0353V10.0447V10.0542V10.0636V10.0731V10.0826V10.092V10.1015V10.1109V10.1204V10.1298V10.1393V10.1487V10.1582V10.1676V10.1771V10.1866V10.196V10.2055V10.2149V10.2244V10.2338V10.2433V10.2527V10.2622V10.2716V10.2811V10.2906V10.3V10.3095V10.3189V10.3284V10.3378V10.3473V10.3567V10.3662V10.3757V10.3851V10.3946V10.404V10.4135V10.4229V10.4324V10.4418V10.4513V10.4607V10.4702V10.4797V10.4891V10.4986V10.508V10.5175V10.5269V10.5364V10.5458V10.5553V10.5647V10.5742V10.5837V10.5931V10.6026V10.612V10.6215V10.6309V10.6404V10.6498V10.6593V10.6687V10.6782V10.6877V10.6971V10.7066V10.716V10.7255V10.7349V10.7444V10.7538V10.7633V10.7728V10.7822V10.7917V10.8011V10.8106V10.82V10.8295V10.8389V10.8484V10.8578V10.8673V10.8768V10.8862V10.8957V10.9051V10.9146V10.924V10.9335V10.9429V10.9524V10.9618V10.9713V10.9808V10.9902V10.9997V11.0091V11.0186V11.028V11.0375V11.0469V11.0564V11.0658V11.0753V11.0848V11.0942V11.1037V11.1131V11.1226V11.132V11.1415V11.1509V11.1604V11.1698V11.1793V11.1888V11.1982V11.2077V11.2171V11.2266V11.236V11.2455V11.2549V11.2644V11.2739V11.2833V11.2928V11.3022V11.3117V11.3211V11.3306V11.34V11.3495V11.3589V11.3684V11.3779V11.3873V11.3968V11.4062V11.4157V11.4251V11.4346V11.444V11.4535V11.4629V11.4724V11.4819V11.4913V11.5008V11.5102V11.5197V11.5291V11.5386V11.548V11.5575V11.5669V11.5764V11.5859V11.5953V11.6048V11.6142V11.6237V11.6331V11.6426V11.652V11.6615V11.6709V11.6804V11.6899V11.6993V11.7088V11.7182V11.7277V11.7371V11.7466V11.756V11.7655V11.7749V11.7844V11.7939V11.8033V11.8128V11.8222V11.8317V11.8411V11.8506V11.86V11.8695V11.879V11.8884V11.8979V11.9073V11.9168V11.9262V11.9357V11.9451V11.9546V11.964V11.9735V11.983V11.9924V12.0019V12.0113V12.0208V12.0302V12.0397V16.7886H18.2359V17.2886H18.2587H18.7587H25.3433Z" fill="white" stroke="white"/>
</g>
<defs>
<clipPath id="clip0_435_5044">
<rect width="34" height="34" fill="white" transform="translate(0.996094)"/>
</clipPath>
</defs>
</svg>
