<svg width="18" height="18" viewBox="0 0 18 18" fill="none" xmlns="http://www.w3.org/2000/svg">
<path d="M9 18C4.03579 18 0 13.9642 0 9C0 4.03579 4.03579 0 9 0C13.9642 0 18 4.03579 18 9C18 13.9642 13.9642 18 9 18ZM9 1.42105C4.82211 1.42105 1.42105 4.82211 1.42105 9C1.42105 13.1779 4.82211 16.5789 9 16.5789C13.1779 16.5789 16.5789 13.1779 16.5789 9C16.5789 4.82211 13.1779 1.42105 9 1.42105Z" fill="#352768"/>
<rect x="8.52631" y="4.02632" width="0.947368" height="5.68421" rx="0.473684" stroke="#352768"/>
<rect x="8.52631" y="9.23685" width="0.947368" height="3.78947" rx="0.473684" transform="rotate(-30 8.52631 9.23685)" stroke="#352768"/>
</svg>
