<svg width="242" height="61" viewBox="0 0 242 61" fill="none" xmlns="http://www.w3.org/2000/svg">
<path d="M96.5719 22.6271C97.8519 22.6271 98.9399 22.8191 99.8359 23.2031C100.753 23.5658 101.521 24.0885 102.14 24.7711C102.759 25.4538 103.228 26.2325 103.548 27.1071L100.316 28.3871C100.039 27.4058 99.5906 26.6591 98.9719 26.1471C98.3746 25.6138 97.5852 25.3471 96.6039 25.3471C95.6439 25.3471 94.8226 25.5711 94.1399 26.0191C93.4572 26.4458 92.9346 27.0751 92.5719 27.9071C92.2306 28.7391 92.0599 29.7631 92.0599 30.9791C92.0599 32.1738 92.2412 33.1871 92.6039 34.0191C92.9666 34.8511 93.4892 35.4805 94.1719 35.9071C94.8546 36.3338 95.6652 36.5471 96.6039 36.5471C97.3292 36.5471 97.9586 36.4298 98.4919 36.1951C99.0252 35.9391 99.4626 35.5871 99.8039 35.1391C100.167 34.6698 100.412 34.1045 100.54 33.4431L103.644 34.4991C103.345 35.4591 102.876 36.3018 102.236 37.0271C101.617 37.7311 100.839 38.2858 99.8999 38.6911C98.9612 39.0751 97.8839 39.2671 96.6679 39.2671C95.0892 39.2671 93.6919 38.9365 92.4759 38.2751C91.2599 37.6138 90.3106 36.6645 89.6279 35.4271C88.9666 34.1685 88.6359 32.6751 88.6359 30.9471C88.6359 29.2191 88.9666 27.7365 89.6279 26.4991C90.3106 25.2405 91.2492 24.2805 92.4439 23.6191C93.6599 22.9578 95.0359 22.6271 96.5719 22.6271ZM113.325 39.2671C112.279 39.2671 111.309 39.0751 110.413 38.6911C109.538 38.3071 108.834 37.6885 108.301 36.8351C107.767 35.9818 107.501 34.8725 107.501 33.5071V22.9471H110.925V32.6431C110.925 34.0938 111.234 35.0965 111.853 35.6511C112.471 36.1845 113.335 36.4511 114.445 36.4511C114.978 36.4511 115.49 36.3658 115.981 36.1951C116.493 36.0031 116.951 35.7151 117.357 35.3311C117.762 34.9258 118.071 34.4138 118.285 33.7951C118.519 33.1765 118.637 32.4511 118.637 31.6191V22.9471H122.061V38.9471H119.053L118.893 36.3551C118.338 37.3578 117.591 38.0938 116.653 38.5631C115.714 39.0325 114.605 39.2671 113.325 39.2671ZM127.41 38.9471V22.9471H130.322L130.642 25.8271C131.069 24.7818 131.698 23.9925 132.53 23.4591C133.383 22.9045 134.429 22.6271 135.666 22.6271C135.986 22.6271 136.306 22.6591 136.626 22.7231C136.946 22.7658 137.213 22.8405 137.426 22.9471L136.946 25.9551C136.711 25.8698 136.445 25.8058 136.146 25.7631C135.869 25.6991 135.485 25.6671 134.994 25.6671C134.333 25.6671 133.682 25.8485 133.042 26.2111C132.402 26.5525 131.869 27.0751 131.442 27.7791C131.037 28.4831 130.834 29.3791 130.834 30.4671V38.9471H127.41ZM147.294 39.2671C145.694 39.2671 144.286 38.9365 143.07 38.2751C141.854 37.6138 140.904 36.6645 140.222 35.4271C139.56 34.1685 139.23 32.6751 139.23 30.9471C139.23 29.2191 139.56 27.7365 140.222 26.4991C140.904 25.2405 141.843 24.2805 143.038 23.6191C144.232 22.9578 145.587 22.6271 147.102 22.6271C148.659 22.6271 149.982 22.9471 151.07 23.5871C152.158 24.2271 152.99 25.1018 153.566 26.2111C154.142 27.3205 154.43 28.5791 154.43 29.9871C154.43 30.3711 154.419 30.7338 154.398 31.0751C154.376 31.4165 154.344 31.7151 154.302 31.9711H141.438V29.3471H152.798L151.102 29.8591C151.102 28.4085 150.739 27.2991 150.014 26.5311C149.288 25.7418 148.296 25.3471 147.038 25.3471C146.12 25.3471 145.32 25.5605 144.638 25.9871C143.955 26.4138 143.432 27.0538 143.07 27.9071C142.707 28.7391 142.526 29.7631 142.526 30.9791C142.526 32.1738 142.718 33.1871 143.102 34.0191C143.486 34.8511 144.03 35.4805 144.734 35.9071C145.438 36.3338 146.27 36.5471 147.23 36.5471C148.296 36.5471 149.16 36.3445 149.822 35.9391C150.483 35.5338 151.006 34.9685 151.39 34.2431L154.11 35.5231C153.726 36.2911 153.203 36.9631 152.542 37.5391C151.902 38.0938 151.134 38.5205 150.238 38.8191C149.342 39.1178 148.36 39.2671 147.294 39.2671ZM168.23 38.9471V22.9471H170.31L170.662 25.5711C171.11 24.5898 171.761 23.8538 172.614 23.3631C173.489 22.8725 174.545 22.6271 175.782 22.6271C176.059 22.6271 176.358 22.6485 176.678 22.6911C177.019 22.7338 177.307 22.8191 177.542 22.9471L177.094 25.2831C176.859 25.1978 176.603 25.1338 176.326 25.0911C176.049 25.0485 175.654 25.0271 175.142 25.0271C174.481 25.0271 173.809 25.2191 173.126 25.6031C172.465 25.9871 171.91 26.5738 171.462 27.3631C171.014 28.1311 170.79 29.1125 170.79 30.3071V38.9471H168.23ZM182.572 19.8751C181.996 19.8751 181.527 19.7045 181.164 19.3631C180.823 19.0005 180.652 18.5311 180.652 17.9551C180.652 17.3791 180.823 16.9205 181.164 16.5791C181.527 16.2165 181.996 16.0351 182.572 16.0351C183.148 16.0351 183.607 16.2165 183.948 16.5791C184.311 16.9205 184.492 17.3791 184.492 17.9551C184.492 18.5311 184.311 19.0005 183.948 19.3631C183.607 19.7045 183.148 19.8751 182.572 19.8751ZM183.852 22.9471V38.9471H181.292V22.9471H183.852ZM203.264 20.0031L203.84 22.2751C203.819 22.2751 203.787 22.2751 203.744 22.2751C203.702 22.2751 203.659 22.2751 203.616 22.2751C202.571 22.2751 201.76 22.4885 201.184 22.9151C200.63 23.3205 200.352 23.9818 200.352 24.8991L198.784 24.0991C198.784 23.2671 198.976 22.5418 199.36 21.9231C199.744 21.3045 200.267 20.8351 200.928 20.5151C201.59 20.1738 202.315 20.0031 203.104 20.0031C203.126 20.0031 203.147 20.0031 203.168 20.0031C203.211 20.0031 203.243 20.0031 203.264 20.0031ZM198.4 36.8991C199.915 36.8991 201.099 37.2511 201.952 37.9551C202.806 38.6378 203.232 39.5551 203.232 40.7071C203.232 41.7525 202.88 42.6591 202.176 43.4271C201.494 44.1951 200.566 44.7818 199.392 45.1871C198.24 45.6138 196.939 45.8271 195.488 45.8271C192.971 45.8271 191.083 45.4005 189.824 44.5471C188.587 43.6938 187.968 42.6698 187.968 41.4751C187.968 40.6218 188.246 39.8538 188.8 39.1711C189.376 38.5098 190.336 38.1365 191.68 38.0511L191.456 38.5311C190.731 38.3391 190.112 38.0191 189.6 37.5711C189.11 37.1018 188.864 36.4298 188.864 35.5551C188.864 34.6805 189.184 33.9338 189.824 33.3151C190.486 32.6751 191.456 32.2805 192.736 32.1311L194.432 32.9951H194.112C193.067 33.1018 192.32 33.3685 191.872 33.7951C191.446 34.2005 191.232 34.6485 191.232 35.1391C191.232 35.7365 191.446 36.1845 191.872 36.4831C192.32 36.7605 192.939 36.8991 193.728 36.8991H198.4ZM195.456 43.6831C196.694 43.6831 197.707 43.5551 198.496 43.2991C199.307 43.0431 199.904 42.7125 200.288 42.3071C200.672 41.9018 200.864 41.4645 200.864 40.9951C200.864 40.4191 200.63 39.9605 200.16 39.6191C199.712 39.2778 198.891 39.1071 197.696 39.1071H192.768C192.086 39.1071 191.51 39.2778 191.04 39.6191C190.571 39.9818 190.336 40.4725 190.336 41.0911C190.336 41.8805 190.784 42.5098 191.68 42.9791C192.598 43.4485 193.856 43.6831 195.456 43.6831ZM195.232 22.6271C196.512 22.6271 197.643 22.8618 198.624 23.3311C199.627 23.7791 200.406 24.4085 200.96 25.2191C201.515 26.0298 201.792 26.9685 201.792 28.0351C201.792 29.0805 201.515 30.0191 200.96 30.8511C200.406 31.6618 199.627 32.3018 198.624 32.7711C197.643 33.2191 196.512 33.4431 195.232 33.4431C193.12 33.4431 191.499 32.9418 190.368 31.9391C189.238 30.9151 188.672 29.6138 188.672 28.0351C188.672 26.9685 188.95 26.0298 189.504 25.2191C190.08 24.4085 190.859 23.7791 191.84 23.3311C192.822 22.8618 193.952 22.6271 195.232 22.6271ZM195.232 24.7071C194.123 24.7071 193.195 25.0165 192.448 25.6351C191.702 26.2325 191.328 27.0325 191.328 28.0351C191.328 29.0165 191.702 29.8165 192.448 30.4351C193.195 31.0538 194.123 31.3631 195.232 31.3631C196.342 31.3631 197.27 31.0538 198.016 30.4351C198.763 29.8165 199.136 29.0165 199.136 28.0351C199.136 27.0325 198.763 26.2325 198.016 25.6351C197.27 25.0165 196.342 24.7071 195.232 24.7071ZM206.824 38.9471V15.5871H209.384V25.3471C209.938 24.3871 210.674 23.6938 211.592 23.2671C212.509 22.8405 213.512 22.6271 214.6 22.6271C215.752 22.6271 216.797 22.8511 217.736 23.2991C218.674 23.7258 219.421 24.3871 219.976 25.2831C220.552 26.1791 220.84 27.3205 220.84 28.7071V38.9471H218.28V29.6031C218.28 27.8325 217.896 26.6058 217.128 25.9231C216.381 25.2191 215.453 24.8671 214.344 24.8671C213.576 24.8671 212.808 25.0485 212.04 25.4111C211.272 25.7738 210.632 26.3711 210.12 27.2031C209.629 28.0138 209.384 29.1018 209.384 30.4671V38.9471H206.824ZM230.193 18.4031V34.5311C230.193 35.3205 230.417 35.9071 230.865 36.2911C231.313 36.6751 231.889 36.8671 232.593 36.8671C233.212 36.8671 233.745 36.7605 234.193 36.5471C234.641 36.3338 235.047 36.0458 235.409 35.6831L236.305 37.8271C235.815 38.2751 235.228 38.6271 234.545 38.8831C233.884 39.1391 233.116 39.2671 232.241 39.2671C231.431 39.2671 230.673 39.1285 229.969 38.8511C229.265 38.5525 228.7 38.0938 228.273 37.4751C227.868 36.8351 227.655 36.0031 227.633 34.9791V19.1071L230.193 18.4031ZM236.017 22.9471V25.1551H224.433V22.9471H236.017Z" fill="#5F636E"/>
<path d="M40.5 54.7019L38.851 56.3391C37.7314 57.4509 36.4021 58.3329 34.9391 58.9346C33.4761 59.5364 31.9081 59.8461 30.3245 59.8461C28.7409 59.8461 27.1729 59.5364 25.7099 58.9346C24.2469 58.3329 22.9176 57.4509 21.798 56.3391C19.5374 54.0931 18.2676 51.0479 18.2676 47.8727C18.2676 44.6975 19.5374 41.6523 21.798 39.4063L30.326 30.9395L39.013 39.5642C40.9884 41.5256 42.2169 44.107 42.4886 46.8676C42.7604 49.6282 42.0586 52.3969 40.503 54.7009L40.5 54.7019Z" fill="#6400B1"/>
<path d="M21.7949 39.4053C19.5343 41.6512 18.2644 44.6965 18.2644 47.8716C18.2644 51.0468 19.5343 54.092 21.7949 56.338L3.53585 38.2079C2.41528 37.0964 1.52626 35.7765 0.919569 34.3238C0.312878 32.8711 0.000404811 31.3139 3.93066e-07 29.7413C-0.000404025 28.1686 0.311268 26.6113 0.917213 25.1582C1.52316 23.7052 2.4115 22.3849 3.5315 21.2728C4.6515 20.1607 5.9812 19.2786 7.44466 18.6768C8.90812 18.075 10.4767 17.7654 12.0607 17.7656C13.6447 17.7658 15.2131 18.0759 16.6764 18.6781C18.1397 19.2802 19.4692 20.1627 20.5889 21.2751L30.3269 30.9394L21.7949 39.4053Z" fill="#7657E1"/>
<path d="M78.5373 11.9754C78.5397 13.5474 78.2292 15.1045 77.6235 16.557C77.0179 18.0095 76.1291 19.3289 75.0083 20.4393L40.4983 54.7019C42.0539 52.398 42.7559 49.6294 42.4843 46.8688C42.2128 44.1082 40.9845 41.5268 39.0093 39.5652L30.3223 30.9395L57.9523 3.5095C59.6384 1.83408 61.7873 0.692917 64.1269 0.230436C66.4666 -0.232044 68.8918 0.00494096 71.0957 0.911402C73.2997 1.81786 75.1832 3.35305 76.5081 5.3227C77.8329 7.29235 78.5394 9.60792 78.5383 11.9764L78.5373 11.9754Z" fill="#B979FC"/>
<path d="M21.7949 39.4053C19.5343 41.6512 18.2644 44.6965 18.2644 47.8716C18.2644 51.0468 19.5343 54.092 21.7949 56.338L3.53585 38.2079C2.41528 37.0964 1.52626 35.7765 0.919569 34.3238C0.312878 32.8711 0.000404811 31.3139 3.93066e-07 29.7413C-0.000404025 28.1686 0.311268 26.6113 0.917213 25.1582C1.52316 23.7052 2.4115 22.3849 3.5315 21.2728C4.6515 20.1607 5.9812 19.2786 7.44466 18.6768C8.90812 18.075 10.4767 17.7654 12.0607 17.7656C13.6447 17.7658 15.2131 18.0759 16.6764 18.6781C18.1397 19.2802 19.4692 20.1627 20.5889 21.2751L30.3269 30.9394L21.7949 39.4053Z" fill="#7657E1"/>
<path d="M78.5373 11.9754C78.5397 13.5474 78.2292 15.1045 77.6235 16.557C77.0179 18.0095 76.1291 19.3289 75.0083 20.4393L40.4983 54.7019C42.0539 52.398 42.7559 49.6294 42.4843 46.8688C42.2128 44.1082 40.9845 41.5268 39.0093 39.5652L30.3223 30.9395L57.9523 3.5095C59.6384 1.83408 61.7873 0.692917 64.1269 0.230436C66.4666 -0.232044 68.8918 0.00494096 71.0957 0.911402C73.2997 1.81786 75.1832 3.35305 76.5081 5.3227C77.8329 7.29235 78.5394 9.60792 78.5383 11.9764L78.5373 11.9754Z" fill="#B979FC"/>
</svg>
