<svg width="245" height="52" viewBox="0 0 245 52" fill="none" xmlns="http://www.w3.org/2000/svg">
<path d="M92.568 18.6802C93.848 18.6802 94.936 18.8722 95.832 19.2562C96.7493 19.6189 97.5173 20.1416 98.136 20.8242C98.7547 21.5069 99.224 22.2856 99.544 23.1602L96.312 24.4402C96.0347 23.4589 95.5867 22.7122 94.968 22.2002C94.3707 21.6669 93.5813 21.4002 92.6 21.4002C91.64 21.4002 90.8187 21.6242 90.136 22.0722C89.4533 22.4989 88.9307 23.1282 88.568 23.9602C88.2267 24.7922 88.056 25.8162 88.056 27.0322C88.056 28.2269 88.2373 29.2402 88.6 30.0722C88.9627 30.9042 89.4853 31.5336 90.168 31.9602C90.8507 32.3869 91.6613 32.6002 92.6 32.6002C93.3253 32.6002 93.9547 32.4829 94.488 32.2482C95.0213 31.9922 95.4587 31.6402 95.8 31.1922C96.1627 30.7229 96.408 30.1576 96.536 29.4962L99.64 30.5522C99.3413 31.5122 98.872 32.3549 98.232 33.0802C97.6133 33.7842 96.8347 34.3389 95.896 34.7442C94.9573 35.1282 93.88 35.3202 92.664 35.3202C91.0853 35.3202 89.688 34.9896 88.472 34.3282C87.256 33.6669 86.3067 32.7176 85.624 31.4802C84.9627 30.2216 84.632 28.7282 84.632 27.0002C84.632 25.2722 84.9627 23.7896 85.624 22.5522C86.3067 21.2936 87.2453 20.3336 88.44 19.6722C89.656 19.0109 91.032 18.6802 92.568 18.6802ZM109.321 35.3202C108.275 35.3202 107.305 35.1282 106.409 34.7442C105.534 34.3602 104.83 33.7416 104.297 32.8882C103.763 32.0349 103.497 30.9256 103.497 29.5602V19.0002H106.921V28.6962C106.921 30.1469 107.23 31.1496 107.849 31.7042C108.467 32.2376 109.331 32.5042 110.441 32.5042C110.974 32.5042 111.486 32.4189 111.977 32.2482C112.489 32.0562 112.947 31.7682 113.353 31.3842C113.758 30.9789 114.067 30.4669 114.281 29.8482C114.515 29.2296 114.633 28.5042 114.633 27.6722V19.0002H118.057V35.0002H115.049L114.889 32.4082C114.334 33.4109 113.587 34.1469 112.649 34.6162C111.71 35.0856 110.601 35.3202 109.321 35.3202ZM123.406 35.0002V19.0002H126.318L126.638 21.8802C127.065 20.8349 127.694 20.0456 128.526 19.5122C129.379 18.9576 130.425 18.6802 131.662 18.6802C131.982 18.6802 132.302 18.7122 132.622 18.7762C132.942 18.8189 133.209 18.8936 133.422 19.0002L132.942 22.0082C132.707 21.9229 132.441 21.8589 132.142 21.8162C131.865 21.7522 131.481 21.7202 130.99 21.7202C130.329 21.7202 129.678 21.9016 129.038 22.2642C128.398 22.6056 127.865 23.1282 127.438 23.8322C127.033 24.5362 126.83 25.4322 126.83 26.5202V35.0002H123.406ZM143.29 35.3202C141.69 35.3202 140.282 34.9896 139.066 34.3282C137.85 33.6669 136.9 32.7176 136.218 31.4802C135.556 30.2216 135.226 28.7282 135.226 27.0002C135.226 25.2722 135.556 23.7896 136.218 22.5522C136.9 21.2936 137.839 20.3336 139.034 19.6722C140.228 19.0109 141.583 18.6802 143.098 18.6802C144.655 18.6802 145.978 19.0002 147.066 19.6402C148.154 20.2802 148.986 21.1549 149.562 22.2642C150.138 23.3736 150.426 24.6322 150.426 26.0402C150.426 26.4242 150.415 26.7869 150.394 27.1282C150.372 27.4696 150.34 27.7682 150.298 28.0242H137.434V25.4002H148.794L147.098 25.9122C147.098 24.4616 146.735 23.3522 146.01 22.5842C145.284 21.7949 144.292 21.4002 143.034 21.4002C142.116 21.4002 141.316 21.6136 140.634 22.0402C139.951 22.4669 139.428 23.1069 139.066 23.9602C138.703 24.7922 138.522 25.8162 138.522 27.0322C138.522 28.2269 138.714 29.2402 139.098 30.0722C139.482 30.9042 140.026 31.5336 140.73 31.9602C141.434 32.3869 142.266 32.6002 143.226 32.6002C144.292 32.6002 145.156 32.3976 145.818 31.9922C146.479 31.5869 147.002 31.0216 147.386 30.2962L150.106 31.5762C149.722 32.3442 149.199 33.0162 148.538 33.5922C147.898 34.1469 147.13 34.5736 146.234 34.8722C145.338 35.1709 144.356 35.3202 143.29 35.3202ZM163.07 35.0002V19.0002H165.15L165.502 21.6242C165.95 20.6429 166.6 19.9069 167.454 19.4162C168.328 18.9256 169.384 18.6802 170.622 18.6802C170.899 18.6802 171.198 18.7016 171.518 18.7442C171.859 18.7869 172.147 18.8722 172.382 19.0002L171.934 21.3362C171.699 21.2509 171.443 21.1869 171.166 21.1442C170.888 21.1016 170.494 21.0802 169.982 21.0802C169.32 21.0802 168.648 21.2722 167.966 21.6562C167.304 22.0402 166.75 22.6269 166.302 23.4162C165.854 24.1842 165.63 25.1656 165.63 26.3602V35.0002H163.07ZM177.412 15.9282C176.836 15.9282 176.367 15.7576 176.004 15.4162C175.663 15.0536 175.492 14.5842 175.492 14.0082C175.492 13.4322 175.663 12.9736 176.004 12.6322C176.367 12.2696 176.836 12.0882 177.412 12.0882C177.988 12.0882 178.447 12.2696 178.788 12.6322C179.151 12.9736 179.332 13.4322 179.332 14.0082C179.332 14.5842 179.151 15.0536 178.788 15.4162C178.447 15.7576 177.988 15.9282 177.412 15.9282ZM178.692 19.0002V35.0002H176.132V19.0002H178.692ZM198.104 16.0562L198.68 18.3282C198.659 18.3282 198.627 18.3282 198.584 18.3282C198.542 18.3282 198.499 18.3282 198.456 18.3282C197.411 18.3282 196.6 18.5416 196.024 18.9682C195.47 19.3736 195.192 20.0349 195.192 20.9522L193.624 20.1522C193.624 19.3202 193.816 18.5949 194.2 17.9762C194.584 17.3576 195.107 16.8882 195.768 16.5682C196.43 16.2269 197.155 16.0562 197.944 16.0562C197.966 16.0562 197.987 16.0562 198.008 16.0562C198.051 16.0562 198.083 16.0562 198.104 16.0562ZM193.24 32.9522C194.755 32.9522 195.939 33.3042 196.792 34.0082C197.646 34.6909 198.072 35.6082 198.072 36.7602C198.072 37.8056 197.72 38.7122 197.016 39.4802C196.334 40.2482 195.406 40.8349 194.232 41.2402C193.08 41.6669 191.779 41.8802 190.328 41.8802C187.811 41.8802 185.923 41.4536 184.664 40.6002C183.427 39.7469 182.808 38.7229 182.808 37.5282C182.808 36.6749 183.086 35.9069 183.64 35.2242C184.216 34.5629 185.176 34.1896 186.52 34.1042L186.296 34.5842C185.571 34.3922 184.952 34.0722 184.44 33.6242C183.95 33.1549 183.704 32.4829 183.704 31.6082C183.704 30.7336 184.024 29.9869 184.664 29.3682C185.326 28.7282 186.296 28.3336 187.576 28.1842L189.272 29.0482H188.952C187.907 29.1549 187.16 29.4216 186.712 29.8482C186.286 30.2536 186.072 30.7016 186.072 31.1922C186.072 31.7896 186.286 32.2376 186.712 32.5362C187.16 32.8136 187.779 32.9522 188.568 32.9522H193.24ZM190.296 39.7362C191.534 39.7362 192.547 39.6082 193.336 39.3522C194.147 39.0962 194.744 38.7656 195.128 38.3602C195.512 37.9549 195.704 37.5176 195.704 37.0482C195.704 36.4722 195.47 36.0136 195 35.6722C194.552 35.3309 193.731 35.1602 192.536 35.1602H187.608C186.926 35.1602 186.35 35.3309 185.88 35.6722C185.411 36.0349 185.176 36.5256 185.176 37.1442C185.176 37.9336 185.624 38.5629 186.52 39.0322C187.438 39.5016 188.696 39.7362 190.296 39.7362ZM190.072 18.6802C191.352 18.6802 192.483 18.9149 193.464 19.3842C194.467 19.8322 195.246 20.4616 195.8 21.2722C196.355 22.0829 196.632 23.0216 196.632 24.0882C196.632 25.1336 196.355 26.0722 195.8 26.9042C195.246 27.7149 194.467 28.3549 193.464 28.8242C192.483 29.2722 191.352 29.4962 190.072 29.4962C187.96 29.4962 186.339 28.9949 185.208 27.9922C184.078 26.9682 183.512 25.6669 183.512 24.0882C183.512 23.0216 183.79 22.0829 184.344 21.2722C184.92 20.4616 185.699 19.8322 186.68 19.3842C187.662 18.9149 188.792 18.6802 190.072 18.6802ZM190.072 20.7602C188.963 20.7602 188.035 21.0696 187.288 21.6882C186.542 22.2856 186.168 23.0856 186.168 24.0882C186.168 25.0696 186.542 25.8696 187.288 26.4882C188.035 27.1069 188.963 27.4162 190.072 27.4162C191.182 27.4162 192.11 27.1069 192.856 26.4882C193.603 25.8696 193.976 25.0696 193.976 24.0882C193.976 23.0856 193.603 22.2856 192.856 21.6882C192.11 21.0696 191.182 20.7602 190.072 20.7602ZM201.664 35.0002V11.6402H204.224V21.4002C204.778 20.4402 205.514 19.7469 206.432 19.3202C207.349 18.8936 208.352 18.6802 209.44 18.6802C210.592 18.6802 211.637 18.9042 212.576 19.3522C213.514 19.7789 214.261 20.4402 214.816 21.3362C215.392 22.2322 215.68 23.3736 215.68 24.7602V35.0002H213.12V25.6562C213.12 23.8856 212.736 22.6589 211.968 21.9762C211.221 21.2722 210.293 20.9202 209.184 20.9202C208.416 20.9202 207.648 21.1016 206.88 21.4642C206.112 21.8269 205.472 22.4242 204.96 23.2562C204.469 24.0669 204.224 25.1549 204.224 26.5202V35.0002H201.664ZM225.033 14.4562V30.5842C225.033 31.3736 225.257 31.9602 225.705 32.3442C226.153 32.7282 226.729 32.9202 227.433 32.9202C228.052 32.9202 228.585 32.8136 229.033 32.6002C229.481 32.3869 229.887 32.0989 230.249 31.7362L231.145 33.8802C230.655 34.3282 230.068 34.6802 229.385 34.9362C228.724 35.1922 227.956 35.3202 227.081 35.3202C226.271 35.3202 225.513 35.1816 224.809 34.9042C224.105 34.6056 223.54 34.1469 223.113 33.5282C222.708 32.8882 222.495 32.0562 222.473 31.0322V15.1602L225.033 14.4562ZM230.857 19.0002V21.2082H219.273V19.0002H230.857Z" fill="#5F636E"/>
<path d="M34.55 47.0727L33.1433 48.4694C32.1882 49.4179 31.0542 50.1703 29.8061 50.6836C28.5581 51.197 27.2204 51.4612 25.8694 51.4612C24.5185 51.4612 23.1808 51.197 21.9328 50.6836C20.6847 50.1703 19.5507 49.4179 18.5956 48.4694C16.6671 46.5534 15.5838 43.9555 15.5838 41.2468C15.5838 38.5381 16.6671 35.9403 18.5956 34.0243L25.8707 26.8013L33.2815 34.1589C34.9667 35.8322 36.0147 38.0343 36.2465 40.3894C36.4783 42.7444 35.8796 45.1063 34.5526 47.0719L34.55 47.0727Z" fill="#6400B1"/>
<path d="M18.5929 34.0225C16.6644 35.9385 15.5812 38.5364 15.5812 41.2451C15.5812 43.9538 16.6644 46.5516 18.5929 48.4676L3.01639 33.0011C2.06045 32.0528 1.30203 30.9269 0.784473 29.6876C0.266912 28.4483 0.000345339 27.1199 3.3532e-07 25.7783C-0.000344668 24.4367 0.265539 23.1081 0.782463 21.8685C1.29939 20.629 2.05722 19.5027 3.01268 18.5539C3.96813 17.6052 5.10249 16.8527 6.35095 16.3393C7.59941 15.826 8.9375 15.5618 10.2888 15.562C11.6401 15.5622 12.9781 15.8267 14.2264 16.3404C15.4748 16.8541 16.6089 17.607 17.5641 18.5559L25.8715 26.8004L18.5929 34.0225Z" fill="#7657E1"/>
<path d="M66.9992 10.6225C67.0012 11.9636 66.7363 13.2919 66.2197 14.5311C65.703 15.7702 64.9448 16.8957 63.9886 17.843L34.5486 47.072C35.8757 45.1066 36.4745 42.7447 36.2429 40.3897C36.0112 38.0346 34.9634 35.8324 33.2783 34.1591L25.8676 26.8006L49.4384 3.4004C50.8768 1.97112 52.71 0.997613 54.7059 0.603077C56.7018 0.20854 58.7707 0.410709 60.6509 1.184C62.531 1.95729 64.1379 3.26694 65.2681 4.94722C66.3983 6.6275 67.001 8.60289 67 10.6234L66.9992 10.6225Z" fill="#B979FC"/>
<path d="M18.5929 34.0225C16.6644 35.9385 15.5812 38.5364 15.5812 41.2451C15.5812 43.9538 16.6644 46.5516 18.5929 48.4676L3.01639 33.0011C2.06045 32.0528 1.30203 30.9269 0.784473 29.6876C0.266912 28.4483 0.000345339 27.1199 3.3532e-07 25.7783C-0.000344668 24.4367 0.265539 23.1081 0.782463 21.8685C1.29939 20.629 2.05722 19.5027 3.01268 18.5539C3.96813 17.6052 5.10249 16.8527 6.35095 16.3393C7.59941 15.826 8.9375 15.5618 10.2888 15.562C11.6401 15.5622 12.9781 15.8267 14.2264 16.3404C15.4748 16.8541 16.6089 17.607 17.5641 18.5559L25.8715 26.8004L18.5929 34.0225Z" fill="#7657E1"/>
<path d="M66.9992 10.6225C67.0012 11.9636 66.7363 13.2919 66.2197 14.5311C65.703 15.7702 64.9448 16.8957 63.9886 17.843L34.5486 47.072C35.8757 45.1066 36.4745 42.7447 36.2429 40.3897C36.0112 38.0346 34.9634 35.8324 33.2783 34.1591L25.8676 26.8006L49.4384 3.4004C50.8768 1.97112 52.71 0.997613 54.7059 0.603077C56.7018 0.20854 58.7707 0.410709 60.6509 1.184C62.531 1.95729 64.1379 3.26694 65.2681 4.94722C66.3983 6.6275 67.001 8.60289 67 10.6234L66.9992 10.6225Z" fill="#B979FC"/>
</svg>
