<svg width="22" height="23" viewBox="0 0 22 23" fill="none" xmlns="http://www.w3.org/2000/svg">
<path d="M7.27 22.25H3.23C1.22 22.25 0.25 21.32 0.25 19.4V3.6C0.25 1.68 1.23 0.75 3.23 0.75H7.27C9.28 0.75 10.25 1.68 10.25 3.6V19.4C10.25 21.32 9.27 22.25 7.27 22.25ZM3.23 2.25C1.96 2.25 1.75 2.59 1.75 3.6V19.4C1.75 20.41 1.96 20.75 3.23 20.75H7.27C8.54 20.75 8.75 20.41 8.75 19.4V3.6C8.75 2.59 8.54 2.25 7.27 2.25H3.23ZM18.77 13.25H14.73C12.72 13.25 11.75 12.32 11.75 10.4V3.6C11.75 1.68 12.73 0.75 14.73 0.75H18.77C20.78 0.75 21.75 1.68 21.75 3.6V10.4C21.75 12.32 20.77 13.25 18.77 13.25ZM14.73 2.25C13.46 2.25 13.25 2.59 13.25 3.6V10.4C13.25 11.41 13.46 11.75 14.73 11.75H18.77C20.04 11.75 20.25 11.41 20.25 10.4V3.6C20.25 2.59 20.04 2.25 18.77 2.25H14.73ZM18.77 22.25H14.73C12.72 22.25 11.75 21.32 11.75 19.4V17.6C11.75 15.68 12.73 14.75 14.73 14.75H18.77C20.78 14.75 21.75 15.68 21.75 17.6V19.4C21.75 21.32 20.77 22.25 18.77 22.25ZM14.73 16.25C13.46 16.25 13.25 16.59 13.25 17.6V19.4C13.25 20.41 13.46 20.75 14.73 20.75H18.77C20.04 20.75 20.25 20.41 20.25 19.4V17.6C20.25 16.59 20.04 16.25 18.77 16.25H14.73Z" fill="#616161"/>
</svg>
