<svg width="24" height="24" viewBox="0 0 24 24" fill="none" xmlns="http://www.w3.org/2000/svg">
<path d="M0 20.0113C0.0726703 19.7333 0.119031 19.4478 0.221772 19.1786C0.6532 18.0554 1.4507 17.3273 2.61426 16.9942C2.67377 16.9773 2.73266 16.9585 2.8141 16.9316C2.8141 16.3719 2.80971 15.8116 2.8141 15.2512C2.81433 14.3532 3.12057 13.4821 3.68238 12.7813C4.17305 12.1574 4.83747 11.6924 5.59199 11.445C6.34652 11.1976 7.15742 11.1788 7.92261 11.391C8.6878 11.6031 9.37308 12.0368 9.89217 12.6374C10.4113 13.238 10.741 13.9786 10.8398 14.766C10.8651 14.975 10.8777 15.1853 10.8774 15.3958C10.8805 16.9654 10.8711 18.535 10.8818 20.1046C10.8823 20.4412 10.9514 20.7743 11.0847 21.0835C11.2179 21.3926 11.4127 21.6716 11.6571 21.9032C11.9015 22.1349 12.1905 22.3145 12.5065 22.4312C12.8225 22.5479 13.1589 22.5992 13.4954 22.5819C14.7627 22.5281 15.8045 21.4707 15.8565 20.2028C15.8775 19.8145 15.8067 19.4268 15.6498 19.0709C15.0503 17.6992 14.4771 16.3162 13.885 14.9388C13.8326 14.821 13.7473 14.7209 13.6395 14.6502C12.3834 13.8732 11.5283 12.787 11.1161 11.3689C10.485 9.19853 9.86291 7.02521 9.24981 4.84897C8.68097 2.82298 10.1231 0.939116 12.2337 0.930977H12.5764C12.5344 0.468933 12.7016 0.151512 13.1295 -0.00813735H13.4578C13.7547 0.134608 13.9796 0.331201 13.9803 0.693699C13.9803 1.31978 13.9859 1.94585 13.9803 2.56754C13.9843 2.74978 13.9159 2.92618 13.79 3.05809C13.6641 3.19 13.491 3.26665 13.3087 3.27125C13.1272 3.27529 12.9509 3.21021 12.8156 3.08919C12.6803 2.96817 12.5961 2.80026 12.5801 2.61951C12.5701 2.52935 12.5688 2.4392 12.5632 2.33527H12.2656C11.0459 2.33965 10.2835 3.33699 10.6155 4.50462C11.2269 6.65645 11.8378 8.80827 12.4648 10.9532C12.718 11.8431 13.254 12.6264 13.9919 13.185C14.7298 13.7435 15.6296 14.047 16.5553 14.0495C17.4809 14.0519 18.3823 13.7533 19.1232 13.1987C19.8641 12.6441 20.4043 11.8636 20.6622 10.9751C21.298 8.80639 21.9151 6.6314 22.5253 4.45516C22.8749 3.20927 21.8481 2.12115 20.5619 2.36281C20.5583 2.49302 20.5449 2.62278 20.5219 2.75098C20.4796 2.91115 20.3818 3.05107 20.2457 3.14571C20.1097 3.24034 19.9444 3.28352 19.7795 3.2675C19.6024 3.24886 19.4388 3.16446 19.3211 3.03101C19.2033 2.89755 19.14 2.72478 19.1436 2.54688C19.1349 1.99281 19.1543 1.4381 19.1367 0.884021C19.1229 0.445768 19.2808 0.145257 19.6962 -0.0100098H20.0244C20.4335 0.163413 20.6058 0.480208 20.5438 0.929104H20.8871C23.0171 0.935365 24.4473 2.81359 23.8728 4.86023C23.2664 7.02228 22.6504 9.1812 22.0247 11.337C21.6088 12.7707 20.753 13.8751 19.4775 14.6552C19.3707 14.7282 19.2872 14.8303 19.237 14.9494C18.6731 16.2605 18.1294 17.579 17.558 18.8862C17.3645 19.3182 17.2605 19.7848 17.2523 20.2579C17.2066 22.5895 14.9406 24.3788 12.6515 23.9174C10.7721 23.5386 9.47847 21.9684 9.47409 20.0532C9.47033 18.4286 9.48724 16.8039 9.46594 15.1798C9.4484 13.8764 8.4354 12.8133 7.11104 12.6549C5.85811 12.5046 4.57761 13.3536 4.32765 14.6176C4.18043 15.3645 4.22365 16.1496 4.18168 16.9116L4.46046 16.993C5.28153 17.2206 5.99163 17.7391 6.45817 18.4517C6.92471 19.1643 7.1158 20.0222 6.99577 20.8652C6.7715 22.5131 5.3726 23.804 3.72373 23.8861C2.02538 23.9712 0.500549 22.8499 0.102742 21.2246C0.068286 21.0825 0.0344564 20.9397 0.00062708 20.7976L0 20.0113ZM5.62632 20.3907C5.62729 19.9743 5.50484 19.5669 5.27441 19.2199C5.04398 18.873 4.71589 18.6021 4.33153 18.4413C3.94718 18.2805 3.52378 18.237 3.11475 18.3164C2.70573 18.3958 2.32939 18.5945 2.03324 18.8875C1.73708 19.1804 1.53437 19.5544 1.45067 19.9623C1.36698 20.3702 1.40605 20.7938 1.56296 21.1796C1.71987 21.5653 1.98758 21.896 2.33233 22.1299C2.67708 22.3637 3.08343 22.4903 3.50009 22.4937C3.7779 22.4952 4.0533 22.4421 4.31054 22.3372C4.56779 22.2323 4.80183 22.0778 4.9993 21.8825C5.19676 21.6872 5.35378 21.4549 5.46136 21.199C5.56895 20.943 5.625 20.6683 5.62632 20.3907ZM15.6279 15.4347C15.9317 16.1515 16.2399 16.8746 16.5676 17.6453C16.894 16.8753 17.1991 16.154 17.5073 15.4347H15.6279Z" fill="#616161"/>
</svg>
