<svg width="31" height="30" viewBox="0 0 31 30" fill="none" xmlns="http://www.w3.org/2000/svg">
<path fill-rule="evenodd" clip-rule="evenodd" d="M19.9899 13H18.3999V8C18.3999 7.45 17.9499 7 17.3999 7H13.3999C12.8499 7 12.3999 7.45 12.3999 8V13H10.8099C9.9199 13 9.4699 14.08 10.0999 14.71L14.6899 19.3C15.0799 19.69 15.7099 19.69 16.0999 19.3L20.6899 14.71C21.3199 14.08 20.8799 13 19.9899 13ZM8.3999 23C8.3999 23.55 8.8499 24 9.3999 24H21.3999C21.9499 24 22.3999 23.55 22.3999 23C22.3999 22.45 21.9499 22 21.3999 22H9.3999C8.8499 22 8.3999 22.45 8.3999 23Z" fill="#B979FC"/>
</svg>
