<svg width="49" height="24" viewBox="0 0 49 24" fill="none" xmlns="http://www.w3.org/2000/svg">
<g filter="url(#filter0_b_435_4249)">
<rect width="49" height="24" rx="12" fill="black" fill-opacity="0.3"/>
<path d="M16.888 16V7.6H18.064L21.088 13.456L24.088 7.6H25.276V16H24.268V9.4L21.46 14.8H20.704L17.896 9.412V16H16.888ZM29.6642 16.144C29.0962 16.144 28.5922 16.016 28.1522 15.76C27.7122 15.496 27.3642 15.132 27.1082 14.668C26.8602 14.204 26.7362 13.656 26.7362 13.024C26.7362 12.4 26.8602 11.856 27.1082 11.392C27.3562 10.92 27.7002 10.556 28.1402 10.3C28.5882 10.036 29.1042 9.904 29.6882 9.904C30.2642 9.904 30.7602 10.036 31.1762 10.3C31.6002 10.556 31.9242 10.896 32.1482 11.32C32.3722 11.744 32.4842 12.2 32.4842 12.688C32.4842 12.776 32.4802 12.864 32.4722 12.952C32.4722 13.04 32.4722 13.14 32.4722 13.252H27.7322C27.7562 13.708 27.8602 14.088 28.0442 14.392C28.2362 14.688 28.4722 14.912 28.7522 15.064C29.0402 15.216 29.3442 15.292 29.6642 15.292C30.0802 15.292 30.4282 15.196 30.7082 15.004C30.9882 14.812 31.1922 14.552 31.3202 14.224H32.3162C32.1562 14.776 31.8482 15.236 31.3922 15.604C30.9442 15.964 30.3682 16.144 29.6642 16.144ZM29.6642 10.756C29.1842 10.756 28.7562 10.904 28.3802 11.2C28.0122 11.488 27.8002 11.912 27.7442 12.472H31.4882C31.4642 11.936 31.2802 11.516 30.9362 11.212C30.5922 10.908 30.1682 10.756 29.6642 10.756Z" fill="white"/>
</g>
<defs>
<filter id="filter0_b_435_4249" x="-5.53762" y="-5.53762" width="60.0752" height="35.0752" filterUnits="userSpaceOnUse" color-interpolation-filters="sRGB">
<feFlood flood-opacity="0" result="BackgroundImageFix"/>
<feGaussianBlur in="BackgroundImageFix" stdDeviation="2.76881"/>
<feComposite in2="SourceAlpha" operator="in" result="effect1_backgroundBlur_435_4249"/>
<feBlend mode="normal" in="SourceGraphic" in2="effect1_backgroundBlur_435_4249" result="shape"/>
</filter>
</defs>
</svg>
