<svg width="20" height="20" viewBox="0 0 20 20" fill="none" xmlns="http://www.w3.org/2000/svg">
<g clip-path="url(#clip0_59_2215)">
<path d="M15.1749 0C15.6138 0.0754325 16.0479 0.176006 16.4753 0.301217C17.2767 0.580732 17.9968 1.05342 18.572 1.67745C19.1471 2.30148 19.5596 3.05761 19.7728 3.87896C19.986 4.7003 19.9935 5.56152 19.7945 6.38642C19.5955 7.21133 19.1961 7.97447 18.6319 8.60835C18.3306 8.95183 18.0134 9.28478 17.7068 9.62827C17.6822 9.66359 17.6453 9.68851 17.6033 9.69826C17.5614 9.70802 17.5173 9.70191 17.4796 9.6811C16.5291 9.29386 15.4905 9.17503 14.4772 9.3376C13.5844 9.49121 12.7404 9.85332 12.0139 10.3945L11.7391 10.6006L6.89197 5.76006L7.68485 4.97794L11.0572 1.60646C11.7935 0.844796 12.7453 0.326621 13.7848 0.121532C13.9803 0.0792563 14.1812 0.0528599 14.3821 0.0158688L15.1749 0Z" fill="#EB7272"/>
<path d="M0.358643 14.2046C0.40093 13.9034 0.43265 13.5969 0.49608 13.3009C0.700069 12.333 1.18555 11.4469 1.89156 10.7539C3.25003 9.3799 4.61907 8.01651 5.9881 6.64783L6.03566 6.61084L10.867 11.4408C10.6767 11.7368 10.46 12.038 10.2908 12.3656C9.90068 13.0746 9.67227 13.8611 9.62201 14.6688C9.57175 15.4764 9.70085 16.2852 10.0001 17.037C10.0357 17.1019 10.0463 17.1776 10.0297 17.2497C10.0132 17.3218 9.97059 17.3853 9.91018 17.4281C9.46987 17.8705 9.00579 18.2886 8.51999 18.6805C7.99592 19.0595 7.40184 19.3308 6.77215 19.4787C6.14245 19.6265 5.48969 19.648 4.85163 19.5419C3.68213 19.384 2.60182 18.8309 1.79025 17.9743C0.978688 17.1178 0.484691 16.0095 0.390324 14.8334C0.390324 14.7647 0.390358 14.696 0.358643 14.6273V14.2046Z" fill="#EB7272"/>
<path d="M14.7732 19.5208C13.6725 19.3847 12.6596 18.8511 11.9251 18.0204C11.1905 17.1897 10.7852 16.1193 10.7852 15.0105C10.7852 13.9018 11.1905 12.8313 11.9251 12.0006C12.6596 11.1699 13.6725 10.6363 14.7732 10.5002V19.5208Z" fill="#47A649"/>
<path d="M15.9467 19.5261V10.5002C17.0517 10.6314 18.0702 11.1633 18.8092 11.995C19.5483 12.8268 19.9565 13.9007 19.9565 15.0132C19.9565 16.1257 19.5483 17.1995 18.8092 18.0313C18.0702 18.863 17.0517 19.3949 15.9467 19.5261Z" fill="#47A649"/>
</g>
<defs>
<clipPath id="clip0_59_2215">
<rect width="19.6" height="19.6" fill="white" transform="translate(0.358643)"/>
</clipPath>
</defs>
</svg>
