<svg width="42" height="42" viewBox="0 0 42 42" fill="none" xmlns="http://www.w3.org/2000/svg">
<path d="M21.035 5.0925C15.2425 5.0925 10.535 9.8 10.535 15.5925V20.65C10.535 21.7175 10.08 23.345 9.53747 24.255L7.52497 27.5975C6.28247 29.6625 7.13997 31.955 9.41497 32.725C16.9575 35.245 25.095 35.245 32.6375 32.725C34.755 32.025 35.6825 29.5225 34.5275 27.5975L32.515 24.255C31.99 23.345 31.535 21.7175 31.535 20.65V15.5925C31.535 9.8175 26.81 5.0925 21.035 5.0925Z" stroke="black" stroke-width="1.5" stroke-miterlimit="10" stroke-linecap="round"/>
<path d="M24.2725 5.59999C22.1562 4.99727 19.9137 4.99727 17.7975 5.59999C18.305 4.30499 19.565 3.39499 21.035 3.39499C22.505 3.39499 23.765 4.30499 24.2725 5.59999Z" stroke="black" stroke-width="1.5" stroke-miterlimit="10" stroke-linecap="round" stroke-linejoin="round"/>
<path d="M26.285 33.355C26.285 36.2425 23.9225 38.605 21.035 38.605C19.6 38.605 18.27 38.01 17.325 37.065C16.3418 36.0803 15.7882 34.7465 15.785 33.355" stroke="black" stroke-width="1.5" stroke-miterlimit="10"/>
</svg>
