<svg width="22" height="23" viewBox="0 0 22 23" fill="none" xmlns="http://www.w3.org/2000/svg">
<path d="M5.75 10.25H3.75C1.33 10.25 0 8.92 0 6.5V4.5C0 2.08 1.33 0.75 3.75 0.75H5.75C8.17 0.75 9.5 2.08 9.5 4.5V6.5C9.5 8.92 8.17 10.25 5.75 10.25ZM3.75 2.25C2.17 2.25 1.5 2.92 1.5 4.5V6.5C1.5 8.08 2.17 8.75 3.75 8.75H5.75C7.33 8.75 8 8.08 8 6.5V4.5C8 2.92 7.33 2.25 5.75 2.25H3.75ZM17.75 10.25H15.75C13.33 10.25 12 8.92 12 6.5V4.5C12 2.08 13.33 0.75 15.75 0.75H17.75C20.17 0.75 21.5 2.08 21.5 4.5V6.5C21.5 8.92 20.17 10.25 17.75 10.25ZM15.75 2.25C14.17 2.25 13.5 2.92 13.5 4.5V6.5C13.5 8.08 14.17 8.75 15.75 8.75H17.75C19.33 8.75 20 8.08 20 6.5V4.5C20 2.92 19.33 2.25 17.75 2.25H15.75ZM17.75 22.25H15.75C13.33 22.25 12 20.92 12 18.5V16.5C12 14.08 13.33 12.75 15.75 12.75H17.75C20.17 12.75 21.5 14.08 21.5 16.5V18.5C21.5 20.92 20.17 22.25 17.75 22.25ZM15.75 14.25C14.17 14.25 13.5 14.92 13.5 16.5V18.5C13.5 20.08 14.17 20.75 15.75 20.75H17.75C19.33 20.75 20 20.08 20 18.5V16.5C20 14.92 19.33 14.25 17.75 14.25H15.75ZM5.75 22.25H3.75C1.33 22.25 0 20.92 0 18.5V16.5C0 14.08 1.33 12.75 3.75 12.75H5.75C8.17 12.75 9.5 14.08 9.5 16.5V18.5C9.5 20.92 8.17 22.25 5.75 22.25ZM3.75 14.25C2.17 14.25 1.5 14.92 1.5 16.5V18.5C1.5 20.08 2.17 20.75 3.75 20.75H5.75C7.33 20.75 8 20.08 8 18.5V16.5C8 14.92 7.33 14.25 5.75 14.25H3.75Z" fill="#2C2C2C"/>
</svg>
