<svg width="16" height="15" viewBox="0 0 16 15" fill="none" xmlns="http://www.w3.org/2000/svg">
<path d="M15.4775 12.2475C15.4775 12.5175 15.4175 12.795 15.29 13.065C15.1625 13.335 14.9975 13.59 14.78 13.83C14.4125 14.235 14.0075 14.5275 13.55 14.715C13.1 14.9025 12.6125 15 12.0875 15C11.3225 15 10.505 14.82 9.6425 14.4525C8.78 14.085 7.9175 13.59 7.0625 12.9675C6.19108 12.3301 5.36877 11.6281 4.6025 10.8675C3.84408 10.104 3.14457 9.28416 2.51 8.415C1.895 7.56 1.4 6.705 1.04 5.8575C0.68 5.0025 0.5 4.185 0.5 3.405C0.5 2.895 0.59 2.4075 0.77 1.9575C0.95 1.5 1.235 1.08 1.6325 0.705C2.1125 0.2325 2.6375 0 3.1925 0C3.4025 0 3.6125 0.0450001 3.8 0.135C3.995 0.225 4.1675 0.36 4.3025 0.555L6.0425 3.0075C6.1775 3.195 6.275 3.3675 6.3425 3.5325C6.41 3.69 6.4475 3.8475 6.4475 3.99C6.4475 4.17 6.395 4.35 6.29 4.5225C6.1925 4.695 6.05 4.875 5.87 5.055L5.3 5.6475C5.2175 5.73 5.18 5.8275 5.18 5.9475C5.18 6.0075 5.1875 6.06 5.2025 6.12C5.225 6.18 5.2475 6.225 5.2625 6.27C5.3975 6.5175 5.63 6.84 5.96 7.23C6.2975 7.62 6.6575 8.0175 7.0475 8.415C7.4525 8.8125 7.8425 9.18 8.24 9.5175C8.63 9.8475 8.9525 10.0725 9.2075 10.2075C9.245 10.2225 9.29 10.245 9.3425 10.2675C9.4025 10.29 9.4625 10.2975 9.53 10.2975C9.6575 10.2975 9.755 10.2525 9.8375 10.17L10.4075 9.6075C10.595 9.42 10.775 9.2775 10.9475 9.1875C11.12 9.0825 11.2925 9.03 11.48 9.03C11.6225 9.03 11.7725 9.06 11.9375 9.1275C12.1025 9.195 12.275 9.2925 12.4625 9.42L14.945 11.1825C15.14 11.3175 15.275 11.475 15.3575 11.6625C15.4325 11.85 15.4775 12.0375 15.4775 12.2475Z" fill="#7657E1"/>
</svg>
