<svg width="115" height="102" viewBox="0 0 115 102" fill="none" xmlns="http://www.w3.org/2000/svg">
<circle cx="64.1782" cy="50.9998" r="50.0105" fill="#EDE9FD"/>
<path d="M89.1612 40.297L88.9242 45.0507L88.8888 45.7475L87.6031 71.5811L86.5374 76.2245C86.4185 76.6589 86.1608 77.0424 85.8035 77.3165C85.764 77.3491 85.7212 77.3816 85.6789 77.4125C85.4992 77.5387 85.3052 77.6432 85.1009 77.7238C85.0364 77.7506 84.9701 77.774 84.9028 77.7946C84.6917 77.8608 84.4735 77.9016 84.2528 77.9162H84.2488L38.3554 77.6204C37.1268 77.6135 36.0959 76.6768 36.0536 75.5277L36.0256 74.7498L34.9542 45.5653L34.6206 36.484C34.5555 34.7323 35.9343 33.3153 37.6968 33.3267L48.3167 33.3958C49.6679 33.4068 50.9906 33.7848 52.1434 34.4896L54.388 35.8603C55.5334 36.5639 56.8488 36.9423 58.193 36.9547L86.1427 37.1369C87.8967 37.1454 89.2475 38.5653 89.1612 40.297Z" fill="#4B339E"/>
<g style="mix-blend-mode:multiply">
<path d="M94.3183 33.7827V65.2878C94.3183 65.6622 94.2446 66.0329 94.1013 66.3789C93.958 66.7248 93.748 67.0391 93.4832 67.3039C93.2185 67.5686 92.9042 67.7786 92.5582 67.9219C92.2123 68.0652 91.8416 68.1389 91.4671 68.1389H65.4085C65.0341 68.1389 64.6634 68.0652 64.3174 67.9219C63.9715 67.7786 63.6572 67.5686 63.3925 67.3039C63.1277 67.0391 62.9177 66.7248 62.7744 66.3789C62.6311 66.0329 62.5574 65.6622 62.5574 65.2878V29.3883C62.5574 28.6321 62.8578 27.9069 63.3925 27.3722C63.9272 26.8375 64.6524 26.5371 65.4085 26.5371H87.0705L94.3183 33.7827Z" fill="#E0E0E0"/>
</g>
<path d="M95.7328 32.3681V63.8737C95.7329 64.2481 95.6592 64.6188 95.516 64.9647C95.3727 65.3106 95.1628 65.6248 94.898 65.8895C94.6333 66.1543 94.319 66.3642 93.9732 66.5075C93.6273 66.6507 93.2566 66.7244 92.8822 66.7243H66.823C66.4486 66.7244 66.0779 66.6507 65.732 66.5075C65.3862 66.3642 65.0719 66.1543 64.8072 65.8895C64.5425 65.6248 64.3325 65.3106 64.1893 64.9647C64.046 64.6188 63.9723 64.2481 63.9724 63.8737V27.9742C63.9718 27.5999 64.045 27.2292 64.1879 26.8832C64.3308 26.5372 64.5404 26.2228 64.805 25.958C65.0695 25.6932 65.3836 25.4831 65.7294 25.3398C66.0752 25.1966 66.4459 25.1229 66.8202 25.123H88.4849L95.7328 32.3681Z" fill="white"/>
<path d="M95.7125 32.347L95.6182 32.3682L89.6874 33.8097L89.3385 32.3682L88.488 28.8779V27.0811L93.4964 30.1281L95.7125 32.347Z" fill="#CECECE"/>
<path d="M95.7336 32.3681H88.488V25.1196L93.4964 30.128L95.7125 32.3469L95.7336 32.3681Z" fill="#E0E0E0"/>
<path d="M80.9386 35.9579H70.4117C69.9268 35.9579 69.4408 35.9493 68.9559 35.9579H68.9353C68.4241 35.9579 67.9347 36.4074 67.9581 36.9351C67.9815 37.4629 68.3876 37.9124 68.9353 37.9124H79.4621C79.947 37.9124 80.4331 37.9209 80.918 37.9124H80.9386C81.4526 37.9124 81.9398 37.4629 81.9158 36.9351C81.8918 36.4074 81.4863 35.9579 80.9386 35.9579Z" fill="#E0E0E0"/>
<path d="M90.7709 35.9575H84.4991C83.9879 35.9575 83.4979 36.407 83.5218 36.9348C83.5458 37.4625 83.9513 37.912 84.4991 37.912H90.7709C91.282 37.912 91.7715 37.4625 91.7481 36.9348C91.7247 36.407 91.3186 35.9575 90.7709 35.9575Z" fill="#E0E0E0"/>
<path d="M80.9386 47.9428H70.4117C69.9268 47.9428 69.4408 47.9342 68.9559 47.9428H68.9353C68.4241 47.9428 67.9347 48.3923 67.9581 48.92C67.9815 49.4477 68.3876 49.8972 68.9353 49.8972H79.4621C79.947 49.8972 80.4331 49.9058 80.918 49.8972H80.9386C81.4526 49.8972 81.9398 49.4477 81.9158 48.92C81.8918 48.3923 81.4863 47.9428 80.9386 47.9428Z" fill="#E0E0E0"/>
<path d="M90.7709 47.9429H84.4991C83.9879 47.9429 83.4979 48.3924 83.5218 48.9201C83.5458 49.4478 83.9513 49.8973 84.4991 49.8973H90.7709C91.282 49.8973 91.7715 49.4478 91.7481 48.9201C91.7247 48.3924 91.3186 47.9429 90.7709 47.9429Z" fill="#E0E0E0"/>
<path d="M78.7669 43.9046H89.2937C89.7792 43.9046 90.2646 43.9131 90.7501 43.9046H90.7707C91.2819 43.9046 91.7713 43.4551 91.7479 42.9273C91.7245 42.3996 91.3184 41.9501 90.7707 41.9501H80.2433C79.7584 41.9501 79.2723 41.9415 78.7874 41.9501H78.7669C78.2528 41.9501 77.7662 42.3996 77.7896 42.9273C77.813 43.4551 78.2191 43.9046 78.7669 43.9046Z" fill="#E0E0E0"/>
<path d="M68.9353 43.9047H75.2071C75.7183 43.9047 76.2077 43.4552 76.1843 42.9274C76.1609 42.3997 75.7548 41.9502 75.2071 41.9502H68.9353C68.4241 41.9502 67.9347 42.3997 67.9581 42.9274C67.9815 43.4552 68.3876 43.9047 68.9353 43.9047Z" fill="#E0E0E0"/>
<path d="M78.7669 55.8897H89.2937C89.7792 55.8897 90.2646 55.8982 90.7501 55.8897H90.7707C91.2819 55.8897 91.7713 55.4402 91.7479 54.9124C91.7245 54.3847 91.3184 53.9352 90.7707 53.9352H80.2433C79.7584 53.9352 79.2723 53.9272 78.7874 53.9352H78.7669C78.2528 53.9352 77.7662 54.3847 77.7896 54.9124C77.813 55.4402 78.2191 55.8897 78.7669 55.8897Z" fill="#E0E0E0"/>
<path d="M68.9353 55.8895H75.2071C75.7183 55.8895 76.2077 55.44 76.1843 54.9123C76.1609 54.3846 75.7548 53.9351 75.2071 53.9351H68.9353C68.4241 53.9351 67.9347 54.3846 67.9581 54.9123C67.9815 55.44 68.3876 55.8895 68.9353 55.8895Z" fill="#E0E0E0"/>
<g opacity="0.92">
<path d="M92.8155 48.8694L87.6032 71.5811L86.5374 76.2245C86.4185 76.6589 86.1608 77.0424 85.8035 77.3166C85.7641 77.3491 85.7212 77.3817 85.679 77.4125C85.4993 77.5387 85.3052 77.6432 85.101 77.7238C85.0364 77.7506 84.9702 77.774 84.9028 77.7946C84.6917 77.8608 84.4735 77.9016 84.2528 77.9163C84.2265 77.9197 84.2003 77.9208 84.1751 77.9225C84.1323 77.9225 84.0912 77.9225 84.0489 77.9225L48.8165 77.7346L37.313 77.6741C37.1927 77.6729 37.0725 77.6641 36.9532 77.6478C36.7967 77.6272 36.6422 77.5928 36.4917 77.545C36.3804 77.5106 36.2713 77.4694 36.165 77.4216C36.0615 77.374 35.9604 77.321 35.8623 77.2629C35.6734 77.1476 35.4996 77.0093 35.3449 76.8511C35.3203 76.8248 35.2952 76.798 35.2718 76.7717C35.2015 76.692 35.137 76.6074 35.0787 76.5187C35.0422 76.4615 35.0067 76.4044 34.9748 76.3393C34.9428 76.2742 34.9176 76.216 34.8908 76.1531C34.8306 75.9947 34.794 75.8282 34.7823 75.6591L34.7252 75.0137L33.3184 58.6789L32.4617 48.6981C32.3532 47.096 33.4172 45.8183 34.9548 45.5659C35.2208 45.5218 35.491 45.5084 35.7601 45.5259L48.8673 46.3564C49.5756 46.4048 50.2835 46.2557 50.9121 45.9257L55.5286 43.4726C56.1702 43.1338 56.8934 42.9801 57.6173 43.0288L88.9248 45.0513L89.4582 45.0867L90.0979 45.1278C90.8873 45.1792 91.5561 45.4819 92.0438 45.9508C92.109 46.0142 92.1689 46.0788 92.2295 46.1462C92.376 46.3172 92.5012 46.5053 92.6024 46.7065C92.6424 46.787 92.679 46.8681 92.7127 46.9532C92.9464 47.5655 92.9823 48.2356 92.8155 48.8694Z" fill="#7657E1"/>
<g style="mix-blend-mode:multiply">
<path d="M92.8154 48.8693L87.6031 71.581L86.5373 76.2244C86.4185 76.6588 86.1607 77.0423 85.8034 77.3164C85.764 77.349 85.7212 77.3816 85.6789 77.4124C85.4992 77.5386 85.3052 77.6431 85.1009 77.7237C85.0364 77.7505 84.9701 77.7739 84.9027 77.7945C84.6916 77.8607 84.4735 77.9015 84.2527 77.9162H84.2487C84.2236 77.9196 84.1985 77.9207 84.1751 77.9224C84.1322 77.9224 84.0911 77.9224 84.0488 77.9224L48.8165 77.7345L37.313 77.6728C37.1926 77.6726 37.0724 77.6642 36.9531 77.6477C36.6809 77.6093 36.4155 77.5324 36.165 77.4193C36.0611 77.3723 35.96 77.3192 35.8623 77.2605C35.673 77.1458 35.4991 77.0074 35.3448 76.8487C35.3202 76.8224 35.2951 76.7956 35.2717 76.7693C35.2007 76.6902 35.1362 76.6056 35.0786 76.5163C35.0421 76.4592 35.0067 76.402 34.9747 76.3369C34.9427 76.2718 34.9176 76.2136 34.8907 76.1507C34.8286 75.9928 34.7915 75.8261 34.7805 75.6567L34.7234 75.0113C35.1571 74.9245 35.5902 74.8358 36.0227 74.7451C57.4505 70.2639 76.2755 60.2917 88.8887 45.7503C89.0818 45.5309 89.2697 45.3105 89.4599 45.0889L90.0996 45.13C90.8889 45.1814 91.5577 45.4841 92.0455 45.953C92.1106 46.0147 92.1723 46.0809 92.2311 46.1483C92.3776 46.3193 92.5029 46.5075 92.6041 46.7086C92.6451 46.7889 92.6819 46.8713 92.7143 46.9554C92.947 47.5672 92.9823 48.2364 92.8154 48.8693Z" fill="#E8E8E8"/>
</g>
</g>
<g style="mix-blend-mode:multiply">
<path d="M97.2357 61.1104C97.0299 61.111 96.8316 61.033 96.6813 60.8924C96.531 60.7518 96.44 60.5591 96.4269 60.3537C96.4138 60.1483 96.4795 59.9457 96.6107 59.7871C96.7419 59.6285 96.9286 59.5259 97.1329 59.5003C98.0039 59.3861 98.7989 59.2593 99.4963 59.1188C99.6003 59.0978 99.7075 59.0975 99.8117 59.1179C99.9159 59.1383 100.015 59.1791 100.103 59.2378C100.192 59.2966 100.268 59.3721 100.327 59.4603C100.386 59.5484 100.428 59.6473 100.449 59.7513C100.47 59.8554 100.47 59.9626 100.45 60.0668C100.429 60.171 100.388 60.2701 100.33 60.3585C100.271 60.447 100.195 60.523 100.107 60.5822C100.019 60.6414 99.9202 60.6827 99.8161 60.7037C99.0816 60.8517 98.2489 60.9893 97.3402 61.1035C97.3055 61.1081 97.2706 61.1104 97.2357 61.1104ZM102.022 60.0823C101.832 60.0824 101.647 60.0155 101.502 59.8932C101.356 59.771 101.258 59.6013 101.225 59.4139C101.192 59.2266 101.226 59.0336 101.321 58.8689C101.416 58.7042 101.567 58.5783 101.745 58.5134C102.579 58.2107 103.168 57.8674 103.497 57.4939C103.567 57.4113 103.652 57.3435 103.748 57.2944C103.844 57.2452 103.948 57.2157 104.056 57.2077C104.163 57.1996 104.271 57.2131 104.374 57.2474C104.476 57.2818 104.57 57.3362 104.651 57.4074C104.732 57.4787 104.798 57.5655 104.845 57.6625C104.892 57.7596 104.919 57.8651 104.924 57.9728C104.93 58.0805 104.913 58.1881 104.877 58.2895C104.84 58.3909 104.783 58.4839 104.71 58.5631C104.193 59.1502 103.403 59.6311 102.298 60.0332C102.21 60.0669 102.116 60.0849 102.022 60.0863V60.0823ZM104.49 56.5572C104.313 56.5571 104.141 56.4989 104.001 56.3916C103.86 56.2843 103.758 56.1338 103.711 55.9632C103.558 55.4046 103.211 54.89 102.652 54.3908C102.571 54.3208 102.504 54.2351 102.456 54.1389C102.408 54.0427 102.379 53.9379 102.372 53.8306C102.365 53.7232 102.38 53.6156 102.415 53.5139C102.45 53.4122 102.505 53.3185 102.576 53.2384C102.648 53.1582 102.735 53.0931 102.832 53.0469C102.929 53.0007 103.035 52.9744 103.142 52.9695C103.25 52.9645 103.357 52.981 103.458 53.0181C103.559 53.0551 103.651 53.1119 103.73 53.1851C104.517 53.8882 105.035 54.6781 105.272 55.5337C105.305 55.6537 105.31 55.7797 105.286 55.9018C105.262 56.0239 105.21 56.1389 105.135 56.2378C105.06 56.3368 104.963 56.4171 104.851 56.4725C104.74 56.5278 104.617 56.5568 104.493 56.5572H104.49ZM101.154 53.2708C101.03 53.2707 100.907 53.2418 100.796 53.1863C100.092 52.8444 99.3673 52.549 98.6253 52.3022C98.4223 52.2332 98.255 52.0863 98.1603 51.894C98.0656 51.7017 98.0511 51.4796 98.1201 51.2767C98.1891 51.0737 98.3359 50.9064 98.5282 50.8117C98.7205 50.7169 98.9426 50.7025 99.1456 50.7715C99.9555 51.0413 100.747 51.3641 101.514 51.7379C101.677 51.819 101.808 51.953 101.886 52.118C101.964 52.283 101.983 52.4694 101.942 52.6469C101.9 52.8244 101.799 52.9826 101.657 53.0959C101.514 53.2091 101.337 53.2708 101.154 53.2708ZM96.528 51.6539C96.4604 51.6537 96.393 51.6451 96.3275 51.6282C95.601 51.4431 94.8083 51.2638 93.9716 51.0947C93.8675 51.0737 93.7686 51.0325 93.6805 50.9732C93.5924 50.914 93.5168 50.838 93.458 50.7496C93.3993 50.6611 93.3586 50.562 93.3381 50.4578C93.3177 50.3536 93.318 50.2464 93.339 50.1424C93.36 50.0383 93.4013 49.9394 93.4605 49.8513C93.5198 49.7632 93.5958 49.6876 93.6842 49.6288C93.7726 49.5701 93.8718 49.5294 93.976 49.5089C94.0801 49.4885 94.1873 49.4888 94.2914 49.5098C95.1544 49.6812 95.974 49.8696 96.7273 50.0615C96.9182 50.1103 97.0847 50.227 97.1956 50.3897C97.3065 50.5525 97.3543 50.7502 97.3298 50.9456C97.3053 51.1411 97.2104 51.3209 97.0628 51.4513C96.9151 51.5817 96.725 51.6537 96.528 51.6539ZM91.7195 50.6721C91.6751 50.6722 91.6308 50.6685 91.587 50.6612C90.8274 50.5362 90.0169 50.4139 89.1785 50.2991C88.9768 50.2584 88.7983 50.1423 88.6792 49.9745C88.5601 49.8067 88.5094 49.5998 88.5376 49.396C88.5657 49.1921 88.6704 49.0067 88.8304 48.8774C88.9905 48.7481 89.1938 48.6846 89.399 48.6999C90.2511 48.8142 91.0758 48.9409 91.8498 49.0683C92.0499 49.1014 92.2303 49.2086 92.3551 49.3685C92.48 49.5284 92.5402 49.7293 92.5238 49.9315C92.5074 50.1338 92.4156 50.3224 92.2667 50.4601C92.1177 50.5978 91.9224 50.6745 91.7195 50.675V50.6721ZM86.8528 49.9976C86.8211 49.9974 86.7895 49.9955 86.758 49.9919C85.9858 49.9016 85.1685 49.8125 84.3283 49.7274C84.2227 49.7167 84.1202 49.6853 84.0268 49.6351C83.9333 49.5848 83.8506 49.5166 83.7835 49.4343C83.7164 49.3521 83.6661 49.2575 83.6356 49.1558C83.605 49.0541 83.5948 48.9475 83.6055 48.8419C83.6162 48.7362 83.6476 48.6338 83.6979 48.5403C83.7482 48.4468 83.8164 48.3642 83.8986 48.2971C83.9808 48.2299 84.0755 48.1797 84.1771 48.1491C84.2788 48.1186 84.3855 48.1084 84.4911 48.1191C85.3392 48.2047 86.1651 48.2944 86.947 48.3858C87.1515 48.4102 87.339 48.5117 87.4712 48.6696C87.6034 48.8275 87.6704 49.0299 87.6585 49.2355C87.6466 49.4411 87.5568 49.6344 87.4073 49.776C87.2578 49.9176 87.0599 49.9969 86.8539 49.9976H86.8528ZM81.9655 49.5007C81.9415 49.5007 81.9175 49.5007 81.8929 49.4972C81.1139 49.4281 80.2937 49.3602 79.4536 49.2939C79.3477 49.2856 79.2446 49.2566 79.15 49.2084C79.0554 49.1603 78.9712 49.0939 78.9022 49.0133C78.8332 48.9326 78.7808 48.8391 78.748 48.7381C78.7151 48.6372 78.7025 48.5307 78.7108 48.4249C78.7191 48.3191 78.7481 48.2159 78.7963 48.1213C78.8444 48.0267 78.9108 47.9425 78.9914 47.8736C79.0721 47.8046 79.1656 47.7522 79.2666 47.7193C79.3675 47.6865 79.4739 47.6739 79.5798 47.6821C80.4251 47.7484 81.2515 47.8175 82.0357 47.8866C82.2425 47.9057 82.4341 48.0036 82.5707 48.1601C82.7073 48.3166 82.7785 48.5196 82.7694 48.7271C82.7604 48.9346 82.6719 49.1307 82.5222 49.2747C82.3725 49.4187 82.1732 49.4996 81.9655 49.5007ZM77.0684 49.114C77.049 49.114 77.0296 49.114 77.0113 49.114C76.234 49.0569 75.4121 49.0038 74.5657 48.9489C74.3517 48.9352 74.152 48.8369 74.0104 48.6759C73.8689 48.5149 73.7971 48.3042 73.8109 48.0902C73.8247 47.8763 73.9229 47.6765 74.0839 47.535C74.245 47.3934 74.4557 47.3217 74.6696 47.3355C75.5189 47.3926 76.3448 47.4463 77.1256 47.5011C77.3339 47.5168 77.5281 47.6124 77.6675 47.7681C77.8068 47.9238 77.8805 48.1273 77.8732 48.3361C77.8658 48.5449 77.7779 48.7428 77.6279 48.8882C77.4778 49.0336 77.2774 49.1154 77.0684 49.1163V49.114ZM72.1669 48.7964H72.1177C71.3501 48.7508 70.5488 48.7039 69.6692 48.6542C69.5632 48.6483 69.4595 48.6215 69.3638 48.5754C69.2682 48.5294 69.1826 48.4649 69.1119 48.3858C69.0411 48.3066 68.9867 48.2143 68.9517 48.1141C68.9166 48.0139 68.9016 47.9078 68.9076 47.8018C68.9136 47.6958 68.9403 47.592 68.9864 47.4964C69.0325 47.4008 69.0969 47.3152 69.1761 47.2444C69.2552 47.1737 69.3475 47.1193 69.4477 47.0842C69.5479 47.0492 69.6541 47.0342 69.76 47.0402C70.6419 47.0899 71.4444 47.1367 72.216 47.1824C72.4251 47.196 72.6207 47.2901 72.7617 47.4451C72.9028 47.6001 72.9781 47.8037 72.972 48.0132C72.9658 48.2226 72.8787 48.4215 72.7288 48.5679C72.5789 48.7143 72.3781 48.7969 72.1686 48.7982L72.1669 48.7964ZM67.2636 48.5189H67.219C66.4045 48.4747 65.5876 48.4311 64.7682 48.3881C64.5541 48.3768 64.3532 48.2809 64.2098 48.1215C64.0664 47.9622 63.9922 47.7523 64.0034 47.5382C64.0147 47.3241 64.1106 47.1232 64.27 46.9798C64.4294 46.8364 64.6392 46.7622 64.8533 46.7734L67.3092 46.9042C67.518 46.9176 67.7135 47.0115 67.8546 47.1659C67.9957 47.3204 68.0714 47.5236 68.0659 47.7327C68.0603 47.9419 67.9739 48.1408 67.8249 48.2876C67.6758 48.4344 67.4756 48.5177 67.2664 48.52L67.2636 48.5189ZM62.3608 48.259H62.3174L59.8615 48.1288C59.6513 48.112 59.456 48.0139 59.3172 47.8552C59.1783 47.6966 59.1069 47.49 59.1181 47.2795C59.1294 47.0689 59.2224 46.8711 59.3774 46.7282C59.5323 46.5852 59.737 46.5084 59.9477 46.5141L62.4037 46.6444C62.617 46.6512 62.8189 46.7422 62.9654 46.8975C63.1119 47.0527 63.191 47.2596 63.1855 47.473C63.18 47.6863 63.0903 47.8889 62.936 48.0363C62.7817 48.1838 62.5754 48.2643 62.362 48.2601L62.3608 48.259ZM57.449 47.9957C57.4335 47.9957 57.4187 47.9957 57.4033 47.9957C56.5835 47.9508 55.7648 47.9047 54.9473 47.8575C54.8413 47.8513 54.7376 47.8244 54.6421 47.7781C54.5465 47.7319 54.461 47.6673 54.3904 47.588C54.3198 47.5087 54.2655 47.4163 54.2306 47.316C54.1958 47.2158 54.181 47.1096 54.1871 47.0036C54.1933 46.8976 54.2202 46.7939 54.2665 46.6983C54.3127 46.6028 54.3773 46.5173 54.4566 46.4467C54.5359 46.3761 54.6283 46.3218 54.7286 46.2869C54.8289 46.2521 54.935 46.2373 55.041 46.2434C55.8551 46.2903 56.6714 46.3361 57.4901 46.3811C57.6989 46.3945 57.8944 46.4884 58.0355 46.6429C58.1765 46.7975 58.2522 47.0007 58.2466 47.2099C58.241 47.419 58.1545 47.6179 58.0053 47.7647C57.8562 47.9114 57.6559 47.9946 57.4467 47.9968L57.449 47.9957ZM52.5457 47.7101H52.4954C51.6484 47.6582 50.8225 47.605 50.0395 47.5531C49.9319 47.5482 49.8263 47.522 49.729 47.4758C49.6317 47.4296 49.5446 47.3645 49.4728 47.2842C49.401 47.2039 49.346 47.1101 49.3109 47.0083C49.2759 46.9064 49.2615 46.7986 49.2687 46.6911C49.2759 46.5837 49.3045 46.4787 49.3528 46.3825C49.4011 46.2862 49.4681 46.2006 49.55 46.1305C49.6318 46.0605 49.7268 46.0076 49.8294 45.9748C49.932 45.942 50.0401 45.93 50.1474 45.9396C50.9259 45.9915 51.7466 46.0447 52.5936 46.0966C52.8046 46.1077 53.0028 46.201 53.1459 46.3564C53.2889 46.5118 53.3654 46.7171 53.359 46.9283C53.3526 47.1394 53.2637 47.3396 53.1115 47.4861C52.9593 47.6326 52.7557 47.7136 52.5445 47.7118L52.5457 47.7101ZM47.6458 47.3823C47.6258 47.3823 47.6064 47.3823 47.5887 47.3823C46.7479 47.3212 45.922 47.2572 45.1327 47.1938C44.9186 47.1766 44.7201 47.0751 44.5809 46.9115C44.4416 46.748 44.373 46.5358 44.3902 46.3217C44.4074 46.1076 44.509 45.909 44.6725 45.7698C44.8361 45.6305 45.0483 45.562 45.2624 45.5792C46.046 45.6426 46.8679 45.706 47.7046 45.7671C47.9144 45.7807 48.1106 45.8755 48.2516 46.0314C48.3926 46.1873 48.4673 46.392 48.4599 46.6021C48.4525 46.8122 48.3635 47.0111 48.2118 47.1567C48.0601 47.3022 47.8577 47.3829 47.6475 47.3817L47.6458 47.3823ZM42.7505 46.9825C42.7261 46.9825 42.7015 46.9813 42.6768 46.9791C41.8361 46.9031 41.0102 46.8237 40.2209 46.7432C40.0076 46.7214 39.8117 46.6157 39.6763 46.4495C39.5409 46.2832 39.4771 46.07 39.4989 45.8568C39.5207 45.6435 39.6264 45.4476 39.7926 45.3122C39.9589 45.1768 40.1721 45.113 40.3853 45.1348C41.1667 45.2148 41.9846 45.2936 42.8207 45.369C43.0288 45.3865 43.2221 45.4839 43.3599 45.6407C43.4978 45.7976 43.5696 46.0017 43.5603 46.2103C43.551 46.419 43.4613 46.6159 43.31 46.7598C43.1587 46.9038 42.9576 46.9836 42.7488 46.9825H42.7505ZM37.8649 46.481C37.8332 46.4811 37.8015 46.4792 37.7701 46.4753C36.9265 46.3771 36.1017 46.2737 35.3187 46.168C35.209 46.1595 35.1022 46.1288 35.0048 46.0776C34.9075 46.0264 34.8216 45.9558 34.7524 45.8703C34.6833 45.7847 34.6323 45.6859 34.6027 45.58C34.5731 45.474 34.5654 45.3632 34.5801 45.2541C34.5948 45.1451 34.6316 45.0402 34.6883 44.946C34.745 44.8517 34.8203 44.7699 34.9096 44.7058C34.999 44.6416 35.1005 44.5964 35.208 44.5728C35.3154 44.5493 35.4266 44.5479 35.5346 44.5688C36.3079 44.6728 37.1235 44.775 37.9574 44.8721C38.1618 44.8965 38.3493 44.998 38.4815 45.1558C38.6137 45.3136 38.6807 45.5159 38.6689 45.7215C38.6571 45.927 38.5674 46.1203 38.418 46.262C38.2686 46.4037 38.0708 46.483 37.8649 46.4839V46.481ZM32.997 45.8225C32.9547 45.8224 32.9125 45.819 32.8708 45.8122C32.0243 45.6797 31.2024 45.5392 30.4274 45.3947C30.3177 45.3816 30.2118 45.3461 30.1163 45.2905C30.0208 45.2349 29.9378 45.1603 29.8723 45.0713C29.8068 44.9823 29.7602 44.8808 29.7355 44.7731C29.7108 44.6654 29.7084 44.5538 29.7285 44.4451C29.7486 44.3365 29.7908 44.2331 29.8524 44.1414C29.9141 44.0497 29.9939 43.9716 30.0869 43.9119C30.1799 43.8523 30.2841 43.8123 30.3932 43.7946C30.5023 43.7768 30.6138 43.7816 30.721 43.8086C31.4817 43.9503 32.2888 44.0879 33.1198 44.2187C33.3202 44.2509 33.5012 44.3574 33.6267 44.5169C33.7523 44.6764 33.8133 44.8773 33.7976 45.0796C33.7819 45.282 33.6907 45.4711 33.5421 45.6094C33.3934 45.7476 33.1983 45.8249 32.9953 45.8259L32.997 45.8225ZM28.1696 44.9178C28.1099 44.9179 28.0503 44.9112 27.992 44.8978C27.1404 44.707 26.3254 44.5037 25.5703 44.2947C25.4656 44.2685 25.3672 44.2216 25.2809 44.1567C25.1946 44.0919 25.1222 44.0104 25.0679 43.9172C25.0135 43.8239 24.9784 43.7207 24.9646 43.6137C24.9508 43.5066 24.9585 43.3979 24.9874 43.2939C25.0163 43.1899 25.0657 43.0927 25.1327 43.0081C25.1997 42.9234 25.2829 42.8531 25.3776 42.8011C25.4722 42.7492 25.5762 42.7167 25.6836 42.7057C25.791 42.6946 25.8995 42.7051 26.0027 42.7366C26.7315 42.9388 27.5202 43.1364 28.3444 43.3203C28.5399 43.3626 28.7129 43.4758 28.8298 43.6381C28.9467 43.8005 28.9993 44.0004 28.9774 44.1992C28.9555 44.398 28.8607 44.5817 28.7113 44.7148C28.5619 44.8478 28.3685 44.9207 28.1685 44.9195L28.1696 44.9178ZM23.4457 43.5893C23.353 43.5893 23.2611 43.5735 23.1738 43.5425C22.3761 43.2618 21.5944 42.9377 20.8321 42.5715C20.6437 42.475 20.5006 42.3084 20.4336 42.1075C20.3666 41.9067 20.3811 41.6876 20.4739 41.4973C20.5667 41.3069 20.7304 41.1606 20.9299 41.0897C21.1294 41.0188 21.3488 41.0289 21.5409 41.1179C22.25 41.4592 22.9774 41.7611 23.7198 42.0221C23.899 42.0863 24.0498 42.2116 24.1457 42.3761C24.2416 42.5405 24.2764 42.7335 24.2439 42.9211C24.2115 43.1087 24.114 43.2788 23.9685 43.4016C23.823 43.5243 23.6389 43.5918 23.4485 43.5922L23.4457 43.5893Z" fill="#C8C8C8"/>
<path d="M102.572 92.3232C102.42 92.3232 102.271 92.2802 102.142 92.1992C101.834 92.005 101.51 91.8051 101.179 91.6058C101 91.4926 100.873 91.314 100.825 91.1082C100.777 90.9025 100.811 90.686 100.92 90.5051C101.029 90.3242 101.205 90.1932 101.409 90.1401C101.614 90.0871 101.831 90.1163 102.014 90.2213C102.354 90.4264 102.686 90.6309 103.003 90.8302C103.151 90.9237 103.265 91.0629 103.328 91.2267C103.39 91.3906 103.398 91.5704 103.349 91.7388C103.3 91.9073 103.198 92.0554 103.058 92.1608C102.918 92.2662 102.747 92.3232 102.572 92.3232Z" fill="#C8C8C8"/>
<path d="M99.5921 90.5546C99.4532 90.5545 99.3166 90.5185 99.1957 90.45C98.5041 90.0605 97.773 89.6613 97.0219 89.2632C96.9239 89.2159 96.8364 89.1494 96.7647 89.0675C96.693 88.9857 96.6385 88.8902 96.6046 88.7868C96.5707 88.6833 96.558 88.5741 96.5672 88.4657C96.5765 88.3573 96.6076 88.2518 96.6586 88.1557C96.7096 88.0595 96.7794 87.9747 96.864 87.9062C96.9486 87.8377 97.0461 87.7869 97.1508 87.757C97.2554 87.7271 97.365 87.7186 97.473 87.7321C97.581 87.7455 97.6852 87.7807 97.7793 87.8353C98.5424 88.2403 99.286 88.6463 99.9896 89.0427C100.145 89.1307 100.268 89.2678 100.337 89.4326C100.407 89.5974 100.42 89.7806 100.374 89.9536C100.328 90.1265 100.226 90.2794 100.085 90.3884C99.9427 90.4973 99.7687 90.5562 99.5898 90.5557L99.5921 90.5546ZM95.1806 88.2128C95.0544 88.2129 94.93 88.1834 94.8173 88.1266C94.0954 87.7634 93.346 87.395 92.5898 87.0317C92.4941 86.9857 92.4083 86.9214 92.3375 86.8422C92.2666 86.7631 92.2121 86.6708 92.1769 86.5706C92.1417 86.4704 92.1266 86.3642 92.1324 86.2582C92.1382 86.1521 92.1649 86.0483 92.2109 85.9525C92.2569 85.8568 92.3212 85.771 92.4004 85.7002C92.4795 85.6293 92.5718 85.5747 92.672 85.5395C92.7722 85.5044 92.8784 85.4893 92.9844 85.4951C93.0905 85.5009 93.1943 85.5276 93.2901 85.5736C94.0554 85.9414 94.8145 86.3161 95.545 86.6822C95.7073 86.7641 95.8373 86.8984 95.9139 87.0633C95.9905 87.2283 96.0093 87.4142 95.9673 87.5911C95.9252 87.768 95.8247 87.9256 95.6821 88.0384C95.5395 88.1512 95.363 88.2127 95.1811 88.2128H95.1806ZM90.6782 86.0493C90.5617 86.0492 90.4465 86.0239 90.3407 85.9751C89.5982 85.6324 88.8351 85.2897 88.0749 84.955C87.9778 84.9122 87.89 84.8507 87.8167 84.7739C87.7434 84.6972 87.6858 84.6068 87.6474 84.5078C87.609 84.4088 87.5905 84.3033 87.5929 84.1971C87.5953 84.091 87.6186 83.9864 87.6614 83.8893C87.7042 83.7921 87.7658 83.7044 87.8425 83.631C87.9193 83.5577 88.0097 83.5002 88.1086 83.4618C88.2076 83.4234 88.3132 83.4049 88.4193 83.4073C88.5254 83.4096 88.63 83.4329 88.7272 83.4758C89.4954 83.8139 90.2653 84.1611 91.0163 84.5038C91.1831 84.5814 91.3185 84.7134 91.4001 84.8782C91.4817 85.043 91.5047 85.2307 91.4653 85.4104C91.426 85.59 91.3265 85.7509 91.1834 85.8664C91.0403 85.982 90.8621 86.0453 90.6782 86.0459V86.0493ZM86.109 84.0338C86.0009 84.0337 85.8939 84.012 85.7943 83.9698C85.033 83.6482 84.2608 83.3284 83.4977 83.0188C83.2991 82.9383 83.1405 82.7822 83.057 82.5848C82.9734 82.3874 82.9717 82.1649 83.0522 81.9662C83.1328 81.7675 83.2889 81.609 83.4863 81.5255C83.6837 81.4419 83.9062 81.4402 84.1049 81.5207C84.8754 81.8326 85.6555 82.1558 86.4243 82.4808C86.5964 82.5533 86.738 82.6831 86.8252 82.8482C86.9123 83.0133 86.9397 83.2034 86.9025 83.3864C86.8654 83.5693 86.7661 83.7338 86.6214 83.8518C86.4768 83.9698 86.2957 84.0341 86.109 84.0338ZM81.4787 82.157C81.3787 82.1564 81.2797 82.1371 81.1869 82.0999C80.413 81.8 79.6311 81.5036 78.8629 81.2191C78.7633 81.1823 78.672 81.1262 78.5941 81.0541C78.5162 80.982 78.4533 80.8952 78.4089 80.7988C78.3645 80.7023 78.3396 80.5981 78.3355 80.492C78.3314 80.3859 78.3483 80.2801 78.3851 80.1805C78.4219 80.0809 78.478 79.9896 78.5501 79.9117C78.6223 79.8338 78.709 79.7709 78.8055 79.7265C78.9019 79.6822 79.0062 79.6572 79.1123 79.6531C79.2183 79.6491 79.3242 79.6659 79.4237 79.7027C80.1999 79.9883 80.9898 80.2893 81.7712 80.5926C81.9473 80.6606 82.094 80.7881 82.1859 80.953C82.2778 81.1178 82.3091 81.3097 82.2744 81.4952C82.2397 81.6808 82.1411 81.8483 81.9958 81.9688C81.8504 82.0892 81.6675 82.155 81.4787 82.1547V82.157ZM76.7953 80.4247C76.7041 80.4248 76.6135 80.4094 76.5275 80.379C75.7381 80.102 74.9477 79.8324 74.1772 79.5794C73.9737 79.5121 73.8053 79.3666 73.709 79.1751C73.6127 78.9836 73.5964 78.7617 73.6637 78.5582C73.7311 78.3547 73.8765 78.1862 74.068 78.0899C74.2595 77.9936 74.4814 77.9774 74.6849 78.0447C75.4646 78.3023 76.2647 78.5753 77.0632 78.8557C77.2436 78.9187 77.3959 79.0435 77.493 79.2081C77.5901 79.3726 77.6257 79.5663 77.5936 79.7546C77.5615 79.943 77.4637 80.1138 77.3176 80.2369C77.1714 80.36 76.9864 80.4273 76.7953 80.427V80.4247ZM72.0548 78.8575C71.9739 78.8575 71.8934 78.8454 71.8161 78.8215C71.009 78.5725 70.2094 78.336 69.4395 78.1184C69.2332 78.0601 69.0585 77.9222 68.9539 77.7351C68.8492 77.5479 68.8232 77.3269 68.8815 77.1206C68.9398 76.9143 69.0777 76.7396 69.2648 76.6349C69.452 76.5303 69.673 76.5043 69.8793 76.5626C70.6612 76.7836 71.4734 77.0235 72.2924 77.2765C72.4776 77.3332 72.6363 77.4546 72.7396 77.6184C72.8428 77.7823 72.8838 77.9778 72.855 78.1694C72.8262 78.3609 72.7296 78.5358 72.5827 78.6621C72.4358 78.7884 72.2485 78.8577 72.0548 78.8575ZM67.2486 77.4993C67.1798 77.4994 67.1113 77.4908 67.0447 77.4736C66.2594 77.2697 65.4455 77.064 64.6322 76.8624C64.5291 76.837 64.4321 76.7915 64.3466 76.7285C64.2611 76.6655 64.1889 76.5863 64.1341 76.4955C64.0232 76.3119 63.9899 76.0919 64.0413 75.8838C64.0927 75.6756 64.2247 75.4965 64.4083 75.3857C64.5918 75.2749 64.8118 75.2415 65.02 75.2929C65.8419 75.4957 66.6597 75.703 67.4508 75.9086C67.6412 75.9578 67.8072 76.0748 67.9175 76.2376C68.0279 76.4004 68.0751 76.5979 68.0503 76.793C68.0255 76.9881 67.9304 77.1675 67.7828 77.2975C67.6352 77.4275 67.4453 77.4993 67.2486 77.4993ZM62.3984 76.2999C62.3357 76.2998 62.2732 76.2923 62.2122 76.2776C61.428 76.0931 60.613 75.9046 59.7854 75.7178C59.5763 75.6706 59.3945 75.5422 59.2801 75.3609C59.1656 75.1796 59.1279 74.9603 59.1751 74.7512C59.2224 74.5421 59.3508 74.3603 59.5321 74.2458C59.7134 74.1314 59.9327 74.0936 60.1418 74.1409C60.9728 74.3288 61.7941 74.5179 62.5835 74.7041C62.7763 74.7497 62.9457 74.8645 63.0595 75.0268C63.1733 75.189 63.2235 75.3874 63.2007 75.5843C63.1779 75.7811 63.0836 75.9628 62.9357 76.0947C62.7878 76.2266 62.5966 76.2996 62.3984 76.2999ZM57.5254 75.1981C57.4678 75.1979 57.4103 75.1916 57.354 75.1793C56.5761 75.0079 55.7548 74.8366 54.9158 74.6589C54.7087 74.612 54.5284 74.4856 54.4137 74.3068C54.2991 74.1281 54.2593 73.9115 54.303 73.7037C54.3468 73.4959 54.4704 73.3136 54.6474 73.1962C54.8243 73.0789 55.0403 73.0358 55.2488 73.0763C56.0924 73.2539 56.916 73.4298 57.6973 73.5995C57.8924 73.6417 58.065 73.7546 58.1819 73.9164C58.2988 74.0782 58.3517 74.2776 58.3305 74.4761C58.3092 74.6746 58.2153 74.8582 58.0667 74.9916C57.9182 75.125 57.7256 75.1988 57.5259 75.1987L57.5254 75.1981ZM52.6358 74.17C52.5809 74.1698 52.5262 74.1643 52.4724 74.1535C51.7168 73.9987 50.9166 73.8365 50.0268 73.6583C49.8204 73.6122 49.6403 73.4871 49.5251 73.3098C49.4098 73.1326 49.3686 72.9172 49.4102 72.7099C49.4518 72.5026 49.5729 72.3198 49.7476 72.2007C49.9223 72.0816 50.1367 72.0357 50.3449 72.0728C51.237 72.2521 52.0389 72.4155 52.7968 72.5691C52.9912 72.6111 53.1632 72.7231 53.2802 72.8839C53.3971 73.0447 53.4507 73.2429 53.4308 73.4407C53.4109 73.6385 53.3188 73.822 53.1722 73.9562C53.0255 74.0905 52.8346 74.166 52.6358 74.1683V74.17ZM47.7371 73.1848C47.6837 73.1848 47.6305 73.1795 47.5783 73.1688L47.2356 73.1003L45.1275 72.6799C45.0212 72.6614 44.9197 72.6217 44.829 72.5633C44.7382 72.5049 44.6601 72.429 44.5992 72.34C44.5383 72.2509 44.4958 72.1506 44.4742 72.0449C44.4526 71.9392 44.4524 71.8302 44.4736 71.7244C44.4948 71.6186 44.537 71.5181 44.5976 71.4289C44.6582 71.3396 44.736 71.2634 44.8266 71.2047C44.9171 71.146 45.0184 71.106 45.1247 71.087C45.2309 71.0681 45.3398 71.0706 45.445 71.0944L47.5514 71.5148L47.8941 71.5833C48.0882 71.6252 48.26 71.7369 48.377 71.8972C48.494 72.0576 48.5479 72.2554 48.5285 72.4529C48.5091 72.6505 48.4178 72.834 48.2718 72.9685C48.1259 73.1031 47.9355 73.1792 47.7371 73.1825V73.1848ZM42.8377 72.2007C42.7829 72.2006 42.7281 72.1949 42.6744 72.1836C41.7606 71.9968 40.961 71.8289 40.2185 71.6696C40.1147 71.6471 40.0163 71.6043 39.929 71.5438C39.8417 71.4833 39.7672 71.4062 39.7097 71.3169C39.6522 71.2276 39.6129 71.1278 39.5939 71.0233C39.575 70.9188 39.5768 70.8115 39.5993 70.7077C39.6218 70.6039 39.6646 70.5056 39.7251 70.4183C39.7856 70.331 39.8627 70.2565 39.952 70.199C40.0413 70.1415 40.1411 70.1022 40.2456 70.0832C40.3501 70.0643 40.4573 70.0661 40.5612 70.0886C41.2951 70.2463 42.0924 70.4136 42.9988 70.5992C43.1931 70.6412 43.3652 70.7532 43.4821 70.914C43.5991 71.0748 43.6527 71.273 43.6328 71.4708C43.6129 71.6686 43.5208 71.8521 43.3741 71.9863C43.2275 72.1206 43.0365 72.1961 42.8377 72.1984V72.2007ZM37.9533 71.1441C37.8912 71.1441 37.8293 71.137 37.7688 71.123C36.8595 70.9111 36.0582 70.7117 35.3192 70.5153C35.1157 70.4567 34.9432 70.3208 34.8389 70.1365C34.7346 69.9522 34.7067 69.7344 34.7612 69.5298C34.8157 69.3252 34.9483 69.1501 35.1305 69.0422C35.3127 68.9343 35.5299 68.9021 35.7355 68.9526C36.458 69.1451 37.2434 69.3398 38.1343 69.5483C38.328 69.5929 38.4984 69.7072 38.6131 69.8694C38.7278 70.0317 38.7787 70.2305 38.7561 70.4279C38.7335 70.6253 38.639 70.8075 38.4906 70.9396C38.3422 71.0717 38.1503 71.1445 37.9516 71.1441H37.9533ZM33.1322 69.8339C33.0452 69.834 32.9588 69.8199 32.8764 69.7922C31.8946 69.4644 31.1007 69.1422 30.4496 68.807C30.2589 68.7085 30.1152 68.5383 30.05 68.3339C29.9848 68.1295 30.0035 67.9076 30.102 67.7169C30.2005 67.5263 30.3706 67.3826 30.575 67.3174C30.7795 67.2522 31.0014 67.2709 31.192 67.3694C31.7632 67.6624 32.5 67.9617 33.3898 68.2587C33.5722 68.3192 33.727 68.4426 33.8265 68.607C33.9261 68.7713 33.9638 68.9657 33.933 69.1553C33.9022 69.3449 33.8049 69.5174 33.6584 69.6417C33.512 69.7661 33.3261 69.8342 33.1339 69.8339H33.1322ZM29.0074 67.274C28.8415 67.274 28.6796 67.223 28.5437 67.1279C28.4078 67.0328 28.3045 66.8981 28.2478 66.7423C28.1719 66.5342 28.128 66.3158 28.1176 66.0946C28.1176 66.0306 28.1136 65.9661 28.1136 65.9027C28.1104 65.0906 28.3632 64.2982 28.8361 63.6381C28.9594 63.4627 29.1474 63.3436 29.3586 63.3069C29.5699 63.2701 29.787 63.3188 29.9624 63.4422C30.1377 63.5656 30.2568 63.7535 30.2936 63.9648C30.3303 64.176 30.2816 64.3931 30.1583 64.5685C29.8782 64.9566 29.7295 65.4241 29.7339 65.9027C29.7339 65.9421 29.7339 65.9821 29.7368 66.0226C29.7394 66.0794 29.7508 66.1355 29.7705 66.1888C29.815 66.311 29.8295 66.442 29.8125 66.571C29.7956 66.6999 29.7479 66.8228 29.6733 66.9293C29.5988 67.0358 29.4996 67.1228 29.3843 67.1828C29.2689 67.2428 29.1408 67.2741 29.0108 67.274H29.0074ZM31.4062 63.3451C31.2259 63.3451 31.0508 63.2848 30.9086 63.1738C30.7665 63.0629 30.6655 62.9076 30.6217 62.7327C30.578 62.5578 30.5939 62.3732 30.667 62.2084C30.7401 62.0436 30.8662 61.9079 31.0253 61.823C31.3818 61.6344 31.7478 61.4644 32.1219 61.3135C32.2206 61.2717 32.3266 61.25 32.4337 61.2495C32.5409 61.2491 32.6471 61.2699 32.7461 61.3109C32.8452 61.3518 32.9351 61.412 33.0107 61.488C33.0862 61.564 33.1459 61.6542 33.1863 61.7535C33.2267 61.8528 33.2469 61.9591 33.2459 62.0663C33.2448 62.1734 33.2225 62.2793 33.1801 62.3778C33.1378 62.4762 33.0763 62.5653 32.9993 62.6397C32.9222 62.7142 32.8311 62.7727 32.7313 62.8116C32.4087 62.9414 32.093 63.0876 31.7855 63.2497C31.6698 63.3116 31.5408 63.3444 31.4096 63.3451H31.4062Z" fill="#C8C8C8"/>
</g>
<path d="M96.9412 60.486C96.7354 60.4866 96.5372 60.4086 96.3869 60.268C96.2366 60.1274 96.1456 59.9347 96.1325 59.7293C96.1194 59.5239 96.1851 59.3213 96.3163 59.1627C96.4475 59.0041 96.6342 58.9015 96.8384 58.8759C97.7094 58.7617 98.5051 58.6343 99.2024 58.4938C99.4126 58.4514 99.631 58.4942 99.8096 58.6129C99.9882 58.7315 100.112 58.9162 100.155 59.1264C100.197 59.3366 100.154 59.555 100.036 59.7336C99.9172 59.9122 99.7325 60.0364 99.5223 60.0788C98.7872 60.2273 97.9545 60.3615 97.0458 60.4786C97.0111 60.4833 96.9762 60.4858 96.9412 60.486ZM101.727 59.4579C101.538 59.4577 101.354 59.3906 101.208 59.2684C101.063 59.1461 100.965 58.9767 100.932 58.7896C100.899 58.6025 100.933 58.4098 101.028 58.2452C101.123 58.0807 101.273 57.9548 101.451 57.8896C102.284 57.5863 102.874 57.2436 103.203 56.8695C103.274 56.7899 103.359 56.7249 103.454 56.6782C103.549 56.6315 103.653 56.604 103.759 56.5974C103.865 56.5907 103.971 56.605 104.071 56.6394C104.172 56.6738 104.265 56.7276 104.344 56.7978C104.424 56.868 104.489 56.9532 104.536 57.0485C104.582 57.1439 104.61 57.2475 104.616 57.3534C104.623 57.4593 104.609 57.5656 104.574 57.666C104.54 57.7664 104.486 57.8591 104.416 57.9387C103.898 58.5258 103.11 59.0067 102.003 59.4088C101.915 59.4412 101.822 59.4578 101.727 59.4579ZM104.196 55.9328C104.019 55.9327 103.847 55.8745 103.706 55.7672C103.566 55.6599 103.464 55.5094 103.417 55.3388C103.263 54.7802 102.917 54.2662 102.358 53.7664C102.279 53.6957 102.214 53.61 102.168 53.5144C102.122 53.4187 102.096 53.3149 102.09 53.2089C102.084 53.1029 102.099 52.9968 102.134 52.8966C102.169 52.7964 102.224 52.7041 102.294 52.625C102.365 52.5459 102.451 52.4815 102.546 52.4354C102.642 52.3894 102.746 52.3627 102.852 52.3568C102.958 52.3509 103.064 52.3659 103.164 52.401C103.264 52.4361 103.357 52.4906 103.436 52.5613C104.222 53.2638 104.74 54.0543 104.978 54.9093C105.011 55.0294 105.016 55.1555 104.992 55.2778C104.968 55.4001 104.917 55.5153 104.841 55.6144C104.766 55.7134 104.668 55.7937 104.557 55.8489C104.445 55.9042 104.322 55.9329 104.198 55.9328H104.196ZM100.858 52.6481C100.733 52.6482 100.61 52.6194 100.499 52.5642C99.7956 52.2222 99.0706 51.9269 98.3286 51.68C98.2257 51.6478 98.1303 51.5953 98.0481 51.5257C97.9658 51.456 97.8983 51.3706 97.8495 51.2745C97.8007 51.1784 97.7716 51.0735 97.7639 50.966C97.7562 50.8585 97.7701 50.7505 97.8047 50.6484C97.8394 50.5463 97.8941 50.4522 97.9656 50.3716C98.0372 50.291 98.1241 50.2255 98.2214 50.1789C98.3186 50.1324 98.4241 50.1057 98.5318 50.1005C98.6395 50.0954 98.7471 50.1118 98.8483 50.1488C99.6581 50.419 100.449 50.742 101.217 51.1158C101.38 51.1967 101.512 51.3306 101.589 51.4956C101.667 51.6607 101.687 51.8471 101.645 52.0247C101.603 52.2023 101.503 52.3606 101.36 52.4737C101.217 52.5869 101.039 52.6484 100.857 52.6481H100.858ZM96.2313 51.0312C96.1637 51.0313 96.0964 51.0228 96.0308 51.0061C95.3038 50.8205 94.511 50.6411 93.6749 50.4726C93.5708 50.4517 93.4719 50.4104 93.3838 50.3512C93.2956 50.292 93.22 50.2161 93.1613 50.1277C93.1025 50.0392 93.0617 49.9401 93.0413 49.836C93.0208 49.7318 93.0211 49.6246 93.042 49.5205C93.063 49.4165 93.1042 49.3176 93.1634 49.2294C93.2226 49.1413 93.2986 49.0657 93.387 49.0069C93.4754 48.9482 93.5745 48.9074 93.6787 48.8869C93.7829 48.8665 93.8901 48.8667 93.9941 48.8877C94.8577 49.0591 95.6773 49.247 96.4306 49.4394C96.621 49.4886 96.7869 49.6054 96.8974 49.768C97.0079 49.9306 97.0553 50.1279 97.0309 50.323C97.0065 50.518 96.9118 50.6975 96.7647 50.8279C96.6175 50.9582 96.4279 51.0305 96.2313 51.0312ZM91.4183 50.0483C91.3739 50.0483 91.3295 50.0447 91.2858 50.0374C90.5261 49.9123 89.7157 49.7907 88.8778 49.6753C88.7708 49.663 88.6673 49.6295 88.5734 49.5767C88.4795 49.5239 88.3971 49.4529 88.3311 49.3678C88.265 49.2827 88.2166 49.1853 88.1887 49.0812C88.1608 48.9772 88.154 48.8686 88.1687 48.7619C88.1833 48.6551 88.2191 48.5524 88.274 48.4597C88.3289 48.367 88.4018 48.2863 88.4883 48.2221C88.5748 48.158 88.6733 48.1118 88.778 48.0862C88.8826 48.0606 88.9913 48.0562 89.0977 48.0732C89.9504 48.1909 90.7746 48.3148 91.5485 48.4422C91.7492 48.4745 91.9304 48.5814 92.0559 48.7413C92.1814 48.9013 92.242 49.1028 92.2255 49.3054C92.2091 49.5081 92.1169 49.6971 91.9672 49.8348C91.8176 49.9725 91.6216 50.0487 91.4183 50.0483ZM86.5515 49.3738C86.5198 49.3738 86.4881 49.3719 86.4567 49.368C85.6845 49.2778 84.8672 49.1893 84.027 49.1042C83.9197 49.0956 83.8153 49.0657 83.7197 49.0162C83.6241 48.9667 83.5394 48.8986 83.4704 48.8159C83.4015 48.7333 83.3498 48.6377 83.3183 48.5348C83.2868 48.4319 83.2761 48.3237 83.2869 48.2166C83.2978 48.1095 83.3299 48.0057 83.3814 47.9112C83.4328 47.8166 83.5027 47.7333 83.5868 47.6662C83.6709 47.599 83.7675 47.5493 83.8711 47.5199C83.9746 47.4906 84.083 47.4822 84.1898 47.4952C85.038 47.5809 85.8638 47.6712 86.6457 47.7625C86.8511 47.7858 87.0397 47.8868 87.1728 48.0449C87.306 48.2029 87.3735 48.4059 87.3616 48.6122C87.3497 48.8185 87.2592 49.0124 87.1087 49.154C86.9583 49.2957 86.7593 49.3743 86.5527 49.3738H86.5515ZM81.6642 48.8769C81.6402 48.8769 81.6162 48.8769 81.5917 48.8769C80.8132 48.8077 79.9924 48.7392 79.1523 48.673C78.9385 48.6561 78.7403 48.5551 78.601 48.3921C78.4618 48.2291 78.393 48.0174 78.4098 47.8037C78.4266 47.5899 78.5276 47.3916 78.6907 47.2524C78.8537 47.1131 79.0653 47.0444 79.2791 47.0612C80.1244 47.128 80.9503 47.1965 81.735 47.2662C81.9429 47.2837 82.1361 47.381 82.2739 47.5377C82.4118 47.6943 82.4837 47.8982 82.4746 48.1067C82.4655 48.3152 82.3761 48.5121 82.2252 48.6561C82.0743 48.8002 81.8734 48.8803 81.6648 48.8797L81.6642 48.8769ZM76.7717 48.4919H76.7146C75.9379 48.4348 75.1154 48.3811 74.269 48.3268C74.055 48.313 73.8553 48.2147 73.7138 48.0536C73.5723 47.8925 73.5006 47.6818 73.5145 47.4678C73.5284 47.2539 73.6266 47.0542 73.7877 46.9127C73.9488 46.7712 74.1595 46.6995 74.3735 46.7133C75.2222 46.7705 76.0487 46.8236 76.8294 46.879C77.0392 46.8926 77.2354 46.9874 77.3764 47.1433C77.5174 47.2992 77.5921 47.5039 77.5847 47.714C77.5773 47.9241 77.4883 48.123 77.3366 48.2686C77.1849 48.4141 76.9825 48.4948 76.7723 48.4936L76.7717 48.4919ZM71.8702 48.1743H71.8216C71.0534 48.1281 70.2521 48.0818 69.3725 48.0321C69.1612 48.0163 68.9645 47.9181 68.8248 47.7587C68.6851 47.5994 68.6136 47.3915 68.6256 47.1799C68.6375 46.9684 68.7321 46.7699 68.8889 46.6273C69.0457 46.4848 69.2521 46.4094 69.4639 46.4175C70.3452 46.4678 71.1482 46.514 71.9198 46.5603C72.1307 46.5714 72.3288 46.6646 72.4718 46.8199C72.6148 46.9752 72.6913 47.1803 72.685 47.3913C72.6788 47.6023 72.5902 47.8025 72.4382 47.9491C72.2863 48.0956 72.083 48.1769 71.8719 48.1755L71.8702 48.1743ZM66.9669 47.8968C66.952 47.8968 66.9371 47.8968 66.9223 47.8968L64.4715 47.766C64.2574 47.7547 64.0565 47.6588 63.9131 47.4994C63.7697 47.34 63.6955 47.1302 63.7067 46.9161C63.718 46.702 63.8139 46.5011 63.9733 46.3577C64.1327 46.2143 64.3425 46.1401 64.5566 46.1513L67.0097 46.2821C67.2185 46.2955 67.414 46.3893 67.555 46.5438C67.6961 46.6983 67.7719 46.9015 67.7663 47.1106C67.7608 47.3198 67.6744 47.5187 67.5253 47.6655C67.3762 47.8123 67.1761 47.8956 66.9669 47.8979V47.8968ZM62.0641 47.6352H62.0207C61.2024 47.5925 60.3838 47.5491 59.5648 47.505C59.3546 47.4882 59.1593 47.39 59.0205 47.2314C58.8816 47.0728 58.8102 46.8662 58.8214 46.6556C58.8327 46.4451 58.9257 46.2473 59.0807 46.1043C59.2356 45.9614 59.4403 45.8846 59.651 45.8903L62.107 46.0205C62.3203 46.0274 62.5222 46.1184 62.6687 46.2736C62.8152 46.4289 62.8943 46.6358 62.8888 46.8491C62.8833 47.0625 62.7936 47.265 62.6393 47.4125C62.485 47.56 62.2787 47.6405 62.0653 47.6363L62.0641 47.6352ZM57.1523 47.3725H57.1071C56.287 47.3268 55.4683 47.2805 54.6512 47.2337C54.5452 47.2275 54.4415 47.2005 54.3459 47.1543C54.2504 47.1081 54.1648 47.0435 54.0943 46.9642C54.0237 46.8849 53.9694 46.7925 53.9345 46.6922C53.8996 46.5919 53.8848 46.4858 53.891 46.3798C53.8972 46.2738 53.9241 46.1701 53.9703 46.0745C54.0166 45.979 54.0812 45.8934 54.1605 45.8229C54.2398 45.7523 54.3322 45.698 54.4325 45.6631C54.5327 45.6282 54.6389 45.6135 54.7449 45.6196C55.5589 45.6668 56.3753 45.7129 57.1939 45.7578C57.4028 45.7713 57.5983 45.8651 57.7393 46.0197C57.8804 46.1742 57.9561 46.3774 57.9505 46.5866C57.9449 46.7958 57.8584 46.9947 57.7092 47.1414C57.56 47.2882 57.3598 47.3714 57.1505 47.3736L57.1523 47.3725ZM52.2495 47.0869C52.2324 47.0869 52.2158 47.0869 52.1987 47.0869C51.3517 47.0343 50.5258 46.9818 49.7428 46.9292C49.5289 46.915 49.3294 46.8164 49.1882 46.6551C49.0471 46.4938 48.9757 46.283 48.99 46.0691C49.0042 45.8552 49.1028 45.6557 49.2641 45.5146C49.4255 45.3734 49.6362 45.3021 49.8501 45.3163C50.6292 45.3683 51.4493 45.4208 52.2969 45.4728C52.5079 45.4839 52.7061 45.5772 52.8492 45.7326C52.9922 45.888 53.0687 46.0933 53.0623 46.3044C53.0559 46.5156 52.967 46.7158 52.8148 46.8623C52.6626 47.0087 52.459 47.0898 52.2478 47.088L52.2495 47.0869ZM47.3491 46.759C47.3297 46.759 47.3097 46.759 47.292 46.759C46.4512 46.6979 45.6254 46.6345 44.836 46.5706C44.6224 46.5533 44.4243 46.4519 44.2854 46.2886C44.1466 46.1253 44.0783 45.9135 44.0955 45.6998C44.1128 45.4862 44.2142 45.2881 44.3775 45.1493C44.5408 45.0104 44.7526 44.9421 44.9662 44.9594C45.7499 45.0222 46.5717 45.0856 47.4085 45.1467C47.6182 45.1603 47.8144 45.2551 47.9555 45.411C48.0965 45.5669 48.1712 45.7717 48.1638 45.9817C48.1563 46.1918 48.0673 46.3907 47.9157 46.5363C47.764 46.6818 47.5616 46.7626 47.3514 46.7613L47.3491 46.759ZM42.4538 46.3621C42.4298 46.3621 42.4046 46.3621 42.3801 46.3587C41.5394 46.2827 40.7141 46.2033 39.9242 46.1228C39.7136 46.0977 39.5213 45.9908 39.3887 45.8253C39.2561 45.6597 39.1939 45.4487 39.2154 45.2378C39.2368 45.0268 39.3404 44.8327 39.5036 44.6973C39.6668 44.5618 39.8767 44.496 40.0881 44.5139C40.87 44.5938 41.6873 44.6726 42.5234 44.748C42.7304 44.7671 42.9221 44.8652 43.0587 45.0218C43.1953 45.1785 43.2663 45.3817 43.2571 45.5894C43.2478 45.797 43.159 45.9931 43.009 46.137C42.859 46.2809 42.6593 46.3615 42.4515 46.3621H42.4538ZM37.5682 45.8601C37.5365 45.86 37.5048 45.8583 37.4734 45.8549C36.6298 45.7561 35.805 45.6527 35.022 45.5476C34.915 45.5356 34.8115 45.5022 34.7176 45.4496C34.6236 45.397 34.5411 45.3262 34.4749 45.2413C34.4087 45.1564 34.3601 45.0591 34.332 44.9552C34.3039 44.8512 34.2968 44.7427 34.3112 44.636C34.3256 44.5293 34.3611 44.4266 34.4157 44.3338C34.4703 44.241 34.5429 44.16 34.6293 44.0957C34.7156 44.0313 34.8139 43.9848 34.9184 43.9589C35.0229 43.9331 35.1315 43.9283 35.2379 43.945C36.0118 44.0489 36.8268 44.1512 37.6607 44.2488C37.866 44.2721 38.0545 44.3731 38.1877 44.5311C38.3208 44.689 38.3884 44.892 38.3765 45.0982C38.3647 45.3045 38.2743 45.4983 38.124 45.64C37.9736 45.7817 37.7748 45.8604 37.5682 45.8601ZM32.7031 45.2021C32.6609 45.202 32.6187 45.1987 32.5769 45.1924C31.731 45.0593 30.9086 44.9188 30.1335 44.7749C30.0292 44.7554 29.9297 44.7157 29.8407 44.6578C29.7517 44.5999 29.675 44.525 29.6149 44.4375C29.5548 44.35 29.5126 44.2514 29.4906 44.1476C29.4686 44.0437 29.4673 43.9366 29.4867 43.8322C29.5061 43.7278 29.5459 43.6283 29.6038 43.5393C29.6617 43.4503 29.7366 43.3736 29.8241 43.3135C29.9116 43.2535 30.0101 43.2112 30.114 43.1893C30.2179 43.1673 30.325 43.1659 30.4294 43.1854C31.1896 43.3264 31.9966 43.4647 32.8282 43.5949C33.0286 43.6271 33.2096 43.7336 33.3352 43.8931C33.4607 44.0526 33.5217 44.2534 33.5061 44.4558C33.4904 44.6582 33.3992 44.8473 33.2505 44.9855C33.1019 45.1238 32.9067 45.2011 32.7037 45.2021H32.7031ZM27.8758 44.2974C27.8161 44.2974 27.7565 44.2909 27.6982 44.278C26.846 44.0866 26.0316 43.8839 25.2765 43.6743C25.0748 43.6127 24.905 43.4748 24.8035 43.2899C24.702 43.105 24.6768 42.8877 24.7332 42.6845C24.7896 42.4812 24.9232 42.3081 25.1054 42.2019C25.2877 42.0957 25.5042 42.065 25.7089 42.1162C26.4376 42.3184 27.2264 42.516 28.0506 42.6999C28.2461 42.7422 28.419 42.8554 28.5359 43.0177C28.6528 43.1801 28.7054 43.38 28.6836 43.5788C28.6617 43.7777 28.5669 43.9613 28.4175 44.0944C28.2681 44.2274 28.0747 44.3004 27.8747 44.2991L27.8758 44.2974ZM23.1518 42.9695C23.0593 42.9694 22.9676 42.9533 22.8805 42.9221C22.0815 42.6409 21.2986 42.3158 20.5354 41.9483C20.3462 41.8522 20.2024 41.6857 20.135 41.4846C20.0675 41.2834 20.0818 41.0638 20.1749 40.8732C20.2679 40.6825 20.4322 40.5361 20.6323 40.4655C20.8323 40.3949 21.0521 40.4058 21.2442 40.4958C21.9535 40.8368 22.6809 41.1386 23.4231 41.4C23.6023 41.4642 23.7531 41.5895 23.849 41.754C23.9449 41.9184 23.9797 42.1114 23.9472 42.299C23.9148 42.4866 23.8173 42.6567 23.6718 42.7795C23.5263 42.9022 23.3422 42.9697 23.1518 42.97V42.9695Z" fill="white"/>
<path d="M102.278 91.6995C102.126 91.6996 101.978 91.6566 101.849 91.5756C101.539 91.3803 101.214 91.1809 100.885 90.9822C100.795 90.9273 100.715 90.8551 100.652 90.7696C100.589 90.6842 100.544 90.5871 100.518 90.4841C100.493 90.381 100.488 90.274 100.504 90.169C100.52 90.0641 100.556 89.9633 100.611 89.8724C100.666 89.7816 100.738 89.7024 100.824 89.6394C100.909 89.5765 101.006 89.531 101.109 89.5055C101.212 89.4801 101.319 89.4752 101.424 89.4911C101.529 89.507 101.63 89.5434 101.721 89.5983C102.059 89.8016 102.391 90.0067 102.71 90.2066C102.858 90.3 102.972 90.4392 103.034 90.6031C103.097 90.767 103.104 90.9467 103.055 91.1152C103.007 91.2837 102.905 91.4318 102.765 91.5372C102.624 91.6426 102.454 91.6995 102.278 91.6995Z" fill="white"/>
<path d="M99.2983 89.9309C99.1597 89.9308 99.0234 89.895 98.9025 89.8269C98.2109 89.4368 97.4792 89.0376 96.7282 88.6395C96.6335 88.5903 96.5494 88.5229 96.4809 88.441C96.4124 88.3592 96.3608 88.2646 96.329 88.1627C96.2972 88.0608 96.286 87.9536 96.2959 87.8474C96.3057 87.7411 96.3366 87.6378 96.3866 87.5435C96.4366 87.4492 96.5048 87.3658 96.5872 87.298C96.6697 87.2302 96.7647 87.1794 96.8669 87.1486C96.9691 87.1177 97.0763 87.1074 97.1825 87.1182C97.2887 87.129 97.3917 87.1608 97.4855 87.2116C98.2486 87.616 98.9922 88.0221 99.6959 88.4185C99.8516 88.5064 99.9738 88.6435 100.043 88.8083C100.113 88.9731 100.126 89.1564 100.08 89.3293C100.034 89.5022 99.9327 89.6552 99.7908 89.7641C99.6489 89.8731 99.4749 89.9319 99.2961 89.9314L99.2983 89.9309ZM94.8868 87.5892C94.7608 87.5891 94.6365 87.5594 94.5241 87.5023C93.8022 87.1391 93.0523 86.7707 92.2967 86.4074C92.1984 86.3631 92.11 86.2995 92.0367 86.2204C91.9634 86.1414 91.9066 86.0485 91.8697 85.9472C91.8328 85.8459 91.8165 85.7383 91.8218 85.6306C91.8272 85.5229 91.8539 85.4174 91.9006 85.3202C91.9473 85.223 92.0129 85.1362 92.0937 85.0647C92.1744 84.9933 92.2686 84.9387 92.3708 84.9042C92.4729 84.8697 92.5809 84.856 92.6884 84.8638C92.796 84.8717 92.9008 84.9009 92.9969 84.9499C93.7622 85.3177 94.5213 85.6924 95.2518 86.0579C95.4144 86.1397 95.5447 86.274 95.6215 86.439C95.6984 86.6041 95.7173 86.7902 95.6752 86.9674C95.6331 87.1445 95.5325 87.3022 95.3896 87.4151C95.2468 87.5279 95.07 87.5892 94.8879 87.5892H94.8868ZM90.3844 85.4251C90.2681 85.425 90.1531 85.3997 90.0475 85.3508C89.305 85.0081 88.5414 84.6654 87.7812 84.3307C87.684 84.2879 87.5963 84.2264 87.5229 84.1496C87.4496 84.0729 87.3921 83.9825 87.3537 83.8835C87.3153 83.7845 87.2967 83.679 87.2991 83.5729C87.3015 83.4667 87.3248 83.3621 87.3676 83.265C87.4105 83.1679 87.472 83.0801 87.5487 83.0068C87.6255 82.9334 87.7159 82.8759 87.8149 82.8375C87.9138 82.7991 88.0194 82.7806 88.1255 82.783C88.2317 82.7854 88.3363 82.8086 88.4334 82.8515C89.2016 83.1902 89.9715 83.5369 90.7226 83.8795C90.8893 83.9571 91.0247 84.0891 91.1063 84.254C91.188 84.4188 91.211 84.6065 91.1716 84.7861C91.1322 84.9658 91.0328 85.1266 90.8897 85.2422C90.7466 85.3577 90.5684 85.421 90.3844 85.4216V85.4251ZM85.8153 83.4101C85.7073 83.41 85.6005 83.3883 85.5011 83.3461C84.7398 83.024 83.967 82.7041 83.204 82.3951C83.1037 82.3566 83.012 82.2985 82.9344 82.2241C82.8568 82.1498 82.7948 82.0607 82.7521 81.9621C82.7093 81.8635 82.6866 81.7574 82.6853 81.6499C82.684 81.5425 82.7041 81.4358 82.7445 81.3363C82.7849 81.2367 82.8447 81.1461 82.9205 81.0699C82.9962 80.9937 83.0864 80.9334 83.1858 80.8924C83.2852 80.8515 83.3917 80.8307 83.4991 80.8314C83.6066 80.8321 83.7129 80.8542 83.8117 80.8964C84.5816 81.2089 85.3618 81.5316 86.1305 81.8565C86.3024 81.9293 86.4437 82.0592 86.5307 82.2242C86.6177 82.3893 86.645 82.5793 86.6079 82.7622C86.5708 82.945 86.4716 83.1094 86.3271 83.2275C86.1827 83.3456 86.0018 83.4101 85.8153 83.4101ZM81.185 81.5333C81.085 81.5325 80.986 81.5131 80.8931 81.4762C80.1192 81.1757 79.3373 80.8799 78.5691 80.5954C78.368 80.5211 78.2047 80.3699 78.1151 80.1751C78.0255 79.9803 78.017 79.7579 78.0914 79.5568C78.1657 79.3557 78.3169 79.1924 78.5117 79.1028C78.7065 79.0132 78.9289 79.0047 79.13 79.0791C79.9062 79.3646 80.6961 79.6656 81.478 79.9683C81.6539 80.0366 81.8003 80.1643 81.8921 80.3292C81.9838 80.4941 82.0149 80.6858 81.9802 80.8713C81.9454 81.0567 81.8469 81.2242 81.7016 81.3447C81.5564 81.4651 81.3737 81.531 81.185 81.531V81.5333ZM76.5016 79.801C76.4104 79.8008 76.3198 79.7854 76.2337 79.7553C75.4449 79.4777 74.6539 79.2081 73.8834 78.9557C73.7808 78.9238 73.6855 78.8718 73.6032 78.8027C73.5209 78.7336 73.4532 78.6487 73.4041 78.5532C73.3549 78.4576 73.3253 78.3532 73.317 78.246C73.3086 78.1389 73.3218 78.0311 73.3555 77.9291C73.3893 77.8271 73.4431 77.7328 73.5137 77.6518C73.5844 77.5708 73.6704 77.5047 73.7669 77.4573C73.8634 77.41 73.9683 77.3823 74.0756 77.376C74.1829 77.3697 74.2904 77.3848 74.3917 77.4204C75.1714 77.6786 75.971 77.9516 76.7694 78.2315C76.9496 78.2947 77.1015 78.4197 77.1984 78.5842C77.2952 78.7487 77.3308 78.9422 77.2987 79.1304C77.2666 79.3186 77.169 79.4894 77.0231 79.6125C76.8772 79.7357 76.6925 79.8032 76.5016 79.8033V79.801ZM71.761 78.2337C71.6801 78.2336 71.5996 78.2213 71.5223 78.1972C70.7153 77.9487 69.9157 77.7117 69.1458 77.4941C68.9394 77.4358 68.7647 77.2979 68.6601 77.1108C68.5555 76.9237 68.5294 76.7026 68.5877 76.4963C68.6461 76.29 68.7839 76.1153 68.9711 76.0107C69.1582 75.906 69.3792 75.88 69.5855 75.9383C70.3674 76.1593 71.1796 76.3998 71.9992 76.6522C72.1842 76.7093 72.3425 76.8309 72.4455 76.9948C72.5484 77.1587 72.5892 77.354 72.5604 77.5454C72.5316 77.7368 72.4351 77.9116 72.2884 78.0378C72.1417 78.1641 71.9546 78.2337 71.761 78.2337ZM66.9548 76.8756C66.886 76.8755 66.8175 76.8667 66.7509 76.8493C65.9656 76.6454 65.1517 76.4398 64.3384 76.2382C64.2353 76.2127 64.1383 76.1672 64.0528 76.1042C63.9674 76.0413 63.8952 75.9621 63.8403 75.8712C63.7295 75.6877 63.6961 75.4676 63.7476 75.2595C63.799 75.0514 63.931 74.8722 64.1145 74.7614C64.298 74.6506 64.5181 74.6172 64.7262 74.6686C65.5481 74.8714 66.366 75.0787 67.157 75.2843C67.3471 75.334 67.5126 75.4511 67.6226 75.6139C67.7326 75.7767 67.7796 75.9739 67.7549 76.1688C67.7301 76.3636 67.6353 76.5428 67.488 76.6729C67.3408 76.803 67.1513 76.875 66.9548 76.8756ZM62.1046 75.6761C62.0419 75.6762 61.9795 75.6689 61.9184 75.6544C61.1343 75.4694 60.3192 75.2809 59.4916 75.0947C59.3866 75.0728 59.2869 75.0302 59.1985 74.9694C59.11 74.9086 59.0346 74.8307 58.9765 74.7405C58.9185 74.6502 58.879 74.5492 58.8603 74.4435C58.8417 74.3378 58.8442 74.2295 58.8679 74.1248C58.8916 74.0201 58.9358 73.9212 58.9981 73.8337C59.0604 73.7463 59.1394 73.6722 59.2307 73.6156C59.3219 73.5591 59.4235 73.5212 59.5295 73.5043C59.6355 73.4875 59.7437 73.4918 59.848 73.5172C60.6791 73.7051 61.5004 73.8947 62.2897 74.0804C62.4826 74.126 62.652 74.2408 62.7658 74.4031C62.8795 74.5653 62.9298 74.7637 62.907 74.9606C62.8841 75.1574 62.7898 75.3391 62.6419 75.471C62.494 75.6029 62.3028 75.6759 62.1046 75.6761ZM57.2316 74.5744C57.174 74.5744 57.1166 74.5683 57.0603 74.5561C56.2824 74.3848 55.4611 74.2134 54.622 74.0352C54.5182 74.0134 54.4196 73.9713 54.332 73.9113C54.2444 73.8514 54.1694 73.7747 54.1115 73.6858C54.0535 73.5969 54.0135 73.4974 53.994 73.3931C53.9744 73.2888 53.9756 73.1816 53.9975 73.0777C54.0194 72.9738 54.0615 72.8753 54.1214 72.7877C54.1814 72.7001 54.258 72.6251 54.3469 72.5671C54.4358 72.5091 54.5353 72.4692 54.6396 72.4497C54.744 72.4301 54.8511 72.4313 54.955 72.4532C55.7986 72.6302 56.6222 72.8061 57.4035 72.9758C57.5987 73.018 57.7713 73.1308 57.8882 73.2927C58.0051 73.4545 58.058 73.6539 58.0367 73.8524C58.0154 74.0509 57.9215 74.2345 57.773 74.3679C57.6244 74.5013 57.4318 74.5751 57.2322 74.575L57.2316 74.5744ZM52.342 73.5463C52.2873 73.5465 52.2328 73.5409 52.1792 73.5298C51.423 73.375 50.6229 73.2134 49.733 73.0346C49.5228 72.9923 49.3381 72.8683 49.2193 72.6898C49.1006 72.5113 49.0576 72.293 49.0999 72.0828C49.1422 71.8726 49.2662 71.6878 49.4447 71.5691C49.6232 71.4504 49.8415 71.4074 50.0517 71.4497C50.9433 71.6284 51.7452 71.7923 52.5031 71.946C52.6984 71.9868 52.8717 72.0985 52.9896 72.2595C53.1075 72.4205 53.1617 72.6195 53.1417 72.818C53.1217 73.0166 53.029 73.2007 52.8813 73.335C52.7337 73.4692 52.5416 73.5441 52.342 73.5452V73.5463ZM47.4433 72.5611C47.39 72.5611 47.3368 72.5558 47.2845 72.5451L46.9418 72.4771L44.8337 72.0562C44.7274 72.0376 44.6259 71.998 44.5352 71.9396C44.4445 71.8812 44.3664 71.8053 44.3054 71.7163C44.2445 71.6272 44.202 71.5269 44.1804 71.4212C44.1589 71.3155 44.1587 71.2065 44.1799 71.1007C44.2011 70.9949 44.2432 70.8944 44.3038 70.8052C44.3644 70.7159 44.4423 70.6397 44.5328 70.581C44.6233 70.5223 44.7247 70.4823 44.8309 70.4633C44.9371 70.4444 45.046 70.4469 45.1513 70.4707C45.8366 70.6089 46.5388 70.7491 47.2577 70.8911L47.6003 70.9596C47.7944 71.0014 47.9663 71.1132 48.0833 71.2735C48.2002 71.4339 48.2542 71.6317 48.2348 71.8292C48.2154 72.0268 48.124 72.2103 47.978 72.3448C47.8321 72.4794 47.6418 72.5555 47.4433 72.5588V72.5611ZM42.544 71.577C42.4891 71.5768 42.4344 71.5713 42.3806 71.5605C41.4668 71.3737 40.6672 71.2052 39.9247 71.0464C39.7151 71.001 39.5322 70.8742 39.4161 70.6938C39.3001 70.5135 39.2604 70.2945 39.3059 70.0849C39.3513 69.8753 39.4781 69.6924 39.6585 69.5763C39.8388 69.4603 40.0578 69.4206 40.2674 69.4661C41.0013 69.6237 41.7986 69.7905 42.705 69.9761C42.8994 70.0181 43.0714 70.1301 43.1884 70.2909C43.3053 70.4517 43.3589 70.6499 43.339 70.8477C43.3191 71.0455 43.227 71.229 43.0804 71.3632C42.9337 71.4974 42.7428 71.5729 42.544 71.5753V71.577ZM37.6595 70.521C37.5974 70.5208 37.5355 70.5135 37.475 70.4993C36.5658 70.2874 35.7616 70.0886 35.0254 69.8916C34.9228 69.8642 34.8266 69.817 34.7423 69.7524C34.658 69.6879 34.5873 69.6075 34.5341 69.5156C34.4809 69.4237 34.4463 69.3223 34.4323 69.2171C34.4183 69.1119 34.4252 69.0049 34.4525 68.9023C34.4799 68.7998 34.5271 68.7036 34.5916 68.6193C34.6562 68.535 34.7366 68.4642 34.8285 68.411C34.9204 68.3578 35.0218 68.3233 35.127 68.3093C35.2322 68.2953 35.3392 68.3021 35.4418 68.3295C36.1643 68.522 36.9496 68.7167 37.8406 68.9246C38.0368 68.9669 38.2102 69.0807 38.3272 69.2438C38.4442 69.4069 38.4963 69.6076 38.4736 69.807C38.4508 70.0064 38.3547 70.1902 38.2039 70.3227C38.0531 70.4552 37.8585 70.5269 37.6578 70.5238L37.6595 70.521ZM32.8345 69.209C32.7474 69.209 32.661 69.1947 32.5786 69.1668C31.5968 68.8395 30.8029 68.5168 30.1524 68.1815C30.058 68.1328 29.9742 68.0659 29.9057 67.9848C29.8371 67.9036 29.7853 67.8098 29.753 67.7086C29.7208 67.6074 29.7088 67.5009 29.7177 67.395C29.7267 67.2892 29.7563 67.1862 29.8051 67.0918C29.8539 66.9974 29.9207 66.9136 30.0019 66.8451C30.083 66.7766 30.1769 66.7247 30.2781 66.6925C30.3792 66.6602 30.4858 66.6482 30.5916 66.6572C30.6975 66.6661 30.8005 66.6958 30.8948 66.7445C31.4631 67.037 32.2028 67.3363 33.0926 67.6332C33.2747 67.6941 33.4292 67.8177 33.5284 67.982C33.6277 68.1462 33.6654 68.3405 33.6346 68.5299C33.6038 68.7194 33.5067 68.8917 33.3605 69.0161C33.2143 69.1406 33.0287 69.2089 32.8367 69.209H32.8345ZM28.7165 66.6509C28.5505 66.6508 28.3885 66.5997 28.2525 66.5045C28.1165 66.4093 28.0131 66.2745 27.9563 66.1186C27.8803 65.9105 27.8366 65.6921 27.8266 65.4709C27.8266 65.4069 27.8221 65.3424 27.8221 65.279C27.8179 64.4672 28.0697 63.6748 28.5417 63.0144C28.6028 62.9276 28.6805 62.8537 28.7702 62.7969C28.8598 62.7401 28.9598 62.7016 29.0644 62.6834C29.169 62.6653 29.2761 62.6679 29.3797 62.6912C29.4833 62.7145 29.5812 62.7579 29.668 62.819C29.7548 62.8802 29.8287 62.9578 29.8855 63.0475C29.9423 63.1372 29.9808 63.2372 29.999 63.3417C30.0171 63.4463 30.0145 63.5535 29.9912 63.657C29.9679 63.7606 29.9245 63.8586 29.8634 63.9453C29.5834 64.3333 29.4347 64.8006 29.439 65.279C29.439 65.319 29.439 65.3589 29.4418 65.3989C29.4445 65.456 29.4561 65.5122 29.4761 65.5657C29.5204 65.6878 29.5346 65.8188 29.5176 65.9476C29.5006 66.0764 29.4528 66.1992 29.3783 66.3057C29.3038 66.4121 29.2048 66.499 29.0896 66.5591C28.9744 66.6192 28.8464 66.6507 28.7165 66.6509ZM31.1153 62.7214C30.935 62.7214 30.7599 62.6611 30.6177 62.5501C30.4756 62.4392 30.3746 62.2839 30.3308 62.109C30.2871 61.9341 30.303 61.7495 30.3761 61.5847C30.4492 61.4199 30.5753 61.2842 30.7344 61.1993C31.091 61.0108 31.4573 60.8409 31.8315 60.6904C32.0301 60.6096 32.2526 60.6111 32.4502 60.6944C32.6477 60.7778 32.804 60.9361 32.8847 61.1347C32.9655 61.3333 32.964 61.5558 32.8807 61.7534C32.7973 61.9509 32.639 62.1072 32.4404 62.1879C32.1177 62.3176 31.802 62.464 31.4946 62.6266C31.378 62.6886 31.2479 62.7211 31.1159 62.7214H31.1153Z" fill="white"/>
<g style="mix-blend-mode:multiply">
<path d="M2.73169 33.3755L12.8336 45.4627L15.1296 43.651L15.137 43.6453L15.707 41.3184L18.4125 41.0614H18.4131L18.4148 41.062L21.4368 38.6757L2.73169 33.3755Z" fill="#E8E8E8"/>
</g>
<path d="M0.897949 29.8725L2.65651 30.2558L19.7829 34.1836L24.2413 31.2707C24.5218 31.0868 24.3824 30.6699 24.0403 30.6727L1.75924 29.7852L1.06358 29.7903C1.00347 29.8065 0.947178 29.8344 0.897949 29.8725Z" fill="#7657E1"/>
<path d="M19.7835 34.1855L18.8776 40.4179C18.8714 40.4596 18.8559 40.4993 18.8323 40.5342C18.8086 40.5691 18.7775 40.5982 18.7411 40.6195L18.716 40.6326C18.6583 40.6617 18.5929 40.6715 18.5292 40.6606C18.5245 40.6615 18.5197 40.6615 18.515 40.6606C18.4835 40.6549 18.4533 40.6441 18.4253 40.6287L14.6826 38.5954L5.89146 33.0449L2.65305 31.0002L1.08639 30.1492L0.817383 30.0024C0.818791 29.9922 0.821676 29.9822 0.82595 29.9727C0.83262 29.9543 0.842058 29.937 0.853937 29.9213C0.866625 29.904 0.881395 29.8883 0.897915 29.8745L2.65591 30.2577L19.7835 34.1855Z" fill="#7657E1"/>
<path d="M18.7479 34.8926L4.33838 30.998C4.33055 30.9961 4.32231 30.9971 4.31516 31.0008C4.308 31.0045 4.3024 31.0106 4.29937 31.0181C4.29633 31.0255 4.29606 31.0338 4.29861 31.0414C4.30115 31.0491 4.30635 31.0555 4.31325 31.0597L18.4914 39.7537L18.7479 34.8926Z" fill="white"/>
<path d="M18.7415 40.6192L18.7164 40.6324C18.6587 40.6614 18.5933 40.6712 18.5296 40.6604L5.89183 33.0447L1.08676 30.149L1.05135 30.1267C1.03553 30.1176 1.02371 30.1029 1.01824 30.0855C1.01276 30.0681 1.01404 30.0493 1.02182 30.0328C1.0296 30.0163 1.04331 30.0034 1.06021 29.9965C1.07711 29.9897 1.09597 29.9894 1.11303 29.9959L17.3479 35.9153C17.3599 35.9186 17.3709 35.9249 17.3797 35.9337C17.3885 35.9426 17.3949 35.9535 17.3982 35.9655L18.7415 40.6192Z" fill="#7657E1"/>
<path d="M0.87744 30.2435L1.1356 30.5011L10.8337 41.3912C10.9674 41.5231 11.1472 41.5975 11.335 41.5987C11.5228 41.5999 11.7036 41.5277 11.8389 41.3975L14.6821 38.5937L14.6912 38.5851L17.3756 35.9384L17.3876 35.9276L17.3305 35.9099L14.1195 34.9481L3.02039 30.6724L1.45258 30.1013L0.851737 29.9214C0.839984 29.9373 0.830561 29.9548 0.823752 29.9734C0.819671 29.9829 0.816608 29.9929 0.814613 30.0031C0.808736 30.0453 0.81126 30.0883 0.822042 30.1296C0.832823 30.1708 0.85165 30.2095 0.87744 30.2435Z" fill="#7657E1"/>
</svg>
