<svg width="32" height="32" viewBox="0 0 32 32" fill="none" xmlns="http://www.w3.org/2000/svg">
<rect width="32" height="32" rx="8" fill="white"/>
<g clip-path="url(#clip0_435_5412)">
<path d="M7.00002 24.0481C7.10118 23.7799 7.29279 23.5595 7.5388 23.4284C10.0587 21.8081 12.5772 20.1849 15.0943 18.5588C15.1777 18.4821 15.2756 18.4246 15.3816 18.3899C15.4877 18.3553 15.5996 18.3444 15.71 18.3577C15.8203 18.3711 15.9268 18.4085 16.0224 18.4675C16.1181 18.5266 16.2008 18.6059 16.2651 18.7004C16.9991 19.4707 17.7373 20.2366 18.4754 21.0069C18.5164 21.0515 18.5547 21.0989 18.59 21.1486L21.6614 17.9478L21.5596 17.8284C21.2796 17.5406 20.9996 17.2528 20.7111 16.943C20.5987 16.8374 20.5216 16.6972 20.4911 16.5426C20.4605 16.3881 20.4782 16.2274 20.5414 16.084C20.5955 15.9337 20.6942 15.8053 20.8232 15.7177C20.9522 15.63 21.1047 15.5879 21.2583 15.5971H24.2279C24.3295 15.5941 24.4307 15.6127 24.5252 15.6518C24.6197 15.691 24.7055 15.75 24.7774 15.825C24.8493 15.9 24.9057 15.9896 24.9433 16.0882C24.9808 16.1868 24.9987 16.2923 24.9958 16.3983V19.4972C25.0054 19.6577 24.9651 19.8171 24.8811 19.9519C24.797 20.0867 24.6737 20.1896 24.5292 20.2455C24.3918 20.3114 24.2378 20.3298 24.0898 20.298C23.9417 20.2661 23.8072 20.1856 23.7061 20.0683C23.388 19.7451 23.0783 19.4132 22.7092 19.0236C22.6764 19.0955 22.6365 19.1638 22.5904 19.2272L19.2475 22.72C19.1772 22.8287 19.0824 22.9177 18.9715 22.9792C18.8605 23.0407 18.7368 23.0729 18.6111 23.0729C18.4855 23.0729 18.3618 23.0407 18.2509 22.9792C18.1399 22.9177 18.0451 22.8287 17.9748 22.72L15.6246 20.2719L15.4888 20.1392L13.8598 21.1928L8.27695 24.7964C8.15392 24.8761 8.0224 24.9425 7.89513 25.0133H7.57696C7.4361 24.9689 7.30805 24.8885 7.20436 24.7795C7.10068 24.6705 7.02461 24.5363 6.98303 24.389L7.00002 24.0481Z" fill="#86A3FF"/>
<path d="M17.8814 19.0059L16.8336 17.908C16.6695 17.7306 16.4712 17.5916 16.2518 17.5C16.0325 17.4084 15.797 17.3665 15.5609 17.3768C15.2426 17.3909 14.9343 17.4966 14.67 17.6822L11.7004 19.6434C11.661 19.6713 11.6144 19.6863 11.5668 19.6863C11.5191 19.6863 11.4726 19.6713 11.4332 19.6434C10.4539 19.1848 9.6069 18.4667 8.97646 17.5602C8.34602 16.6538 7.95415 15.5908 7.83992 14.4771C7.65312 13.0448 7.92329 11.5881 8.60873 10.3319C9.29418 9.07579 10.3568 8.09009 11.6325 7.52683C13.0519 6.88679 14.646 6.8079 16.117 7.30494C17.588 7.80199 18.8353 8.84092 19.6257 10.2276C20.4162 11.6144 20.6958 13.254 20.4122 14.8402C20.1287 16.4263 19.3014 17.8504 18.085 18.8465C18.0044 18.9129 17.9493 18.9528 17.8814 19.0059ZM13.5628 10.9356L13.4058 10.9842C13.056 11.0868 12.7506 11.3117 12.5406 11.6211C12.3305 11.9305 12.2286 12.3058 12.2519 12.6842C12.2725 13.0754 12.4268 13.4459 12.6867 13.7286C12.9467 14.0112 13.2951 14.1872 13.6688 14.2248C13.9106 14.2513 14.1609 14.2248 14.407 14.2469C14.4868 14.2426 14.5663 14.2618 14.6361 14.3026C14.7059 14.3433 14.7632 14.4039 14.8015 14.4771C14.8458 14.5497 14.8705 14.6334 14.873 14.7193C14.8755 14.8053 14.8557 14.8904 14.8158 14.9656C14.7758 15.0409 14.7172 15.1034 14.646 15.1468C14.5748 15.1901 14.4936 15.2127 14.4112 15.212C13.9021 15.212 13.3931 15.212 12.8798 15.212C12.7923 15.2047 12.7045 15.2177 12.6224 15.2498C12.5403 15.2819 12.4659 15.3324 12.4046 15.3979C12.3283 15.4755 12.2761 15.5753 12.255 15.6843C12.2338 15.7932 12.2445 15.9063 12.2858 16.0088C12.3191 16.1149 12.3831 16.2076 12.4689 16.2742C12.5548 16.3408 12.6583 16.378 12.7652 16.3807C13.024 16.3807 13.287 16.3807 13.5628 16.3807C13.5628 16.5977 13.5628 16.7791 13.5628 16.9606C13.5588 17.1156 13.6141 17.2658 13.7163 17.3783C13.8185 17.4908 13.9594 17.5563 14.1079 17.5604C14.2564 17.5645 14.4004 17.5069 14.5082 17.4003C14.616 17.2936 14.6788 17.1466 14.6827 16.9916C14.6955 16.8577 14.6955 16.7228 14.6827 16.5888C14.6753 16.5563 14.6746 16.5225 14.6807 16.4898C14.6868 16.457 14.6995 16.426 14.7179 16.3988C14.7364 16.3716 14.7602 16.3488 14.7878 16.3319C14.8154 16.315 14.8461 16.3045 14.8779 16.301C15.2132 16.1954 15.5053 15.9765 15.7083 15.6787C15.9112 15.3808 16.0134 15.0209 15.9989 14.6558C15.9843 14.2906 15.8538 13.9409 15.6278 13.6617C15.4018 13.3825 15.0932 13.1897 14.7506 13.1136C14.4694 13.0753 14.1857 13.0591 13.9022 13.065C13.8369 13.0714 13.771 13.0636 13.7087 13.0419C13.6465 13.0203 13.5892 12.9853 13.5407 12.9393C13.4922 12.8932 13.4534 12.8372 13.4269 12.7745C13.4003 12.7119 13.3866 12.6441 13.3866 12.5757C13.3866 12.5072 13.4003 12.4395 13.4269 12.3769C13.4534 12.3143 13.4922 12.2583 13.5407 12.2122C13.5892 12.1661 13.6465 12.1312 13.7087 12.1095C13.771 12.0879 13.8369 12.08 13.9022 12.0865H15.3785C15.4574 12.0932 15.5367 12.0829 15.6116 12.0562C15.6865 12.0296 15.7553 11.9871 15.8138 11.9314C15.8723 11.8758 15.9192 11.8081 15.9516 11.7328C15.984 11.6574 16.0012 11.576 16.0021 11.4934C16.0006 11.4119 15.9832 11.3316 15.9507 11.2575C15.9182 11.1834 15.8715 11.1171 15.8134 11.0627C15.7553 11.0083 15.687 10.967 15.6129 10.9413C15.5389 10.9156 15.4605 10.9061 15.3827 10.9134C15.1579 10.9134 14.9288 10.9134 14.6912 10.9134C14.6912 10.7009 14.6912 10.5105 14.6912 10.3246C14.6912 10.1696 14.6322 10.021 14.5272 9.9114C14.4222 9.80181 14.2798 9.74031 14.1313 9.74031C13.9827 9.74031 13.8403 9.80181 13.7353 9.9114C13.6302 10.021 13.5712 10.1696 13.5712 10.3246C13.5585 10.5371 13.5628 10.7319 13.5628 10.9356Z" fill="#86A3FF"/>
</g>
<defs>
<clipPath id="clip0_435_5412">
<rect width="18" height="18" fill="white" transform="translate(7 7)"/>
</clipPath>
</defs>
</svg>
