<svg width="24" height="24" viewBox="0 0 24 24" fill="none" xmlns="http://www.w3.org/2000/svg">
<path d="M2 22H22M17 2H7C4 2 3 3.79 3 6V22H21V6C21 3.79 20 2 17 2Z" stroke="#616161" stroke-width="1.5" stroke-miterlimit="10" stroke-linecap="round" stroke-linejoin="round"/>
<path d="M12.0002 6V11M9.50023 8.5H14.5002M14.0602 15H9.93023C9.42023 15 8.99023 15.42 8.99023 15.94V22H14.9902V15.94C14.9924 15.8168 14.9698 15.6944 14.924 15.5801C14.8781 15.4657 14.8099 15.3617 14.7232 15.2741C14.6366 15.1865 14.5333 15.1172 14.4194 15.0701C14.3056 15.023 14.1834 14.9992 14.0602 15Z" stroke="#616161" stroke-width="1.5" stroke-miterlimit="10" stroke-linecap="round" stroke-linejoin="round"/>
</svg>
