<svg width="42" height="42" viewBox="0 0 42 42" fill="none" xmlns="http://www.w3.org/2000/svg">
<circle cx="21" cy="21" r="20.75" fill="white" stroke="#A7A7A7" stroke-width="0.5"/>
<g clip-path="url(#clip0_435_4220)">
<path d="M26.0164 11.2C26.4552 11.2754 26.8894 11.376 27.3167 11.5012C28.1181 11.7807 28.8383 12.2534 29.4134 12.8774C29.9886 13.5014 30.401 14.2576 30.6142 15.0789C30.8274 15.9002 30.8349 16.7615 30.6359 17.5864C30.4369 18.4113 30.0376 19.1744 29.4733 19.8083C29.172 20.1518 28.8548 20.4847 28.5483 20.8282C28.5236 20.8635 28.4867 20.8885 28.4448 20.8982C28.4028 20.908 28.3587 20.9019 28.321 20.8811C27.3706 20.4938 26.332 20.375 25.3186 20.5376C24.4258 20.6912 23.5818 21.0533 22.8554 21.5944L22.5806 21.8005L17.7334 16.96L18.5263 16.1779L21.8987 12.8064C22.6349 12.0447 23.5867 11.5266 24.6262 11.3215C24.8218 11.2792 25.0226 11.2528 25.2235 11.2158L26.0164 11.2Z" fill="#EB7272"/>
<path d="M11.2 25.4045C11.2422 25.1033 11.274 24.7968 11.3374 24.5009C11.5414 23.5329 12.0269 22.6469 12.7329 21.9538C14.0913 20.5799 15.4604 19.2165 16.8294 17.8478L16.877 17.8108L21.7083 22.6408C21.518 22.9367 21.3013 23.2379 21.1321 23.5656C20.742 24.2746 20.5136 25.0611 20.4633 25.8687C20.4131 26.6764 20.5422 27.4851 20.8414 28.237C20.8771 28.3018 20.8876 28.3775 20.8711 28.4497C20.8545 28.5218 20.8119 28.5853 20.7515 28.628C20.3112 29.0704 19.8471 29.4885 19.3613 29.8805C18.8372 30.2595 18.2431 30.5308 17.6135 30.6786C16.9838 30.8265 16.331 30.848 15.6929 30.7418C14.5234 30.5839 13.4431 30.0308 12.6316 29.1743C11.82 28.3178 11.326 27.2094 11.2316 26.0334C11.2316 25.9647 11.2317 25.896 11.2 25.8273V25.4045Z" fill="#EB7272"/>
<path d="M25.6145 30.7206C24.5138 30.5846 23.5009 30.0509 22.7664 29.2202C22.0319 28.3895 21.6265 27.3191 21.6265 26.2104C21.6265 25.1016 22.0319 24.0311 22.7664 23.2005C23.5009 22.3698 24.5138 21.8361 25.6145 21.7001V30.7206Z" fill="#47A649"/>
<path d="M26.7881 30.7259V21.7001C27.8931 21.8313 28.9116 22.3631 29.6507 23.1949C30.3897 24.0266 30.7979 25.1005 30.7979 26.213C30.7979 27.3255 30.3897 28.3994 29.6507 29.2311C28.9116 30.0629 27.8931 30.5947 26.7881 30.7259Z" fill="#47A649"/>
</g>
<defs>
<clipPath id="clip0_435_4220">
<rect width="19.6" height="19.6" fill="white" transform="translate(11.2 11.2)"/>
</clipPath>
</defs>
</svg>
