<svg width="22" height="23" viewBox="0 0 22 23" fill="none" xmlns="http://www.w3.org/2000/svg">
<path d="M15.4102 3.49999C17.3502 3.49999 18.9102 5.06999 18.9102 6.99999C18.9102 8.88999 17.4102 10.43 15.5402 10.5C15.4538 10.49 15.3666 10.49 15.2802 10.5M17.3402 19.5C18.0602 19.35 18.7402 19.06 19.3002 18.63C20.8602 17.46 20.8602 15.53 19.3002 14.36C18.7502 13.94 18.0802 13.66 17.3702 13.5M8.16021 10.37C8.06021 10.36 7.94021 10.36 7.83021 10.37C6.68242 10.331 5.59486 9.84683 4.79784 9.01995C4.00083 8.19307 3.55696 7.08844 3.56021 5.93999C3.56021 3.48999 5.54022 1.49999 8.00022 1.49999C9.17645 1.47877 10.3129 1.92568 11.1597 2.7424C12.0064 3.55912 12.494 4.67875 12.5152 5.85499C12.5364 7.03123 12.0895 8.16771 11.2728 9.01444C10.4561 9.86117 9.33645 10.3488 8.16021 10.37ZM3.16021 14.06C0.740215 15.68 0.740215 18.32 3.16021 19.93C5.91021 21.77 10.4202 21.77 13.1702 19.93C15.5902 18.31 15.5902 15.67 13.1702 14.06C10.4302 12.23 5.92021 12.23 3.16021 14.06Z" stroke="#616161" stroke-width="1.5" stroke-linecap="round" stroke-linejoin="round"/>
</svg>
