<svg width="22" height="23" viewBox="0 0 22 23" fill="none" xmlns="http://www.w3.org/2000/svg">
<path id="Vector" d="M21.5019 10.6134L1.35922 0.528467C1.20135 0.449407 1.02402 0.41773 0.848584 0.437249C0.673149 0.456768 0.507089 0.526651 0.370398 0.638484C0.239859 0.748036 0.142426 0.891878 0.0890505 1.05384C0.0356753 1.2158 0.0284747 1.38946 0.0682584 1.5553L2.49453 10.5125H12.8497V12.3462H2.49453L0.0316354 21.2759C-0.0056959 21.4144 -0.0100536 21.5597 0.0189128 21.7002C0.0478791 21.8407 0.109361 21.9724 0.198416 22.0848C0.28747 22.1971 0.401611 22.287 0.531662 22.3471C0.661713 22.4073 0.804044 22.4361 0.947211 22.4311C1.09054 22.4302 1.23166 22.3957 1.35922 22.3302L21.5019 12.2453C21.6519 12.1684 21.7777 12.0515 21.8656 11.9075C21.9535 11.7636 22 11.5981 22 11.4294C22 11.2606 21.9535 11.0952 21.8656 10.9512C21.7777 10.8072 21.6519 10.6903 21.5019 10.6134Z" fill="#0057B8"/>
</svg>
