<svg width="27" height="27" viewBox="0 0 27 27" fill="none" xmlns="http://www.w3.org/2000/svg">
<path d="M18.3333 9.68002C18.3333 8.27968 17.7925 6.93669 16.8298 5.9465C15.8671 4.95631 14.5614 4.40002 13.2 4.40002C11.8386 4.40002 10.5329 4.95631 9.57018 5.9465C8.6075 6.93669 8.06667 8.27968 8.06667 9.68002C8.06667 15.84 5.5 17.6 5.5 17.6H20.9C20.9 17.6 18.3333 15.84 18.3333 9.68002Z" stroke="#3A3D4C" stroke-linecap="round" stroke-linejoin="round"/>
<path d="M14.3 20.9C14.1882 21.2346 14.0278 21.5123 13.8347 21.7054C13.6417 21.8984 13.4228 22 13.2 22C12.9772 22 12.7583 21.8984 12.5653 21.7054C12.3722 21.5123 12.2118 21.2346 12.1 20.9" stroke="#3A3D4C" stroke-linecap="round" stroke-linejoin="round"/>
</svg>
