<svg width="8" height="11" viewBox="0 0 8 11" fill="none" xmlns="http://www.w3.org/2000/svg">
<path d="M1.66413 3.37907C2.15676 3.37907 2.55611 2.97972 2.55611 2.4871V2.37609C2.55611 1.26822 3.35481 0.370117 4.34006 0.370117C5.32531 0.370117 6.12401 1.26822 6.12401 2.37609V2.4871C6.12401 2.97972 6.52336 3.37907 7.01598 3.37907C7.50861 3.37907 7.90796 3.82812 7.90796 4.38206V9.39698C7.90796 9.95092 7.50861 10.4 7.01598 10.4H1.66413C1.17151 10.4 0.772156 9.95092 0.772156 9.39698V4.38206C0.772156 3.82812 1.17151 3.37907 1.66413 3.37907ZM3.44808 2.37609V2.4871C3.44808 2.97972 3.84743 3.37907 4.34006 3.37907C4.83268 3.37907 5.23203 2.97972 5.23203 2.4871V2.37609C5.23203 1.82215 4.83268 1.3731 4.34006 1.3731C3.84743 1.3731 3.44808 1.82215 3.44808 2.37609ZM1.66413 6.88952C1.66413 8.27435 2.78676 9.39698 4.17159 9.39698H4.50852C5.89335 9.39698 7.01598 8.27435 7.01598 6.88952C7.01598 5.50469 5.89335 4.38206 4.50852 4.38206H4.17159C2.78676 4.38206 1.66413 5.50469 1.66413 6.88952Z" fill="white"/>
</svg>
