<svg width="9" height="9" viewBox="0 0 9 9" fill="none" xmlns="http://www.w3.org/2000/svg">
<path d="M4.5 0C3.60999 0 2.73996 0.26392 1.99994 0.758387C1.25991 1.25285 0.683138 1.95566 0.342544 2.77792C0.00194977 3.60019 -0.0871652 4.50499 0.0864682 5.37791C0.260102 6.25082 0.688685 7.05264 1.31802 7.68198C1.94736 8.31132 2.74918 8.7399 3.62209 8.91353C4.49501 9.08717 5.39981 8.99805 6.22208 8.65746C7.04434 8.31686 7.74715 7.74009 8.24161 7.00006C8.73608 6.26004 9 5.39001 9 4.5C8.99826 3.30706 8.52359 2.16348 7.68006 1.31994C6.83652 0.476407 5.69294 0.00174194 4.5 0ZM4.5 8.34146C3.74023 8.34146 2.99752 8.11616 2.3658 7.69406C1.73407 7.27195 1.2417 6.672 0.950952 5.97006C0.660201 5.26813 0.584127 4.49574 0.732351 3.75057C0.880575 3.0054 1.24644 2.32091 1.78368 1.78367C2.32091 1.24644 3.0054 0.880573 3.75057 0.732349C4.49574 0.584125 5.26813 0.660199 5.97007 0.95095C6.672 1.2417 7.27195 1.73407 7.69406 2.3658C8.11617 2.99752 8.34146 3.74023 8.34146 4.5C8.3403 5.51846 7.9352 6.49488 7.21504 7.21504C6.49488 7.9352 5.51846 8.3403 4.5 8.34146Z" fill="white"/>
<path d="M5.46804 1.11073C5.38508 1.08617 5.29576 1.09548 5.21965 1.13662C5.14354 1.17776 5.08683 1.24738 5.06194 1.33024L4.21023 4.31561L2.52657 5.78854C2.46118 5.84642 2.42127 5.92776 2.41552 6.0149C2.40976 6.10204 2.43863 6.18793 2.49584 6.2539C2.55372 6.3193 2.63507 6.3592 2.7222 6.36496C2.80934 6.37071 2.89523 6.34185 2.96121 6.28463L4.7173 4.74805C4.76496 4.70614 4.7993 4.6512 4.81608 4.59L5.69413 1.51683C5.70617 1.47532 5.70986 1.43184 5.70499 1.38889C5.70012 1.34595 5.68679 1.30439 5.66577 1.26663C5.64474 1.22887 5.61645 1.19565 5.58251 1.16889C5.54857 1.14213 5.50966 1.12237 5.46804 1.11073Z" fill="white"/>
</svg>
