<svg width="24" height="24" viewBox="0 0 24 24" fill="none" xmlns="http://www.w3.org/2000/svg">
<path d="M11.9984 9.19001C12.465 7.34118 14.2271 6.39716 18.0635 6.37989C18.1249 6.37965 18.1856 6.39161 18.2424 6.41506C18.2991 6.43852 18.3506 6.47301 18.394 6.51655C18.4373 6.56008 18.4717 6.61181 18.495 6.66873C18.5184 6.72566 18.5303 6.78667 18.5301 6.84824V15.2786C18.5301 15.4028 18.4809 15.522 18.3934 15.6098C18.3059 15.6976 18.1873 15.747 18.0635 15.747C14.3312 15.747 12.8893 16.5025 11.9984 17.6204C11.1129 16.508 9.66571 15.747 5.93335 15.747C5.64525 15.747 5.4668 15.5113 5.4668 15.2221V6.84824C5.46657 6.78667 5.47848 6.72566 5.50184 6.66873C5.52521 6.61181 5.55956 6.56008 5.60293 6.51655C5.6463 6.47301 5.69782 6.43852 5.75453 6.41506C5.81124 6.39161 5.87201 6.37965 5.93335 6.37989C9.76981 6.39716 11.5319 7.34118 11.9984 9.19001Z" stroke="#4F52B2" stroke-width="0.940902" stroke-linecap="round" stroke-linejoin="round"/>
<path d="M11.999 9.19043V17.6208" stroke="#4F52B2" stroke-width="0.940902" stroke-linecap="round" stroke-linejoin="round"/>
<circle cx="12" cy="12" r="11.5443" stroke="#4F52B2" stroke-width="0.911392"/>
</svg>
