<svg width="170" height="170" viewBox="0 0 170 170" fill="none" xmlns="http://www.w3.org/2000/svg">
<path d="M83.1317 148C118.97 148 148.023 119.122 148.023 83.5C148.023 47.8776 118.97 19 83.1317 19C47.2931 19 18.2402 47.8776 18.2402 83.5C18.2402 119.122 47.2931 148 83.1317 148Z" fill="url(#paint0_linear_3284_13178)"/>
<path d="M136.894 34.1821C136.894 35.6656 135.683 36.8757 134.179 36.8757C132.676 36.8757 131.465 35.6656 131.465 34.1821C131.465 32.6987 132.676 31.4885 134.179 31.4885C135.683 31.4885 136.894 32.6987 136.894 34.1821Z" stroke="url(#paint1_linear_3284_13178)" stroke-width="1.46924"/>
<path d="M40.8139 134.09C40.8139 135.574 39.6028 136.784 38.0995 136.784C36.5962 136.784 35.3851 135.574 35.3851 134.09C35.3851 132.607 36.5962 131.397 38.0995 131.397C39.6028 131.397 40.8139 132.607 40.8139 134.09Z" stroke="url(#paint2_linear_3284_13178)" stroke-width="1.46924"/>
<path d="M124.083 139.478C124.083 140.961 122.872 142.171 121.369 142.171C119.866 142.171 118.655 140.961 118.655 139.478C118.655 137.994 119.866 136.784 121.369 136.784C122.872 136.784 124.083 137.994 124.083 139.478Z" stroke="url(#paint3_linear_3284_13178)" stroke-width="1.46924"/>
<path d="M47.3043 36.9262C47.5951 35.7289 49.2979 35.7289 49.5887 36.9262L50.5765 40.9935C50.6805 41.422 51.0157 41.7561 51.4444 41.859L55.5082 42.8341C56.7098 43.1224 56.7098 44.8317 55.5082 45.12L51.4444 46.0951C51.0157 46.1979 50.6805 46.5321 50.5765 46.9606L49.5887 51.0279C49.2979 52.2252 47.5951 52.2252 47.3043 51.0279L46.3166 46.9606C46.2125 46.5321 45.8774 46.1979 45.4486 46.0951L41.3848 45.12C40.1833 44.8317 40.1833 43.1224 41.3848 42.8341L45.4486 41.859C45.8774 41.7561 46.2125 41.422 46.3166 40.9935L47.3043 36.9262Z" fill="url(#paint4_linear_3284_13178)"/>
<path d="M146.033 122.111C146.323 120.914 148.026 120.914 148.317 122.111L149.305 126.179C149.409 126.607 149.744 126.941 150.173 127.044L154.236 128.019C155.438 128.307 155.438 130.017 154.236 130.305L150.173 131.28C149.744 131.383 149.409 131.717 149.305 132.146L148.317 136.213C148.026 137.41 146.323 137.41 146.033 136.213L145.045 132.146C144.941 131.717 144.606 131.383 144.177 131.28L140.113 130.305C138.911 130.017 138.911 128.307 140.113 128.019L144.177 127.044C144.606 126.941 144.941 126.607 145.045 126.179L146.033 122.111Z" fill="url(#paint5_linear_3284_13178)"/>
<path d="M20.0732 112.692C20.8202 112.573 21.4172 113.303 21.1473 114.006L19.3168 118.77C19.0472 119.472 18.1142 119.62 17.6371 119.036L14.4014 115.078C13.9243 114.495 14.2606 113.617 15.0069 113.498L20.0732 112.692Z" fill="url(#paint6_linear_3284_13178)"/>
<path d="M147.981 64.2186C147.794 63.4902 148.47 62.834 149.198 63.0373L154.138 64.417C154.866 64.6204 155.1 65.531 154.558 66.056L150.886 69.6181C150.345 70.1431 149.435 69.8888 149.248 69.1603L147.981 64.2186Z" fill="url(#paint7_linear_3284_13178)"/>
<path d="M120.311 129.122H49.0211V52.8232C52.3812 52.8194 55.6026 51.4923 57.9786 49.1329C60.3546 46.7735 61.691 43.5745 61.6948 40.2378H107.637C107.633 41.8907 107.96 43.5279 108.598 45.0547C109.236 46.5814 110.172 47.9674 111.353 49.1325C112.526 50.3054 113.922 51.2355 115.459 51.869C116.997 52.5025 118.646 52.8268 120.311 52.8232V129.122Z" fill="url(#paint8_linear_3284_13178)"/>
<path d="M84.6659 91.3657C95.1651 91.3657 103.676 82.9137 103.676 72.4877C103.676 62.0616 95.1651 53.6096 84.6659 53.6096C74.1666 53.6096 65.6553 62.0616 65.6553 72.4877C65.6553 82.9137 74.1666 91.3657 84.6659 91.3657Z" fill="url(#paint9_linear_3284_13178)"/>
<path d="M95.7058 74.0666H86.2336L86.1673 83.5385H83.0099L83.0762 74.0666H73.604L73.6261 70.9092H83.0983L83.1645 61.4373H86.3219L86.2557 70.9092H95.7279L95.7058 74.0666Z" fill="white"/>
<path d="M94.9633 96.0854H74.3685C73.0561 96.0854 71.9922 97.1419 71.9922 98.4452C71.9922 99.7485 73.0561 100.805 74.3685 100.805H94.9633C96.2757 100.805 97.3396 99.7485 97.3396 98.4452C97.3396 97.1419 96.2757 96.0854 94.9633 96.0854Z" fill="#ECF3FF"/>
<path d="M102.092 105.524H67.2396C65.9272 105.524 64.8633 106.581 64.8633 107.884C64.8633 109.187 65.9272 110.244 67.2396 110.244H102.092C103.405 110.244 104.469 109.187 104.469 107.884C104.469 106.581 103.405 105.524 102.092 105.524Z" fill="#ECF3FF"/>
<path d="M170 85C170 131.944 131.944 170 85 170C38.0558 170 0 131.944 0 85C0 38.0558 38.0558 0 85 0C131.944 0 170 38.0558 170 85Z" fill="white" fill-opacity="0.32"/>
<defs>
<linearGradient id="paint0_linear_3284_13178" x1="82.6315" y1="-2.00278" x2="83.9448" y2="224.512" gradientUnits="userSpaceOnUse">
<stop stop-color="#CAE0FF" stop-opacity="0"/>
<stop offset="1" stop-color="#BCD8FF"/>
</linearGradient>
<linearGradient id="paint1_linear_3284_13178" x1="129.94" y1="32.0395" x2="140.662" y2="41.3885" gradientUnits="userSpaceOnUse">
<stop stop-color="#94BFFF"/>
<stop offset="1" stop-color="#4C94FE"/>
</linearGradient>
<linearGradient id="paint2_linear_3284_13178" x1="33.86" y1="131.948" x2="44.5823" y2="141.297" gradientUnits="userSpaceOnUse">
<stop stop-color="#94BFFF"/>
<stop offset="1" stop-color="#4C94FE"/>
</linearGradient>
<linearGradient id="paint3_linear_3284_13178" x1="117.13" y1="137.335" x2="127.852" y2="146.684" gradientUnits="userSpaceOnUse">
<stop stop-color="#94BFFF"/>
<stop offset="1" stop-color="#4C94FE"/>
</linearGradient>
<linearGradient id="paint4_linear_3284_13178" x1="48.4465" y1="32.2231" x2="48.4465" y2="55.7309" gradientUnits="userSpaceOnUse">
<stop stop-color="#70A8FF"/>
<stop offset="1" stop-color="#5597FD"/>
</linearGradient>
<linearGradient id="paint5_linear_3284_13178" x1="147.175" y1="117.408" x2="147.175" y2="140.916" gradientUnits="userSpaceOnUse">
<stop stop-color="#70A8FF"/>
<stop offset="1" stop-color="#5597FD"/>
</linearGradient>
<linearGradient id="paint6_linear_3284_13178" x1="21.755" y1="112.424" x2="14.1442" y2="118.647" gradientUnits="userSpaceOnUse">
<stop stop-color="#70A8FF"/>
<stop offset="1" stop-color="#5597FD"/>
</linearGradient>
<linearGradient id="paint7_linear_3284_13178" x1="147.56" y1="62.5798" x2="154.4" y2="69.6309" gradientUnits="userSpaceOnUse">
<stop stop-color="#70A8FF"/>
<stop offset="1" stop-color="#5597FD"/>
</linearGradient>
<linearGradient id="paint8_linear_3284_13178" x1="84.6659" y1="40.2378" x2="85.0117" y2="353.366" gradientUnits="userSpaceOnUse">
<stop stop-color="#F9F8FF"/>
<stop offset="1" stop-color="#6C55FD"/>
</linearGradient>
<linearGradient id="paint9_linear_3284_13178" x1="84.6659" y1="51.2499" x2="84.6659" y2="114.57" gradientUnits="userSpaceOnUse">
<stop stop-color="#4F52B2"/>
<stop offset="1" stop-color="#4F52B2" stop-opacity="0"/>
</linearGradient>
</defs>
</svg>
