<svg width="157" height="153" viewBox="0 0 157 153" fill="none" xmlns="http://www.w3.org/2000/svg">
<g opacity="0.8">
<path d="M0.571898 90.9313L1.64613 91.9828L1.39214 93.4683L2.72455 92.7673L4.05695 93.4683L3.80297 91.9828L4.8772 90.9313L3.39074 90.7143L2.72455 89.3623L2.05836 90.7143L0.571898 90.9313Z" fill="white"/>
<path d="M5.23409 18.2874H52.3635C52.3635 16.6976 51.0769 15.4082 49.4905 15.4082H8.10708C6.52069 15.4082 5.23409 16.6976 5.23409 18.2874Z" fill="#654E8A"/>
<path d="M18.5861 37.4941C18.2446 38.1826 18.0573 38.9588 18.0573 39.7766H134.401C134.401 36.9141 132.081 34.5898 129.225 34.5898H52.3873H23.2328C21.1884 34.5898 19.4271 35.7749 18.5861 37.4941Z" fill="#654E8A"/>
<path d="M62.7577 87.3675C61.0298 85.3646 58.8355 83.9584 56.0499 83.7622C54.6676 83.6663 53.3393 84.0293 52.0736 84.747C43.1465 89.8086 37.3589 112.317 37.3589 112.317V112.413H51.3116C53.2436 112.413 54.8799 113.69 55.4212 115.442L56.3955 115.167C56.358 115.029 56.3206 114.895 56.2831 114.762C60.043 111.006 64.036 107.284 68.9534 105.294L68.8867 104.756C68.8867 104.756 67.9374 93.3805 62.7577 87.3675Z" fill="#654E8A"/>
<path d="M79.7143 59.611L79.7226 59.6319C80.0599 61.084 80.0973 62.5612 79.9641 64.0425L80.0932 64.055C82.7163 63.6837 85.048 61.7057 85.8433 59.1687C86.6386 56.6358 85.86 53.6731 83.9155 51.8663C82.8745 50.8982 81.563 50.2639 80.2098 49.8383C77.8114 49.0872 75.2674 48.962 72.8024 48.478C68.3597 47.61 63.9795 45.5654 59.5076 46.2455C54.3612 47.03 50.2433 51.5325 49.0399 56.6024C47.8366 61.6765 49.2107 67.1179 51.8921 71.5869C53.0663 73.5481 54.3612 75.2047 54.8484 77.4372L61.2272 71.5452L59.0496 70.648C57.28 69.9178 56.3182 67.99 56.7928 66.1331C57.3258 64.0592 59.4452 62.8157 61.5104 63.3749L63.5339 63.9173C63.6755 65.3403 63.6131 66.7089 63.4507 68.1277C65.6367 65.8827 67.1398 62.9743 67.706 59.8906C67.706 59.8906 70.2792 60.988 74.9801 60.5874C77.0328 60.4122 78.6026 60.0074 79.7143 59.611Z" fill="white"/>
<path d="M56.3781 115.167L55.4038 115.442C55.4454 115.576 55.4829 115.709 55.5079 115.843C55.5703 116.131 55.5995 116.423 55.5995 116.728V134.228H61.4954C61.0707 132.613 58.2601 121.969 56.3781 115.167Z" fill="#654E8A"/>
<path d="M61.5115 80.9199L63.6309 84.9091L64.6926 82.3095L61.5115 80.9199Z" fill="white"/>
<path d="M64.6926 82.3105L63.6309 84.9102L63.6517 84.9478L64.6926 82.3105Z" fill="white"/>
<path d="M75.4145 67.3838C74.7817 67.3838 74.2695 67.9012 74.2695 68.5355C74.2695 69.1697 74.7817 69.6872 75.4145 69.6872C76.0474 69.6872 76.5637 69.1697 76.5637 68.5355C76.5637 67.9012 76.0474 67.3838 75.4145 67.3838Z" fill="white"/>
<path d="M98.346 72.216L95.956 71.0977L86.5335 94.5863L85.6133 96.8772L85.6174 96.8814C87.0165 96.1261 89.4231 94.8576 91.1302 94.7866C93.5744 94.6865 103.646 94.4987 103.859 95.7964C104.075 97.0942 98.6167 97.0191 97.2509 97.0942C95.8852 97.1651 91.7881 98.2459 91.7881 98.2459C91.7881 98.2459 98.4001 97.453 100.27 97.8119C102.135 98.1708 104.866 98.8217 104.721 99.4685C104.579 100.115 99.0455 99.6104 98.2544 99.8274C97.4675 100.044 92.5792 100.979 92.5792 100.979C92.5792 100.979 98.6874 100.837 100.053 101.125C101.419 101.413 104.796 102.277 104.721 102.995C104.65 103.716 98.9747 102.636 97.8255 102.853C96.6763 103.07 93.2288 103.645 93.2288 103.645C93.2288 103.645 98.0421 103.862 99.5493 104.221C101.057 104.58 102.855 105.085 102.639 105.59C102.422 106.091 93.0123 105.803 93.0123 105.803L87.2621 107.893L106.948 116.03L121.463 83.0527L98.346 72.216ZM91.3592 86.4369L96.9636 73.618L118.948 83.9165L113.702 95.8674L91.3592 86.4369Z" fill="#654E8A"/>
<path d="M87.931 24.5201L89.0094 25.5717L88.7554 27.0572L90.0836 26.3562L91.4161 27.0572L91.1621 25.5717L92.2405 24.5201L90.7499 24.3032L90.0836 22.9512L89.4175 24.3032L87.931 24.5201Z" fill="white"/>
<path d="M134.33 110.439C131.69 109.283 128.771 108.645 125.707 108.645C113.761 108.645 104.076 118.35 104.076 130.322C104.076 131.653 104.197 132.955 104.426 134.215C106.253 144.33 115.089 152 125.707 152C137.652 152 147.337 142.294 147.337 130.322C147.337 125.461 145.738 120.971 143.04 117.353C140.8 114.349 137.802 111.949 134.33 110.439ZM108.111 130.322C108.111 120.583 115.988 112.688 125.707 112.688C135.425 112.688 143.302 120.583 143.302 130.322C143.302 140.062 135.425 147.956 125.707 147.956C115.988 147.956 108.111 140.062 108.111 130.322Z" fill="#6930C3"/>
<path d="M108.411 7.5625C107.674 7.5625 107.078 8.16338 107.078 8.90197C107.078 9.64055 107.674 10.2373 108.411 10.2373C109.148 10.2373 109.743 9.64055 109.743 8.90197C109.743 8.16338 109.148 7.5625 108.411 7.5625Z" fill="white"/>
<path d="M114.804 7.5625C114.067 7.5625 113.471 8.16338 113.471 8.90197C113.471 9.64055 114.067 10.2373 114.804 10.2373C115.541 10.2373 116.136 9.64055 116.136 8.90197C116.136 8.16338 115.541 7.5625 114.804 7.5625Z" fill="white"/>
<path d="M115.987 130.41L131.356 140.992V119.823L115.987 130.41Z" fill="white"/>
<path d="M121.044 7.5625C120.307 7.5625 119.711 8.16338 119.711 8.90197C119.711 9.64055 120.307 10.2373 121.044 10.2373C121.781 10.2373 122.376 9.64055 122.376 8.90197C122.376 8.16338 121.781 7.5625 121.044 7.5625Z" fill="white"/>
<path d="M152.16 15.7828L153.238 16.8344L152.984 18.3199L154.312 17.6189L155.645 18.3199L155.391 16.8344L156.469 15.7828L154.979 15.5659L154.312 14.2139L153.65 15.5659L152.16 15.7828Z" fill="white"/>
<path d="M27.4033 136.707H11.656" stroke="white" stroke-miterlimit="10"/>
<path d="M27.4033 138.96H11.656" stroke="white" stroke-miterlimit="10"/>
<path d="M8.29275 115.843C8.23029 116.131 8.20113 116.423 8.20113 116.728V143.225C8.20113 145.612 10.129 147.544 12.5065 147.544H51.2543C53.6318 147.544 55.5596 145.612 55.5596 143.225V134.228V116.728C55.5596 116.423 55.5304 116.131 55.468 115.843C55.443 115.71 55.4055 115.576 55.3639 115.443C54.8226 113.69 53.1862 112.413 51.2543 112.413H37.3016H18.0401H12.5065C10.4287 112.413 8.69663 113.886 8.29275 115.843Z" stroke="white" stroke-miterlimit="10"/>
<path d="M8.16952 115.843H8.23615H55.4072" stroke="white" stroke-miterlimit="10"/>
<path d="M27.4033 121.139H11.656" stroke="white" stroke-miterlimit="10"/>
<path d="M27.4033 123.391H11.656" stroke="white" stroke-miterlimit="10"/>
<path d="M27.4033 125.648H11.656" stroke="white" stroke-miterlimit="10"/>
<path d="M27.4033 127.902H11.656" stroke="white" stroke-miterlimit="10"/>
<path d="M27.4033 130.156H11.656" stroke="white" stroke-miterlimit="10"/>
<path d="M27.4033 132.409H11.656" stroke="white" stroke-miterlimit="10"/>
<path d="M27.4033 134.666H11.656" stroke="white" stroke-miterlimit="10"/>
<path d="M27.4033 136.92H11.656" stroke="white" stroke-miterlimit="10"/>
<path d="M40.9656 123.054C39.4375 124.318 38.4632 126.229 38.4632 128.366C38.4632 128.549 38.4715 128.733 38.4882 128.912C38.6339 130.832 39.5666 132.526 40.9656 133.682C42.1523 134.662 43.6762 135.255 45.3376 135.255C46.0246 135.255 46.6866 135.155 47.3112 134.967C50.1467 134.116 52.2119 131.483 52.2119 128.366C52.2119 124.564 49.1349 121.48 45.3376 121.48C43.6762 121.48 42.1523 122.073 40.9656 123.054Z" stroke="white" stroke-miterlimit="10"/>
<path d="M41.0376 123.054C39.8468 122.073 38.3229 121.48 36.6615 121.48C32.8642 121.48 29.7872 124.564 29.7872 128.366C29.7872 131.12 31.3986 133.494 33.7261 134.596C34.6171 135.017 35.6123 135.255 36.6615 135.255C38.3229 135.255 39.8468 134.662 41.0376 133.682C42.3409 132.601 43.2403 131.049 43.4734 129.279C43.5151 128.983 43.5359 128.674 43.5359 128.366C43.5359 126.229 42.5616 124.318 41.0376 123.054Z" stroke="white" stroke-miterlimit="10"/>
<path d="M33.6588 134.596C33.6171 134.892 33.5963 135.196 33.5963 135.505C33.5963 139.311 36.6733 142.395 40.4706 142.395C44.2638 142.395 47.3408 139.311 47.3408 135.505C47.3408 135.326 47.3325 135.146 47.3158 134.967C47.1243 132.451 45.5796 130.31 43.4061 129.279C42.515 128.858 41.5199 128.62 40.4706 128.62C39.7836 128.62 39.1174 128.72 38.4929 128.912C35.9405 129.676 34.0127 131.887 33.6588 134.596Z" stroke="white" stroke-miterlimit="10"/>
<path d="M134.329 110.439C131.69 109.283 128.771 108.645 125.706 108.645C113.76 108.645 104.076 118.35 104.076 130.322C104.076 131.653 104.196 132.955 104.425 134.215C106.253 144.33 115.089 152 125.706 152C137.652 152 147.337 142.294 147.337 130.322C147.337 125.461 145.738 120.971 143.04 117.353C140.8 114.349 137.802 111.949 134.329 110.439Z" fill="#654E8A" stroke="white" stroke-linecap="round" stroke-linejoin="round"/>
<path d="M125.784 147.957C116.066 147.957 108.188 140.062 108.188 130.323C108.188 120.584 116.066 112.688 125.784 112.688C135.502 112.688 143.38 120.584 143.38 130.323C143.38 140.062 135.502 147.957 125.784 147.957Z" stroke="white" stroke-linecap="round" stroke-linejoin="round"/>
<path d="M115.987 130.41L131.355 140.992V119.823L115.987 130.41Z" stroke="white" stroke-linecap="round" stroke-linejoin="round"/>
<path d="M134.4 110.785V110.439V39.7766C134.4 36.9141 132.081 34.5898 129.225 34.5898H52.3871H23.2325C21.1881 34.5898 19.4269 35.7749 18.5858 37.4941C18.2444 38.1826 18.057 38.9588 18.057 39.7766V40.1522V42.8103V45.4683V48.1222V50.7803V54.8905V112.383" stroke="white" stroke-linecap="round" stroke-linejoin="round"/>
<path d="M104.416 134.229H75.6903H61.4462H55.5503H55.5045" stroke="white" stroke-linecap="round" stroke-linejoin="round"/>
<path d="M134.4 39.7764H18.057" stroke="white" stroke-linecap="round" stroke-linejoin="round"/>
<path d="M52.3633 34.5655V24.7761V18.2874C52.3633 16.6976 51.0767 15.4082 49.4903 15.4082H8.10683C6.52045 15.4082 5.23384 16.6976 5.23384 18.2874V52.012C5.23384 53.6018 6.52045 54.8912 8.10683 54.8912H18.0332H18.2206" stroke="white" stroke-linecap="round" stroke-linejoin="round"/>
<path d="M5.23384 18.2871H52.3633" stroke="white" stroke-linecap="round" stroke-linejoin="round"/>
<path d="M49.168 21.5498H8.95867" stroke="white" stroke-linecap="round" stroke-linejoin="round"/>
<path d="M49.168 24.208H8.95867" stroke="white" stroke-linecap="round" stroke-linejoin="round"/>
<path d="M49.168 26.8672H8.95867" stroke="white" stroke-linecap="round" stroke-linejoin="round"/>
<path d="M49.168 29.5244H8.95867" stroke="white" stroke-linecap="round" stroke-linejoin="round"/>
<path d="M49.168 32.1777H8.95867" stroke="white" stroke-linecap="round" stroke-linejoin="round"/>
<path d="M23.9023 34.5732H8.97533" stroke="white" stroke-linecap="round" stroke-linejoin="round"/>
<path d="M18.5752 37.4941H18.5502H8.93195" stroke="white" stroke-linecap="round" stroke-linejoin="round"/>
<path d="M18.1184 40.1523H18.1142H9.02478" stroke="white" stroke-linecap="round" stroke-linejoin="round"/>
<path d="M18.1182 42.8105H18.114H9.02453" stroke="white" stroke-linecap="round" stroke-linejoin="round"/>
<path d="M18.1184 45.4688H18.1142H9.02478" stroke="white" stroke-linecap="round" stroke-linejoin="round"/>
<path d="M18.1182 48.123H18.114H9.02453" stroke="white" stroke-linecap="round" stroke-linejoin="round"/>
<path d="M18.1182 50.7812H18.114H9.02453" stroke="white" stroke-linecap="round" stroke-linejoin="round"/>
<path d="M102.365 8.07228V4.04554C102.365 2.20116 103.86 0.703125 105.7 0.703125H123.763C125.603 0.703125 127.094 2.20116 127.094 4.04554V10.0544V13.234C127.094 15.0784 125.603 16.5723 123.763 16.5723H120.652C120.652 18.4333 120.652 21.3793 120.652 21.3793L115.86 16.5723H115.789H105.7C103.86 16.5723 102.365 15.0784 102.365 13.234V8.07228Z" stroke="white" stroke-linecap="round" stroke-linejoin="round"/>
<path d="M115.912 16.5726V22.5814C115.912 24.4258 117.403 25.9238 119.243 25.9238H122.353C122.353 27.7807 122.353 30.7267 122.353 30.7267L127.15 25.9238H137.31C139.15 25.9238 140.641 24.4258 140.641 22.5814V17.3404V13.3929C140.641 11.5485 139.15 10.0547 137.31 10.0547H127.217H127.196" stroke="white" stroke-linecap="round" stroke-linejoin="round"/>
<path d="M52.4417 24.7756C57.9503 27.3669 64.529 26.645 70.1917 24.4042C75.8503 22.1676 80.8384 18.5456 85.964 15.2575C91.0438 11.9943 96.465 8.97741 102.423 8.07191C102.477 8.06357 102.536 8.05522 102.59 8.04688" stroke="white" stroke-miterlimit="10" stroke-dasharray="2.96 2.96"/>
<path d="M140.683 17.3398C145.355 20.8784 149.339 25.4225 151.754 30.7679C154.169 36.1174 154.931 42.289 153.378 47.9431C151.425 55.0661 146.012 60.9873 144.78 68.273C142.852 79.6814 151.646 90.5349 151.046 102.089C150.747 107.894 147.928 113.523 143.468 117.241" stroke="white" stroke-miterlimit="10" stroke-dasharray="2.96 2.96"/>
<path d="M63.7793 84.9102L62.7758 87.3679L62.7134 87.5182" stroke="white" stroke-miterlimit="10"/>
<path d="M79.7497 59.6309C80.087 61.083 80.1245 62.5602 79.9912 64.0415C79.9579 64.4296 79.9163 64.8177 79.858 65.2057C79.6498 66.7121 79.3 68.2101 78.9544 69.6831C79.8205 71.515 80.7199 73.4845 81.5859 75.3164C80.1453 75.4374 78.792 75.5876 77.3514 75.6669C76.6977 77.8284 75.9482 80.0191 74.874 82.0096C74.5992 82.5145 74.3035 83.0236 73.8788 83.4075C72.7088 84.4757 70.8976 84.3463 69.357 83.9791C67.779 83.5994 66.2467 83.0402 64.8019 82.31" stroke="white" stroke-miterlimit="10"/>
<path d="M80.0929 64.055C82.7161 63.6837 85.0478 61.7057 85.8431 59.1687C86.6383 56.6358 85.8597 53.6731 83.9152 51.8663C82.8743 50.8982 81.5627 50.2639 80.2095 49.8383C77.8112 49.0872 75.2671 48.962 72.8022 48.478C68.3595 47.61 63.9792 45.5654 59.5074 46.2455C54.361 47.03 50.243 51.5325 49.0397 56.6024C47.8364 61.6765 49.2104 67.1179 51.8919 71.5869C53.0661 73.5481 54.361 75.2047 54.8481 77.4372L61.227 71.5452L59.0494 70.648C57.2798 69.9178 56.3179 67.99 56.7926 66.1331C57.3256 64.0592 59.4449 62.8157 61.5101 63.3749L63.5337 63.9173C63.6753 65.3403 63.6128 66.7089 63.4504 68.1277C65.6364 65.8827 67.1395 62.9743 67.7058 59.8906C67.7058 59.8906 70.279 60.988 74.9798 60.5874C77.0326 60.4122 78.6023 60.0074 79.714 59.611C81.1464 59.0978 81.8292 58.5928 81.8292 58.5928" stroke="white" stroke-miterlimit="10"/>
<path d="M37.2974 112.317C37.2974 112.317 43.085 89.8086 52.0121 84.747C53.2779 84.0293 54.6061 83.6663 55.9885 83.7622C58.774 83.9584 60.9683 85.3646 62.6962 87.3675C67.8759 93.3805 68.8253 104.756 68.8253 104.756L68.8919 105.294L70.6115 119.402L70.6282 119.54" stroke="white" stroke-miterlimit="10"/>
<path d="M51.5854 105.77C51.5854 105.77 53.6131 106.22 54.8539 110.059C55.1329 110.923 55.6201 112.63 56.2113 114.762C56.2488 114.895 56.2863 115.029 56.3237 115.167C58.2057 121.968 61.0163 132.613 61.441 134.228C61.4743 134.366 61.4951 134.437 61.4951 134.437" stroke="white" stroke-miterlimit="10"/>
<path d="M65.2908 127.439C65.2908 127.439 67.8473 123.667 70.5662 119.402C72.6897 116.068 74.9173 112.434 76.0998 110.059C77.8403 106.575 79.1102 103.934 79.7972 102.49C80.1928 101.655 80.655 100.854 81.1796 100.095L81.8333 99.1432C83.0658 97.353 84.6189 95.8091 86.4093 94.5865C86.5758 94.4738 86.7424 94.3653 86.9131 94.2568" stroke="white" stroke-miterlimit="10"/>
<path d="M84.5043 97.4403C84.5959 97.4403 85.0081 97.2108 85.6118 96.8811C87.0109 96.1259 89.4175 94.8573 91.1246 94.7864C93.5688 94.6863 103.641 94.4985 103.853 95.7962C104.07 97.094 98.6111 97.0188 97.2453 97.094C95.8796 97.1649 91.7825 98.2456 91.7825 98.2456C91.7825 98.2456 98.3945 97.4528 100.264 97.8117C102.129 98.1705 104.861 98.8215 104.715 99.4683C104.574 100.115 99.0399 99.6102 98.2488 99.8271C97.4619 100.044 92.5736 100.979 92.5736 100.979C92.5736 100.979 98.6818 100.837 100.048 101.125C101.413 101.413 104.79 102.277 104.715 102.994C104.644 103.716 98.9691 102.635 97.8199 102.852C96.6707 103.069 93.2232 103.645 93.2232 103.645C93.2232 103.645 98.0365 103.862 99.5437 104.221C101.051 104.58 102.85 105.085 102.633 105.59C102.417 106.091 93.0067 105.803 93.0067 105.803L87.2565 107.893L84.1046 109.041L75.7687 134.211" stroke="white" stroke-linecap="round" stroke-linejoin="round"/>
<path d="M85.613 96.8772L86.5332 94.5863L95.9558 71.0977L98.3458 72.216L121.463 83.0527L106.948 116.03L87.2619 107.893" stroke="white" stroke-linecap="round" stroke-linejoin="round"/>
<path d="M121.463 83.0526L99.8364 69.082L98.3458 72.2158L98.3291 72.2534" stroke="white" stroke-linecap="round" stroke-linejoin="round"/>
<path d="M96.8914 73.6182L118.876 83.9166L113.63 95.8675L91.287 86.437L96.8914 73.6182Z" stroke="white" stroke-linecap="round" stroke-linejoin="round"/>
<path d="M54.7988 77.4365L51.9592 84.718" stroke="white" stroke-miterlimit="10"/>
<path d="M63.6306 84.9101L61.5113 80.9209L64.6924 82.3104L63.6514 84.9476L63.6306 84.9101Z" stroke="white" stroke-miterlimit="10"/>
<path d="M75.9551 79.4607C75.2597 79.0184 74.7101 78.3674 74.3104 77.6455C73.9148 76.9195 73.6608 76.1266 73.4735 75.3213" stroke="white" stroke-miterlimit="10"/>
<path d="M79.9121 65.2473C79.8871 65.2306 79.8621 65.2181 79.8372 65.2055C78.7421 64.5629 77.4305 64.3084 76.1731 64.4836C74.8906 64.6631 73.6748 65.2932 72.7879 66.2404" stroke="white" stroke-miterlimit="10"/>
<path d="M68.9531 105.281C68.9448 105.285 68.9365 105.29 68.9281 105.294C64.0108 107.284 60.0177 111.006 56.2579 114.762C56.2454 114.774 56.237 114.783 56.2246 114.795" stroke="white" stroke-miterlimit="10"/>
<path d="M119.711 8.90197C119.711 9.64055 120.306 10.2373 121.043 10.2373C121.78 10.2373 122.376 9.64055 122.376 8.90197C122.376 8.16338 121.78 7.5625 121.043 7.5625C120.306 7.5625 119.711 8.16338 119.711 8.90197Z" stroke="white" stroke-miterlimit="10"/>
<path d="M113.471 8.90197C113.471 9.64055 114.066 10.2373 114.803 10.2373C115.54 10.2373 116.136 9.64055 116.136 8.90197C116.136 8.16338 115.54 7.5625 114.803 7.5625C114.066 7.5625 113.471 8.16338 113.471 8.90197Z" stroke="white" stroke-miterlimit="10"/>
<path d="M107.078 8.90197C107.078 9.64055 107.674 10.2373 108.411 10.2373C109.148 10.2373 109.743 9.64055 109.743 8.90197C109.743 8.16338 109.148 7.5625 108.411 7.5625C107.674 7.5625 107.078 8.16338 107.078 8.90197Z" stroke="white" stroke-miterlimit="10"/>
<path d="M151.142 66.4746V70.7976V75.1165" stroke="white" stroke-miterlimit="10"/>
<path d="M155.403 70.7969H151.094H146.78" stroke="white" stroke-miterlimit="10"/>
<path d="M148.091 67.7383L151.139 70.7969L154.187 73.8514" stroke="white" stroke-miterlimit="10"/>
<path d="M154.187 67.7383L151.139 70.7969L148.091 73.8514" stroke="white" stroke-miterlimit="10"/>
<path d="M69.2578 11.6562V15.9751V20.2981" stroke="white" stroke-miterlimit="10"/>
<path d="M73.5195 15.9756H69.2059H64.8964" stroke="white" stroke-miterlimit="10"/>
<path d="M66.2019 12.9209L69.2497 15.9754L72.3018 19.0299" stroke="white" stroke-miterlimit="10"/>
<path d="M72.3018 12.9209L69.2497 15.9754L66.2019 19.0299" stroke="white" stroke-miterlimit="10"/>
<path d="M144.642 40.8162C143.826 40.8162 143.164 40.153 143.164 39.3349C143.164 38.5167 143.826 37.8535 144.642 37.8535C145.458 37.8535 146.12 38.5167 146.12 39.3349C146.12 40.153 145.458 40.8162 144.642 40.8162Z" stroke="white" stroke-linecap="round" stroke-linejoin="round"/>
<path d="M26.3379 86.0742V90.3931V94.7161" stroke="white" stroke-miterlimit="10"/>
<path d="M30.7512 90.3926H26.4418H22.1281" stroke="white" stroke-miterlimit="10"/>
<path d="M23.2861 87.3379L26.334 90.3924L29.3818 93.4469" stroke="white" stroke-miterlimit="10"/>
<path d="M29.3818 87.3379L26.334 90.3924L23.2861 93.4469" stroke="white" stroke-miterlimit="10"/>
<path d="M10.1774 83.1611C9.15409 83.1611 8.32455 82.3297 8.32455 81.3042C8.32455 80.2786 9.15409 79.4473 10.1774 79.4473C11.2007 79.4473 12.0303 80.2786 12.0303 81.3042C12.0303 82.3297 11.2007 83.1611 10.1774 83.1611Z" stroke="white" stroke-linecap="round" stroke-linejoin="round"/>
<path d="M11.6661 96.9608C11.6661 97.7787 12.3281 98.4422 13.1442 98.4422C13.9603 98.4422 14.6182 97.7787 14.6182 96.9608C14.6182 96.143 13.9603 95.4795 13.1442 95.4795C12.3281 95.4795 11.6661 96.143 11.6661 96.9608Z" stroke="white" stroke-linecap="round" stroke-linejoin="round"/>
<path d="M2.7243 89.3623L2.05811 90.7143L0.571654 90.9313L1.64588 91.9828L1.3919 93.4683L2.7243 92.7673L4.05671 93.4683L3.80273 91.9828L4.87695 90.9313L3.39049 90.7143L2.7243 89.3623Z" stroke="white" stroke-linecap="round" stroke-linejoin="round"/>
<path d="M154.312 14.2148L153.65 15.5668L152.159 15.7838L153.238 16.8354L152.984 18.3209L154.312 17.6198L155.644 18.3209L155.39 16.8354L156.469 15.7838L154.978 15.5668L154.312 14.2148Z" stroke="white" stroke-linecap="round" stroke-linejoin="round"/>
<path d="M90.0834 22.9521L89.4172 24.3041L87.9308 24.5211L89.0092 25.5727L88.7552 27.0582L90.0834 26.3572L91.4158 27.0582L91.1618 25.5727L92.2402 24.5211L90.7496 24.3041L90.0834 22.9521Z" stroke="white" stroke-linecap="round" stroke-linejoin="round"/>
</g>
</svg>
