<svg width="209" height="129" viewBox="0 0 209 129" fill="none" xmlns="http://www.w3.org/2000/svg">
<path d="M9.30682 115.818V126H8.11364L2.56534 118.006H2.46591V126H1.23295V115.818H2.42614L7.99432 123.832H8.09375V115.818H9.30682ZM14.7172 126.159C14.0278 126.159 13.4229 125.995 12.9025 125.667C12.3855 125.339 11.9811 124.88 11.6895 124.29C11.4011 123.7 11.2569 123.01 11.2569 122.222C11.2569 121.426 11.4011 120.732 11.6895 120.138C11.9811 119.545 12.3855 119.085 12.9025 118.756C13.4229 118.428 14.0278 118.264 14.7172 118.264C15.4065 118.264 16.0098 118.428 16.5268 118.756C17.0472 119.085 17.4515 119.545 17.7399 120.138C18.0315 120.732 18.1774 121.426 18.1774 122.222C18.1774 123.01 18.0315 123.7 17.7399 124.29C17.4515 124.88 17.0472 125.339 16.5268 125.667C16.0098 125.995 15.4065 126.159 14.7172 126.159ZM14.7172 125.105C15.2408 125.105 15.6717 124.971 16.0098 124.702C16.3478 124.434 16.5981 124.081 16.7605 123.643C16.9229 123.206 17.0041 122.732 17.0041 122.222C17.0041 121.711 16.9229 121.236 16.7605 120.795C16.5981 120.354 16.3478 119.998 16.0098 119.726C15.6717 119.454 15.2408 119.318 14.7172 119.318C14.1935 119.318 13.7626 119.454 13.4245 119.726C13.0865 119.998 12.8362 120.354 12.6738 120.795C12.5114 121.236 12.4302 121.711 12.4302 122.222C12.4302 122.732 12.5114 123.206 12.6738 123.643C12.8362 124.081 13.0865 124.434 13.4245 124.702C13.7626 124.971 14.1935 125.105 14.7172 125.105ZM32.2582 119H31.0252C30.9523 118.645 30.8247 118.334 30.6424 118.065C30.4634 117.797 30.2447 117.571 29.9862 117.389C29.7309 117.204 29.4476 117.064 29.136 116.972C28.8245 116.879 28.4996 116.832 28.1616 116.832C27.5451 116.832 26.9866 116.988 26.4862 117.3C25.989 117.611 25.5929 118.07 25.2979 118.677C25.0063 119.283 24.8604 120.027 24.8604 120.909C24.8604 121.791 25.0063 122.535 25.2979 123.141C25.5929 123.748 25.989 124.207 26.4862 124.518C26.9866 124.83 27.5451 124.986 28.1616 124.986C28.4996 124.986 28.8245 124.939 29.136 124.847C29.4476 124.754 29.7309 124.616 29.9862 124.434C30.2447 124.248 30.4634 124.021 30.6424 123.753C30.8247 123.481 30.9523 123.17 31.0252 122.818H32.2582C32.1654 123.339 31.9963 123.804 31.7511 124.215C31.5058 124.626 31.2009 124.976 30.8363 125.264C30.4717 125.549 30.0624 125.766 29.6083 125.915C29.1576 126.065 28.6753 126.139 28.1616 126.139C27.2932 126.139 26.521 125.927 25.8448 125.503C25.1687 125.079 24.6367 124.475 24.2489 123.693C23.8612 122.911 23.6673 121.983 23.6673 120.909C23.6673 119.835 23.8612 118.907 24.2489 118.125C24.6367 117.343 25.1687 116.74 25.8448 116.315C26.521 115.891 27.2932 115.679 28.1616 115.679C28.6753 115.679 29.1576 115.754 29.6083 115.903C30.0624 116.052 30.4717 116.271 30.8363 116.559C31.2009 116.844 31.5058 117.192 31.7511 117.603C31.9963 118.011 32.1654 118.476 32.2582 119ZM37.1937 126.159C36.5043 126.159 35.8994 125.995 35.3791 125.667C34.862 125.339 34.4577 124.88 34.166 124.29C33.8777 123.7 33.7335 123.01 33.7335 122.222C33.7335 121.426 33.8777 120.732 34.166 120.138C34.4577 119.545 34.862 119.085 35.3791 118.756C35.8994 118.428 36.5043 118.264 37.1937 118.264C37.8831 118.264 38.4863 118.428 39.0034 118.756C39.5237 119.085 39.9281 119.545 40.2164 120.138C40.5081 120.732 40.6539 121.426 40.6539 122.222C40.6539 123.01 40.5081 123.7 40.2164 124.29C39.9281 124.88 39.5237 125.339 39.0034 125.667C38.4863 125.995 37.8831 126.159 37.1937 126.159ZM37.1937 125.105C37.7174 125.105 38.1483 124.971 38.4863 124.702C38.8244 124.434 39.0746 124.081 39.237 123.643C39.3994 123.206 39.4806 122.732 39.4806 122.222C39.4806 121.711 39.3994 121.236 39.237 120.795C39.0746 120.354 38.8244 119.998 38.4863 119.726C38.1483 119.454 37.7174 119.318 37.1937 119.318C36.67 119.318 36.2392 119.454 35.9011 119.726C35.563 119.998 35.3128 120.354 35.1504 120.795C34.988 121.236 34.9068 121.711 34.9068 122.222C34.9068 122.732 34.988 123.206 35.1504 123.643C35.3128 124.081 35.563 124.434 35.9011 124.702C36.2392 124.971 36.67 125.105 37.1937 125.105ZM47.2575 122.878V118.364H48.4308V126H47.2575V124.707H47.1779C46.9989 125.095 46.7205 125.425 46.3427 125.697C45.9648 125.965 45.4876 126.099 44.9109 126.099C44.4336 126.099 44.0094 125.995 43.6381 125.786C43.2669 125.574 42.9753 125.256 42.7631 124.832C42.551 124.404 42.445 123.866 42.445 123.216V118.364H43.6183V123.136C43.6183 123.693 43.774 124.137 44.0856 124.469C44.4004 124.8 44.8015 124.966 45.2887 124.966C45.5804 124.966 45.877 124.891 46.1786 124.742C46.4835 124.593 46.7388 124.364 46.9442 124.056C47.1531 123.748 47.2575 123.355 47.2575 122.878ZM50.5797 126V118.364H51.7132V119.517H51.7928C51.932 119.139 52.1839 118.833 52.5485 118.597C52.9131 118.362 53.324 118.244 53.7814 118.244C53.8676 118.244 53.9753 118.246 54.1046 118.249C54.2338 118.253 54.3316 118.258 54.3979 118.264V119.457C54.3581 119.447 54.267 119.433 54.1245 119.413C53.9853 119.389 53.8378 119.378 53.682 119.378C53.3108 119.378 52.9793 119.456 52.6877 119.612C52.3993 119.764 52.1706 119.976 52.0016 120.248C51.8359 120.516 51.753 120.823 51.753 121.168V126H50.5797ZM61.1978 120.074L60.1438 120.372C60.0775 120.196 59.9798 120.026 59.8505 119.86C59.7246 119.691 59.5522 119.552 59.3335 119.442C59.1147 119.333 58.8346 119.278 58.4933 119.278C58.0259 119.278 57.6365 119.386 57.3249 119.602C57.0167 119.814 56.8626 120.084 56.8626 120.412C56.8626 120.704 56.9686 120.934 57.1808 121.103C57.3929 121.272 57.7243 121.413 58.1751 121.526L59.3086 121.804C59.9914 121.97 60.5001 122.223 60.8349 122.565C61.1696 122.903 61.337 123.339 61.337 123.872C61.337 124.31 61.2111 124.701 60.9592 125.045C60.7106 125.39 60.3626 125.662 59.9151 125.861C59.4677 126.06 58.9473 126.159 58.354 126.159C57.5752 126.159 56.9305 125.99 56.4201 125.652C55.9097 125.314 55.5865 124.82 55.4506 124.17L56.5643 123.892C56.6703 124.303 56.8709 124.611 57.1658 124.817C57.4641 125.022 57.8536 125.125 58.3342 125.125C58.881 125.125 59.3152 125.009 59.6367 124.777C59.9615 124.542 60.1239 124.26 60.1239 123.932C60.1239 123.667 60.0311 123.445 59.8455 123.266C59.6599 123.083 59.3749 122.947 58.9904 122.858L57.7177 122.56C57.0183 122.394 56.5046 122.137 56.1765 121.789C55.8517 121.438 55.6893 120.999 55.6893 120.472C55.6893 120.041 55.8103 119.66 56.0522 119.328C56.2975 118.997 56.6306 118.737 57.0515 118.548C57.4757 118.359 57.9563 118.264 58.4933 118.264C59.2489 118.264 59.8422 118.43 60.2731 118.761C60.7073 119.093 61.0155 119.53 61.1978 120.074ZM66.3049 126.159C65.5691 126.159 64.9344 125.997 64.4007 125.672C63.8704 125.344 63.4611 124.886 63.1728 124.3C62.8877 123.71 62.7452 123.024 62.7452 122.241C62.7452 121.459 62.8877 120.77 63.1728 120.173C63.4611 119.573 63.8622 119.106 64.3759 118.771C64.8929 118.433 65.4962 118.264 66.1855 118.264C66.5833 118.264 66.976 118.33 67.3638 118.463C67.7516 118.596 68.1046 118.811 68.4228 119.109C68.7409 119.404 68.9945 119.795 69.1834 120.283C69.3723 120.77 69.4668 121.37 69.4668 122.082V122.58H63.5804V121.565H68.2736C68.2736 121.134 68.1874 120.75 68.0151 120.412C67.8461 120.074 67.6041 119.807 67.2892 119.612C66.9777 119.416 66.6098 119.318 66.1855 119.318C65.7182 119.318 65.3139 119.434 64.9725 119.666C64.6344 119.895 64.3742 120.193 64.1919 120.561C64.0096 120.929 63.9185 121.323 63.9185 121.744V122.42C63.9185 122.997 64.0179 123.486 64.2168 123.887C64.419 124.285 64.699 124.588 65.057 124.797C65.415 125.002 65.8309 125.105 66.3049 125.105C66.6131 125.105 66.8915 125.062 67.1401 124.976C67.392 124.886 67.6091 124.754 67.7914 124.578C67.9737 124.399 68.1145 124.177 68.214 123.912L69.3475 124.23C69.2282 124.615 69.0276 124.953 68.7459 125.244C68.4642 125.533 68.1162 125.758 67.7019 125.92C67.2876 126.08 66.8219 126.159 66.3049 126.159ZM76.6607 120.074L75.6067 120.372C75.5404 120.196 75.4426 120.026 75.3134 119.86C75.1874 119.691 75.0151 119.552 74.7963 119.442C74.5776 119.333 74.2975 119.278 73.9561 119.278C73.4888 119.278 73.0994 119.386 72.7878 119.602C72.4796 119.814 72.3255 120.084 72.3255 120.412C72.3255 120.704 72.4315 120.934 72.6436 121.103C72.8558 121.272 73.1872 121.413 73.638 121.526L74.7715 121.804C75.4542 121.97 75.963 122.223 76.2978 122.565C76.6325 122.903 76.7999 123.339 76.7999 123.872C76.7999 124.31 76.6739 124.701 76.4221 125.045C76.1735 125.39 75.8255 125.662 75.378 125.861C74.9306 126.06 74.4102 126.159 73.8169 126.159C73.0381 126.159 72.3934 125.99 71.883 125.652C71.3726 125.314 71.0494 124.82 70.9135 124.17L72.0272 123.892C72.1332 124.303 72.3337 124.611 72.6287 124.817C72.927 125.022 73.3165 125.125 73.7971 125.125C74.3439 125.125 74.7781 125.009 75.0996 124.777C75.4244 124.542 75.5868 124.26 75.5868 123.932C75.5868 123.667 75.494 123.445 75.3084 123.266C75.1228 123.083 74.8378 122.947 74.4533 122.858L73.1806 122.56C72.4812 122.394 71.9675 122.137 71.6394 121.789C71.3146 121.438 71.1522 120.999 71.1522 120.472C71.1522 120.041 71.2731 119.66 71.5151 119.328C71.7604 118.997 72.0935 118.737 72.5144 118.548C72.9386 118.359 73.4192 118.264 73.9561 118.264C74.7118 118.264 75.3051 118.43 75.736 118.761C76.1702 119.093 76.4784 119.53 76.6607 120.074ZM85.7053 126.159C84.9695 126.159 84.3348 125.997 83.8011 125.672C83.2708 125.344 82.8615 124.886 82.5732 124.3C82.2881 123.71 82.1456 123.024 82.1456 122.241C82.1456 121.459 82.2881 120.77 82.5732 120.173C82.8615 119.573 83.2625 119.106 83.7763 118.771C84.2933 118.433 84.8965 118.264 85.5859 118.264C85.9837 118.264 86.3764 118.33 86.7642 118.463C87.152 118.596 87.505 118.811 87.8232 119.109C88.1413 119.404 88.3949 119.795 88.5838 120.283C88.7727 120.77 88.8672 121.37 88.8672 122.082V122.58H82.9808V121.565H87.674C87.674 121.134 87.5878 120.75 87.4155 120.412C87.2464 120.074 87.0045 119.807 86.6896 119.612C86.3781 119.416 86.0102 119.318 85.5859 119.318C85.1186 119.318 84.7143 119.434 84.3729 119.666C84.0348 119.895 83.7746 120.193 83.5923 120.561C83.41 120.929 83.3189 121.323 83.3189 121.744V122.42C83.3189 122.997 83.4183 123.486 83.6172 123.887C83.8194 124.285 84.0994 124.588 84.4574 124.797C84.8153 125.002 85.2313 125.105 85.7053 125.105C86.0135 125.105 86.2919 125.062 86.5405 124.976C86.7924 124.886 87.0095 124.754 87.1918 124.578C87.3741 124.399 87.5149 124.177 87.6143 123.912L88.7479 124.23C88.6286 124.615 88.428 124.953 88.1463 125.244C87.8646 125.533 87.5166 125.758 87.1023 125.92C86.688 126.08 86.2223 126.159 85.7053 126.159ZM91.8253 121.406V126H90.652V118.364H91.7855V119.557H91.8849C92.0639 119.169 92.3357 118.857 92.7003 118.622C93.0649 118.384 93.5355 118.264 94.1122 118.264C94.6293 118.264 95.0817 118.37 95.4695 118.582C95.8572 118.791 96.1589 119.109 96.3743 119.537C96.5897 119.961 96.6974 120.498 96.6974 121.148V126H95.5241V121.227C95.5241 120.627 95.3684 120.16 95.0568 119.825C94.7453 119.487 94.3177 119.318 93.7741 119.318C93.3996 119.318 93.0649 119.399 92.7699 119.562C92.4782 119.724 92.2479 119.961 92.0788 120.273C91.9098 120.584 91.8253 120.962 91.8253 121.406ZM98.8414 126V118.364H99.975V119.517H100.055C100.194 119.139 100.446 118.833 100.81 118.597C101.175 118.362 101.586 118.244 102.043 118.244C102.129 118.244 102.237 118.246 102.366 118.249C102.496 118.253 102.593 118.258 102.66 118.264V119.457C102.62 119.447 102.529 119.433 102.386 119.413C102.247 119.389 102.099 119.378 101.944 119.378C101.573 119.378 101.241 119.456 100.949 119.612C100.661 119.764 100.432 119.976 100.263 120.248C100.098 120.516 100.015 120.823 100.015 121.168V126H98.8414ZM106.92 126.159C106.231 126.159 105.626 125.995 105.106 125.667C104.589 125.339 104.184 124.88 103.893 124.29C103.604 123.7 103.46 123.01 103.46 122.222C103.46 121.426 103.604 120.732 103.893 120.138C104.184 119.545 104.589 119.085 105.106 118.756C105.626 118.428 106.231 118.264 106.92 118.264C107.61 118.264 108.213 118.428 108.73 118.756C109.25 119.085 109.655 119.545 109.943 120.138C110.235 120.732 110.381 121.426 110.381 122.222C110.381 123.01 110.235 123.7 109.943 124.29C109.655 124.88 109.25 125.339 108.73 125.667C108.213 125.995 107.61 126.159 106.92 126.159ZM106.92 125.105C107.444 125.105 107.875 124.971 108.213 124.702C108.551 124.434 108.801 124.081 108.964 123.643C109.126 123.206 109.207 122.732 109.207 122.222C109.207 121.711 109.126 121.236 108.964 120.795C108.801 120.354 108.551 119.998 108.213 119.726C107.875 119.454 107.444 119.318 106.92 119.318C106.397 119.318 105.966 119.454 105.628 119.726C105.29 119.998 105.039 120.354 104.877 120.795C104.715 121.236 104.633 121.711 104.633 122.222C104.633 122.732 104.715 123.206 104.877 123.643C105.039 124.081 105.29 124.434 105.628 124.702C105.966 124.971 106.397 125.105 106.92 125.105ZM113.345 115.818V126H112.172V115.818H113.345ZM116.667 115.818V126H115.494V115.818H116.667ZM122.018 126.159C121.282 126.159 120.647 125.997 120.114 125.672C119.583 125.344 119.174 124.886 118.886 124.3C118.601 123.71 118.458 123.024 118.458 122.241C118.458 121.459 118.601 120.77 118.886 120.173C119.174 119.573 119.575 119.106 120.089 118.771C120.606 118.433 121.209 118.264 121.898 118.264C122.296 118.264 122.689 118.33 123.077 118.463C123.464 118.596 123.817 118.811 124.136 119.109C124.454 119.404 124.707 119.795 124.896 120.283C125.085 120.77 125.18 121.37 125.18 122.082V122.58H119.293V121.565H123.987C123.987 121.134 123.9 120.75 123.728 120.412C123.559 120.074 123.317 119.807 123.002 119.612C122.691 119.416 122.323 119.318 121.898 119.318C121.431 119.318 121.027 119.434 120.685 119.666C120.347 119.895 120.087 120.193 119.905 120.561C119.723 120.929 119.631 121.323 119.631 121.744V122.42C119.631 122.997 119.731 123.486 119.93 123.887C120.132 124.285 120.412 124.588 120.77 124.797C121.128 125.002 121.544 125.105 122.018 125.105C122.326 125.105 122.604 125.062 122.853 124.976C123.105 124.886 123.322 124.754 123.504 124.578C123.687 124.399 123.827 124.177 123.927 123.912L125.06 124.23C124.941 124.615 124.741 124.953 124.459 125.244C124.177 125.533 123.829 125.758 123.415 125.92C123 126.08 122.535 126.159 122.018 126.159ZM129.848 126.159C129.212 126.159 128.65 125.998 128.163 125.677C127.675 125.352 127.294 124.895 127.019 124.305C126.744 123.711 126.607 123.01 126.607 122.202C126.607 121.4 126.744 120.704 127.019 120.114C127.294 119.524 127.677 119.068 128.168 118.746C128.658 118.425 129.225 118.264 129.868 118.264C130.365 118.264 130.758 118.347 131.046 118.513C131.338 118.675 131.56 118.861 131.712 119.07C131.868 119.275 131.989 119.444 132.075 119.577H132.175V115.818H133.348V126H132.214V124.827H132.075C131.989 124.966 131.866 125.142 131.707 125.354C131.548 125.562 131.321 125.75 131.026 125.915C130.731 126.078 130.339 126.159 129.848 126.159ZM130.007 125.105C130.478 125.105 130.875 124.982 131.2 124.737C131.525 124.489 131.772 124.146 131.941 123.708C132.11 123.267 132.195 122.759 132.195 122.182C132.195 121.612 132.112 121.113 131.946 120.685C131.78 120.254 131.535 119.92 131.21 119.681C130.885 119.439 130.484 119.318 130.007 119.318C129.51 119.318 129.096 119.446 128.764 119.701C128.436 119.953 128.189 120.296 128.023 120.73C127.861 121.161 127.78 121.645 127.78 122.182C127.78 122.725 127.863 123.219 128.028 123.663C128.197 124.104 128.446 124.455 128.774 124.717C129.106 124.976 129.517 125.105 130.007 125.105ZM142.918 118.364V119.358H138.961V118.364H142.918ZM140.114 116.534H141.288V123.812C141.288 124.144 141.336 124.393 141.432 124.558C141.531 124.721 141.657 124.83 141.81 124.886C141.965 124.939 142.129 124.966 142.302 124.966C142.431 124.966 142.537 124.959 142.62 124.946C142.703 124.929 142.769 124.916 142.819 124.906L143.058 125.96C142.978 125.99 142.867 126.02 142.724 126.05C142.582 126.083 142.401 126.099 142.183 126.099C141.851 126.099 141.526 126.028 141.208 125.886C140.893 125.743 140.631 125.526 140.423 125.234C140.217 124.943 140.114 124.575 140.114 124.131V116.534ZM146.021 121.406V126H144.847V115.818H146.021V119.557H146.12C146.299 119.162 146.567 118.849 146.925 118.617C147.287 118.382 147.767 118.264 148.367 118.264C148.888 118.264 149.343 118.369 149.734 118.577C150.125 118.783 150.429 119.099 150.644 119.527C150.863 119.951 150.972 120.491 150.972 121.148V126H149.799V121.227C149.799 120.621 149.642 120.152 149.327 119.82C149.015 119.486 148.583 119.318 148.029 119.318C147.645 119.318 147.3 119.399 146.995 119.562C146.693 119.724 146.455 119.961 146.279 120.273C146.107 120.584 146.021 120.962 146.021 121.406ZM153.119 126V118.364H154.292V126H153.119ZM153.715 117.091C153.487 117.091 153.289 117.013 153.124 116.857C152.961 116.701 152.88 116.514 152.88 116.295C152.88 116.077 152.961 115.889 153.124 115.734C153.289 115.578 153.487 115.5 153.715 115.5C153.944 115.5 154.14 115.578 154.302 115.734C154.468 115.889 154.551 116.077 154.551 116.295C154.551 116.514 154.468 116.701 154.302 116.857C154.14 117.013 153.944 117.091 153.715 117.091ZM161.85 120.074L160.796 120.372C160.73 120.196 160.632 120.026 160.503 119.86C160.377 119.691 160.205 119.552 159.986 119.442C159.767 119.333 159.487 119.278 159.146 119.278C158.678 119.278 158.289 119.386 157.977 119.602C157.669 119.814 157.515 120.084 157.515 120.412C157.515 120.704 157.621 120.934 157.833 121.103C158.045 121.272 158.377 121.413 158.827 121.526L159.961 121.804C160.644 121.97 161.152 122.223 161.487 122.565C161.822 122.903 161.989 123.339 161.989 123.872C161.989 124.31 161.863 124.701 161.612 125.045C161.363 125.39 161.015 125.662 160.567 125.861C160.12 126.06 159.6 126.159 159.006 126.159C158.228 126.159 157.583 125.99 157.072 125.652C156.562 125.314 156.239 124.82 156.103 124.17L157.217 123.892C157.323 124.303 157.523 124.611 157.818 124.817C158.116 125.022 158.506 125.125 158.987 125.125C159.533 125.125 159.968 125.009 160.289 124.777C160.614 124.542 160.776 124.26 160.776 123.932C160.776 123.667 160.683 123.445 160.498 123.266C160.312 123.083 160.027 122.947 159.643 122.858L158.37 122.56C157.671 122.394 157.157 122.137 156.829 121.789C156.504 121.438 156.342 120.999 156.342 120.472C156.342 120.041 156.463 119.66 156.705 119.328C156.95 118.997 157.283 118.737 157.704 118.548C158.128 118.359 158.609 118.264 159.146 118.264C159.901 118.264 160.495 118.43 160.925 118.761C161.36 119.093 161.668 119.53 161.85 120.074ZM167.693 126V118.364H168.827V119.557H168.926C169.085 119.149 169.342 118.833 169.697 118.607C170.051 118.379 170.477 118.264 170.974 118.264C171.478 118.264 171.897 118.379 172.232 118.607C172.57 118.833 172.834 119.149 173.023 119.557H173.102C173.298 119.162 173.591 118.849 173.982 118.617C174.373 118.382 174.842 118.264 175.389 118.264C176.072 118.264 176.63 118.478 177.064 118.906C177.499 119.33 177.716 119.991 177.716 120.889V126H176.542V120.889C176.542 120.326 176.388 119.923 176.08 119.681C175.772 119.439 175.409 119.318 174.991 119.318C174.454 119.318 174.038 119.481 173.743 119.805C173.448 120.127 173.301 120.535 173.301 121.028V126H172.108V120.77C172.108 120.336 171.967 119.986 171.685 119.721C171.403 119.452 171.041 119.318 170.596 119.318C170.291 119.318 170.006 119.399 169.741 119.562C169.479 119.724 169.267 119.95 169.105 120.238C168.946 120.523 168.866 120.853 168.866 121.227V126H167.693ZM182.963 126.159C182.274 126.159 181.669 125.995 181.149 125.667C180.632 125.339 180.227 124.88 179.936 124.29C179.647 123.7 179.503 123.01 179.503 122.222C179.503 121.426 179.647 120.732 179.936 120.138C180.227 119.545 180.632 119.085 181.149 118.756C181.669 118.428 182.274 118.264 182.963 118.264C183.653 118.264 184.256 118.428 184.773 118.756C185.293 119.085 185.698 119.545 185.986 120.138C186.278 120.732 186.423 121.426 186.423 122.222C186.423 123.01 186.278 123.7 185.986 124.29C185.698 124.88 185.293 125.339 184.773 125.667C184.256 125.995 183.653 126.159 182.963 126.159ZM182.963 125.105C183.487 125.105 183.918 124.971 184.256 124.702C184.594 124.434 184.844 124.081 185.007 123.643C185.169 123.206 185.25 122.732 185.25 122.222C185.25 121.711 185.169 121.236 185.007 120.795C184.844 120.354 184.594 119.998 184.256 119.726C183.918 119.454 183.487 119.318 182.963 119.318C182.44 119.318 182.009 119.454 181.671 119.726C181.333 119.998 181.082 120.354 180.92 120.795C180.758 121.236 180.676 121.711 180.676 122.222C180.676 122.732 180.758 123.206 180.92 123.643C181.082 124.081 181.333 124.434 181.671 124.702C182.009 124.971 182.44 125.105 182.963 125.105ZM189.388 121.406V126H188.214V118.364H189.348V119.557H189.447C189.626 119.169 189.898 118.857 190.263 118.622C190.627 118.384 191.098 118.264 191.675 118.264C192.192 118.264 192.644 118.37 193.032 118.582C193.42 118.791 193.721 119.109 193.937 119.537C194.152 119.961 194.26 120.498 194.26 121.148V126H193.087V121.227C193.087 120.627 192.931 120.16 192.619 119.825C192.308 119.487 191.88 119.318 191.337 119.318C190.962 119.318 190.627 119.399 190.332 119.562C190.041 119.724 189.81 119.961 189.641 120.273C189.472 120.584 189.388 120.962 189.388 121.406ZM199.725 118.364V119.358H195.768V118.364H199.725ZM196.921 116.534H198.094V123.812C198.094 124.144 198.142 124.393 198.238 124.558C198.338 124.721 198.464 124.83 198.616 124.886C198.772 124.939 198.936 124.966 199.108 124.966C199.238 124.966 199.344 124.959 199.427 124.946C199.51 124.929 199.576 124.916 199.626 124.906L199.864 125.96C199.785 125.99 199.674 126.02 199.531 126.05C199.389 126.083 199.208 126.099 198.989 126.099C198.658 126.099 198.333 126.028 198.015 125.886C197.7 125.743 197.438 125.526 197.229 125.234C197.024 124.943 196.921 124.575 196.921 124.131V116.534ZM202.827 121.406V126H201.654V115.818H202.827V119.557H202.927C203.106 119.162 203.374 118.849 203.732 118.617C204.093 118.382 204.574 118.264 205.174 118.264C205.694 118.264 206.15 118.369 206.541 118.577C206.932 118.783 207.235 119.099 207.451 119.527C207.67 119.951 207.779 120.491 207.779 121.148V126H206.606V121.227C206.606 120.621 206.448 120.152 206.133 119.82C205.822 119.486 205.389 119.318 204.836 119.318C204.451 119.318 204.107 119.399 203.802 119.562C203.5 119.724 203.261 119.961 203.086 120.273C202.913 120.584 202.827 120.962 202.827 121.406Z" fill="#424242"/>
<g filter="url(#filter0_f_350_2139)">
<ellipse cx="102.741" cy="81.0246" rx="40.2376" ry="7.76969" fill="#1F88F8" fill-opacity="0.35"/>
</g>
<path d="M103.182 96.5327C126.227 96.5327 144.909 77.8333 144.909 54.7664C144.909 31.6994 126.227 13 103.182 13C80.1369 13 61.4551 31.6994 61.4551 54.7664C61.4551 77.8333 80.1369 96.5327 103.182 96.5327Z" fill="url(#paint0_linear_350_2139)"/>
<g filter="url(#filter1_d_350_2139)">
<path d="M138.135 41.265L102.378 66.2426L66.6211 41.265L99.354 18.3907C100.242 17.7715 101.298 17.4395 102.38 17.4395C103.462 17.4395 104.518 17.7715 105.405 18.3907L111.935 22.9597L113.644 24.1479L130.858 36.1792L132.671 37.4536L138.135 41.265Z" fill="url(#paint1_linear_350_2139)"/>
</g>
<path d="M96.5641 62.1813L66.6211 83.493V41.2646L96.5641 62.1813Z" fill="url(#paint2_linear_350_2139)"/>
<g filter="url(#filter2_f_350_2139)">
<ellipse cx="119.85" cy="40.4316" rx="13.3069" ry="4.28126" fill="#FF4C77" fill-opacity="0.3"/>
</g>
<path d="M108.195 62.1813L138.138 83.493V41.2646L108.195 62.1813Z" fill="url(#paint3_linear_350_2139)"/>
<path d="M66.6211 83.494L99.3154 60.2276C100.21 59.5898 101.281 59.2471 102.38 59.2471C103.478 59.2471 104.549 59.5898 105.444 60.2276L138.135 83.494H66.6211Z" fill="url(#paint4_linear_350_2139)"/>
<g filter="url(#filter3_d_350_2139)">
<path d="M70.4018 33.6133C64.92 36.18 59.0293 37.7599 52.9999 38.2808C53.8146 40.1764 59.6033 49.6653 76.7872 57.4839C77.2517 57.5554 87.9823 52.5588 93.8711 49.1324C93.671 49.4185 75.5794 42.7552 70.4018 33.6133Z" fill="url(#paint5_linear_350_2139)"/>
</g>
<path d="M120.261 43.9976C126.85 43.9976 132.192 38.6509 132.192 32.0554C132.192 25.46 126.85 20.1133 120.261 20.1133C113.672 20.1133 108.33 25.46 108.33 32.0554C108.33 38.6509 113.672 43.9976 120.261 43.9976Z" fill="url(#paint6_linear_350_2139)"/>
<path d="M120.624 24.6229C122.217 24.6229 123.495 25.0248 124.457 25.8286C125.433 26.618 125.921 27.7807 125.921 29.3165C125.921 30.5796 125.49 31.5987 124.629 32.3737C123.782 33.1488 122.67 33.5507 121.292 33.5794L121.162 35.108H116.943L116.813 30.5437H118.622C119.469 30.5437 120.115 30.4504 120.56 30.2638C121.019 30.0772 121.249 29.7758 121.249 29.3595C121.249 29.0868 121.177 28.8787 121.033 28.7352C120.904 28.5773 120.725 28.4983 120.495 28.4983C120.208 28.4983 119.993 28.5916 119.849 28.7782C119.72 28.9505 119.655 29.1801 119.655 29.4672H115.156C115.113 28.5773 115.285 27.7663 115.672 27.0343C116.074 26.3023 116.691 25.721 117.524 25.2904C118.356 24.8454 119.39 24.6229 120.624 24.6229ZM119.117 41.4379C118.285 41.4379 117.617 41.2154 117.115 40.7704C116.612 40.3255 116.361 39.7657 116.361 39.0911C116.361 38.4021 116.612 37.8352 117.115 37.3902C117.617 36.9309 118.285 36.7013 119.117 36.7013C119.935 36.7013 120.596 36.9309 121.098 37.3902C121.6 37.8352 121.851 38.4021 121.851 39.0911C121.851 39.7657 121.6 40.3255 121.098 40.7704C120.596 41.2154 119.935 41.4379 119.117 41.4379Z" fill="white"/>
<path d="M70.8227 38.3308C70.5703 38.1555 70.2505 38.1083 69.9581 38.2029L60.368 41.3086C60.0242 41.4199 59.9016 41.8434 60.1327 42.1211V42.1211C60.3189 42.3447 60.6239 42.4301 60.8992 42.3357L70.7343 38.9639C71.012 38.8687 71.0637 38.4982 70.8227 38.3308V38.3308Z" fill="#C9DFFF"/>
<path d="M70.6595 42.1569C70.4161 41.9282 70.0667 41.852 69.7502 41.9587L63.1112 44.1951C62.8183 44.2937 62.7148 44.6553 62.9111 44.894V44.894C63.0715 45.0891 63.336 45.1643 63.5751 45.0828L70.5399 42.7091C70.7752 42.6289 70.8405 42.3271 70.6595 42.1569V42.1569Z" fill="#C9DFFF"/>
<path d="M74.2237 44.0506C73.9697 43.8471 73.628 43.7908 73.3221 43.9021L65.6748 46.6841C65.3744 46.7934 65.2839 47.1745 65.5031 47.407V47.407C65.6708 47.5849 65.9285 47.6457 66.1581 47.5613L74.1283 44.6338C74.3762 44.5427 74.4296 44.2158 74.2237 44.0506V44.0506Z" fill="#C9DFFF"/>
<path d="M76.8944 49.7931C76.6592 49.533 76.2885 49.444 75.9608 49.5692L71.5906 51.2384C71.3221 51.341 71.2251 51.6715 71.3958 51.9028V51.9028C71.5557 52.1196 71.8409 52.2024 72.0922 52.105L76.7766 50.289C76.9788 50.2106 77.0397 49.9539 76.8944 49.7931V49.7931Z" fill="#C9DFFF"/>
<g filter="url(#filter4_d_350_2139)">
<path d="M133.767 46.8457C140.414 49.9579 147.556 51.8738 154.867 52.5054C153.88 54.8039 146.86 66.3097 126.024 75.7902C125.461 75.877 112.449 69.8183 105.309 65.6635C105.551 66.0105 127.488 57.9308 133.767 46.8457Z" fill="url(#paint7_linear_350_2139)"/>
</g>
<path d="M133.251 52.5666C133.557 52.3541 133.945 52.2968 134.3 52.4116L145.928 56.1773C146.345 56.3123 146.494 56.8259 146.214 57.1626V57.1626C145.988 57.4338 145.618 57.5373 145.284 57.4228L133.359 53.3343C133.022 53.2188 132.959 52.7696 133.251 52.5666V52.5666Z" fill="#C9DFFF"/>
<path d="M129.997 55.6665C130.292 55.3892 130.716 55.2968 131.099 55.4261L139.15 58.1379C139.505 58.2576 139.63 58.6959 139.392 58.9854V58.9854C139.198 59.2219 138.877 59.3131 138.587 59.2143L130.142 56.3361C129.857 56.2389 129.777 55.8728 129.997 55.6665V55.6665Z" fill="#C9DFFF"/>
<path d="M126.65 58.2401C126.958 57.9932 127.372 57.925 127.743 58.0599L137.016 61.4333C137.38 61.5658 137.49 62.0279 137.224 62.3098V62.3098C137.021 62.5256 136.708 62.5992 136.43 62.497L126.765 58.9471C126.465 58.8367 126.4 58.4403 126.65 58.2401V58.2401Z" fill="#C9DFFF"/>
<path d="M119.121 63.3883C119.406 63.0729 119.855 62.965 120.253 63.1168L125.552 65.1408C125.877 65.2652 125.995 65.6659 125.788 65.9464V65.9464C125.594 66.2093 125.248 66.3097 124.944 66.1916L119.263 63.9896C119.018 63.8946 118.944 63.5833 119.121 63.3883V63.3883Z" fill="#C9DFFF"/>
<path d="M122.579 60.64C122.893 60.4429 123.28 60.4022 123.628 60.5296L135.839 64.9985C136.229 65.1414 136.324 65.6506 136.011 65.9243V65.9243C135.804 66.1053 135.515 66.1588 135.257 66.0636L122.66 61.4189C122.32 61.2936 122.272 60.8326 122.579 60.64V60.64Z" fill="#C9DFFF"/>
<path d="M79.5396 45.3059C79.2808 45.1434 78.9613 45.1098 78.6742 45.2149L68.6038 48.9004C68.2818 49.0182 68.2036 49.4382 68.4617 49.6639V49.6639C68.6325 49.8132 68.8713 49.8573 69.0842 49.7788L79.4726 45.9483C79.7528 45.845 79.7925 45.4647 79.5396 45.3059V45.3059Z" fill="#C9DFFF"/>
<path d="M137.483 22.8303C137.483 23.6472 136.821 24.3083 136.007 24.3083C135.192 24.3083 134.531 23.6472 134.531 22.8303C134.531 22.0133 135.192 21.3523 136.007 21.3523C136.821 21.3523 137.483 22.0133 137.483 22.8303Z" stroke="url(#paint8_linear_350_2139)" stroke-width="1.48382"/>
<path d="M75.7015 87.5256C75.7015 88.3425 75.0401 89.0036 74.2256 89.0036C73.4112 89.0036 72.7497 88.3425 72.7497 87.5256C72.7497 86.7086 73.4112 86.0476 74.2256 86.0476C75.0401 86.0476 75.7015 86.7086 75.7015 87.5256Z" stroke="url(#paint9_linear_350_2139)" stroke-width="1.48382"/>
<path d="M129.246 91.0139C129.246 91.8308 128.585 92.4919 127.771 92.4919C126.956 92.4919 126.295 91.8308 126.295 91.0139C126.295 90.1969 126.956 89.5359 127.771 89.5359C128.585 89.5359 129.246 90.1969 129.246 91.0139Z" stroke="url(#paint10_linear_350_2139)" stroke-width="1.48382"/>
<path d="M79.7273 26.3465C80.0195 25.1348 81.7431 25.1348 82.0353 26.3465L82.1899 26.9874C82.2943 27.4204 82.6322 27.7584 83.065 27.863L83.7098 28.0188C84.9208 28.3114 84.9208 30.0339 83.7098 30.3265L83.065 30.4823C82.6322 30.5869 82.2943 30.9249 82.1899 31.3578L82.0353 31.9988C81.7431 33.2105 80.0195 33.2105 79.7273 31.9988L79.5727 31.3578C79.4683 30.9249 79.1304 30.5869 78.6976 30.4823L78.0528 30.3265C76.8418 30.0339 76.8418 28.3114 78.0528 28.0188L78.6976 27.863C79.1304 27.7584 79.4683 27.4204 79.5727 26.9874L79.7273 26.3465Z" fill="url(#paint11_linear_350_2139)"/>
<path d="M143.212 81.5086C143.504 80.2969 145.227 80.2969 145.52 81.5086L145.674 82.1496C145.779 82.5825 146.117 82.9205 146.549 83.0251L147.194 83.1809C148.405 83.4735 148.405 85.196 147.194 85.4886L146.549 85.6444C146.117 85.749 145.779 86.087 145.674 86.52L145.52 87.1609C145.227 88.3726 143.504 88.3726 143.212 87.1609L143.057 86.52C142.953 86.087 142.615 85.749 142.182 85.6444L141.537 85.4886C140.326 85.196 140.326 83.4735 141.537 83.1809L142.182 83.0251C142.615 82.9205 142.953 82.5825 143.057 82.1496L143.212 81.5086Z" fill="url(#paint12_linear_350_2139)"/>
<path d="M62.0241 73.7663C62.7757 73.6459 63.3755 74.3848 63.104 75.0965L62.3682 77.0251C62.0966 77.7369 61.157 77.8876 60.6771 77.2964L59.3763 75.6942C58.8963 75.103 59.2359 74.2133 59.9875 74.0928L62.0241 73.7663Z" fill="url(#paint13_linear_350_2139)"/>
<path d="M145.034 42.8806C144.846 42.1424 145.527 41.4772 146.26 41.6833L148.246 42.2418C148.978 42.4479 149.213 43.3707 148.669 43.9028L147.193 45.3448C146.648 45.8769 145.732 45.6193 145.544 44.8811L145.034 42.8806Z" fill="url(#paint14_linear_350_2139)"/>
<path d="M159 54.5C159 84.5995 134.6 109 104.5 109C74.4005 109 50 84.5995 50 54.5C50 24.4005 74.4005 0 104.5 0C134.6 0 159 24.4005 159 54.5Z" fill="white" fill-opacity="0.32"/>
<defs>
<filter id="filter0_f_350_2139" x="50.1387" y="60.8897" width="105.206" height="40.2694" filterUnits="userSpaceOnUse" color-interpolation-filters="sRGB">
<feFlood flood-opacity="0" result="BackgroundImageFix"/>
<feBlend mode="normal" in="SourceGraphic" in2="BackgroundImageFix" result="shape"/>
<feGaussianBlur stdDeviation="6.18258" result="effect1_foregroundBlur_350_2139"/>
</filter>
<filter id="filter1_d_350_2139" x="64.6427" y="17.4395" width="75.4715" height="52.7596" filterUnits="userSpaceOnUse" color-interpolation-filters="sRGB">
<feFlood flood-opacity="0" result="BackgroundImageFix"/>
<feColorMatrix in="SourceAlpha" type="matrix" values="0 0 0 0 0 0 0 0 0 0 0 0 0 0 0 0 0 0 127 0" result="hardAlpha"/>
<feOffset dy="1.97843"/>
<feGaussianBlur stdDeviation="0.989213"/>
<feComposite in2="hardAlpha" operator="out"/>
<feColorMatrix type="matrix" values="0 0 0 0 0 0 0 0 0 0 0 0 0 0 0 0 0 0 0.25 0"/>
<feBlend mode="normal" in2="BackgroundImageFix" result="effect1_dropShadow_350_2139"/>
<feBlend mode="normal" in="SourceGraphic" in2="effect1_dropShadow_350_2139" result="shape"/>
</filter>
<filter id="filter2_f_350_2139" x="94.1778" y="23.7852" width="51.3446" height="33.2928" filterUnits="userSpaceOnUse" color-interpolation-filters="sRGB">
<feFlood flood-opacity="0" result="BackgroundImageFix"/>
<feBlend mode="normal" in="SourceGraphic" in2="BackgroundImageFix" result="shape"/>
<feGaussianBlur stdDeviation="6.18258" result="effect1_foregroundBlur_350_2139"/>
</filter>
<filter id="filter3_d_350_2139" x="47.0647" y="29.6564" width="52.7417" height="35.7417" filterUnits="userSpaceOnUse" color-interpolation-filters="sRGB">
<feFlood flood-opacity="0" result="BackgroundImageFix"/>
<feColorMatrix in="SourceAlpha" type="matrix" values="0 0 0 0 0 0 0 0 0 0 0 0 0 0 0 0 0 0 127 0" result="hardAlpha"/>
<feOffset dy="1.97843"/>
<feGaussianBlur stdDeviation="2.96764"/>
<feComposite in2="hardAlpha" operator="out"/>
<feColorMatrix type="matrix" values="0 0 0 0 0.0196078 0 0 0 0 0.168627 0 0 0 0 0.396078 0 0 0 0.15 0"/>
<feBlend mode="normal" in2="BackgroundImageFix" result="effect1_dropShadow_350_2139"/>
<feBlend mode="normal" in="SourceGraphic" in2="effect1_dropShadow_350_2139" result="shape"/>
</filter>
<filter id="filter4_d_350_2139" x="93.9016" y="45.8565" width="66.3752" height="45.7619" filterUnits="userSpaceOnUse" color-interpolation-filters="sRGB">
<feFlood flood-opacity="0" result="BackgroundImageFix"/>
<feColorMatrix in="SourceAlpha" type="matrix" values="0 0 0 0 0 0 0 0 0 0 0 0 0 0 0 0 0 0 127 0" result="hardAlpha"/>
<feOffset dx="-2.9987" dy="7.4191"/>
<feGaussianBlur stdDeviation="4.20416"/>
<feComposite in2="hardAlpha" operator="out"/>
<feColorMatrix type="matrix" values="0 0 0 0 0.021441 0 0 0 0 0.168056 0 0 0 0 0.395833 0 0 0 0.15 0"/>
<feBlend mode="normal" in2="BackgroundImageFix" result="effect1_dropShadow_350_2139"/>
<feBlend mode="normal" in="SourceGraphic" in2="effect1_dropShadow_350_2139" result="shape"/>
</filter>
<linearGradient id="paint0_linear_350_2139" x1="102.86" y1="-0.60015" x2="103.717" y2="146.077" gradientUnits="userSpaceOnUse">
<stop stop-color="#CAE0FF" stop-opacity="0"/>
<stop offset="1" stop-color="#BCD8FF"/>
</linearGradient>
<linearGradient id="paint1_linear_350_2139" x1="102.378" y1="17.4395" x2="102.378" y2="66.2426" gradientUnits="userSpaceOnUse">
<stop stop-color="#EDF4FF"/>
<stop offset="1" stop-color="#ABCCFF"/>
</linearGradient>
<linearGradient id="paint2_linear_350_2139" x1="81.5926" y1="41.2646" x2="80.2473" y2="116.906" gradientUnits="userSpaceOnUse">
<stop stop-color="#FCFCFC"/>
<stop offset="1" stop-color="#7B70FF"/>
</linearGradient>
<linearGradient id="paint3_linear_350_2139" x1="136.021" y1="41.0132" x2="138.058" y2="128.366" gradientUnits="userSpaceOnUse">
<stop stop-color="#BCABFF"/>
<stop offset="0.0001" stop-color="#AC9DFF"/>
<stop offset="0.0002" stop-color="#FBFBFB"/>
<stop offset="1" stop-color="#7B70FF"/>
</linearGradient>
<linearGradient id="paint4_linear_350_2139" x1="102.378" y1="59.2471" x2="102.404" y2="144.666" gradientUnits="userSpaceOnUse">
<stop stop-color="#F9F8FF"/>
<stop offset="1" stop-color="#6C55FD"/>
</linearGradient>
<linearGradient id="paint5_linear_350_2139" x1="57.4355" y1="44.2371" x2="84.2096" y2="39.014" gradientUnits="userSpaceOnUse">
<stop stop-color="#C6DDFF"/>
<stop offset="1" stop-color="white"/>
</linearGradient>
<linearGradient id="paint6_linear_350_2139" x1="108.444" y1="21.7202" x2="132.228" y2="44.0555" gradientUnits="userSpaceOnUse">
<stop stop-color="#FF698D"/>
<stop offset="1" stop-color="#FF3868"/>
</linearGradient>
<linearGradient id="paint7_linear_350_2139" x1="149.489" y1="59.7278" x2="117.024" y2="53.3944" gradientUnits="userSpaceOnUse">
<stop stop-color="#C6DDFF"/>
<stop offset="1" stop-color="white"/>
</linearGradient>
<linearGradient id="paint8_linear_350_2139" x1="133.281" y1="21.4428" x2="140.217" y2="27.4486" gradientUnits="userSpaceOnUse">
<stop stop-color="#94BFFF"/>
<stop offset="1" stop-color="#4C94FE"/>
</linearGradient>
<linearGradient id="paint9_linear_350_2139" x1="71.4996" y1="86.1381" x2="78.4359" y2="92.1439" gradientUnits="userSpaceOnUse">
<stop stop-color="#94BFFF"/>
<stop offset="1" stop-color="#4C94FE"/>
</linearGradient>
<linearGradient id="paint10_linear_350_2139" x1="125.044" y1="89.6264" x2="131.981" y2="95.6322" gradientUnits="userSpaceOnUse">
<stop stop-color="#94BFFF"/>
<stop offset="1" stop-color="#4C94FE"/>
</linearGradient>
<linearGradient id="paint11_linear_350_2139" x1="80.8813" y1="21.5615" x2="80.8813" y2="36.7838" gradientUnits="userSpaceOnUse">
<stop stop-color="#70A8FF"/>
<stop offset="1" stop-color="#5597FD"/>
</linearGradient>
<linearGradient id="paint12_linear_350_2139" x1="144.366" y1="76.7236" x2="144.366" y2="91.9459" gradientUnits="userSpaceOnUse">
<stop stop-color="#70A8FF"/>
<stop offset="1" stop-color="#5597FD"/>
</linearGradient>
<linearGradient id="paint13_linear_350_2139" x1="63.7149" y1="73.4953" x2="58.7936" y2="77.4908" gradientUnits="userSpaceOnUse">
<stop stop-color="#70A8FF"/>
<stop offset="1" stop-color="#5597FD"/>
</linearGradient>
<linearGradient id="paint14_linear_350_2139" x1="144.611" y1="41.2195" x2="149.041" y2="45.7544" gradientUnits="userSpaceOnUse">
<stop stop-color="#70A8FF"/>
<stop offset="1" stop-color="#5597FD"/>
</linearGradient>
</defs>
</svg>
