<svg width="22" height="23" viewBox="0 0 22 23" fill="none" xmlns="http://www.w3.org/2000/svg">
<path d="M18.8639 10.5721L4.34905 2.30736C4.22679 2.2387 4.08685 2.20952 3.94787 2.22372C3.80889 2.23791 3.67746 2.29481 3.57108 2.38683C3.46469 2.47885 3.38841 2.60164 3.35237 2.73883C3.31634 2.87603 3.32227 3.02113 3.36936 3.15481L6.10218 10.9478C6.16238 11.0991 6.16238 11.2683 6.10218 11.4196L3.36936 19.2126C3.32227 19.3463 3.31634 19.4914 3.35237 19.6286C3.38841 19.7658 3.46469 19.8886 3.57108 19.9806C3.67746 20.0726 3.80889 20.1295 3.94787 20.1437C4.08685 20.1579 4.22679 20.1287 4.34905 20.0601L18.8639 11.7953C18.9714 11.7348 19.0609 11.6462 19.1233 11.5387C19.1857 11.4311 19.2186 11.3086 19.2186 11.1837C19.2186 11.0589 19.1857 10.9363 19.1233 10.8287C19.0609 10.7212 18.9714 10.6326 18.8639 10.5721V10.5721Z" stroke="#4F52B2" stroke-linecap="round" stroke-linejoin="round"/>
<path d="M6.1875 11.1826H11.6875" stroke="#4F52B2" stroke-linecap="round" stroke-linejoin="round"/>
</svg>
