<svg width="20" height="20" viewBox="0 0 20 20" fill="none" xmlns="http://www.w3.org/2000/svg">
<path d="M2.2498 0C1.00727 0 0 1.00727 0 2.2498V15.7486C0 16.9911 1.00727 17.9984 2.2498 17.9984H8.1644L8.5202 16.5754C8.5266 16.5497 8.5333 16.5241 8.5402 16.4985H2.2498C1.83563 16.4985 1.49987 16.1628 1.49987 15.7486V2.2498C1.49987 1.83563 1.83563 1.49987 2.2498 1.49987H15.7486C16.1628 1.49987 16.4985 1.83563 16.4985 2.2498V8.2317C16.9774 8.0412 17.492 7.9678 17.9984 8.0115V2.2498C17.9984 1.00727 16.9911 0 15.7486 0H2.2498ZM12.3539 11.9989H8.2493C7.835 11.9989 7.4993 12.3347 7.4993 12.7489C7.4993 13.163 7.835 13.4988 8.2493 13.4988H10.8541L12.3539 11.9989ZM5.74949 5.24954C5.74949 5.80177 5.30181 6.24945 4.74958 6.24945C4.19735 6.24945 3.74967 5.80177 3.74967 5.24954C3.74967 4.69731 4.19735 4.24963 4.74958 4.24963C5.30181 4.24963 5.74949 4.69731 5.74949 5.24954ZM8.2493 4.4996C7.8351 4.4996 7.4993 4.83536 7.4993 5.24954C7.4993 5.66371 7.8351 5.99947 8.2493 5.99947H13.7488C14.163 5.99947 14.4987 5.66371 14.4987 5.24954C14.4987 4.83536 14.163 4.4996 13.7488 4.4996H8.2493ZM8.2493 8.2493C7.835 8.2493 7.4993 8.585 7.4993 8.9992C7.4993 9.4134 7.835 9.7491 8.2493 9.7491H13.7486C14.1629 9.7491 14.4985 9.4134 14.4985 8.9992C14.4985 8.585 14.1629 8.2493 13.7486 8.2493H8.2493ZM4.74958 9.9991C5.30181 9.9991 5.74949 9.5515 5.74949 8.9992C5.74949 8.447 5.30181 7.9993 4.74958 7.9993C4.19735 7.9993 3.74967 8.447 3.74967 8.9992C3.74967 9.5515 4.19735 9.9991 4.74958 9.9991ZM5.74949 12.7489C5.74949 13.3011 5.30181 13.7488 4.74958 13.7488C4.19735 13.7488 3.74967 13.3011 3.74967 12.7489C3.74967 12.1966 4.19735 11.749 4.74958 11.749C5.30181 11.749 5.74949 12.1966 5.74949 12.7489ZM16.0984 9.6686L10.1965 15.5705C9.8524 15.9146 9.6083 16.3458 9.4903 16.8179L9.0327 18.6484C8.8336 19.4445 9.5547 20.1656 10.3508 19.9666L12.1813 19.5089C12.6534 19.3909 13.0846 19.1468 13.4287 18.8027L19.3306 12.9008C20.2231 12.0082 20.2231 10.5611 19.3306 9.6686C18.4381 8.7761 16.991 8.7761 16.0984 9.6686Z" fill="#4F52B2"/>
</svg>
