<svg width="336" height="96" viewBox="0 0 336 96" fill="none" xmlns="http://www.w3.org/2000/svg">
<g clip-path="url(#clip0_352_388)">
<path fill-rule="evenodd" clip-rule="evenodd" d="M467.475 76.8469C467.368 77.1494 467.237 77.4427 467.083 77.7238C465.131 80.6877 463.952 84.0939 463.653 87.6312C463.02 92.5942 462.46 97.5946 462.032 102.558C461.575 107.844 460.76 113.093 459.59 118.268C459.507 118.718 459.451 119.173 459.422 119.63C460.093 119.947 460.746 120.189 461.286 120.525C465.014 122.615 468.742 124.779 472.471 126.832C473.114 127.115 473.623 127.636 473.894 128.285C474.165 128.935 474.176 129.663 473.925 130.321C473.072 134.906 471.78 139.398 470.066 143.736C469.935 144.053 469.88 144.407 469.674 145.042C469.842 145.042 470.103 145.247 470.346 145.396C476.926 149.67 483.192 154.409 489.098 159.576C491.242 161.311 493.367 163.065 495.567 164.707C498.489 167.089 501.986 168.659 505.707 169.26C505.507 169.562 505.269 169.838 504.999 170.081C502.788 171.52 500.922 173.431 499.537 175.678C497.803 178.421 496.144 181.275 494.616 184.074C491.374 190.704 487.771 197.151 483.823 203.385C483.704 203.606 483.604 203.837 483.525 204.075C483.935 204.505 484.326 204.99 484.774 205.4C488.744 209.234 492.248 213.524 495.212 218.181C495.562 218.61 495.753 219.147 495.753 219.702C495.753 220.256 495.562 220.793 495.212 221.222C492.26 225.806 488.802 230.043 484.904 233.854C484.457 234.283 483.935 234.656 483.543 234.973C483.636 235.439 483.543 235.682 483.73 235.831C488.558 242.921 492.211 250.758 496.312 258.221C497.337 260.087 498.437 261.952 499.593 263.65C501.014 265.937 502.924 267.881 505.185 269.341C505.462 269.553 505.717 269.79 505.95 270.05C499.574 271.076 495.119 275.05 490.478 278.726C484.885 283.148 479.293 287.551 473.701 291.936C472.545 292.831 471.259 293.578 469.973 294.436C470.159 295.033 470.271 295.574 470.476 296.078C472.114 300.366 473.362 304.793 474.204 309.306C474.414 309.907 474.39 310.564 474.138 311.148C473.886 311.732 473.424 312.2 472.843 312.46C468.91 314.512 465.182 316.788 461.454 318.822C460.857 319.158 460.205 319.438 459.478 319.773C459.925 321.938 460.466 323.99 460.727 326.08C461.491 332.237 462.125 338.413 462.871 344.589C463.243 347.742 463.653 350.895 464.175 354.029C464.54 356.73 465.522 359.309 467.046 361.567C467.252 361.915 467.421 362.284 467.549 362.668C466.323 362.409 465.075 362.265 463.821 362.239C461.151 362.401 458.496 362.762 455.88 363.321C451.5 364.422 447.231 365.915 442.832 367.053C437.743 368.508 432.635 369.851 427.248 371.344C427.248 371.81 427.248 372.501 427.248 373.21C427.296 378.587 426.771 383.953 425.682 389.218C425.617 389.87 425.323 390.478 424.851 390.932C424.38 391.387 423.763 391.659 423.11 391.7C417.724 392.873 412.215 393.38 406.706 393.211H405.382C405.184 393.508 405.022 393.828 404.898 394.163C403.324 401.554 401.307 408.844 398.858 415.992C398.336 417.746 397.814 419.519 397.348 421.291C396.106 425.251 395.882 429.461 396.696 433.531C396.492 433.565 396.284 433.565 396.08 433.531C392.721 431.269 388.824 429.937 384.784 429.669C378.968 428.978 373.115 428.549 367.318 427.803C363.589 427.355 359.861 426.59 356.04 425.937L353.803 425.527C351.549 430.818 348.683 435.828 345.266 440.453C339.589 439.665 334.038 438.148 328.75 435.938C328.467 436.135 328.215 436.374 328.004 436.647C323.931 442.933 319.421 448.924 314.508 454.577C312.29 457.32 310.072 460.175 307.984 462.917C305.94 465.58 304.652 468.745 304.256 472.078C303.949 471.855 303.668 471.598 303.417 471.313C302.041 469.162 300.216 467.335 298.067 465.958C296.203 464.69 294.339 463.458 292.307 462.395C284.519 458.529 276.946 454.244 269.621 449.558C267.067 451.89 264.681 454.26 262.072 456.387C259.462 458.514 256.722 460.305 253.963 462.302C248.169 458.815 242.897 454.524 238.304 449.558C238.009 449.673 237.722 449.81 237.447 449.969C230.68 454.633 223.243 458.104 216.085 462.059C213.792 463.328 211.555 464.69 209.374 466.126C207.09 467.63 205.178 469.633 203.782 471.985C203.558 471.742 203.353 471.612 203.334 471.463C202.849 468.312 201.566 465.337 199.606 462.824C197.351 459.745 194.983 456.741 192.56 453.812C187.849 448.446 183.555 442.726 179.716 436.703C179.567 436.479 179.362 436.274 179.138 435.994C178.654 436.143 178.188 436.236 177.74 436.404C173.272 438.161 168.638 439.461 163.909 440.285C163.446 440.431 162.947 440.407 162.5 440.22C162.053 440.032 161.687 439.691 161.467 439.259C158.902 435.538 156.669 431.598 154.793 427.486C154.514 426.851 154.197 426.217 153.824 425.471C152.109 425.807 150.469 426.254 148.81 426.478C142.938 427.225 137.047 427.896 131.176 428.643C127.261 429.128 123.328 429.575 119.432 430.191C116.69 430.584 114.086 431.641 111.845 433.27C111.545 433.438 111.226 433.57 110.894 433.662C112.292 428.363 110.988 423.53 109.589 418.735C107.539 411.608 105.47 404.499 103.438 397.372C103.084 396.084 102.86 394.778 102.543 393.342C95.8297 393.552 89.119 392.843 82.5976 391.233C80.8743 384.745 80.1514 378.032 80.4538 371.325C80.0473 371.16 79.6301 371.023 79.2049 370.915C71.9062 369.265 64.6955 367.248 57.6002 364.87C54.9718 364.067 52.3062 363.377 49.6219 362.761C46.5678 361.981 43.3706 361.949 40.3015 362.668C40.3015 362.295 40.3015 362.071 40.3015 361.94C42.593 358.351 43.9278 354.233 44.1788 349.981C44.8498 344.085 45.2786 338.17 46.0428 332.274C46.4716 328.711 47.2359 325.166 47.9069 321.621C48.0001 321.079 48.112 320.52 48.2239 319.848C47.5714 319.512 46.9376 319.232 46.3598 318.897C42.5011 316.714 38.6425 314.493 34.7652 312.348C34.222 312.101 33.7916 311.659 33.5601 311.109C33.3285 310.559 33.3129 309.942 33.5162 309.381C34.3744 304.728 35.6727 300.167 37.3935 295.761C37.5397 295.373 37.652 294.974 37.7291 294.567C37.5917 294.377 37.4285 294.207 37.2444 294.063C29.4339 289.305 22.6672 283.185 15.5651 277.476C13.906 276.151 12.2284 274.864 10.4762 273.744C7.92489 271.815 4.92067 270.575 1.75226 270.143C1.92003 269.807 1.9759 269.565 2.10639 269.49C5.08262 267.549 7.51951 264.885 9.18994 261.747C11.3896 258.016 13.3468 254.041 15.5092 250.217C18.1375 245.552 20.8777 240.888 23.5807 236.298L24.1213 235.29L22.63 233.76C18.7301 229.961 15.2833 225.722 12.3588 221.129C12.0003 220.707 11.8035 220.171 11.8035 219.618C11.8035 219.064 12.0003 218.528 12.3588 218.106C15.2666 213.582 18.6677 209.396 22.4995 205.624C23.0098 205.183 23.5451 204.772 24.1026 204.393C23.9792 204.01 23.8297 203.636 23.6552 203.273C19.2019 196.234 15.108 188.973 11.3895 181.518C10.8117 180.455 10.2338 179.41 9.61864 178.365C7.75826 174.812 5.00133 171.808 1.62177 169.652C1.88274 169.446 2.01318 169.26 2.16231 169.241C5.4476 168.651 8.53502 167.253 11.1472 165.174C14.428 162.711 17.6156 160.155 20.7845 157.543C25.8512 153.136 31.2342 149.107 36.8902 145.49C37.1664 145.298 37.4281 145.086 37.6731 144.855C35.4828 139.502 33.9553 133.9 33.1248 128.175C37.7462 124.76 42.7512 121.898 48.0374 119.648C47.5528 117.073 46.9749 114.685 46.658 112.185C46.0242 107.427 45.5395 102.651 44.9803 97.8744C44.5516 94.1428 44.1974 90.2993 43.6382 86.5304C43.2312 83.041 41.9132 79.7205 39.8168 76.9029C40.2456 76.9029 40.4506 76.6977 40.6184 76.7536C44.9977 77.4974 49.495 77.0858 53.6669 75.5595C60.2472 73.6937 66.7155 71.6413 73.3703 69.7569C75.514 69.1412 77.7509 68.7121 80.1183 68.171C80.1183 67.35 80.1183 66.585 80.1183 65.8201C80.086 60.5204 80.6361 55.2333 81.7587 50.0541C81.7946 49.4661 82.0369 48.9096 82.4428 48.4829C82.8486 48.0562 83.3919 47.7867 83.977 47.7219C89.2225 46.5727 94.5831 46.0342 99.9522 46.1173C100.642 46.1173 101.332 46.1173 102.133 46.1173C102.301 45.5762 102.469 45.1284 102.562 44.662C104.102 37.7215 106.019 30.8701 108.303 24.1382C109.771 20.161 110.711 16.0084 111.099 11.7866C111.099 9.82755 111.006 7.86848 110.932 5.90939C110.932 5.90939 111.155 5.90939 111.23 5.90939C115.685 9.08125 120.867 9.64097 126.143 10.238C134.192 10.791 142.206 11.7688 150.152 13.1673L153.675 13.9136C155.97 8.64195 158.832 3.63682 162.213 -1.01272C167.931 -0.318134 173.53 1.14411 178.859 3.33459C179.065 3.21256 179.254 3.06179 179.418 2.88679C184.116 -4.23018 189.285 -11.0244 194.89 -17.4504C196.53 -19.4841 198.171 -21.5365 199.662 -23.6635C201.521 -26.0882 202.756 -28.933 203.26 -31.9476C203.342 -32.1492 203.462 -32.333 203.614 -32.4887C203.8 -32.3394 204.024 -32.2461 204.117 -32.0969C206.045 -29.1935 208.657 -26.8097 211.723 -25.1561C214.761 -23.2903 217.911 -21.7604 221.043 -20.0438C226.784 -16.872 232.507 -13.6628 238.491 -10.3417C242.962 -15.2566 248.146 -19.4706 253.87 -22.8425C259.593 -19.4024 264.797 -15.1615 269.323 -10.2484C269.595 -10.3155 269.858 -10.4158 270.106 -10.5469C276.78 -14.7963 283.668 -18.7009 290.741 -22.2455C292.829 -23.4023 294.935 -24.5777 296.967 -25.8464C299.541 -27.3513 301.725 -29.4414 303.342 -31.9476C303.491 -32.1902 303.547 -32.47 303.864 -32.6379C305.244 -25.9584 309.456 -21.2752 313.464 -16.4242C318.131 -11.0419 322.487 -5.39805 326.513 0.479924C327.109 1.43148 327.743 2.34573 328.377 3.46521C333.75 1.22647 339.388 -0.309939 345.154 -1.10601C348.592 3.50869 351.465 8.52002 353.71 13.8203C355.574 13.4099 357.438 12.9061 359.302 12.6822C365.398 11.8986 371.512 11.2456 377.589 10.4992C381.224 10.0514 384.877 9.585 388.475 8.98795C391.072 8.57285 393.533 7.54298 395.652 5.98401C395.952 5.82885 396.263 5.69785 396.584 5.59221C395.279 11.1896 396.677 16.3765 398.224 21.5448C400.219 28.243 402.139 34.9598 404.04 41.6767C404.45 43.0947 404.674 44.5313 405.009 46.0613C411.747 45.7737 418.49 46.465 425.03 48.1137C426.76 54.5937 427.47 61.304 427.136 68.0031C427.539 68.187 427.957 68.3368 428.385 68.4508C435.782 70.1046 443.087 72.1474 450.269 74.5706C453.308 75.4662 456.402 76.1566 459.59 76.8469C461.871 77.3786 464.243 77.3786 466.524 76.8469C466.841 76.8206 467.158 76.8206 467.475 76.8469Z" stroke="white" stroke-opacity="0.4" stroke-miterlimit="10"/>
<path fill-rule="evenodd" clip-rule="evenodd" d="M171.048 254.713C170.899 255.03 170.881 255.105 170.843 255.161L170.284 255.795C162.49 264.137 157.871 274.954 157.235 286.357C156.881 291.712 156.956 297.085 156.937 302.459C157.152 307.192 156.852 311.934 156.042 316.602C155.999 316.93 155.999 317.262 156.042 317.59C156.297 317.609 156.552 317.609 156.807 317.59C161.453 316.69 166.192 316.364 170.918 316.62C177.335 316.978 183.771 316.784 190.155 316.042C199.211 314.928 207.777 311.31 214.892 305.593C216.159 304.586 217.371 303.504 218.62 302.478C219.906 302.478 220.279 303.28 220.353 304.437C220.54 306.75 220.707 309.082 221.118 311.377C222.737 320.424 226.872 328.831 233.048 335.633C236.328 339.364 239.87 342.779 243.393 346.249C247.146 349.72 250.492 353.607 253.366 357.836C253.459 357.985 253.664 358.06 253.963 358.265C258.064 351.548 264.159 346.734 269.509 341.23C271.671 338.991 273.797 336.715 275.791 334.327C281.21 327.908 284.877 320.195 286.435 311.937C286.976 309.026 287.218 306.06 287.609 303.056L289.045 302.552L290.107 303.485C297.06 309.892 305.727 314.132 315.049 315.687C321.96 316.753 328.966 317.066 335.945 316.62C340.811 316.327 345.694 316.634 350.485 317.535C350.876 317.56 351.268 317.56 351.659 317.535C351.659 316.9 351.566 316.434 351.473 315.967C350.818 312.493 350.524 308.96 350.597 305.425C350.597 300.201 350.783 294.958 350.597 289.734C350.544 277.248 345.861 265.226 337.455 256.001C336.56 255.03 336.448 254.265 337.455 253.332H338.089C348.983 253.093 359.47 249.144 367.821 242.138C372.164 238.555 376.116 234.488 380.105 230.495C383.642 226.639 387.593 223.185 391.886 220.196C391.979 220.196 391.979 219.953 392.054 219.785C391.95 219.62 391.825 219.469 391.681 219.338C387.605 216.522 383.853 213.262 380.497 209.617C376.769 205.885 373.04 202.042 369.107 198.553C363.255 193.266 356.163 189.544 348.49 187.731C344.762 186.892 341.034 186.481 337.101 185.865C336.448 185.1 336.709 184.373 337.511 183.496C345.966 174.195 350.657 162.076 350.671 149.501C350.783 145.471 350.671 141.441 350.671 137.411C350.447 132.603 350.747 127.786 351.566 123.044C351.619 122.629 351.619 122.209 351.566 121.794C345.047 122.951 338.41 123.296 331.807 122.82C325.808 122.564 319.799 122.983 313.893 124.07C304.969 125.817 296.707 130.016 290.033 136.198C289.734 136.478 289.399 136.739 289.026 137.037L287.591 136.347C287.591 135.769 287.479 135.358 287.46 134.929C287.12 127.849 285.277 120.922 282.054 114.611C278.548 108.218 274.049 102.424 268.726 97.4453C263.656 92.445 258.194 87.8178 254.28 81.7166C254.28 81.6234 254.056 81.586 253.627 81.3248C253.531 81.5624 253.419 81.793 253.292 82.0152C250.724 85.8217 247.714 89.3102 244.325 92.4076C240.989 95.6728 237.615 98.9006 234.446 102.315C225.937 111.076 220.947 122.666 220.428 134.873C220.428 136.105 219.962 136.87 218.564 136.926L216.7 135.246C210.888 130.155 203.949 126.522 196.456 124.649C189.83 123.147 183.038 122.507 176.249 122.745C171.253 122.745 166.239 122.745 161.225 122.522C159.511 122.381 157.806 122.151 156.117 121.831C156.079 122.21 156.079 122.591 156.117 122.969C156.906 127.351 157.212 131.806 157.03 136.254C157.03 141.982 157.03 147.71 157.366 153.419C158.033 164.308 162.348 174.654 169.613 182.787L171.197 184.653L170.508 185.921C167.246 186.388 164.133 186.668 161.187 187.265C152.351 189.091 144.183 193.304 137.569 199.448C134.102 202.564 130.859 205.923 127.578 209.225C124.161 212.999 120.328 216.373 116.151 219.282C115.946 219.394 115.853 219.692 115.722 219.86C117.586 221.315 119.45 222.584 121.128 224.114C124.185 226.95 127.037 229.991 130.038 232.902C133.04 235.813 136.47 239.246 139.955 242.119C146.529 247.659 154.477 251.314 162.958 252.698C165.456 253.109 167.991 253.277 170.564 253.575L171.048 254.713Z" stroke="white" stroke-opacity="0.4" stroke-miterlimit="10"/>
<path fill-rule="evenodd" clip-rule="evenodd" d="M117.605 83.3771C117.307 85.8027 117.158 88.1909 116.71 90.5418C115.685 96.1391 114.455 101.606 113.392 107.147C111.117 117.557 110.488 128.261 111.528 138.866C112.163 145.353 114.184 151.627 117.456 157.263C117.773 157.785 118.164 158.27 118.612 158.905C120.121 158.214 121.538 157.598 122.936 157.039C125.043 156.05 127.112 154.968 129.256 154.072C130.776 153.386 132.425 153.03 134.093 153.03C135.761 153.03 137.41 153.386 138.93 154.072C139.489 154.333 140.067 154.539 140.608 154.744C141.577 153.923 141.074 153.177 140.72 152.412C139.489 149.706 138.166 147.057 136.991 144.314C133.464 135.204 131.651 125.519 131.642 115.749C131.62 110.045 132.05 104.349 132.928 98.714C133.711 98.5834 134.456 98.4154 135.202 98.3408C137.234 98.1356 139.284 97.949 141.316 97.7811C150.609 96.9024 159.982 97.5771 169.054 99.7775C175.017 101.242 180.787 103.409 186.241 106.233C187.079 106.662 187.937 107.334 188.943 106.401C188.879 106.123 188.798 105.849 188.701 105.58C187.683 103.667 187.168 101.526 187.203 99.3591C187.239 97.1919 187.825 95.0694 188.906 93.1912C189.931 91.1202 190.975 89.0305 191.963 86.9221C192.373 86.0452 192.69 85.0563 193.082 84.1794C192.094 83.5637 191.348 83.0413 190.565 82.5935C186.358 80.3345 181.813 78.7719 177.107 77.9663C167.274 76.2648 157.215 76.347 147.412 78.2089C140.813 79.3097 134.363 80.821 127.69 82.0337C124.39 82.5748 121.035 82.9107 117.605 83.3771Z" stroke="white" stroke-opacity="0.4" stroke-miterlimit="10"/>
<path fill-rule="evenodd" clip-rule="evenodd" d="M219.626 93.8257C220.931 93.6018 221.08 92.7062 221.379 91.9599C222.702 88.5455 223.858 85.0564 225.405 81.7353C231.762 68.2456 241.641 57.7225 253.478 48.916C253.571 48.916 253.739 48.916 254.037 48.916C255.752 50.2967 257.598 51.7334 259.387 53.2073C270.691 62.2612 279.415 74.1335 284.683 87.6312C285.279 89.2172 285.801 90.8218 286.342 92.4263C286.603 93.1913 286.864 93.919 287.964 93.807C288.11 93.596 288.235 93.371 288.336 93.1353C288.963 91.0978 290.09 89.25 291.614 87.7605C293.138 86.2711 295.01 85.1875 297.06 84.6087C299.26 83.8437 301.46 83.116 303.659 82.3137C304.629 81.9592 305.523 81.4928 306.716 80.989C306.008 78.7314 305.486 76.623 304.684 74.608C302.08 68.2435 298.283 62.4362 293.5 57.4986C288.576 52.336 283.171 47.6564 277.357 43.5238C269.584 37.8145 260.878 33.4486 253.646 26.7317C249.694 30.8551 244.81 33.6165 240.206 36.7137C238.342 37.9451 236.478 39.1019 234.725 40.3333C227.264 45.1826 220.384 50.8732 214.22 57.2934C208.708 62.9124 204.523 69.6958 201.973 77.1455C201.582 78.3956 201.321 79.683 200.985 81.1196L205.534 82.8175C207.976 83.7317 210.436 84.5713 212.841 85.5975C214.205 86.1912 215.434 87.0564 216.453 88.1406C217.472 89.2248 218.26 90.5052 218.769 91.9039C219.123 92.4823 219.309 93.098 219.626 93.8257Z" stroke="white" stroke-opacity="0.4" stroke-miterlimit="10"/>
<path fill-rule="evenodd" clip-rule="evenodd" d="M388.997 158.961C389.407 158.438 389.631 158.177 389.817 157.878C390.32 157.02 390.824 156.181 391.29 155.304C395.558 146.964 396.658 137.989 396.602 128.772C396.312 119.174 395.063 109.63 392.874 100.281C391.451 94.8862 390.583 89.3596 390.283 83.7877C390.283 83.6011 390.115 83.4145 390.097 83.3586C387.263 83.0041 384.504 82.7988 381.839 82.2951C374.625 80.9703 367.467 79.3844 360.234 78.153C351.197 76.4452 341.942 76.2183 332.832 77.4813C327.083 78.2471 321.533 80.1092 316.484 82.9667C315.832 83.3586 315.216 83.8064 314.471 84.3101C315.142 85.8028 315.72 87.1461 316.335 88.4895C317.342 90.6538 318.441 92.7995 319.392 95.0011C320.09 96.5532 320.44 98.2394 320.417 99.9413C320.395 101.643 320 103.319 319.262 104.853C319.001 105.394 318.833 105.991 318.628 106.532C319.746 107.315 320.492 106.718 321.331 106.289C336.616 98.3595 352.89 96.2699 369.797 98.1356C371.381 98.3036 372.966 98.5461 374.532 98.7514C374.641 99.0798 374.722 99.4168 374.774 99.7589C375.072 102.707 375.389 105.655 375.65 108.621C376.305 116.795 375.74 125.02 373.972 133.026C372.518 139.727 370.174 146.203 367.001 152.281C366.591 153.102 366.013 153.904 366.889 154.725C367.001 154.725 367.075 154.725 367.131 154.725C367.47 154.629 367.801 154.504 368.119 154.352C369.853 153.475 371.769 153.018 373.711 153.018C375.654 153.018 377.57 153.475 379.304 154.352C381.168 155.21 383.032 156.218 384.896 157.039C386.163 157.748 387.524 158.308 388.997 158.961Z" stroke="white" stroke-opacity="0.4" stroke-miterlimit="10"/>
<path fill-rule="evenodd" clip-rule="evenodd" d="M118.462 16.9362C115.61 27.0301 111.77 36.6763 109.925 47.1247C114.962 48.3068 119.785 50.2643 124.222 52.9274C128.519 55.6577 132.357 59.052 135.593 62.984L154.477 50.3899C152.478 45.8284 151.147 41.0023 150.525 36.0606C150.142 31.0659 150.455 26.0422 151.457 21.1342C140.608 18.3542 129.647 18.2609 118.462 16.9362Z" stroke="white" stroke-opacity="0.4" stroke-miterlimit="10"/>
<path fill-rule="evenodd" clip-rule="evenodd" d="M185.775 6.95421C190.044 9.6168 193.858 12.9494 197.071 16.8243C200.171 20.7121 202.643 25.0625 204.397 29.7169L226.635 25.239C225.542 14.9352 228.016 4.56792 233.644 -4.12862C224.939 -10.1925 215.413 -14.3345 206.242 -19.4655C199.382 -10.7149 191.628 -2.84121 185.775 6.95421Z" stroke="white" stroke-opacity="0.4" stroke-miterlimit="10"/>
<path fill-rule="evenodd" clip-rule="evenodd" d="M273.927 -4.12859C279.577 4.56508 282.047 14.9482 280.917 25.2577L303.286 29.7169C306.727 20.2252 313.304 12.1945 321.927 6.95424C316.167 -2.78521 308.338 -10.6589 301.422 -19.4468C292.158 -14.2972 282.632 -10.1738 273.927 -4.12859Z" stroke="white" stroke-opacity="0.4" stroke-miterlimit="10"/>
<path fill-rule="evenodd" clip-rule="evenodd" d="M81.4232 75.6901C70.9284 77.5559 61.2724 81.2874 51.2996 84.2914C51.2996 85.187 51.2995 85.8773 51.4487 86.5677C51.8215 90.5791 52.1198 94.5906 52.5858 98.5834C53.2569 104.05 54.0398 109.48 54.804 114.928C54.9788 115.769 55.2092 116.598 55.4937 117.409C65.2623 115.045 75.5438 116.078 84.648 120.339C88.9354 113.92 93.055 107.707 97.2492 101.419C89.155 94.9371 83.5611 85.8427 81.4232 75.6901Z" stroke="white" stroke-opacity="0.4" stroke-miterlimit="10"/>
<path fill-rule="evenodd" clip-rule="evenodd" d="M253.105 -20.3611C252.6 -20.149 252.108 -19.906 251.633 -19.6334C245.566 -15.7132 240.276 -10.7032 236.03 -4.85633C231.099 1.93449 228.296 10.0396 227.977 18.4288C227.816 25.3658 228.961 32.2713 231.351 38.7846C231.5 39.2137 231.761 39.6242 231.985 40.1093C232.414 39.8854 232.749 39.7362 233.029 39.5496C237.279 36.7509 241.548 33.9522 245.742 31.1349C247.718 29.7915 249.47 28.2242 251.334 26.7129C251.907 26.249 252.359 25.6544 252.654 24.9791C252.949 24.3039 253.079 23.5676 253.031 22.8321C253.031 9.1931 253.031 -4.44585 253.031 -18.0848L253.105 -20.3611Z" stroke="white" stroke-opacity="0.4" stroke-miterlimit="10"/>
<path fill-rule="evenodd" clip-rule="evenodd" d="M111.454 108.304C111.661 107.762 111.835 107.207 111.975 106.644C112.758 102.912 113.579 99.0498 114.287 95.225C114.883 91.9038 115.368 88.5454 115.871 85.2056C115.971 84.4399 115.875 83.6614 115.591 82.9434C115.307 82.2253 114.846 81.5913 114.25 81.1009C104.631 71.548 94.9875 61.9143 85.3191 52.1997C84.8344 51.7146 84.3125 51.2668 83.7719 50.7631C80.7521 56.3604 81.3672 73.1526 84.9463 82.2204C89.8674 94.7585 99.3743 102.632 111.454 108.304Z" stroke="white" stroke-opacity="0.4" stroke-miterlimit="10"/>
<path fill-rule="evenodd" clip-rule="evenodd" d="M85.1327 49.1212C85.1327 49.2891 85.1327 49.4757 85.0022 49.6623C85.5241 50.2033 86.0461 50.7631 86.5867 51.3042L113.541 78.2649C117.158 81.8845 117.586 81.9965 122.657 81.3434C122.862 81.3434 123.067 81.3435 123.272 81.2315L136.32 78.6194L142.174 77.4066C142.2 77.1898 142.2 76.9705 142.174 76.7536C142.064 76.4193 141.927 76.0948 141.764 75.7834C139.789 71.6394 137.35 67.7335 134.494 64.1408C129.877 58.2871 123.82 53.735 116.915 50.931C109.097 47.9492 100.666 46.9368 92.3653 47.983C89.9793 48.2069 87.556 48.7294 85.1327 49.1212Z" stroke="white" stroke-opacity="0.4" stroke-miterlimit="10"/>
<path fill-rule="evenodd" clip-rule="evenodd" d="M254.82 -20.1558C254.738 -19.8946 254.681 -19.6259 254.652 -19.3535C254.652 -5.02418 254.603 9.28025 254.503 23.5598C254.472 24.0552 254.557 24.5509 254.752 25.0076C254.946 25.4643 255.244 25.8694 255.622 26.1906C257.355 27.6272 259.033 29.1572 260.897 30.4259C265.483 33.5791 270.218 36.6017 274.822 39.7549C275.086 39.8827 275.36 39.9888 275.642 40.0721C275.834 39.7582 275.996 39.4271 276.127 39.0832C276.91 36.4525 277.786 33.8217 278.382 31.1536C280.756 21.6179 279.87 11.5612 275.866 2.58829C271.367 -6.68646 264.326 -14.4902 255.566 -19.9132C255.33 -20.028 255.079 -20.1097 254.82 -20.1558Z" stroke="white" stroke-opacity="0.4" stroke-miterlimit="10"/>
<path fill-rule="evenodd" clip-rule="evenodd" d="M199.531 80.056C199.848 78.9179 200.109 77.929 200.426 76.9215C202.36 70.8488 205.463 65.2139 209.56 60.3346C209.945 59.9329 210.203 59.4269 210.302 58.8795C210.402 58.3321 210.338 57.7675 210.119 57.256C208.394 52.1485 205.554 47.4895 201.806 43.617C195.472 37.3752 187.402 33.1936 178.654 31.62C178.132 31.508 177.591 31.4707 176.79 31.3588C177.107 32.2357 177.33 32.8701 177.573 33.5044C183.463 47.7218 189.391 61.9392 195.225 76.1752C195.626 77.0913 196.218 77.9113 196.96 78.5805C197.703 79.2497 198.579 79.7527 199.531 80.056Z" stroke="white" stroke-opacity="0.4" stroke-miterlimit="10"/>
<path fill-rule="evenodd" clip-rule="evenodd" d="M193.604 82.5003C194.432 80.8012 194.559 78.8444 193.958 77.0522C187.918 62.5923 181.953 48.1137 175.932 33.6351C175.669 33.0872 175.371 32.5574 175.037 32.0492C172.781 35.2138 170.904 38.633 169.445 42.2364C167.285 46.9816 166.158 52.1323 166.139 57.3467C166.12 62.561 167.209 67.7199 169.333 72.481C171.011 76.2126 170.172 75.3543 173.882 75.8581C180.259 76.5892 186.429 78.5738 192.038 81.698C192.504 82.0152 193.026 82.2204 193.604 82.5003Z" stroke="white" stroke-opacity="0.4" stroke-miterlimit="10"/>
<path fill-rule="evenodd" clip-rule="evenodd" d="M308.245 80.056C310.239 79.2147 311.82 77.6186 312.644 75.6154C318.236 61.6966 324.108 47.8337 329.85 33.9522C330.166 33.1872 330.427 32.4036 330.782 31.4707C330.378 31.4421 329.973 31.4421 329.57 31.4707C323.518 32.5817 317.731 34.8291 312.514 38.0943C305.587 42.457 300.333 49.0306 297.601 56.7522C297.332 57.3697 297.25 58.0527 297.366 58.7163C297.482 59.3798 297.791 59.9945 298.253 60.4838C302.805 65.9022 306.074 72.2805 307.816 79.1418C307.908 79.4679 308.053 79.7768 308.245 80.056Z" stroke="white" stroke-opacity="0.4" stroke-miterlimit="10"/>
<path fill-rule="evenodd" clip-rule="evenodd" d="M313.986 82.4442C314.49 82.239 314.806 82.1084 315.105 81.9591C318.054 80.4472 321.092 79.1139 324.201 77.9663C327.943 76.9522 331.739 76.1549 335.572 75.5781C335.976 75.5382 336.362 75.3908 336.69 75.1513C337.018 74.9118 337.275 74.5889 337.436 74.216C339.607 69.9947 340.918 65.3842 341.295 60.6517C342.078 50.3339 338.629 41.2288 333.074 32.7581C332.859 32.5013 332.615 32.2698 332.347 32.0677C331.993 32.8141 331.658 33.4298 331.397 34.0641C325.562 48.1509 319.765 62.2563 313.874 76.3057C313.445 77.2753 313.233 78.327 313.252 79.3874C313.271 80.4477 313.522 81.491 313.986 82.4442Z" stroke="white" stroke-opacity="0.4" stroke-miterlimit="10"/>
<path fill-rule="evenodd" clip-rule="evenodd" d="M254.634 51.2668C254.634 52.5729 254.503 53.3938 254.503 54.2335C254.503 61.566 254.503 68.9173 254.503 76.2685C254.441 78.2699 255.037 80.2364 256.2 81.8659C258.856 85.5288 261.886 88.9054 265.24 91.9412C265.632 92.3143 266.079 92.6315 266.322 92.8368C268.322 92.0958 270.363 91.4728 272.436 90.971C274.459 90.663 276.513 90.6066 278.55 90.803C280.616 91.0897 282.663 91.4946 284.683 92.0158C281.832 83.0948 277.372 74.7725 271.522 67.4619C266.587 61.3819 260.914 55.9415 254.634 51.2668Z" stroke="white" stroke-opacity="0.4" stroke-miterlimit="10"/>
<path fill-rule="evenodd" clip-rule="evenodd" d="M222.851 92.2771C225.804 91.0995 228.972 90.5574 232.148 90.686C235.325 90.8145 238.438 91.611 241.287 93.0234C243.412 90.8591 245.574 88.844 247.532 86.6424C249.219 84.6482 250.793 82.5615 252.248 80.3919C252.737 79.6276 253.008 78.7435 253.031 77.8358C253.031 69.5517 253.031 61.2862 253.031 53.0207C252.973 52.4775 252.867 51.9405 252.714 51.4161C238.77 62.0885 228.443 75.0744 222.851 92.2771Z" stroke="white" stroke-opacity="0.4" stroke-miterlimit="10"/>
<path fill-rule="evenodd" clip-rule="evenodd" d="M290.629 132.69L291.095 132.97C295.975 128.994 301.541 125.946 307.518 123.977C313.513 122.169 319.73 121.208 325.991 121.122C325.991 120.637 325.991 120.413 325.991 120.245C325.748 119.734 325.467 119.241 325.152 118.771C323.1 116.032 320.091 114.166 316.726 113.547C315.422 113.211 314.079 113.081 312.775 112.763C312.031 112.669 311.325 112.386 310.722 111.941C310.12 111.495 309.642 110.903 309.333 110.22C309.025 109.537 308.896 108.786 308.96 108.039C309.024 107.292 309.279 106.574 309.699 105.953C310.345 104.948 310.924 103.901 311.432 102.819C311.967 101.6 312.301 100.302 312.42 98.9753C312.42 97.1095 309.792 91.9226 308.152 90.2993L290.629 132.69Z" stroke="white" stroke-opacity="0.4" stroke-miterlimit="10"/>
<path fill-rule="evenodd" clip-rule="evenodd" d="M272.193 98.6954C276.621 103.223 280.387 108.355 283.378 113.939C286.233 119.661 288.044 125.846 288.728 132.205C290.145 130.339 306.288 91.1575 306.381 89.2917C304.125 90.0381 301.944 90.7471 299.763 91.512C298.816 91.8185 297.959 92.353 297.267 93.0688C296.574 93.7845 296.068 94.6595 295.793 95.6168C295.345 97.0161 294.954 98.4528 294.544 99.8708C294.399 100.543 294.095 101.17 293.657 101.7C293.22 102.23 292.661 102.647 292.029 102.916C291.397 103.184 290.71 103.297 290.025 103.245C289.34 103.192 288.678 102.976 288.094 102.614C286.976 102.016 286.025 101.121 284.907 100.542C283.119 99.5481 281.247 98.7116 279.314 98.0423C276.944 97.3437 274.397 97.5773 272.193 98.6954Z" stroke="white" stroke-opacity="0.4" stroke-miterlimit="10"/>
<path fill-rule="evenodd" clip-rule="evenodd" d="M198.935 90.2059C197.798 92.5009 196.698 94.7025 195.654 96.9041C195.269 97.7054 195.079 98.587 195.102 99.4761C195.125 100.365 195.359 101.236 195.785 102.016C196.437 103.341 197.183 104.629 197.891 105.935C198.32 106.548 198.584 107.261 198.658 108.005C198.732 108.75 198.613 109.501 198.314 110.187C198.015 110.872 197.544 111.469 196.948 111.92C196.351 112.372 195.649 112.662 194.909 112.763C193.604 113.081 192.262 113.23 190.957 113.547C189.11 113.861 187.351 114.566 185.799 115.615C184.246 116.664 182.935 118.033 181.953 119.63C181.737 120.13 181.562 120.648 181.431 121.178C194.573 121.29 206.429 124.667 216.681 133.157C216.457 131.104 200.203 91.7732 198.935 90.2059Z" stroke="white" stroke-opacity="0.4" stroke-miterlimit="10"/>
<path fill-rule="evenodd" clip-rule="evenodd" d="M201.284 89.3104L200.874 89.7769C206.69 103.882 212.518 117.988 218.359 132.093H218.881C219.544 125.85 221.305 119.774 224.082 114.144C227.078 108.519 230.842 103.338 235.266 98.7513C234.949 98.5651 234.619 98.403 234.278 98.2662C232.474 97.7569 230.581 97.6466 228.73 97.943C226.879 98.2394 225.115 98.9354 223.56 99.9828C222.348 100.692 221.192 101.531 220.055 102.334C219.444 102.822 218.717 103.142 217.944 103.263C217.172 103.384 216.381 103.3 215.65 103.021C214.92 102.743 214.275 102.278 213.779 101.673C213.283 101.068 212.953 100.344 212.822 99.5723C212.474 97.9863 211.994 96.4322 211.387 94.9265C211.153 94.2529 210.775 93.6385 210.279 93.1261C209.783 92.6138 209.182 92.2158 208.516 91.9599C206.186 91.027 203.726 90.1873 201.284 89.3104Z" stroke="white" stroke-opacity="0.4" stroke-miterlimit="10"/>
<path fill-rule="evenodd" clip-rule="evenodd" d="M136.973 64.346C139.508 68.6373 141.95 72.8167 144.429 77.0521C152.392 75.6181 160.48 74.993 168.569 75.1863C167.954 72.8727 156.658 53.711 155.073 52.1624C148.719 55.7246 142.666 59.7993 136.973 64.346Z" stroke="white" stroke-opacity="0.4" stroke-miterlimit="10"/>
<path fill-rule="evenodd" clip-rule="evenodd" d="M230.307 41.3968C229.04 36.5457 227.828 31.8812 226.579 27.0488C219.268 28.0436 212.027 29.5019 204.9 31.4148C206.429 35.7994 206.522 40.3146 208.255 44.4754C209.989 48.6361 209.728 53.17 211.984 57.5359C217.483 51.5016 223.628 46.0895 230.307 41.3968Z" stroke="white" stroke-opacity="0.4" stroke-miterlimit="10"/>
<path fill-rule="evenodd" clip-rule="evenodd" d="M295.55 57.4427C298.389 48.9032 300.626 40.1747 302.242 31.3215C295.237 29.4857 288.129 28.0714 280.955 27.0862C279.668 31.9932 278.438 36.6577 277.227 41.4528C283.926 46.0635 290.074 51.4286 295.55 57.4427Z" stroke="white" stroke-opacity="0.4" stroke-miterlimit="10"/>
<path fill-rule="evenodd" clip-rule="evenodd" d="M195.934 79.8322C194.927 84.2516 193.282 88.5005 191.05 92.4449C190.584 93.3778 190.174 94.3107 189.745 95.3369C189.013 96.9141 188.678 98.6468 188.769 100.384C188.86 102.12 189.374 103.808 190.267 105.3L191.46 107.465C191.367 107.595 191.33 107.67 191.255 107.688L188.645 108.453C185.859 109.168 183.263 110.484 181.038 112.308C178.813 114.132 177.013 116.421 175.764 119.014C175.448 119.667 174.851 120.301 175.354 121.253H178.281C178.63 121.296 178.984 121.22 179.285 121.037C179.586 120.854 179.817 120.575 179.94 120.245C182.251 115.189 186.52 112.894 191.702 111.942C192.751 111.782 193.79 111.564 194.815 111.289C195.294 111.212 195.746 111.013 196.126 110.712C196.507 110.411 196.805 110.018 196.992 109.57C197.178 109.121 197.248 108.633 197.193 108.15C197.138 107.667 196.962 107.207 196.679 106.812C195.952 105.45 195.132 104.125 194.48 102.725C193.626 101.072 193.452 99.1505 193.995 97.3706C195.225 93.639 197.369 90.5978 198.935 87.0528C202.048 88.079 204.919 89.0492 207.808 89.9448C209.238 90.3616 210.532 91.1514 211.558 92.2332C212.583 93.3151 213.302 94.6502 213.643 96.1019C213.978 97.2587 214.239 98.4341 214.593 99.5723C214.674 100.033 214.867 100.466 215.157 100.833C215.447 101.201 215.823 101.49 216.252 101.675C216.681 101.86 217.149 101.935 217.615 101.894C218.08 101.853 218.528 101.696 218.918 101.438C219.719 100.985 220.485 100.473 221.211 99.9081C225.647 96.7736 230.382 95.2996 235.769 97.1654C236.025 97.2396 236.294 97.258 236.558 97.2194C236.822 97.1808 237.074 97.086 237.298 96.9415C238.25 96.1121 239.152 95.2275 240.001 94.2921C239.087 93.9002 238.472 93.5644 237.82 93.3405C235 92.3888 232.002 92.0808 229.048 92.4391C226.093 92.7975 223.256 93.8131 220.745 95.4115L218.713 96.5497C218.582 96.0832 218.489 95.822 218.433 95.5421C218.03 93.2289 216.97 91.0807 215.38 89.3537C213.79 87.6268 211.738 86.3941 209.467 85.8027C204.667 84.5462 200.099 82.5307 195.934 79.8322Z" stroke="white" stroke-opacity="0.4" stroke-miterlimit="10"/>
<path fill-rule="evenodd" clip-rule="evenodd" d="M316.279 107.819C316.279 107.577 316.167 107.502 316.186 107.465C316.281 107.2 316.4 106.944 316.54 106.7C317.921 104.794 318.704 102.521 318.79 100.168C318.877 97.8162 318.262 95.4915 317.025 93.4898C316.857 93.1912 316.708 92.8554 316.559 92.5382C314.464 88.8552 312.872 84.9082 311.824 80.8023C311.824 80.5971 311.619 80.4479 311.451 80.1866L310.519 80.6344C307.835 81.8472 305.169 83.1346 302.429 84.366C300.565 85.187 298.458 85.8027 296.464 86.5303C294.761 87.1469 293.24 88.1801 292.039 89.5358C290.837 90.8915 289.994 92.5266 289.585 94.292C289.38 95.0197 289.157 95.7474 288.914 96.6616C285.884 94.4471 282.357 93.0119 278.643 92.4822C274.786 91.8936 270.844 92.6302 267.459 94.5719C268.298 95.1357 269.095 95.7592 269.845 96.4377C270.131 96.7907 270.527 97.0376 270.969 97.1391C271.412 97.2405 271.876 97.1907 272.287 96.9974C274.447 96.3008 276.739 96.1186 278.982 96.4652C281.225 96.8118 283.355 97.6776 285.205 98.9938C286.342 99.6842 287.386 100.542 288.541 101.233C288.933 101.55 289.403 101.756 289.902 101.83C290.4 101.904 290.909 101.842 291.376 101.651C291.843 101.461 292.25 101.148 292.554 100.746C292.859 100.344 293.051 99.8681 293.108 99.367C293.519 98.0236 293.854 96.643 294.32 95.3182C294.8 93.5243 295.956 91.9863 297.545 91.0269C301.182 89.4529 304.918 88.1191 308.73 87.0341L313.054 95.5608C313.719 96.8191 314.045 98.2283 314.003 99.6509C313.96 101.073 313.55 102.461 312.812 103.677C312.234 104.722 311.619 105.748 311.06 106.812C310.773 107.199 310.59 107.653 310.527 108.131C310.465 108.609 310.525 109.095 310.702 109.543C310.879 109.991 311.168 110.387 311.54 110.692C311.913 110.998 312.357 111.203 312.83 111.289C313.786 111.553 314.757 111.752 315.738 111.886C321.014 112.838 325.339 115.114 327.725 120.227C327.818 120.446 327.956 120.644 328.129 120.807C328.302 120.971 328.507 121.097 328.731 121.178C330.003 121.391 331.305 121.334 332.552 121.01C332.007 118.833 330.939 116.821 329.439 115.152C326.064 111.218 321.398 108.618 316.279 107.819Z" stroke="white" stroke-opacity="0.4" stroke-miterlimit="10"/>
<path fill-rule="evenodd" clip-rule="evenodd" d="M303.659 35.053C303.939 34.6799 304.237 34.3067 304.498 33.9336C308.318 28.4519 313.401 23.972 319.317 20.873C324.502 18.1525 330.082 16.2637 335.852 15.2756C336.438 15.2298 336.998 15.0126 337.462 14.651C337.926 14.2895 338.273 13.7995 338.462 13.2419C339.841 9.62224 341.407 6.05856 342.861 2.47623C343.063 1.89734 343.225 1.30509 343.346 0.703735C332.031 2.8494 322.039 6.95416 314.042 15.145C308.668 20.591 305.051 27.5263 303.659 35.053Z" stroke="white" stroke-opacity="0.4" stroke-miterlimit="10"/>
<path fill-rule="evenodd" clip-rule="evenodd" d="M162.604 1.78589C162.343 1.78589 162.175 1.78589 162.101 1.93516C161.864 2.19448 161.651 2.47559 161.467 2.77476C158.311 7.47217 155.803 12.5746 154.011 17.9437C152.118 23.5431 151.417 29.4772 151.953 35.3641C152.489 41.2511 154.25 46.9605 157.124 52.125C157.441 52.7221 157.832 53.2818 158.186 53.8602C158.413 53.4715 158.48 53.0099 158.373 52.5728C157.38 46.7887 157.596 40.8614 159.006 35.165C160.693 28.5882 163.56 22.3734 167.469 16.8242C167.795 16.4237 167.997 15.9366 168.05 15.4228C168.103 14.909 168.005 14.3909 167.768 13.9322C166.22 10.3872 164.785 6.78621 163.294 3.20388C163.09 2.71898 162.86 2.24561 162.604 1.78589Z" stroke="white" stroke-opacity="0.4" stroke-miterlimit="10"/>
<path fill-rule="evenodd" clip-rule="evenodd" d="M204.21 35.2584C204.142 34.6319 204.042 34.0092 203.912 33.3926C201.902 26.0586 197.947 19.4054 192.467 14.1375C185.093 7.35354 175.934 2.82184 166.071 1.07698C165.493 0.965029 164.916 0.927725 163.983 0.797119C165.848 5.46161 167.712 9.73429 169.464 14.0443C169.837 14.9399 170.601 15.0145 171.328 15.2011C173.788 15.7981 176.305 16.2459 178.784 17.0669C188.757 20.1641 197.257 25.4443 203.278 34.2135C203.409 34.4188 203.651 34.6426 204.21 35.2584Z" stroke="white" stroke-opacity="0.4" stroke-miterlimit="10"/>
<path fill-rule="evenodd" clip-rule="evenodd" d="M113.131 8.80127C113.031 9.16253 112.956 9.53039 112.908 9.90211C112.823 13.9291 112.119 17.919 110.82 21.7312C108.956 27.7578 107.185 33.747 105.451 39.7921C104.742 41.9146 104.328 44.1245 104.221 46.3597L108.396 46.7702C110.466 35.8553 114.473 25.7614 117.344 15.2569C128.976 16.7496 140.571 16.8242 151.941 19.5856C152.426 18.1116 152.818 16.8802 153.228 15.5555C152.613 15.3502 152.24 15.1823 151.83 15.089C146.256 13.871 140.608 13.0233 134.922 12.5515C127.652 11.7492 120.327 11.7865 113.131 8.80127Z" stroke="white" stroke-opacity="0.4" stroke-miterlimit="10"/>
<path fill-rule="evenodd" clip-rule="evenodd" d="M80.5098 69.9248L79.2236 70.0741C72.9043 71.2309 66.8461 73.3579 60.6759 75.1304C56.3513 76.3805 51.9707 77.4626 47.6273 78.5075C46.217 78.7506 44.7896 78.8816 43.3586 78.8993C43.3586 79.2351 43.3586 79.3844 43.3586 79.515C45.0831 84.3151 46.0821 89.346 46.3225 94.4413C46.8444 99.7775 47.3477 105.114 48.0188 110.431C48.3916 113.286 49.0813 116.029 49.6779 119.163L53.928 117.782C51.1691 106.289 51.0945 94.7399 49.5846 83.1533L81.0877 73.8243C80.8826 72.6302 80.7149 71.3801 80.5098 69.9248Z" stroke="white" stroke-opacity="0.4" stroke-miterlimit="10"/>
<path fill-rule="evenodd" clip-rule="evenodd" d="M303.268 -29.1116C299.785 -25.7384 295.774 -22.9589 291.394 -20.8834C288.15 -19.1669 284.888 -17.4877 281.682 -15.6965C278.475 -13.9053 275.251 -11.9649 272.026 -9.98717C271.522 -9.66999 271.075 -9.24086 270.553 -8.83039L271.765 -7.13251L273.126 -5.45331C282.241 -11.7037 292.232 -16.0137 301.758 -21.4245C308.879 -12.0955 317.062 -3.86738 323.139 6.15194L326.979 4.11823C326.289 2.99876 325.767 1.97258 325.115 1.09565C321.163 -4.05394 317.23 -9.22219 313.185 -14.2972C309.512 -18.8684 305.598 -23.253 303.268 -29.1116Z" stroke="white" stroke-opacity="0.4" stroke-miterlimit="10"/>
<path fill-rule="evenodd" clip-rule="evenodd" d="M237.167 -8.94235C235.024 -10.3044 233.085 -11.7037 230.997 -12.8605C226.001 -15.6219 220.931 -18.2713 215.917 -20.9767C211.913 -22.9058 208.219 -25.4212 204.956 -28.4399C204.708 -28.5941 204.438 -28.7075 204.154 -28.7758C202.278 -24.4608 199.716 -20.4786 196.568 -16.9839C193.883 -13.7188 191.124 -10.491 188.533 -7.13252C185.942 -3.77409 183.892 -0.732856 181.599 2.47631C181.24 3.07569 180.922 3.69909 180.648 4.34211L184.376 6.2079C190.472 -3.88605 198.655 -12.1329 205.795 -21.3872C215.32 -15.9204 225.312 -11.6291 234.446 -5.37867L237.167 -8.94235Z" stroke="white" stroke-opacity="0.4" stroke-miterlimit="10"/>
<path fill-rule="evenodd" clip-rule="evenodd" d="M170.974 16.7123C170.974 17.1974 170.974 17.4213 170.974 17.5892C172.465 21.3208 173.994 24.8845 175.466 28.5414C175.59 28.8669 175.802 29.1512 176.079 29.3622C176.355 29.5733 176.686 29.7026 177.032 29.7355C178.766 30.0714 180.481 30.4632 182.196 30.911C192.224 33.635 200.836 38.6167 206.839 47.2927C206.998 47.4831 207.187 47.6469 207.398 47.7778C205.598 39.4941 200.987 32.0902 194.349 26.8249C187.561 21.4895 179.508 18.0054 170.974 16.7123Z" stroke="white" stroke-opacity="0.4" stroke-miterlimit="10"/>
<path fill-rule="evenodd" clip-rule="evenodd" d="M336.747 16.787C336.229 16.7961 335.712 16.8398 335.199 16.9176C329.091 18.0993 323.233 20.3274 317.882 23.5038C309.337 28.5613 303.048 36.6985 300.304 46.2479C300.213 46.8094 300.163 47.3769 300.155 47.9458L301.255 46.5837C305.211 41.211 310.464 36.9294 316.521 34.1389C320.868 32.089 325.47 30.6331 330.204 29.8102C330.687 29.7528 331.143 29.5566 331.516 29.2454C331.89 28.9341 332.166 28.5212 332.31 28.0564C333.615 24.7912 334.994 21.5448 336.318 18.2796C336.492 17.7917 336.636 17.2931 336.747 16.787Z" stroke="white" stroke-opacity="0.4" stroke-miterlimit="10"/>
<path fill-rule="evenodd" clip-rule="evenodd" d="M338.424 17.2906C336.691 21.5073 335.125 25.3696 333.485 29.1944C333.374 29.5103 333.35 29.8502 333.416 30.1785C333.481 30.5068 333.634 30.8113 333.857 31.0602C335.405 33.6537 337.082 36.2285 338.406 38.9339C342.344 46.5217 343.792 55.1593 342.544 63.6183C342.497 64.121 342.497 64.627 342.544 65.1296C347.265 57.7197 349.207 48.8737 348.024 40.1653C346.865 32.379 343.938 24.9623 339.468 18.4848C339.146 18.0653 338.797 17.6665 338.424 17.2906Z" stroke="white" stroke-opacity="0.4" stroke-miterlimit="10"/>
<path fill-rule="evenodd" clip-rule="evenodd" d="M169.147 17.4773C157.757 32.4037 156.098 52.0878 165.251 65.4655C165.121 64.3274 165.065 63.4505 164.915 62.5736C164.383 58.651 164.497 54.6676 165.251 50.7817C166.564 43.9717 169.316 37.5211 173.322 31.8626C173.76 31.3268 174.025 30.6706 174.081 29.9808C174.138 29.2911 173.984 28.6004 173.639 28.0004C172.335 25.183 171.253 22.291 170.06 19.4177C169.799 18.802 169.482 18.2609 169.147 17.4773Z" stroke="white" stroke-opacity="0.4" stroke-miterlimit="10"/>
<path fill-rule="evenodd" clip-rule="evenodd" d="M164.021 309.418C166.09 303.709 165.885 298.13 165.885 292.626C165.885 287.532 165.885 282.439 166.314 277.383C167.004 269.303 169.942 261.579 174.795 255.086C175.168 254.583 175.522 254.041 175.932 253.444L174.441 252.623L175.019 251.056L171.291 250.422C162.786 248.765 154.914 244.758 148.567 238.854C145.268 235.869 142.192 232.641 139.079 229.525C135.751 225.77 131.804 222.614 127.41 220.196C127.298 220.196 127.242 219.972 127.019 219.673L127.541 219.412C131.636 217.168 135.322 214.247 138.446 210.774C141.614 207.546 144.746 204.262 148.064 201.221C154.657 194.934 162.946 190.717 171.906 189.093L174.59 188.589C174.59 188.589 174.683 188.496 174.851 188.347C174.702 187.974 174.553 187.526 174.366 187.003L175.839 186.238C175.711 185.96 175.561 185.692 175.392 185.436C170.643 179.239 167.557 171.93 166.425 164.203C165.777 158.875 165.546 153.504 165.736 148.139C165.736 144.258 165.736 140.359 165.4 136.496C165.128 134.42 164.723 132.364 164.189 130.339C164.485 130.292 164.787 130.292 165.083 130.339C170.062 131.707 175.24 132.199 180.387 131.795C187.093 131.398 193.821 131.761 200.445 132.877C206.769 134.108 212.752 136.692 217.986 140.452L220.036 141.888L220.819 140.545L222.329 140.862C222.425 140.738 222.5 140.599 222.553 140.452C224.081 128.231 230.177 118.473 238.845 110.077C241.175 107.819 243.524 105.561 245.835 103.267C248.856 100.483 251.378 97.201 253.292 93.5644C253.451 93.3583 253.632 93.1706 253.832 93.0046C253.966 93.1744 254.084 93.3554 254.186 93.5457C256.507 97.7573 259.526 101.543 263.115 104.74C266.433 108.024 269.807 111.233 272.939 114.704C278.52 120.761 282.381 128.201 284.124 136.254C284.422 137.709 284.646 139.164 284.925 140.806L286.566 140.452L287.349 141.87C288.094 141.347 288.728 140.937 289.343 140.489C296.307 135.438 304.579 132.504 313.166 132.037C318.292 131.72 323.456 131.832 328.601 131.813C333.5 132.041 338.402 131.41 343.085 129.947C343.085 130.227 343.29 130.432 343.234 130.582C341.767 135.904 341.218 141.438 341.612 146.945C341.857 152.172 341.72 157.41 341.202 162.617C340.292 170.745 337.214 178.479 332.292 185.007L331.62 185.977C331.805 186.173 332.004 186.354 332.217 186.518C332.484 186.646 332.757 186.759 333.037 186.854C332.869 187.377 332.758 187.824 332.59 188.384C332.986 188.549 333.399 188.674 333.82 188.757C339.857 189.557 345.663 191.596 350.876 194.746C356.248 198.165 361.144 202.28 365.435 206.986C367.448 209.076 369.443 211.165 371.512 213.199C373.893 215.625 376.643 217.658 379.658 219.226C379.882 219.356 380.087 219.524 380.31 219.673C380.198 219.879 380.18 220.047 380.087 220.103C375.69 222.525 371.737 225.68 368.399 229.432C365.696 232.212 363.012 235.029 360.178 237.678C354.09 243.653 346.514 247.886 338.238 249.937C336.374 250.366 334.51 250.683 332.534 251.075L333.037 252.605L331.565 253.444C331.993 254.041 332.329 254.564 332.702 255.068C338.088 262.414 341.152 271.206 341.5 280.312C341.761 285.592 341.5 290.91 341.593 296.208C341.462 300.379 342.003 304.543 343.196 308.541C343.236 308.882 343.236 309.227 343.196 309.567C336.709 307.198 330.148 307.795 323.586 307.851C317.33 308.122 311.064 307.583 304.945 306.246C299.165 304.848 293.722 302.311 288.933 298.783L287.423 297.701L286.547 299.138L284.962 298.634C284.664 300.313 284.441 301.824 284.105 303.336C282.416 311.124 278.721 318.335 273.386 324.251C270.441 327.572 267.198 330.632 264.066 333.804C262.407 335.521 260.58 337.125 259.07 338.972C257.206 341.305 255.454 343.823 253.609 346.436C253.527 346.309 253.452 346.179 253.385 346.044C251.03 341.77 247.966 337.928 244.325 334.681C241.063 331.435 237.727 328.281 234.651 324.867C228.949 318.716 225.037 311.122 223.336 302.907C223.038 301.526 222.814 300.145 222.534 298.615L220.894 299.082L220.242 297.664C219.798 297.9 219.369 298.162 218.955 298.447C213.441 302.566 207.069 305.385 200.314 306.694C194.531 307.644 188.668 308.019 182.811 307.814C178.374 307.814 173.919 307.982 169.501 308.243C167.649 308.504 165.817 308.897 164.021 309.418Z" stroke="white" stroke-opacity="0.4" stroke-miterlimit="10"/>
<path fill-rule="evenodd" clip-rule="evenodd" d="M253.776 96.2885C253.665 96.2885 253.515 96.4004 253.441 96.5124C250.162 101.016 246.413 105.156 242.256 108.864C239.591 111.495 236.962 114.181 234.558 117.017C229.712 122.586 226.374 129.305 224.864 136.534C224.32 138.192 224.161 139.954 224.398 141.683L227.847 142.28C228.089 141.683 228.276 141.31 228.406 140.918C230.432 135.468 233.532 130.481 237.522 126.253C239.964 123.641 242.517 121.085 245.127 118.603C248.535 115.622 251.388 112.059 253.553 108.08C253.553 108.08 253.758 107.968 254.037 107.838C256.535 113.23 260.879 117.055 265.054 121.048C266.918 122.913 268.782 124.779 270.497 126.645C274.271 130.769 277.226 135.575 279.202 140.806C279.389 141.254 279.594 141.683 279.874 142.28L283.341 141.534C283.341 140.937 283.341 140.582 283.341 140.247C283.317 139.683 283.254 139.122 283.154 138.567C282.163 132.631 279.968 126.961 276.705 121.906C273.916 117.733 270.678 113.878 267.049 110.413C262.538 105.953 257.728 101.811 254.168 96.4377C254.075 96.4004 253.907 96.3631 253.776 96.2885Z" stroke="white" stroke-opacity="0.4" stroke-miterlimit="10"/>
<path d="M320.455 87.1461C320.942 87.1509 321.414 87.3161 321.798 87.6162C322.182 87.9163 322.457 88.3347 322.58 88.8067C322.655 89.0885 322.674 89.3825 322.635 89.6717C322.596 89.9609 322.5 90.2395 322.353 90.4912C322.206 90.7429 322.01 90.9628 321.776 91.1381C321.543 91.3133 321.278 91.4405 320.995 91.5121C320.809 91.5304 320.622 91.5304 320.436 91.5121C319.947 91.5138 319.472 91.3509 319.086 91.0498C318.701 90.7487 318.428 90.3267 318.311 89.8515C318.238 89.571 318.221 89.2788 318.262 88.9917C318.302 88.7047 318.398 88.4284 318.546 88.1788C318.693 87.9291 318.888 87.7111 319.119 87.5371C319.351 87.363 319.615 87.2365 319.895 87.1648C320.081 87.1466 320.269 87.1466 320.455 87.1648V87.1461Z" stroke="white" stroke-opacity="0.4" stroke-miterlimit="10"/>
<path d="M320.455 85.84C320.152 85.8299 319.85 85.8677 319.56 85.9519C319.111 86.0626 318.689 86.2614 318.318 86.5369C317.946 86.8123 317.634 87.1589 317.397 87.5565C316.924 88.3679 316.79 89.3335 317.025 90.2433C317.216 91.0027 317.656 91.6761 318.274 92.1563C318.892 92.6364 319.653 92.8957 320.436 92.8927C320.727 92.9183 321.021 92.9183 321.312 92.8927C321.763 92.7754 322.186 92.5704 322.557 92.2893C322.929 92.0082 323.241 91.6565 323.476 91.2545C323.712 90.8525 323.866 90.4079 323.929 89.9462C323.993 89.4846 323.965 89.0149 323.847 88.564C323.656 87.8096 323.218 87.1408 322.603 86.6641C321.989 86.1874 321.232 85.9302 320.455 85.9333V85.84Z" stroke="white" stroke-opacity="0.4" stroke-miterlimit="10"/>
<path d="M269.453 50.5392C269.883 50.5384 270.303 50.6615 270.665 50.8936C270.908 51.0522 271.118 51.2573 271.281 51.4972C271.445 51.7371 271.559 52.0071 271.618 52.2915C271.677 52.576 271.679 52.8693 271.624 53.1545C271.57 53.4397 271.459 53.7113 271.299 53.9535C271.096 54.2615 270.819 54.5135 270.493 54.6863C270.167 54.8591 269.803 54.9472 269.435 54.9424C269.005 54.9431 268.584 54.8201 268.223 54.5879C267.98 54.4294 267.77 54.2243 267.607 53.9843C267.443 53.7444 267.329 53.4745 267.27 53.19C267.211 52.9056 267.209 52.6123 267.263 52.3271C267.318 52.0418 267.429 51.7703 267.589 51.528C267.791 51.2188 268.068 50.9659 268.394 50.793C268.72 50.62 269.084 50.5327 269.453 50.5392Z" stroke="white" stroke-opacity="0.4" stroke-miterlimit="10"/>
<path d="M285.428 62.6109C285.981 62.6077 286.514 62.8144 286.92 63.1893C287.134 63.3838 287.309 63.6188 287.432 63.8808C287.556 64.1428 287.627 64.4267 287.641 64.7162C287.655 65.0057 287.611 65.2951 287.513 65.5678C287.415 65.8404 287.264 66.091 287.069 66.3052C286.861 66.5341 286.608 66.7171 286.325 66.8424C286.043 66.9677 285.737 67.0326 285.428 67.0328C284.882 67.0369 284.354 66.8297 283.956 66.4544C283.524 66.0615 283.264 65.5142 283.233 64.9309C283.201 64.3477 283.401 63.7756 283.788 63.3385C283.996 63.1096 284.249 62.9266 284.531 62.8013C284.814 62.676 285.119 62.6111 285.428 62.6109Z" stroke="white" stroke-opacity="0.4" stroke-miterlimit="10"/>
<path d="M298.235 77.9664C298.616 77.9736 298.989 78.0807 299.316 78.2771C299.643 78.4736 299.913 78.7524 300.099 79.0859C300.242 79.3356 300.334 79.6111 300.37 79.8966C300.406 80.182 300.385 80.4718 300.309 80.7493C300.233 81.0267 300.102 81.2863 299.926 81.5132C299.749 81.74 299.529 81.9297 299.279 82.0712C298.945 82.2673 298.565 82.3704 298.179 82.3697C297.798 82.3607 297.426 82.2528 297.099 82.0566C296.772 81.8603 296.502 81.5825 296.315 81.2502C296.171 80.9991 296.079 80.7222 296.043 80.4353C296.006 80.1484 296.027 79.8571 296.103 79.5782C296.179 79.2992 296.31 79.038 296.487 78.8095C296.664 78.581 296.884 78.3896 297.135 78.2463C297.468 78.0501 297.848 77.9471 298.235 77.9478V77.9664Z" stroke="white" stroke-opacity="0.4" stroke-miterlimit="10"/>
<path d="M269.453 49.2145C268.869 49.2139 268.295 49.3585 267.781 49.6353C267.267 49.9122 266.829 50.3125 266.508 50.8004C266.252 51.1863 266.075 51.6189 265.986 52.0734C265.897 52.5279 265.899 52.9955 265.99 53.4494C266.082 53.9034 266.262 54.3348 266.521 54.719C266.779 55.1032 267.11 55.4328 267.496 55.6888C268.077 56.0706 268.758 56.2719 269.453 56.2672C270.037 56.2678 270.612 56.1232 271.126 55.8463C271.64 55.5695 272.077 55.1691 272.398 54.6813C272.656 54.295 272.834 53.8615 272.923 53.4058C273.012 52.9501 273.009 52.4813 272.915 52.0266C272.822 51.5719 272.639 51.1403 272.377 50.7568C272.116 50.3734 271.781 50.0458 271.392 49.7929C270.836 49.431 270.191 49.2307 269.528 49.2145H269.453Z" stroke="white" stroke-opacity="0.4" stroke-miterlimit="10"/>
<path d="M285.428 61.2861C284.937 61.2895 284.452 61.3939 284.003 61.5929C283.554 61.7919 283.151 62.0812 282.819 62.4429C282.197 63.1407 281.872 64.0543 281.913 64.9887C281.955 65.923 282.36 66.804 283.042 67.4433C283.699 68.0299 284.548 68.3552 285.428 68.3575C285.92 68.3587 286.407 68.2564 286.856 68.0571C287.306 67.8578 287.709 67.566 288.038 67.2007C288.672 66.5113 289.007 65.5991 288.97 64.6632C288.921 63.7282 288.506 62.8501 287.814 62.219C287.164 61.6194 286.313 61.2864 285.428 61.2861Z" stroke="white" stroke-opacity="0.4" stroke-miterlimit="10"/>
<path d="M298.235 76.623C297.621 76.6271 297.018 76.7876 296.482 77.0895C295.676 77.5584 295.085 78.3254 294.838 79.2256C294.59 80.1258 294.706 81.0873 295.159 81.9032C295.46 82.4595 295.904 82.9255 296.444 83.2534C296.985 83.5813 297.603 83.7593 298.235 83.769C298.849 83.7692 299.454 83.6084 299.987 83.3026C300.801 82.8343 301.397 82.0631 301.646 81.1569C301.886 80.2496 301.759 79.2841 301.292 78.4702C300.995 77.9141 300.555 77.4477 300.018 77.1196C299.48 76.7914 298.864 76.6135 298.235 76.6044V76.623Z" stroke="white" stroke-opacity="0.4" stroke-miterlimit="10"/>
<path d="M253.497 38.5608C254.079 38.5523 254.642 38.7734 255.063 39.1765C255.469 39.597 255.696 40.1589 255.696 40.7438C255.699 41.0339 255.645 41.3218 255.536 41.5907C255.427 41.8597 255.266 42.1045 255.063 42.311C254.645 42.7244 254.084 42.9586 253.497 42.9641C252.91 42.9586 252.348 42.7244 251.931 42.311C251.526 41.8894 251.3 41.3283 251.297 40.7438C251.303 40.16 251.53 39.6002 251.931 39.1765C252.352 38.7734 252.914 38.5523 253.497 38.5608Z" stroke="white" stroke-opacity="0.4" stroke-miterlimit="10"/>
<path d="M253.497 37.236C252.564 37.2316 251.668 37.5933 250.999 38.2435C250.342 38.9099 249.974 39.8079 249.974 40.7437C249.974 41.6795 250.342 42.5775 250.999 43.2439C251.665 43.9027 252.56 44.2773 253.497 44.2887C253.961 44.289 254.422 44.1968 254.851 44.0175C255.279 43.8381 255.668 43.5751 255.995 43.2439C256.651 42.5775 257.019 41.6795 257.02 40.7437C257.019 39.8079 256.651 38.9099 255.995 38.2435C255.326 37.5933 254.429 37.2316 253.497 37.236Z" stroke="white" stroke-opacity="0.4" stroke-miterlimit="10"/>
<path d="M237.577 50.5392C237.947 50.5382 238.312 50.6299 238.637 50.8058C238.963 50.9818 239.239 51.2365 239.442 51.5467C239.602 51.7889 239.712 52.0605 239.767 52.3458C239.822 52.631 239.82 52.9243 239.761 53.2087C239.702 53.4932 239.588 53.7631 239.424 54.003C239.26 54.2429 239.051 54.4481 238.808 54.6066C238.446 54.8388 238.026 54.9618 237.596 54.9611C237.228 54.9625 236.865 54.873 236.54 54.7005C236.215 54.528 235.938 54.2778 235.732 53.9722C235.572 53.73 235.461 53.4584 235.406 53.1732C235.351 52.888 235.354 52.5947 235.413 52.3102C235.471 52.0258 235.586 51.7558 235.75 51.5159C235.913 51.276 236.123 51.0709 236.366 50.9123C236.726 50.6746 237.146 50.5451 237.577 50.5392Z" stroke="white" stroke-opacity="0.4" stroke-miterlimit="10"/>
<path d="M221.621 62.6296C221.927 62.6289 222.23 62.6935 222.51 62.8189C222.79 62.9444 223.039 63.1279 223.243 63.3572C223.438 63.5714 223.589 63.822 223.687 64.0946C223.785 64.3673 223.828 64.6567 223.815 64.9462C223.801 65.2357 223.73 65.5196 223.606 65.7816C223.482 66.0436 223.308 66.2786 223.094 66.4731C222.695 66.8484 222.168 67.0556 221.621 67.0515C221.312 67.0513 221.006 66.9864 220.724 66.8611C220.441 66.7358 220.188 66.5528 219.981 66.3238C219.785 66.1097 219.634 65.8591 219.536 65.5864C219.438 65.3138 219.395 65.0244 219.409 64.7349C219.423 64.4454 219.493 64.1615 219.617 63.8995C219.741 63.6375 219.915 63.4024 220.13 63.208C220.534 62.8298 221.068 62.6226 221.621 62.6296Z" stroke="white" stroke-opacity="0.4" stroke-miterlimit="10"/>
<path d="M208.815 77.9664C209.208 77.9613 209.595 78.0646 209.933 78.2649C210.185 78.4098 210.406 78.6031 210.582 78.8338C210.759 79.0645 210.889 79.328 210.963 79.609C211.038 79.89 211.056 80.183 211.017 80.4711C210.977 80.7592 210.882 81.0367 210.735 81.2875C210.541 81.6127 210.269 81.8839 209.943 82.0763C209.617 82.2687 209.249 82.376 208.871 82.3883C208.481 82.3902 208.099 82.2801 207.771 82.0711C207.52 81.9247 207.301 81.7302 207.127 81.4988C206.952 81.2674 206.824 81.0037 206.751 80.7228C206.679 80.4419 206.662 80.1494 206.703 79.862C206.743 79.5747 206.84 79.2982 206.988 79.0485C207.18 78.7232 207.452 78.4528 207.778 78.2633C208.105 78.0738 208.475 77.9715 208.852 77.9664H208.815Z" stroke="white" stroke-opacity="0.4" stroke-miterlimit="10"/>
<path d="M237.577 49.2331C236.913 49.2411 236.266 49.4421 235.713 49.8115C235.324 50.0639 234.99 50.3923 234.731 50.777C234.471 51.1617 234.292 51.5948 234.203 52.0504C234.103 52.5031 234.096 52.9715 234.183 53.427C234.269 53.8825 234.448 54.3156 234.707 54.6998C235.028 55.1877 235.465 55.5881 235.979 55.8649C236.494 56.1417 237.068 56.2863 237.652 56.2858C238.317 56.2832 238.966 56.0818 239.516 55.7074C240.297 55.1929 240.843 54.3903 241.035 53.4746C241.227 52.5589 241.05 51.6043 240.541 50.819C240.217 50.3296 239.777 49.9285 239.259 49.6517C238.742 49.3749 238.164 49.231 237.577 49.2331Z" stroke="white" stroke-opacity="0.4" stroke-miterlimit="10"/>
<path d="M221.621 61.3048C220.737 61.3051 219.885 61.6381 219.235 62.2377C218.892 62.5485 218.615 62.9249 218.419 63.3447C218.224 63.7645 218.115 64.2191 218.098 64.6819C218.072 65.1445 218.14 65.6076 218.297 66.0436C218.453 66.4795 218.696 66.8794 219.011 67.2193C219.341 67.5846 219.743 67.8764 220.193 68.0757C220.643 68.275 221.129 68.3774 221.621 68.3761C222.504 68.3722 223.355 68.0397 224.007 67.4432C224.348 67.131 224.624 66.7544 224.819 66.3349C225.015 65.9154 225.125 65.4614 225.144 64.999C225.164 64.5354 225.092 64.0724 224.932 63.6368C224.772 63.2012 224.527 62.8018 224.212 62.4616C223.887 62.0949 223.488 61.802 223.041 61.6024C222.595 61.4029 222.11 61.3014 221.621 61.3048Z" stroke="white" stroke-opacity="0.4" stroke-miterlimit="10"/>
<path d="M208.815 76.6416C208.202 76.6465 207.601 76.8085 207.069 77.1123C206.537 77.4162 206.092 77.8515 205.776 78.3768C205.306 79.1895 205.176 80.1549 205.413 81.0633C205.651 81.9716 206.237 82.7495 207.044 83.2279C207.607 83.5626 208.253 83.7308 208.908 83.713C209.526 83.715 210.135 83.554 210.671 83.2461C211.208 82.9382 211.654 82.4944 211.965 81.9592C212.203 81.5589 212.359 81.115 212.423 80.6535C212.487 80.1921 212.458 79.7225 212.338 79.2724C212.222 78.8231 212.016 78.4018 211.735 78.0332C211.453 77.6647 211.1 77.3564 210.697 77.1268C210.133 76.7949 209.488 76.6269 208.833 76.6416H208.815Z" stroke="white" stroke-opacity="0.4" stroke-miterlimit="10"/>
<path d="M166.78 85.4296C167.344 85.4338 167.885 85.6551 168.291 86.0475C168.697 86.4399 168.937 86.9735 168.961 87.5379C168.977 88.1034 168.774 88.6534 168.396 89.0738C168.018 89.4942 167.492 89.7526 166.929 89.7955C166.363 89.8009 165.817 89.5859 165.407 89.196C164.996 88.8061 164.753 88.2717 164.729 87.7058C164.711 87.1529 164.899 86.613 165.258 86.1919C165.617 85.7709 166.119 85.499 166.668 85.4296H166.78Z" stroke="white" stroke-opacity="0.4" stroke-miterlimit="10"/>
<path d="M186.632 87.1834C186.824 87.155 187.018 87.155 187.21 87.1834C187.491 87.2589 187.755 87.3896 187.985 87.5678C188.216 87.7461 188.408 87.9683 188.552 88.2218C188.696 88.4752 188.788 88.7547 188.824 89.044C188.859 89.3334 188.836 89.6269 188.757 89.9074C188.627 90.3706 188.348 90.7782 187.965 91.068C187.581 91.3578 187.113 91.5137 186.632 91.512C186.44 91.5393 186.246 91.5393 186.054 91.512C185.774 91.4386 185.51 91.3099 185.28 91.1335C185.05 90.957 184.857 90.7364 184.713 90.4845C184.569 90.2326 184.477 89.9544 184.441 89.6663C184.406 89.3782 184.428 89.0859 184.507 88.8066C184.631 88.3384 184.907 87.9248 185.292 87.6309C185.677 87.337 186.148 87.1796 186.632 87.1834Z" stroke="white" stroke-opacity="0.4" stroke-miterlimit="10"/>
<path d="M146.927 88.1349C147.434 88.1329 147.927 88.3064 148.321 88.626C148.715 88.9456 148.986 89.3917 149.089 89.8888C149.206 90.4622 149.094 91.0586 148.777 91.5503C148.46 92.042 147.963 92.3899 147.393 92.5195H146.927C146.421 92.5181 145.93 92.3433 145.537 92.0243C145.144 91.7052 144.871 91.2611 144.765 90.7657C144.649 90.1919 144.764 89.5956 145.085 89.1064C145.406 88.6172 145.908 88.2748 146.48 88.1536C146.628 88.1356 146.779 88.1356 146.927 88.1536V88.1349Z" stroke="white" stroke-opacity="0.4" stroke-miterlimit="10"/>
<path d="M166.78 84.0675H166.593C165.661 84.1102 164.784 84.5192 164.151 85.2056C163.524 85.9048 163.195 86.8228 163.238 87.7618C163.276 88.6692 163.665 89.5263 164.322 90.1526C164.979 90.779 165.854 91.1259 166.761 91.1202H166.91C167.375 91.1036 167.832 90.9943 168.255 90.7989C168.677 90.6035 169.057 90.3258 169.371 89.9821C169.684 89.6376 169.926 89.2343 170.083 88.7955C170.24 88.3568 170.308 87.8913 170.284 87.4259C170.246 86.5218 169.859 85.6674 169.206 85.0416C168.553 84.4157 167.684 84.0667 166.78 84.0675Z" stroke="white" stroke-opacity="0.4" stroke-miterlimit="10"/>
<path d="M186.632 85.8587C185.859 85.8618 185.109 86.1166 184.493 86.5844C183.878 87.0523 183.431 87.7078 183.221 88.4521C182.975 89.357 183.096 90.3223 183.556 91.1388C184.029 91.9496 184.797 92.545 185.7 92.7994C186.005 92.8745 186.318 92.9121 186.632 92.9114C187.402 92.9063 188.149 92.6531 188.764 92.1893C189.378 91.7255 189.827 91.0758 190.043 90.3366C190.29 89.4286 190.167 88.4601 189.703 87.6422C189.238 86.8243 188.469 86.2234 187.564 85.9706C187.259 85.8955 186.946 85.8579 186.632 85.8587Z" stroke="white" stroke-opacity="0.4" stroke-miterlimit="10"/>
<path d="M146.927 86.8103C146.692 86.7836 146.454 86.7836 146.219 86.8103C145.761 86.9056 145.327 87.0906 144.942 87.3544C144.556 87.6183 144.227 87.956 143.972 88.3479C143.717 88.7398 143.543 89.1783 143.458 89.6381C143.373 90.0979 143.38 90.5699 143.479 91.027C143.642 91.8221 144.074 92.5366 144.702 93.0499C145.33 93.5631 146.116 93.8437 146.927 93.8443C147.181 93.8761 147.438 93.8761 147.691 93.8443C148.6 93.643 149.393 93.0916 149.899 92.3095C150.405 91.5273 150.583 90.5773 150.394 89.6649C150.224 88.8699 149.788 88.157 149.157 87.6445C148.526 87.132 147.739 86.8509 146.927 86.8476V86.8103Z" stroke="white" stroke-opacity="0.4" stroke-miterlimit="10"/>
<path d="M127.186 91.027C127.769 91.0185 128.331 91.2396 128.752 91.6427C129.157 92.0643 129.384 92.6255 129.386 93.2099C129.376 93.793 129.15 94.3515 128.752 94.7772C128.329 95.1788 127.77 95.4054 127.186 95.4116C126.603 95.4054 126.044 95.1788 125.621 94.7772C125.214 94.3567 124.987 93.7948 124.987 93.2099C124.984 92.9198 125.039 92.632 125.147 92.363C125.256 92.094 125.417 91.8492 125.621 91.6427C126.042 91.2396 126.604 91.0185 127.186 91.027Z" stroke="white" stroke-opacity="0.4" stroke-miterlimit="10"/>
<path d="M127.186 89.6276C126.724 89.6203 126.265 89.7057 125.836 89.8787C125.407 90.0518 125.017 90.309 124.689 90.6352C124.037 91.3048 123.67 92.2007 123.663 93.1353C123.67 94.0609 124.03 94.9489 124.67 95.6168C125.347 96.2704 126.246 96.6436 127.186 96.6617C128.12 96.6552 129.015 96.2875 129.684 95.6355C130.336 94.9658 130.703 94.0699 130.71 93.1353C130.709 92.1995 130.341 91.3015 129.684 90.6352C129.356 90.309 128.966 90.0518 128.537 89.8787C128.108 89.7057 127.649 89.6203 127.186 89.6276Z" stroke="white" stroke-opacity="0.4" stroke-miterlimit="10"/>
<path d="M209.803 -5.50927C210.872 -5.50793 211.909 -5.13527 212.735 -4.45481C213.561 -3.77435 214.125 -2.82821 214.332 -1.77768C214.568 -0.573123 214.319 0.676032 213.638 1.69685C212.956 2.71768 211.899 3.42719 210.697 3.67044C210.4 3.69816 210.1 3.69816 209.803 3.67044C208.73 3.67342 207.689 3.30275 206.859 2.62192C206.029 1.9411 205.462 0.992519 205.254 -0.0611541C205.018 -1.26571 205.268 -2.51484 205.949 -3.53566C206.63 -4.55648 207.687 -5.26603 208.889 -5.50927C209.19 -5.56707 209.496 -5.59826 209.803 -5.60254V-5.50927Z" stroke="white" stroke-opacity="0.4" stroke-miterlimit="10"/>
<path d="M297.414 -5.41601C297.721 -5.41262 298.027 -5.38139 298.328 -5.32271C299.53 -5.07946 300.587 -4.36992 301.268 -3.3491C301.949 -2.32828 302.199 -1.07915 301.963 0.125407C301.749 1.17274 301.183 2.11488 300.358 2.79416C299.534 3.47345 298.501 3.84866 297.433 3.857C297.126 3.86369 296.819 3.83235 296.52 3.7637C295.922 3.6478 295.353 3.41446 294.847 3.07718C294.34 2.7399 293.905 2.30537 293.567 1.79872C293.229 1.29207 292.994 0.723361 292.877 0.125492C292.76 -0.472377 292.763 -1.08754 292.885 -1.68442C293.089 -2.73656 293.652 -3.68472 294.479 -4.36578C295.306 -5.04685 296.344 -5.41823 297.414 -5.41601Z" stroke="white" stroke-opacity="0.4" stroke-miterlimit="10"/>
<path d="M128.883 28.075C129.642 28.0752 130.389 28.2625 131.059 28.6205C131.729 28.9784 132.3 29.496 132.723 30.1274C133.405 31.1468 133.654 32.3956 133.417 33.5992C133.179 34.8028 132.473 35.8627 131.455 36.5457C130.697 37.0615 129.8 37.3348 128.883 37.3293C128.12 37.3322 127.369 37.1464 126.696 36.7883C126.023 36.4302 125.448 35.911 125.024 35.277C124.349 34.2538 124.105 33.0049 124.346 31.8025C124.587 30.6002 125.293 29.542 126.31 28.8586C127.068 28.3407 127.965 28.0672 128.883 28.075Z" stroke="white" stroke-opacity="0.4" stroke-miterlimit="10"/>
<path d="M66.8647 90.0007C67.7816 89.9953 68.6787 90.2685 69.4371 90.7843C70.4554 91.4674 71.1609 92.5272 71.3986 93.7308C71.6363 94.9344 71.3867 96.1832 70.7047 97.2027C70.2799 97.8318 69.708 98.3476 69.0388 98.7052C68.3696 99.0629 67.6233 99.2516 66.8647 99.255C65.9474 99.2628 65.0497 98.9894 64.2922 98.4714C63.7861 98.1349 63.3515 97.7014 63.0136 97.1959C62.6756 96.6905 62.441 96.1231 62.3231 95.5264C62.2053 94.9298 62.2066 94.3157 62.327 93.7196C62.4474 93.1234 62.6845 92.5571 63.0247 92.0531C63.4471 91.4217 64.0185 90.9041 64.6882 90.5462C65.358 90.1882 66.1054 90.0009 66.8647 90.0007Z" stroke="white" stroke-opacity="0.4" stroke-miterlimit="10"/>
<path d="M209.803 -7.28186C209.383 -7.27632 208.965 -7.2326 208.554 -7.15124C207.73 -6.98825 206.947 -6.66363 206.25 -6.19608C205.552 -5.72853 204.954 -5.12734 204.49 -4.4272C204.018 -3.73239 203.69 -2.95052 203.523 -2.12724C203.357 -1.30395 203.356 -0.455736 203.521 0.367911C203.813 1.82001 204.599 3.12612 205.744 4.06471C206.889 5.0033 208.323 5.51658 209.803 5.51749C210.209 5.51637 210.615 5.47891 211.014 5.40555C212.667 5.07574 214.124 4.10776 215.069 2.71106C216.015 1.31435 216.373 -0.39876 216.066 -2.05763C215.778 -3.51004 214.997 -4.81805 213.855 -5.75998C212.714 -6.70191 211.282 -7.21981 209.803 -7.22589V-7.28186Z" stroke="white" stroke-opacity="0.4" stroke-miterlimit="10"/>
<path d="M297.414 -7.18854C295.938 -7.18333 294.508 -6.66809 293.367 -5.72986C292.226 -4.79163 291.443 -3.48792 291.151 -2.03895C290.838 -0.384876 291.189 1.32601 292.128 2.72296C293.066 4.11991 294.517 5.09042 296.166 5.42423C296.582 5.51596 297.007 5.5598 297.433 5.55485C298.909 5.55238 300.337 5.03773 301.476 4.09868C302.615 3.15962 303.393 1.85428 303.678 0.405236C303.846 -0.42018 303.848 -1.27072 303.685 -2.09706C303.522 -2.9234 303.196 -3.70905 302.727 -4.40849C302.262 -5.10587 301.663 -5.70404 300.966 -6.16841C300.268 -6.63278 299.486 -6.95416 298.663 -7.11392C298.252 -7.19428 297.834 -7.23797 297.414 -7.24451V-7.18854Z" stroke="white" stroke-opacity="0.4" stroke-miterlimit="10"/>
<path d="M128.883 26.3025C127.62 26.3 126.387 26.677 125.341 27.3847C124.64 27.8432 124.038 28.4377 123.57 29.1331C123.103 29.8286 122.78 30.6107 122.619 31.4334C122.452 32.2589 122.449 33.1094 122.612 33.9357C122.776 34.7621 123.101 35.5478 123.57 36.2472C124.149 37.1272 124.938 37.849 125.866 38.3474C126.793 38.8458 127.83 39.1051 128.883 39.1019C130.145 39.1044 131.379 38.7274 132.424 38.0197C133.125 37.5567 133.727 36.9586 134.194 36.2602C134.662 35.5618 134.985 34.7772 135.146 33.9523C135.313 33.1268 135.315 32.2765 135.151 31.4503C134.988 30.6241 134.663 29.8384 134.195 29.1385C133.609 28.2666 132.819 27.5521 131.892 27.0576C130.966 26.5631 129.933 26.3038 128.883 26.3025Z" stroke="white" stroke-opacity="0.4" stroke-miterlimit="10"/>
<path d="M66.8647 88.2282C65.8182 88.2254 64.787 88.479 63.8609 88.9668C62.9349 89.4547 62.1422 90.1619 61.552 91.0269C61.0827 91.7226 60.7568 92.5051 60.5936 93.3285C60.4304 94.1519 60.433 94.9996 60.6013 95.822C60.7567 96.6492 61.0758 97.4368 61.54 98.1386C62.0042 98.8404 62.6041 99.442 63.3043 99.9081C64.3552 100.619 65.5961 100.997 66.8647 100.99C67.9142 100.987 68.947 100.727 69.8731 100.233C70.7991 99.7387 71.5902 99.025 72.1773 98.1543C72.6453 97.4544 72.9703 96.6687 73.1334 95.8425C73.2966 95.0163 73.2947 94.166 73.128 93.3405C72.7998 91.6803 71.8279 90.2178 70.4251 89.2731C69.3717 88.567 68.1324 88.1904 66.8647 88.1909V88.2282Z" stroke="white" stroke-opacity="0.4" stroke-miterlimit="10"/>
</g>
<defs>
<clipPath id="clip0_352_388">
<rect width="336" height="96" fill="white"/>
</clipPath>
</defs>
</svg>
