<svg width="18" height="19" viewBox="0 0 18 19" fill="none" xmlns="http://www.w3.org/2000/svg">
<path d="M16.5 9.5C16.5 5.35786 13.1421 2 9 2C7.0309 2 5.23907 2.75883 3.90093 4H5.25C5.66421 4 6 4.33579 6 4.75C6 5.16421 5.66421 5.5 5.25 5.5H2.25C1.83579 5.5 1.5 5.16421 1.5 4.75V1.75C1.5 1.33579 1.83579 1 2.25 1C2.66421 1 3 1.33579 3 1.75V2.79168C4.59227 1.36656 6.69494 0.5 9 0.5C13.9706 0.5 18 4.52944 18 9.5C18 14.4706 13.9706 18.5 9 18.5C4.02944 18.5 0 14.4706 0 9.5C0 9.0317 0.0357601 8.5718 0.10471 8.1228C0.161 7.7562 0.48623 7.5 0.85708 7.5C1.31609 7.5 1.64845 7.9382 1.58123 8.3923C1.52772 8.7538 1.5 9.1236 1.5 9.5C1.5 13.6421 4.85786 17 9 17C13.1421 17 16.5 13.6421 16.5 9.5ZM9.5 5.25C9.5 4.83579 9.1642 4.5 8.75 4.5C8.3358 4.5 8 4.83579 8 5.25V9.75C8 10.1642 8.3358 10.5 8.75 10.5H11.25C11.6642 10.5 12 10.1642 12 9.75C12 9.3358 11.6642 9 11.25 9H9.5V5.25Z" fill="#353535"/>
</svg>
