<svg width="20" height="15" viewBox="0 0 20 15" fill="none" xmlns="http://www.w3.org/2000/svg">
<path d="M0.75 12.9997H13.25C13.6642 12.9997 14 13.3355 14 13.7497C14 14.1294 13.7178 14.4432 13.3518 14.4928L13.25 14.4997H0.75C0.33579 14.4997 0 14.1639 0 13.7497C0 13.37 0.28215 13.0562 0.64823 13.0065L0.75 12.9997ZM0.75 6.4997H19.25C19.6642 6.4997 20 6.8355 20 7.2497C20 7.6294 19.7178 7.9432 19.3518 7.9928L19.25 7.9997H0.75C0.33579 7.9997 0 7.6639 0 7.2497C0 6.87 0.28215 6.5562 0.64823 6.5065L0.75 6.4997ZM0.75 0.00292969H16.25C16.6642 0.00292969 17 0.33872 17 0.75293C17 1.13263 16.7178 1.44642 16.3518 1.49608L16.25 1.50293H0.75C0.33579 1.50293 0 1.16714 0 0.75293C0 0.37323 0.28215 0.0594395 0.64823 0.00977945L0.75 0.00292969Z" fill="#212121"/>
</svg>
