<svg width="131" height="29" viewBox="0 0 131 29" fill="none" xmlns="http://www.w3.org/2000/svg">
<g clip-path="url(#clip0_7_74)">
<path d="M131 13.1197V10.7321H128.139V7.02011L128.043 7.05085L125.356 7.90295L125.303 7.91963V10.7322H121.061V9.16535C121.061 8.43578 121.219 7.87747 121.529 7.50514C121.837 7.13727 122.278 6.95024 122.84 6.95024C123.244 6.95024 123.662 7.04888 124.083 7.24338L124.188 7.29224V4.77769L124.139 4.75878C123.746 4.61247 123.212 4.53879 122.55 4.53879C121.715 4.53879 120.957 4.72699 120.296 5.09999C119.634 5.4735 119.114 6.00673 118.749 6.68468C118.386 7.36185 118.202 8.14395 118.202 9.00946V10.7321H116.209V13.1197H118.202V23.1786H121.061V13.1197H125.303V19.512C125.303 22.1446 126.501 23.4787 128.864 23.4787C129.252 23.4787 129.661 23.4316 130.078 23.3392C130.503 23.2444 130.792 23.1497 130.962 23.0486L131 23.0255V20.6157L130.884 20.6954C130.729 20.8026 130.535 20.8902 130.309 20.9554C130.081 21.0217 129.891 21.0549 129.744 21.0549C129.19 21.0549 128.781 20.9003 128.527 20.5952C128.27 20.2874 128.139 19.749 128.139 18.996V13.1197H131ZM109.823 21.0553C108.785 21.0553 107.967 20.6986 107.39 19.996C106.81 19.2898 106.516 18.2829 106.516 17.0037C106.516 15.6839 106.81 14.651 107.39 13.9323C107.967 13.2184 108.778 12.856 109.8 12.856C110.791 12.856 111.581 13.2021 112.146 13.8852C112.714 14.5718 113.003 15.5965 113.003 16.9316C113.003 18.2832 112.732 19.3214 112.197 20.0159C111.666 20.7052 110.867 21.0553 109.823 21.0553ZM109.95 10.4322C107.97 10.4322 106.397 11.0336 105.275 12.2197C104.155 13.4059 103.587 15.0475 103.587 17.0992C103.587 19.048 104.141 20.6155 105.235 21.7574C106.329 22.8998 107.818 23.4785 109.661 23.4785C111.58 23.4785 113.122 22.8687 114.243 21.6661C115.364 20.465 115.932 18.8389 115.932 16.8351C115.932 14.8559 115.399 13.2767 114.347 12.1423C113.295 11.0075 111.816 10.4322 109.95 10.4322ZM98.9757 10.4322C97.6286 10.4322 96.5143 10.7893 95.6631 11.4934C94.8067 12.2017 94.3723 13.1306 94.3723 14.2547C94.3723 14.8391 94.4661 15.3581 94.6506 15.7983C94.8362 16.24 95.1235 16.6289 95.5052 16.9553C95.884 17.279 96.4687 17.6181 97.2435 17.9631C97.8948 18.2409 98.3806 18.4759 98.6892 18.6611C98.9908 18.8426 99.2048 19.025 99.3257 19.2027C99.4432 19.3766 99.5027 19.6146 99.5027 19.9082C99.5027 20.7444 98.8985 21.1513 97.6552 21.1513C97.1941 21.1513 96.668 21.0515 96.0918 20.8548C95.5197 20.661 94.9797 20.3772 94.4908 20.0134L94.3721 19.9252V22.7787L94.4157 22.7997C94.8203 22.9933 95.3305 23.1565 95.9318 23.285C96.5319 23.4136 97.0772 23.479 97.5509 23.479C99.0127 23.479 100.19 23.1202 101.049 22.4119C101.913 21.6987 102.351 20.7479 102.351 19.5849C102.351 18.7459 102.115 18.0264 101.651 17.4462C101.189 16.8707 100.388 16.3423 99.2701 15.8753C98.3797 15.5049 97.8093 15.1975 97.574 14.9615C97.3471 14.7335 97.232 14.411 97.232 14.0027C97.232 13.6407 97.3741 13.3508 97.666 13.1159C97.9601 12.8799 98.3696 12.7599 98.883 12.7599C99.3595 12.7599 99.847 12.8379 100.332 12.9908C100.816 13.1436 101.242 13.3484 101.597 13.5989L101.714 13.6816V10.9748L101.669 10.9548C101.341 10.8091 100.909 10.6845 100.384 10.5834C99.8618 10.4829 99.3879 10.4322 98.9757 10.4322ZM86.917 21.0553C85.8793 21.0553 85.0607 20.6986 84.4841 19.996C83.9037 19.2898 83.6102 18.2832 83.6102 17.0037C83.6102 15.6839 83.9041 14.651 84.4847 13.9323C85.0613 13.2184 85.8717 12.856 86.8941 12.856C87.8853 12.856 88.6747 13.2021 89.2403 13.8852C89.8086 14.5718 90.0969 15.5965 90.0969 16.9316C90.0969 18.2832 89.8256 19.3214 89.2908 20.0159C88.7597 20.7052 87.9615 21.0553 86.917 21.0553ZM87.0445 10.4322C85.0637 10.4322 83.4907 11.0336 82.3698 12.2197C81.2491 13.4059 80.6805 15.0475 80.6805 17.0992C80.6805 19.0488 81.2355 20.6155 82.3296 21.7574C83.4238 22.8998 84.9127 23.4785 86.7548 23.4785C88.6742 23.4785 90.2162 22.8687 91.3372 21.6661C92.4578 20.465 93.0259 18.8389 93.0259 16.8351C93.0259 14.8559 92.4929 13.2767 91.4412 12.1423C90.389 11.0075 88.9096 10.4322 87.0445 10.4322ZM76.3394 12.8875V10.7321H73.5145V23.1784H76.3394V16.8116C76.3394 15.729 76.5763 14.8396 77.0436 14.1678C77.505 13.504 78.1199 13.1677 78.8706 13.1677C79.1251 13.1677 79.4107 13.2111 79.72 13.2972C80.0262 13.3827 80.248 13.4755 80.3787 13.5732L80.4975 13.6624V10.7108L80.4517 10.6904C80.1886 10.5746 79.8165 10.5161 79.3456 10.5161C78.6356 10.5161 78.0004 10.7525 77.4562 11.218C76.9786 11.6271 76.6334 12.188 76.3695 12.8875H76.3394ZM68.4556 10.4322C67.1596 10.4322 66.0036 10.7202 65.0203 11.288C64.0351 11.8571 63.2731 12.6695 62.7547 13.7026C62.2385 14.7332 61.9764 15.937 61.9764 17.2795C61.9764 18.4555 62.2305 19.5347 62.7327 20.4858C63.2352 21.4385 63.9464 22.1839 64.8466 22.7008C65.7456 23.2171 66.7846 23.4788 67.935 23.4788C69.2775 23.4788 70.4237 23.2007 71.3427 22.6521L71.3798 22.63V19.9478L71.2611 20.0376C70.8448 20.3519 70.3796 20.6027 69.8791 20.7834C69.3798 20.964 68.9246 21.0553 68.5254 21.0553C67.4169 21.0553 66.5271 20.6958 65.8812 19.9872C65.2339 19.2775 64.9057 18.2811 64.9057 17.0272C64.9057 15.7655 65.2479 14.7434 65.9225 13.9893C66.595 13.2374 67.4865 12.856 68.572 12.856C69.5005 12.856 70.4053 13.1819 71.2613 13.8254L71.3798 13.9146V11.0884L71.3416 11.066C71.0194 10.8792 70.5801 10.7248 70.0347 10.6078C69.4915 10.4911 68.9603 10.4322 68.4556 10.4322ZM60.0309 10.7322H57.2059V23.1784H60.0309V10.7322ZM58.6473 5.43003C58.1823 5.43003 57.7768 5.59407 57.4437 5.91913C57.1091 6.2451 56.9394 6.65553 56.9394 7.13989C56.9394 7.61664 57.1071 8.01958 57.4385 8.33689C57.7677 8.65327 58.1745 8.81364 58.6474 8.81364C59.1202 8.81364 59.5285 8.65327 59.8617 8.33741C60.197 8.01958 60.3671 7.61677 60.3671 7.13989C60.3671 6.67247 60.2016 6.26625 59.8755 5.93226C59.5497 5.59893 59.1363 5.43003 58.6473 5.43003ZM51.5989 9.81389V23.1784H54.4819V5.81104H50.4917L45.42 18.711L40.4982 5.81104H36.3456V23.1782H39.0548V9.81257H39.1478L44.3451 23.1784H46.3897L51.5059 9.81389H51.5989Z" fill="#706D6E"/>
<path d="M13.2892 13.7803H0V0.00741577H13.2892V13.7803Z" fill="#F1511B"/>
<path d="M27.9621 13.7803H14.6731V0.00741577H27.9621V13.7803Z" fill="#80CC28"/>
<path d="M13.2889 28.9926H0V15.2198H13.2889V28.9926Z" fill="#00ADEF"/>
<path d="M27.9621 28.9926H14.6731V15.2198H27.9621V28.9926Z" fill="#FBBC09"/>
</g>
<defs>
<clipPath id="clip0_7_74">
<rect width="131" height="29" fill="white"/>
</clipPath>
</defs>
</svg>
