<svg width="345" height="250" viewBox="0 0 345 250" fill="none" xmlns="http://www.w3.org/2000/svg">
<g clip-path="url(#clip0_263_92)">
<path opacity="0.2" d="M166.986 250C226.102 250 274.025 248.573 274.025 246.813C274.025 245.052 226.102 243.625 166.986 243.625C107.87 243.625 59.9467 245.052 59.9467 246.813C59.9467 248.573 107.87 250 166.986 250Z" fill="#0B2252"/>
<path d="M231.896 12.3059C232.667 11.5343 233.582 10.9226 234.589 10.5061C235.596 10.0896 236.676 9.87642 237.765 9.87891H246.004C246.616 7.08015 248.165 4.57461 250.395 2.77806C252.626 0.981503 255.403 0.00195312 258.266 0.00195312C261.13 0.00195312 263.907 0.981503 266.137 2.77806C268.368 4.57461 269.917 7.08015 270.528 9.87891H272.745C274.939 9.88187 277.042 10.7556 278.593 12.3083C280.144 13.861 281.016 15.9659 281.017 18.161C281.017 20.359 280.144 22.467 278.591 24.0212C277.037 25.5755 274.93 26.4486 272.733 26.4486H237.754C235.559 26.4457 233.455 25.5712 231.904 24.0173C230.353 22.4634 229.482 20.3571 229.482 18.161C229.48 17.0742 229.692 15.9977 230.107 14.993C230.521 13.9884 231.129 13.0753 231.896 12.3059Z" fill="#E9F3FC"/>
<path d="M131.182 24.7904C130.46 24.0661 129.603 23.4917 128.658 23.1001C127.714 22.7086 126.701 22.5076 125.679 22.5088H117.938C117.363 19.8796 115.907 17.526 113.811 15.8385C111.716 14.151 109.106 13.231 106.416 13.231C103.726 13.231 101.117 14.151 99.0215 15.8385C96.9259 17.526 95.4699 19.8796 94.895 22.5088H92.8185C90.7544 22.5095 88.7751 23.3302 87.3156 24.7904C85.8561 26.2506 85.0359 28.2309 85.0351 30.2959C85.034 31.3189 85.2346 32.332 85.6253 33.2773C86.0161 34.2225 86.5894 35.0814 87.3124 35.8047C88.0353 36.5281 88.8938 37.1016 89.8386 37.4926C90.7834 37.8835 91.7961 38.0842 92.8185 38.0831H125.682C126.704 38.0835 127.716 37.8823 128.661 37.4911C129.605 37.0999 130.464 36.5263 131.186 35.8031C131.909 35.0799 132.483 34.2213 132.874 33.2764C133.265 32.3314 133.466 31.3187 133.465 30.2959C133.466 29.273 133.265 28.26 132.873 27.3151C132.481 26.3703 131.906 25.5123 131.182 24.7904Z" fill="#E9F3FC"/>
<path d="M345 130.33V174.424C304.94 167.473 251.074 161.137 188.078 161.137C49.0136 161.137 -60.0543 192.056 -60.0543 192.056C-68.1591 174.746 -59.1796 124.888 -38.0736 113.206C-16.9677 101.524 1.36868 124.877 18.0338 116.542C34.6989 108.207 19.107 34.5041 44.6985 29.7619C70.29 25.0197 86.4073 72.4473 117.692 72.4473C148.976 72.4473 144.242 25.0309 180.811 23.1324C217.381 21.2338 216.416 71.6812 238.425 71.6812C260.434 71.6812 251.504 51.4513 285.994 50.8586C320.484 50.2658 330.001 122.249 344.771 130.209L345 130.33Z" fill="url(#paint0_linear_263_92)"/>
<path d="M253.402 192.051H89.666C87.1745 192.048 84.7859 191.056 83.0244 189.293C81.2628 187.53 80.2723 185.14 80.2701 182.647V83.8525C80.2723 81.3598 81.2628 78.9697 83.0244 77.2068C84.7859 75.4439 87.1745 74.4522 89.666 74.4492H253.402C255.894 74.4522 258.283 75.4438 260.045 77.2067C261.807 78.9695 262.798 81.3595 262.801 83.8525V182.647C262.798 185.14 261.807 187.53 260.045 189.293C258.283 191.056 255.894 192.048 253.402 192.051ZM89.666 76.4624C87.7082 76.4654 85.8314 77.245 84.4472 78.6304C83.0631 80.0157 82.2845 81.8937 82.2823 83.8525V182.647C82.2845 184.606 83.0631 186.484 84.4472 187.87C85.8314 189.255 87.7082 190.035 89.666 190.038H253.402C255.359 190.034 257.236 189.254 258.619 187.869C260.003 186.483 260.781 184.606 260.783 182.647V83.8525C260.781 81.8937 260.002 80.0157 258.618 78.6304C257.234 77.245 255.357 76.4654 253.399 76.4624H89.666Z" fill="#E3ECF5"/>
<path d="M158.148 106.27C160.248 104.089 163.131 102.999 166.796 103C170.186 103 172.901 103.932 174.941 105.796C176.98 107.661 178 110.044 178 112.946C178 114.702 177.63 116.128 176.891 117.223C176.151 118.318 174.635 119.926 172.343 122.047C170.677 123.591 169.592 124.895 169.089 125.957C168.586 127.019 168.334 128.6 168.333 130.701H163.793C163.793 128.331 164.082 126.42 164.661 124.969C165.239 123.518 166.526 121.856 168.522 119.983L170.601 118.019C171.187 117.5 171.698 116.907 172.12 116.254C172.8 115.259 173.168 114.092 173.179 112.897C173.21 111.355 172.67 109.854 171.659 108.668C170.643 107.474 168.963 106.877 166.62 106.877C163.721 106.877 161.716 107.905 160.606 109.96C159.981 111.104 159.625 112.754 159.539 114.909H155C155 111.328 156.049 108.448 158.148 106.27ZM163.695 134.828H168.77V140H163.695V134.828Z" fill="#FF8F05"/>
<path d="M119.294 148.891V156H118.347L114.768 150.517V156H113.825V148.891H114.768L118.361 154.389V148.891H119.294ZM120.588 153.417V153.305C120.588 152.924 120.643 152.571 120.754 152.245C120.865 151.916 121.024 151.632 121.232 151.391C121.441 151.146 121.693 150.958 121.989 150.824C122.285 150.688 122.618 150.619 122.985 150.619C123.356 150.619 123.69 150.688 123.986 150.824C124.286 150.958 124.54 151.146 124.748 151.391C124.96 151.632 125.121 151.916 125.231 152.245C125.342 152.571 125.397 152.924 125.397 153.305V153.417C125.397 153.798 125.342 154.151 125.231 154.477C125.121 154.802 124.96 155.087 124.748 155.331C124.54 155.572 124.287 155.761 123.991 155.897C123.698 156.031 123.366 156.098 122.995 156.098C122.624 156.098 122.29 156.031 121.994 155.897C121.698 155.761 121.444 155.572 121.232 155.331C121.024 155.087 120.865 154.802 120.754 154.477C120.643 154.151 120.588 153.798 120.588 153.417ZM121.491 153.305V153.417C121.491 153.681 121.522 153.93 121.584 154.164C121.646 154.395 121.739 154.6 121.862 154.779C121.989 154.958 122.147 155.1 122.336 155.204C122.525 155.305 122.744 155.355 122.995 155.355C123.243 155.355 123.459 155.305 123.645 155.204C123.833 155.1 123.99 154.958 124.113 154.779C124.237 154.6 124.33 154.395 124.392 154.164C124.457 153.93 124.489 153.681 124.489 153.417V153.305C124.489 153.044 124.457 152.799 124.392 152.567C124.33 152.333 124.235 152.126 124.108 151.947C123.985 151.765 123.828 151.622 123.64 151.518C123.454 151.413 123.236 151.361 122.985 151.361C122.738 151.361 122.52 151.413 122.331 151.518C122.146 151.622 121.989 151.765 121.862 151.947C121.739 152.126 121.646 152.333 121.584 152.567C121.522 152.799 121.491 153.044 121.491 153.305ZM132.087 154.599C132.087 154.468 132.058 154.348 131.999 154.237C131.944 154.123 131.828 154.021 131.652 153.93C131.48 153.835 131.219 153.754 130.871 153.686C130.578 153.624 130.313 153.55 130.075 153.466C129.841 153.381 129.641 153.279 129.475 153.158C129.312 153.038 129.187 152.896 129.099 152.733C129.011 152.571 128.967 152.38 128.967 152.162C128.967 151.954 129.012 151.757 129.104 151.571C129.198 151.386 129.33 151.221 129.499 151.078C129.672 150.935 129.878 150.823 130.119 150.741C130.36 150.66 130.629 150.619 130.925 150.619C131.348 150.619 131.709 150.694 132.009 150.844C132.308 150.993 132.538 151.194 132.697 151.444C132.857 151.692 132.937 151.967 132.937 152.27H132.033C132.033 152.123 131.989 151.981 131.901 151.845C131.817 151.705 131.691 151.589 131.525 151.498C131.363 151.407 131.162 151.361 130.925 151.361C130.674 151.361 130.471 151.4 130.314 151.479C130.161 151.553 130.049 151.649 129.978 151.767C129.909 151.884 129.875 152.007 129.875 152.138C129.875 152.235 129.891 152.323 129.924 152.401C129.96 152.476 130.021 152.546 130.109 152.611C130.197 152.673 130.321 152.732 130.48 152.787C130.64 152.842 130.843 152.898 131.091 152.953C131.524 153.051 131.88 153.168 132.16 153.305C132.44 153.441 132.648 153.609 132.785 153.808C132.922 154.006 132.99 154.247 132.99 154.53C132.99 154.761 132.941 154.973 132.844 155.165C132.749 155.357 132.611 155.523 132.429 155.663C132.25 155.8 132.035 155.907 131.784 155.985C131.537 156.06 131.258 156.098 130.949 156.098C130.484 156.098 130.09 156.015 129.768 155.849C129.445 155.683 129.201 155.468 129.035 155.204C128.869 154.94 128.786 154.662 128.786 154.369H129.694C129.707 154.617 129.779 154.813 129.909 154.96C130.039 155.103 130.199 155.206 130.388 155.268C130.576 155.326 130.764 155.355 130.949 155.355C131.197 155.355 131.403 155.323 131.569 155.258C131.739 155.193 131.867 155.103 131.955 154.989C132.043 154.875 132.087 154.745 132.087 154.599ZM136.369 156.098C136.001 156.098 135.668 156.036 135.368 155.912C135.072 155.785 134.816 155.608 134.602 155.38C134.39 155.152 134.227 154.882 134.113 154.569C133.999 154.257 133.942 153.915 133.942 153.544V153.339C133.942 152.909 134.006 152.527 134.133 152.191C134.26 151.853 134.432 151.566 134.65 151.332C134.868 151.098 135.116 150.92 135.393 150.8C135.669 150.679 135.956 150.619 136.252 150.619C136.63 150.619 136.955 150.684 137.229 150.814C137.505 150.945 137.731 151.127 137.907 151.361C138.083 151.592 138.213 151.866 138.298 152.182C138.382 152.494 138.425 152.836 138.425 153.207V153.612H134.479V152.875H137.521V152.807C137.508 152.572 137.46 152.344 137.375 152.123C137.294 151.902 137.163 151.719 136.984 151.576C136.805 151.433 136.561 151.361 136.252 151.361C136.047 151.361 135.858 151.405 135.686 151.493C135.513 151.578 135.365 151.705 135.241 151.874C135.118 152.043 135.021 152.25 134.953 152.494C134.885 152.738 134.851 153.02 134.851 153.339V153.544C134.851 153.795 134.885 154.031 134.953 154.252C135.025 154.47 135.127 154.662 135.261 154.828C135.397 154.994 135.562 155.124 135.754 155.219C135.949 155.313 136.171 155.36 136.418 155.36C136.737 155.36 137.007 155.295 137.229 155.165C137.45 155.035 137.644 154.861 137.81 154.643L138.356 155.077C138.243 155.25 138.098 155.414 137.922 155.57C137.746 155.727 137.53 155.854 137.272 155.951C137.019 156.049 136.717 156.098 136.369 156.098ZM142.595 155.097V152.377C142.595 152.169 142.552 151.988 142.468 151.835C142.386 151.679 142.263 151.558 142.097 151.474C141.931 151.389 141.726 151.347 141.481 151.347C141.254 151.347 141.053 151.386 140.881 151.464C140.712 151.542 140.578 151.645 140.48 151.771C140.386 151.898 140.339 152.035 140.339 152.182H139.436C139.436 151.993 139.484 151.806 139.582 151.62C139.68 151.435 139.82 151.267 140.002 151.117C140.188 150.964 140.409 150.844 140.666 150.756C140.926 150.665 141.216 150.619 141.535 150.619C141.919 150.619 142.258 150.684 142.551 150.814C142.847 150.945 143.078 151.142 143.244 151.405C143.413 151.666 143.498 151.993 143.498 152.387V154.848C143.498 155.023 143.513 155.211 143.542 155.409C143.575 155.608 143.622 155.779 143.684 155.922V156H142.741C142.696 155.896 142.66 155.757 142.634 155.585C142.608 155.409 142.595 155.246 142.595 155.097ZM142.751 152.797L142.761 153.432H141.848C141.59 153.432 141.361 153.453 141.159 153.495C140.957 153.534 140.788 153.594 140.651 153.676C140.515 153.757 140.41 153.86 140.339 153.983C140.267 154.104 140.231 154.245 140.231 154.408C140.231 154.574 140.269 154.726 140.344 154.862C140.419 154.999 140.531 155.108 140.681 155.189C140.834 155.268 141.021 155.307 141.242 155.307C141.519 155.307 141.763 155.248 141.975 155.131C142.186 155.014 142.354 154.87 142.478 154.701C142.604 154.532 142.673 154.368 142.683 154.208L143.068 154.643C143.046 154.779 142.984 154.931 142.883 155.097C142.782 155.263 142.647 155.422 142.478 155.575C142.312 155.725 142.113 155.85 141.882 155.951C141.654 156.049 141.397 156.098 141.11 156.098C140.752 156.098 140.438 156.028 140.168 155.888C139.901 155.748 139.693 155.561 139.543 155.326C139.396 155.089 139.323 154.823 139.323 154.53C139.323 154.247 139.379 153.998 139.489 153.783C139.6 153.565 139.759 153.384 139.968 153.241C140.176 153.095 140.427 152.984 140.72 152.909C141.013 152.834 141.34 152.797 141.701 152.797H142.751ZM145.822 151.547V156H144.919V150.717H145.798L145.822 151.547ZM147.473 150.688L147.468 151.527C147.393 151.511 147.321 151.501 147.253 151.498C147.188 151.492 147.113 151.488 147.028 151.488C146.82 151.488 146.636 151.521 146.477 151.586C146.317 151.651 146.182 151.742 146.071 151.859C145.961 151.977 145.873 152.117 145.808 152.279C145.746 152.439 145.705 152.615 145.686 152.807L145.432 152.953C145.432 152.634 145.463 152.335 145.524 152.055C145.59 151.775 145.689 151.527 145.822 151.312C145.956 151.094 146.125 150.925 146.33 150.805C146.538 150.681 146.786 150.619 147.072 150.619C147.137 150.619 147.212 150.627 147.297 150.644C147.382 150.657 147.44 150.671 147.473 150.688ZM150.324 155.355C150.539 155.355 150.738 155.312 150.92 155.224C151.102 155.136 151.252 155.015 151.369 154.862C151.486 154.706 151.553 154.529 151.569 154.33H152.429C152.412 154.643 152.307 154.934 152.111 155.204C151.919 155.471 151.667 155.688 151.354 155.854C151.042 156.016 150.699 156.098 150.324 156.098C149.927 156.098 149.58 156.028 149.284 155.888C148.991 155.748 148.747 155.556 148.552 155.312C148.36 155.067 148.215 154.787 148.117 154.472C148.023 154.153 147.976 153.816 147.976 153.461V153.256C147.976 152.901 148.023 152.566 148.117 152.25C148.215 151.931 148.36 151.649 148.552 151.405C148.747 151.161 148.991 150.969 149.284 150.829C149.58 150.689 149.927 150.619 150.324 150.619C150.738 150.619 151.099 150.704 151.408 150.873C151.717 151.039 151.96 151.267 152.136 151.557C152.315 151.843 152.412 152.169 152.429 152.533H151.569C151.553 152.315 151.491 152.118 151.384 151.942C151.28 151.767 151.136 151.627 150.954 151.522C150.775 151.415 150.565 151.361 150.324 151.361C150.048 151.361 149.815 151.417 149.626 151.527C149.44 151.635 149.292 151.781 149.182 151.967C149.074 152.149 148.996 152.353 148.947 152.577C148.902 152.799 148.879 153.025 148.879 153.256V153.461C148.879 153.692 148.902 153.92 148.947 154.145C148.993 154.369 149.069 154.573 149.177 154.755C149.287 154.937 149.436 155.084 149.621 155.194C149.81 155.302 150.044 155.355 150.324 155.355ZM154.348 148.5V156H153.444V148.5H154.348ZM154.133 153.158L153.757 153.144C153.76 152.782 153.814 152.449 153.918 152.143C154.022 151.833 154.169 151.565 154.357 151.337C154.546 151.109 154.771 150.933 155.031 150.81C155.295 150.683 155.586 150.619 155.905 150.619C156.166 150.619 156.4 150.655 156.608 150.727C156.817 150.795 156.994 150.906 157.141 151.059C157.29 151.212 157.404 151.41 157.482 151.654C157.561 151.895 157.6 152.19 157.6 152.538V156H156.691V152.528C156.691 152.252 156.651 152.03 156.569 151.864C156.488 151.695 156.369 151.573 156.213 151.498C156.057 151.42 155.865 151.381 155.637 151.381C155.412 151.381 155.207 151.428 155.021 151.522C154.839 151.617 154.681 151.747 154.548 151.913C154.418 152.079 154.315 152.27 154.24 152.484C154.169 152.696 154.133 152.921 154.133 153.158ZM162.336 148.5V156H161.433V148.5H162.336ZM162.121 153.158L161.745 153.144C161.748 152.782 161.802 152.449 161.906 152.143C162.01 151.833 162.157 151.565 162.346 151.337C162.535 151.109 162.759 150.933 163.02 150.81C163.283 150.683 163.575 150.619 163.894 150.619C164.154 150.619 164.388 150.655 164.597 150.727C164.805 150.795 164.982 150.906 165.129 151.059C165.279 151.212 165.393 151.41 165.471 151.654C165.549 151.895 165.588 152.19 165.588 152.538V156H164.68V152.528C164.68 152.252 164.639 152.03 164.558 151.864C164.476 151.695 164.357 151.573 164.201 151.498C164.045 151.42 163.853 151.381 163.625 151.381C163.4 151.381 163.195 151.428 163.01 151.522C162.827 151.617 162.67 151.747 162.536 151.913C162.406 152.079 162.303 152.27 162.229 152.484C162.157 152.696 162.121 152.921 162.121 153.158ZM167.922 150.717V156H167.014V150.717H167.922ZM166.945 149.315C166.945 149.169 166.989 149.045 167.077 148.944C167.168 148.843 167.302 148.793 167.478 148.793C167.65 148.793 167.782 148.843 167.873 148.944C167.967 149.045 168.015 149.169 168.015 149.315C168.015 149.455 167.967 149.576 167.873 149.677C167.782 149.774 167.65 149.823 167.478 149.823C167.302 149.823 167.168 149.774 167.077 149.677C166.989 149.576 166.945 149.455 166.945 149.315ZM172.448 154.599C172.448 154.468 172.419 154.348 172.36 154.237C172.305 154.123 172.189 154.021 172.014 153.93C171.841 153.835 171.581 153.754 171.232 153.686C170.939 153.624 170.674 153.55 170.437 153.466C170.202 153.381 170.002 153.279 169.836 153.158C169.673 153.038 169.548 152.896 169.46 152.733C169.372 152.571 169.328 152.38 169.328 152.162C169.328 151.954 169.374 151.757 169.465 151.571C169.559 151.386 169.691 151.221 169.86 151.078C170.033 150.935 170.24 150.823 170.48 150.741C170.721 150.66 170.99 150.619 171.286 150.619C171.709 150.619 172.071 150.694 172.37 150.844C172.67 150.993 172.899 151.194 173.059 151.444C173.218 151.692 173.298 151.967 173.298 152.27H172.395C172.395 152.123 172.351 151.981 172.263 151.845C172.178 151.705 172.053 151.589 171.887 151.498C171.724 151.407 171.524 151.361 171.286 151.361C171.035 151.361 170.832 151.4 170.676 151.479C170.523 151.553 170.41 151.649 170.339 151.767C170.271 151.884 170.236 152.007 170.236 152.138C170.236 152.235 170.253 152.323 170.285 152.401C170.321 152.476 170.383 152.546 170.471 152.611C170.559 152.673 170.682 152.732 170.842 152.787C171.001 152.842 171.205 152.898 171.452 152.953C171.885 153.051 172.242 153.168 172.521 153.305C172.801 153.441 173.01 153.609 173.146 153.808C173.283 154.006 173.352 154.247 173.352 154.53C173.352 154.761 173.303 154.973 173.205 155.165C173.111 155.357 172.972 155.523 172.79 155.663C172.611 155.8 172.396 155.907 172.146 155.985C171.898 156.06 171.62 156.098 171.311 156.098C170.845 156.098 170.451 156.015 170.129 155.849C169.807 155.683 169.562 155.468 169.396 155.204C169.23 154.94 169.147 154.662 169.147 154.369H170.056C170.069 154.617 170.14 154.813 170.271 154.96C170.401 155.103 170.56 155.206 170.749 155.268C170.938 155.326 171.125 155.355 171.311 155.355C171.558 155.355 171.765 155.323 171.931 155.258C172.1 155.193 172.229 155.103 172.316 154.989C172.404 154.875 172.448 154.745 172.448 154.599ZM176.75 150.717V151.41H173.894V150.717H176.75ZM174.86 149.433H175.764V154.691C175.764 154.87 175.791 155.006 175.847 155.097C175.902 155.188 175.974 155.248 176.062 155.277C176.149 155.307 176.244 155.321 176.345 155.321C176.42 155.321 176.498 155.315 176.579 155.302C176.664 155.285 176.727 155.272 176.77 155.263L176.774 156C176.703 156.023 176.608 156.044 176.491 156.063C176.377 156.086 176.239 156.098 176.076 156.098C175.855 156.098 175.651 156.054 175.466 155.966C175.28 155.878 175.132 155.731 175.021 155.526C174.914 155.318 174.86 155.038 174.86 154.687V149.433ZM177.473 153.417V153.305C177.473 152.924 177.528 152.571 177.639 152.245C177.749 151.916 177.909 151.632 178.117 151.391C178.326 151.146 178.578 150.958 178.874 150.824C179.17 150.688 179.502 150.619 179.87 150.619C180.241 150.619 180.575 150.688 180.871 150.824C181.171 150.958 181.424 151.146 181.633 151.391C181.844 151.632 182.006 151.916 182.116 152.245C182.227 152.571 182.282 152.924 182.282 153.305V153.417C182.282 153.798 182.227 154.151 182.116 154.477C182.006 154.802 181.844 155.087 181.633 155.331C181.424 155.572 181.172 155.761 180.876 155.897C180.583 156.031 180.251 156.098 179.88 156.098C179.509 156.098 179.175 156.031 178.879 155.897C178.583 155.761 178.329 155.572 178.117 155.331C177.909 155.087 177.749 154.802 177.639 154.477C177.528 154.151 177.473 153.798 177.473 153.417ZM178.376 153.305V153.417C178.376 153.681 178.407 153.93 178.469 154.164C178.531 154.395 178.623 154.6 178.747 154.779C178.874 154.958 179.032 155.1 179.221 155.204C179.41 155.305 179.629 155.355 179.88 155.355C180.127 155.355 180.344 155.305 180.529 155.204C180.718 155.1 180.874 154.958 180.998 154.779C181.122 154.6 181.215 154.395 181.276 154.164C181.341 153.93 181.374 153.681 181.374 153.417V153.305C181.374 153.044 181.341 152.799 181.276 152.567C181.215 152.333 181.12 152.126 180.993 151.947C180.869 151.765 180.713 151.622 180.524 151.518C180.339 151.413 180.121 151.361 179.87 151.361C179.623 151.361 179.405 151.413 179.216 151.518C179.03 151.622 178.874 151.765 178.747 151.947C178.623 152.126 178.531 152.333 178.469 152.567C178.407 152.799 178.376 153.044 178.376 153.305ZM184.318 151.547V156H183.415V150.717H184.294L184.318 151.547ZM185.969 150.688L185.964 151.527C185.889 151.511 185.817 151.501 185.749 151.498C185.684 151.492 185.609 151.488 185.524 151.488C185.316 151.488 185.132 151.521 184.973 151.586C184.813 151.651 184.678 151.742 184.567 151.859C184.457 151.977 184.369 152.117 184.304 152.279C184.242 152.439 184.201 152.615 184.182 152.807L183.928 152.953C183.928 152.634 183.959 152.335 184.021 152.055C184.086 151.775 184.185 151.527 184.318 151.312C184.452 151.094 184.621 150.925 184.826 150.805C185.035 150.681 185.282 150.619 185.568 150.619C185.633 150.619 185.708 150.627 185.793 150.644C185.878 150.657 185.936 150.671 185.969 150.688ZM188.376 155.453L189.846 150.717H190.812L188.693 156.815C188.645 156.946 188.579 157.086 188.498 157.235C188.42 157.388 188.319 157.533 188.195 157.67C188.072 157.807 187.922 157.917 187.746 158.002C187.574 158.09 187.367 158.134 187.126 158.134C187.054 158.134 186.963 158.124 186.853 158.104C186.742 158.085 186.664 158.069 186.618 158.056L186.613 157.323C186.639 157.326 186.68 157.33 186.735 157.333C186.794 157.34 186.835 157.343 186.857 157.343C187.062 157.343 187.237 157.315 187.38 157.26C187.523 157.208 187.644 157.118 187.741 156.991C187.842 156.868 187.928 156.697 188 156.479L188.376 155.453ZM187.297 150.717L188.669 154.818L188.903 155.771L188.254 156.103L186.311 150.717H187.297ZM195.456 156H194.553V150.16C194.553 149.779 194.621 149.459 194.758 149.198C194.898 148.935 195.098 148.736 195.358 148.603C195.619 148.466 195.928 148.397 196.286 148.397C196.39 148.397 196.494 148.404 196.599 148.417C196.706 148.43 196.81 148.45 196.911 148.476L196.862 149.213C196.794 149.197 196.716 149.185 196.628 149.179C196.543 149.172 196.459 149.169 196.374 149.169C196.182 149.169 196.016 149.208 195.876 149.286C195.739 149.361 195.635 149.472 195.563 149.618C195.492 149.765 195.456 149.945 195.456 150.16V156ZM196.579 150.717V151.41H193.718V150.717H196.579ZM197.346 153.417V153.305C197.346 152.924 197.401 152.571 197.512 152.245C197.622 151.916 197.782 151.632 197.99 151.391C198.199 151.146 198.451 150.958 198.747 150.824C199.043 150.688 199.375 150.619 199.743 150.619C200.114 150.619 200.448 150.688 200.744 150.824C201.044 150.958 201.298 151.146 201.506 151.391C201.717 151.632 201.879 151.916 201.989 152.245C202.1 152.571 202.155 152.924 202.155 153.305V153.417C202.155 153.798 202.1 154.151 201.989 154.477C201.879 154.802 201.717 155.087 201.506 155.331C201.298 155.572 201.045 155.761 200.749 155.897C200.456 156.031 200.124 156.098 199.753 156.098C199.382 156.098 199.048 156.031 198.752 155.897C198.456 155.761 198.202 155.572 197.99 155.331C197.782 155.087 197.622 154.802 197.512 154.477C197.401 154.151 197.346 153.798 197.346 153.417ZM198.249 153.305V153.417C198.249 153.681 198.28 153.93 198.342 154.164C198.404 154.395 198.496 154.6 198.62 154.779C198.747 154.958 198.905 155.1 199.094 155.204C199.283 155.305 199.502 155.355 199.753 155.355C200 155.355 200.217 155.305 200.402 155.204C200.591 155.1 200.747 154.958 200.871 154.779C200.995 154.6 201.088 154.395 201.149 154.164C201.215 153.93 201.247 153.681 201.247 153.417V153.305C201.247 153.044 201.215 152.799 201.149 152.567C201.088 152.333 200.993 152.126 200.866 151.947C200.743 151.765 200.586 151.622 200.397 151.518C200.212 151.413 199.994 151.361 199.743 151.361C199.496 151.361 199.278 151.413 199.089 151.518C198.903 151.622 198.747 151.765 198.62 151.947C198.496 152.126 198.404 152.333 198.342 152.567C198.28 152.799 198.249 153.044 198.249 153.305ZM206.521 154.779V150.717H207.429V156H206.564L206.521 154.779ZM206.691 153.666L207.067 153.656C207.067 154.008 207.03 154.333 206.955 154.633C206.883 154.929 206.766 155.186 206.604 155.404C206.441 155.622 206.228 155.793 205.964 155.917C205.7 156.037 205.38 156.098 205.002 156.098C204.745 156.098 204.509 156.06 204.294 155.985C204.082 155.91 203.9 155.795 203.747 155.639C203.594 155.482 203.475 155.279 203.391 155.028C203.309 154.778 203.269 154.477 203.269 154.125V150.717H204.172V154.135C204.172 154.372 204.198 154.569 204.25 154.726C204.305 154.879 204.379 155.001 204.47 155.092C204.564 155.18 204.668 155.242 204.782 155.277C204.899 155.313 205.02 155.331 205.144 155.331C205.528 155.331 205.832 155.258 206.057 155.111C206.281 154.962 206.442 154.761 206.54 154.511C206.641 154.257 206.691 153.975 206.691 153.666ZM209.709 151.845V156H208.806V150.717H209.66L209.709 151.845ZM209.494 153.158L209.118 153.144C209.121 152.782 209.175 152.449 209.279 152.143C209.383 151.833 209.53 151.565 209.719 151.337C209.908 151.109 210.132 150.933 210.393 150.81C210.656 150.683 210.948 150.619 211.267 150.619C211.527 150.619 211.761 150.655 211.97 150.727C212.178 150.795 212.355 150.906 212.502 151.059C212.652 151.212 212.766 151.41 212.844 151.654C212.922 151.895 212.961 152.19 212.961 152.538V156H212.053V152.528C212.053 152.252 212.012 152.03 211.931 151.864C211.849 151.695 211.73 151.573 211.574 151.498C211.418 151.42 211.226 151.381 210.998 151.381C210.773 151.381 210.568 151.428 210.383 151.522C210.201 151.617 210.043 151.747 209.909 151.913C209.779 152.079 209.676 152.27 209.602 152.484C209.53 152.696 209.494 152.921 209.494 153.158ZM217.663 154.975V148.5H218.571V156H217.741L217.663 154.975ZM214.108 153.417V153.314C214.108 152.911 214.157 152.545 214.255 152.216C214.356 151.884 214.497 151.599 214.68 151.361C214.865 151.124 215.085 150.941 215.339 150.814C215.596 150.684 215.882 150.619 216.198 150.619C216.53 150.619 216.82 150.678 217.067 150.795C217.318 150.909 217.53 151.076 217.702 151.298C217.878 151.516 218.016 151.78 218.117 152.089C218.218 152.398 218.288 152.748 218.327 153.139V153.588C218.291 153.975 218.221 154.324 218.117 154.633C218.016 154.942 217.878 155.206 217.702 155.424C217.53 155.642 217.318 155.81 217.067 155.927C216.817 156.041 216.524 156.098 216.188 156.098C215.879 156.098 215.596 156.031 215.339 155.897C215.085 155.764 214.865 155.577 214.68 155.336C214.497 155.095 214.356 154.812 214.255 154.486C214.157 154.158 214.108 153.801 214.108 153.417ZM215.017 153.314V153.417C215.017 153.681 215.043 153.928 215.095 154.159C215.15 154.39 215.235 154.594 215.349 154.77C215.463 154.945 215.607 155.084 215.783 155.185C215.959 155.282 216.169 155.331 216.413 155.331C216.713 155.331 216.958 155.268 217.15 155.141C217.346 155.014 217.502 154.846 217.619 154.638C217.736 154.429 217.827 154.203 217.893 153.959V152.782C217.854 152.603 217.797 152.431 217.722 152.265C217.65 152.095 217.556 151.946 217.438 151.815C217.325 151.682 217.183 151.576 217.014 151.498C216.848 151.42 216.651 151.381 216.423 151.381C216.175 151.381 215.962 151.433 215.783 151.537C215.607 151.638 215.463 151.778 215.349 151.957C215.235 152.133 215.15 152.338 215.095 152.572C215.043 152.803 215.017 153.051 215.017 153.314Z" fill="#B6B6B6"/>
<path d="M245.647 91.0664H70.712C70.4452 91.0664 70.1893 90.9604 70.0006 90.7716C69.8119 90.5828 69.7059 90.3268 69.7059 90.0598C69.7059 89.7929 69.8119 89.5368 70.0006 89.348C70.1893 89.1593 70.4452 89.0532 70.712 89.0532H245.647C245.913 89.0532 246.169 89.1593 246.358 89.348C246.547 89.5368 246.653 89.7929 246.653 90.0598C246.653 90.3268 246.547 90.5828 246.358 90.7716C246.169 90.9604 245.913 91.0664 245.647 91.0664Z" fill="#E3ECF5"/>
<path d="M92.8312 83.5389C93.011 82.4308 92.2588 81.3866 91.1512 81.2067C90.0435 81.0269 88.9999 81.7794 88.8201 82.8875C88.6403 83.9957 89.3925 85.0399 90.5001 85.2197C91.6077 85.3996 92.6514 84.6471 92.8312 83.5389Z" fill="#E3ECF5"/>
<path d="M100.98 83.6645C101.238 82.5718 100.561 81.477 99.4693 81.2191C98.3772 80.9612 97.2829 81.6379 97.0251 82.7306C96.7674 83.8232 97.4437 84.918 98.5359 85.1759C99.628 85.4338 100.722 84.7571 100.98 83.6645Z" fill="#E3ECF5"/>
<path d="M109.231 83.5384C109.411 82.4303 108.659 81.3861 107.551 81.2062C106.444 81.0263 105.4 81.7789 105.22 82.887C105.04 83.9952 105.793 85.0394 106.9 85.2193C108.008 85.3991 109.052 84.6466 109.231 83.5384Z" fill="#E3ECF5"/>
<path d="M32.4519 173.756C28.4386 173.625 24.09 172.227 24.185 165.796C24.28 159.365 28.9557 158.35 29.4308 153.529C29.9059 148.709 29.9366 144.212 32.4519 144.165C34.9672 144.117 33.3742 146.178 34.548 148.412C35.7218 150.646 37.9911 153.507 37.5495 157.684C37.1079 161.861 40.0816 163.458 39.9251 166.875C39.7685 170.292 37.6334 173.904 32.4519 173.756Z" fill="#DAEEFF"/>
<path d="M33.9303 157.306C33.9142 157.29 33.8951 157.277 33.874 157.268C33.8529 157.259 33.8302 157.255 33.8073 157.255C33.7845 157.255 33.7619 157.259 33.7408 157.268C33.7196 157.277 33.7005 157.29 33.6844 157.306C33.6523 157.339 33.6343 157.383 33.6343 157.429C33.6343 157.475 33.6523 157.519 33.6844 157.552C33.6844 157.552 34.7296 158.604 34.6234 162.166C34.5312 165.241 32.9466 170.012 32.4295 171.452C31.9572 170.333 31.3452 169.092 30.8282 168.049C30.4816 167.347 30.1798 166.737 30.0177 166.354C29.4196 164.956 30.3279 162.009 30.3363 161.981C30.3496 161.937 30.345 161.889 30.3236 161.848C30.3023 161.806 30.2657 161.775 30.2217 161.76C30.1999 161.753 30.1769 161.751 30.1541 161.753C30.1313 161.755 30.1091 161.761 30.0888 161.772C30.0685 161.783 30.0506 161.797 30.036 161.815C30.0213 161.833 30.0104 161.853 30.0037 161.875C29.9646 162.001 29.0479 164.973 29.6935 166.491C29.8612 166.886 30.1658 167.498 30.5151 168.205C31.4542 170.104 32.8767 172.973 32.8543 174.077C32.8236 175.626 32.6364 177.846 32.6336 177.869C32.6297 177.915 32.6442 177.961 32.6741 177.997C32.7039 178.032 32.7466 178.055 32.7929 178.059H32.8096C32.8531 178.058 32.8948 178.042 32.9268 178.012C32.9588 177.983 32.9788 177.943 32.9829 177.899C32.9829 177.877 33.1729 175.643 33.2037 174.086C33.2037 173.585 32.9773 172.808 32.628 171.927C32.8599 171.292 34.8638 165.672 34.9728 162.166C35.0902 158.433 33.9778 157.348 33.9303 157.306Z" fill="#6AC1FF"/>
<path d="M329.875 157.108C326.457 157.005 322.748 155.805 322.832 150.311C322.916 144.816 326.898 143.963 327.304 139.856C327.709 135.749 327.731 131.921 329.875 131.882C332.018 131.842 330.663 133.596 331.663 135.502C332.664 137.409 334.598 139.845 334.223 143.404C333.849 146.964 336.381 148.328 336.25 151.233C336.118 154.139 334.285 157.239 329.875 157.108Z" fill="#DAEEFF"/>
<path d="M331.141 143.083C331.127 143.069 331.111 143.058 331.093 143.05C331.075 143.043 331.056 143.039 331.036 143.039C331.017 143.039 330.997 143.043 330.979 143.05C330.961 143.058 330.945 143.069 330.931 143.083C330.917 143.096 330.907 143.113 330.899 143.131C330.892 143.149 330.888 143.168 330.888 143.187C330.888 143.207 330.892 143.226 330.899 143.244C330.907 143.262 330.917 143.278 330.931 143.292C330.931 143.292 331.823 144.187 331.733 147.226C331.655 149.852 330.294 153.915 329.864 155.142C329.458 154.186 328.939 153.129 328.497 152.243C328.201 151.641 327.938 151.124 327.804 150.797C327.298 149.603 328.083 147.092 328.083 147.067C328.089 147.048 328.092 147.029 328.09 147.009C328.088 146.99 328.083 146.971 328.074 146.954C328.064 146.937 328.052 146.922 328.037 146.909C328.022 146.897 328.004 146.888 327.986 146.882C327.967 146.876 327.947 146.874 327.928 146.876C327.908 146.877 327.889 146.883 327.871 146.892C327.854 146.901 327.839 146.914 327.826 146.929C327.813 146.944 327.804 146.961 327.798 146.98C327.765 147.087 326.985 149.62 327.536 150.914C327.678 151.25 327.935 151.77 328.237 152.374C329.036 153.993 330.249 156.44 330.23 157.39C330.202 158.71 330.043 160.603 330.043 160.623C330.041 160.642 330.043 160.662 330.049 160.681C330.054 160.7 330.064 160.717 330.077 160.733C330.09 160.748 330.105 160.76 330.123 160.769C330.14 160.778 330.16 160.783 330.179 160.785C330.217 160.785 330.253 160.771 330.28 160.745C330.308 160.72 330.325 160.685 330.328 160.648C330.328 160.628 330.49 158.727 330.515 157.396C330.46 156.759 330.294 156.136 330.026 155.556C330.224 155.016 331.937 150.224 332.024 147.235C332.127 144.044 331.18 143.122 331.141 143.083Z" fill="#6AC1FF"/>
<path d="M62.8839 146.98C60.5336 146.907 57.9819 146.083 58.0378 142.305C58.0937 138.527 60.8326 137.94 61.1121 135.113C61.3915 132.287 61.4055 129.655 62.8812 129.627C64.3568 129.599 63.4233 130.807 64.1108 132.119C64.7984 133.43 66.1287 135.105 65.8715 137.554C65.6144 140.004 67.3555 140.94 67.2689 142.945C67.1823 144.95 65.9246 147.061 62.8839 146.98Z" fill="#DAEEFF"/>
<path d="M63.7531 137.334C63.7338 137.314 63.7076 137.304 63.6804 137.304C63.6532 137.304 63.6271 137.314 63.6078 137.334C63.598 137.343 63.5903 137.354 63.585 137.366C63.5797 137.378 63.577 137.392 63.577 137.405C63.577 137.418 63.5797 137.431 63.585 137.444C63.5903 137.456 63.598 137.467 63.6078 137.476C63.6078 137.476 64.2198 138.094 64.1667 140.183C64.1136 141.989 63.1774 144.785 62.8811 145.627C62.6017 144.97 62.2467 144.246 61.9421 143.633C61.7381 143.219 61.562 142.864 61.467 142.638C61.1177 141.819 61.6487 140.091 61.6542 140.074C61.6604 140.06 61.6637 140.046 61.6639 140.031C61.664 140.016 61.661 140.002 61.655 139.988C61.6491 139.975 61.6404 139.963 61.6294 139.953C61.6184 139.943 61.6055 139.936 61.5915 139.931C61.5774 139.927 61.5626 139.926 61.548 139.927C61.5334 139.929 61.5193 139.934 61.5068 139.942C61.4942 139.949 61.4834 139.96 61.4751 139.972C61.4668 139.984 61.4612 139.998 61.4586 140.012C61.4363 140.088 60.8997 141.83 61.277 142.719C61.3748 142.951 61.5564 143.309 61.7604 143.725C62.3194 144.844 63.1439 146.522 63.1299 147.173C63.1131 148.082 63.0013 149.385 63.0013 149.41C63.0002 149.423 63.0017 149.437 63.0059 149.45C63.0101 149.463 63.0169 149.474 63.0257 149.485C63.0346 149.495 63.0454 149.503 63.0575 149.509C63.0697 149.515 63.0829 149.518 63.0963 149.519C63.1218 149.52 63.1466 149.511 63.1654 149.493C63.1842 149.476 63.1955 149.452 63.197 149.427C63.197 149.413 63.3087 148.104 63.3255 147.19C63.2879 146.751 63.1744 146.323 62.9901 145.923C63.1243 145.551 64.3037 142.258 64.3652 140.2C64.4322 137.993 63.7811 137.359 63.7531 137.334Z" fill="#6AC1FF"/>
<path d="M293.216 184.965C289.108 184.842 284.647 183.4 284.745 176.795C284.843 170.191 289.636 169.162 290.125 164.213C290.614 159.264 290.637 154.675 293.216 154.625C295.796 154.575 294.164 156.688 295.365 158.981C296.567 161.274 298.895 164.202 298.439 168.488C297.984 172.774 301.036 174.41 300.876 177.908C300.717 181.406 298.532 185.128 293.216 184.965Z" fill="#DAEEFF"/>
<path d="M294.736 168.105C294.702 168.072 294.656 168.054 294.609 168.056C294.561 168.057 294.516 168.077 294.484 168.112C294.451 168.146 294.433 168.192 294.435 168.24C294.436 168.287 294.456 168.332 294.49 168.365C294.49 168.365 295.561 169.441 295.452 173.096C295.36 176.252 293.722 181.137 293.216 182.602C292.73 181.45 292.098 180.184 291.573 179.116C291.218 178.394 290.908 177.771 290.734 177.377C290.125 175.942 291.053 172.925 291.064 172.903C291.078 172.857 291.074 172.808 291.051 172.766C291.029 172.723 290.991 172.692 290.945 172.678C290.9 172.664 290.85 172.668 290.808 172.69C290.766 172.713 290.734 172.751 290.72 172.797C290.681 172.925 289.742 175.97 290.405 177.525C290.575 177.93 290.888 178.556 291.243 179.283C292.207 181.241 293.663 184.171 293.641 185.315C293.61 186.9 293.417 189.179 293.415 189.201C293.411 189.249 293.427 189.295 293.458 189.331C293.489 189.367 293.532 189.39 293.579 189.394H293.593C293.638 189.394 293.681 189.378 293.714 189.348C293.747 189.318 293.768 189.277 293.772 189.232C293.772 189.207 293.968 186.92 293.999 185.317C293.999 184.806 293.769 184.009 293.412 183.106C293.646 182.454 295.706 176.694 295.812 173.101C295.924 169.259 294.784 168.149 294.736 168.105Z" fill="#6AC1FF"/>
<path d="M69.6472 190.379C67.3136 190.988 58.4682 190.63 60.1451 186.266C62.0232 181.411 67.0341 185.653 69.1861 188.346C68.5443 184.713 68.2384 181.029 68.2722 177.34C66.682 175.428 63.3227 163.287 69.9491 163.888C78.6128 164.677 70.9384 176.169 68.9402 177.475C68.9402 180.271 69.1302 185.824 70.3962 190.639C70.6757 187.58 73.7164 178.875 77.7688 181.946C83.6378 186.397 72.3973 191.771 70.6925 191.679C71.1599 193.336 71.8801 194.911 72.8277 196.348C73.4788 197.279 74.1999 198.359 74.9461 199.533L74.988 199.578C75.3653 196.357 78.3697 188.083 82.3382 191.086C87.8271 195.244 78.3864 200.201 75.7174 200.766C77.4622 203.573 79.0239 206.49 80.393 209.498C80.5775 206.59 86.2816 200.643 88.5481 204.043C89.8141 205.939 83.1263 212.118 80.9213 210.734C82.1789 213.81 82.9335 216.682 82.6736 218.776C82.5758 219.548 82.436 220.454 82.2711 221.449C83.8334 219.718 89.4788 213.925 91.1584 218.41C92.5558 222.128 87.897 224.281 85.9378 224.281C84.4063 224.281 82.7826 222.833 82.1454 222.198C82.0559 222.735 81.9628 223.284 81.8659 223.845C81.0778 228.422 80.1331 233.931 80.4126 237.244C81.7457 234.658 87.6985 223.884 91.1612 230.813C92.9387 234.364 87.8998 237.342 85.9406 237.994C84.3364 238.53 81.469 238.049 80.4797 237.859C80.5258 238.202 80.6006 238.541 80.7033 238.871C81.9805 242.699 84.5544 246.589 84.5824 246.628C84.6147 246.678 84.6328 246.736 84.6349 246.795C84.637 246.855 84.623 246.914 84.5943 246.966C84.5657 247.018 84.5235 247.061 84.4722 247.091C84.4209 247.122 84.3624 247.137 84.3029 247.137C84.248 247.137 84.1938 247.124 84.145 247.099C84.0963 247.074 84.0546 247.037 84.0234 246.991C82.7506 245.017 81.6438 242.939 80.7144 240.781C79.1773 240.586 73.2692 239.78 71.57 238.648C69.6137 237.342 66.1063 233.056 68.9597 231.465C73.3726 229.012 78.0035 235.533 80.0297 238.925C79.2751 236.408 79.9431 231.33 80.7284 226.574C79.1494 227.047 74.021 226.13 72.2212 224.936C70.2649 223.63 66.8888 220.247 68.9597 218.407C74.1468 213.793 79.6301 223.566 80.8374 225.912C80.9632 225.171 81.089 224.441 81.2091 223.736C81.5361 221.838 81.8435 220.048 82.014 218.703C82.2572 216.746 81.5333 213.95 80.2393 210.818C79.2109 211.145 75.7258 212.11 71.897 211.562C67.3276 210.908 65.0108 207.348 66.6736 205.69C69.5075 202.858 77.875 208.727 80.0381 210.329C78.5572 206.966 76.8232 203.721 74.8511 200.621C72.1877 201.239 61.5816 201.012 63.0181 196.798C64.4546 192.585 69.882 195.42 73.0792 197.889C72.8165 197.5 72.5538 197.114 72.2883 196.737C71.0865 194.998 70.2425 192.755 69.6472 190.379Z" fill="url(#paint1_linear_263_92)"/>
<path d="M88.5509 230.816C94.0314 228.624 95.3701 237.012 95.658 239.763C96.8653 235.754 97.3767 230.872 96.8318 226.901C95.9933 226.882 92.7682 226.728 90.51 225.598C87.8997 224.292 86.29 219.064 88.5537 218.418C92.3574 217.33 95.7027 223.923 96.72 226.171C96.6306 225.665 96.5243 225.173 96.3986 224.706C95.4922 221.147 94.9233 217.51 94.6994 213.843C93.6709 213.824 90.7867 213.723 89.2077 213.195C87.2514 212.54 83.934 207.426 86.5974 206.663C90.2669 205.614 93.5116 210.882 94.6491 212.996C94.4283 208.958 94.596 205.075 95.2807 202.427C95.0012 201.264 94.4423 198.792 94.4423 196.871C94.4423 194.259 97.4718 189.117 100.311 191.645C105.507 196.267 97.7205 201.669 95.8536 202.852C95.222 205.461 95.0823 209.224 95.2947 213.128C96.4601 210.192 101.164 199.619 106.823 204.706C108.992 206.663 104.213 211.235 100.954 212.535C99.1632 213.258 97.271 213.699 95.345 213.841C95.5684 217.447 96.1299 221.025 97.0218 224.527C97.173 225.096 97.2951 225.672 97.3879 226.252C98.626 223.755 104.375 213.133 110.738 217.758C113.377 219.679 108.128 224.287 105.518 225.587C103.282 226.705 98.7154 226.767 97.4662 226.761C98.0084 230.721 97.5193 235.569 96.3483 239.623C98.2683 236.724 103.872 229.278 108.134 234.068C110.649 236.914 104.118 239.324 102.265 239.939C100.63 240.499 97.1308 240.647 96.0241 240.686C95.0934 243.482 93.833 245.817 92.3602 247.044C92.3019 247.095 92.2275 247.122 92.1506 247.123C92.0833 247.123 92.0176 247.102 91.9624 247.063C91.9073 247.025 91.8654 246.97 91.8425 246.907C91.8195 246.844 91.8167 246.775 91.8343 246.71C91.852 246.645 91.8892 246.587 91.941 246.544C93.3383 245.372 94.5513 243.152 95.44 240.468C94.6016 240.116 92.1198 239.047 90.5184 237.979C88.5509 236.69 85.5214 232.026 88.5509 230.816Z" fill="#F2BE3C"/>
<path d="M74.5213 247.14H104.216C104.302 247.14 104.385 247.105 104.447 247.044C104.508 246.982 104.542 246.899 104.542 246.813C104.542 246.726 104.508 246.643 104.447 246.581C104.385 246.52 104.302 246.485 104.216 246.485H74.5213C74.4783 246.485 74.4358 246.494 74.3962 246.51C74.3565 246.527 74.3204 246.551 74.2901 246.581C74.2597 246.612 74.2356 246.648 74.2192 246.687C74.2027 246.727 74.1943 246.77 74.1943 246.813C74.1943 246.855 74.2027 246.898 74.2192 246.938C74.2356 246.977 74.2597 247.013 74.2901 247.044C74.3204 247.074 74.3565 247.098 74.3962 247.115C74.4358 247.131 74.4783 247.14 74.5213 247.14Z" fill="#14336A"/>
<path d="M64.0773 247.14H70.93C71.0167 247.14 71.0999 247.105 71.1612 247.044C71.2226 246.982 71.257 246.899 71.257 246.813C71.257 246.726 71.2226 246.643 71.1612 246.581C71.0999 246.52 71.0167 246.485 70.93 246.485H64.0773C63.9906 246.485 63.9074 246.52 63.8461 246.581C63.7848 246.643 63.7503 246.726 63.7503 246.813C63.7503 246.899 63.7848 246.982 63.8461 247.044C63.9074 247.105 63.9906 247.14 64.0773 247.14Z" fill="#14336A"/>
<path d="M240.954 244.587H246.186V194.349H248.735V214.201H252.695V194.349H255.244V216.743H248.735V244.587H253.969C254.297 244.602 254.607 244.743 254.834 244.981C255.06 245.219 255.187 245.535 255.187 245.863C255.187 246.192 255.06 246.508 254.834 246.745C254.607 246.983 254.297 247.124 253.969 247.14H240.954C240.626 247.124 240.317 246.983 240.09 246.745C239.863 246.508 239.737 246.192 239.737 245.863C239.737 245.535 239.863 245.219 240.09 244.981C240.317 244.743 240.626 244.602 240.954 244.587Z" fill="url(#paint2_linear_263_92)"/>
<path d="M250.395 183.453C261.51 183.453 270.517 185.547 270.517 188.133V190.664C270.517 193.247 261.507 195.344 250.395 195.344C239.283 195.344 230.273 193.247 230.273 190.664V188.133C230.27 185.547 239.28 183.453 250.395 183.453Z" fill="url(#paint3_linear_263_92)"/>
<path opacity="0.1" d="M224.163 122.119C227.964 115.855 225.969 107.695 219.709 103.893C213.448 100.09 205.292 102.085 201.491 108.349C197.691 114.613 199.685 122.773 205.946 126.575C212.206 130.378 220.363 128.382 224.163 122.119Z" fill="white"/>
<path opacity="0.17" d="M221.167 111.167C220.928 111.169 220.694 111.092 220.501 110.951C220.307 110.809 220.165 110.608 220.094 110.379C219.626 108.881 218.582 107.63 217.192 106.901C215.803 106.172 214.181 106.025 212.683 106.492C212.398 106.581 212.09 106.554 211.825 106.415C211.561 106.277 211.363 106.039 211.274 105.754C211.185 105.469 211.213 105.161 211.351 104.897C211.49 104.632 211.727 104.434 212.012 104.345C214.079 103.699 216.318 103.901 218.236 104.907C220.155 105.913 221.595 107.64 222.241 109.708C222.328 109.991 222.299 110.298 222.161 110.56C222.023 110.822 221.786 111.018 221.503 111.106C221.395 111.143 221.282 111.163 221.167 111.167Z" fill="#50C6A1"/>
<path d="M208.094 100.086C205.097 101.023 202.445 102.828 200.474 105.272C198.503 107.717 197.3 110.691 197.018 113.819C196.736 116.948 197.388 120.089 198.89 122.847C200.393 125.605 202.679 127.855 205.46 129.313C208.241 130.771 211.391 131.371 214.513 131.038C217.634 130.704 220.587 129.452 222.998 127.44C225.408 125.428 227.168 122.746 228.055 119.733C228.942 116.72 228.916 113.511 227.981 110.513C226.726 106.492 223.925 103.134 220.196 101.179C216.466 99.2237 212.113 98.8307 208.094 100.086ZM216.782 127.913C214.28 128.694 211.602 128.714 209.087 127.973C206.573 127.231 204.334 125.761 202.655 123.747C200.975 121.733 199.93 119.266 199.651 116.659C199.372 114.051 199.872 111.418 201.087 109.095C202.303 106.771 204.179 104.86 206.48 103.602C208.781 102.345 211.403 101.799 214.014 102.032C216.625 102.264 219.109 103.266 221.151 104.911C223.193 106.555 224.702 108.769 225.488 111.271C226.009 112.935 226.196 114.685 226.04 116.421C225.885 118.157 225.388 119.846 224.58 121.39C223.771 122.934 222.666 124.304 221.328 125.421C219.991 126.538 218.446 127.38 216.782 127.899V127.913Z" fill="#D0DAED"/>
<path d="M218.733 129.472L216.094 130.297L219.847 142.315L222.486 141.49L218.733 129.472Z" fill="#D0DAED"/>
<path d="M227.894 163.491C227.494 163.616 227.073 163.661 226.656 163.624C226.238 163.586 225.832 163.466 225.46 163.272C225.089 163.077 224.76 162.811 224.491 162.489C224.222 162.166 224.02 161.794 223.895 161.394L218.127 142.92C218.058 142.707 218.033 142.483 218.052 142.26C218.072 142.038 218.135 141.821 218.239 141.624C218.344 141.426 218.486 141.251 218.659 141.109C218.831 140.967 219.031 140.862 219.245 140.798L222.106 139.903C222.319 139.835 222.543 139.809 222.766 139.829C222.988 139.848 223.205 139.912 223.402 140.016C223.6 140.12 223.775 140.263 223.916 140.435C224.058 140.608 224.164 140.807 224.228 141.021L229.996 159.495C230.247 160.304 230.166 161.179 229.772 161.929C229.378 162.678 228.703 163.24 227.894 163.491Z" fill="url(#paint4_linear_263_92)"/>
<path d="M229.009 155.377C229.009 155.377 223.065 151.711 221.274 149.815C219.482 147.92 218.722 147.058 219.183 146.656C219.644 146.253 224.661 148.462 225.147 148.09C225.633 147.718 225.209 146.793 225.754 146.373C226.299 145.954 229.535 149.293 230.301 149.038C231.066 148.784 229.901 154.787 229.009 155.377Z" fill="#FFAA9D"/>
<path d="M205.31 223.65L200.953 227.869L189.914 217.646L193.547 211.735L205.31 223.65Z" fill="#FFAA9D"/>
<path d="M201.59 227.248C201.59 227.248 198.552 231.059 197.979 231.065C197.406 231.07 184.662 217.274 184.746 216.83C184.83 216.385 190.394 216.863 190.394 216.863L201.59 227.248Z" fill="url(#paint5_linear_263_92)"/>
<path d="M192.871 211.118C192.871 211.118 205.634 224.466 206.126 224.466C206.618 224.466 267.521 177.679 267.521 177.679L241.703 166.215C241.703 166.215 208.921 175.238 192.871 211.118Z" fill="url(#paint6_linear_263_92)"/>
<path d="M250.688 215.119L252.846 220.786L239.11 226.915L235.108 221.248L250.688 215.119Z" fill="#FFAA9D"/>
<path d="M239.694 166.223C239.694 166.223 218.138 170.722 216.271 178.026C214.404 185.329 216.101 193.309 222.042 202.648C227.984 211.987 234.026 222.148 235.27 222.478C235.27 222.478 251.231 216.081 251.591 215.284C251.952 214.487 242.648 192.501 242.648 192.501C242.648 192.501 261.599 191.24 266.018 180.064L239.694 166.223Z" fill="url(#paint7_linear_263_92)"/>
<path d="M238.187 166.156C237.992 167.425 261.538 182.181 265.705 181.47C269.872 180.76 275.263 163.547 273.773 150.696C272.283 137.845 260.775 128.207 255.529 128.655C250.283 129.102 247.474 134.026 246.762 141.852C245.714 153.333 238.405 164.738 238.187 166.156Z" fill="url(#paint8_linear_263_92)"/>
<path d="M257.882 130.631C260.657 130.391 270.207 135.994 272.44 152.525C274.673 169.056 265.548 170.442 257.882 169.374C250.216 168.306 230.921 158.833 228.084 155.45C228.084 155.45 227.475 150.137 229.527 148.239C229.527 148.239 248.137 150.131 252.969 151.594C257.801 153.056 247.368 131.546 257.882 130.631Z" fill="url(#paint9_linear_263_92)"/>
<path d="M252.527 219.956C252.527 219.956 254.83 224.251 254.612 224.779C254.394 225.308 236.698 231.599 236.323 231.347C235.949 231.096 238.576 226.166 238.576 226.166L252.527 219.956Z" fill="url(#paint10_linear_263_92)"/>
<path d="M242.29 119.894L242.203 125.803L243.084 125.775C243.084 125.775 243.791 130.662 247.242 129.891C248.235 129.67 249.501 128.831 249.864 128.999C250.297 129.197 250.484 130.536 250.582 130.922C250.957 132.401 256.135 130.906 255.294 129.39C254.498 127.95 253.31 125.984 253.561 125.436C254.439 123.532 254.679 118.804 249.928 117.221C246.139 115.963 242.338 117.873 242.29 119.894Z" fill="#FFAA9D"/>
<path d="M255.294 129.39C254.498 127.95 253.31 125.985 253.561 125.437C253.561 125.437 251.563 128.512 249.719 128.976C249.77 128.97 249.823 128.975 249.872 128.993C250.305 129.192 250.493 130.531 250.591 130.917C250.957 132.402 256.135 130.906 255.294 129.39Z" fill="#FF9F91"/>
<path d="M250.278 122.791C252.513 122.411 251.116 127.368 253.57 127.203C256.024 127.038 257.728 121.678 255.931 117.546C254.134 113.413 250.711 113.631 247.452 114.207C244.193 114.783 240.186 116.245 240.186 118.712C240.186 124.648 247.209 119.668 247.673 121.452C248.033 122.833 248.584 126.823 247.153 126.915C245.722 127.008 244.269 125.828 243.14 126.13C242.489 126.306 240.697 134.087 245.376 134.347C250.004 134.605 251.175 130.52 250.199 127.181C249.285 124.007 249.193 122.978 250.278 122.791Z" fill="#14336A"/>
</g>
<defs>
<linearGradient id="paint0_linear_263_92" x1="141" y1="35.6226" x2="141" y2="139.546" gradientUnits="userSpaceOnUse">
<stop stop-color="#E9F3FC"/>
<stop offset="1" stop-color="white"/>
</linearGradient>
<linearGradient id="paint1_linear_263_92" x1="74.5856" y1="198.437" x2="82.0322" y2="239.533" gradientUnits="userSpaceOnUse">
<stop stop-color="#FFC174"/>
<stop offset="0.96" stop-color="#EB9935"/>
</linearGradient>
<linearGradient id="paint2_linear_263_92" x1="247.332" y1="200.617" x2="278.211" y2="230.092" gradientUnits="userSpaceOnUse">
<stop stop-color="#58CFAA"/>
<stop offset="0.97" stop-color="#45A184"/>
</linearGradient>
<linearGradient id="paint3_linear_263_92" x1="249.984" y1="184.865" x2="251.24" y2="198.677" gradientUnits="userSpaceOnUse">
<stop stop-color="#58CFAA"/>
<stop offset="0.97" stop-color="#45A184"/>
</linearGradient>
<linearGradient id="paint4_linear_263_92" x1="220.203" y1="138.848" x2="226.082" y2="157.657" gradientUnits="userSpaceOnUse">
<stop stop-color="#58CFAA"/>
<stop offset="0.97" stop-color="#45A184"/>
</linearGradient>
<linearGradient id="paint5_linear_263_92" x1="194.43" y1="222.228" x2="191.679" y2="225.632" gradientUnits="userSpaceOnUse">
<stop stop-color="#14336D"/>
<stop offset="0.97" stop-color="#0E2253"/>
</linearGradient>
<linearGradient id="paint6_linear_263_92" x1="206.28" y1="207.743" x2="225.412" y2="192.34" gradientUnits="userSpaceOnUse">
<stop stop-color="#14336D"/>
<stop offset="0.97" stop-color="#0E2253"/>
</linearGradient>
<linearGradient id="paint7_linear_263_92" x1="233.682" y1="192.971" x2="267.245" y2="205.14" gradientUnits="userSpaceOnUse">
<stop stop-color="#14336D"/>
<stop offset="0.97" stop-color="#0E2253"/>
</linearGradient>
<linearGradient id="paint8_linear_263_92" x1="245.381" y1="136.699" x2="262.274" y2="168.325" gradientUnits="userSpaceOnUse">
<stop stop-color="#3162DF"/>
<stop offset="0.96" stop-color="#173DB8"/>
</linearGradient>
<linearGradient id="paint9_linear_263_92" x1="250.387" y1="151.996" x2="269.591" y2="192.463" gradientUnits="userSpaceOnUse">
<stop stop-color="#3162DF"/>
<stop offset="0.96" stop-color="#173DB8"/>
</linearGradient>
<linearGradient id="paint10_linear_263_92" x1="243.509" y1="223.941" x2="245.57" y2="227.804" gradientUnits="userSpaceOnUse">
<stop stop-color="#14336D"/>
<stop offset="0.97" stop-color="#0E2253"/>
</linearGradient>
<clipPath id="clip0_263_92">
<rect width="345" height="250" fill="white"/>
</clipPath>
</defs>
</svg>
