<svg width="190" height="126" viewBox="0 0 190 126" fill="none" xmlns="http://www.w3.org/2000/svg">
<g opacity="0.6" clip-path="url(#clip0_506_629)">
<path d="M154.325 54.9768H35.6752C15.9723 54.9768 0 70.8759 0 90.4884C0 110.101 15.9723 126 35.6752 126H154.325C174.028 126 190 110.101 190 90.4884C190 70.8759 174.028 54.9768 154.325 54.9768Z" fill="#2EB6C1"/>
<path d="M94.9954 110.349C122.704 110.349 145.166 87.9896 145.166 60.4083C145.166 32.8269 122.704 10.4678 94.9954 10.4678C67.2869 10.4678 44.8248 32.8269 44.8248 60.4083C44.8248 87.9896 67.2869 110.349 94.9954 110.349Z" fill="#E2C669"/>
<path d="M154.325 44.5089H35.6752C15.9723 44.5089 0 60.408 0 80.0205C0 99.633 15.9723 115.532 35.6752 115.532H154.325C174.028 115.532 190 99.633 190 80.0205C190 60.408 174.028 44.5089 154.325 44.5089Z" fill="#82DBE2"/>
<path d="M114.853 95.8018C140.3 84.8877 152.04 55.5059 141.076 30.1758C130.111 4.84571 100.594 -6.84076 75.1474 4.07335C49.7006 14.9875 37.9602 44.3692 48.9246 69.6993C59.889 95.0294 89.4061 106.716 114.853 95.8018Z" fill="#82DBE2"/>
<g opacity="0.35">
<path d="M154.325 44.5089H35.6752C15.9723 44.5089 0 60.408 0 80.0205C0 99.633 15.9723 115.532 35.6752 115.532H154.325C174.028 115.532 190 99.633 190 80.0205C190 60.408 174.028 44.5089 154.325 44.5089Z" fill="#2EB6C1"/>
<path d="M114.853 95.8018C140.3 84.8877 152.04 55.5059 141.076 30.1758C130.111 4.84571 100.594 -6.84076 75.1474 4.07335C49.7006 14.9875 37.9602 44.3692 48.9246 69.6993C59.889 95.0294 89.4061 106.716 114.853 95.8018Z" fill="#2EB6C1"/>
</g>
<path d="M83.2514 57.3755C82.7939 57.3745 82.3471 57.2383 81.9676 56.984C81.5881 56.7298 81.293 56.369 81.1199 55.9475C80.9468 55.526 80.9034 55.0628 80.9952 54.6167C81.087 54.1707 81.3099 53.7618 81.6356 53.4421L95.0969 40.2631L108.346 53.4513C108.567 53.6629 108.743 53.9162 108.864 54.1963C108.985 54.4764 109.05 54.7778 109.053 55.0829C109.056 55.388 108.998 55.6906 108.882 55.9731C108.766 56.2556 108.595 56.5124 108.379 56.7284C108.163 56.9444 107.905 57.1154 107.622 57.2313C107.338 57.3472 107.034 57.4058 106.728 57.4036C106.421 57.4014 106.118 57.3384 105.837 57.2184C105.555 57.0984 105.3 56.9238 105.087 56.7046L95.0692 46.7331L84.9133 56.7138C84.6951 56.9296 84.4355 57.0993 84.15 57.213C83.8644 57.3267 83.5588 57.382 83.2514 57.3755Z" fill="white"/>
<path d="M95.0046 75.6459C94.3925 75.6459 93.8054 75.4039 93.3725 74.973C92.9396 74.5421 92.6964 73.9577 92.6964 73.3484V43.498C92.6964 42.8887 92.9396 42.3043 93.3725 41.8734C93.8054 41.4425 94.3925 41.2004 95.0046 41.2004C95.6168 41.2004 96.2039 41.4425 96.6368 41.8734C97.0696 42.3043 97.3128 42.8887 97.3128 43.498V73.3484C97.3128 73.9577 97.0696 74.5421 96.6368 74.973C96.2039 75.4039 95.6168 75.6459 95.0046 75.6459Z" fill="white"/>
<path d="M116.822 89.8267H72.8369C71.3203 89.8242 69.8667 89.2228 68.7952 88.1545C67.7237 87.0862 67.1218 85.6383 67.1218 84.1287V68.2109C67.1218 67.6016 67.365 67.0172 67.7979 66.5863C68.2307 66.1554 68.8178 65.9133 69.43 65.9133C70.0422 65.9133 70.6293 66.1554 71.0621 66.5863C71.495 67.0172 71.7382 67.6016 71.7382 68.2109V84.1103C71.7382 84.4012 71.8536 84.6803 72.0594 84.8869C72.2652 85.0934 72.5446 85.2107 72.8369 85.2131H116.822C117.204 85.2107 117.571 85.0576 117.841 84.7873C118.11 84.5169 118.262 84.1513 118.262 83.7702V68.2109C118.262 67.6016 118.505 67.0172 118.938 66.5863C119.371 66.1554 119.958 65.9133 120.57 65.9133C121.182 65.9133 121.769 66.1554 122.202 66.5863C122.635 67.0172 122.878 67.6016 122.878 68.2109V83.8346C122.866 85.4264 122.223 86.949 121.089 88.0712C119.954 89.1934 118.421 89.8243 116.822 89.8267Z" fill="white"/>
</g>
<defs>
<clipPath id="clip0_506_629">
<rect width="190" height="126" fill="white"/>
</clipPath>
</defs>
</svg>
