<svg width="299" height="93" viewBox="0 0 299 93" fill="none" xmlns="http://www.w3.org/2000/svg">
<path d="M206.329 50.8474H179.12C178.866 50.8474 178.733 50.6476 178.826 50.4012L184.346 35.7343C184.439 35.4879 184.721 35.2881 184.976 35.2881H212.184C212.439 35.2881 212.571 35.4879 212.479 35.7343L206.959 50.4012C206.866 50.6476 206.584 50.8474 206.329 50.8474Z" fill="#9EC8FF"/>
<path d="M206.001 50.8474H179.963C179.726 50.8474 179.602 50.6429 179.689 50.391L184.716 35.7463C184.802 35.4944 185.065 35.2881 185.304 35.2881H211.342C211.58 35.2881 211.704 35.4926 211.616 35.7463L206.59 50.391C206.504 50.6429 206.24 50.8474 206.001 50.8474V50.8474Z" fill="white"/>
<path d="M205.679 49.9829H180.87C180.598 49.9829 180.458 49.7498 180.557 49.4614L184.955 36.6738C185.054 36.3854 185.355 36.1523 185.626 36.1523H210.435C210.707 36.1523 210.847 36.3854 210.748 36.6738L206.35 49.4614C206.251 49.7498 205.95 49.9829 205.679 49.9829Z" fill="#9EC8FF"/>
<path d="M198.128 45.9966C200.426 44.075 201.206 41.2174 199.872 39.6141C198.537 38.0108 195.592 38.2689 193.295 40.1905C190.997 42.1121 190.216 44.9697 191.551 46.573C192.885 48.1763 195.83 47.9183 198.128 45.9966Z" fill="white"/>
<path d="M199.307 43.5002C198.573 45.6488 196.34 47.39 194.322 47.39C192.304 47.39 191.264 45.6488 191.998 43.5002C192.732 41.3516 194.965 39.6104 196.983 39.6104C199.001 39.6104 200.041 41.3516 199.307 43.5002Z" fill="#9EC8FF"/>
<path d="M197.814 43.0677L196.084 43.9312L194.356 44.7965L194.956 43.0677L195.556 41.3389L196.686 42.2024L197.814 43.0677Z" fill="white"/>
<path d="M164.766 33.5595H162.713C162.29 33.5595 161.926 33.3836 161.711 33.075C161.484 32.7482 161.446 32.3068 161.606 31.8639L162.353 29.7982C162.642 29.0002 163.498 28.373 164.301 28.373H166.355C166.777 28.373 167.142 28.5506 167.356 28.8575C167.584 29.1844 167.622 29.6257 167.462 30.0687L166.714 32.1343C166.426 32.9323 165.57 33.5595 164.766 33.5595ZM164.301 29.1678C163.833 29.1678 163.27 29.5892 163.097 30.0687L162.35 32.1343C162.279 32.3301 162.282 32.5059 162.36 32.6171C162.444 32.7366 162.597 32.7631 162.713 32.7631H164.766C165.243 32.7631 165.794 32.35 165.97 31.8622L166.718 29.7966C166.789 29.6008 166.785 29.4249 166.708 29.3138C166.624 29.1943 166.47 29.1678 166.355 29.1678H164.301Z" fill="#9CD499"/>
<path d="M161.309 43.0683H159.255C158.833 43.0683 158.468 42.8908 158.254 42.584C158.026 42.2572 157.988 41.816 158.148 41.3732L158.896 39.3066C159.184 38.5088 160.04 37.8818 160.844 37.8818H162.897C163.32 37.8818 163.684 38.0593 163.899 38.3661C164.126 38.6929 164.164 39.1341 164.004 39.5769L163.257 41.6419C162.968 42.4397 162.112 43.065 161.309 43.065V43.0683ZM160.844 38.678C160.375 38.678 159.813 39.0992 159.639 39.5786L158.892 41.6452C158.821 41.8409 158.825 42.0167 158.902 42.1278C158.986 42.2473 159.14 42.2738 159.255 42.2738H161.309C161.785 42.2738 162.336 41.8625 162.513 41.3732L163.26 39.3066C163.331 39.1109 163.328 38.935 163.25 38.8239C163.166 38.7045 163.013 38.678 162.897 38.678H160.844Z" fill="#9CD499"/>
<path d="M157.85 52.5761H155.797C155.375 52.5761 155.011 52.3986 154.796 52.0916C154.569 51.7648 154.531 51.3234 154.691 50.8805L155.438 48.8148C155.726 48.0168 156.582 47.3896 157.385 47.3896H159.44C159.862 47.3896 160.227 47.5672 160.441 47.8741C160.669 48.201 160.707 48.6423 160.547 49.0853L159.8 51.1509C159.511 51.9489 158.655 52.5761 157.852 52.5761H157.85ZM157.385 48.1844C156.909 48.1844 156.358 48.5958 156.182 49.0853L155.435 51.1509C155.364 51.3467 155.367 51.5225 155.444 51.6337C155.529 51.7532 155.682 51.7797 155.797 51.7797H157.85C158.327 51.7797 158.878 51.3682 159.054 50.8788L159.801 48.8132C159.872 48.6174 159.869 48.4415 159.791 48.3304C159.707 48.2109 159.554 48.1844 159.438 48.1844H157.384H157.385Z" fill="#9EC8FF"/>
<path d="M182.53 31.8302H170.441C170.215 31.8302 170.097 31.6363 170.178 31.398C170.261 31.1616 170.513 30.9658 170.741 30.9658H182.83C183.056 30.9658 183.174 31.1598 183.093 31.398C183.01 31.6344 182.758 31.8302 182.53 31.8302Z" fill="#9EC8FF"/>
<path d="M181.703 33.5597H170.421C170.21 33.5597 170.1 33.3654 170.177 33.1284C170.255 32.8915 170.49 32.6953 170.703 32.6953H181.985C182.196 32.6953 182.306 32.8897 182.23 33.1284C182.153 33.3654 181.917 33.5597 181.705 33.5597H181.703Z" fill="#9EC8FF"/>
<path d="M179.937 40.4748H167.847C167.621 40.4748 167.503 40.2808 167.586 40.0426C167.669 39.8061 167.921 39.6104 168.147 39.6104H180.237C180.463 39.6104 180.581 39.8043 180.5 40.0426C180.417 40.279 180.164 40.4748 179.937 40.4748V40.4748Z" fill="#9EC8FF"/>
<path d="M179.073 42.2033H166.983C166.757 42.2033 166.638 42.0093 166.721 41.7711C166.804 41.5347 167.057 41.3389 167.283 41.3389H179.373C179.599 41.3389 179.717 41.5328 179.634 41.7711C179.551 42.0075 179.299 42.2033 179.071 42.2033H179.073Z" fill="#9EC8FF"/>
<path d="M176.481 49.9826H164.39C164.164 49.9826 164.046 49.7882 164.127 49.5494C164.21 49.3125 164.463 49.1182 164.688 49.1182H176.779C177.005 49.1182 177.123 49.3125 177.042 49.5494C176.959 49.7864 176.707 49.9826 176.481 49.9826Z" fill="#9EC8FF"/>
<path d="M175.615 51.7121H163.526C163.3 51.7121 163.182 51.5181 163.263 51.2799C163.346 51.0434 163.598 50.8477 163.826 50.8477H175.915C176.141 50.8477 176.259 51.0416 176.178 51.2799C176.095 51.5163 175.842 51.7121 175.617 51.7121H175.615Z" fill="#9EC8FF"/>
<path d="M164.472 32.6934C164.435 32.6934 164.399 32.6879 164.362 32.6787C164.237 32.6418 164.133 32.546 164.084 32.4171L163.268 30.2658C163.181 30.0392 163.285 29.7813 163.499 29.6911C163.713 29.6008 163.956 29.7095 164.041 29.9361L164.653 31.5459L169.481 27.6005C169.663 27.4513 169.925 27.4882 170.066 27.6816C170.207 27.875 170.172 28.1531 169.99 28.3023L164.726 32.6031C164.653 32.6639 164.562 32.6952 164.472 32.6952V32.6934Z" fill="#F37168"/>
<path d="M161.014 42.2012C160.978 42.2012 160.941 42.1957 160.905 42.1865C160.78 42.1496 160.676 42.0538 160.627 41.9249L159.81 39.7736C159.724 39.547 159.828 39.2892 160.041 39.1989C160.255 39.1086 160.498 39.2173 160.584 39.4439L161.195 41.0537L166.023 37.1083C166.205 36.9591 166.468 36.996 166.609 37.1894C166.749 37.3828 166.714 37.6609 166.532 37.8101L161.268 42.1109C161.195 42.1717 161.105 42.203 161.013 42.203L161.014 42.2012Z" fill="#F37168"/>
<path d="M239.858 21.4576H194.356L195.534 18H241.034L239.858 21.4576Z" fill="#9EC8FF"/>
<path d="M238.129 26.6442H192.627L193.801 23.1865H239.305L238.129 26.6442Z" fill="#9EC8FF"/>
<path d="M187.161 65.5423H153.425C152.985 65.5423 152.755 65.1543 152.915 64.6779C153.076 64.2033 153.568 63.8135 154.008 63.8135H187.744C188.184 63.8135 188.414 64.2033 188.254 64.6779C188.093 65.1525 187.601 65.5423 187.161 65.5423Z" fill="#9EC8FF"/>
<path d="M186.296 69.0003H152.561C152.121 69.0003 151.891 68.6105 152.051 68.1359C152.212 67.6613 152.704 67.2715 153.144 67.2715H186.88C187.32 67.2715 187.55 67.6613 187.389 68.1359C187.229 68.6105 186.736 69.0003 186.296 69.0003Z" fill="#9EC8FF"/>
<path d="M237.773 75.8795C237.773 75.3531 244.103 57.817 239.823 46.5288C236.827 38.6252 236.354 29.1406 236.354 29.1406C236.354 29.1406 230.518 37.5187 234.462 50.3229C236.889 58.2038 237.88 60.3876 238.09 62.7064C238.301 65.0251 237.144 76.6172 237.144 76.6172L237.774 75.8795H237.773Z" fill="#9CD499"/>
<path d="M237.143 76.8112C237.117 76.8112 237.091 76.8063 237.067 76.7949C236.989 76.7608 236.942 76.6812 236.95 76.5967C236.962 76.4813 238.103 64.9965 237.897 62.7232C237.759 61.2104 237.294 59.7805 236.273 56.6477C235.749 55.0423 235.099 53.0453 234.277 50.3804C232.226 43.7215 232.855 38.2764 233.742 34.8804C234.705 31.1935 236.135 29.1152 236.195 29.0291C236.242 28.9608 236.328 28.93 236.407 28.9527C236.487 28.9755 236.543 29.047 236.548 29.1298C236.553 29.2241 237.054 38.6762 240.006 46.4595C241.606 50.681 241.927 56.248 240.961 63.0043C240.189 68.399 238.813 73.0105 238.226 74.9799C238.091 75.4284 237.976 75.8167 237.968 75.8882C237.968 75.9354 237.952 75.9711 237.921 76.0069L237.291 76.7446C237.253 76.7884 237.198 76.8128 237.143 76.8128V76.8112ZM236.201 29.7587C235.721 30.5874 234.791 32.4008 234.115 34.9958C233.244 38.3398 232.628 43.702 234.65 50.2634C235.47 52.9266 236.12 54.922 236.642 56.5242C237.673 59.6863 238.143 61.1292 238.284 62.6858C238.468 64.7137 237.636 73.5662 237.398 76.0182L237.591 75.794C237.613 75.6786 237.681 75.4463 237.853 74.8678C241.509 62.6192 242.11 53.107 239.643 46.5976C237.104 39.9014 236.365 31.988 236.201 29.7587V29.7587Z" fill="#74B570"/>
<path d="M239.14 77.671C238.193 58.1753 242.82 47.5305 252.282 39.0989C261.744 30.6672 262.164 28.4541 262.164 28.4541C262.164 28.4541 260.692 44.8949 255.224 50.5854C249.756 56.2758 241.766 60.4924 240.61 63.4417C239.454 66.3925 239.874 76.2979 239.874 76.2979L239.138 78.0902V77.6694L239.14 77.671Z" fill="#9CD499"/>
<path d="M237.983 79.3558C237.877 79.039 239.98 61.1243 247.656 60.0698C255.332 59.0152 257.118 60.8075 262.376 59.9641C266.127 59.3629 268.999 58.1719 268.999 58.1719C268.999 58.1719 267.009 63.2513 260.168 65.3377C255.332 66.8131 249.022 64.3888 245.343 65.0209C241.663 65.653 239.771 73.5565 239.771 73.5565L239.14 77.6659L237.984 79.3526L237.983 79.3558Z" fill="#9CD499"/>
<path d="M239.036 76.7052C238.937 76.7052 238.851 76.6288 238.843 76.5281C238.832 76.4013 237.742 63.8164 243.073 54.1791C245.825 49.202 248.832 46.3161 251.739 43.5262C254.448 40.9279 257.006 38.4727 258.945 34.5843C258.994 34.4884 259.11 34.4494 259.206 34.4965C259.302 34.5453 259.34 34.6623 259.293 34.7582C257.324 38.7067 254.741 41.1847 252.008 43.8073C249.123 46.5777 246.138 49.4408 243.413 54.3676C238.143 63.8977 239.219 76.3672 239.231 76.4923C239.24 76.5996 239.163 76.6938 239.056 76.7052C239.049 76.7052 239.043 76.7052 239.038 76.7052H239.036Z" fill="#74B570"/>
<path d="M238.511 74.1782C238.493 74.1782 238.475 74.1749 238.456 74.1701C238.352 74.1408 238.294 74.0319 238.323 73.928C240.336 66.975 242.645 62.9176 245.592 61.161C248.226 59.5897 250.948 60.0723 253.83 60.5826C254.536 60.7077 255.265 60.8361 255.988 60.9319C262.252 61.7558 265.306 60.23 265.337 60.2137C265.433 60.165 265.549 60.2023 265.6 60.2982C265.648 60.3941 265.611 60.5111 265.517 60.5614C265.391 60.6264 262.34 62.1604 255.94 61.3187C255.208 61.2228 254.476 61.0928 253.766 60.9677C250.956 60.4705 248.304 60.0009 245.793 61.4974C242.937 63.2003 240.682 67.1862 238.699 74.0384C238.675 74.1229 238.597 74.1798 238.513 74.1798L238.511 74.1782Z" fill="#74B570"/>
<path d="M248.551 47.1454C248.493 47.1454 248.436 47.1194 248.397 47.069C248.332 46.9845 248.347 46.861 248.433 46.796C248.47 46.7668 252.21 43.9102 257.399 42.9125C257.505 42.893 257.607 42.9613 257.626 43.0669C257.646 43.1725 257.578 43.2749 257.472 43.2944C252.372 44.2758 248.707 47.0755 248.67 47.1031C248.634 47.1308 248.592 47.1438 248.551 47.1438V47.1454Z" fill="#74B570"/>
<path d="M242.609 55.6295C242.575 55.6295 242.541 55.6214 242.51 55.6019C242.418 55.5466 242.387 55.428 242.442 55.3354C245.18 50.7077 248.387 49.541 255.378 47.3441C255.481 47.3116 255.591 47.3685 255.622 47.4725C255.654 47.5748 255.597 47.6853 255.493 47.7162C248.601 49.8822 245.441 51.0294 242.776 55.5336C242.74 55.5954 242.675 55.6295 242.609 55.6295V55.6295Z" fill="#74B570"/>
<path d="M240.908 84.1511H236.214C234.555 84.1511 233.132 82.9714 232.821 81.3384L231.307 73.4023H245.816L244.301 81.3384C243.99 82.9698 242.567 84.1511 240.908 84.1511Z" fill="#F39892"/>
<path d="M245.448 75.4255H231.78C231.565 75.4255 231.391 75.2516 231.391 75.0355C231.391 74.8194 231.565 74.6455 231.78 74.6455H245.448C245.663 74.6455 245.837 74.8194 245.837 75.0355C245.837 75.2516 245.663 75.4255 245.448 75.4255V75.4255Z" fill="#D54A41"/>
<path d="M129.554 83.0508H79L99.7946 37.1966C100.401 35.8596 101.732 35 103.199 35H149.078C150.141 35 150.845 36.0998 150.407 37.0693L129.554 83.0508V83.0508Z" fill="#9BD6E8"/>
<path d="M149.078 35H108.647C107.18 35 105.849 35.8596 105.243 37.1966L84.4482 83.0508H129.554L150.406 37.0693C150.845 36.0998 150.138 35 149.078 35V35Z" fill="#7BCEE8"/>
<path d="M64.8842 26.1821C65.2981 36.1517 65.1956 41.552 61.5688 45.705C57.9432 49.8593 47.7894 48.8201 47.7894 48.8201C47.7894 48.8201 46.7885 63.4976 32.5938 64.1206C18.4005 64.7436 16.3628 45.8438 27.483 40.9971C38.0681 36.3838 41.4354 35.0431 45.0955 23.6194C48.4402 13.1842 58.8749 15.1733 61.3611 19.5344C63.8474 23.8955 64.8842 26.1808 64.8842 26.1808V26.1821Z" fill="#303C60"/>
<path d="M60.2199 77.0688C60.2199 77.0688 66.92 78.3842 67.2647 78.3148C67.6094 78.2454 74.931 74.9916 75.691 75.4759C76.451 75.9602 80.8711 77.8292 81.8387 78.2454C82.8063 78.6603 81.2863 78.7991 80.5263 78.7991C79.7664 78.7991 75.4155 76.9994 74.931 77.3449C74.4479 77.6918 78.7296 78.3828 78.7296 78.6603C78.7296 78.9378 67.2634 81.5686 66.5726 81.5686C65.8818 81.5686 60.5633 81.0843 60.5633 81.0843L60.2173 77.0688H60.2199Z" fill="#E38540"/>
<path d="M54.6587 40.3916C58.2682 41.1013 60.3911 44.9301 61.0819 48.2827C61.7727 51.6352 54.6587 40.3916 54.6587 40.3916Z" fill="#6791C9"/>
<path d="M48.616 37.8125C48.616 37.8125 41.675 42.4857 37.9444 44.7697C34.215 47.0536 39.2913 71.666 40.5344 80.8045C41.7775 89.9429 63.327 81.6356 63.327 81.6356C63.327 81.6356 61.8763 73.9513 63.741 61.5924C65.0773 52.7408 60.1833 47.1924 57.387 43.3502C50.3263 33.6528 48.6147 37.8111 48.6147 37.8111L48.616 37.8125Z" fill="#75A1DE"/>
<path d="M41.7778 44.873C49.7555 54.6345 52.452 56.4595 50.4809 63.0458C48.9263 68.2381 48.4086 70.1071 48.0985 71.8734C47.787 73.6384 62.9147 70.7315 62.9147 70.7315L62.8109 76.4427C62.8109 76.4427 50.8962 82.1539 45.0945 83.2972C39.2929 84.4391 35.666 83.089 35.666 83.089L41.7791 44.873H41.7778Z" fill="#6791C9"/>
<path d="M51.1733 27.9824L47.5811 38.6444C47.5811 38.6444 51.518 49.341 54.8334 46.9517C55.9647 46.1366 54.4195 39.6823 54.4195 39.6823L56.8365 31.0281L51.1733 27.9824Z" fill="#F09959"/>
<path d="M39.7082 44.4593C34.749 45.0116 34.3204 51.7287 32.0418 62.9442C29.7619 74.1598 30.4474 81.5626 31.5241 82.9874C34.1141 86.4147 63.2275 74.472 66.853 74.5761C69.3552 74.6481 67.2669 70.4217 67.2669 70.4217L39.5005 74.6801C39.5005 74.6801 43.4375 61.6995 43.4375 55.0532C43.4375 48.4068 41.5728 44.2525 39.7082 44.4606V44.4593Z" fill="#F09959"/>
<path d="M65.5051 70.6289C68.4066 69.9019 72.6537 68.2409 73.4828 68.9667C74.312 69.6937 77.7313 74.886 78.8706 76.3401C80.0099 77.7943 78.3528 76.6523 77.1097 75.509C75.8666 74.367 74.8298 73.744 74.8298 73.744C74.8298 73.744 73.2752 75.1981 71.8258 76.0293C70.3751 76.8604 69.8573 75.1982 67.3711 74.7833C64.8849 74.3684 58.668 76.5482 58.668 76.5482L65.5064 70.6289H65.5051Z" fill="#F09959"/>
<path d="M40.2598 43.6287C37.2212 43.7675 34.8721 46.3289 34.0429 50.2751C33.2137 54.2213 30.7967 66.7523 30.7967 66.7523C30.7967 66.7523 30.3135 67.0978 35.3552 67.9984C40.3969 68.8989 44.5415 67.8596 44.5415 67.8596C44.5415 67.8596 45.5769 60.729 45.3014 55.8129C45.0246 50.8968 43.9199 46.2582 42.1244 44.6667C40.329 43.0738 40.2598 43.6287 40.2598 43.6287V43.6287Z" fill="#75A1DE"/>
<path d="M54.4195 39.6823L56.8365 31.0281L51.1733 27.9824L50.3082 30.5505C50.1205 39.1487 52.3166 42.0236 53.7979 43.0748C54.2598 43.403 54.6577 43.1495 54.9918 42.6132C54.7482 41.055 54.4195 39.6823 54.4195 39.6823Z" fill="#E38540"/>
<path d="M65.919 28.9848C65.919 33.6167 65.368 39.2959 61.3605 39.1625C55.1436 38.9544 51.2266 34.1117 51.2266 29.4798C51.2266 24.8478 54.4768 21.0938 58.4856 21.0938C62.4944 21.0938 65.9177 24.3542 65.9177 28.9862L65.919 28.9848Z" fill="#F09959"/>
<path d="M59.0795 19.4848C63.4823 19.1727 66.0896 23.2056 66.8496 26.7369C67.398 29.285 67.1265 29.7826 67.1265 29.7826C67.1265 29.7826 66.6433 30.475 63.1895 30.6831C59.7357 30.8912 59.3217 30.8218 59.3217 30.8218L59.1141 26.8062L58.0786 30.6831C58.0786 30.6831 57.5263 31.4448 55.3848 30.4056C53.2433 29.3677 52.277 25.9057 52.277 25.9057C52.277 25.9057 51.7938 23.6205 53.4509 22.0983C55.1079 20.5748 59.0795 19.4848 59.0795 19.4848V19.4848Z" fill="#303C60"/>
<path d="M55.8046 29.902C55.3827 32.7035 53.1507 34.6887 50.8215 34.3365C48.4924 33.9829 46.9458 31.4268 47.3677 28.6253C47.7896 25.8237 50.0216 23.8386 52.3508 24.1921C54.68 24.5443 56.2265 27.1018 55.8046 29.9033V29.902Z" fill="#D54A41"/>
<path d="M54.1234 29.8267C53.7321 32.4201 51.9007 34.2945 50.032 34.0117C48.1634 33.7289 46.9655 31.3969 47.3568 28.8021C47.7481 26.2073 49.5795 24.3343 51.4481 24.6171C53.3168 24.8999 54.5147 27.2319 54.1234 29.8267Z" fill="#F39892"/>
<path d="M51.2677 29.2474C51.0534 30.6722 50.2788 31.7368 49.5374 31.6247C48.7961 31.5127 48.3702 30.2666 48.5858 28.8405C48.8001 27.4157 49.5747 26.3511 50.316 26.4632C51.056 26.5752 51.4833 27.8213 51.2677 29.2474Z" fill="#F2E5DE"/>
<path d="M51.1553 24.2621C53.1757 16.7325 60.1499 17.8305 61.9134 18.8791C63.3987 19.7622 63.605 21.0083 63.605 21.0083C63.605 21.0083 61.6885 19.4501 58.425 20.0224C55.3278 20.564 53.4858 22.393 53.2276 24.4182C53.0958 25.4507 51.1553 24.2621 51.1553 24.2621V24.2621Z" fill="#D54A41"/>
<path d="M20.1604 48.5662C20.1604 48.5662 20.1497 48.5662 20.1444 48.5662C20.0566 48.5582 19.9927 48.4795 20.0007 48.3915C20.1817 46.4877 21.132 44.5306 22.6732 42.8804C24.4168 41.0153 26.899 39.5452 29.8511 38.63C36.4273 36.5915 42.1651 33.9994 45.7707 22.8799C45.7986 22.7958 45.8878 22.7505 45.9716 22.7772C46.0555 22.8052 46.1021 22.8946 46.0741 22.9786C44.4171 28.0895 42.1624 31.8102 39.1798 34.353C36.5485 36.5969 33.5857 37.8069 29.9456 38.9355C27.0468 39.8347 24.6124 41.2742 22.9075 43.0992C21.4128 44.6974 20.4945 46.5878 20.3188 48.4221C20.3108 48.5049 20.2416 48.5676 20.1604 48.5676V48.5662Z" fill="#303C60"/>
<path d="M23.1289 40.8806C23.081 40.8806 23.0344 40.8593 23.0025 40.8179C22.9479 40.7485 22.9612 40.6472 23.0304 40.5938C23.0584 40.5724 25.868 38.4152 29.9314 37.5174C37.7322 35.7951 42.9695 31.0925 45.0764 23.9205C45.1017 23.8351 45.1895 23.7871 45.2747 23.8124C45.3599 23.8378 45.4078 23.9258 45.3825 24.0112C44.0808 28.4417 41.6319 31.9383 38.1022 34.4037C35.8302 35.9912 33.1031 37.1439 29.998 37.8296C26.0078 38.7114 23.2514 40.8246 23.2234 40.8459C23.1941 40.8686 23.1595 40.8793 23.1263 40.8793L23.1289 40.8806Z" fill="#303C60"/>
<path d="M283.484 86H14.5158C12.574 86 11 85.3285 11 84.5C11 83.6715 12.574 83 14.5158 83H283.484C285.426 83 287 83.6715 287 84.5C287 85.3285 285.426 86 283.484 86Z" fill="#EEF5FF"/>
<rect width="299" height="93" fill="white" fill-opacity="0.32"/>
</svg>
