<svg width="18" height="18" viewBox="0 0 20 20" fill="none" xmlns="http://www.w3.org/2000/svg">
<circle cx="10" cy="10" r="9.5" fill="#D9D9D9" stroke="#D9D9D9"/>
<path d="M6.66667 7.77767C7.28032 7.77767 7.77778 7.28021 7.77778 6.66656V6.66656C7.77778 5.43926 8.7727 4.44434 10 4.44434C11.2273 4.44434 12.2222 5.43926 12.2222 6.66656V6.66656C12.2222 7.28021 12.7197 7.77767 13.3333 7.77767V7.77767C13.947 7.77767 14.4444 8.27513 14.4444 8.88878V14.4443C14.4444 15.058 13.947 15.5554 13.3333 15.5554H6.66667C6.05302 15.5554 5.55556 15.058 5.55556 14.4443V8.88878C5.55556 8.27513 6.05302 7.77767 6.66667 7.77767V7.77767ZM8.88889 6.66656V6.66656C8.88889 7.28021 9.38635 7.77767 10 7.77767V7.77767C10.6137 7.77767 11.1111 7.28021 11.1111 6.66656V6.66656C11.1111 6.05291 10.6137 5.55545 10 5.55545C9.38635 5.55545 8.88889 6.05291 8.88889 6.66656ZM6.66667 11.6666C6.66667 13.2007 7.91032 14.4443 9.44445 14.4443H10.5556C12.0897 14.4443 13.3333 13.2007 13.3333 11.6666V11.6666C13.3333 10.1324 12.0897 8.88878 10.5556 8.88878H9.44444C7.91032 8.88878 6.66667 10.1324 6.66667 11.6666V11.6666Z" fill="white"/>
</svg>
