<svg width="276" height="224" viewBox="0 0 276 224" fill="none" xmlns="http://www.w3.org/2000/svg">
<g opacity="0.4">
<path d="M9.71129 116.642C22.6489 131.288 39.0244 136.979 47.1 154.774C52.6358 166.973 50.0388 181.414 54.1288 194.169C59.7348 211.653 78.1528 223.398 96.5128 223.461C114.873 223.524 132.374 213.121 143.269 198.343C146.842 193.497 149.939 188.048 154.947 184.706C162.121 179.92 171.426 180.535 180.015 179.77C201.192 177.883 221.261 165.991 233.087 148.321C233.087 148.321 263.763 112.125 242.047 60.3416C235.735 45.2902 225.503 31.4671 211.393 23.2647C197.283 15.0616 172.73 14.8665 158.201 22.304C142.755 30.2113 132.486 47.5424 115.556 51.3494C105.743 53.5557 95.6114 50.6883 85.7292 48.8129C71.8673 46.1814 57.7369 44.5469 43.7398 46.3241C27.2655 48.4163 10.6484 56.6768 2.96359 75.2491C0.272156 81.7532 -0.632424 88.8885 0.44045 95.846C1.40177 102.085 3.83311 109.988 9.71129 116.642Z" fill="#F5F5FF"/>
<path d="M137.021 9.69138C133.46 5.22075 127.912 2.78049 122.365 1.40545C114.71 -0.491685 106.478 -0.637664 99.0526 2.0187C91.6273 4.67507 85.1142 10.3378 82.3762 17.7338C79.6382 25.1298 81.1471 34.1718 86.8283 39.642C90.0119 42.707 94.4825 44.3555 98.8779 44.3434C101.485 44.6213 104.147 44.3281 106.597 43.3846C112.048 41.2848 116.054 36.5183 121.281 33.9104C126.963 31.0768 134.264 30.6242 138.109 25.5729C141.57 21.0245 140.582 14.162 137.021 9.69138Z" fill="#F5F5FF"/>
<path d="M34.6017 168.125C34.0082 166.909 33.4561 165.679 33.0953 164.377C31.9408 160.208 32.7798 155.453 30.5409 151.752C27.7297 147.102 20.8047 146.254 16.0938 148.96C11.3828 151.667 8.68884 156.962 7.5401 162.272C6.8325 165.542 6.6266 169.025 7.74665 172.178C9.04965 175.844 12.0133 178.693 15.2447 180.859C18.8375 183.267 23.0334 185.035 27.3567 184.888C29.2819 184.823 31.2224 184.313 32.9347 183.418C34.2848 182.832 35.4833 181.925 36.3082 180.75C36.9074 180.04 37.4129 179.252 37.7827 178.382C39.3184 174.768 37.9331 170.013 34.6017 168.125Z" fill="#F5F5FF"/>
<path d="M204.95 167.817H69.9702C68.7035 167.817 67.667 166.78 67.667 165.513V78.9057C67.667 77.6391 68.7035 76.6025 69.9702 76.6025H204.95C206.216 76.6025 207.253 77.6391 207.253 78.9057V165.513C207.253 166.78 206.216 167.817 204.95 167.817Z" fill="#7B70EE"/>
<path d="M203.798 83.2358H71.1221V158.971H203.798V83.2358Z" fill="#D5CBFB"/>
<path d="M138.294 79.647C138.294 80.1079 137.921 80.4808 137.46 80.4808C136.999 80.4808 136.626 80.1072 136.626 79.647C136.626 79.1861 137 78.8125 137.46 78.8125C137.921 78.8131 138.294 79.1861 138.294 79.647Z" fill="#D5CBFB"/>
<path d="M226.04 197.578L208.894 170.291C207.927 168.75 206.235 167.816 204.417 167.816H134.471H130.602H70.5036C68.6848 167.816 66.9936 168.75 66.0259 170.291L48.8803 197.578C48.3952 198.351 48.2224 199.269 48.3742 200.156H226.545C226.697 199.27 226.525 198.351 226.04 197.578Z" fill="#D5CBFB"/>
<path d="M48.3745 200.157C48.4057 200.34 48.4459 200.521 48.5052 200.7L48.7755 201.511C49.2765 203.013 50.6822 204.026 52.2657 204.026H130.601H134.471H222.654C224.237 204.026 225.644 203.013 226.144 201.511L226.414 200.7C226.474 200.521 226.514 200.339 226.545 200.157H48.3745Z" fill="#7B70EE"/>
<path d="M76.9545 181.282L77.7896 179.446H73.6581L72.7739 181.282H76.9545Z" fill="#7B70EE"/>
<path d="M84.2324 176.055L84.6423 175.096L85.0178 174.217H81.0202L80.1851 176.055H84.2324Z" fill="#7B70EE"/>
<path d="M78.6435 179.446L77.8091 181.282H81.9986L82.7833 179.446H78.6435Z" fill="#7B70EE"/>
<path d="M78.1427 178.668L78.9778 176.831H74.917L74.0322 178.668H78.1427Z" fill="#7B70EE"/>
<path d="M162.261 174.217L162.723 176.055H166.276L165.765 174.217H162.261Z" fill="#7B70EE"/>
<path d="M98.5165 179.446L97.9556 181.282H102.179L102.716 179.446H98.5165Z" fill="#7B70EE"/>
<path d="M93.5766 179.446L92.9155 181.282H97.1426L97.7036 179.446H93.5766Z" fill="#7B70EE"/>
<path d="M88.6141 179.446L87.8784 181.282H92.0896L92.7507 179.446H88.6141Z" fill="#7B70EE"/>
<path d="M83.628 179.446L82.8433 181.282H87.0404L87.7761 179.446H83.628Z" fill="#7B70EE"/>
<path d="M166.572 174.217L167.083 176.055H170.402L169.865 174.217H166.572Z" fill="#7B70EE"/>
<path d="M112.802 176.831L112.34 178.668H115.681L116.093 176.831H112.802Z" fill="#7B70EE"/>
<path d="M149.043 174.217L149.356 176.055H153.211L152.848 174.217H149.043Z" fill="#7B70EE"/>
<path d="M112.196 176.055L112.658 174.217H109.154L108.643 176.055H112.196Z" fill="#7B70EE"/>
<path d="M107.836 176.055L108.348 174.217H105.054L104.517 176.055H107.836Z" fill="#7B70EE"/>
<path d="M116.268 176.055L116.68 174.217H113.46L112.998 176.055H116.268Z" fill="#7B70EE"/>
<path d="M170.675 174.217L171.212 176.055H175.366L174.804 174.217H170.675Z" fill="#7B70EE"/>
<path d="M95.4579 174.217L94.7969 176.055H98.7409L99.031 175.107L99.3026 174.217H95.4579Z" fill="#7B70EE"/>
<path d="M93.9709 176.055L94.632 174.217H90.7077L89.9727 176.055H93.9709Z" fill="#7B70EE"/>
<path d="M85.864 174.217L85.0786 176.055H89.1349L89.5174 175.098L89.8699 174.217H85.864Z" fill="#7B70EE"/>
<path d="M158.24 174.217L158.652 176.055H161.922L161.46 174.217H158.24Z" fill="#7B70EE"/>
<path d="M153.641 174.217L154.003 176.055H157.854L157.443 174.217H153.641Z" fill="#7B70EE"/>
<path d="M103.707 176.055L104.244 174.217H100.115L99.5537 176.055H103.707Z" fill="#7B70EE"/>
<path d="M108.564 173.44L109.041 171.729H105.781L105.281 173.44H108.564Z" fill="#7B70EE"/>
<path d="M104.471 173.44L104.971 171.729H100.876L100.353 173.44H104.471Z" fill="#7B70EE"/>
<path d="M144.504 174.217L144.719 176.055H148.568L148.255 174.217H144.504Z" fill="#7B70EE"/>
<path d="M121.432 173.44L121.77 171.729H118.037L117.653 173.44H121.432Z" fill="#7B70EE"/>
<path d="M116.855 173.44L117.239 171.729H114.085L113.656 173.44H116.855Z" fill="#7B70EE"/>
<path d="M112.854 173.44L113.284 171.729H109.848L109.372 173.44H112.854Z" fill="#7B70EE"/>
<path d="M189.902 174.217L190.687 176.055H194.735L193.899 174.217H189.902Z" fill="#7B70EE"/>
<path d="M85.3508 173.44L86.0819 171.729H82.1506L81.3735 173.44H85.3508Z" fill="#7B70EE"/>
<path d="M90.1813 173.44L90.866 171.729H86.927L86.1958 173.44H90.1813Z" fill="#7B70EE"/>
<path d="M99.5408 173.44L100.064 171.729H96.3534L95.7383 173.44H99.5408Z" fill="#7B70EE"/>
<path d="M194.753 174.217L195.589 176.055H199.628L198.743 174.217H194.753Z" fill="#7B70EE"/>
<path d="M94.9115 173.44L95.5266 171.729H91.7037L91.019 173.44H94.9115Z" fill="#7B70EE"/>
<path d="M175.616 174.217L176.178 176.055H180.123L179.461 174.217H175.616Z" fill="#7B70EE"/>
<path d="M121.038 179.446L120.675 181.282H124.672L124.985 179.446H121.038Z" fill="#7B70EE"/>
<path d="M103.527 179.446L102.99 181.282H106.379L106.891 179.446H103.527Z" fill="#7B70EE"/>
<path d="M116.303 179.446L115.891 181.282H119.883L120.245 179.446H116.303Z" fill="#7B70EE"/>
<path d="M107.698 179.446L107.187 181.282H110.881L111.343 179.446H107.698Z" fill="#7B70EE"/>
<path d="M112.145 179.446L111.683 181.282H115.094L115.506 179.446H112.145Z" fill="#7B70EE"/>
<path d="M126.665 174.217L126.352 176.055H130.201L130.415 174.217H126.665Z" fill="#7B70EE"/>
<path d="M126.009 173.44L126.3 171.729H122.562L122.225 173.44H126.009Z" fill="#7B70EE"/>
<path d="M121.555 176.831L121.192 178.668H125.117L125.43 176.831H121.555Z" fill="#7B70EE"/>
<path d="M185.049 174.217L185.785 176.055H189.841L189.056 174.217H185.049Z" fill="#7B70EE"/>
<path d="M129.897 178.668L130.111 176.831H126.219L125.906 178.668H129.897Z" fill="#7B70EE"/>
<path d="M180.287 174.217L180.949 176.055H184.947L184.211 174.217H180.287Z" fill="#7B70EE"/>
<path d="M79.3312 176.055L80.1663 174.217H76.1763L75.2915 176.055H79.3312Z" fill="#7B70EE"/>
<path d="M167.733 181.282L167.222 179.446H163.577L164.039 181.282H167.733Z" fill="#7B70EE"/>
<path d="M108.426 176.831L107.915 178.668H111.538L112.001 176.831H108.426Z" fill="#7B70EE"/>
<path d="M174.566 173.44L174.043 171.729H169.949L170.448 173.44H174.566Z" fill="#7B70EE"/>
<path d="M183.9 173.44L183.216 171.729H179.392L180.008 173.44H183.9Z" fill="#7B70EE"/>
<path d="M179.182 173.44L178.566 171.729H174.856L175.379 173.44H179.182Z" fill="#7B70EE"/>
<path d="M157.267 173.44L156.884 171.729H153.15L153.487 173.44H157.267Z" fill="#7B70EE"/>
<path d="M152.696 173.44L152.358 171.729H148.62L148.911 173.44H152.696Z" fill="#7B70EE"/>
<path d="M188.724 173.44L187.993 171.729H184.054L184.738 173.44H188.724Z" fill="#7B70EE"/>
<path d="M165.548 173.44L165.071 171.729H161.635L162.066 173.44H165.548Z" fill="#7B70EE"/>
<path d="M161.264 173.44L160.834 171.729H157.681L158.064 173.44H161.264Z" fill="#7B70EE"/>
<path d="M163.237 181.282L162.775 179.446H159.414L159.825 181.282H163.237Z" fill="#7B70EE"/>
<path d="M192.076 181.282L191.291 179.446H187.143L187.879 181.282H192.076Z" fill="#7B70EE"/>
<path d="M182.004 181.282L181.343 179.446H177.215L177.776 181.282H182.004Z" fill="#7B70EE"/>
<path d="M202.146 181.282L201.26 179.446H197.13L197.965 181.282H202.146Z" fill="#7B70EE"/>
<path d="M197.112 181.282L196.276 179.446H192.137L192.921 181.282H197.112Z" fill="#7B70EE"/>
<path d="M187.041 181.282L186.305 179.446H182.17L182.83 181.282H187.041Z" fill="#7B70EE"/>
<path d="M159.028 181.282L158.617 179.446H154.674L155.037 181.282H159.028Z" fill="#7B70EE"/>
<path d="M193.546 173.44L192.769 171.729H188.838L189.569 173.44H193.546Z" fill="#7B70EE"/>
<path d="M200.491 176.055H204.218L203.18 174.217H199.606L200.491 176.055Z" fill="#7B70EE"/>
<path d="M171.93 181.282L171.393 179.446H168.028L168.54 181.282H171.93Z" fill="#7B70EE"/>
<path d="M198.369 173.44L197.544 171.729H193.623L194.4 173.44H198.369Z" fill="#7B70EE"/>
<path d="M176.964 181.282L176.402 179.446H172.203L172.74 181.282H176.964Z" fill="#7B70EE"/>
<path d="M202.741 173.44L201.774 171.729H198.407L199.231 173.44H202.741Z" fill="#7B70EE"/>
<path d="M169.638 173.44L169.139 171.729H165.878L166.355 173.44H169.638Z" fill="#7B70EE"/>
<path d="M144.543 181.282L144.33 179.446H140.3L140.374 181.282H144.543Z" fill="#7B70EE"/>
<path d="M84.7463 176.831L84.3364 177.79L83.9609 178.668H88.088L88.823 176.831H84.7463Z" fill="#7B70EE"/>
<path d="M149.014 178.668L148.701 176.831H144.808L145.022 178.668H149.014Z" fill="#7B70EE"/>
<path d="M83.1152 178.668L83.9012 176.831H79.8315L79.3949 177.792L78.9971 178.668H83.1152Z" fill="#7B70EE"/>
<path d="M117.478 174.217L117.065 176.055H120.916L121.279 174.217H117.478Z" fill="#7B70EE"/>
<path d="M122.071 174.217L121.708 176.055H125.563L125.876 174.217H122.071Z" fill="#7B70EE"/>
<path d="M99.316 176.831L98.7544 178.668H102.943L103.48 176.831H99.316Z" fill="#7B70EE"/>
<path d="M89.6609 176.831L88.9253 178.668H93.03L93.6911 176.831H89.6609Z" fill="#7B70EE"/>
<path d="M104.29 176.831L103.753 178.668H107.107L107.619 176.831H104.29Z" fill="#7B70EE"/>
<path d="M140.195 176.831L140.269 178.668H144.239L144.025 176.831H140.195Z" fill="#7B70EE"/>
<path d="M94.518 176.831L93.8569 178.668H97.9419L98.5035 176.831H94.518Z" fill="#7B70EE"/>
<path d="M143.632 173.44L143.432 171.729H139.99L140.059 173.44H143.632Z" fill="#7B70EE"/>
<path d="M154.244 181.282L153.882 179.446H149.935L150.247 181.282H154.244Z" fill="#7B70EE"/>
<path d="M135.709 171.729L135.639 173.44H139.28L139.212 171.729H135.709Z" fill="#7B70EE"/>
<path d="M135.608 174.217L135.534 176.055H139.385L139.311 174.217H135.608Z" fill="#7B70EE"/>
<path d="M143.935 176.055L143.721 174.217H140.089L140.163 176.055H143.935Z" fill="#7B70EE"/>
<path d="M148.123 173.44L147.831 171.729H144.215L144.414 173.44H148.123Z" fill="#7B70EE"/>
<path d="M135.502 176.831L135.428 178.668H139.491L139.417 176.831H135.502Z" fill="#7B70EE"/>
<path d="M135.397 179.446L135.323 181.282H139.596L139.522 179.446H135.397Z" fill="#7B70EE"/>
<path d="M134.861 173.44L134.93 171.729H131.487L131.288 173.44H134.861Z" fill="#7B70EE"/>
<path d="M126.797 173.44H130.505L130.704 171.729H127.089L126.797 173.44Z" fill="#7B70EE"/>
<path d="M153.728 178.668L153.365 176.831H149.489L149.802 178.668H153.728Z" fill="#7B70EE"/>
<path d="M116.89 176.831L116.478 178.668H120.399L120.762 176.831H116.89Z" fill="#7B70EE"/>
<path d="M67.3064 182.06L66.3979 183.667H70.7628L71.5366 182.06H67.3064Z" fill="#7B70EE"/>
<path d="M171.166 178.668L170.629 176.831H167.3L167.812 178.668H171.166Z" fill="#7B70EE"/>
<path d="M168.757 182.06L169.205 183.667H172.627L172.158 182.06H168.757Z" fill="#7B70EE"/>
<path d="M162.58 178.668L162.117 176.831H158.827L159.238 178.668H162.58Z" fill="#7B70EE"/>
<path d="M134.545 181.282L134.619 179.446H130.59L130.376 181.282H134.545Z" fill="#7B70EE"/>
<path d="M183.11 182.06L183.688 183.667H187.995L187.352 182.06H183.11Z" fill="#7B70EE"/>
<path d="M195.923 178.668L195.088 176.831H191.019L191.804 178.668H195.923Z" fill="#7B70EE"/>
<path d="M188.19 182.06L188.833 183.667H193.095L192.408 182.06H188.19Z" fill="#7B70EE"/>
<path d="M125.773 179.446L125.46 181.282H129.593L129.807 179.446H125.773Z" fill="#7B70EE"/>
<path d="M68.7834 179.446L67.7456 181.282H71.9109L72.7957 179.446H68.7834Z" fill="#7B70EE"/>
<path d="M145.417 182.06L145.604 183.667H149.865L149.592 182.06H145.417Z" fill="#7B70EE"/>
<path d="M82.5114 182.06L81.8242 183.667H86.0864L86.7296 182.06H82.5114Z" fill="#7B70EE"/>
<path d="M134.514 182.06H130.285L130.099 183.667H134.449L134.514 182.06Z" fill="#7B70EE"/>
<path d="M190.958 178.668L190.173 176.831H186.096L186.831 178.668H190.958Z" fill="#7B70EE"/>
<path d="M72.4 182.06L71.6255 183.667H75.8711L76.6016 182.06H72.4Z" fill="#7B70EE"/>
<path d="M154.157 176.831L154.52 178.668H158.441L158.029 176.831H154.157Z" fill="#7B70EE"/>
<path d="M172.967 182.06L173.437 183.667H177.693L177.201 182.06H172.967Z" fill="#7B70EE"/>
<path d="M155.19 182.06L155.507 183.667H159.564L159.204 182.06H155.19Z" fill="#7B70EE"/>
<path d="M176.165 178.668L175.603 176.831H171.44L171.976 178.668H176.165Z" fill="#7B70EE"/>
<path d="M181.064 178.668L180.402 176.831H176.417L176.978 178.668H181.064Z" fill="#7B70EE"/>
<path d="M150.381 182.06L150.654 183.667H154.715L154.398 182.06H150.381Z" fill="#7B70EE"/>
<path d="M178.015 182.06L178.507 183.667H182.862L182.284 182.06H178.015Z" fill="#7B70EE"/>
<path d="M71.7391 174.217L70.7007 176.055H74.4286L75.3135 174.217H71.7391Z" fill="#7B70EE"/>
<path d="M198.318 182.06L199.049 183.667H203.294L202.519 182.06H198.318Z" fill="#7B70EE"/>
<path d="M73.1451 171.729L72.1787 173.44H75.688L76.5116 171.729H73.1451Z" fill="#7B70EE"/>
<path d="M185.994 178.668L185.259 176.831H181.228L181.89 178.668H185.994Z" fill="#7B70EE"/>
<path d="M124.266 183.667L124.539 182.06H87.5677L86.9238 183.667H124.266Z" fill="#7B70EE"/>
<path d="M160 182.06L160.361 183.667H163.837L163.432 182.06H160Z" fill="#7B70EE"/>
<path d="M130.984 176.055H134.756L134.83 174.217H131.198L130.984 176.055Z" fill="#7B70EE"/>
<path d="M206.136 179.446H202.124L204.157 183.667H208.522L206.136 179.446Z" fill="#7B70EE"/>
<path d="M201.75 178.668H205.696L204.657 176.831H200.865L201.75 178.668Z" fill="#7B70EE"/>
<path d="M200.886 178.668L200.001 176.831H195.941L196.777 178.668H200.886Z" fill="#7B70EE"/>
<path d="M129.316 183.667L129.503 182.06H125.328L125.054 183.667H129.316Z" fill="#7B70EE"/>
<path d="M135.292 182.06L135.227 183.667H144.822L144.634 182.06H135.292Z" fill="#7B70EE"/>
<path d="M193.254 182.06L193.94 183.667H198.195L197.464 182.06H193.254Z" fill="#7B70EE"/>
<path d="M167.005 178.668L166.493 176.831H162.919L163.381 178.668H167.005Z" fill="#7B70EE"/>
<path d="M164.234 182.06L164.639 183.667H168.398L167.95 182.06H164.234Z" fill="#7B70EE"/>
<path d="M70.261 176.831L69.2231 178.668H73.1698L74.0546 176.831H70.261Z" fill="#7B70EE"/>
<path d="M80.5191 173.44L81.2968 171.729H77.3744L76.5508 173.44H80.5191Z" fill="#7B70EE"/>
<path d="M77.4552 182.06L76.7246 183.667H80.9785L81.6657 182.06H77.4552Z" fill="#7B70EE"/>
<path d="M134.65 178.668L134.724 176.831H130.893L130.68 178.668H134.65Z" fill="#7B70EE"/>
<path d="M149.146 179.446H145.113L145.326 181.282H149.459L149.146 179.446Z" fill="#7B70EE"/>
<path d="M161.817 197.357H113.104C112.897 197.357 112.708 197.262 112.585 197.095C112.462 196.929 112.426 196.72 112.487 196.522L115.584 186.457C115.668 186.184 115.916 186.002 116.201 186.002H158.721C159.006 186.002 159.254 186.185 159.338 186.457L162.435 196.522C162.496 196.72 162.46 196.929 162.337 197.095C162.213 197.262 162.024 197.357 161.817 197.357ZM116.2 186.578C116.169 186.578 116.143 186.597 116.133 186.627L113.037 196.692C113.028 196.719 113.038 196.741 113.047 196.754C113.057 196.766 113.074 196.782 113.103 196.782H161.817C161.846 196.782 161.863 196.766 161.873 196.754C161.883 196.741 161.892 196.719 161.884 196.692L158.787 186.627C158.778 186.598 158.751 186.578 158.72 186.578H116.2Z" fill="#7B70EE"/>
<path d="M161.115 94.8418L108.2 103.188L159.078 128.643L211.774 120.806L161.115 94.8418Z" fill="#1C1C84"/>
<path d="M108.2 103.188V104.398L159.116 131.006L211.774 121.965V120.806L159.078 128.643L108.2 103.188Z" fill="#2525AD"/>
<path d="M127.881 131.827L127.07 137.206C127.07 137.206 148.799 154.652 179.437 146.074L179.906 141.871C152.824 146.402 135.777 137.623 127.881 131.827Z" fill="#2525AD"/>
<path d="M192.394 160.154C189.558 157.905 187.55 154.587 186.593 151.097C186.522 150.838 186.177 150.932 186.136 151.154C186.072 151.068 185.943 151.056 185.839 151.11C185.789 150.93 185.496 150.848 185.384 151.065C183.44 154.835 184.942 159.093 186.243 162.821C186.345 163.114 186.669 162.956 186.567 162.662C185.549 159.744 184.459 156.476 185.078 153.402C184.733 157.289 186.028 161.27 188.401 164.355C188.572 164.577 188.838 164.31 188.666 164.086C186.512 161.285 185.399 157.731 185.514 154.202C185.58 155.592 185.795 156.979 186.24 158.29C186.922 160.299 188.061 162.216 189.201 163.995C189.369 164.257 189.634 163.987 189.466 163.726C188.37 162.016 187.425 160.179 186.741 158.26C186.448 157.438 186.255 156.576 186.132 155.702C186.787 158.529 188.153 161.187 190.116 163.345C190.322 163.572 190.596 163.371 190.386 163.14C188.236 160.776 186.943 157.749 186.409 154.625C187.198 157.55 188.654 160.317 190.578 162.694C190.772 162.934 190.975 162.673 190.779 162.43C188.901 160.111 187.66 157.398 186.885 154.544C187.929 157.488 189.284 160.328 191.678 162.421C191.913 162.627 192.169 162.389 191.935 162.184C190.291 160.746 189.207 158.804 188.324 156.856C189.282 158.559 190.435 160.151 191.772 161.589C191.984 161.817 192.163 161.455 191.953 161.23C190.777 159.965 189.874 158.563 188.999 157.081C189.9 158.287 190.947 159.386 192.133 160.327C192.375 160.52 192.638 160.348 192.394 160.154Z" fill="#F0C64B"/>
<path d="M187.41 119.417C186.304 118.096 184.812 117.228 183.283 116.487C180.243 115.013 176.867 114.372 173.571 113.749C168.914 112.868 164.15 112.052 160.277 109.117C160.126 109.003 159.981 109.06 159.894 109.176C159.887 109.183 159.882 109.192 159.875 109.2C159.873 109.204 159.869 109.207 159.867 109.211C159.774 109.326 159.748 109.491 159.887 109.623C162.725 112.336 166.519 113.679 170.254 114.624C174.029 115.58 177.881 116.234 181.493 117.734C181.606 117.781 181.718 117.827 181.83 117.874C181.852 117.883 181.971 117.937 181.972 117.937C182.157 118.027 182.34 118.119 182.524 118.21C183.201 118.546 183.859 118.893 184.478 119.328C185.22 119.851 185.907 120.49 186.384 121.267C186.906 122.117 187.087 123.07 187.067 124.058C187.048 125.086 186.857 126.109 186.69 127.121C186.517 128.17 186.362 129.221 186.201 130.271C185.867 132.442 185.557 134.615 185.322 136.798C184.806 141.606 184.665 146.51 185.53 151.288C185.594 151.643 186.189 151.565 186.162 151.203C185.826 146.669 186.196 142.122 186.832 137.63C187.149 135.394 187.533 133.167 187.924 130.943C188.29 128.856 188.775 126.751 188.946 124.636C189.102 122.718 188.657 120.908 187.41 119.417Z" fill="#F0C64B"/>
<path d="M185.29 151.631C185.345 151.604 185.401 151.58 185.457 151.556C185.491 151.543 185.489 151.543 185.452 151.557C185.468 151.551 185.484 151.545 185.501 151.54C185.526 151.532 185.55 151.523 185.575 151.516C185.696 151.479 185.819 151.452 185.944 151.434C185.974 151.43 186.004 151.425 186.034 151.423C185.95 151.427 186.048 151.423 186.065 151.421C186.125 151.418 186.187 151.417 186.247 151.418C186.308 151.42 186.368 151.423 186.429 151.428C186.459 151.432 186.489 151.435 186.519 151.439C186.537 151.441 186.554 151.443 186.571 151.446C186.529 151.439 186.526 151.438 186.563 151.445C186.651 151.462 186.729 151.466 186.812 151.422C186.88 151.386 186.947 151.312 186.967 151.235C187.008 151.084 186.934 150.864 186.757 150.831C186.152 150.718 185.542 150.79 184.986 151.062C184.835 151.136 184.768 151.351 184.854 151.498C184.945 151.653 185.128 151.71 185.29 151.631Z" fill="#D8A32B"/>
<path d="M185.226 151.001C185.281 150.975 185.336 150.95 185.392 150.927C185.426 150.914 185.425 150.914 185.387 150.928C185.404 150.922 185.42 150.917 185.436 150.911C185.461 150.903 185.486 150.894 185.511 150.887C185.631 150.85 185.754 150.822 185.879 150.805C185.909 150.801 185.94 150.796 185.97 150.794C185.886 150.798 185.984 150.794 186 150.792C186.061 150.789 186.122 150.788 186.183 150.789C186.243 150.79 186.304 150.794 186.364 150.8C186.395 150.803 186.425 150.806 186.455 150.81C186.472 150.813 186.489 150.815 186.506 150.818C186.464 150.81 186.461 150.81 186.498 150.817C186.587 150.833 186.665 150.838 186.747 150.794C186.816 150.757 186.883 150.683 186.902 150.607C186.943 150.456 186.87 150.235 186.693 150.203C186.087 150.09 185.477 150.161 184.922 150.433C184.771 150.508 184.703 150.724 184.79 150.87C184.881 151.024 185.063 151.081 185.226 151.001Z" fill="#D8A32B"/>
<path d="M181.498 129.213L181.761 127.119L159.117 131.007L130.611 116.11L130 119.63L158.548 134.002L181.498 129.213Z" fill="#0C0C5B"/>
<path d="M158.548 134.002L129.999 119.63L127.882 131.828C135.778 137.624 152.826 146.403 179.907 141.873L181.497 129.213L158.548 134.002Z" fill="#1C1C84"/>
<path d="M123.94 150.551C125.204 153.955 122.489 158.101 117.877 159.814C113.264 161.526 110.632 159.367 108.787 156.24C106.088 151.667 108.689 149.2 113.301 147.488C117.914 145.776 122.677 147.148 123.94 150.551Z" fill="#FFF6DC"/>
<path d="M77.8835 113.067C77.8835 113.067 89.3294 124.854 98.7086 146.01C98.7086 146.01 103.157 157.494 106.075 160.366C106.075 160.366 103.713 157.704 107.32 153.455C109.97 150.334 113.833 148.421 117.924 148.276C120.209 148.195 122.597 148.674 123.957 150.595C123.957 150.595 108.692 132.613 98.7182 117.097C94.7333 110.899 92.847 105.777 92.0189 101.862C92.0189 101.862 91.2673 100.977 89.7699 100.238C84.2634 97.5185 77.777 101.179 76.8163 107.245C76.7265 107.811 76.6704 108.414 76.6557 109.055C76.6557 109.055 76.5767 111.743 77.8835 113.067Z" fill="white"/>
<path d="M106.076 160.366C106.076 160.366 111.085 166.41 122.431 159.157C122.431 159.157 129.454 154.472 125.948 146.312C125.948 146.312 118.666 140.883 112.923 134.002C107.181 127.12 100.078 117.751 94.1847 105.359L92.6821 104.45C92.6821 104.45 93.7652 110.326 100.779 120.228C107.794 130.131 120.732 146.709 120.732 146.709L122.711 149.093C123.847 150.462 124.237 152.342 123.61 154.006C122.716 156.377 120.094 159.184 112.773 159.61L108.201 152.512C108.201 152.512 103.761 156.189 106.076 160.366Z" fill="#F4E7BD"/>
<path d="M117.157 138.604C117.157 138.604 104.008 124.892 94.7899 103.188C94.7899 103.188 93.1274 100.546 92.0698 99.3262C92.0698 99.3262 100.083 124.095 117.157 138.604Z" fill="white"/>
<path d="M92.9735 134.625C95.7402 129.635 101.718 126.335 107.409 126.621C109.434 126.722 109.428 124.203 107.409 124.102C100.66 123.763 93.9686 127.132 90.6958 133.036C90.6958 133.036 91.9899 136.399 92.9735 134.625Z" fill="#F0C64B"/>
<path d="M72.6042 143.795H46.7972C43.3758 143.795 40.5767 140.996 40.5767 137.574V124.135C40.5767 120.713 43.3758 117.914 46.7972 117.914H72.6042C76.0255 117.914 78.8247 120.713 78.8247 124.135V137.574C78.8247 140.996 76.0255 143.795 72.6042 143.795Z" fill="#2525AD"/>
<path d="M55.5952 130.855V126.115L59.7006 128.485L63.8053 130.855L59.7006 133.225L55.5952 135.595V130.855Z" fill="#D5CBFB"/>
<path d="M52.2289 86.7153C52.2289 78.8131 45.8229 72.4077 37.9213 72.4077C30.0198 72.4077 23.6138 78.8131 23.6138 86.7153C23.6138 92.4424 26.9797 97.3809 31.8404 99.6669V104.23H44.0029V99.6669C48.863 97.3809 52.2289 92.4424 52.2289 86.7153Z" fill="white"/>
<path d="M44.3948 106.588H31.4489C30.7999 106.588 30.2695 106.058 30.2695 105.409C30.2695 104.76 30.7999 104.229 31.4489 104.229H44.3954C45.0437 104.229 45.5747 104.76 45.5747 105.409C45.5741 106.058 45.0437 106.588 44.3948 106.588Z" fill="#F0C64B"/>
<path d="M37.9215 113.28C35.3091 113.28 33.1914 111.162 33.1914 108.55V107.768H42.6522V108.55C42.6516 111.162 40.5339 113.28 37.9215 113.28Z" fill="#F0C64B"/>
<path d="M44.3948 108.947H31.4489C30.7999 108.947 30.2695 108.416 30.2695 107.767C30.2695 107.119 30.7999 106.588 31.4489 106.588H44.3954C45.0437 106.588 45.5747 107.118 45.5747 107.767C45.5741 108.416 45.0437 108.947 44.3948 108.947Z" fill="#D8A32B"/>
<path d="M39.222 104.23H38.5513V84.3533C38.5513 84.0059 38.2683 83.7229 37.9209 83.7229C37.5728 83.7229 37.2898 84.0059 37.2898 84.3533V104.23H36.6191V84.3533C36.6191 83.6355 37.2031 83.0522 37.9209 83.0522C38.6387 83.0522 39.222 83.6355 39.222 84.3533V104.23Z" fill="#F0C64B"/>
<path d="M15.4322 81.8369L15.0396 83.8845L21.0197 85.0307C21.1001 84.332 21.2224 83.6467 21.3844 82.9761L15.4322 81.8369Z" fill="#7B70EE"/>
<path d="M20.1696 72.4077L18.9087 74.0709L23.6783 77.6816C24.0601 77.0983 24.4771 76.5392 24.9258 76.0088L20.1696 72.4077Z" fill="#7B70EE"/>
<path d="M28.5302 66.0386L26.6675 66.9763L29.3487 72.2916C29.9473 71.9416 30.5676 71.6254 31.2095 71.3494L28.5302 66.0386Z" fill="#7B70EE"/>
<path d="M60.8015 83.8845L60.4088 81.8369L54.4561 82.9761C54.618 83.6461 54.741 84.332 54.8207 85.0307L60.8015 83.8845Z" fill="#7B70EE"/>
<path d="M56.9322 74.0709L55.6713 72.4077L50.915 76.0088C51.3638 76.5398 51.7801 77.0983 52.1626 77.6816L56.9322 74.0709Z" fill="#7B70EE"/>
<path d="M49.174 66.9763L47.3113 66.0386L44.6313 71.35C45.2733 71.6261 45.8936 71.9423 46.4921 72.2922L49.174 66.9763Z" fill="#7B70EE"/>
<path d="M38.9862 70.0094L38.9346 63.9585L36.8481 63.9776L36.9004 70.0056C37.2383 69.9859 37.5774 69.9725 37.9197 69.9725C38.2786 69.9731 38.6337 69.9878 38.9862 70.0094Z" fill="#7B70EE"/>
<path d="M249.263 195.99H188.798V207.912H249.263V195.99Z" fill="#F0C64B"/>
<path d="M194.636 195.99H192.201V207.912H194.636V195.99Z" fill="#D8A32B"/>
<path d="M198.293 195.99H195.857V207.912H198.293V195.99Z" fill="#D8A32B"/>
<path d="M242.205 195.99H239.77V207.912H242.205V195.99Z" fill="#D8A32B"/>
<path d="M245.86 195.99H243.424V207.912H245.86V195.99Z" fill="#D8A32B"/>
<path d="M255.082 189.347V187.513C255.082 184.906 252.961 182.786 250.355 182.786H196.465V194.075H250.355C252.961 194.075 255.082 191.954 255.082 189.347Z" fill="white"/>
<path d="M250.354 180.8H196.112V181.793V182.786H250.354C252.961 182.786 255.081 184.907 255.081 187.513V189.347C255.081 191.954 252.96 194.074 250.354 194.074H196.112V195.067V196.06H250.354C254.056 196.06 257.067 193.049 257.067 189.347V187.513C257.067 183.811 254.056 180.8 250.354 180.8Z" fill="#2525AD"/>
<path d="M251.409 185.313H196.464V186.216H251.409V185.313Z" fill="#F5F5FF"/>
<path d="M251.409 188.034H196.464V188.937H251.409V188.034Z" fill="#F5F5FF"/>
<path d="M251.409 190.754H196.464V191.658H251.409V190.754Z" fill="#F5F5FF"/>
<path d="M191.843 174.826V173.174C191.843 170.827 193.753 168.917 196.1 168.917H244.624V179.082H196.1C193.753 179.082 191.843 177.173 191.843 174.826Z" fill="white"/>
<path d="M196.1 167.129H244.942V168.023V168.918H196.1C193.753 168.918 191.843 170.827 191.843 173.174V174.826C191.843 177.173 193.753 179.082 196.1 179.082H244.942V179.977V180.871H196.1C192.767 180.871 190.055 178.159 190.055 174.826V173.174C190.055 169.841 192.767 167.129 196.1 167.129Z" fill="#F0C64B"/>
<path d="M195.149 172.006H244.625V171.192H195.149V172.006Z" fill="#F5F5FF"/>
<path d="M195.149 174.456H244.625V173.642H195.149V174.456Z" fill="#F5F5FF"/>
<path d="M195.149 176.905H244.625V176.092H195.149V176.905Z" fill="#F5F5FF"/>
<path d="M94.3469 40.374C96.631 40.374 98.4822 42.1692 98.4822 44.3831V44.9932C99.3141 47.3334 99.8203 50.3792 99.8203 53.719C99.8203 57.0587 99.3135 60.104 98.4822 62.4448V63.0548C98.4822 65.2688 96.631 67.0639 94.3469 67.0639C91.324 67.0639 88.8735 61.0895 88.8735 53.719C88.8729 46.3485 91.324 40.374 94.3469 40.374Z" fill="#F0C64B"/>
<path d="M90.7334 53.8881C90.7334 58.3964 91.0827 62.0517 91.513 62.0517C91.944 62.0517 92.2927 58.397 92.2927 53.8881C92.2927 49.3799 91.9433 45.7246 91.513 45.7246C91.0827 45.7252 90.7334 49.3799 90.7334 53.8881Z" fill="#D8A32B"/>
<path d="M104.272 47.6724V48.2073V59.5716V60.1064C103.99 63.1829 101.161 66.0343 97.3677 67.0645V59.5716V48.2073V40.7144C101.161 41.7445 103.99 44.596 104.272 47.6724Z" fill="#7B70EE"/>
<path d="M97.3682 68.4918C97.9859 68.4918 98.4908 68.0023 98.4908 67.4037V40.374C98.4908 39.7754 97.9853 39.2852 97.3682 39.2852C96.7505 39.2852 96.2456 39.7747 96.2456 40.374V67.4037C96.245 68.0023 96.7505 68.4918 97.3682 68.4918Z" fill="#2525AD"/>
<path d="M72.8655 40.374C70.5814 40.374 68.7302 42.1692 68.7302 44.3831V44.9932C67.8982 47.3334 67.3921 50.3792 67.3921 53.719C67.3921 57.0587 67.8989 60.104 68.7302 62.4448V63.0548C68.7302 65.2688 70.5814 67.0639 72.8655 67.0639C75.8884 67.0639 78.3389 61.0895 78.3389 53.719C78.3389 46.3485 75.8884 40.374 72.8655 40.374Z" fill="#F0C64B"/>
<path d="M76.4782 53.8881C76.4782 58.3964 76.1289 62.0517 75.6986 62.0517C75.2683 62.0517 74.9189 58.397 74.9189 53.8881C74.9189 49.3799 75.2683 45.7246 75.6986 45.7246C76.1289 45.7252 76.4782 49.3799 76.4782 53.8881Z" fill="#D8A32B"/>
<path d="M62.939 47.6719V48.2068V59.5711V60.1059C63.2207 63.1824 66.0505 66.0338 69.8435 67.064V59.5711V48.2068V40.7139C66.0505 41.744 63.2207 44.5955 62.939 47.6719Z" fill="#7B70EE"/>
<path d="M69.8443 68.4918C69.2266 68.4918 68.7217 68.0023 68.7217 67.4037V40.374C68.7217 39.7754 69.2266 39.2852 69.8443 39.2852C70.462 39.2852 70.9669 39.7747 70.9669 40.374V67.4037C70.9669 68.0023 70.4614 68.4918 69.8443 68.4918Z" fill="#2525AD"/>
<path d="M97.474 23.9253C95.2307 22.0735 92.2888 20.9011 89.4985 20.2165C86.6337 19.5134 83.6414 19.3336 80.7122 19.6734C79.828 19.776 78.9477 19.9143 78.0769 20.0979C77.4808 20.2235 76.8261 20.3217 76.2734 20.5837C75.6959 20.8578 75.1298 21.16 74.5586 21.4481C73.0121 22.2277 71.4649 23.0074 69.9184 23.787C69.3026 24.0975 69.3753 24.9982 69.9184 25.3271C71.3483 26.1941 72.986 26.305 74.6052 26.0469C75.7437 25.8652 76.7834 25.4425 77.8639 25.0683C79.8051 24.3958 81.9024 24.0669 83.9525 24.0573C85.7801 24.049 87.6339 24.3225 89.3226 25.0447C91.8209 26.1208 94.8094 26.8367 97.2936 25.3271C97.745 25.0518 97.9305 24.3021 97.474 23.9253Z" fill="#7B70EE"/>
<path d="M83.9921 18.6809L83.9959 18.6611C83.8652 18.6611 83.7365 18.6688 83.6058 18.6707C83.4757 18.6688 83.347 18.6611 83.2156 18.6611L83.2195 18.6809C70.3399 19.0914 60.0229 29.6544 60.0229 42.6335V57.1794C60.0229 58.7948 61.3323 60.1048 62.9483 60.1048V45.7641L62.8852 45.3912C61.8997 39.5755 63.16 33.5227 66.7082 28.8111C68.3656 26.6105 70.6108 24.538 73.6503 23.0406C73.6866 23.0228 73.7223 23.0055 73.7587 22.9877C79.9518 19.9686 87.2605 19.9686 93.4535 22.9877C93.4899 23.0055 93.5256 23.0228 93.5619 23.0406C96.6199 24.547 98.8734 26.6353 100.533 28.8499C104.061 33.5577 105.31 39.5953 104.326 45.395L104.264 45.7648V60.1055C105.879 60.1055 107.189 58.7961 107.189 57.1801V42.6341C107.189 29.6544 96.8717 19.0914 83.9921 18.6809Z" fill="#2525AD"/>
<path d="M260.844 70.8174H222.808V125.824H260.844V70.8174Z" fill="#D5CBFB"/>
<path d="M256.738 78.8853H226.913V80.1028H256.738V78.8853Z" fill="#7B70EE"/>
<path d="M256.738 84.4736H226.913V85.6912H256.738V84.4736Z" fill="#7B70EE"/>
<path d="M256.738 90.0635H226.913V91.2811H256.738V90.0635Z" fill="#7B70EE"/>
<path d="M256.738 95.6519H226.913V96.8694H256.738V95.6519Z" fill="#7B70EE"/>
<path d="M256.738 101.241H226.913V102.459H256.738V101.241Z" fill="#7B70EE"/>
<path d="M256.738 106.83H226.913V108.048H256.738V106.83Z" fill="#7B70EE"/>
<path d="M256.74 120.407H226.915V120.742H256.74V120.407Z" fill="white"/>
<path d="M230.989 115.125C232.513 115.381 234.06 115.457 235.6 115.324C237.023 115.2 238.534 114.96 239.861 114.413C240.806 114.024 241.835 112.957 241.172 111.878C240.588 110.927 239.123 110.831 238.152 111.061C237.02 111.331 236.012 112.072 235.324 112.998C234.635 113.924 234.155 115.26 234.971 116.262C235.724 117.188 237.104 117.373 238.215 117.219C238.839 117.132 239.447 116.926 239.993 116.609C240.248 116.461 240.485 116.287 240.711 116.099C241.007 115.854 241.318 115.529 241.717 115.473C242.197 115.406 242.308 115.77 242.613 116.031C242.825 116.213 243.098 116.274 243.371 116.247C243.709 116.212 244.015 116.067 244.328 115.946C244.721 115.794 245.11 115.737 245.531 115.747C247.346 115.79 249.174 116.031 250.983 116.178C251.306 116.205 251.304 115.903 250.983 115.877C249.637 115.767 248.29 115.457 246.943 115.348C246.329 115.298 245.697 115.204 245.08 115.254C244.5 115.302 244.034 115.603 243.479 115.722C242.854 115.855 242.768 115.228 242.269 115.035C241.825 114.865 241.337 115.009 240.957 115.262C240.495 115.571 240.118 115.974 239.623 116.241C239.068 116.54 238.442 116.72 237.813 116.758C236.793 116.82 235.275 116.509 235.06 115.302C234.864 114.202 235.777 113.065 236.573 112.415C237.39 111.748 238.493 111.306 239.558 111.501C240.065 111.594 240.727 111.833 240.851 112.401C240.996 113.065 240.409 113.6 239.877 113.861C239.255 114.166 238.537 114.321 237.865 114.471C237.119 114.638 236.364 114.755 235.602 114.821C234.108 114.951 232.603 115.023 231.125 114.774C230.806 114.72 230.67 115.071 230.989 115.125Z" fill="#7B70EE"/>
<path d="M273.558 104.206L266.872 100.578L268.837 96.9556C269.262 96.1715 270.243 95.8808 271.027 96.306L274.874 98.3938C275.658 98.819 275.949 99.7994 275.523 100.584L273.558 104.206Z" fill="#D5CBFB"/>
<path d="M273.086 105.048L266.4 101.42L247.087 137.013L253.773 140.641L273.086 105.048Z" fill="#2525AD"/>
<path d="M270.934 103.884L268.546 102.588L249.233 138.182L251.62 139.477L270.934 103.884Z" fill="#1C1C84"/>
<path d="M274.749 103.88L266.471 99.3887L265.602 100.989L273.881 105.481L274.749 103.88Z" fill="#F0C64B"/>
<path d="M253.779 140.658L247.092 137.03L246.414 143.097L249.063 144.534L253.779 140.658Z" fill="#D5CBFB"/>
<path d="M249.062 144.534L246.414 143.096L245.969 147.075L249.062 144.534Z" fill="#2525AD"/>
<path d="M34.4272 42.3994L41.2693 49.2415" stroke="#7B70EE" stroke-width="2.1457" stroke-miterlimit="10"/>
<path d="M41.407 42.3994L34.5649 49.2415" stroke="#7B70EE" stroke-width="2.1457" stroke-miterlimit="10"/>
<path d="M264.603 145.024L271.445 151.866" stroke="#7B70EE" stroke-width="2.1457" stroke-miterlimit="10"/>
<path d="M271.581 145.024L264.739 151.866" stroke="#7B70EE" stroke-width="2.1457" stroke-miterlimit="10"/>
<path d="M15.1221 121.047L21.1813 127.106" stroke="#2525AD" stroke-width="1.9001" stroke-miterlimit="10"/>
<path d="M21.3027 121.047L15.2441 127.106" stroke="#2525AD" stroke-width="1.9001" stroke-miterlimit="10"/>
<path d="M11.9112 70.8172C11.9112 73.5519 9.69403 75.7691 6.95925 75.7691C4.22447 75.7691 2.00732 73.5519 2.00732 70.8172C2.00732 68.0824 4.22447 65.8652 6.95925 65.8652C9.69403 65.8646 11.9112 68.0817 11.9112 70.8172Z" stroke="#7B70EE" stroke-width="2.1457" stroke-miterlimit="10"/>
<path d="M205.698 67.0044C208.433 67.0044 210.65 64.7874 210.65 62.0525C210.65 59.3176 208.433 57.1006 205.698 57.1006C202.963 57.1006 200.746 59.3176 200.746 62.0525C200.746 64.7874 202.963 67.0044 205.698 67.0044Z" stroke="#7B70EE" stroke-width="2.1457" stroke-miterlimit="10"/>
<path d="M228.289 55.1471C228.289 55.8419 227.725 56.4054 227.03 56.4054C226.336 56.4054 225.772 55.8419 225.772 55.1471C225.772 54.4522 226.336 53.8887 227.03 53.8887C227.725 53.8887 228.289 54.4522 228.289 55.1471Z" stroke="#2525AD" stroke-width="1.9001" stroke-miterlimit="10"/>
<path d="M106.946 13.19C106.946 13.8849 106.383 14.4484 105.688 14.4484C104.993 14.4484 104.43 13.8849 104.43 13.19C104.43 12.4952 104.993 11.9316 105.688 11.9316C106.383 11.9316 106.946 12.4952 106.946 13.19Z" stroke="#2525AD" stroke-width="1.9001" stroke-miterlimit="10"/>
<path d="M26.6526 172.878V175.854C22.6544 176.079 19.4683 179.394 19.4683 183.447V185.979C19.4683 190.133 22.8125 193.515 26.9484 193.588C28.4503 201.736 35.5862 207.911 44.1692 207.911C53.8436 207.911 61.6858 200.069 61.6858 190.395V172.878H26.6526ZM21.9296 185.979V183.447C21.9296 180.75 24.0122 178.534 26.6526 178.314V190.394C26.6526 190.635 26.6609 190.873 26.6705 191.112C24.0218 190.901 21.9296 188.682 21.9296 185.979Z" fill="#2525AD"/>
<path d="M52.9602 152.937C50.7316 151.788 47.8036 152.33 46.0123 154.085C45.691 151.528 43.2616 149.597 40.7142 149.216C38.1662 148.834 35.5813 149.728 33.3456 151.008C31.1533 152.264 29.1064 154.006 28.1878 156.36C27.2692 158.713 27.7836 161.747 29.865 163.179C30.7103 163.76 31.7876 163.924 32.7993 163.755C32.9326 164.555 33.2494 165.319 33.7702 165.952C35.506 168.063 39.0899 168.271 41.0591 166.377C42.5534 167.699 44.847 168.033 46.6562 167.191C47.0495 167.008 47.4135 166.769 47.7443 166.491C47.6111 168.244 46.9449 169.961 45.823 171.318C47.9961 170.562 49.8544 168.941 50.8986 166.89C51.5832 165.546 51.9052 164.027 51.8624 162.52C53.5543 162.194 55.1066 160.956 55.6573 159.3C56.4497 156.92 55.1894 154.086 52.9602 152.937Z" fill="#D5CBFB"/>
<path d="M131.573 47.7877L131.57 47.787C131.48 47.7794 131.385 47.7749 131.29 47.7749C129.426 47.7749 127.909 49.2915 127.909 51.1555C127.909 53.0194 129.426 54.536 131.29 54.536C131.385 54.536 131.478 54.5322 131.566 54.5245C133.308 54.3811 134.67 52.9015 134.67 51.1555C134.67 49.41 133.31 47.9304 131.573 47.7877Z" fill="#2525AD"/>
<path d="M143.42 51.1564C143.42 50.5725 143.193 50.0236 142.779 49.6099C142.366 49.1968 141.816 48.9692 141.233 48.9692H139.981L139.852 48.546C139.684 47.9939 139.461 47.4565 139.19 46.9484L138.982 46.5583L139.868 45.6722C140.721 44.8193 140.721 43.4315 139.868 42.5785C139.455 42.1655 138.905 41.9379 138.321 41.9379C137.736 41.9379 137.187 42.1655 136.774 42.5779L135.888 43.464L135.498 43.2555C134.99 42.984 134.452 42.7615 133.9 42.5938L133.478 42.4651V41.2131C133.478 40.1772 132.741 39.2751 131.726 39.0692C131.583 39.0405 131.436 39.0259 131.29 39.0259C130.706 39.0259 130.157 39.2535 129.744 39.6665C129.331 40.0803 129.103 40.6291 129.103 41.2131V42.4651L128.681 42.5938C128.129 42.7615 127.591 42.9846 127.083 43.2555L126.693 43.464L125.807 42.5779C124.955 41.7256 123.566 41.7256 122.713 42.5779C122.301 42.991 122.073 43.5405 122.073 44.1251C122.073 44.7096 122.301 45.2585 122.714 45.6716L123.6 46.5577L123.391 46.9478C123.12 47.4559 122.897 47.9933 122.729 48.5453L122.6 48.9686H121.348C120.142 48.9686 119.161 49.9497 119.161 51.1558C119.161 51.7397 119.389 52.2892 119.802 52.7023C120.215 53.1154 120.764 53.343 121.348 53.343H122.6L122.729 53.7656C122.897 54.3177 123.12 54.8551 123.391 55.3631L123.6 55.7533L122.714 56.6394C121.861 57.4923 121.861 58.8801 122.714 59.7331C123.127 60.1455 123.676 60.3731 124.261 60.3731C124.846 60.3731 125.394 60.1455 125.807 59.7324L126.694 58.8463L127.084 59.0548C127.592 59.3263 128.129 59.5488 128.681 59.7171L129.104 59.8459V61.0979C129.104 62.304 130.085 63.2851 131.291 63.2851C131.433 63.2851 131.576 63.2711 131.716 63.2436L131.783 63.2296C132.182 63.1378 132.546 62.9364 132.838 62.6444C133.251 62.2307 133.478 61.6818 133.478 61.0979V59.8459L133.901 59.7171C134.453 59.5495 134.99 59.3263 135.498 59.0548L135.889 58.8463L136.775 59.7331C137.186 60.1449 137.736 60.3718 138.321 60.3718C138.906 60.3718 139.456 60.1449 139.868 59.7324C140.281 59.3193 140.508 58.7698 140.508 58.1853C140.508 57.6013 140.281 57.0518 139.868 56.6387L138.982 55.7533L139.19 55.3631C139.462 54.8551 139.684 54.317 139.852 53.7656L139.981 53.343H141.233C142.439 53.3436 143.42 52.3625 143.42 51.1564ZM135.815 55.3421C134.765 56.4775 133.339 57.1729 131.802 57.2992C131.637 57.3132 131.464 57.3208 131.29 57.3208C127.891 57.3208 125.125 54.5555 125.125 51.1564C125.125 47.7574 127.891 44.992 131.29 44.992C131.464 44.992 131.639 44.9997 131.809 45.0143C133.341 45.1399 134.765 45.8348 135.816 46.9708C136.873 48.1131 137.455 49.5997 137.455 51.1571C137.454 52.7138 136.872 54.2004 135.815 55.3421Z" fill="#2525AD"/>
<path d="M225.176 146.393L225.175 146.395C225.149 146.449 225.125 146.505 225.102 146.563C224.664 147.698 225.232 148.978 226.368 149.415C227.504 149.852 228.784 149.284 229.22 148.148C229.243 148.09 229.262 148.033 229.278 147.978C229.599 146.882 229.017 145.706 227.954 145.296C226.891 144.887 225.67 145.369 225.176 146.393Z" fill="#2525AD"/>
<path d="M230.006 139.967C229.651 139.83 229.263 139.84 228.914 139.994C228.565 140.149 228.298 140.43 228.161 140.786L227.867 141.549L227.579 141.528C227.203 141.5 226.824 141.511 226.451 141.556L226.164 141.592L225.832 140.844C225.513 140.125 224.668 139.8 223.948 140.119C223.599 140.274 223.332 140.555 223.195 140.911C223.058 141.267 223.068 141.655 223.222 142.003L223.555 142.751L223.336 142.94C223.052 143.186 222.79 143.461 222.558 143.758L222.38 143.985L221.617 143.691C220.986 143.448 220.264 143.686 219.901 144.256C219.85 144.336 219.806 144.422 219.772 144.511C219.635 144.866 219.645 145.254 219.799 145.603C219.954 145.952 220.235 146.22 220.591 146.356L221.354 146.65L221.333 146.938C221.306 147.314 221.316 147.693 221.362 148.066L221.397 148.353L220.65 148.685C219.931 149.005 219.605 149.85 219.924 150.57C220.079 150.918 220.36 151.186 220.717 151.323C221.072 151.46 221.46 151.45 221.809 151.295L222.557 150.963L222.746 151.182C222.991 151.466 223.266 151.728 223.563 151.959L223.791 152.137L223.497 152.9C223.214 153.635 223.582 154.463 224.317 154.746C224.673 154.883 225.061 154.873 225.41 154.718C225.758 154.564 226.025 154.282 226.162 153.927L226.456 153.164L226.745 153.185C227.12 153.212 227.5 153.202 227.873 153.156L228.159 153.12L228.491 153.868C228.811 154.588 229.656 154.913 230.376 154.594C230.724 154.439 230.991 154.157 231.128 153.801C231.266 153.445 231.256 153.057 231.101 152.709L230.769 151.961L230.988 151.772C231.272 151.526 231.534 151.251 231.765 150.954L231.943 150.727L232.706 151.02C233.441 151.304 234.269 150.936 234.552 150.201C234.585 150.115 234.61 150.024 234.626 149.932L234.633 149.888C234.671 149.623 234.633 149.354 234.524 149.108C234.369 148.759 234.088 148.492 233.732 148.355L232.969 148.061L232.99 147.773C233.017 147.398 233.007 147.018 232.961 146.645L232.925 146.358L233.673 146.026C234.021 145.872 234.288 145.59 234.425 145.233C234.563 144.877 234.553 144.489 234.399 144.141C234.244 143.793 233.963 143.525 233.606 143.388C233.251 143.251 232.862 143.26 232.514 143.415L231.767 143.747L231.578 143.529C231.332 143.245 231.056 142.982 230.76 142.751L230.532 142.573L230.826 141.81C231.109 141.078 230.742 140.25 230.006 139.967ZM230.773 145.581C231.219 146.488 231.308 147.519 231.025 148.486C230.995 148.59 230.958 148.697 230.917 148.803C230.12 150.873 227.787 151.91 225.716 151.112C223.646 150.315 222.609 147.982 223.407 145.911C223.447 145.805 223.493 145.7 223.542 145.601C223.978 144.697 224.735 143.992 225.674 143.619C226.617 143.243 227.659 143.237 228.608 143.602C229.556 143.966 230.325 144.67 230.773 145.581Z" fill="#2525AD"/>
</g>
</svg>
