<svg width="317" height="257" viewBox="0 0 317 257" fill="none" xmlns="http://www.w3.org/2000/svg">
<g opacity="0.7">
<path d="M20.4221 191.726C20.4221 191.726 137.614 45.3062 163.181 35.4658C188.748 25.6254 278.51 127.117 239.122 178.597C199.734 230.077 20.4221 191.726 20.4221 191.726Z" stroke="#F0F1FC" stroke-width="1.0983" stroke-miterlimit="10"/>
<path d="M16.2773 196.565C16.2773 190.01 19.4334 183.854 24.7565 180.028L180.075 68.3969C189.688 61.4878 203.146 64.2036 209.328 74.3014L277.663 185.934C285.97 199.504 276.204 216.93 260.295 216.93H36.6413C25.394 216.929 16.2773 207.811 16.2773 196.565Z" fill="#F0F1FC"/>
<path d="M287.263 209.087H282.309V216.889H287.263V209.087Z" fill="#8785C9"/>
<path d="M305.806 208.539H300.852V216.889H305.806V208.539Z" fill="#8785C9"/>
<path d="M217.505 206.978H212.551V216.89H217.505V206.978Z" fill="#8785C9"/>
<path d="M236.046 206.282H231.093V216.889H236.046V206.282Z" fill="#8785C9"/>
<path d="M284.072 140.684C282.805 148.274 280.026 159.304 278.511 165.104C277.884 167.501 277.474 169.003 277.474 169.003L277.012 169.608L266.265 183.663H241.541C241.541 183.663 241.267 175.388 241.3 165.663C241.302 164.817 241.306 163.957 241.315 163.091C241.432 150.467 242.129 136.458 244.614 135.123C249.221 132.645 281.467 131.149 284.23 132.645C284.307 132.687 284.375 132.755 284.434 132.851C284.98 133.721 284.732 136.735 284.072 140.684Z" fill="#E0DEFA"/>
<path opacity="0.45" d="M247.857 144.354L249.739 146.235" stroke="black" stroke-width="0.5492" stroke-miterlimit="10" stroke-linecap="round" stroke-linejoin="round"/>
<path opacity="0.45" d="M249.739 144.354L247.857 146.235" stroke="black" stroke-width="0.5492" stroke-miterlimit="10" stroke-linecap="round" stroke-linejoin="round"/>
<path opacity="0.45" d="M255.594 144.354L257.475 146.235" stroke="black" stroke-width="0.5492" stroke-miterlimit="10" stroke-linecap="round" stroke-linejoin="round"/>
<path opacity="0.45" d="M257.475 144.354L255.594 146.235" stroke="black" stroke-width="0.5492" stroke-miterlimit="10" stroke-linecap="round" stroke-linejoin="round"/>
<path opacity="0.45" d="M263.33 144.354L265.211 146.235" stroke="black" stroke-width="0.5492" stroke-miterlimit="10" stroke-linecap="round" stroke-linejoin="round"/>
<path opacity="0.45" d="M265.211 144.354L263.33 146.235" stroke="black" stroke-width="0.5492" stroke-miterlimit="10" stroke-linecap="round" stroke-linejoin="round"/>
<path opacity="0.45" d="M271.064 144.354L272.945 146.235" stroke="black" stroke-width="0.5492" stroke-miterlimit="10" stroke-linecap="round" stroke-linejoin="round"/>
<path opacity="0.45" d="M272.945 144.354L271.064 146.235" stroke="black" stroke-width="0.5492" stroke-miterlimit="10" stroke-linecap="round" stroke-linejoin="round"/>
<path opacity="0.45" d="M247.417 151.779L249.298 153.66" stroke="black" stroke-width="0.5492" stroke-miterlimit="10" stroke-linecap="round" stroke-linejoin="round"/>
<path opacity="0.45" d="M249.298 151.779L247.417 153.66" stroke="black" stroke-width="0.5492" stroke-miterlimit="10" stroke-linecap="round" stroke-linejoin="round"/>
<path opacity="0.45" d="M255.15 151.779L257.031 153.66" stroke="black" stroke-width="0.5492" stroke-miterlimit="10" stroke-linecap="round" stroke-linejoin="round"/>
<path opacity="0.45" d="M257.031 151.779L255.15 153.66" stroke="black" stroke-width="0.5492" stroke-miterlimit="10" stroke-linecap="round" stroke-linejoin="round"/>
<path opacity="0.45" d="M262.886 151.78L264.768 153.661" stroke="black" stroke-width="0.5492" stroke-miterlimit="10" stroke-linecap="round" stroke-linejoin="round"/>
<path opacity="0.45" d="M264.768 151.78L262.886 153.661" stroke="black" stroke-width="0.5492" stroke-miterlimit="10" stroke-linecap="round" stroke-linejoin="round"/>
<path opacity="0.45" d="M270.622 151.78L272.503 153.661" stroke="black" stroke-width="0.5492" stroke-miterlimit="10" stroke-linecap="round" stroke-linejoin="round"/>
<path opacity="0.45" d="M272.503 151.78L270.622 153.661" stroke="black" stroke-width="0.5492" stroke-miterlimit="10" stroke-linecap="round" stroke-linejoin="round"/>
<path opacity="0.45" d="M246.975 159.21L248.856 161.091" stroke="black" stroke-width="0.5492" stroke-miterlimit="10" stroke-linecap="round" stroke-linejoin="round"/>
<path opacity="0.45" d="M248.856 159.21L246.975 161.091" stroke="black" stroke-width="0.5492" stroke-miterlimit="10" stroke-linecap="round" stroke-linejoin="round"/>
<path opacity="0.45" d="M254.71 159.21L256.591 161.091" stroke="black" stroke-width="0.5492" stroke-miterlimit="10" stroke-linecap="round" stroke-linejoin="round"/>
<path opacity="0.45" d="M256.591 159.21L254.71 161.091" stroke="black" stroke-width="0.5492" stroke-miterlimit="10" stroke-linecap="round" stroke-linejoin="round"/>
<path opacity="0.45" d="M262.446 159.21L264.327 161.091" stroke="black" stroke-width="0.5492" stroke-miterlimit="10" stroke-linecap="round" stroke-linejoin="round"/>
<path opacity="0.45" d="M264.327 159.21L262.446 161.091" stroke="black" stroke-width="0.5492" stroke-miterlimit="10" stroke-linecap="round" stroke-linejoin="round"/>
<path opacity="0.45" d="M270.181 159.21L272.062 161.091" stroke="black" stroke-width="0.5492" stroke-miterlimit="10" stroke-linecap="round" stroke-linejoin="round"/>
<path opacity="0.45" d="M272.062 159.21L270.181 161.091" stroke="black" stroke-width="0.5492" stroke-miterlimit="10" stroke-linecap="round" stroke-linejoin="round"/>
<path opacity="0.45" d="M246.534 166.637L248.415 168.518" stroke="black" stroke-width="0.5492" stroke-miterlimit="10" stroke-linecap="round" stroke-linejoin="round"/>
<path opacity="0.45" d="M248.415 166.637L246.534 168.518" stroke="black" stroke-width="0.5492" stroke-miterlimit="10" stroke-linecap="round" stroke-linejoin="round"/>
<path opacity="0.45" d="M256.149 166.637L254.268 168.518" stroke="black" stroke-width="0.5492" stroke-miterlimit="10" stroke-linecap="round" stroke-linejoin="round"/>
<path opacity="0.45" d="M254.268 166.637L256.149 168.518" stroke="black" stroke-width="0.5492" stroke-miterlimit="10" stroke-linecap="round" stroke-linejoin="round"/>
<path opacity="0.45" d="M262.004 166.637L263.885 168.518" stroke="black" stroke-width="0.5492" stroke-miterlimit="10" stroke-linecap="round" stroke-linejoin="round"/>
<path opacity="0.45" d="M263.885 166.637L262.004 168.518" stroke="black" stroke-width="0.5492" stroke-miterlimit="10" stroke-linecap="round" stroke-linejoin="round"/>
<path opacity="0.45" d="M269.739 166.637L271.62 168.518" stroke="black" stroke-width="0.5492" stroke-miterlimit="10" stroke-linecap="round" stroke-linejoin="round"/>
<path opacity="0.45" d="M271.62 166.637L269.739 168.518" stroke="black" stroke-width="0.5492" stroke-miterlimit="10" stroke-linecap="round" stroke-linejoin="round"/>
<path opacity="0.45" d="M246.092 174.065L247.973 175.947" stroke="black" stroke-width="0.5492" stroke-miterlimit="10" stroke-linecap="round" stroke-linejoin="round"/>
<path opacity="0.45" d="M247.973 174.065L246.092 175.947" stroke="black" stroke-width="0.5492" stroke-miterlimit="10" stroke-linecap="round" stroke-linejoin="round"/>
<path opacity="0.45" d="M253.827 174.065L255.708 175.947" stroke="black" stroke-width="0.5492" stroke-miterlimit="10" stroke-linecap="round" stroke-linejoin="round"/>
<path opacity="0.45" d="M255.708 174.065L253.827 175.947" stroke="black" stroke-width="0.5492" stroke-miterlimit="10" stroke-linecap="round" stroke-linejoin="round"/>
<path opacity="0.45" d="M261.562 174.065L263.444 175.947" stroke="black" stroke-width="0.5492" stroke-miterlimit="10" stroke-linecap="round" stroke-linejoin="round"/>
<path opacity="0.45" d="M263.444 174.065L261.562 175.947" stroke="black" stroke-width="0.5492" stroke-miterlimit="10" stroke-linecap="round" stroke-linejoin="round"/>
<path opacity="0.45" d="M269.296 174.065L271.178 175.947" stroke="black" stroke-width="0.5492" stroke-miterlimit="10" stroke-linecap="round" stroke-linejoin="round"/>
<path opacity="0.45" d="M271.178 174.065L269.296 175.947" stroke="black" stroke-width="0.5492" stroke-miterlimit="10" stroke-linecap="round" stroke-linejoin="round"/>
<path d="M297.385 166.769C295.441 166.407 293.354 166.97 291.517 167.934C289.027 169.237 286.997 171.277 286.381 172.752C286.227 173.122 286.011 173.796 285.75 174.706C283.428 182.787 277.474 209.539 277.474 209.539C277.474 209.539 263.715 209.524 248.295 209.251C228.478 208.896 205.923 208.115 206.321 206.389C206.989 203.495 211.777 176.005 219.923 167.902C220.414 167.415 220.917 166.994 221.429 166.657C229.033 161.66 238.477 162.643 241.315 163.088C241.304 163.957 241.3 164.814 241.3 165.66C231.253 166.737 228.689 178.612 228.057 185.782C227.802 188.645 227.86 190.754 227.874 191.127C227.878 191.166 227.878 191.188 227.878 191.188H261.042C261.042 191.188 261.767 187.806 263.019 183.662C264.586 178.468 266.976 172.081 269.799 169.691C272.342 167.532 275.042 166.147 277.743 165.323C278.002 165.245 278.257 165.173 278.512 165.104C283.483 163.766 288.398 164.243 292.267 165.157C294.315 165.643 296.072 166.245 297.385 166.769Z" fill="#C0BDF0"/>
<path d="M308.032 208.667L277.473 209.54C277.473 209.54 284.843 176.425 286.38 172.75C287.45 170.188 292.807 165.913 297.385 166.77C298.29 166.938 299.165 167.307 299.966 167.932C299.97 167.936 299.972 167.936 299.972 167.936C300.939 168.686 301.804 169.801 302.503 171.377C306.712 180.9 308.032 208.667 308.032 208.667Z" fill="#B1ACE9"/>
<path d="M292.265 165.159C288.397 164.245 283.483 163.767 278.511 165.104C280.815 156.291 286.033 135.391 284.434 132.852C287.438 133.475 295.519 135.646 296.514 141.13C297.243 145.14 294.565 156.548 292.265 165.159Z" fill="#B1ACE9"/>
<path d="M263.017 183.662C261.767 187.804 261.043 191.188 261.043 191.188H227.876C227.876 191.188 227.876 191.168 227.874 191.13C231.816 187.722 241.542 183.663 241.542 183.663H263.017V183.662Z" fill="#8785C9"/>
<path d="M241.541 183.662C241.541 183.662 231.816 187.72 227.873 191.129C227.828 189.82 227.244 167.163 241.298 165.661C241.301 164.814 241.305 163.955 241.314 163.089L241.541 183.662Z" fill="#B1ACE9"/>
<path opacity="0.25" d="M284.071 140.685C282.804 148.274 280.026 159.305 278.51 165.105C278.256 165.173 277.999 165.247 277.741 165.324C275.043 166.151 272.342 167.534 269.796 169.692C266.976 172.083 264.584 178.471 263.018 183.663H243.134L284.071 140.685Z" fill="black"/>
<path d="M46.9131 184.124C46.9131 184.124 48.1802 174.105 53.3623 169.959C58.5444 165.813 58.8906 159.363 58.8906 159.363C58.8906 159.363 65.9159 183.778 56.9324 188.27C47.949 192.762 46.9131 184.124 46.9131 184.124Z" fill="#C0BDF0"/>
<g opacity="0.25">
<path d="M58.8893 159.363C59.178 162.258 59.1492 165.182 58.9259 168.084C58.6894 170.988 58.2061 173.874 57.4432 176.695C56.6411 179.506 55.5007 182.224 54.0155 184.758C52.4949 187.282 50.4898 189.477 48.2233 191.376C48.0718 191.502 47.8458 191.483 47.7178 191.331C47.5911 191.18 47.6107 190.954 47.7622 190.826L47.7661 190.822L47.787 190.806C50.0156 189.011 52.0168 186.917 53.5583 184.473C55.0644 182.018 56.2466 179.364 57.0983 176.595C57.9109 173.815 58.4517 170.955 58.7469 168.067C59.0291 165.18 59.1192 162.263 58.8893 159.363Z" fill="white"/>
</g>
<path d="M44.6073 69.5967C44.6073 69.5967 31.6317 111.876 41.4591 148.346C51.2864 184.815 37.7805 198.222 37.7805 198.222L48.0036 187.963C48.0036 187.963 52.3602 155.675 51.2864 139.266L48.0036 137.598L51.4562 134.668C51.4562 134.668 42.3813 96.9533 44.6073 69.5967Z" fill="#E0DEFA"/>
<g opacity="0.25">
<path d="M44.6072 69.5967C42.6491 79.2777 41.3428 89.0893 40.6452 98.9375C40.3134 103.862 40.1122 108.799 40.2011 113.734C40.2272 118.669 40.5747 123.599 41.1939 128.489C41.8509 133.37 42.8293 138.226 43.5687 143.109C44.3473 147.988 45.0292 152.885 45.5491 157.805C46.6228 167.62 46.7848 177.645 44.9599 187.416C44.926 187.611 44.7404 187.741 44.5445 187.709C44.3499 187.675 44.2192 187.489 44.2532 187.293L44.2545 187.287C46.1225 177.607 46.0259 167.661 45.0135 157.86C44.5249 152.952 43.8731 148.057 43.1246 143.178C42.4139 138.29 41.4682 133.45 40.8372 128.536C40.2455 123.625 39.9267 118.681 39.932 113.738C39.8732 108.795 40.1044 103.853 40.4662 98.9258C41.2239 89.0723 42.5903 79.2659 44.6072 69.5967Z" fill="white"/>
</g>
<path d="M45.2986 187.963C45.2986 187.963 48.0628 162.012 42.8415 151.878H39.4634L41.4594 148.346C41.4594 148.346 30.557 124.477 0 115.144C0 115.144 19.2745 127.889 27.1423 151.553C30.864 150.649 33.5053 150.802 33.5053 150.802L30.7099 154.478C30.7099 154.478 42.0734 172.915 40.5372 190.112C39.0036 207.312 45.2986 187.963 45.2986 187.963Z" fill="#C0BDF0"/>
<g opacity="0.25">
<path d="M0.000244141 115.145C6.84657 118.192 13.1442 122.402 18.8423 127.264C24.5261 132.155 29.5018 137.878 33.5082 144.229C35.5016 147.413 37.1959 150.777 38.6629 154.234C40.1285 157.699 41.201 161.311 42.1141 164.955C43.7627 172.293 44.2878 179.869 43.8149 187.374C43.8019 187.571 43.632 187.721 43.4348 187.71C43.2375 187.697 43.0873 187.527 43.0991 187.329V187.324C43.6268 179.885 43.167 172.37 41.589 165.075C40.7111 161.452 39.6765 157.857 38.2475 154.404C36.8184 150.958 35.1607 147.601 33.2038 144.417C29.2679 138.068 24.3562 132.324 18.7248 127.399C13.0789 122.504 6.82175 118.246 0.000244141 115.145Z" fill="white"/>
</g>
<path d="M63.7259 191.729L63.5652 195.99L62.7645 216.93H36.4294L32.7143 195.99L32.2832 193.568L50.0777 192.528L63.7259 191.729Z" fill="#C0BDF0"/>
<path d="M68.1418 187.459V194.726C68.1418 195.422 67.5788 195.989 66.8825 195.989H28.4027C27.5746 195.989 26.971 195.2 27.1866 194.397L29.1526 187.13C29.3028 186.581 29.8018 186.197 30.3727 186.197H66.8838C67.5788 186.197 68.1418 186.764 68.1418 187.459Z" fill="#E0DEFA"/>
<path d="M111.762 93.145L108.253 97.7014L106.312 96.0594L97.7843 88.8473L97.7007 88.7767V80.4961L97.9685 80.7351L101.665 84.0623L111.762 93.145Z" fill="url(#paint0_linear_42_7460)"/>
<path d="M126.376 99.791C126.376 99.791 126.305 100.269 126.214 101.048C123.758 103.791 120.094 107.633 118.62 107.865C117.967 107.968 116.678 107.135 115.16 105.872C111.318 102.673 106.02 96.7121 105.996 96.2144C105.964 95.5234 109.176 90.9931 109.79 90.7632C110.404 90.5333 117.07 96.4756 117.544 96.925C118.02 97.377 124.607 85.9717 124.607 85.9717C125.493 87.018 126.026 88.5373 126.333 90.1845C127.141 94.5306 126.376 99.791 126.376 99.791Z" fill="#2A246D"/>
<path d="M157.01 116.947C156.957 117.145 155.187 119.345 153.946 120.873C153.268 121.706 152.747 122.336 152.747 122.336C152.747 122.336 152.557 122.058 152.243 121.58C152.101 121.363 151.933 121.104 151.743 120.814C151.685 120.72 151.62 120.623 151.556 120.523C151.51 120.452 151.466 120.38 151.417 120.306C151.227 120.012 151.027 119.692 150.814 119.352C150.665 119.113 150.511 118.865 150.351 118.607C149.996 118.032 149.63 117.42 149.266 116.791C148.882 116.131 148.5 115.453 148.141 114.782C147.22 113.06 146.455 111.389 146.186 110.187C145.446 106.901 146.661 92.1748 146.981 88.4845C147.027 87.9476 147.056 87.6445 147.056 87.6445C147.056 87.6445 147.295 87.8679 147.702 88.5328C147.832 88.7392 147.974 88.9913 148.132 89.2957C148.636 90.2584 149.286 91.7346 150.013 93.9422C150.688 95.984 151.428 98.6527 152.175 102.126C154.37 112.317 156.346 115.632 156.876 116.61C156.974 116.799 157.023 116.899 157.01 116.947Z" fill="#2A246D"/>
<path d="M151.077 127.649C151.031 128.026 150.957 128.382 150.845 128.719C150.805 128.835 150.764 128.951 150.715 129.065C150.56 129.427 150.276 129.74 149.882 130.015C149.378 130.363 148.7 130.644 147.882 130.861C147.294 131.023 146.634 131.149 145.921 131.243C144.972 131.372 143.924 131.442 142.819 131.469C136.883 131.601 129.28 130.335 125.934 128.467C125.449 128.195 125.052 127.912 124.764 127.618C124.124 126.962 123.736 126.155 123.536 125.21C123.343 124.296 123.324 123.258 123.416 122.118C123.598 119.876 124.212 117.236 124.78 114.373C124.977 113.375 125.168 112.351 125.333 111.303C125.6 109.617 125.798 107.878 125.839 106.117C125.885 104.159 126.072 102.247 126.214 101.047C126.221 100.995 126.227 100.944 126.23 100.896C126.314 100.207 126.375 99.7907 126.375 99.7907C126.375 99.7907 127.832 89.7806 124.608 85.9714C127.596 84.6377 129.38 83.7964 130.647 83.2308C132.64 82.3386 133.377 82.123 135.554 81.7285C135.554 81.7285 139.541 82.5881 143.241 84.7108C144.701 85.5481 146.116 86.5788 147.225 87.8316C147.425 88.0615 147.619 88.294 147.797 88.5357C147.797 88.5357 147.797 88.5396 147.801 88.5396C148.044 88.8727 148.215 89.4631 148.321 90.2417C148.534 91.7988 148.512 94.1227 148.385 96.687C148.346 97.5008 148.295 98.3382 148.24 99.1846C147.92 103.941 147.413 108.949 147.49 111.265C147.523 112.276 147.777 113.476 148.139 114.781C148.97 117.796 150.365 121.375 150.905 124.451C151.11 125.607 151.191 126.693 151.077 127.649Z" fill="#2A246D"/>
<path d="M140.709 79.9739C140.771 82.4232 141.394 87.3415 137.258 87.1403C137.17 87.1377 137.084 87.1311 136.999 87.1246C133.002 86.7719 134.543 82.9118 134.149 81.7283C133.952 81.1404 133.445 81.1431 132.827 81.1117C132.174 81.0764 131.402 81.0085 130.75 80.1712C130.026 79.2411 129.623 76.6886 129.41 74.6716C129.342 74.0381 129.296 73.4568 129.261 72.9944C133.756 72.8324 139.561 70.5098 139.561 70.5098C139.561 70.5098 139.486 70.8363 139.409 71.3471C139.326 71.9323 139.241 72.7618 139.274 73.6214C139.331 75.2333 140.078 71.6044 141.348 72.2968C142.615 72.9878 141.173 75.7611 140.311 76.7042C139.737 77.3352 140.179 78.9668 140.709 79.9739Z" fill="url(#paint1_linear_42_7460)"/>
<path d="M144.891 77.2349C143.288 79.3002 141.711 80.7959 141.463 80.8181C141.27 80.8377 140.978 80.485 140.711 79.9743C140.18 78.9658 139.739 77.3342 140.314 76.7046C141.176 75.7614 142.618 72.9895 141.351 72.2971C140.081 71.6061 139.335 75.2337 139.276 73.6217C139.218 72.0097 139.564 70.5101 139.564 70.5101C139.564 70.5101 133.757 72.8327 129.264 72.9947C128.656 73.0169 128.071 72.9973 127.529 72.9307C127.296 71.9392 127.215 71.0379 127.218 70.2462C127.227 68.2593 127.777 66.9766 127.861 66.7924C127.764 66.9282 127.26 67.7394 126.378 70.2436C127.128 63.1804 129.602 61.5293 135.877 60.9545C142.155 57.1545 143.596 65.217 143.596 65.217C143.596 65.217 147.221 63.605 148.434 68.2607C149.117 70.8929 146.981 74.5466 144.891 77.2349Z" fill="#04074A"/>
<path d="M157.834 120.395C157.342 121.226 156.231 122.217 155.213 122.963C154.796 123.27 154.393 123.536 154.057 123.729C153.625 123.981 153.294 124.119 153.171 124.084C152.635 123.929 151.983 123.047 152.018 122.126C152.025 122.003 152.105 121.815 152.244 121.58C152.487 121.166 152.904 120.611 153.384 120.012C154.693 118.387 156.474 116.482 156.474 116.482C156.599 116.44 156.735 116.488 156.875 116.611C157.373 117.031 157.905 118.343 158.087 119.516C158.125 119.768 158.028 120.069 157.834 120.395Z" fill="#2A246D"/>
<path d="M111.596 90.7067C111.596 90.7067 108.198 99.4119 106.932 98.7731C105.665 98.1344 104.34 96.8685 104.859 95.3127C105.378 93.7582 108.372 89.2084 110.099 89.7845C111.827 90.3619 111.96 89.8067 111.596 90.7067Z" fill="#2A246D"/>
<path d="M140.727 83.4551C140.727 83.4551 140.451 86.841 138.035 87.1127C139.621 89.1976 140.513 88.8527 140.973 88.5353C141.434 88.2192 142.006 84.4492 140.727 83.4551Z" fill="#6752FF"/>
<path d="M155.402 207.8C154.022 209.829 147.722 210.075 146.645 208.566C145.569 207.057 144.497 160.013 139.773 143.47C136.891 148.42 138.451 206.728 137.247 208.075C136.716 208.667 127.269 210.728 126.707 207.371C123.916 190.718 124.856 153.738 125.587 135.984C125.716 132.769 125.841 130.184 125.935 128.465C131.021 131.305 145.939 132.752 149.884 130.013C149.961 130.223 150.039 130.44 150.116 130.656C157.86 152.605 156.7 205.895 155.402 207.8Z" fill="#6752FF"/>
<path d="M137.373 216.888H120.73C120.73 216.888 120.905 211.941 123.899 211.708C124.441 211.667 124.907 211.735 125.304 211.88C127.101 212.52 127.524 214.642 127.524 214.642H136.91C136.912 214.642 137.432 215.851 137.373 216.888Z" fill="#2A246D"/>
<path d="M136.566 214.642H127.526C127.526 214.642 127.102 212.519 125.306 211.879C126.217 211.236 127.762 210.077 128.069 209.397C131.213 208.713 135.358 209.048 135.646 209.397C135.933 209.75 136.566 214.642 136.566 214.642Z" fill="url(#paint2_linear_42_7460)"/>
<path d="M126.539 210.96C126.539 210.96 128.453 211.349 129.056 211.268C129.659 211.188 131.847 206.236 131.559 205.66C131.272 205.084 127.932 205.315 127.644 205.66C127.355 206.006 127.22 209.774 126.539 210.96Z" fill="#A2A2F4"/>
<path d="M146.209 216.929L162.852 216.846C162.852 216.846 162.653 211.901 159.656 211.683C159.113 211.643 158.648 211.713 158.252 211.86C156.459 212.508 156.046 214.634 156.046 214.634L146.66 214.679C146.66 214.679 146.145 215.892 146.209 216.929Z" fill="#2A246D"/>
<path d="M147.006 214.679L156.047 214.635C156.047 214.635 156.46 212.509 158.253 211.861C157.339 211.222 155.788 210.07 155.479 209.394C152.332 208.725 148.188 209.08 147.902 209.432C147.615 209.784 147.006 214.679 147.006 214.679Z" fill="url(#paint3_linear_42_7460)"/>
<path d="M157.014 210.946C157.014 210.946 155.102 211.345 154.499 211.268C153.896 211.191 151.684 206.249 151.969 205.671C152.254 205.094 155.595 205.308 155.884 205.652C156.174 205.997 156.328 209.764 157.014 210.946Z" fill="#A2A2F4"/>
<path d="M165.317 137.252C165.301 139.439 163.343 139.614 161.963 138.864C160.784 138.224 159.181 132.926 157.95 130.101C157.74 129.617 157.54 129.207 157.356 128.902C156.538 127.564 155.03 125.225 154.058 123.729C154.393 123.536 154.797 123.271 155.214 122.964C156.231 122.218 157.343 121.225 157.834 120.396C158.745 122.486 160.69 126.842 161.214 127.233C161.905 127.75 165.13 131.32 165.301 132.357C165.476 133.395 164.209 132.645 163.689 132.587C163.17 132.531 165.332 135.064 165.317 137.252Z" fill="url(#paint4_linear_42_7460)"/>
<path opacity="0.25" d="M131.097 131.479C131.097 131.479 132.018 134.949 127.642 137.599" stroke="white" stroke-width="0.5492" stroke-miterlimit="10" stroke-linecap="round" stroke-linejoin="round"/>
<path opacity="0.25" d="M146.358 132.644C146.358 132.644 146.644 136.675 151.482 137.596" stroke="white" stroke-width="0.5492" stroke-miterlimit="10" stroke-linecap="round" stroke-linejoin="round"/>
<path opacity="0.25" d="M129.021 140.992C129.021 140.992 124.91 181.744 129.021 204.507" stroke="white" stroke-width="0.5492" stroke-miterlimit="10" stroke-linecap="round" stroke-linejoin="round"/>
<path opacity="0.25" d="M142.038 143.471C142.038 143.471 149.408 184.648 148.026 207.803" stroke="white" stroke-width="0.5492" stroke-miterlimit="10" stroke-linecap="round" stroke-linejoin="round"/>
<path opacity="0.25" d="M126.376 99.7908C126.376 99.7908 126.306 100.269 126.214 101.047C123.758 103.791 120.094 107.633 118.621 107.865C117.968 107.968 116.678 107.135 115.16 105.872C116.075 105.9 117.261 105.898 118.391 105.795C120.488 105.601 125.722 94.6348 126.333 90.1855C127.142 94.5303 126.376 99.7908 126.376 99.7908Z" fill="black"/>
<path d="M134.205 81.9932C134.205 81.9932 133.862 86.381 137.26 87.1413C137.231 88.7376 134.817 89.8898 134.196 89.17C133.575 88.4502 131.726 83.7123 134.205 81.9932Z" fill="#6752FF"/>
<path d="M128.755 86.312C127.022 86.7196 121.769 87.54 120.926 88.3838C120.838 88.4713 120.658 88.8097 120.4 89.344C118.193 93.9003 110.306 112.731 105.492 112.11C105.404 112.101 105.314 112.084 105.227 112.064C102.529 111.49 99.854 107.508 97.8789 103.751C96.9253 101.935 96.1376 100.171 95.5916 98.8695C98.4602 98.2425 101.97 95.8102 103.197 94.6018C103.304 94.867 103.41 95.1413 103.513 95.4222C104.327 97.5867 105.067 100.056 105.357 101.058C105.441 101.349 105.489 101.516 105.489 101.516C105.489 101.516 105.676 101.319 105.996 100.974C107.777 99.0485 113.706 92.4791 114.549 89.6131C115.547 86.2363 117.007 81.1704 117.928 81.7844C118.849 82.3984 118.005 85.4682 119.386 85.2383C126.529 83.6237 130.06 86.005 128.755 86.312Z" fill="url(#paint5_linear_42_7460)"/>
<path d="M94.096 80.0142C94.096 80.2468 94.0895 80.4401 94.0869 80.589C94.0843 80.7758 93.8191 80.9352 93.3475 81.0606C89.7996 82.0338 74.5681 81.2931 72.1136 78.0522C71.8589 77.7164 71.7413 77.3507 71.7909 76.9601C71.7909 76.9601 75.0162 69.3026 84.8056 70.3398C92.7571 71.1836 93.9367 76.2717 94.0817 79.0828C94.096 79.4355 94.0987 79.7491 94.096 80.0142Z" fill="#6752FF"/>
<path d="M103.65 93.9895C103.65 94.0992 103.488 94.3161 103.198 94.5995C102.316 95.4682 100.257 96.9653 98.1056 97.9724C97.5687 98.2245 97.0266 98.4479 96.4936 98.619C96.2415 98.7026 95.9868 98.7745 95.7412 98.8319C95.6889 98.845 95.6406 98.8581 95.5923 98.8672C95.3924 98.9129 95.1912 98.9482 95.0005 98.9743C94.9914 98.9743 94.9849 98.9782 94.9744 98.9782C94.832 98.9978 94.7001 99.0527 94.5773 99.1468C94.3931 99.2852 94.2285 99.5021 94.0835 99.7934C93.625 100.705 93.3507 102.317 93.2083 104.3C93.1926 104.51 93.1756 104.726 93.1626 104.947C93.156 105.122 93.1469 105.296 93.1403 105.473C93.1273 105.686 93.1207 105.899 93.1142 106.12C93.0659 107.532 93.0659 109.063 93.0985 110.624C93.1051 110.837 93.1077 111.054 93.1142 111.271C93.1207 111.448 93.1234 111.623 93.1299 111.797C93.1364 112.014 93.143 112.227 93.1521 112.444C93.207 113.979 93.288 115.507 93.3781 116.95C93.3912 117.167 93.4068 117.383 93.4238 117.597C93.433 117.775 93.4434 117.95 93.4591 118.121C93.4722 118.34 93.4878 118.557 93.5048 118.767C93.6341 120.548 93.77 122.112 93.8862 123.274C93.8954 123.368 93.9058 123.461 93.9124 123.548C93.9281 123.68 93.9385 123.803 93.9516 123.919C93.9712 124.113 93.9908 124.288 94.009 124.446C94.0378 124.718 94.0639 124.934 94.0835 125.093C94.1057 125.264 94.1227 125.367 94.1318 125.393C94.1932 125.581 91.7727 126.182 88.4455 126.575C85.5925 126.915 82.0733 127.102 78.8716 126.746C77.6763 126.614 76.5255 126.404 75.47 126.097C74.5687 125.838 73.7378 125.505 73.0115 125.093C72.9593 125.066 72.911 125.038 72.8626 125.009C72.5948 124.847 72.3453 124.66 72.1167 124.447C71.9417 124.289 71.7771 124.112 71.6229 123.921C71.461 123.721 71.3094 123.504 71.171 123.274C71.1448 123.232 71.1226 123.191 71.0965 123.149C70.4146 121.973 70.0149 120.451 69.8111 118.767C69.7824 118.554 69.7588 118.342 69.7432 118.121C69.7275 117.946 69.7105 117.772 69.6974 117.597C69.6844 117.384 69.6752 117.167 69.6648 116.95C69.6034 115.487 69.6583 113.952 69.781 112.444C69.7967 112.227 69.8163 112.011 69.8359 111.797C69.8516 111.622 69.8686 111.444 69.8882 111.271C69.9104 111.054 69.9365 110.838 69.9626 110.624C70.1468 109.002 70.395 107.457 70.6445 106.12C70.6863 105.896 70.7281 105.683 70.7673 105.473C70.8026 105.292 70.8379 105.118 70.8744 104.947C70.9201 104.721 70.9619 104.508 71.0038 104.3C71.3565 102.64 71.6373 101.59 71.6373 101.59L71.4949 99.7934L71.4466 99.1468L71.4048 98.6203L71.3538 97.9737L71.3316 97.7059L71.1801 95.7543C71.1801 95.7543 70.7987 96.7275 70.2814 97.9737C70.2748 97.9933 70.2657 98.0129 70.2552 98.0325C70.1782 98.2193 70.0933 98.4166 70.0123 98.6203C69.9378 98.7915 69.8634 98.9691 69.7889 99.1468C69.7144 99.3114 69.6439 99.4825 69.5694 99.651C69.5498 99.6993 69.5276 99.7451 69.508 99.7934C68.7843 101.438 68.028 103.008 67.6792 103.219C67.6048 103.264 67.4754 103.271 67.3043 103.247C66.1966 103.085 63.2848 101.55 61.473 99.7934C61.2535 99.5805 61.0497 99.3636 60.8695 99.1468C60.7728 99.0331 60.6853 98.9234 60.6043 98.8111C60.5586 98.747 60.5141 98.6857 60.475 98.6203C60.33 98.4035 60.2137 98.1879 60.1223 97.9737C60.0517 97.796 59.9968 97.6184 59.9668 97.4434C59.9668 97.4434 60.6226 95.77 61.6088 93.4696C61.699 93.2593 61.793 93.0437 61.8871 92.823C61.9615 92.6518 62.0386 92.4742 62.1196 92.2965C62.2097 92.0836 62.3064 91.8667 62.4044 91.6499C62.7048 90.9719 63.0249 90.2639 63.358 89.5533C63.7329 88.7486 64.1208 87.9348 64.514 87.1432C64.6212 86.9263 64.7309 86.7108 64.8406 86.4965C64.9281 86.3189 65.0183 86.1438 65.1084 85.9727C65.2221 85.7533 65.3383 85.5364 65.4507 85.3261C65.6244 84.9995 65.8034 84.6795 65.9745 84.3725C66.7269 83.0505 67.4571 81.9323 68.1064 81.2086C68.1678 81.1407 68.2292 81.0728 68.2945 81.0048C68.3559 80.9435 68.4173 80.8794 68.4813 80.818C68.7047 80.6012 68.9463 80.3857 69.2089 80.1714C69.4284 79.9938 69.6609 79.8161 69.9039 79.645C70.2134 79.4216 70.54 79.2087 70.8823 78.9984C72.1076 78.2485 73.5158 77.5732 74.9762 77.0076C75.4648 76.8195 75.9586 76.6457 76.4523 76.4811C79.1081 75.602 81.7808 75.1082 83.6932 75.1761C85.4279 75.2401 88.1294 76.1519 90.7916 77.2923C91.5832 77.632 92.3722 77.9938 93.1312 78.3583C93.5766 78.5712 94.0103 78.7841 94.4297 78.9984C94.8594 79.2152 95.2735 79.4308 95.6641 79.645C95.9999 79.8253 96.3199 80.0042 96.6203 80.1714C96.7497 80.2459 96.8751 80.3203 96.9979 80.3883C97.2526 80.5398 97.489 80.6822 97.7059 80.818C98.4322 81.2739 98.9299 81.6384 99.0958 81.8553C99.118 81.884 99.1441 81.9192 99.1702 81.9624C99.4811 82.4496 100.034 83.752 100.646 85.3261C100.727 85.5364 100.811 85.7519 100.896 85.9727C100.947 86.0981 100.996 86.2274 101.045 86.3568C101.064 86.4025 101.084 86.4508 101.1 86.4952C101.177 86.7081 101.258 86.925 101.339 87.1419C101.93 88.7225 102.514 90.3671 102.948 91.6486C103.025 91.8746 103.1 92.0914 103.165 92.2952C103.229 92.482 103.284 92.6597 103.336 92.8216C103.417 93.0698 103.481 93.2906 103.536 93.4683C103.606 93.74 103.65 93.9215 103.65 93.9895Z" fill="#FFC200"/>
<path d="M67.2994 103.246C66.867 104.215 66.091 105.95 65.2054 107.866C63.3674 111.86 61.0696 116.638 60.4883 116.897C59.4864 117.346 45.1405 116.247 43.2921 116.686C41.4437 117.123 36.7593 123.284 34.4615 123.026C32.1611 122.767 34.3035 117.113 37.7861 114.774C35.9442 114.752 35.4138 114.131 35.3498 113.21C35.8932 112.603 38.7292 113.068 40.8846 112.609C43.04 112.153 55.1978 109.847 56.5067 109.711L59.7542 101.058L60.5967 98.8096C62.1525 100.943 65.9878 103.055 67.2994 103.246Z" fill="url(#paint6_linear_42_7460)"/>
<path d="M100.098 205.425C99.523 205.888 98.8502 206.195 98.1043 206.237C96.0913 206.357 94.0208 206.292 92.4885 205.493C92.017 205.254 91.6002 204.945 91.2475 204.55C91.0764 204.36 90.84 203.419 90.5565 201.901C89.535 196.492 87.8903 183.746 86.4051 171.503C84.699 157.436 83.1994 144.027 83.1027 143.171L83.0988 143.129C83.0988 143.129 75.3028 179.983 71.0469 202.394C70.9084 203.13 70.7726 203.851 70.6393 204.552C70.2514 205.216 69.7118 205.721 69.0848 206.086C67.0104 207.301 63.9602 206.997 62.1902 205.964C61.5344 205.58 61.0524 205.095 60.8629 204.552C60.7885 204.345 60.7754 203.602 60.8107 202.418C61.102 192.25 64.9856 149.443 66.6042 131.946C66.7374 130.521 66.8537 129.262 66.9503 128.205C69.6282 131.077 74.0906 130.292 75.0115 128.964C75.15 128.764 75.3054 127.736 75.4674 126.098C79.0989 127.151 84.6337 126.56 88.5396 126.098C88.5526 126.266 88.5683 126.427 88.5814 126.576C88.5853 126.595 88.5853 126.611 88.5879 126.631C88.6558 127.319 88.746 127.8 88.8531 128.039C89.9974 130.611 93.2566 130.504 96.107 129.092C97.4603 144.786 101.471 191.308 102.166 199.509C102.22 200.175 102.256 200.586 102.266 200.711C102.376 202.136 101.545 204.272 100.098 205.425Z" fill="#2A246D"/>
<path d="M70.8666 216.889H60.4436C60.4436 216.889 60.5181 216.124 60.6631 215.15C60.8538 213.855 61.1673 212.188 61.5905 211.493C61.6807 211.341 61.7773 211.234 61.8818 211.19C62.5115 210.915 62.5507 209.616 63.2652 208.789C63.5944 208.405 64.0725 208.117 64.8197 208.081C65.337 208.055 65.7368 208.175 66.0503 208.379C67.1815 209.105 67.2364 210.931 67.6426 211.247C67.7942 211.363 68.0502 211.425 68.3637 211.593C68.9424 211.896 69.7105 212.567 70.3506 214.666C70.5374 215.276 70.7111 216.01 70.8666 216.889Z" fill="url(#paint7_linear_42_7460)"/>
<path d="M113.478 216.888H92.3435C92.3435 216.888 92.431 215.011 92.6413 213.253C92.7772 212.138 92.964 211.069 93.2096 210.555C93.2318 210.507 93.2579 210.465 93.2906 210.426C94.0822 209.415 97.2134 211.818 98.1017 211.705C99.0252 211.591 99.1964 209.229 100.117 208.713C100.143 208.7 100.172 208.687 100.198 208.681C100.437 208.619 100.773 208.803 101.19 209.12C102.512 210.128 104.631 212.499 106.97 212.799C107.591 212.88 108.214 212.942 108.812 213.016C110.841 213.271 112.612 213.694 113.242 215.54C113.375 215.922 113.455 216.367 113.478 216.888Z" fill="url(#paint8_linear_42_7460)"/>
<path d="M100.199 208.682C100.173 208.689 100.144 208.702 100.118 208.715C99.1968 209.232 99.0257 211.594 98.1021 211.707C97.2138 211.82 94.0826 209.415 93.291 210.428C93.1421 209.461 92.9553 208.321 92.7907 207.307C92.677 206.609 92.5673 205.972 92.4902 205.494C94.0212 206.292 96.093 206.356 98.106 206.237C98.8519 206.195 99.5247 205.888 100.099 205.426L100.163 207.526L100.199 208.682Z" fill="url(#paint9_linear_42_7460)"/>
<path d="M69.086 206.086L69.0115 206.645L68.3623 211.594C68.0488 211.426 67.794 211.364 67.6412 211.248C67.2336 210.932 67.1788 209.106 66.0488 208.38C65.7353 208.176 65.3343 208.057 64.8183 208.082C64.0724 208.117 63.5943 208.404 63.2638 208.79C62.5492 209.617 62.5114 210.916 61.8804 211.191C61.7772 211.236 61.6806 211.342 61.5891 211.494L61.8935 208.696L62.19 205.963C63.9614 206.996 67.0116 207.301 69.086 206.086Z" fill="url(#paint10_linear_42_7460)"/>
<path opacity="0.25" d="M75.7797 130.157C75.7797 130.157 73.2467 135.295 68.6394 134.604" stroke="white" stroke-width="0.5492" stroke-miterlimit="10" stroke-linecap="round" stroke-linejoin="round"/>
<g opacity="0.25">
<path d="M71.7775 135.985L71.626 137.412" stroke="white" stroke-width="0.5492" stroke-linecap="round" stroke-linejoin="round"/>
<path d="M71.3228 140.243L64.8135 201.092" stroke="white" stroke-width="0.5492" stroke-linecap="round" stroke-linejoin="round" stroke-dasharray="2.18 2.18"/>
<path d="M64.6614 202.508L64.5085 203.934" stroke="white" stroke-width="0.5492" stroke-linecap="round" stroke-linejoin="round"/>
</g>
<path opacity="0.25" d="M84.2251 143.472L94.5906 204.509" stroke="white" stroke-width="0.5492" stroke-miterlimit="10" stroke-linecap="round" stroke-linejoin="round" stroke-dasharray="2.2 2.2"/>
<path opacity="0.25" d="M86.4046 171.502C84.6986 157.434 83.199 144.025 83.1023 143.169L83.0984 143.127C83.0984 143.127 85.3178 143.241 89.4052 140.994" fill="black"/>
<path opacity="0.25" d="M71.0483 202.39C70.9099 203.126 70.774 203.847 70.6408 204.548C70.2528 205.213 69.7133 205.717 69.0863 206.083C67.0119 207.297 63.9617 206.993 62.1916 205.96C61.5359 205.576 61.0538 205.091 60.8644 204.548C60.79 204.341 60.7769 203.598 60.8122 202.414C63.2837 203.321 67.119 204.113 71.0483 202.39Z" fill="black"/>
<path opacity="0.25" d="M100.098 205.425C99.5233 205.887 98.8506 206.194 98.1047 206.236C96.0917 206.356 94.0212 206.291 92.4889 205.493C92.0173 205.254 91.6006 204.944 91.2479 204.549C91.0768 204.359 90.8404 203.418 90.5569 201.9C93.1355 203.089 98.4927 204.659 102.166 199.51C102.221 200.176 102.256 200.586 102.267 200.712C102.376 202.135 101.545 204.271 100.098 205.425Z" fill="black"/>
<path opacity="0.25" d="M100.163 207.526C97.4046 208.092 94.5346 207.684 92.7907 207.307C92.677 206.609 92.5673 205.972 92.4902 205.494C94.0212 206.292 96.093 206.356 98.106 206.237C98.8519 206.195 99.5247 205.888 100.099 205.426L100.163 207.526Z" fill="black"/>
<path opacity="0.25" d="M108.812 213.018C107.5 214.284 101.581 212.194 100.999 211.593C100.523 211.105 100.905 209.902 101.189 209.121C102.511 210.13 104.63 212.5 106.97 212.801C107.59 212.882 108.215 212.943 108.812 213.018Z" fill="white"/>
<path opacity="0.25" d="M113.478 216.889H92.3435C92.3435 216.889 92.431 215.012 92.6413 213.254C93.2971 214.052 94.3539 215.122 95.5492 215.49C97.1807 215.991 108.971 215.674 113.242 215.543C113.375 215.923 113.455 216.368 113.478 216.889Z" fill="black"/>
<path opacity="0.25" d="M63.9574 209.122C63.9574 209.122 62.7673 210.692 62.7673 211.593C62.7673 212.495 63.6504 213.724 64.6863 213.954C65.7222 214.184 66.5295 212.879 66.6053 211.996C66.6823 211.112 66.6444 208.781 63.9574 209.122Z" fill="white"/>
<path opacity="0.25" d="M70.8666 216.889H60.4436C60.4436 216.889 60.5181 216.124 60.6631 215.151C62.8185 215.322 68.301 215.644 70.3493 214.666C70.5374 215.276 70.7111 216.01 70.8666 216.889Z" fill="black"/>
<path opacity="0.25" d="M69.0868 206.086L69.0123 206.645C68.0849 207.53 67.0516 208.066 66.0496 208.38C65.7361 208.176 65.3351 208.057 64.8191 208.082C64.0732 208.117 63.5951 208.404 63.2646 208.79C62.7186 208.79 62.247 208.744 61.8943 208.696L62.1908 205.963C63.9622 206.996 67.0124 207.301 69.0868 206.086Z" fill="black"/>
<path d="M76.4798 108.851C76.293 113.592 76.0657 118.028 75.8306 121.524C75.7104 123.326 75.5876 124.881 75.4687 126.096C75.3068 127.734 75.1526 128.762 75.0128 128.962C74.0919 130.29 69.6296 131.075 66.9516 128.203C66.612 127.841 66.3024 127.42 66.0307 126.936C63.665 122.706 70.9124 104.051 70.2501 98.0312C70.237 97.8928 70.2174 97.7635 70.1952 97.6407C69.414 93.4984 67.1006 87.2751 65.9693 84.3739C65.5853 83.385 65.3397 82.7815 65.3397 82.7815C64.8772 79.0951 73.6308 73.7954 76.1637 75.1723C76.2708 75.4727 76.3636 75.9155 76.4485 76.4838C76.5229 76.9841 76.5843 77.585 76.6392 78.2708C77.1317 84.4287 76.9253 97.5113 76.4798 108.851Z" fill="#6752FF"/>
<path d="M99.7973 80.3608C99.7973 80.3608 99.604 80.9591 99.3036 81.9637C98.286 85.36 96.0365 93.4082 95.8784 98.8006V98.8332C95.8719 99.0723 95.868 99.3048 95.8745 99.5308C95.8745 99.6693 95.8784 99.8051 95.8811 99.9384C96.111 106.734 100.938 125.738 97.8327 128.04C97.3323 128.411 96.7955 128.744 96.2403 129.028C96.1946 129.051 96.1528 129.074 96.1083 129.092C93.258 130.505 89.9988 130.61 88.8544 128.04C88.7447 127.794 88.6546 127.294 88.5827 126.576V126.561C88.5697 126.418 88.554 126.26 88.5409 126.098C88.4665 125.129 88.4181 123.853 88.392 122.347C88.3306 118.841 88.3959 114.084 88.5501 108.964C88.5893 107.71 88.6311 106.431 88.6794 105.144C88.7761 102.539 88.8923 99.9031 89.0256 97.3375C89.4227 89.5219 89.9622 82.3973 90.5122 79.0597C90.5448 78.8429 90.5801 78.6456 90.6153 78.4654C90.6153 78.4523 90.618 78.4432 90.6219 78.4327C90.699 78.0186 90.7799 77.6934 90.8635 77.4608C90.8766 77.419 90.8897 77.3798 90.9053 77.3472C90.9119 77.3276 90.9184 77.3119 90.9249 77.2962C90.9798 77.1734 91.0412 77.0637 91.1091 76.9631C93.0385 74.0697 100.049 79.5496 99.7973 80.3608Z" fill="#6752FF"/>
<path opacity="0.25" d="M76.4803 108.852L76.1641 109.727C76.1641 109.727 73.4013 81.2808 72.7103 79.209C72.0192 77.1346 76.1641 75.1699 76.1641 75.1699C77.2196 78.1352 77.0289 94.8258 76.4803 108.852Z" fill="black"/>
<path opacity="0.25" d="M88.5457 108.961C88.5848 107.707 88.6266 106.429 88.675 105.142C89.0852 94.0944 89.8441 82.4213 90.6109 78.4632C90.6109 78.4501 90.6148 78.441 90.6174 78.4305C90.705 78.0047 90.786 77.6781 90.8604 77.4586C90.88 77.3946 90.9022 77.3398 90.9218 77.2941C90.9767 77.1713 91.0381 77.0615 91.106 76.9609C92.0844 77.2222 93.3842 77.9655 94.0818 80.0138C94.8943 82.3978 92.0322 98.8376 88.5457 108.961Z" fill="black"/>
<path opacity="0.25" d="M73.1709 112.896C73.1709 112.896 72.826 115.533 69.1396 116.949" stroke="white" stroke-width="0.5492" stroke-miterlimit="10" stroke-linecap="round" stroke-linejoin="round"/>
<path opacity="0.25" d="M90.7 112.896C90.7 112.896 91.0448 115.533 94.7312 116.949" stroke="white" stroke-width="0.5492" stroke-miterlimit="10" stroke-linecap="round" stroke-linejoin="round"/>
<path opacity="0.25" d="M105.999 100.972C105.844 102.526 105.56 105.024 105.359 104.623C105.072 104.048 105.359 101.055 105.359 101.055C105.443 101.347 105.491 101.514 105.491 101.514C105.491 101.514 105.679 101.318 105.999 100.972Z" fill="black"/>
<path d="M98.1975 58.5548C97.4477 59.9538 96.4693 61.5044 95.0284 62.522C94.4955 62.9034 93.9011 63.2065 93.2284 63.4037C92.1885 63.7133 90.9671 63.7656 89.5224 63.4299C88.446 63.1817 87.9875 62.7415 87.9875 62.7415C87.9875 62.7415 88.156 64.0112 90.8666 65.0066C89.1383 64.697 87.1802 64.9295 86.3755 62.7023C86.3755 62.7023 86.0881 63.0288 85.7393 63.6297C85.2612 64.4501 84.6669 65.7747 84.531 67.4624C82.3821 64.1209 82.3429 63.1621 80.6539 63.6245C78.9675 64.083 79.9276 66.6551 81.0001 67.2338C81.8178 67.6701 81.0392 69.7315 80.4932 70.7269C80.3182 71.0404 80.2672 71.3016 80.2672 71.3016C80.2672 71.3016 80.0021 67.58 77.0485 65.9288C76.2595 65.486 75.5462 64.778 74.978 63.9158C73.4209 61.5501 72.9585 58.0348 75.0133 55.754C77.8153 52.6463 80.7323 54.449 80.7323 54.449C80.7323 54.449 80.4645 48.039 85.3396 46.2363C82.9804 48.7013 82.6734 51.1663 82.6551 51.3675C82.6969 51.1376 83.4624 47.4055 88.3715 46.8503C93.4413 46.2755 93.5184 51.5321 93.5184 51.5321C93.5184 51.5321 93.632 49.958 96.549 50.2271C97.7664 50.3368 98.5097 51.3322 98.8559 52.6542C99.3379 54.4922 99.0466 56.9676 98.1975 58.5548Z" fill="#04074A"/>
<path d="M93.2283 63.4049C93.2257 64.1064 93.1891 65.1175 93.0598 66.2487C92.711 69.3316 91.6581 73.3211 88.6013 74.4105C87.9325 74.6496 87.4152 74.3269 87.005 74.1101C87.005 74.1101 86.9985 74.1062 86.9894 74.1009C86.7464 73.9755 86.54 73.8906 86.3623 73.9912C86.0815 74.1466 86.3845 75.1577 86.5426 76.3242C86.6589 77.1838 86.6981 78.1309 86.3623 78.8676C85.5668 80.5932 84.7634 81.2843 82.5728 81.2072C80.3847 81.1327 79.196 79.2138 79.8491 76.9487C80.1718 75.8239 80.2985 74.2642 80.305 72.8456C80.3076 72.0892 80.2789 71.376 80.2279 70.7868C80.774 69.7914 81.8177 67.6726 81 67.2363C79.9275 66.6576 78.9674 64.0855 80.6538 63.627C81.3932 63.4232 81.8177 63.4951 82.2371 63.9183C82.7805 64.4617 83.3226 65.5851 84.5309 67.4662C84.6668 65.7798 85.2611 64.4552 85.7392 63.6335C85.9143 63.3331 86.0723 63.1006 86.1886 62.9451C86.2147 62.9098 86.2409 62.8746 86.2631 62.8484C86.3336 62.7544 86.3767 62.7061 86.3767 62.7061C87.1814 64.932 89.1395 64.6995 90.8678 65.0104C88.1572 64.015 87.9887 62.7452 87.9887 62.7452C87.9887 62.7452 88.4472 63.1842 89.5236 63.4337C90.9657 63.7668 92.1872 63.7158 93.2283 63.4049Z" fill="url(#paint11_linear_42_7460)"/>
<path d="M183.527 67.5263C183.527 67.5263 175.514 55.4469 185.648 50.2256C195.782 45.0044 202.857 53.8911 201.061 61.2822C200.39 64.0463 205.1 63.5591 204.895 68.1795C204.689 72.7998 204.478 75.3432 209.804 78.8323C215.13 82.3202 217.741 88.6139 216.359 96.0625C214.977 103.511 225.418 110.421 222.656 119.635C219.891 128.848 203.294 132.056 197.158 124.771C191.023 117.486 186.352 90.1893 186.352 90.1893L192.296 78.0146L189.794 68.6746L183.527 67.5263Z" fill="#04074A"/>
<path d="M212.982 201.017C212.982 201.017 212.908 201.092 212.772 201.211C211.993 201.899 209.169 204.096 206.669 202.39C206.565 202.32 206.449 202.18 206.32 201.976C206.32 201.974 206.32 201.974 206.32 201.974C205.741 201.053 204.95 198.739 204.026 195.521C199.428 179.478 191.651 140.993 191.651 140.993L189.035 169.691L186.434 198.221L185.804 205.128C185.804 205.128 180.89 206.233 177.445 203.933C177.377 202.863 177.332 201.561 177.3 200.063C176.886 179.684 179.682 122.918 179.711 122.339C180.334 123.925 181.691 125.347 184.228 126.216C184.228 126.216 184.228 126.216 184.232 126.22C184.328 126.249 184.425 126.281 184.526 126.314C185.392 126.588 186.39 126.799 187.534 126.934C194.788 127.79 200.891 126.195 203.311 123.593C203.434 123.461 203.551 123.332 203.66 123.209C204.701 125.632 205.605 129.403 206.167 133.761C206.709 137.949 206.936 142.679 206.671 147.27C206.158 156.083 210.603 185.79 212.322 196.835C212.726 199.451 212.982 201.017 212.982 201.017Z" fill="#2A246D"/>
<path d="M207.107 80.3894C206.87 80.8218 206.651 81.2842 206.447 81.7728C206.364 81.97 206.283 82.1738 206.202 82.3802C205.798 83.4435 205.465 84.597 205.191 85.7883C205.042 86.4245 204.912 87.0711 204.796 87.7203C204.745 87.9986 204.699 88.2794 204.654 88.5577C204.36 90.38 204.176 92.18 204.062 93.7698C204.042 94.0376 204.027 94.3028 204.01 94.5588C203.845 97.2733 203.88 99.1884 203.88 99.1884C203.88 99.1884 203.858 99.3072 203.822 99.5241C203.786 99.7239 203.741 100.009 203.686 100.361C203.511 101.515 203.252 103.418 203.094 105.574C203.074 105.828 203.055 106.091 203.042 106.355C202.941 107.942 202.91 109.628 203.002 111.23C203.018 111.475 203.035 111.718 203.055 111.957C203.145 113.014 203.296 114.023 203.533 114.924C203.662 115.422 203.785 115.878 203.901 116.301C203.965 116.527 204.024 116.74 204.081 116.948C204.722 119.239 205.066 120.36 204.796 121.368C204.702 121.723 204.535 122.063 204.272 122.438C204.104 122.677 203.897 122.933 203.652 123.214C203.542 123.337 203.426 123.466 203.303 123.598C200.882 126.199 194.779 127.795 187.525 126.939C186.381 126.804 185.383 126.593 184.517 126.319C181.791 125.463 180.349 123.992 179.703 122.345V122.341C179.642 122.183 179.587 122.021 179.541 121.861C179.473 121.644 179.421 121.424 179.383 121.201C179.234 120.394 179.241 119.565 179.348 118.767C179.438 118.096 179.648 117.155 179.92 116.027C179.988 115.748 180.056 115.458 180.13 115.161C180.447 113.858 180.812 112.369 181.145 110.805C181.194 110.586 181.239 110.362 181.284 110.136C181.582 108.685 181.839 107.183 182.001 105.713C182.027 105.474 182.049 105.238 182.072 105.003C182.137 104.282 182.175 103.568 182.179 102.88C182.185 102.369 182.17 101.869 182.133 101.384C182.098 100.939 182.045 100.505 181.975 100.092C181.923 99.7919 181.859 99.5006 181.784 99.2197C181.778 99.1975 181.771 99.1714 181.765 99.1492C180.737 98.1956 178.879 97.4431 178.333 94.551C178.298 94.3733 178.269 94.1891 178.245 93.9958C178.239 93.9501 178.236 93.9018 178.23 93.8573C178.136 92.9978 178.153 91.9671 178.311 90.7301C178.398 90.0547 178.473 89.4211 178.537 88.8202C178.565 88.5459 178.592 88.2781 178.618 88.0195C178.824 85.9033 178.916 84.2456 179.067 82.8922C179.1 82.6049 179.135 82.3331 179.177 82.0719C179.345 80.9824 179.591 80.1046 180.039 79.3287C180.113 79.1993 180.204 79.07 180.304 78.9407C180.313 78.9276 180.324 78.9185 180.33 78.908C180.343 78.8924 180.359 78.8754 180.372 78.8597C180.388 78.844 180.394 78.8336 180.394 78.8336C181.629 77.3823 184.475 76.0995 187.712 75.1211C188.885 74.7684 190.109 74.4562 191.324 74.191C193.763 73.658 195.951 73.7651 197.874 74.2367C202.78 75.4333 205.947 79.0034 207.107 80.3894Z" fill="#6752FF"/>
<path d="M210.985 96.9246C209.981 99.5477 205.786 99.7867 203.834 99.4641C203.398 99.3936 203.075 99.293 202.923 99.1859C202.716 99.0409 202.526 97.9971 202.422 96.4491C202.212 93.2631 202.381 87.9517 203.576 83.9831C203.686 83.6082 203.808 83.2463 203.942 82.9015C203.97 82.827 203.983 82.7878 203.983 82.7878C204.555 81.3183 205.301 80.1256 206.271 79.4346C206.271 79.4346 210.736 82.1164 210.979 95.1442C210.989 95.7163 210.992 96.3107 210.985 96.9246Z" fill="#F4A531"/>
<path d="M182.138 101.381C181.96 101.497 181.598 101.569 181.114 101.585C180.519 101.604 179.737 101.543 178.884 101.385C177.061 101.049 174.91 100.27 173.54 98.9092C173.233 98.6062 172.965 98.2691 172.748 97.9047C172.923 97.245 173.101 96.6062 173.274 95.9883C174.487 91.6841 175.64 88.3883 176.654 85.8945C178.544 81.2389 179.946 79.3748 180.309 78.9346C180.208 79.0639 180.118 79.1932 180.044 79.3225C178.777 81.5106 179.123 84.5046 178.316 90.7252C177.521 96.8609 180.313 97.8407 181.712 99.0908C181.732 99.1104 181.751 99.13 181.771 99.1457C181.96 99.8367 182.076 100.587 182.138 101.381Z" fill="#F4A531"/>
<path opacity="0.25" d="M197.88 74.2321C196.759 76.9466 194.374 82.2384 192.643 82.6655C190.307 83.2403 187.108 81.7446 186.762 80.0542C186.503 78.7845 187.301 76.2843 187.718 75.1177C188.891 74.765 190.115 74.4528 191.33 74.1876C193.77 73.6534 195.957 73.7592 197.88 74.2321Z" fill="black"/>
<path d="M195.36 74.7442C195.305 75.349 195.13 76.4437 193.634 78.829C192.135 81.2169 187.703 81.1686 188.219 78.829C188.448 77.8049 188.642 76.4738 188.784 75.3072C188.975 73.8141 189.085 72.5862 189.085 72.5862C189.085 72.5862 188.232 73.1545 187.298 73.0291C187.269 73.0264 187.252 73.0225 187.252 73.0225C186.938 72.9742 186.618 72.8409 186.318 72.5862C183.781 70.4112 183.064 66.3473 182.932 63.1547C182.825 60.593 183.094 58.5918 183.094 58.5918C186.951 62.337 191.734 60.6662 192.48 60.8373C192.657 60.8791 192.861 60.9693 193.061 61.109C193.704 61.561 194.315 62.5408 193.921 64.1201C193.401 66.1945 192.825 66.5406 195.359 68.6699C195.014 70.6281 195.418 74.1394 195.36 74.7442Z" fill="url(#paint12_linear_42_7460)"/>
<path d="M231.793 87.1494C231.199 88.9129 227.877 88.8463 224.574 91.8312C221.272 94.8161 217.588 114.642 212.29 114.642C206.525 114.642 204.194 108.555 203.253 103.798C203.218 103.623 203.185 103.449 203.152 103.278C202.659 100.532 202.619 98.351 202.615 98.2543C202.629 98.3222 202.642 98.3836 202.651 98.4424C202.66 98.4999 202.673 98.5561 202.686 98.6109C202.693 98.6331 202.695 98.6527 202.702 98.6749C202.711 98.7207 202.721 98.7625 202.734 98.8003C202.77 98.9192 202.805 99.0172 202.841 99.0851C202.851 99.1008 202.861 99.1204 202.874 99.1335C202.887 99.1557 202.907 99.1752 202.922 99.1883C203.074 99.2954 203.398 99.3947 203.834 99.4665C205.683 99.7735 209.538 99.5763 210.797 97.3281C210.826 97.2733 210.854 97.2184 210.884 97.1596C210.946 98.688 211.04 101.383 210.988 103.24C211.336 101.706 219.314 91.0148 219.66 89.7477C220.006 88.4805 218.252 85.0528 220.006 85.1978C221.765 85.3428 222.193 88.3055 223.002 88.3055C223.806 88.3055 225.938 87.1847 227.521 86.9548C229.105 86.7236 232.1 86.2363 231.793 87.1494Z" fill="url(#paint13_linear_42_7460)"/>
<path d="M181.113 101.586C180.793 103.043 179.914 106.533 178.302 109.214C178.3 109.218 178.3 109.218 178.3 109.221C177.124 111.179 175.559 112.703 173.537 112.703C168.758 112.703 164.962 102.277 161.559 90.1868C160.351 85.889 153.614 80.1609 153.556 78.9369C153.497 77.7116 160.182 80.6913 162.48 81.9936C163.864 82.7826 163.288 79.2373 164.38 78.6495C165.474 78.0578 165.071 85.5193 165.82 87.8354C166.566 90.1515 172.305 100.113 172.748 101.38C172.855 100.96 172.993 100.501 173.145 100.045C173.27 99.6614 173.406 99.276 173.539 98.9116C174.228 99.5961 175.113 100.133 176.053 100.537C177.863 101.32 179.883 101.627 181.113 101.586Z" fill="url(#paint14_linear_42_7460)"/>
<path d="M206.321 201.977V201.974" stroke="#2A246D" stroke-width="0.2746" stroke-miterlimit="10"/>
<path opacity="0.25" d="M198.7 129.192C198.7 129.192 200.559 132.836 203.423 133.798" stroke="white" stroke-width="0.5492" stroke-miterlimit="10" stroke-linecap="round" stroke-linejoin="round"/>
<path opacity="0.25" d="M202.347 134.667C202.347 134.667 209.022 192.108 211.002 196.562" stroke="white" stroke-width="0.5492" stroke-miterlimit="10" stroke-linecap="round" stroke-linejoin="round"/>
<path opacity="0.25" d="M189.794 144.662C189.794 144.662 184.163 193.8 182.909 203.934" stroke="white" stroke-width="0.5492" stroke-miterlimit="10" stroke-linecap="round" stroke-linejoin="round"/>
<path d="M185.801 216.89H166.298C166.298 216.89 166.123 216.182 166.243 215.374C166.34 214.66 166.664 213.872 167.526 213.42C169.37 212.457 176.434 209.004 177.968 207.39C179.503 205.778 179.186 205.07 179.923 205.026C179.923 205.026 184.117 204.693 184.611 205.313C184.992 205.789 185.49 212.344 185.697 215.374C185.762 216.295 185.801 216.89 185.801 216.89Z" fill="url(#paint15_linear_42_7460)"/>
<path d="M172.134 210.46C172.134 210.46 173.823 212.072 174.667 212.303C175.511 212.535 179.811 208.835 180.118 207.805C180.425 206.775 180.767 202.706 180.767 202.706C180.767 202.706 178.151 202.706 177.253 202.706C176.356 202.706 176.45 207.509 176.45 207.509C176.45 207.509 171.734 210.095 172.134 210.46Z" fill="#A2A2F4"/>
<path d="M185.801 216.889H166.298C166.298 216.889 166.123 216.181 166.243 215.374H185.698C185.762 216.295 185.801 216.889 185.801 216.889Z" fill="#2A246D"/>
<path d="M217.818 216.887C217.818 216.887 217.127 216.887 206.054 216.887C206.096 216.534 206.155 216.008 206.219 215.372C206.473 212.764 206.8 208.302 206.319 206.389C205.738 204.069 206.29 202.08 206.319 201.975C206.448 202.179 206.565 202.318 206.668 202.39C209.168 204.096 211.992 201.898 212.771 201.21C214.299 203.539 216.374 212.777 217.203 214.299C217.423 214.703 217.572 215.062 217.672 215.372C217.996 216.366 217.818 216.887 217.818 216.887Z" fill="url(#paint16_linear_42_7460)"/>
<path d="M206.838 200.017C206.838 200.017 207.606 205.084 207.836 205.852C208.066 206.62 209.295 211.393 210.216 211.847C211.137 212.301 212.06 212.731 212.29 211.672C212.519 210.612 212.29 205.084 212.29 204.24C212.29 203.396 212.802 199.173 212.391 198.866C211.983 198.558 206.591 198.419 206.838 200.017Z" fill="#A2A2F4"/>
<path d="M217.818 216.886C217.818 216.886 217.127 216.886 206.054 216.886C206.096 216.534 206.155 216.007 206.219 215.371H217.672C217.996 216.365 217.818 216.886 217.818 216.886Z" fill="#2A246D"/>
<path d="M145.95 9.95142V35.5223C145.95 39.2322 142.942 42.2393 139.233 42.2393H106.461L101.117 47.5834C100.371 48.3293 99.0907 47.8002 99.0907 46.7434V42.2393H82.9906C82.3374 42.2393 81.8044 41.7063 81.8044 41.0532V15.4836C81.8044 11.7737 84.8129 8.7666 88.5214 8.7666H144.764C145.417 8.7653 145.95 9.29827 145.95 9.95142Z" stroke="#BFBBEF" stroke-width="1.0983" stroke-miterlimit="10"/>
<path d="M229.95 15.2279V41.2703C229.95 41.8059 229.518 42.2396 228.981 42.2396H208.48L203.138 47.5837C202.388 48.3296 201.109 47.8005 201.109 46.7437V42.2396H172.269C168.699 42.2396 165.807 39.3475 165.807 35.7773V9.7349C165.807 9.19801 166.239 8.76562 166.776 8.76562H223.488C227.058 8.76562 229.95 11.6578 229.95 15.2279Z" fill="#F0F1FC"/>
<path d="M240.925 41.9099C240.925 48.107 235.904 53.1284 229.707 53.1284C223.622 53.1284 218.666 48.2847 218.495 42.2404H228.979C229.516 42.2404 229.949 41.8067 229.949 41.2711V30.6953C236.035 30.8246 240.925 35.7964 240.925 41.9099Z" fill="#817BD4"/>
<path d="M229.95 30.6958V41.2716C229.95 41.8072 229.518 42.2409 228.981 42.2409H218.497C218.49 42.1312 218.49 42.0214 218.49 41.9117C218.49 35.7172 223.514 30.6932 229.708 30.6932C229.789 30.6919 229.869 30.6919 229.95 30.6958Z" fill="#CECBFE"/>
<path d="M94.5749 4.59819V8.7666H88.5202C84.8116 8.7666 81.8032 11.775 81.8032 15.4836V22.6826H76.4917C73.9523 22.6826 71.8936 20.6239 71.8936 18.0844V4.59819C71.8936 2.05874 73.951 0 76.4917 0H89.978C92.5174 0 94.5749 2.05743 94.5749 4.59819Z" fill="#817BD4"/>
<path d="M94.5753 8.76562V18.0835C94.5753 20.6229 92.5165 22.6817 89.9771 22.6817H81.8022V15.4826C81.8022 11.7727 84.8107 8.76562 88.5192 8.76562H94.5753Z" fill="#CECBFE"/>
<path d="M60.7915 48.6572H48.3542V52.6506H60.7915V48.6572Z" fill="#817BD4"/>
<path d="M66.1802 53.5713H53.7429V57.5647H66.1802V53.5713Z" fill="#CECBFE"/>
<path d="M246.683 108.501H259.12V104.508H246.683V108.501Z" fill="#817BD4"/>
<path d="M241.296 113.414H253.733V109.421H241.296V113.414Z" fill="#CECBFE"/>
<path d="M95.1611 18.8311H132.593" stroke="#817BD4" stroke-width="1.3729" stroke-miterlimit="10" stroke-linecap="round" stroke-linejoin="round"/>
<path d="M95.1611 25.79H132.593" stroke="#817BD4" stroke-width="1.3729" stroke-miterlimit="10" stroke-linecap="round" stroke-linejoin="round"/>
<path d="M95.1611 32.748H132.593" stroke="#817BD4" stroke-width="1.3729" stroke-miterlimit="10" stroke-linecap="round" stroke-linejoin="round"/>
<path d="M179.162 18.5088H216.595" stroke="#817BD4" stroke-width="1.3729" stroke-miterlimit="10" stroke-linecap="round" stroke-linejoin="round"/>
<path d="M179.162 25.4668H216.595" stroke="#817BD4" stroke-width="1.3729" stroke-miterlimit="10" stroke-linecap="round" stroke-linejoin="round"/>
<path d="M179.162 32.4258H216.595" stroke="#817BD4" stroke-width="1.3729" stroke-miterlimit="10" stroke-linecap="round" stroke-linejoin="round"/>
<path d="M313.918 221.957H8.16372C6.77512 221.957 5.65039 220.831 5.65039 219.444C5.65039 218.055 6.77643 216.931 8.16372 216.931H313.918C315.307 216.931 316.431 218.057 316.431 219.444C316.431 220.831 315.307 221.957 313.918 221.957Z" fill="#C0BDF0"/>
</g>
<path d="M268.216 255.957H48.2158V257.957H268.216V255.957Z" fill="#654E8A" mask="url(#path-153-inside-1_42_7460)"/>
<path d="M49.317 247.471V240.933H50.325V247.429C50.325 249.193 51.291 250.145 53.041 250.145C54.749 250.145 55.715 249.165 55.715 247.429V240.933H56.723V247.471C56.723 249.739 55.323 251.125 53.041 251.125C50.717 251.125 49.317 249.753 49.317 247.471ZM58.9041 253.911V244.181H59.7441L59.8421 245.553C60.3181 244.503 61.2701 243.999 62.4041 243.999C64.3641 243.999 65.5401 245.497 65.5401 247.541C65.5401 249.585 64.4061 251.125 62.4041 251.125C61.2561 251.125 60.3461 250.635 59.8701 249.655V253.911H58.9041ZM59.8841 247.569C59.8841 249.123 60.7521 250.257 62.2361 250.257C63.7061 250.257 64.5601 249.123 64.5601 247.569C64.5601 246.001 63.7061 244.881 62.2361 244.881C60.7521 244.881 59.8841 246.001 59.8841 247.569ZM68.1078 250.957H67.1418V240.751H68.1078V250.957ZM69.7063 247.569C69.7063 245.497 71.1623 243.999 73.1503 243.999C75.1383 243.999 76.5943 245.497 76.5943 247.569C76.5943 249.627 75.1383 251.125 73.1503 251.125C71.1623 251.125 69.7063 249.627 69.7063 247.569ZM70.6863 247.555C70.6863 249.151 71.6943 250.257 73.1503 250.257C74.5923 250.257 75.6143 249.151 75.6143 247.555C75.6143 245.987 74.5923 244.867 73.1503 244.867C71.6943 244.867 70.6863 245.987 70.6863 247.555ZM80.1054 251.125C78.6634 251.125 77.8094 250.313 77.8094 249.123C77.8094 247.877 78.7614 247.093 80.3434 246.967L82.5834 246.785V246.561C82.5834 245.231 81.7854 244.811 80.7914 244.811C79.6154 244.811 78.9154 245.343 78.9154 246.253H78.0334C78.0334 244.881 79.1534 243.999 80.8194 243.999C82.3874 243.999 83.5354 244.783 83.5354 246.575V250.957H82.7234L82.5974 249.767C82.1774 250.621 81.2534 251.125 80.1054 251.125ZM80.3294 250.341C81.7574 250.341 82.5834 249.347 82.5834 247.877V247.513L80.5814 247.667C79.3074 247.779 78.7894 248.339 78.7894 249.095C78.7894 249.921 79.4054 250.341 80.3294 250.341ZM88.1538 251.125C86.1798 251.125 85.0178 249.613 85.0178 247.583C85.0178 245.539 86.1798 243.999 88.1958 243.999C89.3158 243.999 90.2118 244.489 90.6878 245.469V240.751H91.6538V250.957H90.8138L90.7158 249.571C90.2398 250.621 89.2878 251.125 88.1538 251.125ZM88.3218 250.243C89.8058 250.243 90.6738 249.123 90.6738 247.555C90.6738 246.001 89.8058 244.867 88.3218 244.867C86.8518 244.867 85.9978 246.001 85.9978 247.555C85.9978 249.123 86.8518 250.243 88.3218 250.243ZM103.808 250.957H97.8024V240.933H103.794V241.857H98.8104V245.469H103.332V246.379H98.8104V250.033H103.808V250.957ZM105.931 250.957H104.797L107.219 247.569L104.811 244.181H105.945L107.863 246.897L109.767 244.181H110.887L108.479 247.583L110.873 250.957H109.725L107.821 248.241L105.931 250.957ZM111.348 247.583C111.348 245.455 112.65 243.999 114.624 243.999C116.192 243.999 117.34 244.909 117.606 246.309H116.64C116.388 245.371 115.576 244.853 114.638 244.853C113.266 244.853 112.3 245.903 112.3 247.569C112.3 249.179 113.196 250.257 114.568 250.257C115.576 250.257 116.388 249.697 116.654 248.829H117.634C117.312 250.215 116.108 251.125 114.568 251.125C112.65 251.125 111.348 249.711 111.348 247.583ZM121.959 251.125C119.971 251.125 118.641 249.697 118.641 247.569C118.641 245.455 119.957 243.999 121.889 243.999C123.723 243.999 124.969 245.301 124.969 247.219V247.695H119.579C119.649 249.347 120.517 250.299 121.973 250.299C123.079 250.299 123.793 249.823 124.045 248.927H124.969C124.605 250.355 123.555 251.125 121.959 251.125ZM121.889 244.825C120.615 244.825 119.775 245.665 119.607 246.995H124.003C124.003 245.693 123.163 244.825 121.889 244.825ZM127.542 250.957H126.576V240.751H127.542V250.957ZM133.127 243.537C133.127 241.857 134.471 240.751 136.487 240.751C138.293 240.751 139.483 241.759 139.637 243.439H138.615C138.503 242.305 137.733 241.661 136.473 241.661C135.059 241.661 134.135 242.389 134.135 243.523C134.135 244.405 134.653 244.965 135.703 245.231L137.425 245.651C138.993 246.029 139.805 246.925 139.805 248.283C139.805 250.019 138.461 251.125 136.389 251.125C134.443 251.125 133.127 250.103 133.001 248.465H134.037C134.093 249.515 135.017 250.201 136.389 250.201C137.859 250.201 138.797 249.487 138.797 248.339C138.797 247.443 138.293 246.855 137.215 246.603L135.521 246.183C133.953 245.805 133.127 244.909 133.127 243.537ZM142.394 250.943H141.428V240.751H142.394V245.357C142.828 244.545 143.654 243.999 144.788 243.999C146.566 243.999 147.364 245.105 147.364 246.813V250.957H146.398V247.023C146.398 245.441 145.656 244.881 144.606 244.881C143.15 244.881 142.394 245.959 142.394 247.261V250.943ZM152.151 251.125C150.163 251.125 148.833 249.697 148.833 247.569C148.833 245.455 150.149 243.999 152.081 243.999C153.915 243.999 155.161 245.301 155.161 247.219V247.695H149.771C149.841 249.347 150.709 250.299 152.165 250.299C153.271 250.299 153.985 249.823 154.237 248.927H155.161C154.797 250.355 153.747 251.125 152.151 251.125ZM152.081 244.825C150.807 244.825 149.967 245.665 149.799 246.995H154.195C154.195 245.693 153.355 244.825 152.081 244.825ZM159.568 251.125C157.58 251.125 156.25 249.697 156.25 247.569C156.25 245.455 157.566 243.999 159.498 243.999C161.332 243.999 162.578 245.301 162.578 247.219V247.695H157.188C157.258 249.347 158.126 250.299 159.582 250.299C160.688 250.299 161.402 249.823 161.654 248.927H162.578C162.214 250.355 161.164 251.125 159.568 251.125ZM159.498 244.825C158.224 244.825 157.384 245.665 157.216 246.995H161.612C161.612 245.693 160.772 244.825 159.498 244.825ZM165.628 250.957H164.676V244.993H163.318V244.181H164.676V242.039H165.628V244.181H166.986V244.993H165.628V250.957ZM173.72 250.957H172.768V244.993H171.41V244.181H172.768V242.039H173.72V244.181H175.078V244.993H173.72V250.957ZM175.812 247.569C175.812 245.497 177.268 243.999 179.256 243.999C181.244 243.999 182.7 245.497 182.7 247.569C182.7 249.627 181.244 251.125 179.256 251.125C177.268 251.125 175.812 249.627 175.812 247.569ZM176.792 247.555C176.792 249.151 177.8 250.257 179.256 250.257C180.698 250.257 181.72 249.151 181.72 247.555C181.72 245.987 180.698 244.867 179.256 244.867C177.8 244.867 176.792 245.987 176.792 247.555ZM190.114 251.125C188.672 251.125 187.818 250.313 187.818 249.123C187.818 247.877 188.77 247.093 190.352 246.967L192.592 246.785V246.561C192.592 245.231 191.794 244.811 190.8 244.811C189.624 244.811 188.924 245.343 188.924 246.253H188.042C188.042 244.881 189.162 243.999 190.828 243.999C192.396 243.999 193.544 244.783 193.544 246.575V250.957H192.732L192.606 249.767C192.186 250.621 191.262 251.125 190.114 251.125ZM190.338 250.341C191.766 250.341 192.592 249.347 192.592 247.877V247.513L190.59 247.667C189.316 247.779 188.798 248.339 188.798 249.095C188.798 249.921 189.414 250.341 190.338 250.341ZM198.162 251.125C196.188 251.125 195.026 249.613 195.026 247.583C195.026 245.539 196.188 243.999 198.204 243.999C199.324 243.999 200.22 244.489 200.696 245.469V240.751H201.662V250.957H200.822L200.724 249.571C200.248 250.621 199.296 251.125 198.162 251.125ZM198.33 250.243C199.814 250.243 200.682 249.123 200.682 247.555C200.682 246.001 199.814 244.867 198.33 244.867C196.86 244.867 196.006 246.001 196.006 247.555C196.006 249.123 196.86 250.243 198.33 250.243ZM206.358 251.125C204.384 251.125 203.222 249.613 203.222 247.583C203.222 245.539 204.384 243.999 206.4 243.999C207.52 243.999 208.416 244.489 208.892 245.469V240.751H209.858V250.957H209.018L208.92 249.571C208.444 250.621 207.492 251.125 206.358 251.125ZM206.526 250.243C208.01 250.243 208.878 249.123 208.878 247.555C208.878 246.001 208.01 244.867 206.526 244.867C205.056 244.867 204.202 246.001 204.202 247.555C204.202 249.123 205.056 250.243 206.526 250.243ZM215.405 243.537C215.405 241.857 216.749 240.751 218.765 240.751C220.571 240.751 221.761 241.759 221.915 243.439H220.893C220.781 242.305 220.011 241.661 218.751 241.661C217.337 241.661 216.413 242.389 216.413 243.523C216.413 244.405 216.931 244.965 217.981 245.231L219.703 245.651C221.271 246.029 222.083 246.925 222.083 248.283C222.083 250.019 220.739 251.125 218.667 251.125C216.721 251.125 215.405 250.103 215.279 248.465H216.315C216.371 249.515 217.295 250.201 218.667 250.201C220.137 250.201 221.075 249.487 221.075 248.339C221.075 247.443 220.571 246.855 219.493 246.603L217.799 246.183C216.231 245.805 215.405 244.909 215.405 243.537ZM225.259 250.957H224.307V244.993H222.949V244.181H224.307V242.039H225.259V244.181H226.617V244.993H225.259V250.957ZM232.655 244.181H233.621V250.957H232.781L232.655 249.809C232.277 250.593 231.339 251.125 230.275 251.125C228.679 251.125 227.811 250.033 227.811 248.381V244.167H228.791V248.073C228.791 249.683 229.505 250.257 230.583 250.257C231.885 250.257 232.655 249.389 232.655 247.779V244.181ZM238.177 251.125C236.203 251.125 235.041 249.613 235.041 247.583C235.041 245.539 236.203 243.999 238.219 243.999C239.339 243.999 240.235 244.489 240.711 245.469V240.751H241.677V250.957H240.837L240.739 249.571C240.263 250.621 239.311 251.125 238.177 251.125ZM238.345 250.243C239.829 250.243 240.697 249.123 240.697 247.555C240.697 246.001 239.829 244.867 238.345 244.867C236.875 244.867 236.021 246.001 236.021 247.555C236.021 249.123 236.875 250.243 238.345 250.243ZM246.555 251.125C244.567 251.125 243.237 249.697 243.237 247.569C243.237 245.455 244.553 243.999 246.485 243.999C248.319 243.999 249.565 245.301 249.565 247.219V247.695H244.175C244.245 249.347 245.113 250.299 246.569 250.299C247.675 250.299 248.389 249.823 248.641 248.927H249.565C249.201 250.355 248.151 251.125 246.555 251.125ZM246.485 244.825C245.211 244.825 244.371 245.665 244.203 246.995H248.599C248.599 245.693 247.759 244.825 246.485 244.825ZM252.095 250.957H251.129V244.181H251.969L252.109 245.357C252.557 244.489 253.453 243.999 254.433 243.999C256.295 243.999 257.065 245.105 257.065 246.813V250.957H256.099V247.023C256.099 245.441 255.385 244.881 254.265 244.881C252.879 244.881 252.095 245.889 252.095 247.415V250.957ZM260.564 250.957H259.612V244.993H258.254V244.181H259.612V242.039H260.564V244.181H261.922V244.993H260.564V250.957ZM262.626 249.053H263.55C263.55 249.837 264.138 250.327 265.09 250.327C266.14 250.327 266.756 249.879 266.756 249.151C266.756 248.591 266.476 248.269 265.678 248.073L264.516 247.779C263.34 247.485 262.766 246.869 262.766 245.945C262.766 244.755 263.76 243.999 265.216 243.999C266.644 243.999 267.568 244.783 267.61 246.043H266.672C266.644 245.259 266.098 244.797 265.188 244.797C264.236 244.797 263.704 245.203 263.704 245.931C263.704 246.449 264.068 246.813 264.81 246.995L265.972 247.289C267.148 247.583 267.68 248.129 267.68 249.109C267.68 250.327 266.644 251.125 265.104 251.125C263.578 251.125 262.626 250.313 262.626 249.053Z" fill="#654E8A"/>
<defs>
<linearGradient id="paint0_linear_42_7460" x1="97.7721" y1="84.7138" x2="113.359" y2="97.8441" gradientUnits="userSpaceOnUse">
<stop stop-color="#FCAAAA"/>
<stop offset="1" stop-color="#FFCDAE"/>
</linearGradient>
<linearGradient id="paint1_linear_42_7460" x1="143.224" y1="63.1495" x2="129.403" y2="89.4095" gradientUnits="userSpaceOnUse">
<stop stop-color="#FCAAAA"/>
<stop offset="1" stop-color="#FFCDAE"/>
</linearGradient>
<linearGradient id="paint2_linear_42_7460" x1="125.306" y1="211.821" x2="136.566" y2="211.821" gradientUnits="userSpaceOnUse">
<stop stop-color="#6A5CDA"/>
<stop offset="1" stop-color="#8470DF"/>
</linearGradient>
<linearGradient id="paint3_linear_42_7460" x1="147.006" y1="211.847" x2="158.252" y2="211.847" gradientUnits="userSpaceOnUse">
<stop stop-color="#6A5CDA"/>
<stop offset="1" stop-color="#8470DF"/>
</linearGradient>
<linearGradient id="paint4_linear_42_7460" x1="151.44" y1="117.038" x2="178.85" y2="158.267" gradientUnits="userSpaceOnUse">
<stop stop-color="#FCAAAA"/>
<stop offset="1" stop-color="#FFCDAE"/>
</linearGradient>
<linearGradient id="paint5_linear_42_7460" x1="101.121" y1="104.209" x2="121.39" y2="90.7349" gradientUnits="userSpaceOnUse">
<stop stop-color="#FCAAAA"/>
<stop offset="1" stop-color="#FFCDAE"/>
</linearGradient>
<linearGradient id="paint6_linear_42_7460" x1="58.938" y1="121.753" x2="45.8855" y2="108.086" gradientUnits="userSpaceOnUse">
<stop stop-color="#FCAAAA"/>
<stop offset="1" stop-color="#FFCDAE"/>
</linearGradient>
<linearGradient id="paint7_linear_42_7460" x1="64.2092" y1="199.47" x2="66.7422" y2="229.982" gradientUnits="userSpaceOnUse">
<stop stop-color="#6A5CDA"/>
<stop offset="1" stop-color="#8470DF"/>
</linearGradient>
<linearGradient id="paint8_linear_42_7460" x1="101.503" y1="199.906" x2="104.037" y2="230.426" gradientUnits="userSpaceOnUse">
<stop stop-color="#6A5CDA"/>
<stop offset="1" stop-color="#8470DF"/>
</linearGradient>
<linearGradient id="paint9_linear_42_7460" x1="97.1377" y1="173.227" x2="95.7557" y2="232.192" gradientUnits="userSpaceOnUse">
<stop stop-color="#FCAAAA"/>
<stop offset="1" stop-color="#FFCDAE"/>
</linearGradient>
<linearGradient id="paint10_linear_42_7460" x1="66.1889" y1="172.502" x2="64.8069" y2="231.467" gradientUnits="userSpaceOnUse">
<stop stop-color="#FCAAAA"/>
<stop offset="1" stop-color="#FFCDAE"/>
</linearGradient>
<linearGradient id="paint11_linear_42_7460" x1="80.0511" y1="67.2101" x2="95.8683" y2="78.1132" gradientUnits="userSpaceOnUse">
<stop stop-color="#FCAAAA"/>
<stop offset="1" stop-color="#FFCDAE"/>
</linearGradient>
<linearGradient id="paint12_linear_42_7460" x1="196.185" y1="65.5318" x2="179.716" y2="72.9026" gradientUnits="userSpaceOnUse">
<stop stop-color="#FCAAAA"/>
<stop offset="1" stop-color="#FFCDAE"/>
</linearGradient>
<linearGradient id="paint13_linear_42_7460" x1="215.68" y1="90.341" x2="229.615" y2="131.225" gradientUnits="userSpaceOnUse">
<stop stop-color="#FCAAAA"/>
<stop offset="1" stop-color="#FFCDAE"/>
</linearGradient>
<linearGradient id="paint14_linear_42_7460" x1="181.401" y1="112.543" x2="149.615" y2="72.3112" gradientUnits="userSpaceOnUse">
<stop stop-color="#FCAAAA"/>
<stop offset="1" stop-color="#FFCDAE"/>
</linearGradient>
<linearGradient id="paint15_linear_42_7460" x1="166.202" y1="210.913" x2="185.801" y2="210.913" gradientUnits="userSpaceOnUse">
<stop stop-color="#6A5CDA"/>
<stop offset="1" stop-color="#8470DF"/>
</linearGradient>
<linearGradient id="paint16_linear_42_7460" x1="206.055" y1="209.048" x2="217.868" y2="209.048" gradientUnits="userSpaceOnUse">
<stop stop-color="#6A5CDA"/>
<stop offset="1" stop-color="#8470DF"/>
</linearGradient>
</defs>
</svg>
