<svg width="466" height="222" viewBox="0 0 466 222" fill="none" xmlns="http://www.w3.org/2000/svg">
<g clip-path="url(#clip0_435_997)">
<rect width="466" height="222" rx="6" fill="url(#paint0_linear_435_997)"/>
<g opacity="0.3" clip-path="url(#clip1_435_997)">
<path d="M60.1203 27.9742C60.1592 26.7447 60.1514 25.4971 60.139 24.2881C60.1301 23.7258 60.125 23.1702 60.1306 22.6175L60.1264 15.2513L60.1237 12.0279C60.43 11.9822 60.7237 11.874 60.9865 11.71C65.7801 8.88835 69.762 6.59837 73.4416 4.51899L73.4755 4.49947C73.7725 4.34 74.0276 4.11247 74.2197 3.83556L80.4388 7.45146C82.9357 8.90146 85.5123 10.3956 88.0779 11.8239C88.2248 11.8853 88.3493 11.99 88.4349 12.1242C88.5204 12.2584 88.5628 12.4155 88.5564 12.5746C88.4558 16.8845 88.4853 21.2634 88.5239 25.5019L88.5392 27.4659C88.5714 27.7882 88.5024 28.1128 88.3417 28.3944C88.181 28.676 87.9366 28.9008 87.6425 29.0375L87.6087 29.0571C83.9184 31.1336 79.9607 33.4186 75.1536 36.248C74.9275 36.435 74.6447 36.5399 74.3514 36.5456C74.0581 36.5513 73.7717 36.4575 73.539 36.2794C72.5105 35.5761 71.432 34.9736 70.4302 34.426C68.8044 33.563 67.1578 32.5859 65.5812 31.6675C64.0046 30.7492 62.192 29.6877 60.4643 28.7575C60.1826 28.5508 60.1103 28.3944 60.1203 27.9742Z" fill="#8265E7"/>
<path d="M16.9299 52.9104C16.9687 51.6809 16.9571 50.4264 16.9486 49.2243C16.9396 48.6619 16.9346 48.1063 16.9402 47.5536L16.936 40.1874L16.9333 36.9641C17.2396 36.9183 17.5333 36.8101 17.7961 36.6461C22.5897 33.8245 26.5716 31.5345 30.2512 29.4551C30.5533 29.2911 30.8156 29.0628 31.0197 28.7862L37.2455 32.3982C39.7318 33.8454 42.3122 35.3463 44.8739 36.7678C45.0208 36.8292 45.1454 36.934 45.2309 37.0681C45.3165 37.2023 45.3589 37.3595 45.3524 37.5185C45.2518 41.8284 45.2842 46.1967 45.3189 50.4284L45.3353 52.4098C45.3675 52.7322 45.2984 53.0567 45.1377 53.3383C44.977 53.6199 44.7327 53.8447 44.4386 53.9815L44.4047 54.001C40.7145 56.0775 36.7567 58.3625 31.9496 61.192C31.7223 61.3764 31.4399 61.4796 31.1474 61.4853C30.8548 61.491 30.5689 61.3988 30.335 61.2234C29.3065 60.52 28.228 59.9176 27.2262 59.3699C25.6004 58.5069 23.9539 57.5299 22.3773 56.6115C20.8006 55.6931 18.9881 54.6317 17.2603 53.7015C16.9922 53.487 16.9199 53.3305 16.9299 52.9104Z" fill="#4223B0"/>
<path d="M-26.2608 77.846C-26.2219 76.6165 -26.2336 75.362 -26.246 74.1531C-26.251 73.5975 -26.2561 73.0419 -26.2505 72.4892C-26.2594 70.1822 -26.2624 67.8749 -26.2597 65.5673L-26.2574 61.8997C-25.9397 61.856 -25.6357 61.742 -25.3675 61.5661C-20.574 58.7445 -16.592 56.4545 -12.9124 54.3751L-12.8786 54.3556C-12.5866 54.199 -12.3351 53.9767 -12.1439 53.7062L-8.2587 55.9671C-7.46272 56.4084 -6.6735 56.8535 -5.85984 57.3566C-3.38814 58.7942 -0.82617 60.2787 1.71032 61.6878C1.85723 61.7492 1.98181 61.8539 2.06734 61.9881C2.15286 62.1223 2.19526 62.2794 2.18883 62.4385C2.09112 66.7377 2.12346 71.106 2.15038 75.3242L2.17167 77.3298C2.20384 77.6522 2.1348 77.9767 1.97412 78.2583C1.81343 78.5399 1.56908 78.7647 1.27496 78.9014L1.24114 78.921C-2.44912 80.9975 -6.40689 83.2825 -11.214 86.1119C-11.4385 86.2926 -11.7173 86.3924 -12.0054 86.3953C-12.2934 86.3982 -12.5739 86.3039 -12.8016 86.1277C-13.8407 85.4215 -14.959 84.797 -15.9103 84.2742C-17.5361 83.4113 -19.1827 82.4342 -20.7593 81.5158C-22.3359 80.5974 -24.1485 79.536 -25.8762 78.6058C-26.1985 78.4226 -26.2437 78.2505 -26.2608 77.846Z" fill="#6A51C0"/>
<path d="M74.4827 52.8501C74.5215 51.6206 74.5099 50.3661 74.4975 49.1572C74.4924 48.6016 74.4874 48.046 74.4891 47.4865C74.4835 45.0396 74.4828 42.5958 74.487 40.1552L74.4889 36.8931C74.793 36.8492 75.0846 36.7422 75.345 36.579C80.1755 33.7901 84.14 31.5012 87.8001 29.3881L87.8339 29.3685C88.1266 29.2144 88.3794 28.9944 88.5725 28.7259L92.4577 30.9869C93.2469 31.432 94.0294 31.8811 94.8118 32.3301C97.2942 33.7705 99.864 35.2685 102.415 36.6873C102.562 36.7486 102.686 36.8534 102.772 36.9876C102.858 37.1218 102.9 37.2789 102.894 37.438C102.789 41.7411 102.822 46.1268 102.857 50.3586L102.872 52.3225C102.906 52.6455 102.839 52.9712 102.679 53.2541C102.519 53.5371 102.274 53.7632 101.98 53.9009L101.946 53.9204C98.2556 55.997 94.2939 58.2752 89.4907 61.1114C89.265 61.2895 88.9867 61.3877 88.6993 61.3905C88.4119 61.3934 88.1319 61.3008 87.9031 61.1272C86.8981 60.4544 85.8592 59.8335 84.7905 59.267C83.1647 58.404 81.522 57.4337 79.9454 56.5153C78.3688 55.5969 76.5524 54.5287 74.8246 53.5985C74.5449 53.4267 74.4571 53.2432 74.4827 52.8501Z" fill="#6A51C0"/>
<path d="M31.292 77.7865C31.3309 76.557 31.3192 75.3026 31.3068 74.0937C31.3018 73.5381 31.2967 72.9825 31.2984 72.423C31.2929 69.976 31.2922 67.5322 31.2963 65.0916L31.2983 61.8296C31.6108 61.7766 31.9105 61.6647 32.1814 61.4999C37.0119 58.711 40.9764 56.422 44.6365 54.3089C44.9443 54.1547 45.2095 53.9273 45.4089 53.6468L49.2941 55.9077L51.6482 57.251C54.1306 58.6913 56.6965 60.1826 59.2475 61.6014C59.3944 61.6627 59.519 61.7675 59.6045 61.9016C59.6901 62.0358 59.7325 62.193 59.726 62.352C59.6216 66.6552 59.6578 71.0302 59.6886 75.2552L59.705 77.2365C59.7389 77.5596 59.6712 77.8853 59.5111 78.1682C59.3511 78.4511 59.1067 78.6772 58.8122 78.815L58.7783 78.8345C55.0881 80.911 51.1264 83.1893 46.3232 86.0255C46.0975 86.2036 45.8192 86.3018 45.5318 86.3046C45.2444 86.3075 44.9644 86.2148 44.7357 86.0412C43.7306 85.3685 42.6917 84.7476 41.623 84.181C39.9972 83.3181 38.3545 82.3477 36.7779 81.4294C35.2013 80.511 33.3848 79.4428 31.6571 78.5126C31.3543 78.3631 31.2664 78.1797 31.292 77.7865Z" fill="#8265E7"/>
<path d="M-11.8983 102.722C-11.8634 101.486 -11.875 100.232 -11.8874 99.0229C-11.8925 98.4673 -11.8975 97.9117 -11.8919 97.3589L-11.8954 90.4157L-11.8921 86.7655C-11.5767 86.7236 -11.2748 86.6109 -11.009 86.4358C-6.17846 83.6469 -2.21392 81.358 1.44617 79.2448L1.47999 79.2253C1.77263 79.0712 2.02548 78.8512 2.21853 78.5827L6.10376 80.8436C6.91275 81.3074 7.71366 81.7728 8.50652 82.2399C10.9743 83.6707 13.5363 85.1552 16.0767 86.5711C16.2236 86.6324 16.3482 86.7372 16.4337 86.8714C16.5192 87.0055 16.5616 87.1627 16.5552 87.3217C16.4536 91.6142 16.4859 95.9825 16.5196 100.197L16.5341 102.206C16.5681 102.529 16.5003 102.855 16.3403 103.138C16.1802 103.421 15.9359 103.647 15.6413 103.785L15.6075 103.804C11.9172 105.881 7.95557 108.159 3.15236 110.995C2.92671 111.173 2.64832 111.271 2.36095 111.274C2.07359 111.277 1.79353 111.185 1.56481 111.011C0.525638 110.305 -0.596531 109.673 -1.54782 109.151C-3.17362 108.288 -4.81631 107.317 -6.39683 106.392C-7.97734 105.467 -9.78599 104.413 -11.5138 103.482C-11.8361 103.299 -11.8969 103.1 -11.8983 102.722Z" fill="#6A51C0"/>
<path d="M-11.9436 53.3657C-11.8365 53.0745 -11.7883 52.765 -11.8019 52.4551L-11.8125 50.4524C-11.8501 46.2313 -11.8785 41.8698 -11.7769 37.5773C-11.7701 37.4042 -11.8019 37.2318 -11.8699 37.0725L2.38483 28.8426C2.48278 28.9522 2.5996 29.0434 2.72975 29.1118C4.45752 30.042 6.1759 31.0497 7.84277 32.0151C9.50965 32.9804 11.0582 33.897 12.6957 34.7803C13.7516 35.3363 14.7782 35.9463 15.7714 36.6077C15.9965 36.7758 16.2569 36.8903 16.533 36.9427L16.5436 40.1795L16.541 47.5496C16.5422 48.0985 16.5511 48.6608 16.5494 49.2203C16.5579 50.4225 16.5763 51.673 16.5336 52.8958C16.529 53.0535 16.5443 53.2111 16.579 53.365L2.27009 61.6262C2.15918 61.5152 2.03212 61.4215 1.89319 61.3484C-0.640434 59.9286 -3.19174 58.4469 -5.66345 57.0094L-8.06231 55.6199L-11.9436 53.3657Z" fill="#8265E7"/>
<path d="M45.6023 53.31C45.7089 53.0149 45.758 52.7021 45.747 52.3887L45.7345 50.4141C45.6998 46.1823 45.6674 41.8141 45.7719 37.5109C45.78 37.3403 45.7495 37.1701 45.6828 37.0129L59.9376 28.7829C60.0365 28.8915 60.1531 28.9825 60.2825 29.0522C62.0063 29.9756 63.7247 30.9833 65.3916 31.9487C67.0585 32.914 68.607 33.8306 70.2484 34.7206C71.3053 35.275 72.332 35.885 73.3241 36.5481C73.5494 36.7193 73.8132 36.8329 74.0925 36.8791L74.0945 40.148L74.0899 47.4832C74.0949 48.0388 74.0999 48.5944 74.0982 49.1539C74.1106 50.3628 74.1251 51.6066 74.0824 52.8294C74.0778 52.9871 74.0931 53.1447 74.1278 53.2986L59.8189 61.5598C59.7103 61.4479 59.5856 61.353 59.4488 61.2781C56.9016 59.8661 54.3358 58.3748 51.8602 56.9305L49.506 55.5872L45.6023 53.31Z" fill="#6A51C0"/>
<path d="M2.41159 78.2456C2.525 77.9546 2.57562 77.6429 2.56014 77.3311L2.54952 75.3284C2.51583 71.1141 2.48348 66.7458 2.5851 62.4533C2.59185 62.2828 2.56145 62.1128 2.496 61.9553L16.7507 53.7253C16.8497 53.8339 16.9663 53.9249 17.0957 53.9946C18.8195 54.918 20.5379 55.9257 22.2048 56.8911C23.8717 57.8564 25.4202 58.773 27.0616 59.663C28.1185 60.2174 29.1451 60.8274 30.1373 61.4905C30.3637 61.6598 30.627 61.7732 30.9057 61.8215L30.9077 65.0903L30.903 72.4256C30.9081 72.9812 30.9131 73.5368 30.9114 74.0963C30.9238 75.3052 30.9383 76.549 30.8956 77.7717C30.891 77.9295 30.9063 78.0871 30.941 78.241L16.6321 86.5022C16.5202 86.3923 16.3933 86.2988 16.2552 86.2244C13.7255 84.8113 11.1703 83.3229 8.70245 81.8921L6.29969 80.4958L2.41159 78.2456Z" fill="#4223B0"/>
<path d="M45.7621 3.10546C45.8009 1.87595 45.7893 0.621535 45.7769 -0.587393C45.7719 -1.14298 45.7668 -1.69857 45.7685 -2.25806L45.7629 -10.0018L45.7684 -12.8515C46.0828 -12.8979 46.3846 -13.0078 46.6553 -13.1744C51.4151 -15.9765 55.3729 -18.2615 59.1105 -20.3654C59.416 -20.5229 59.6805 -20.7497 59.8828 -21.0275L66.1019 -17.4116C68.5988 -15.9616 71.1793 -14.4607 73.7449 -13.0324C73.8918 -12.9711 74.0164 -12.8663 74.1019 -12.7321C74.1874 -12.5979 74.2298 -12.4408 74.2234 -12.2817C74.1189 -7.97861 74.1552 -3.60358 74.1899 0.628198L74.2024 2.60279C74.2363 2.92582 74.1685 3.2515 74.0085 3.53444C73.8485 3.81738 73.6041 4.04348 73.3095 4.18121L73.2757 4.20074C69.5719 6.28507 65.6103 8.56334 60.8206 11.3917C60.5948 11.572 60.3153 11.6719 60.0265 11.6754C59.7376 11.679 59.456 11.5861 59.2263 11.4114C58.1939 10.7013 57.1193 10.1056 56.1136 9.55117C54.4878 8.68821 52.8452 7.71788 51.2646 6.79274C49.6841 5.8676 47.8755 4.81294 46.1477 3.88273C45.8244 3.68206 45.7521 3.52561 45.7621 3.10546Z" fill="#4223B0"/>
<path d="M2.57188 28.0419C2.61073 26.8124 2.59912 25.558 2.5867 24.3491C2.58166 23.7935 2.5766 23.2379 2.57832 22.6784L2.6065 14.9152L2.61198 12.0654C2.92644 12.019 3.22823 11.9091 3.49898 11.7425C8.25873 8.94039 12.2165 6.65537 15.9541 4.5515C16.2619 4.39728 16.5271 4.16991 16.7265 3.88939L22.9523 7.50138C25.4425 8.95528 28.019 10.4494 30.5846 11.8777C30.7315 11.9391 30.8561 12.0439 30.9416 12.178C31.0272 12.3122 31.0696 12.4694 31.0631 12.6284C30.9587 16.9316 30.9949 21.3066 31.0296 25.5383L31.0421 27.5129C31.076 27.836 31.0083 28.1617 30.8482 28.4446C30.6882 28.7275 30.4439 28.9536 30.1493 29.0914L30.1154 29.1109C26.4116 31.1952 22.45 33.4735 17.6603 36.3019C17.4345 36.4822 17.155 36.582 16.8662 36.5856C16.5774 36.5891 16.2957 36.4962 16.066 36.3215C15.0336 35.6114 13.959 35.0157 12.9534 34.4613C11.3276 33.5984 9.68487 32.628 8.10436 31.7029C6.52384 30.7778 4.6473 29.6992 2.92734 28.7825C2.63417 28.6185 2.56188 28.4621 2.57188 28.0419Z" fill="#6A51C0"/>
<path d="M16.6779 3.89874C16.6334 3.87297 16.6009 3.8307 16.5875 3.78111C16.5741 3.73151 16.5808 3.67861 16.6062 3.63387C16.6316 3.61093 16.6615 3.59362 16.6941 3.58309C16.7237 3.56588 16.7571 3.55641 16.7913 3.55556C16.8255 3.55471 16.8594 3.56252 16.8897 3.57825C16.8428 3.70355 16.7766 3.82079 16.6935 3.92576L16.6779 3.89874Z" fill="#6A51C0"/>
<path d="M74.4376 3.49365C74.5447 3.20242 74.5929 2.89288 74.5794 2.58303L74.563 0.601689C74.5322 -3.62333 74.496 -7.99835 74.6043 -12.2947C74.6111 -12.4678 74.5793 -12.6403 74.5113 -12.7995L88.739 -21.0139C88.837 -20.9043 88.9538 -20.8131 89.0839 -20.7446C90.8117 -19.8144 92.5262 -18.8135 94.1863 -17.8442C95.8464 -16.8749 97.4084 -15.9662 99.0499 -15.0762C99.9972 -14.5602 101.105 -13.9385 102.126 -13.2487C102.351 -13.0807 102.611 -12.9661 102.887 -12.9137L102.898 -9.67692L102.895 -2.30681L102.904 -0.63614C102.916 0.572787 102.93 1.81655 102.888 3.03931C102.883 3.19702 102.898 3.35466 102.933 3.50854L88.6243 11.7698C88.5157 11.6579 88.3909 11.5629 88.2541 11.488C85.6885 10.0597 83.112 8.56556 80.615 7.11557L74.4376 3.49365Z" fill="#4223B0"/>
<path d="M31.247 28.4302C31.3507 28.1381 31.3988 27.8292 31.3888 27.5196L31.3724 25.5382C31.3416 21.3132 31.3054 16.9382 31.4137 12.6418C31.4205 12.4687 31.3888 12.2963 31.3208 12.137L45.5755 3.90701C45.6735 4.01662 45.7903 4.10782 45.9204 4.1763C47.6482 5.1065 49.3665 6.11419 51.0334 7.07955C52.7003 8.04491 54.2488 8.96151 55.8863 9.84474C56.9423 10.4008 57.9689 11.0108 58.962 11.6722C59.1871 11.8402 59.4476 11.9548 59.7237 12.0072L59.7343 15.244L59.7317 22.6141C59.7367 23.1697 59.7418 23.7253 59.7401 24.2848C59.7525 25.4937 59.767 26.7375 59.7242 27.9602C59.7197 28.1179 59.7349 28.2756 59.7696 28.4295L45.4607 36.6907C45.3522 36.5788 45.2274 36.4838 45.0906 36.4089C42.5289 34.9873 39.9485 33.4865 37.4622 32.0393L31.247 28.4302Z" fill="#6A51C0"/>
<path d="M16.8887 3.56094C16.9905 3.26612 17.0372 2.95517 17.0266 2.64359L17.0141 0.669001C16.9794 -3.56277 16.9471 -7.93105 17.0515 -12.2342C17.0596 -12.4048 17.0291 -12.575 16.9624 -12.7322L31.2172 -20.9622C31.3151 -20.8526 31.4319 -20.7614 31.5621 -20.6929C33.2859 -19.7695 35.0043 -18.7618 36.6751 -17.7897C38.3459 -16.8176 39.8866 -15.9145 41.528 -15.0245C42.4754 -14.5085 43.583 -13.8869 44.6037 -13.197C44.8318 -13.0306 45.0944 -12.9175 45.3721 -12.866L45.3706 -10.0095L45.3424 -2.24627C45.3475 -1.69068 45.3457 -1.13119 45.3547 -0.568842C45.3632 0.63333 45.3777 1.87709 45.3349 3.09985C45.3304 3.25756 45.3457 3.41521 45.3803 3.56908L31.0715 11.8303C30.9629 11.7184 30.8381 11.6235 30.7013 11.5486C28.1396 10.127 25.5631 8.63286 23.0729 7.17896L16.8887 3.56094Z" fill="#6A51C0"/>
<path d="M59.9644 78.186C60.0709 77.8908 60.12 77.5781 60.109 77.2647L60.0994 75.2794C60.0618 71.0583 60.0256 66.6833 60.134 62.3869C60.1408 62.2138 60.109 62.0414 60.041 61.8821L74.2957 53.6521C74.3937 53.7617 74.5105 53.8529 74.6406 53.9214C76.3684 54.8516 78.0936 55.8554 79.7537 56.8247C81.4138 57.7939 82.9652 58.6999 84.6066 59.5899C85.6625 60.1459 86.6891 60.7559 87.6823 61.4173C87.9076 61.5885 88.1714 61.7021 88.4507 61.7484L88.4548 63.0522C88.4509 64.0453 88.4537 65.0346 88.443 66.0317C88.4364 67.3326 88.4369 68.6355 88.4445 69.9403C88.4608 72.1559 88.4667 74.4316 88.3776 76.699C88.3065 77.1941 88.3424 77.6986 88.4831 78.1785L74.1945 86.428C73.8492 86.0699 73.4318 85.789 72.9699 85.6036C70.9336 84.5453 68.9181 83.3668 66.9677 82.2228C65.8804 81.5895 64.7892 80.9493 63.6922 80.3305C62.8156 79.8277 61.939 79.325 61.0691 78.8183L59.9644 78.186Z" fill="#4223B0"/>
<path d="M16.7632 103.119C16.876 102.826 16.9288 102.514 16.9185 102.2L16.904 100.191C16.8703 95.9765 16.8379 91.6083 16.9435 87.3225C16.9502 87.1494 16.9185 86.977 16.8505 86.8177L31.1052 78.5878C31.2031 78.6974 31.32 78.7886 31.4501 78.857C33.1779 79.7872 34.903 80.791 36.5631 81.7603C38.2232 82.7296 39.7746 83.6355 41.416 84.5255C42.472 85.0815 43.4986 85.6915 44.4917 86.353C44.7181 86.5223 44.9814 86.6357 45.2602 86.684L45.2411 88.0102C45.2371 89.0034 45.24 89.9926 45.2293 90.9897C45.2227 92.2907 45.2232 93.5935 45.2308 94.8983C45.2471 97.1139 45.253 99.3896 45.1639 101.657C45.0927 102.152 45.1287 102.657 45.2694 103.136L30.9808 111.386C30.6355 111.028 30.2181 110.747 29.7562 110.562C27.7199 109.503 25.7044 108.325 23.754 107.181C22.6667 106.547 21.5755 105.907 20.4785 105.289C19.6019 104.786 18.7253 104.283 17.8554 103.776L16.7632 103.119Z" fill="#6A51C0"/>
</g>
<g opacity="0.4" clip-path="url(#clip2_435_997)">
<path d="M400.449 40H404.551C410.064 40.893 414.264 44.0003 418.048 47.9335C421.125 51.1338 424.428 54.1275 427.592 57.2607C428.372 58.0829 429.342 58.699 430.415 59.0546C431.488 59.4102 432.632 59.4943 433.745 59.2996C438.873 58.5563 444.002 57.8853 449.13 57.0542C460.411 55.227 469.129 61.1836 471.401 72.4155C472.426 77.5772 473.329 82.8008 474.129 88.0193C474.59 91.044 475.944 93.181 478.744 94.5643C483.442 96.9232 488.052 99.4473 492.662 101.966C502.405 107.283 505.62 117.322 500.867 127.393C498.616 132.157 496.334 136.916 493.944 141.613C493.277 142.811 492.929 144.162 492.934 145.534C492.938 146.907 493.295 148.255 493.969 149.449C496.282 153.96 498.441 158.549 500.636 163.112C505.764 173.667 502.508 183.759 492.241 189.256C487.672 191.708 483.124 194.201 478.508 196.57C477.357 197.104 476.36 197.924 475.609 198.952C474.858 199.98 474.379 201.184 474.216 202.449C473.396 207.456 472.483 212.447 471.652 217.459C469.76 229.016 461.581 235.381 450.068 234.059C444.858 233.466 439.658 232.681 434.484 231.829C431.617 231.355 429.299 231.979 427.222 234.07C423.464 237.863 419.607 241.559 415.756 245.255C407.772 252.925 397.192 252.92 389.208 245.255C385.259 241.47 381.328 237.65 377.413 233.796C376.635 232.969 375.667 232.348 374.593 231.988C373.52 231.628 372.375 231.54 371.26 231.731C366.065 232.49 360.86 233.182 355.676 234.003C344.517 235.768 335.799 229.811 333.568 218.688C332.543 213.443 331.635 208.168 330.804 202.883C330.343 199.935 328.999 197.86 326.292 196.498C321.676 194.164 317.123 191.656 312.559 189.189C302.533 183.774 299.282 173.662 304.246 163.323C306.441 158.755 308.579 154.156 310.913 149.66C312.374 146.852 312.41 144.282 310.948 141.458C308.559 136.839 306.333 132.126 304.113 127.419C299.354 117.369 302.6 107.288 312.318 101.992C316.984 99.4112 321.671 96.9077 326.415 94.492C327.591 93.9401 328.607 93.0953 329.368 92.0377C330.129 90.98 330.609 89.7444 330.763 88.4477C331.579 83.3686 332.456 78.2998 333.327 73.2362C335.348 61.8133 343.63 55.5728 354.994 56.982C360.199 57.6272 365.393 58.4066 370.578 59.2428C373.362 59.6919 375.639 59.0415 377.644 57.0078C380.67 53.9108 383.895 51.0615 386.875 47.9542C390.736 43.9848 394.941 40.8878 400.449 40ZM448.863 105.677C448.412 101.956 445.704 99.2769 442.284 99.3028C440.196 99.3028 438.725 100.433 437.335 101.832C411.254 128.098 385.165 154.363 359.07 180.625C358.57 181.099 358.113 181.617 357.706 182.174C357.044 183.058 356.648 184.116 356.566 185.221C356.485 186.325 356.72 187.43 357.245 188.404C357.717 189.404 358.462 190.248 359.395 190.836C360.327 191.424 361.406 191.732 362.506 191.723C364.855 191.806 366.419 190.443 367.947 188.9C390.941 165.734 413.944 142.577 436.956 119.428C440.032 116.331 443.207 113.291 446.186 110.07C447.309 108.821 447.981 107.149 448.863 105.677ZM426.93 155.705C414.848 155.56 404.715 165.404 404.546 177.451C404.492 180.405 405.018 183.341 406.095 186.089C407.172 188.838 408.779 191.345 410.822 193.466C412.865 195.587 415.305 197.281 418 198.45C420.696 199.618 423.595 200.239 426.53 200.276C432.35 200.284 437.942 197.994 442.103 193.898C446.264 189.802 448.664 184.227 448.786 178.37C448.848 175.432 448.33 172.511 447.261 169.777C446.193 167.043 444.596 164.549 442.563 162.44C440.53 160.332 438.101 158.651 435.418 157.495C432.734 156.338 429.849 155.73 426.93 155.705ZM378.249 135.347C384.116 135.359 389.749 133.03 393.913 128.87C398.077 124.709 400.433 119.057 400.464 113.152C400.469 107.254 398.164 101.591 394.05 97.3915C389.937 93.1916 384.344 90.7925 378.485 90.7137C372.627 90.6996 367 93.0124 362.826 97.1498C358.653 101.287 356.269 106.915 356.193 112.811C356.155 115.753 356.696 118.673 357.787 121.403C358.878 124.133 360.495 126.618 362.547 128.714C364.598 130.81 367.042 132.476 369.738 133.614C372.433 134.753 375.326 135.342 378.249 135.347Z" fill="#7153D8"/>
<path d="M426.699 188.033C425.385 188.043 424.082 187.792 422.865 187.294C421.647 186.797 420.539 186.062 419.604 185.133C418.669 184.204 417.925 183.098 417.415 181.879C416.906 180.66 416.64 179.352 416.633 178.029C416.632 175.324 417.698 172.728 419.597 170.814C421.496 168.899 424.073 167.822 426.761 167.819C429.413 167.872 431.94 168.964 433.805 170.863C435.669 172.762 436.724 175.318 436.745 177.988C436.732 180.659 435.667 183.216 433.784 185.099C431.901 186.982 429.353 188.037 426.699 188.033Z" fill="#7153D8"/>
<path d="M378.388 102.978C381.041 102.986 383.582 104.054 385.453 105.947C387.324 107.841 388.372 110.404 388.367 113.074C388.339 115.744 387.276 118.297 385.404 120.188C383.531 122.079 380.999 123.159 378.347 123.196C372.839 123.196 368.137 118.437 368.255 112.93C368.293 110.259 369.38 107.713 371.279 105.847C373.178 103.982 375.735 102.95 378.388 102.978Z" fill="#7153D8"/>
</g>
<path d="M38.48 79.2C37.2267 79.2 36.14 78.9267 35.22 78.38C34.3133 77.82 33.6067 77.0333 33.1 76.02C32.6067 75.0067 32.36 73.8 32.36 72.4C32.36 71 32.62 69.7933 33.14 68.78C33.6733 67.7667 34.4133 66.9867 35.36 66.44C36.3067 65.88 37.3933 65.6 38.62 65.6C39.9267 65.6 40.9867 65.8467 41.8 66.34C42.6267 66.8333 43.2933 67.5933 43.8 68.62L42.34 69.42C42.0467 68.66 41.58 68.0867 40.94 67.7C40.3133 67.3 39.54 67.1 38.62 67.1C37.7267 67.1 36.9333 67.3133 36.24 67.74C35.56 68.1533 35.02 68.76 34.62 69.56C34.2333 70.3467 34.04 71.2933 34.04 72.4C34.04 73.5067 34.2067 74.46 34.54 75.26C34.8867 76.0467 35.3933 76.6533 36.06 77.08C36.74 77.4933 37.5667 77.7 38.54 77.7C39.0867 77.7 39.5933 77.6333 40.06 77.5C40.54 77.3533 40.9533 77.14 41.3 76.86C41.66 76.58 41.94 76.2267 42.14 75.8C42.34 75.3733 42.44 74.8733 42.44 74.3V73.84H38.24V72.34H43.9V79H42.64L42.56 76.54L42.9 76.6C42.5533 77.4267 42.0067 78.0667 41.26 78.52C40.5133 78.9733 39.5867 79.2 38.48 79.2ZM51.5127 79.2C50.566 79.2 49.7193 78.9933 48.9727 78.58C48.2393 78.1667 47.666 77.5733 47.2527 76.8C46.8393 76.0133 46.6327 75.08 46.6327 74C46.6327 72.92 46.8393 71.9933 47.2527 71.22C47.666 70.4333 48.2327 69.8333 48.9527 69.42C49.6727 69.0067 50.4927 68.8 51.4127 68.8C52.346 68.8 53.1393 69 53.7927 69.4C54.4593 69.8 54.966 70.3467 55.3127 71.04C55.6593 71.72 55.8327 72.4867 55.8327 73.34C55.8327 73.5667 55.826 73.7733 55.8127 73.96C55.7993 74.1467 55.7793 74.3133 55.7527 74.46H47.6727V73.04H55.0527L54.2327 73.2C54.2327 72.24 53.966 71.5 53.4327 70.98C52.9127 70.46 52.226 70.2 51.3727 70.2C50.7193 70.2 50.1527 70.3533 49.6727 70.66C49.206 70.9533 48.8393 71.3867 48.5727 71.96C48.3193 72.52 48.1927 73.2 48.1927 74C48.1927 74.7867 48.326 75.4667 48.5927 76.04C48.8593 76.6133 49.2327 77.0533 49.7127 77.36C50.206 77.6533 50.7927 77.8 51.4727 77.8C52.206 77.8 52.7993 77.66 53.2527 77.38C53.7193 77.1 54.0927 76.72 54.3727 76.24L55.6327 76.98C55.3793 77.4333 55.0527 77.8267 54.6527 78.16C54.266 78.4933 53.806 78.7533 53.2727 78.94C52.7527 79.1133 52.166 79.2 51.5127 79.2ZM60.9427 66.16V76.24C60.9427 76.7333 61.0827 77.1 61.3627 77.34C61.6427 77.58 62.0027 77.7 62.4427 77.7C62.8293 77.7 63.1627 77.6333 63.4427 77.5C63.7227 77.3667 63.976 77.1867 64.2027 76.96L64.7627 78.3C64.456 78.58 64.0893 78.8 63.6627 78.96C63.2493 79.12 62.7693 79.2 62.2227 79.2C61.716 79.2 61.2427 79.1133 60.8027 78.94C60.3627 78.7533 60.0093 78.4667 59.7427 78.08C59.4893 77.68 59.356 77.16 59.3427 76.52V66.6L60.9427 66.16ZM64.5827 69V70.38H57.3427V69H64.5827ZM82.3181 65.8L77.5981 73.84V79H75.9981V73.84L71.2781 65.8H73.1781L75.7381 70.32L76.7981 72.2L77.8581 70.32L80.4181 65.8H82.3181ZM87.0781 68.8C88.0248 68.8 88.8581 69.0067 89.5781 69.42C90.3115 69.8333 90.8848 70.4333 91.2981 71.22C91.7115 71.9933 91.9181 72.92 91.9181 74C91.9181 75.08 91.7115 76.0133 91.2981 76.8C90.8848 77.5733 90.3115 78.1667 89.5781 78.58C88.8581 78.9933 88.0248 79.2 87.0781 79.2C86.1448 79.2 85.3115 78.9933 84.5781 78.58C83.8448 78.1667 83.2715 77.5733 82.8581 76.8C82.4448 76.0133 82.2381 75.08 82.2381 74C82.2381 72.92 82.4448 71.9933 82.8581 71.22C83.2715 70.4333 83.8448 69.8333 84.5781 69.42C85.3115 69.0067 86.1448 68.8 87.0781 68.8ZM87.0781 70.18C86.3981 70.18 85.8181 70.3333 85.3381 70.64C84.8581 70.9467 84.4848 71.3867 84.2181 71.96C83.9648 72.52 83.8381 73.2 83.8381 74C83.8381 74.7867 83.9648 75.4667 84.2181 76.04C84.4848 76.6133 84.8581 77.0533 85.3381 77.36C85.8181 77.6667 86.3981 77.82 87.0781 77.82C87.7581 77.82 88.3381 77.6667 88.8181 77.36C89.2981 77.0533 89.6648 76.6133 89.9181 76.04C90.1848 75.4667 90.3181 74.7867 90.3181 74C90.3181 73.2 90.1848 72.52 89.9181 71.96C89.6648 71.3867 89.2981 70.9467 88.8181 70.64C88.3381 70.3333 87.7581 70.18 87.0781 70.18ZM98.5503 79.2C97.9103 79.2 97.3036 79.08 96.7303 78.84C96.1703 78.6 95.7103 78.2133 95.3503 77.68C95.0036 77.1333 94.8303 76.4267 94.8303 75.56V69H96.4303V75.14C96.4303 76.1533 96.6503 76.8533 97.0903 77.24C97.5303 77.6133 98.1503 77.8 98.9503 77.8C99.3236 77.8 99.6903 77.74 100.05 77.62C100.41 77.4867 100.73 77.2867 101.01 77.02C101.304 76.74 101.53 76.3867 101.69 75.96C101.864 75.5333 101.95 75.0267 101.95 74.44V69H103.55V79H102.15L102.05 77.48C101.704 78.08 101.23 78.52 100.63 78.8C100.044 79.0667 99.3503 79.2 98.5503 79.2ZM107.274 79V69H108.574L108.794 70.64C109.074 70.0267 109.481 69.5667 110.014 69.26C110.561 68.9533 111.221 68.8 111.994 68.8C112.167 68.8 112.354 68.8133 112.554 68.84C112.767 68.8667 112.947 68.92 113.094 69L112.814 70.46C112.667 70.4067 112.507 70.3667 112.334 70.34C112.161 70.3133 111.914 70.3 111.594 70.3C111.181 70.3 110.761 70.42 110.334 70.66C109.921 70.9 109.574 71.2667 109.294 71.76C109.014 72.24 108.874 72.8533 108.874 73.6V79H107.274ZM42.6 91.02H35.48V94.36H41.1V96.6H35.48V102H32.72V88.8H42.6V91.02ZM46.0661 90.56C45.4928 90.56 45.0661 90.44 44.7861 90.2C44.5061 89.9467 44.3661 89.58 44.3661 89.1C44.3661 88.6067 44.5061 88.24 44.7861 88C45.0661 87.7467 45.4928 87.62 46.0661 87.62C46.6394 87.62 47.0661 87.7467 47.3461 88C47.6261 88.24 47.7661 88.6067 47.7661 89.1C47.7661 89.58 47.6261 89.9467 47.3461 90.2C47.0661 90.44 46.6394 90.56 46.0661 90.56ZM47.4261 92V102H44.6861V92H47.4261ZM50.3306 102V92H52.7106L52.8906 93.96C53.1573 93.2667 53.544 92.7333 54.0506 92.36C54.5706 91.9867 55.2173 91.8 55.9906 91.8C56.2173 91.8 56.424 91.82 56.6106 91.86C56.7973 91.9 56.9506 91.9533 57.0706 92.02L56.7506 94.32C56.6173 94.2667 56.4506 94.2267 56.2506 94.2C56.064 94.1733 55.8173 94.16 55.5106 94.16C55.1106 94.16 54.724 94.26 54.3506 94.46C53.9773 94.6467 53.6706 94.94 53.4306 95.34C53.1906 95.7267 53.0706 96.22 53.0706 96.82V102H50.3306ZM62.5142 102.2C61.5009 102.2 60.5742 102.02 59.7342 101.66C58.9076 101.3 58.2342 100.793 57.7142 100.14L59.2942 98.54C59.6142 99.02 60.0409 99.4133 60.5742 99.72C61.1076 100.027 61.7409 100.18 62.4742 100.18C62.9942 100.18 63.4076 100.107 63.7142 99.96C64.0342 99.8 64.1942 99.5533 64.1942 99.22C64.1942 99.0067 64.1209 98.8267 63.9742 98.68C63.8276 98.52 63.5342 98.3933 63.0942 98.3L61.3342 97.94C60.1742 97.7 59.3476 97.34 58.8542 96.86C58.3742 96.3667 58.1342 95.7333 58.1342 94.96C58.1342 94.4133 58.2942 93.9 58.6142 93.42C58.9476 92.94 59.4409 92.5533 60.0942 92.26C60.7476 91.9533 61.5609 91.8 62.5342 91.8C63.5342 91.8 64.4009 91.96 65.1342 92.28C65.8809 92.5867 66.4676 93.0467 66.8942 93.66L65.2542 95.26C64.9609 94.7933 64.5742 94.44 64.0942 94.2C63.6276 93.9467 63.1342 93.82 62.6142 93.82C62.2409 93.82 61.9209 93.86 61.6542 93.94C61.3876 94.02 61.1876 94.1333 61.0542 94.28C60.9209 94.4133 60.8542 94.5867 60.8542 94.8C60.8542 95.0133 60.9476 95.2 61.1342 95.36C61.3209 95.5067 61.6609 95.6333 62.1542 95.74L64.1942 96.16C65.1809 96.36 65.8876 96.7 66.3142 97.18C66.7409 97.6467 66.9542 98.2133 66.9542 98.88C66.9542 99.52 66.7809 100.093 66.4342 100.6C66.1009 101.093 65.6009 101.487 64.9342 101.78C64.2809 102.06 63.4742 102.2 62.5142 102.2ZM72.6792 88.94V98.74C72.6792 99.22 72.7992 99.5733 73.0392 99.8C73.2926 100.013 73.6326 100.12 74.0592 100.12C74.4059 100.12 74.6992 100.073 74.9392 99.98C75.1926 99.8733 75.4192 99.7333 75.6192 99.56L76.0592 101.38C75.7392 101.633 75.3392 101.833 74.8592 101.98C74.3792 102.127 73.8726 102.2 73.3392 102.2C72.6726 102.2 72.0792 102.1 71.5592 101.9C71.0526 101.7 70.6526 101.38 70.3592 100.94C70.0792 100.5 69.9392 99.9133 69.9392 99.18V89.7L72.6792 88.94ZM75.8792 92V94.04H68.0992V92H75.8792ZM95.0003 102H92.1403L91.0403 98.78H85.9803L84.8803 102H82.0603L86.8803 88.8H90.1803L95.0003 102ZM86.6003 96.74H90.4203L88.5003 90.98L86.6003 96.74ZM96.6783 106.2V92H99.1383L99.3183 95.18L98.9783 94.82C99.0983 94.2333 99.3183 93.7133 99.6383 93.26C99.9716 92.8067 100.392 92.4533 100.898 92.2C101.405 91.9333 101.972 91.8 102.598 91.8C103.412 91.8 104.138 92.0067 104.778 92.42C105.418 92.8333 105.918 93.4267 106.278 94.2C106.652 94.96 106.838 95.8867 106.838 96.98C106.838 98.0733 106.652 99.0133 106.278 99.8C105.905 100.573 105.392 101.167 104.738 101.58C104.098 101.993 103.365 102.2 102.538 102.2C101.658 102.2 100.925 101.953 100.338 101.46C99.7649 100.967 99.3716 100.347 99.1583 99.6L99.4183 99.18V106.2H96.6783ZM101.738 100.1C102.472 100.1 103.045 99.84 103.458 99.32C103.885 98.7867 104.098 98.0133 104.098 97C104.098 95.9867 103.892 95.22 103.478 94.7C103.078 94.1667 102.512 93.9 101.778 93.9C101.312 93.9 100.898 94.0267 100.538 94.28C100.192 94.52 99.9183 94.8733 99.7183 95.34C99.5183 95.7933 99.4183 96.3467 99.4183 97C99.4183 97.6267 99.5116 98.18 99.6983 98.66C99.8849 99.1267 100.152 99.4867 100.498 99.74C100.858 99.98 101.272 100.1 101.738 100.1ZM109.217 106.2V92H111.677L111.857 95.18L111.517 94.82C111.637 94.2333 111.857 93.7133 112.177 93.26C112.511 92.8067 112.931 92.4533 113.437 92.2C113.944 91.9333 114.511 91.8 115.137 91.8C115.951 91.8 116.677 92.0067 117.317 92.42C117.957 92.8333 118.457 93.4267 118.817 94.2C119.191 94.96 119.377 95.8867 119.377 96.98C119.377 98.0733 119.191 99.0133 118.817 99.8C118.444 100.573 117.931 101.167 117.277 101.58C116.637 101.993 115.904 102.2 115.077 102.2C114.197 102.2 113.464 101.953 112.877 101.46C112.304 100.967 111.911 100.347 111.697 99.6L111.957 99.18V106.2H109.217ZM114.277 100.1C115.011 100.1 115.584 99.84 115.997 99.32C116.424 98.7867 116.637 98.0133 116.637 97C116.637 95.9867 116.431 95.22 116.017 94.7C115.617 94.1667 115.051 93.9 114.317 93.9C113.851 93.9 113.437 94.0267 113.077 94.28C112.731 94.52 112.457 94.8733 112.257 95.34C112.057 95.7933 111.957 96.3467 111.957 97C111.957 97.6267 112.051 98.18 112.237 98.66C112.424 99.1267 112.691 99.4867 113.037 99.74C113.397 99.98 113.811 100.1 114.277 100.1ZM126.316 91.8C127.33 91.8 128.216 92.0067 128.976 92.42C129.75 92.8333 130.35 93.4267 130.776 94.2C131.216 94.9733 131.436 95.9067 131.436 97C131.436 98.08 131.216 99.0133 130.776 99.8C130.35 100.573 129.75 101.167 128.976 101.58C128.216 101.993 127.33 102.2 126.316 102.2C125.316 102.2 124.43 101.993 123.656 101.58C122.883 101.167 122.276 100.573 121.836 99.8C121.41 99.0133 121.196 98.08 121.196 97C121.196 95.9067 121.41 94.9733 121.836 94.2C122.276 93.4267 122.883 92.8333 123.656 92.42C124.43 92.0067 125.316 91.8 126.316 91.8ZM126.316 93.84C125.81 93.84 125.376 93.96 125.016 94.2C124.67 94.4267 124.403 94.7733 124.216 95.24C124.03 95.7067 123.936 96.2933 123.936 97C123.936 97.7067 124.03 98.2933 124.216 98.76C124.403 99.2267 124.67 99.58 125.016 99.82C125.376 100.047 125.81 100.16 126.316 100.16C126.81 100.16 127.23 100.047 127.576 99.82C127.936 99.58 128.21 99.2267 128.396 98.76C128.583 98.2933 128.676 97.7067 128.676 97C128.676 96.2933 128.583 95.7067 128.396 95.24C128.21 94.7733 127.936 94.4267 127.576 94.2C127.23 93.96 126.81 93.84 126.316 93.84ZM135.109 90.56C134.536 90.56 134.109 90.44 133.829 90.2C133.549 89.9467 133.409 89.58 133.409 89.1C133.409 88.6067 133.549 88.24 133.829 88C134.109 87.7467 134.536 87.62 135.109 87.62C135.682 87.62 136.109 87.7467 136.389 88C136.669 88.24 136.809 88.6067 136.809 89.1C136.809 89.58 136.669 89.9467 136.389 90.2C136.109 90.44 135.682 90.56 135.109 90.56ZM136.469 92V102H133.729V92H136.469ZM139.374 102V92H141.834L141.994 95L141.654 94.68C141.814 94.0267 142.067 93.4933 142.414 93.08C142.76 92.6533 143.18 92.3333 143.674 92.12C144.18 91.9067 144.734 91.8 145.334 91.8C146.027 91.8 146.64 91.9333 147.174 92.2C147.72 92.4667 148.147 92.8733 148.454 93.42C148.774 93.9533 148.934 94.6267 148.934 95.44V102H146.194V96.22C146.194 95.3667 146.027 94.78 145.694 94.46C145.36 94.1267 144.927 93.96 144.394 93.96C144.02 93.96 143.654 94.0533 143.294 94.24C142.947 94.4133 142.66 94.7 142.434 95.1C142.22 95.5 142.114 96.0333 142.114 96.7V102H139.374ZM155.218 88.94V98.74C155.218 99.22 155.338 99.5733 155.578 99.8C155.832 100.013 156.172 100.12 156.598 100.12C156.945 100.12 157.238 100.073 157.478 99.98C157.732 99.8733 157.958 99.7333 158.158 99.56L158.598 101.38C158.278 101.633 157.878 101.833 157.398 101.98C156.918 102.127 156.412 102.2 155.878 102.2C155.212 102.2 154.618 102.1 154.098 101.9C153.592 101.7 153.192 101.38 152.898 100.94C152.618 100.5 152.478 99.9133 152.478 99.18V89.7L155.218 88.94ZM158.418 92V94.04H150.638V92H158.418ZM160.272 102V92H162.732L162.832 93.8C163.165 93.1333 163.619 92.6333 164.192 92.3C164.779 91.9667 165.425 91.8 166.132 91.8C166.852 91.8 167.499 91.9667 168.072 92.3C168.659 92.6333 169.099 93.1267 169.392 93.78C169.605 93.34 169.892 92.9733 170.252 92.68C170.612 92.3867 171.012 92.1667 171.452 92.02C171.892 91.8733 172.339 91.8 172.792 91.8C173.445 91.8 174.039 91.9333 174.572 92.2C175.119 92.4667 175.552 92.8667 175.872 93.4C176.192 93.9333 176.352 94.6133 176.352 95.44V102H173.612V95.98C173.612 95.2467 173.452 94.7267 173.132 94.42C172.812 94.1133 172.399 93.96 171.892 93.96C171.492 93.96 171.119 94.06 170.772 94.26C170.439 94.46 170.172 94.76 169.972 95.16C169.785 95.5467 169.692 96.0333 169.692 96.62V102H166.952V95.98C166.952 95.2467 166.785 94.7267 166.452 94.42C166.132 94.1133 165.719 93.96 165.212 93.96C164.865 93.96 164.519 94.0533 164.172 94.24C163.839 94.4267 163.559 94.72 163.332 95.12C163.119 95.52 163.012 96.0467 163.012 96.7V102H160.272ZM183.818 102.2C182.765 102.2 181.845 101.993 181.058 101.58C180.285 101.167 179.685 100.573 179.258 99.8C178.832 99.0267 178.618 98.0933 178.618 97C178.618 95.9067 178.832 94.9733 179.258 94.2C179.685 93.4267 180.278 92.8333 181.038 92.42C181.812 92.0067 182.692 91.8 183.678 91.8C184.692 91.8 185.552 92.0067 186.258 92.42C186.965 92.82 187.505 93.3733 187.878 94.08C188.252 94.7733 188.438 95.5667 188.438 96.46C188.438 96.7267 188.432 96.98 188.418 97.22C188.405 97.46 188.385 97.6733 188.358 97.86H180.378V95.96H187.158L185.838 96.44C185.838 95.6 185.645 94.9533 185.258 94.5C184.885 94.0467 184.352 93.82 183.658 93.82C183.152 93.82 182.712 93.94 182.338 94.18C181.978 94.42 181.705 94.78 181.518 95.26C181.332 95.7267 181.238 96.32 181.238 97.04C181.238 97.7467 181.338 98.3333 181.538 98.8C181.752 99.2533 182.045 99.5933 182.418 99.82C182.805 100.047 183.265 100.16 183.798 100.16C184.385 100.16 184.858 100.047 185.218 99.82C185.578 99.5933 185.858 99.28 186.058 98.88L188.238 99.72C188.025 100.24 187.698 100.687 187.258 101.06C186.832 101.433 186.318 101.72 185.718 101.92C185.132 102.107 184.498 102.2 183.818 102.2ZM190.76 102V92H193.22L193.38 95L193.04 94.68C193.2 94.0267 193.454 93.4933 193.8 93.08C194.147 92.6533 194.567 92.3333 195.06 92.12C195.567 91.9067 196.12 91.8 196.72 91.8C197.414 91.8 198.027 91.9333 198.56 92.2C199.107 92.4667 199.534 92.8733 199.84 93.42C200.16 93.9533 200.32 94.6267 200.32 95.44V102H197.58V96.22C197.58 95.3667 197.414 94.78 197.08 94.46C196.747 94.1267 196.314 93.96 195.78 93.96C195.407 93.96 195.04 94.0533 194.68 94.24C194.334 94.4133 194.047 94.7 193.82 95.1C193.607 95.5 193.5 96.0333 193.5 96.7V102H190.76ZM206.605 88.94V98.74C206.605 99.22 206.725 99.5733 206.965 99.8C207.218 100.013 207.558 100.12 207.985 100.12C208.332 100.12 208.625 100.073 208.865 99.98C209.118 99.8733 209.345 99.7333 209.545 99.56L209.985 101.38C209.665 101.633 209.265 101.833 208.785 101.98C208.305 102.127 207.798 102.2 207.265 102.2C206.598 102.2 206.005 102.1 205.485 101.9C204.978 101.7 204.578 101.38 204.285 100.94C204.005 100.5 203.865 99.9133 203.865 99.18V89.7L206.605 88.94ZM209.805 92V94.04H202.025V92H209.805Z" fill="white"/>
<path d="M46.136 159.048C44.152 159.048 42.328 158.739 40.664 158.12C39.0213 157.523 37.592 156.648 36.376 155.496C35.1813 154.365 34.2533 152.979 33.592 151.336C32.9307 149.693 32.6 147.827 32.6 145.736C32.6 143.688 32.952 141.811 33.656 140.104C34.36 138.397 35.352 136.925 36.632 135.688C37.912 134.429 39.416 133.469 41.144 132.808C42.872 132.125 44.76 131.784 46.808 131.784C48.7493 131.784 50.4987 132.093 52.056 132.712C53.6133 133.309 54.9467 134.163 56.056 135.272C57.1653 136.381 58.008 137.693 58.584 139.208C59.1813 140.701 59.48 142.333 59.48 144.104C59.48 145.661 59.2773 147.016 58.872 148.168C58.488 149.32 57.9547 150.269 57.272 151.016C56.6107 151.763 55.8747 152.317 55.064 152.68C54.2533 153.043 53.4427 153.224 52.632 153.224C51.2667 153.224 50.2427 152.883 49.56 152.2C48.8987 151.517 48.6 150.632 48.664 149.544C48.1947 150.568 47.5013 151.379 46.584 151.976C45.6667 152.552 44.696 152.84 43.672 152.84C42.6693 152.84 41.7733 152.595 40.984 152.104C40.216 151.592 39.608 150.877 39.16 149.96C38.7333 149.043 38.52 147.955 38.52 146.696C38.52 145.565 38.6907 144.488 39.032 143.464C39.3733 142.44 39.8533 141.533 40.472 140.744C41.0907 139.933 41.8267 139.293 42.68 138.824C43.5547 138.355 44.5253 138.12 45.592 138.12C46.296 138.12 46.9467 138.248 47.544 138.504C48.1413 138.76 48.6533 139.133 49.08 139.624C49.5067 140.115 49.7947 140.733 49.944 141.48L50.68 138.408H54.488L52.248 148.04C52.2053 148.275 52.1627 148.499 52.12 148.712C52.0773 148.925 52.056 149.128 52.056 149.32C52.056 149.896 52.1947 150.301 52.472 150.536C52.7707 150.749 53.1333 150.856 53.56 150.856C54.2213 150.856 54.8293 150.621 55.384 150.152C55.9387 149.661 56.3867 148.925 56.728 147.944C57.0907 146.963 57.272 145.715 57.272 144.2C57.272 142.685 57.016 141.299 56.504 140.04C56.0133 138.76 55.3093 137.672 54.392 136.776C53.4747 135.88 52.376 135.187 51.096 134.696C49.8373 134.205 48.4293 133.96 46.872 133.96C45.144 133.96 43.5653 134.237 42.136 134.792C40.7067 135.347 39.4693 136.136 38.424 137.16C37.3787 138.184 36.568 139.421 35.992 140.872C35.4373 142.323 35.16 143.944 35.16 145.736C35.16 147.549 35.4373 149.149 35.992 150.536C36.568 151.901 37.368 153.053 38.392 153.992C39.416 154.931 40.6 155.635 41.944 156.104C43.288 156.595 44.728 156.84 46.264 156.84C47.8853 156.84 49.1867 156.637 50.168 156.232C51.1707 155.827 52.0453 155.379 52.792 154.888L53.912 156.744C53.336 157.149 52.6853 157.523 51.96 157.864C51.256 158.227 50.4347 158.515 49.496 158.728C48.5573 158.941 47.4373 159.048 46.136 159.048ZM45.272 149.928C46.0187 149.928 46.68 149.661 47.256 149.128C47.832 148.573 48.28 147.869 48.6 147.016C48.92 146.141 49.08 145.224 49.08 144.264C49.08 143.603 48.9733 143.037 48.76 142.568C48.5467 142.099 48.2267 141.736 47.8 141.48C47.3947 141.224 46.904 141.096 46.328 141.096C45.7093 141.096 45.1547 141.256 44.664 141.576C44.1733 141.875 43.7467 142.291 43.384 142.824C43.0427 143.357 42.776 143.955 42.584 144.616C42.4133 145.256 42.328 145.917 42.328 146.6C42.328 147.304 42.4347 147.901 42.648 148.392C42.8827 148.883 43.224 149.267 43.672 149.544C44.12 149.8 44.6533 149.928 45.272 149.928ZM72.9863 153V149.992C74.9063 148.712 76.5276 147.549 77.8503 146.504C79.1943 145.437 80.2716 144.456 81.0823 143.56C81.9143 142.643 82.5116 141.779 82.8743 140.968C83.2583 140.157 83.4503 139.347 83.4503 138.536C83.4503 137.555 83.1516 136.755 82.5543 136.136C81.9569 135.496 81.1143 135.176 80.0263 135.176C78.8316 135.176 77.8929 135.581 77.2103 136.392C76.5489 137.203 76.1863 138.355 76.1223 139.848L72.3143 138.408C72.4209 136.957 72.8049 135.731 73.4663 134.728C74.1489 133.704 75.0663 132.925 76.2183 132.392C77.3916 131.837 78.7463 131.56 80.2823 131.56C81.5623 131.56 82.6716 131.741 83.6103 132.104C84.5703 132.467 85.3703 132.968 86.0103 133.608C86.6503 134.227 87.1196 134.941 87.4183 135.752C87.7383 136.563 87.8983 137.405 87.8983 138.28C87.8983 139.645 87.5569 140.936 86.8743 142.152C86.2129 143.368 85.1889 144.573 83.8023 145.768C82.4156 146.963 80.6556 148.221 78.5223 149.544V149.576C78.8423 149.555 79.2263 149.533 79.6743 149.512C80.1436 149.491 80.6236 149.48 81.1143 149.48C81.6049 149.459 82.0316 149.448 82.3943 149.448H88.2183V153H72.9863ZM99.9885 153.32C97.2792 153.32 95.1885 152.403 93.7165 150.568C92.2658 148.733 91.5405 146.024 91.5405 142.44C91.5405 138.856 92.2658 136.147 93.7165 134.312C95.1885 132.477 97.2792 131.56 99.9885 131.56C102.698 131.56 104.778 132.477 106.229 134.312C107.701 136.147 108.437 138.856 108.437 142.44C108.437 146.024 107.701 148.733 106.229 150.568C104.778 152.403 102.698 153.32 99.9885 153.32ZM99.9885 149.768C100.906 149.768 101.653 149.512 102.229 149C102.826 148.467 103.274 147.667 103.573 146.6C103.871 145.512 104.021 144.125 104.021 142.44C104.021 140.755 103.871 139.379 103.573 138.312C103.274 137.224 102.826 136.424 102.229 135.912C101.653 135.379 100.906 135.112 99.9885 135.112C99.0712 135.112 98.3138 135.379 97.7165 135.912C97.1192 136.424 96.6712 137.224 96.3725 138.312C96.0952 139.379 95.9565 140.755 95.9565 142.44C95.9565 144.125 96.0952 145.512 96.3725 146.6C96.6712 147.667 97.1192 148.467 97.7165 149C98.3138 149.512 99.0712 149.768 99.9885 149.768ZM115.82 153L130.06 131.88H133.58L119.34 153H115.82ZM116.876 131.56C118.028 131.56 119.02 131.805 119.852 132.296C120.706 132.787 121.356 133.48 121.804 134.376C122.274 135.272 122.508 136.317 122.508 137.512C122.508 138.707 122.274 139.752 121.804 140.648C121.356 141.523 120.706 142.216 119.852 142.728C119.02 143.219 118.028 143.464 116.876 143.464C115.746 143.464 114.754 143.219 113.9 142.728C113.047 142.216 112.386 141.523 111.916 140.648C111.468 139.752 111.244 138.707 111.244 137.512C111.244 136.317 111.468 135.272 111.916 134.376C112.386 133.48 113.047 132.787 113.9 132.296C114.754 131.805 115.746 131.56 116.876 131.56ZM116.876 134.6C116.407 134.6 116.002 134.717 115.66 134.952C115.319 135.165 115.063 135.496 114.892 135.944C114.722 136.371 114.636 136.893 114.636 137.512C114.636 138.109 114.722 138.632 114.892 139.08C115.063 139.507 115.319 139.837 115.66 140.072C116.002 140.285 116.407 140.392 116.876 140.392C117.367 140.392 117.772 140.285 118.092 140.072C118.434 139.837 118.69 139.507 118.86 139.08C119.031 138.632 119.116 138.109 119.116 137.512C119.116 136.893 119.031 136.371 118.86 135.944C118.69 135.496 118.434 135.165 118.092 134.952C117.772 134.717 117.367 134.6 116.876 134.6ZM132.492 141.416C133.623 141.416 134.604 141.672 135.436 142.184C136.29 142.675 136.951 143.368 137.42 144.264C137.89 145.139 138.124 146.173 138.124 147.368C138.124 148.563 137.89 149.608 137.42 150.504C136.951 151.4 136.29 152.093 135.436 152.584C134.604 153.075 133.623 153.32 132.492 153.32C131.362 153.32 130.37 153.075 129.516 152.584C128.663 152.093 128.002 151.4 127.532 150.504C127.084 149.608 126.86 148.563 126.86 147.368C126.86 146.173 127.084 145.139 127.532 144.264C128.002 143.368 128.663 142.675 129.516 142.184C130.37 141.672 131.362 141.416 132.492 141.416ZM132.492 144.488C132.002 144.488 131.586 144.605 131.244 144.84C130.924 145.053 130.679 145.373 130.508 145.8C130.338 146.227 130.252 146.749 130.252 147.368C130.252 147.965 130.338 148.488 130.508 148.936C130.679 149.384 130.924 149.725 131.244 149.96C131.586 150.173 132.002 150.28 132.492 150.28C132.983 150.28 133.388 150.173 133.708 149.96C134.05 149.725 134.306 149.384 134.476 148.936C134.647 148.488 134.732 147.965 134.732 147.368C134.732 146.749 134.647 146.227 134.476 145.8C134.306 145.373 134.05 145.053 133.708 144.84C133.388 144.605 132.983 144.488 132.492 144.488ZM160.872 131.56C162.963 131.56 164.765 131.997 166.28 132.872C167.795 133.747 168.957 134.995 169.768 136.616C170.6 138.237 171.016 140.179 171.016 142.44C171.016 144.701 170.6 146.643 169.768 148.264C168.957 149.885 167.795 151.133 166.28 152.008C164.765 152.883 162.963 153.32 160.872 153.32C158.781 153.32 156.968 152.883 155.432 152.008C153.917 151.133 152.744 149.885 151.912 148.264C151.101 146.643 150.696 144.701 150.696 142.44C150.696 140.179 151.101 138.237 151.912 136.616C152.744 134.995 153.917 133.747 155.432 132.872C156.968 131.997 158.781 131.56 160.872 131.56ZM160.872 135.176C159.699 135.176 158.685 135.453 157.832 136.008C157 136.563 156.36 137.384 155.912 138.472C155.485 139.56 155.272 140.883 155.272 142.44C155.272 143.997 155.485 145.32 155.912 146.408C156.36 147.496 157 148.317 157.832 148.872C158.685 149.427 159.699 149.704 160.872 149.704C162.045 149.704 163.048 149.427 163.88 148.872C164.712 148.317 165.341 147.496 165.768 146.408C166.216 145.32 166.44 143.997 166.44 142.44C166.44 140.883 166.216 139.56 165.768 138.472C165.341 137.384 164.712 136.563 163.88 136.008C163.048 135.453 162.045 135.176 160.872 135.176ZM182.159 129.672C182.905 129.672 183.577 129.757 184.175 129.928C184.793 130.077 185.252 130.269 185.551 130.504L184.943 133.416C184.708 133.267 184.441 133.149 184.143 133.064C183.844 132.979 183.492 132.936 183.087 132.936C182.255 132.936 181.593 133.128 181.103 133.512C180.612 133.875 180.367 134.504 180.367 135.4V137.608L180.559 138.472V153H176.175V135.08C176.175 134.184 176.324 133.395 176.623 132.712C176.921 132.029 177.337 131.464 177.871 131.016C178.404 130.568 179.033 130.237 179.759 130.024C180.505 129.789 181.305 129.672 182.159 129.672ZM185.423 137V140.264H173.391V137H185.423ZM194.927 129.672C195.673 129.672 196.345 129.757 196.943 129.928C197.561 130.077 198.02 130.269 198.319 130.504L197.711 133.416C197.476 133.267 197.209 133.149 196.911 133.064C196.612 132.979 196.26 132.936 195.855 132.936C195.023 132.936 194.361 133.128 193.871 133.512C193.38 133.875 193.135 134.504 193.135 135.4V137.608L193.327 138.472V153H188.943V135.08C188.943 134.184 189.092 133.395 189.391 132.712C189.689 132.029 190.105 131.464 190.639 131.016C191.172 130.568 191.801 130.237 192.527 130.024C193.273 129.789 194.073 129.672 194.927 129.672ZM198.191 137V140.264H186.159V137H198.191Z" fill="white"/>
</g>
<defs>
<linearGradient id="paint0_linear_435_997" x1="7.50473e-06" y1="-7.46219" x2="257.152" y2="372.286" gradientUnits="userSpaceOnUse">
<stop stop-color="#7657E1"/>
<stop offset="1" stop-color="#472AAB"/>
</linearGradient>
<clipPath id="clip0_435_997">
<rect width="466" height="222" fill="white"/>
</clipPath>
<clipPath id="clip1_435_997">
<rect width="162.248" height="114.499" fill="white" transform="translate(138.761 49.1592) rotate(150)"/>
</clipPath>
<clipPath id="clip2_435_997">
<rect width="201" height="211" fill="white" transform="translate(302 40)"/>
</clipPath>
</defs>
</svg>
