<svg width="1488" height="297" viewBox="0 0 1488 297" fill="none" xmlns="http://www.w3.org/2000/svg">
<g clip-path="url(#clip0_30_5628)">
<rect width="1488" height="297" rx="12" fill="#F9F3FF"/>
<path fill-rule="evenodd" clip-rule="evenodd" d="M1390.13 84.5558C1382.62 71.5702 1370.26 62.0931 1355.76 58.2092C1341.27 54.3253 1325.82 56.3528 1312.83 63.8456L1190.33 134.479C1177.33 141.971 1167.85 154.316 1163.97 168.796C1160.09 183.277 1162.13 198.707 1169.64 211.693C1177.14 224.678 1189.51 234.155 1204 238.039C1218.5 241.923 1233.94 239.896 1246.94 232.403L1369.43 161.771C1375.87 158.061 1381.51 153.121 1386.03 147.233C1390.55 141.344 1393.87 134.623 1395.79 127.453C1397.71 120.283 1398.2 112.804 1397.23 105.444C1396.26 98.0836 1393.85 90.9857 1390.13 84.5558ZM1243.4 226.285L1365.9 155.654C1377.2 149.061 1385.42 138.266 1388.77 125.629C1392.12 112.992 1390.33 99.5416 1383.78 88.2172C1377.24 76.8928 1366.47 68.616 1353.84 65.1963C1341.2 61.7766 1327.73 63.4921 1316.36 69.9678L1193.87 140.599C1182.57 147.192 1174.35 157.987 1170.99 170.624C1167.64 183.261 1169.44 196.711 1175.98 208.036C1182.53 219.36 1193.3 227.637 1205.93 231.057C1218.56 234.476 1232.04 232.761 1243.4 226.285Z" fill="#7657E1" fill-opacity="0.1"/>
<path fill-rule="evenodd" clip-rule="evenodd" d="M1302.21 45.4913C1320.07 35.1885 1341.31 32.4006 1361.24 37.7411C1381.18 43.0815 1398.18 56.1127 1408.5 73.968C1418.82 91.8233 1421.62 113.04 1416.29 132.951C1410.95 152.862 1397.91 169.835 1380.05 180.138L1257.55 250.768C1239.68 261.071 1218.45 263.859 1198.51 258.518C1178.58 253.178 1161.58 240.147 1151.26 222.291C1140.94 204.436 1138.14 183.219 1143.47 163.309C1148.81 143.398 1161.84 126.424 1179.71 116.121L1302.21 45.4913ZM1376.51 174.018L1254.01 244.648C1237.77 254.014 1218.46 256.548 1200.34 251.693C1182.22 246.838 1166.77 234.992 1157.38 218.759C1148 202.527 1145.45 183.239 1150.3 165.139C1155.16 147.038 1167.01 131.607 1183.25 122.241L1305.74 51.6108C1321.99 42.2446 1341.29 39.7102 1359.42 44.5651C1377.54 49.4201 1392.99 61.2667 1402.37 77.4988C1411.76 93.731 1414.3 113.019 1409.45 131.12C1404.6 149.221 1392.75 164.651 1376.51 174.018Z" fill="#7657E1" fill-opacity="0.1"/>
<path fill-rule="evenodd" clip-rule="evenodd" d="M1426.87 63.3739C1420.36 52.1218 1411.7 42.2587 1401.38 34.3478C1391.06 26.4369 1379.29 20.6331 1366.73 17.2677C1354.16 13.9024 1341.06 13.0414 1328.17 14.734C1315.28 16.4265 1302.85 20.6394 1291.59 27.1322L1169.09 97.7611C1146.35 110.874 1129.76 132.476 1122.97 157.817C1116.18 183.157 1119.75 210.16 1132.88 232.885C1146.02 255.609 1167.65 272.194 1193.02 278.991C1218.39 285.788 1245.42 282.24 1268.16 269.127L1390.65 198.498C1401.91 192.006 1411.78 183.36 1419.7 173.056C1427.61 162.752 1433.41 150.99 1436.78 138.442C1440.14 125.895 1441 112.807 1439.29 99.927C1437.59 87.0468 1433.37 74.626 1426.87 63.3739ZM1264.62 263.007L1387.12 192.378C1408.23 180.202 1423.64 160.142 1429.94 136.612C1436.25 113.081 1432.94 88.007 1420.74 66.9056C1408.54 45.8041 1388.45 30.4038 1364.9 24.0925C1341.34 17.7811 1316.24 21.0758 1295.12 33.2517L1172.63 103.881C1151.51 116.056 1136.11 136.116 1129.8 159.647C1123.5 183.177 1126.81 208.251 1139.01 229.353C1151.21 250.454 1171.29 265.855 1194.85 272.166C1218.41 278.477 1243.51 275.183 1264.62 263.007Z" fill="#7657E1" fill-opacity="0.1"/>
<path fill-rule="evenodd" clip-rule="evenodd" d="M1280.98 8.77134C1308.59 -7.02478 1341.34 -11.2417 1372.07 -2.95542C1402.79 5.33084 1428.98 25.4445 1444.9 52.9786C1460.82 80.5127 1465.17 113.222 1456.99 143.939C1448.81 174.657 1428.78 200.877 1401.28 216.856L1278.79 287.483C1265.11 295.429 1250 300.6 1234.32 302.698C1218.63 304.797 1202.69 303.782 1187.39 299.712C1172.1 295.642 1157.76 288.597 1145.2 278.981C1132.63 269.365 1122.09 257.367 1114.18 243.674C1106.26 229.982 1101.13 214.865 1099.07 199.19C1097.01 183.515 1098.07 167.59 1102.19 152.329C1106.31 137.067 1113.4 122.769 1123.06 110.254C1132.72 97.7389 1144.76 87.2533 1158.49 79.3981L1280.98 8.77134ZM1397.74 210.736L1275.25 281.363C1249.26 296.348 1218.37 300.403 1189.38 292.635C1160.38 284.868 1135.66 265.914 1120.65 239.943C1105.63 213.972 1101.56 183.112 1109.32 154.152C1117.08 125.192 1136.04 100.503 1162.03 85.5175L1284.52 14.8907C1310.51 -0.0947788 1341.4 -4.1497 1370.39 3.618C1399.39 11.3857 1424.11 30.3397 1439.12 56.3104C1454.14 82.2811 1458.21 113.141 1450.45 142.101C1442.69 171.062 1423.73 195.75 1397.74 210.736Z" fill="#7657E1" fill-opacity="0.1"/>
<path fill-rule="evenodd" clip-rule="evenodd" d="M1270.36 -9.5874C1302.84 -28.1825 1341.38 -33.1519 1377.53 -23.4064C1413.69 -13.661 1444.5 10.0042 1463.23 42.4025C1481.96 74.8007 1487.08 113.289 1477.45 149.432C1467.82 185.574 1444.24 216.423 1411.88 235.216L1289.39 305.844C1273.3 315.186 1255.52 321.264 1237.07 323.729C1218.63 326.194 1199.87 324.997 1181.88 320.207C1163.89 315.418 1147.03 307.129 1132.25 295.817C1117.47 284.505 1105.07 270.392 1095.76 254.286C1086.45 238.181 1080.41 220.399 1077.99 201.962C1075.57 183.524 1076.82 164.792 1081.66 146.839C1086.5 128.887 1094.84 112.067 1106.2 97.3442C1117.56 82.6211 1131.72 70.284 1147.87 61.0401L1270.36 -9.5874ZM1408.34 229.096L1285.85 299.723C1254.99 317.519 1218.31 322.334 1183.88 313.11C1149.45 303.886 1120.09 281.378 1102.26 250.538C1084.43 219.698 1079.59 183.052 1088.81 148.662C1098.02 114.272 1120.54 84.9546 1151.4 67.1594L1273.89 -3.46808C1304.76 -21.2632 1341.44 -26.0784 1375.87 -16.8543C1410.3 -7.63026 1439.66 14.8774 1457.48 45.7173C1475.31 76.5573 1480.15 113.203 1470.93 147.593C1461.72 181.983 1439.2 211.301 1408.34 229.096Z" fill="#7657E1" fill-opacity="0.1"/>
<path d="M1206.08 220.1C1206.08 220.1 1212.57 300.264 1213.53 301.406H1241.87V220.1H1206.08Z" fill="#434D91"/>
<path d="M1280.29 220.1H1229.5C1229.5 220.1 1241.78 253.677 1243.19 255.874C1244.5 258.071 1251.18 301.318 1251.18 301.318H1280.29C1280.29 301.318 1280.38 264.839 1280.29 262.554C1280.21 260.269 1283.28 228.625 1280.29 220.1Z" fill="#434D91"/>
<path d="M1243.72 102.758C1237.22 103.022 1232.14 106.45 1229.07 108.911C1225.99 111.284 1210.55 125.967 1209.24 130.359C1207.92 134.751 1206.26 225.904 1208.01 228.629C1209.68 231.442 1227.66 237.858 1235.55 238.298C1243.44 238.737 1277.84 232.409 1280.56 229.859C1283.28 227.309 1289.68 139.5 1288.28 134.137C1286.87 128.775 1264.95 111.372 1260.56 106.362C1258.54 104.077 1246.52 102.582 1243.72 102.758Z" fill="#BEC1DF"/>
<path d="M1230.64 121.832C1230.92 124.47 1231.61 127.049 1232.67 129.479C1233.29 130.181 1238.2 130.534 1238.81 130.094C1239.43 129.655 1242.15 123.854 1242.32 122.799C1242.4 121.66 1238.37 116.822 1236.61 116.557C1234.95 116.206 1230.74 121.041 1230.64 121.832Z" fill="#2F2962"/>
<path d="M1232.67 129.479C1232.67 129.479 1224.68 188.283 1224.16 192.326C1223.72 196.281 1232.75 220.102 1234.25 220.629C1235.74 221.155 1244.33 196.897 1244.86 194.259C1245.38 191.621 1239.33 132.026 1238.89 129.917C1238.72 129.301 1232.75 128.863 1232.67 129.479Z" fill="#2F2962"/>
<path d="M1222.58 282.863C1221.79 285.236 1200.47 278.814 1200.03 275.919C1199.59 273.024 1207.14 205.337 1207.14 200.059C1207.14 194.781 1206.35 136.155 1208.8 129.392C1210.03 125.965 1217.84 118.054 1222.31 113.746C1224.24 111.9 1225.56 110.67 1225.56 110.67C1224.86 113.483 1222.05 151.807 1222.75 177.913C1223.01 186.263 1223.1 199.799 1223.19 214.391V214.748C1223.28 245.598 1223.1 281.193 1222.58 282.863Z" fill="white"/>
<path d="M1212.22 149.783C1212.05 147.058 1221.34 136.159 1221.34 136.159C1221.34 136.159 1213.1 137.478 1213.1 135.632C1213.1 134.049 1220.56 117.612 1222.4 113.745C1224.33 111.898 1226.96 109.789 1226.96 109.789C1226.26 112.602 1222.14 151.892 1222.84 177.908C1223.1 186.259 1223.19 199.795 1223.28 214.387C1222.84 206.039 1212.4 152.423 1212.22 149.783Z" fill="white"/>
<path d="M1212.4 148.993C1215.12 144.51 1221.87 135.893 1221.87 135.893C1221.87 135.893 1213.98 136.25 1213.45 135.536C1213.01 135.105 1220.12 119.371 1222.23 115.058C1222.31 114.97 1222.14 114.882 1222.05 114.97C1218.19 120.601 1211.52 135.807 1212.93 136.247C1215.39 136.628 1217.89 136.775 1220.38 136.686C1217.04 140.525 1214.07 144.676 1211.52 149.08C1211.35 149.607 1214.77 169.824 1216.52 179.405C1218.45 189.864 1220.03 201.731 1222.48 212.015C1222.57 212.191 1222.83 212.103 1222.75 211.927C1221.44 201.732 1214.42 160.42 1212.4 148.993Z" fill="#2F2962"/>
<path d="M1291.71 276.097C1274.78 289.282 1252.05 285.942 1251.26 284.096C1250.83 283.041 1249.51 249.377 1249.07 216.239V215.8C1248.81 193.211 1248.9 170.969 1249.95 159.367C1251.64 141.372 1255.11 123.589 1260.3 106.276C1261.11 106.684 1261.85 107.218 1262.49 107.858C1268.99 113.044 1287.15 129.833 1286.97 132.997C1286.71 136.689 1285.83 185.473 1287.32 206.744C1288.72 227.927 1294.08 274.25 1291.71 276.097Z" fill="white"/>
<path d="M1282.59 234.699C1282.5 234.436 1281.8 234.342 1281.62 234.342C1273.73 235.748 1266.01 237.506 1257.93 238.122C1257.85 238.122 1257.85 238.21 1257.93 238.21C1265.99 238.12 1274 237.057 1281.8 235.045C1282.3 236.809 1282.71 238.597 1283.02 240.404C1275.83 242.165 1268.48 243.226 1261.09 243.571C1261 243.571 1261 243.66 1261.09 243.66C1268.37 244.45 1276.18 243.044 1283.11 240.935C1283.78 244.467 1284.1 248.057 1284.07 251.653C1284.07 253.587 1284.51 258.246 1283.11 259.827C1281.44 261.761 1277.49 262.64 1275.12 263.162C1272.08 263.777 1268.95 263.777 1265.91 263.162C1264.07 262.804 1262.66 262.459 1261.61 260.525C1261 259.306 1258.81 244.978 1258.29 239.352C1258.29 239.335 1258.28 239.318 1258.28 239.302C1258.27 239.286 1258.26 239.271 1258.25 239.259C1258.23 239.247 1258.22 239.237 1258.2 239.231C1258.19 239.224 1258.17 239.22 1258.15 239.22C1258.14 239.22 1258.12 239.224 1258.1 239.231C1258.09 239.237 1258.07 239.247 1258.06 239.259C1258.05 239.271 1258.04 239.286 1258.03 239.302C1258.02 239.318 1258.02 239.335 1258.02 239.352C1258.11 245.857 1259.07 256.228 1260.74 260.712C1262.41 265.106 1270.04 264.761 1273.81 264.227C1276.88 263.788 1280.92 263.172 1283.46 261.415C1285.13 260.271 1285.04 259.041 1285.13 256.932C1285.49 249.433 1284.63 241.925 1282.59 234.699Z" fill="#2F2962"/>
<path d="M1274.07 163.232C1271.09 162.968 1258.81 163.672 1255.65 164.023C1255.47 164.023 1255.47 164.38 1255.65 164.38C1258.81 164.462 1272.67 163.758 1273.19 163.935C1273.63 164.111 1273.55 166.748 1273.19 166.836C1272.49 167.193 1258.81 167.275 1255.56 167.363C1255.04 167.363 1254.95 168.242 1255.56 168.242C1261.7 168.066 1267.84 167.885 1273.9 167.54C1273.96 167.543 1274.01 167.534 1274.07 167.513C1274.12 167.492 1274.17 167.46 1274.22 167.419C1274.26 167.377 1274.29 167.327 1274.31 167.272C1274.33 167.217 1274.34 167.159 1274.34 167.1C1274.43 165.805 1274.34 164.503 1274.07 163.232Z" fill="#2F2962"/>
<path d="M1258.11 133.434C1257.93 133.792 1266.79 142.312 1267.32 143.631C1267.85 144.861 1255.38 178.35 1252.84 188.458C1250.21 198.567 1249.07 216.323 1249.07 216.323V215.884C1248.81 193.293 1248.9 171.055 1249.95 159.452C1251.67 141.205 1254.87 123.127 1259.51 105.395C1259.69 105.395 1261.27 106.889 1262.49 107.856C1262.67 108.559 1268.55 130.535 1268.63 131.237C1268.72 131.94 1258.28 133.083 1258.11 133.434Z" fill="white"/>
<path d="M1262.75 108.467C1262.67 108.291 1262.58 108.291 1262.58 108.555C1263.98 116.214 1265.83 123.786 1268.11 131.233C1264.6 131.849 1257.93 133.167 1257.84 133.342C1257.58 133.605 1260.47 137.122 1262.05 138.701C1263.66 140.487 1265.36 142.189 1267.14 143.799C1262.23 154.793 1251.96 188.721 1250.91 194.347C1249.96 200.259 1249.32 206.215 1248.98 212.194C1248.98 212.282 1249.07 212.282 1249.07 212.194C1249.86 205.953 1250.56 199.624 1251.88 193.378C1253.02 187.84 1263.98 154.966 1267.84 143.891C1267.93 143.628 1259.77 135.013 1258.28 133.607C1261.62 133.079 1268.98 131.939 1268.89 131.673C1266.7 123.94 1264.68 116.208 1262.75 108.467Z" fill="#2F2962"/>
<path d="M1272.06 194.613C1272.07 195.548 1271.89 196.476 1271.53 197.338C1270.74 197.778 1267.41 199.363 1262.93 201.206C1262.14 201.563 1261.26 201.822 1260.39 202.173C1257.93 203.14 1248.98 207.711 1238.98 212.458C1225.65 218.873 1210.29 225.73 1205.91 225.026C1198.19 223.708 1187.4 214.392 1186.61 209.033C1185.82 203.674 1202.05 140.292 1204.06 135.986C1205.69 132.256 1207.92 128.813 1210.64 125.789L1207.31 195.576C1207.52 195.443 1207.76 195.353 1208.01 195.312C1210.46 194.434 1218.8 192.148 1228.28 189.596C1244.24 185.377 1263.72 180.631 1264.95 181.071L1266.26 181.598C1271.27 184.066 1272.23 190.834 1272.06 194.613Z" fill="white"/>
<path d="M1262.93 201.116C1262.14 201.474 1261.26 201.732 1260.39 202.083C1257.93 203.05 1248.98 207.621 1238.98 212.368C1236.7 211.05 1234.42 209.731 1232.22 208.413C1226.79 205.249 1221.17 202.173 1215.82 198.832C1215.38 198.59 1214.96 198.295 1214.59 197.953C1214.27 197.935 1213.94 197.965 1213.63 198.042C1211.87 198.128 1208.19 197.952 1208.01 195.755V195.227C1210.47 194.347 1218.8 192.063 1228.28 189.515C1236.9 189.039 1245.49 190.829 1253.19 194.705C1256.66 196.488 1259.92 198.637 1262.93 201.116Z" fill="#BEC1DF"/>
<path d="M1272.58 194.613C1272.54 195.321 1272.45 196.025 1272.32 196.722C1272.41 196.899 1272.15 197.162 1271.97 197.25C1262.67 202.609 1234.42 215.351 1227.4 218.434C1223.28 220.279 1209.24 226.959 1204.95 224.85C1204.86 224.762 1204.86 224.674 1204.95 224.762H1205.03C1208.98 225.378 1224.07 219.136 1238.89 212.28C1241.35 211.137 1243.89 209.995 1246.26 208.852C1246.3 208.818 1246.34 208.793 1246.39 208.778C1246.43 208.762 1246.48 208.758 1246.53 208.763C1251.62 206.39 1256.35 204.017 1260.39 202.084H1260.48C1261.27 201.644 1262.06 201.293 1262.85 200.94C1268.28 198.304 1271.79 196.546 1271.79 196.546C1272.06 193.212 1271.97 184.152 1264.86 181.422C1254.16 184.235 1242.14 186.871 1231.35 189.596C1231 189.684 1230.56 189.772 1230.21 189.859C1224.6 191.354 1218.89 192.847 1213.28 194.43C1211.54 194.875 1209.86 195.524 1208.28 196.364C1207.28 196.901 1206.36 197.583 1205.56 198.388C1203.54 200.234 1201.7 202.168 1199.6 204.014C1199.51 204.102 1199.33 203.926 1199.42 203.838C1201.7 201.113 1203.98 198.037 1206.97 195.927C1206.7 187.401 1206.53 178.874 1206.27 170.442C1205.87 169.823 1205.61 169.136 1205.48 168.417C1205.22 167.497 1205.04 166.556 1204.95 165.604C1204.95 165.428 1205.13 165.341 1205.21 165.516C1205.4 166.417 1205.66 167.3 1206 168.153C1206.11 168.351 1206.19 168.557 1206.27 168.768C1206.17 165.255 1206.09 161.65 1206 158.135H1206.09C1207.33 167.929 1207.92 177.796 1207.84 187.669V195.58C1208.66 195.118 1209.51 194.707 1210.38 194.35C1216 192.504 1221.88 191.186 1227.58 189.691C1234.25 187.934 1241.44 186.263 1248.55 184.681C1248.72 184.681 1248.9 184.593 1249.07 184.593C1253.55 183.626 1258.02 182.569 1262.32 181.605C1263.2 181.429 1263.99 181.248 1264.86 181.078C1265.52 181.22 1266.15 181.488 1266.71 181.868C1269.08 182.922 1273.11 186.438 1272.58 194.613Z" fill="#2F2962"/>
<path d="M1225.56 186.086C1223.52 187.715 1221.75 189.642 1220.29 191.802C1219.14 193.346 1218.26 195.067 1217.66 196.898C1216.93 196.942 1216.19 196.883 1215.47 196.722C1214.74 196.605 1214.06 196.301 1213.49 195.838C1212.92 195.375 1212.48 194.771 1212.22 194.085L1208.01 195.315C1206.26 194.613 1208.45 191.887 1208.45 191.887C1208.36 190.833 1210.38 189.426 1210.38 189.426C1210.64 188.283 1213.19 187.317 1213.19 187.317C1213.19 187.317 1213.98 186.262 1216.96 185.734C1218.8 185.383 1222.84 185.823 1225.56 186.086Z" fill="#FADAD4"/>
<path d="M1300.57 206.212C1300.57 209.547 1289.69 226.077 1282.49 225.11C1270.65 223.617 1220.56 199.005 1218.1 198.477C1217.57 198.389 1217.49 197.775 1217.75 196.895C1218.34 195.064 1219.23 193.342 1220.38 191.796C1221.79 189.598 1223.57 187.664 1225.64 186.08C1226.06 185.759 1226.54 185.521 1227.05 185.377C1230.29 184.41 1260.12 189.597 1272.58 192.057C1275.83 192.673 1277.93 193.112 1278.02 193.2C1278.19 193.2 1278.37 188.806 1278.63 182.125C1279.34 162.7 1280.12 124.115 1280.12 124.115C1283.9 127.983 1291.44 135.367 1292.84 138.004C1294.25 140.64 1300.48 202.873 1300.57 206.212Z" fill="white"/>
<path d="M1286.46 197.423C1284.19 195.776 1281.75 194.39 1279.17 193.292C1280.93 192.853 1283.56 193.732 1284.96 193.908C1285.23 193.908 1285.23 193.551 1285.05 193.468C1283.53 192.915 1281.93 192.618 1280.32 192.59C1279.81 192.584 1279.3 192.673 1278.82 192.853C1279.69 181.846 1279.54 170.784 1278.38 159.804C1278.38 159.628 1278.03 159.628 1278.03 159.804V168.594C1277.77 167.364 1277.42 166.133 1277.07 164.991C1277.07 164.902 1276.98 164.902 1276.98 164.991C1277.51 167.627 1277.51 170.35 1278.03 172.99C1278.03 179.583 1278.12 186.262 1278.03 192.855C1271.71 190.57 1235.4 184.241 1227.06 185.208C1226.51 185.315 1226 185.557 1225.57 185.911C1225.4 186.087 1225.4 186.268 1225.48 186.174C1226.04 185.824 1226.67 185.613 1227.32 185.559C1236.19 185.47 1271.8 191.624 1278.03 193.909C1278.07 193.943 1278.11 193.968 1278.15 193.983C1278.2 193.998 1278.25 194.003 1278.3 193.997C1281.06 194.991 1283.73 196.227 1286.28 197.689C1286.81 197.864 1286.81 197.688 1286.46 197.423Z" fill="#2F2962"/>
<path d="M1288.47 222.829C1287.1 223.859 1285.51 224.553 1283.82 224.853C1281.36 225.293 1274.61 222.656 1270.49 221.073C1264.17 218.7 1258.03 215.887 1251.97 212.987C1246.45 210.35 1240.92 207.802 1235.39 205.34C1232.5 204.018 1229.51 202.788 1226.62 201.558C1224.87 200.854 1219.08 198.745 1218.02 198.041C1217.67 197.778 1217.93 197.162 1217.85 196.723C1217.85 196.635 1217.67 196.547 1217.58 196.723C1217.45 197.241 1217.36 197.771 1217.32 198.306C1217.32 198.394 1217.41 198.482 1217.5 198.569C1231.18 204.285 1244.6 210.611 1258.03 216.852C1263.82 219.647 1269.8 222.026 1275.92 223.972C1278.29 224.675 1281.28 225.818 1283.91 225.555C1284.84 225.469 1285.74 225.191 1286.56 224.737C1287.38 224.283 1288.09 223.663 1288.65 222.918C1288.82 222.917 1288.64 222.742 1288.47 222.829Z" fill="#2F2962"/>
<path d="M1288.55 191.62C1288.55 191.62 1289.07 192.85 1288.72 193.466C1288.16 193.997 1287.54 194.469 1286.88 194.872C1286.88 194.872 1279.51 193.554 1278.11 193.205C1277.93 193.117 1275.91 192.678 1272.67 192.062C1272.32 185.731 1268.89 182.83 1266.79 181.6C1268.37 181.6 1274.86 181.776 1278.72 182.127C1279.64 182.172 1280.55 182.319 1281.44 182.567C1283.72 183.269 1289.33 189.593 1289.25 190.39C1289.12 190.85 1288.87 191.272 1288.55 191.62Z" fill="#FADAD4"/>
<path d="M1260.66 108.555C1259.35 100.814 1246.8 100.556 1240.92 100.908C1233.46 101.348 1227.23 103.37 1225.38 111.105C1223.54 118.84 1223.81 127.278 1224.34 135.095C1224.35 135.391 1224.25 135.68 1224.05 135.901C1223.85 136.122 1223.58 136.259 1223.28 136.282C1222.99 136.304 1222.69 136.212 1222.46 136.024C1222.24 135.835 1222.09 135.566 1222.06 135.272C1221.53 126.223 1219.6 109.253 1227.23 102.666C1234.86 96.1614 1260.74 95.2825 1262.94 108.382C1263.11 109.786 1260.92 109.967 1260.66 108.555Z" fill="#2F2962"/>
<path d="M1218.2 139.931C1218.31 141.312 1218.96 142.593 1220.01 143.498C1221.06 144.403 1222.43 144.858 1223.81 144.766C1225.19 144.649 1226.47 143.993 1227.38 142.94C1228.28 141.888 1228.73 140.523 1228.64 139.14C1228.52 137.76 1227.87 136.479 1226.82 135.574C1225.77 134.67 1224.41 134.214 1223.02 134.307C1221.64 134.424 1220.36 135.08 1219.46 136.132C1218.55 137.184 1218.1 138.549 1218.2 139.931Z" fill="#768FF6"/>
<path d="M1220.3 139.755C1220.34 140.17 1220.45 140.573 1220.64 140.943C1220.83 141.312 1221.1 141.641 1221.41 141.91C1221.73 142.178 1222.1 142.381 1222.5 142.508C1222.89 142.635 1223.31 142.682 1223.73 142.647C1224.14 142.613 1224.54 142.497 1224.91 142.306C1225.28 142.116 1225.61 141.854 1225.88 141.536C1226.15 141.219 1226.35 140.852 1226.48 140.455C1226.61 140.059 1226.66 139.642 1226.62 139.228C1226.59 138.812 1226.48 138.406 1226.29 138.035C1226.1 137.663 1225.83 137.333 1225.52 137.063C1225.2 136.793 1224.83 136.589 1224.43 136.463C1224.03 136.336 1223.61 136.29 1223.2 136.327C1222.36 136.407 1221.59 136.811 1221.05 137.451C1220.51 138.092 1220.24 138.919 1220.3 139.755Z" fill="#E4EFF8"/>
<path d="M1258.73 134.223C1258.3 156.901 1260.4 161.911 1262.77 163.932C1264.51 165.317 1266.55 166.279 1268.73 166.745L1268.99 165.162C1267.08 164.737 1265.28 163.896 1263.73 162.701C1262.07 161.207 1259.79 156.731 1260.23 134.223H1258.73Z" fill="#BEC1DF"/>
<path d="M1266.72 164.638L1266.37 166.044C1266.33 166.171 1266.32 166.303 1266.34 166.434C1266.36 166.564 1266.4 166.69 1266.46 166.805C1266.53 166.919 1266.62 167.019 1266.72 167.1C1266.82 167.18 1266.94 167.24 1267.07 167.274L1270.49 168.241C1270.62 168.276 1270.75 168.285 1270.88 168.269C1271.01 168.252 1271.14 168.21 1271.25 168.145C1271.37 168.08 1271.47 167.993 1271.55 167.888C1271.63 167.784 1271.69 167.666 1271.72 167.539L1272.07 166.132C1272.11 166.005 1272.12 165.873 1272.1 165.742C1272.08 165.611 1272.04 165.485 1271.98 165.371C1271.91 165.256 1271.82 165.156 1271.72 165.075C1271.61 164.995 1271.5 164.935 1271.37 164.901L1267.95 163.934C1267.82 163.894 1267.69 163.88 1267.55 163.894C1267.42 163.909 1267.29 163.95 1267.18 164.016C1267.06 164.082 1266.96 164.172 1266.88 164.279C1266.8 164.386 1266.75 164.508 1266.72 164.638Z" fill="#768FF6"/>
<path d="M1272.77 131.41C1280.93 146.44 1284.09 154.967 1282.68 158.308C1281.88 160.079 1280.68 161.643 1279.17 162.878L1280.14 164.109C1281.88 162.688 1283.26 160.882 1284.17 158.834C1285.75 154.879 1282.86 146.705 1274.17 130.531L1272.77 131.41Z" fill="#BEC1DF"/>
<path d="M1280.93 161.297L1281.89 162.352C1281.98 162.45 1282.05 162.564 1282.09 162.688C1282.14 162.812 1282.16 162.943 1282.15 163.074C1282.14 163.205 1282.1 163.333 1282.05 163.451C1281.99 163.568 1281.91 163.673 1281.81 163.759L1279.18 166.131C1279.08 166.219 1278.97 166.287 1278.84 166.331C1278.72 166.374 1278.59 166.392 1278.46 166.384C1278.32 166.376 1278.2 166.342 1278.08 166.283C1277.96 166.224 1277.86 166.143 1277.77 166.043L1276.81 164.989C1276.72 164.891 1276.65 164.777 1276.61 164.653C1276.56 164.53 1276.54 164.398 1276.55 164.267C1276.56 164.136 1276.6 164.008 1276.65 163.89C1276.71 163.773 1276.79 163.668 1276.89 163.582L1279.53 161.209C1279.62 161.12 1279.74 161.052 1279.86 161.009C1279.98 160.965 1280.12 160.947 1280.25 160.955C1280.38 160.963 1280.51 160.998 1280.62 161.057C1280.74 161.115 1280.84 161.197 1280.93 161.297Z" fill="#768FF6"/>
<path d="M1274.52 129.828C1272.95 126.435 1271.16 123.146 1269.17 119.984C1268.1 118.634 1266.72 117.576 1265.13 116.908C1264.78 116.995 1264.25 114.182 1263.9 111.985C1263.55 109.969 1263.2 107.679 1262.59 107.151C1262.42 107.033 1262.24 106.951 1262.04 106.909C1261.84 106.867 1261.64 106.866 1261.44 106.907C1261.24 106.948 1261.05 107.03 1260.89 107.147C1260.72 107.264 1260.59 107.414 1260.48 107.587C1260.13 108.29 1260.57 110.575 1261.01 112.509C1261.45 114.706 1261.97 117.519 1261.71 117.519C1260.55 118.731 1259.7 120.213 1259.25 121.83C1258.56 125.603 1258.18 129.427 1258.11 133.263C1258.2 135.636 1258.99 135.811 1259.69 135.811C1260.66 135.899 1261.1 135.108 1261.27 132.382C1261.45 128.075 1261.27 120.95 1264.08 120.34C1266.89 119.983 1269.78 126.845 1271.62 130.625C1272.76 132.998 1273.38 133.086 1274.25 132.649C1274.87 132.378 1275.48 131.938 1274.52 129.828Z" fill="#768FF6"/>
<path d="M1250.39 95.6359C1252.5 96.5147 1259.78 106.272 1259.51 107.678C1259.25 109.085 1260.13 126.753 1244.07 133.609L1236.18 118.752L1228.28 130.971C1228.28 130.971 1223.72 121.214 1223.89 118.84C1224.07 116.38 1225.92 104.338 1235.3 98.2725C1242.41 93.6137 1246 93.7018 1250.39 95.6359Z" fill="#BEC1DF"/>
<path d="M1259.34 107.413C1258.55 117.082 1254.34 129.652 1244.34 132.991C1241.62 128.245 1238.81 123.583 1236.45 118.664C1236.36 118.488 1236.18 118.488 1236.01 118.576C1235.92 118.576 1230.39 126.662 1228.2 130.618C1226.98 127.858 1225.99 125.008 1225.22 122.092C1223.99 118.137 1224.52 115.066 1225.74 111.193C1225.74 111.105 1225.66 111.017 1225.57 111.105C1224.16 114.269 1223.2 117.435 1224.16 120.862C1225 124.419 1226.23 127.87 1227.85 131.147C1227.88 131.18 1227.92 131.205 1227.97 131.221C1228.01 131.236 1228.06 131.241 1228.11 131.235C1228.2 131.235 1228.29 131.235 1228.29 131.147C1231.01 127.367 1233.29 123.236 1236.09 119.456C1238.46 124.378 1241.18 129.125 1243.81 133.52C1243.9 133.697 1244.43 133.608 1244.43 133.608C1254.87 130.274 1259.69 117.523 1259.43 107.409C1259.43 107.327 1259.34 107.327 1259.34 107.413Z" fill="#2F2962"/>
<path d="M1227.41 84.3872L1228.64 107.24L1228.81 110.405C1229.23 112.363 1230.21 114.155 1231.65 115.549C1233.09 116.942 1234.91 117.875 1236.89 118.228C1243.82 119.458 1254.26 110.228 1255.04 108.471C1255.48 107.592 1255.83 99.4199 1256.1 91.5945C1256.36 84.2122 1256.45 77.0918 1256.45 77.0918L1253.2 77.8826L1227.41 84.3872Z" fill="#FADAD4"/>
<path d="M1227.41 84.387L1228.64 107.24C1236.28 106.068 1243.48 102.916 1249.52 98.0989C1251.94 96.2107 1254.15 94.0586 1256.1 91.6824C1256.36 84.3 1256.45 77.1797 1256.45 77.1797L1253.2 77.9704L1227.41 84.387Z" fill="#DEA89E"/>
<path d="M1260.65 45.2721C1265.39 56.0831 1261.18 82.9806 1253.02 92.21C1247.41 98.4503 1235.21 100.472 1226.18 96.6926C1221.98 95.1439 1218.55 92.0227 1216.61 87.9907C1210.47 74.7182 1216 42.9868 1222.67 37.9731C1234.34 29.276 1254.77 32.1723 1260.65 45.2721Z" fill="#FADAD4"/>
<path d="M1239.25 69.6217C1239.25 69.5335 1239.33 69.7098 1239.33 69.7979C1239.16 71.4652 1239.25 73.4016 1240.65 74.1054C1240.73 74.1054 1240.65 74.1935 1240.65 74.1935C1238.9 73.7529 1238.81 71.2044 1239.25 69.6217Z" fill="#2F2962"/>
<path d="M1240.91 67.9512C1243.63 67.9512 1243.37 73.4007 1240.91 73.4007C1238.46 73.4007 1238.63 67.9512 1240.91 67.9512Z" fill="#2F2962"/>
<path d="M1226.08 68.6529C1226.08 68.5648 1225.9 68.7411 1225.9 68.8292C1225.9 70.4964 1225.55 72.4328 1224.06 72.9604C1223.97 72.9604 1223.97 73.0485 1224.06 73.0485C1225.99 72.7841 1226.34 70.2356 1226.08 68.6529Z" fill="#2F2962"/>
<path d="M1224.68 66.8054C1221.96 66.4529 1221.52 71.9037 1224.07 72.255C1226.52 72.5182 1226.96 67.0686 1224.68 66.8054Z" fill="#2F2962"/>
<path d="M1236.97 84.8277C1236.53 85.1849 1236.09 85.7065 1235.48 85.7947C1234.86 85.7547 1234.26 85.5743 1233.72 85.2671C1233.63 85.2671 1233.63 85.2671 1233.63 85.354C1233.84 85.7068 1234.16 85.9874 1234.53 86.1597C1234.91 86.3321 1235.33 86.3882 1235.73 86.3211C1236.52 86.2341 1236.88 85.5303 1237.14 84.9098C1237.14 84.8277 1236.97 84.7395 1236.97 84.8277Z" fill="#DEA89E"/>
<path d="M1243.19 65.5769C1242.48 65.352 1241.77 65.088 1241.09 64.7861C1240.3 64.4348 1239.6 64.2586 1239.16 63.556C1239.05 63.3237 1239.01 63.0626 1239.06 62.81C1239.11 62.5574 1239.23 62.3262 1239.42 62.1495C1239.84 61.8636 1240.33 61.6964 1240.84 61.6654C1241.35 61.6344 1241.86 61.7407 1242.32 61.9733C1243.32 62.304 1244.16 62.9928 1244.68 63.9073C1245.21 64.7861 1244.16 65.8413 1243.19 65.5769Z" fill="#2F2962"/>
<path d="M1222.66 63.9963C1223.4 63.8922 1224.13 63.7455 1224.86 63.5568C1225.64 63.506 1226.38 63.1968 1226.96 62.678C1227.11 62.4739 1227.19 62.2276 1227.19 61.9747C1227.19 61.7219 1227.11 61.4756 1226.96 61.2715C1226.6 60.9187 1226.14 60.6742 1225.65 60.5655C1225.15 60.4568 1224.63 60.488 1224.15 60.6558C1223.64 60.7139 1223.14 60.8764 1222.69 61.1333C1222.23 61.3902 1221.84 61.7363 1221.52 62.1504C1220.82 62.853 1221.7 64.0844 1222.66 63.9963Z" fill="#2F2962"/>
<path d="M1231 80.9602C1231 80.9602 1232.4 84.4793 1235.04 83.8636C1237.05 83.4242 1236.09 79.293 1236.09 79.293C1234.61 80.3697 1232.83 80.9531 1231 80.9602Z" fill="white"/>
<path d="M1236.25 79.3755C1235.8 80.0292 1235.22 80.5791 1234.54 80.9884C1233.86 81.3977 1233.1 81.657 1232.31 81.7489C1231.61 81.8368 1230.9 81.8368 1230.2 81.7489C1230.03 81.7489 1229.94 81.7489 1229.85 81.6608C1229.73 81.6752 1229.6 81.6444 1229.5 81.5739C1229.32 81.5739 1229.23 81.3976 1229.15 81.2166V80.8593C1229.17 79.7713 1229.26 78.6856 1229.41 77.607C1228.88 77.7833 1226.43 78.8372 1226.51 78.1346C1226.91 72.2849 1227.88 66.4882 1229.41 60.8285C1229.5 60.6522 1229.76 60.7404 1229.68 60.9166C1229.33 66.3662 1228.1 71.6347 1227.66 77.0902C1228.52 76.7133 1229.44 76.4761 1230.38 76.3875C1230.55 76.4757 1229.94 80.1674 1229.94 80.7819V80.8701C1232.13 81.2273 1233.8 80.6069 1235.99 79.2874C1236.25 79.2004 1236.34 79.2874 1236.25 79.3755Z" fill="#DEA89E"/>
<path d="M1221.44 45.6247C1215.73 54.7672 1214.86 69.5331 1213.72 65.309C1209.86 51.5149 1216.7 43.5156 1216.7 43.5156C1216.7 43.5156 1222.14 44.5708 1221.44 45.6247Z" fill="#2F2962"/>
<path d="M1258.9 74.1034C1258.9 74.1034 1248.46 71.9943 1251.53 49.8437C1245.5 52.413 1238.89 53.294 1232.4 52.3922C1221 50.9869 1214.86 46.1519 1211.26 38.3289C1210.12 35.7804 1216.26 39.3841 1218.98 38.2408C1223.81 36.1317 1228.54 29.8903 1241.52 30.1546C1254.5 30.419 1257.93 39.2054 1257.93 39.2054C1257.93 39.2054 1264.95 41.3145 1267.67 47.4679C1270.48 53.4473 1265.57 74.1034 1258.9 74.1034Z" fill="#2F2962"/>
<path d="M1255.21 73.4C1255.21 73.4 1260.47 64.4338 1264.51 66.2797C1268.55 68.1256 1264.95 80.7836 1260.57 82.8045C1260.02 83.1024 1259.42 83.2865 1258.8 83.3455C1258.19 83.4046 1257.56 83.3373 1256.97 83.1479C1256.38 82.9585 1255.83 82.6509 1255.36 82.2438C1254.9 81.8367 1254.52 81.3387 1254.25 80.78L1255.21 73.4Z" fill="#FADAD4"/>
<path d="M1263.45 69.8828C1263.54 69.8828 1263.54 69.9709 1263.45 69.9709C1260.38 71.4655 1258.89 74.5416 1258.01 77.7118C1258.89 76.4816 1260.12 75.6872 1261.79 76.7447C1261.87 76.8329 1261.79 76.921 1261.7 76.921C1261.12 76.7786 1260.52 76.8201 1259.97 77.0397C1259.41 77.2593 1258.95 77.646 1258.63 78.1452C1258.1 78.9784 1257.66 79.8616 1257.32 80.7819C1257.22 81.0463 1256.7 80.9581 1256.78 80.6009V80.5187C1256.43 76.4756 1259.15 70.5854 1263.45 69.8828Z" fill="#DEA89E"/>
<path d="M1249.06 94.1441C1253.62 92.1196 1258.27 89.7497 1261.26 85.3542C1263.54 82.272 1265.05 78.6835 1265.65 74.8945C1265.23 76.393 1264.64 77.8384 1263.89 79.202C1263.12 80.5955 1262.11 81.8447 1260.91 82.8938C1258.12 87.5685 1253.91 91.2324 1248.89 93.3534C1248.36 93.5285 1248.62 94.3204 1249.06 94.1441Z" fill="white"/>
<path d="M1253.89 76.4773C1254.68 75.4222 1257.22 70.1489 1259.5 68.2197C1259.83 67.8739 1260.18 67.5508 1260.56 67.2527C1261.18 66.7374 1261.89 66.3475 1262.66 66.1046C1262.03 65.8218 1261.32 65.7602 1260.64 65.9296C1257.13 66.6322 1254.76 73.5787 1253.45 76.3011C1253.45 76.3892 1253.71 76.6524 1253.89 76.4773Z" fill="white"/>
<path d="M1254.59 75.2463C1255.21 73.928 1245.73 78.4986 1235.91 76.4765C1233.89 76.037 1228.27 73.8398 1225.2 73.8398C1222.04 73.8398 1218.45 76.3884 1214.14 76.8278C1212.65 77.004 1213.97 89.749 1217.74 95.3748C1218.97 97.2207 1224.23 101.001 1227.48 101.352C1235.02 102.143 1248.01 96.6931 1250.03 94.1446C1251.52 92.1225 1249.07 87.6399 1254.59 75.2463Z" fill="white"/>
<path d="M1215.2 79.6422C1217.94 78.4448 1220.79 77.5318 1223.71 76.9175C1226.26 76.3899 1228.54 77.3569 1230.91 78.2358C1237.19 80.3601 1243.98 80.4218 1250.3 78.412C1250.39 78.412 1250.39 78.5002 1250.3 78.5883C1245.19 80.8165 1239.47 81.2799 1234.07 79.9054C1231.09 79.2028 1228.19 77.6201 1225.12 77.7963C1221.78 77.9726 1218.54 79.5541 1215.29 80.1698C1215.03 80.1698 1214.85 79.7304 1215.2 79.6422Z" fill="#BEC1DF"/>
<path d="M1219.94 94.4079C1221.92 95.5841 1223.97 96.6411 1226.08 97.5733C1228.62 98.3641 1231.61 97.5733 1234.15 96.9576C1238.89 95.8143 1243.45 93.8815 1248.1 92.2988C1248.1 92.2988 1248.19 92.387 1248.1 92.387C1243.04 95.0128 1237.64 96.9078 1232.05 98.0151C1230.16 98.5422 1228.18 98.6323 1226.26 98.2783C1223.97 97.3403 1221.81 96.0977 1219.85 94.5842C1219.85 94.496 1219.85 94.3233 1219.94 94.4079Z" fill="#BEC1DF"/>
<path d="M1216.79 83.8607C1221.61 82.4543 1226.08 82.8068 1231 83.4213C1236.54 84.1384 1242.16 84.018 1247.67 83.064C1247.75 83.064 1247.75 83.1522 1247.67 83.1522C1242.77 84.2091 1237.73 84.4801 1232.75 83.9548C1230.38 83.6857 1227.93 83.2403 1225.56 83.07C1222.6 82.9813 1219.64 83.337 1216.79 84.1251C1216.7 84.2132 1216.61 83.9548 1216.79 83.8607Z" fill="#BEC1DF"/>
<path d="M1217.92 88.7834C1222.19 91.2667 1227.13 92.345 1232.05 91.8654C1237.05 91.4201 1241.88 89.4837 1246.7 87.8164C1246.79 87.8164 1246.79 87.9045 1246.7 87.9045C1237.05 91.9476 1227.31 94.7605 1217.75 88.9597C1217.57 88.9597 1217.75 88.6953 1217.92 88.7834Z" fill="#BEC1DF"/>
<path d="M1376.02 119.012C1381.37 123.406 1388.21 132.021 1389.88 134.306C1391.55 136.504 1399.71 186.518 1401.11 189.77C1402.51 193.022 1421.29 219.128 1420.32 220.714C1419.45 222.297 1409.97 232.147 1405.5 231.789C1400.94 231.432 1384.35 201.898 1381.2 198.206C1378.04 194.429 1376.02 119.012 1376.02 119.012Z" fill="white"/>
<path d="M1354.79 106.702C1343.91 106.355 1327.59 126.484 1325.4 135.009C1323.12 143.535 1335.93 176.498 1334.96 185.99C1334 195.483 1330.58 204.449 1332.86 208.317C1335.05 212.097 1358.12 219.392 1366.9 218.777C1375.67 218.074 1383.21 205.944 1385.23 203.307C1387.25 200.67 1384.27 177.203 1384.79 175.707C1385.32 174.211 1393.04 168.235 1391.81 160.149C1390.58 152.063 1380.84 126.923 1378.21 123.319C1375.49 119.716 1365.32 107.059 1354.79 106.702Z" fill="#BEC1DF"/>
<path d="M1371.81 172.1C1367.86 173.418 1364 175.615 1359.79 176.319C1354.88 177.11 1349.88 175.001 1345.58 172.805C1345.57 172.795 1345.55 172.788 1345.54 172.784C1345.52 172.781 1345.51 172.78 1345.49 172.783C1345.48 172.787 1345.47 172.793 1345.45 172.802C1345.44 172.811 1345.43 172.823 1345.42 172.836C1345.42 172.85 1345.41 172.864 1345.41 172.88C1345.41 172.895 1345.42 172.909 1345.42 172.923C1345.43 172.937 1345.44 172.949 1345.45 172.959C1345.46 172.968 1345.48 172.975 1345.49 172.979C1349.35 175.528 1353.56 177.902 1358.39 177.726C1363.04 177.462 1367.95 174.738 1372.07 172.715C1372.34 172.539 1372.16 172.012 1371.81 172.1Z" fill="#2F2962"/>
<path d="M1379.88 173.683C1375.85 173.503 1371.83 174.224 1368.12 175.792C1368.08 175.812 1368.05 175.844 1368.04 175.882C1368.02 175.921 1368.01 175.964 1368.02 176.005C1368.04 176.047 1368.06 176.083 1368.09 176.109C1368.13 176.136 1368.17 176.15 1368.21 176.15C1371.98 175.085 1375.87 174.493 1379.79 174.387C1380.23 174.299 1380.32 173.771 1379.88 173.683Z" fill="#2F2962"/>
<path d="M1334.08 191.969C1334.08 191.969 1359.43 200.671 1368.47 199.792C1377.6 198.913 1385.75 192.496 1385.75 192.496C1385.75 192.496 1392.68 219.92 1394.35 229.677C1395.93 239.434 1399.53 285.317 1399.53 286.987C1399.44 288.569 1387.33 301.929 1366.98 301.226C1346.62 300.524 1316.54 290.327 1314.61 287.955C1312.76 285.581 1324.26 225.283 1327.15 214.384C1330.13 203.484 1334.08 191.969 1334.08 191.969Z" fill="#2F2962"/>
<path d="M1358.21 304.565C1358.39 308.433 1334.35 304.208 1326.28 301.313C1318.21 298.418 1311.28 292.525 1310.49 290.149C1309.7 287.774 1324.09 226.775 1324.96 220.535C1325.84 214.294 1332.59 193.025 1333.03 189.154C1333.47 185.284 1321.89 143.623 1319.79 140.898C1318.03 138.701 1333.04 120.507 1340.49 113.738C1341.48 112.759 1342.6 111.928 1343.83 111.271C1344.18 111.183 1344.79 112.15 1345.4 113.996C1348.74 123.489 1354.97 155.045 1357.86 171.397C1359.17 179.044 1359.53 200.755 1359.44 224.488C1359.18 260.88 1358.13 302.192 1358.21 304.565Z" fill="white"/>
<path d="M1344.88 221.064C1342.33 225.459 1340.58 229.941 1336.98 233.633C1333.71 237.119 1329.99 240.162 1325.93 242.684C1325.84 242.772 1325.93 242.947 1326.02 242.86C1330.75 241.63 1334.61 237.938 1337.86 234.51C1341.37 230.728 1343.95 226.186 1345.41 221.24C1345.49 220.976 1345.05 220.8 1344.88 221.064Z" fill="#2F2962"/>
<path d="M1346.82 227.216C1343.74 235.392 1337.95 240.665 1330.76 245.324C1330.67 245.324 1330.76 245.5 1330.85 245.412C1337.87 241.363 1344.97 235.48 1347.08 227.31C1347.16 227.129 1346.9 227.041 1346.82 227.216Z" fill="#2F2962"/>
<path d="M1366.54 111.455C1365.23 110.664 1378.3 150.921 1376.89 177.907C1375.49 204.892 1374.7 303.338 1377.51 305.36C1380.23 307.384 1398.56 294.812 1401.81 290.417C1404.97 286.022 1397.69 225.547 1394.53 215.878C1391.37 206.21 1388.47 197.595 1387.68 195.044C1386.9 192.407 1385.05 176.673 1385.49 175.794C1385.93 174.915 1392.07 169.201 1393.12 161.818C1394.18 154.348 1378.12 122.354 1377.07 120.245C1375.93 118.223 1367.42 111.981 1366.54 111.455Z" fill="white"/>
<path d="M1389.53 200.583C1387.6 193.462 1386.28 180.894 1385.93 176.586C1389.79 172.279 1394.18 165.95 1393.56 159.795C1393.3 156.46 1391.8 153.027 1390.58 149.863C1390.26 147.145 1389.49 144.499 1388.3 142.037C1388.3 141.949 1388.12 142.037 1388.12 142.125C1388.63 143.647 1389.01 145.206 1389.26 146.789C1388.03 143.888 1386.72 141.075 1385.23 138.263C1385.14 138.175 1385.05 138.263 1385.05 138.345C1387.8 144.296 1390.12 150.437 1391.98 156.721C1393.91 163.841 1389.79 170.697 1385.23 175.882C1385.05 176.059 1385.23 190.123 1388.03 199.088C1390.75 207.527 1393.65 215.964 1396.19 224.403C1396.19 224.579 1396.45 224.491 1396.45 224.315C1394.7 216.317 1391.81 208.582 1389.53 200.583Z" fill="#2F2962"/>
<path d="M1359.35 224.491C1358.04 224.134 1357.16 194.166 1355.67 188.189C1354.18 182.212 1344.08 158.83 1343.64 157.072C1343.29 155.314 1351.01 144.239 1350.58 143.888C1350.14 143.536 1340.49 148.107 1339.52 146.872C1338.64 145.822 1340.93 119.277 1341.71 113.739C1341.8 113.123 1343.64 109.69 1344.17 110.751C1351.1 124.638 1354.87 155.138 1357.77 171.404C1359.08 179.046 1359.44 200.758 1359.35 224.491Z" fill="white"/>
<path d="M1357.24 204.184C1356.8 198.91 1357.07 193.466 1355.84 188.275C1354.09 180.451 1344 157.861 1344.08 157.774C1345.23 155.138 1349.79 146.171 1350.58 144.15C1350.66 143.887 1350.84 143.623 1350.23 143.793C1348.56 144.409 1341.01 147.222 1340.05 146.781C1339.35 146.434 1341.02 115.231 1342.69 111.978C1342.77 111.803 1342.42 111.715 1342.42 111.89C1339.96 117.077 1338.29 145.116 1339.52 147.49C1339.58 147.573 1339.66 147.641 1339.75 147.687C1339.84 147.733 1339.95 147.755 1340.05 147.753C1343.44 147 1346.73 145.882 1349.87 144.418C1348.47 146.171 1342.94 157.422 1343.03 157.598C1346.8 167.794 1352.59 177.991 1355.05 189.066C1356.36 194.782 1356.28 200.844 1356.81 206.646C1357.33 211.921 1358.03 217.282 1359 222.555C1359 222.731 1359.26 222.643 1359.26 222.467C1358.38 216.314 1357.68 210.249 1357.24 204.184Z" fill="#2F2962"/>
<path d="M1366.54 111.453C1364.61 111.811 1372.6 146.525 1373.47 153.557C1374.35 160.59 1375.84 225.018 1375.84 225.018C1375.84 225.018 1378.47 186.956 1379.26 184.932C1379.96 182.822 1382.95 153.551 1382.86 152.233C1382.77 150.915 1373.82 141.345 1373.74 140.899C1373.56 140.372 1381.28 141.778 1381.54 141.339C1381.81 140.811 1367.42 111.365 1366.54 111.453Z" fill="white"/>
<path d="M1383.47 151.976C1380.71 148.063 1377.63 144.388 1374.26 140.989C1376.45 141.252 1381.71 141.868 1381.89 141.516C1382.33 140.901 1373.47 121.651 1367.68 112.949H1367.59C1372.59 122 1376.71 131.32 1380.84 140.816C1378.5 140.589 1376.16 140.501 1373.82 140.553C1373.64 140.553 1373.55 140.729 1373.64 140.816C1376.54 144.508 1382.59 152.155 1382.68 152.155C1381.19 163.754 1379.61 175.269 1378.12 186.785C1376.63 198.301 1375.31 210.252 1376.19 221.855C1376.19 221.943 1376.28 221.943 1376.28 221.855C1376.36 210.148 1377.24 198.46 1378.91 186.872C1380.57 175.352 1382.85 163.754 1383.47 151.976Z" fill="#2F2962"/>
<path d="M1327.68 127.715C1324.26 132.109 1318.38 138.263 1315.22 150.744C1312.06 163.226 1304.78 205.857 1305.05 209.725C1305.22 213.593 1326.19 239.434 1329.44 240.401C1330.4 240.664 1334.7 236.797 1338.12 232.49C1340.93 228.974 1343.38 225.282 1343.47 223.876C1343.56 222.381 1328.65 204.011 1328.91 202.428C1329.17 200.933 1332.33 177.464 1334.26 169.466C1335.22 165.072 1327.68 127.715 1327.68 127.715Z" fill="white"/>
<path d="M1324.27 136.858C1324.27 136.769 1324.18 136.858 1324.27 136.858C1330.93 145.035 1332.25 155.228 1333.65 165.337C1333.65 165.425 1333.83 165.425 1333.83 165.337C1332.95 155.316 1331.37 144.504 1324.27 136.858Z" fill="#2F2962"/>
<path d="M1343.57 223.348C1340.23 218.074 1336.55 212.977 1332.78 207.965C1331.9 206.614 1330.93 205.322 1329.88 204.097C1329.61 203.651 1329.29 203.238 1328.92 202.867C1329.97 194.956 1331.72 187.133 1332.95 179.222C1333.57 177.816 1334.09 176.409 1334.71 175.091C1334.8 175.003 1334.62 174.915 1334.53 175.003C1334.09 175.705 1333.74 176.409 1333.3 177.2C1333.66 174.738 1334.01 172.19 1334.27 169.728C1334.27 169.64 1334.18 169.64 1334.09 169.728C1331.41 180.499 1329.36 191.417 1327.95 202.428C1326.71 201.688 1325.34 201.181 1323.92 200.933C1323.83 200.933 1323.83 201.021 1323.92 201.021C1325.07 201.429 1326.18 201.929 1327.25 202.516C1327.52 202.692 1327.69 202.873 1327.96 203.043C1326.01 202.568 1324 202.39 1322 202.516C1321.91 202.516 1321.91 202.604 1322 202.692C1323.75 203.132 1326.73 203.132 1328.22 204.099C1330.07 205.329 1331.56 208.148 1332.87 209.899C1336.37 214.561 1339.62 219.217 1343.04 223.969C1343.22 224.051 1343.83 223.788 1343.57 223.348Z" fill="#2F2962"/>
<path d="M1329.27 240.05C1326.9 237.59 1324.35 235.392 1321.9 233.107C1321.81 233.019 1321.81 233.107 1321.81 233.189C1324.09 235.656 1326.28 238.292 1328.74 240.573C1329 240.842 1329.62 240.402 1329.27 240.05Z" fill="#2F2962"/>
<path d="M1409.18 242.772L1371.72 230.818C1370.81 230.525 1370.06 229.894 1369.62 229.057C1369.18 228.22 1369.08 227.243 1369.35 226.335L1385.58 175.442C1385.86 174.541 1386.49 173.788 1387.33 173.345C1388.17 172.901 1389.14 172.802 1390.05 173.069L1427.51 185.023C1428.41 185.315 1429.16 185.947 1429.6 186.784C1430.04 187.621 1430.14 188.597 1429.88 189.505L1413.65 240.398C1413.52 240.855 1413.31 241.282 1413.01 241.651C1412.71 242.021 1412.34 242.326 1411.93 242.549C1411.51 242.771 1411.05 242.905 1410.57 242.944C1410.1 242.982 1409.63 242.924 1409.18 242.772Z" fill="#BFDDDA"/>
<path d="M1417.07 185.46L1398.91 179.659C1398.73 179.604 1398.55 179.511 1398.4 179.388C1398.25 179.264 1398.13 179.112 1398.04 178.94C1397.95 178.768 1397.9 178.579 1397.88 178.386C1397.86 178.192 1397.89 177.997 1397.95 177.813L1399.09 174.296C1399.14 174.11 1399.23 173.936 1399.36 173.786C1399.48 173.636 1399.63 173.512 1399.8 173.422C1399.98 173.331 1400.16 173.277 1400.36 173.261C1400.55 173.245 1400.75 173.268 1400.93 173.329L1419.09 179.131C1419.28 179.186 1419.45 179.279 1419.6 179.402C1419.75 179.526 1419.88 179.678 1419.97 179.85C1420.06 180.022 1420.11 180.211 1420.13 180.404C1420.14 180.598 1420.12 180.793 1420.06 180.977L1418.91 184.493C1418.86 184.68 1418.77 184.854 1418.65 185.004C1418.52 185.155 1418.37 185.28 1418.2 185.37C1418.02 185.46 1417.84 185.515 1417.64 185.53C1417.45 185.546 1417.25 185.522 1417.07 185.46Z" fill="white"/>
<path d="M1416.81 174.739L1415.76 177.991L1413.21 177.2L1413.65 175.703C1413.77 175.319 1413.74 174.902 1413.56 174.542C1413.38 174.181 1413.07 173.905 1412.69 173.772L1409.26 172.717C1408.88 172.592 1408.46 172.622 1408.1 172.802C1407.74 172.982 1407.46 173.297 1407.33 173.679L1406.9 175.178L1404.35 174.387L1405.4 171.135C1405.49 170.864 1405.63 170.613 1405.81 170.396C1406 170.179 1406.22 170 1406.47 169.869C1406.72 169.739 1407 169.659 1407.28 169.635C1407.57 169.611 1407.85 169.643 1408.12 169.729L1415.41 172.102C1415.68 172.175 1415.93 172.302 1416.15 172.477C1416.37 172.651 1416.55 172.869 1416.68 173.116C1416.81 173.363 1416.89 173.635 1416.91 173.914C1416.94 174.193 1416.9 174.474 1416.81 174.739Z" fill="white"/>
<path d="M1427.25 213.591C1425.67 212.096 1414.18 207.262 1412.52 208.141C1410.49 209.107 1421.2 214.734 1421.11 214.909C1421.11 215.085 1411.2 208.404 1409.44 209.811C1407.95 211.041 1419.36 217.897 1419.36 217.897C1419.36 217.897 1408.74 210.954 1407.43 212.096C1405.93 213.414 1416.29 220.798 1416.11 220.886C1416.11 220.886 1408.83 215.348 1407.34 216.052C1406.03 216.668 1412.16 222.117 1413.92 224.315C1415.67 226.512 1421.81 225.545 1423.57 224.578C1425.5 223.524 1429.27 215.437 1427.25 213.591Z" fill="#E1916E"/>
<path d="M1336.37 121.473C1336.11 113.65 1348.39 110.834 1354.26 110.046C1361.72 108.991 1368.12 109.689 1371.46 116.99C1374.8 124.197 1376.19 132.46 1377.25 140.283C1377.3 140.574 1377.45 140.835 1377.69 141.012C1377.92 141.19 1378.22 141.27 1378.51 141.236C1378.81 141.202 1379.08 141.057 1379.26 140.831C1379.45 140.604 1379.55 140.314 1379.53 140.02C1378.3 131.055 1376.81 114.002 1367.95 109.079C1359.18 104.244 1333.65 108.463 1334.08 121.736C1334.17 123.23 1336.45 122.967 1336.37 121.473Z" fill="#2F2962"/>
<path d="M1384.18 143.887C1384.31 144.918 1384.13 145.964 1383.66 146.892C1383.19 147.82 1382.46 148.589 1381.56 149.102C1380.65 149.615 1379.62 149.848 1378.58 149.772C1377.54 149.697 1376.55 149.316 1375.73 148.678C1374.91 148.04 1374.29 147.173 1373.97 146.187C1373.64 145.201 1373.61 144.14 1373.89 143.138C1374.16 142.136 1374.73 141.239 1375.52 140.558C1376.3 139.878 1377.27 139.446 1378.3 139.317C1378.99 139.23 1379.69 139.28 1380.36 139.463C1381.02 139.646 1381.65 139.959 1382.19 140.384C1382.74 140.808 1383.2 141.336 1383.54 141.937C1383.88 142.539 1384.1 143.201 1384.18 143.887Z" fill="#768FF6"/>
<path d="M1382.08 144.152C1382.18 144.977 1381.95 145.808 1381.44 146.465C1380.93 147.123 1380.18 147.554 1379.36 147.667C1378.53 147.764 1377.7 147.533 1377.05 147.023C1376.39 146.513 1375.96 145.766 1375.85 144.943C1375.75 144.117 1375.98 143.285 1376.49 142.627C1377 141.969 1377.75 141.538 1378.58 141.427C1378.99 141.363 1379.41 141.384 1379.81 141.488C1380.21 141.592 1380.59 141.777 1380.92 142.033C1381.25 142.288 1381.52 142.608 1381.72 142.972C1381.92 143.337 1382.04 143.738 1382.08 144.152Z" fill="#E4EFF8"/>
<path d="M1343.38 146.262C1348.29 168.412 1347.15 173.771 1345.31 176.235C1343.85 177.905 1342.05 179.252 1340.04 180.19L1339.43 178.696C1341.21 177.9 1342.79 176.73 1344.08 175.267C1345.48 173.511 1346.71 168.587 1341.89 146.701L1343.38 146.262Z" fill="#BEC1DF"/>
<path d="M1341.54 177.641L1342.16 178.959C1342.22 179.074 1342.25 179.2 1342.27 179.33C1342.28 179.459 1342.26 179.59 1342.22 179.713C1342.18 179.837 1342.11 179.951 1342.03 180.048C1341.94 180.145 1341.83 180.223 1341.72 180.278L1338.56 181.86C1338.44 181.922 1338.32 181.96 1338.19 181.971C1338.06 181.982 1337.93 181.967 1337.81 181.926C1337.68 181.884 1337.57 181.818 1337.47 181.732C1337.38 181.645 1337.3 181.539 1337.25 181.421L1336.63 180.103C1336.56 179.988 1336.53 179.862 1336.52 179.732C1336.5 179.603 1336.52 179.472 1336.56 179.348C1336.6 179.225 1336.67 179.111 1336.76 179.014C1336.84 178.917 1336.95 178.839 1337.07 178.784L1340.22 177.202C1340.46 177.096 1340.73 177.083 1340.97 177.164C1341.21 177.245 1341.42 177.416 1341.54 177.641Z" fill="#768FF6"/>
<path d="M1329.09 146.264C1324.08 162.613 1322.68 171.666 1324.7 174.567C1325.83 176.162 1327.34 177.459 1329.09 178.347L1328.38 179.753C1326.4 178.687 1324.69 177.184 1323.38 175.359C1321.01 171.848 1322.24 163.228 1327.6 145.648L1329.09 146.264Z" fill="#BEC1DF"/>
<path d="M1326.89 177.208L1326.19 178.438C1326.07 178.662 1326.04 178.923 1326.1 179.168C1326.17 179.413 1326.33 179.624 1326.55 179.756L1329.61 181.602C1329.84 181.721 1330.1 181.751 1330.34 181.684C1330.58 181.618 1330.79 181.461 1330.93 181.245L1331.63 180.015C1331.75 179.792 1331.78 179.531 1331.71 179.286C1331.65 179.041 1331.49 178.83 1331.28 178.696L1328.22 176.85C1327.99 176.733 1327.73 176.705 1327.49 176.771C1327.24 176.838 1327.03 176.993 1326.89 177.208Z" fill="#768FF6"/>
<path d="M1326.97 145.117C1327.85 141.484 1328.93 137.906 1330.22 134.399C1330.98 132.865 1332.13 131.56 1333.56 130.619C1333.91 130.619 1333.82 127.806 1333.73 125.521C1333.64 123.498 1333.55 121.116 1334.08 120.505C1334.22 120.359 1334.39 120.243 1334.58 120.163C1334.77 120.084 1334.97 120.043 1335.18 120.043C1335.38 120.043 1335.58 120.084 1335.77 120.163C1335.96 120.243 1336.13 120.359 1336.27 120.505C1336.8 121.116 1336.71 123.498 1336.71 125.516C1336.71 127.802 1336.71 130.614 1337.06 130.614C1338.46 131.572 1339.57 132.874 1340.31 134.394C1341.74 137.924 1342.85 141.571 1343.65 145.293C1344.09 147.667 1343.3 147.93 1342.6 148.106C1341.63 148.369 1341.02 147.749 1340.4 145.118C1339.34 140.986 1338.12 133.954 1335.31 133.866C1332.41 134.042 1331.01 141.337 1329.96 145.38C1329.26 147.929 1328.73 148.105 1327.76 147.929C1327.15 147.666 1326.45 147.315 1326.97 145.117Z" fill="#768FF6"/>
<path d="M1358.46 37.8803C1358.46 37.8803 1349.16 30.673 1335.65 39.6381C1320.3 49.8357 1325.12 66.5356 1321.09 76.1164C1317.05 85.6971 1307.31 87.8979 1309.51 98.7064C1311.35 107.936 1341.09 110.309 1356 108.375C1374.34 105.914 1387.59 99.4102 1389.52 91.5837C1391.45 83.8429 1380.39 79.0138 1379.6 73.1248C1378.82 67.3276 1379.6 37.1777 1358.46 37.8803Z" fill="#2F2962"/>
<path d="M1327.84 48.166C1325.26 52.9413 1323.48 58.1085 1322.58 63.4607C1321.97 67.1524 1321.88 70.7561 1320.3 74.1787C1318.75 77.2457 1316.7 80.037 1314.25 82.4411C1311.26 85.6053 1307.75 89.0339 1308.37 93.8737C1308.62 95.7784 1309.49 97.5461 1310.86 98.8986C1312.23 100.251 1314 101.112 1315.91 101.345C1316 101.345 1316 101.169 1315.91 101.169C1314.31 100.831 1312.84 100.049 1311.66 98.9149C1310.48 97.7804 1309.65 96.3381 1309.25 94.7526C1308.46 91.149 1310.22 88.0729 1312.59 85.5232C1315.4 82.4471 1318.47 79.7223 1320.48 75.9424C1322.68 71.9875 1322.85 67.8563 1323.47 63.4607C1324.21 58.185 1325.68 53.0379 1327.84 48.166Z" fill="#2F2962"/>
<path d="M1390.57 84.5556C1388.2 79.8968 1383.29 77.3483 1381.01 72.4252C1376.97 63.4601 1379.25 52.2967 1372.23 44.6499C1372.15 44.5618 1372.06 44.6499 1372.15 44.7321C1378.02 52.3788 1376.62 62.3121 1379.69 70.9318C1380.95 74.314 1383.03 77.333 1385.74 79.7218C1389.95 83.7708 1393.55 89.4788 1389.43 95.0164C1389.34 95.1927 1389.6 95.3737 1389.69 95.1927C1390.89 93.714 1391.62 91.9076 1391.78 90.0097C1391.93 88.1119 1391.51 86.211 1390.57 84.5556Z" fill="#2F2962"/>
<path d="M1332.14 42.9799C1326.26 47.1111 1324.07 53.2644 1322.67 60.0323C1321.88 63.8122 1321.26 67.5921 1320.12 71.2839C1318.77 75.2978 1316.88 79.1113 1314.51 82.6212C1311.61 87.28 1308.37 93.4333 1311.17 98.971C1314.24 104.948 1321.78 104.948 1327.49 104.687C1327.52 104.684 1327.55 104.669 1327.57 104.645C1327.6 104.62 1327.61 104.589 1327.61 104.556C1327.61 104.523 1327.6 104.491 1327.57 104.467C1327.55 104.442 1327.52 104.427 1327.49 104.424C1320.47 104.684 1310.38 103.718 1310.56 94.3122C1310.65 87.6325 1315.65 82.7974 1318.55 77.1716C1324.25 66.0094 1321.7 51.5936 1332.32 43.0668C1332.32 43.0668 1332.23 42.8918 1332.14 42.9799Z" fill="#2F2962"/>
<path d="M1364.7 113.741C1364.7 113.741 1366.19 135.276 1363.47 136.067C1358.21 137.734 1347.86 114.18 1347.16 112.598C1346.03 108.53 1345.18 104.389 1344.61 100.204C1344.53 99.5884 1344.44 99.0608 1344.35 98.4463C1344.25 97.8953 1344.2 97.3382 1344.18 96.7791C1344.09 96.0729 1344 95.2821 1343.91 94.5795C1343.38 89.0418 1342.95 84.2949 1342.95 84.2949L1345.58 85.0857L1364.09 91.3212L1364.44 105.561V106.704L1364.53 111.011L1364.7 113.741Z" fill="#E1916E"/>
<path d="M1364.53 106.357C1362.33 107.361 1359.91 107.784 1357.51 107.588C1352.07 107.324 1347.94 104.159 1344.61 100.204C1344.52 99.5884 1344.44 99.0608 1344.35 98.4463C1344.25 97.8953 1344.19 97.3382 1344.17 96.7791C1344.09 96.0729 1344 95.2821 1343.91 94.5795C1343.38 89.0418 1342.95 84.2949 1342.95 84.2949L1345.58 85.0857L1364.09 91.3212L1364.44 105.561L1364.53 106.357Z" fill="#9A593B"/>
<path d="M1369.16 44.8281C1369.16 44.8281 1377.32 46.3227 1379.6 56.5191C1381.44 65.0447 1376.18 73.1321 1375.13 73.9229C1373.29 75.4162 1364.42 50.2777 1369.16 44.8281Z" fill="#2F2962"/>
<path d="M1377.5 72.5132C1378.02 97.7399 1363.99 99.4096 1359.69 100.201C1354.86 101.08 1335.91 100.817 1332.75 75.7655C1329.6 50.7139 1341.18 42.5396 1352.41 41.7488C1363.72 40.9581 1376.97 47.3746 1377.5 72.5132Z" fill="#E1916E"/>
<path d="M1354.69 74.274C1354.69 74.1859 1354.6 74.3621 1354.6 74.4503C1354.86 76.1175 1354.86 78.142 1353.37 78.8447C1353.28 78.8447 1353.37 78.9328 1353.37 78.9328C1355.21 78.4934 1355.21 75.8567 1354.69 74.274Z" fill="#2F2962"/>
<path d="M1352.93 72.6905C1350.21 72.7786 1350.65 78.3163 1353.2 78.2281C1355.65 78.1412 1355.21 72.6035 1352.93 72.6905Z" fill="#2F2962"/>
<path d="M1367.67 73.3072C1367.67 73.2191 1367.84 73.3953 1367.76 73.4835C1367.67 75.2412 1367.85 77.1752 1369.43 77.7909C1369.51 77.7909 1369.43 77.8791 1369.43 77.8791C1367.49 77.5266 1367.32 74.8899 1367.67 73.3072Z" fill="#2F2962"/>
<path d="M1369.16 71.5432C1371.88 71.3669 1372.06 76.9022 1369.51 77.0808C1366.97 77.1725 1366.88 71.6349 1369.16 71.5432Z" fill="#2F2962"/>
<path d="M1355.74 87.1056C1356.06 87.6202 1356.56 87.9967 1357.14 88.1607C1357.78 88.1784 1358.41 88.0564 1358.99 87.8034C1359.07 87.8034 1359.07 87.8034 1359.07 87.8916C1358.81 88.2097 1358.47 88.4513 1358.09 88.5906C1357.7 88.7299 1357.28 88.7616 1356.88 88.6823C1356.53 88.5841 1356.23 88.3782 1356.01 88.0947C1355.79 87.8111 1355.66 87.4646 1355.65 87.1056C1355.57 87.1056 1355.74 87.0174 1355.74 87.1056Z" fill="#9A593B"/>
<path d="M1370.22 66.9775C1369.6 66.8894 1369.07 66.7143 1368.55 66.6202C1367.93 66.444 1367.32 66.444 1366.88 65.9176C1366.75 65.7713 1366.68 65.5839 1366.68 65.39C1366.68 65.1961 1366.75 65.0088 1366.88 64.8625C1367.16 64.5848 1367.52 64.3896 1367.9 64.2977C1368.29 64.2058 1368.7 64.2207 1369.07 64.3408C1369.86 64.468 1370.58 64.8738 1371.09 65.4841C1371.62 66.0986 1370.92 67.0656 1370.22 66.9775Z" fill="#2F2962"/>
<path d="M1350.74 68.2994C1351.31 68.1638 1351.86 67.9875 1352.41 67.7718C1353.03 67.6949 1353.59 67.3797 1353.98 66.8929C1354.1 66.7363 1354.16 66.5427 1354.14 66.3485C1354.12 66.1543 1354.04 65.9727 1353.9 65.8378C1353.6 65.5844 1353.23 65.4244 1352.84 65.3776C1352.45 65.3308 1352.05 65.3993 1351.7 65.5746C1350.92 65.7683 1350.24 66.2363 1349.77 66.8929C1349.25 67.5086 1349.95 68.4697 1350.74 68.2994Z" fill="#2F2962"/>
<path d="M1362.49 84.207C1361.83 85.2106 1360.93 86.0279 1359.86 86.5804C1359.26 86.8872 1358.58 86.9802 1357.93 86.8436C1356.52 86.5804 1356.35 85.3502 1356.52 84.207C1356.6 83.6055 1356.75 83.0152 1356.96 82.4492C1358.57 83.6206 1360.51 84.2377 1362.49 84.207Z" fill="#2F2962"/>
<path d="M1359.86 86.6683C1359.26 86.9751 1358.58 87.0681 1357.93 86.9315C1356.52 86.6683 1356.35 85.4381 1356.52 84.2949C1357.27 84.2365 1358.01 84.4423 1358.62 84.8763C1359.23 85.3103 1359.67 85.9447 1359.86 86.6683Z" fill="#FADAD4"/>
<path d="M1362.93 80.9537C1362.93 80.9537 1363.28 83.5022 1363.28 84.7336C1363.28 84.8217 1363.02 84.9098 1362.58 84.9098H1362.49C1361.45 85.0885 1360.38 84.9871 1359.4 84.6162C1358.41 84.2453 1357.54 83.6182 1356.88 82.7995C1356.79 82.7114 1356.96 82.5364 1357.05 82.6233C1358.59 83.6829 1360.44 84.2078 1362.31 84.1179C1362.4 83.7606 1361.53 79.7235 1361.79 79.7235C1362.72 79.769 1363.64 79.9774 1364.51 80.3392C1363.89 74.9766 1362.49 69.7914 1361.96 64.4288C1361.97 64.3882 1361.98 64.3492 1362.01 64.3176C1362.03 64.2861 1362.07 64.2637 1362.11 64.2537C1362.15 64.2438 1362.19 64.2469 1362.23 64.2626C1362.26 64.2783 1362.29 64.3057 1362.31 64.3407C1364.24 69.7033 1365.03 75.8554 1365.74 81.3943C1365.91 82.0088 1363.37 81.1299 1362.93 80.9537Z" fill="#9A593B"/>
<path d="M1334.51 77.348C1338.64 77.7053 1341.36 66.5371 1341.36 66.5371C1341.36 66.5371 1369.34 62.6691 1369.17 44.8259C1369.17 44.8259 1353.29 32.5204 1337.93 44.914C1322.57 57.3077 1330.74 76.9967 1334.51 77.348Z" fill="#2F2962"/>
<path d="M1336.88 78.6671C1336.88 78.6671 1331.88 70.4928 1328.2 72.1624C1324.51 73.9202 1327.85 85.523 1331.97 87.3689C1332.49 87.636 1333.05 87.7978 1333.62 87.8449C1334.2 87.892 1334.77 87.8233 1335.32 87.643C1335.87 87.4627 1336.38 87.1743 1336.81 86.795C1337.25 86.4158 1337.6 85.9533 1337.85 85.4349L1336.88 78.6671Z" fill="#E1916E"/>
<path d="M1329.34 75.5059C1329.26 75.5059 1329.26 75.594 1329.34 75.594C1332.15 77.0004 1333.55 79.8133 1334.43 82.7132C1333.64 81.5699 1332.5 80.8673 1331.01 81.8343C1330.92 81.9224 1331.01 82.0105 1331.1 82.0105C1331.63 81.8739 1332.19 81.9114 1332.69 82.1174C1333.2 82.3234 1333.62 82.6868 1333.91 83.1538C1334.42 83.9184 1334.83 84.7457 1335.13 85.6154C1335.22 85.8785 1335.75 85.7916 1335.66 85.4391V85.351C1335.84 81.5711 1333.29 76.2085 1329.34 75.5059Z" fill="#9A593B"/>
<path d="M1327.41 80.5176C1328.23 84.033 1329.85 87.3119 1332.14 90.0983C1335.21 94.0533 1339.69 96.0754 1344.16 97.7451C1344.6 97.9213 1344.78 97.1294 1344.34 96.9543C1339.49 95.2482 1335.31 92.0468 1332.41 87.813C1332.23 87.7249 1332.06 87.5498 1331.88 87.4557C1330.3 86.6709 1328.9 84.3856 1327.93 81.8359V81.7478C1327.74 81.3471 1327.56 80.9364 1327.41 80.5176Z" fill="white"/>
<path d="M1331.79 72.8691C1332.95 73.5443 1333.98 74.4054 1334.86 75.4177C1335.46 75.9926 1336.02 76.6095 1336.53 77.2635C1336.72 77.4815 1336.9 77.7167 1337.05 77.9662C1337.19 78.1512 1337.34 78.3274 1337.49 78.4937C1338.72 80.2515 1339.69 82.0093 1340.21 82.5428C1340.39 82.719 1340.65 82.5428 1340.56 82.3665C1339.25 79.8954 1336.88 73.5718 1333.28 72.8691H1331.79Z" fill="white"/>
<path d="M1338.55 79.6418C1337.94 78.4116 1347.06 82.4546 1356.27 80.2574C1358.2 79.818 1363.38 77.5327 1366.36 77.354C1369.34 77.2659 1372.85 79.5512 1376.97 79.9026C1378.38 79.9907 1377.59 92.1199 1374.17 97.5707C1373.03 99.3284 1368.2 103.108 1365.13 103.46C1357.94 104.427 1345.48 99.6797 1343.55 97.3063C1341.89 95.464 1344.17 91.1565 1338.55 79.6418Z" fill="white"/>
<path d="M1376.27 83.6802C1373.62 82.676 1370.89 81.8824 1368.11 81.3068C1365.74 80.8674 1363.55 81.8344 1361.36 82.7132C1355.48 84.9024 1349.06 85.1792 1343.02 83.504C1342.93 83.504 1342.93 83.5921 1343.02 83.6802C1347.92 85.6026 1353.3 85.8802 1358.37 84.471C1361.18 83.7684 1363.9 82.0976 1366.8 82.269C1369.96 82.3572 1373.12 83.7636 1376.19 84.2031C1376.24 84.1937 1376.3 84.1663 1376.34 84.1248C1376.38 84.0833 1376.41 84.0298 1376.42 83.9718C1376.43 83.9139 1376.42 83.8545 1376.39 83.8021C1376.36 83.7498 1376.32 83.7071 1376.27 83.6802Z" fill="#BEC1DF"/>
<path d="M1372.23 97.8318C1370.3 98.7988 1368.46 100.293 1366.44 100.996C1364.08 101.875 1361.18 101.172 1358.81 100.639C1354.29 99.56 1349.84 98.2119 1345.48 96.6016C1345.48 96.6016 1345.39 96.6897 1345.48 96.6897C1350.34 99.0225 1355.51 100.65 1360.83 101.524C1362.61 101.948 1364.47 101.978 1366.27 101.612C1368.42 100.668 1370.43 99.4252 1372.23 97.9199C1372.32 97.9199 1372.23 97.8318 1372.23 97.8318Z" fill="#BEC1DF"/>
<path d="M1374.86 87.8124C1370.21 86.5823 1366 87.1086 1361.35 87.8124C1356.13 88.6615 1350.81 88.7205 1345.56 87.9875C1345.47 87.9875 1345.47 88.0756 1345.56 88.0756C1350.23 88.9099 1354.99 88.9991 1359.68 88.34C1361.97 87.9875 1364.25 87.5504 1366.53 87.2849C1369.33 87.0813 1372.14 87.3184 1374.86 87.9875C1375.04 88.1638 1375.04 87.9006 1374.86 87.8124Z" fill="#BEC1DF"/>
<path d="M1373.99 92.4709C1370 94.9405 1365.34 96.1061 1360.65 95.8054C1355.91 95.5494 1351.26 93.8821 1346.7 92.4709C1346.61 92.4709 1346.61 92.5591 1346.7 92.5591C1355.91 96.1627 1365.21 98.448 1374.16 92.7341C1374.25 92.646 1374.16 92.3828 1373.99 92.4709Z" fill="#BEC1DF"/>
</g>
<defs>
<clipPath id="clip0_30_5628">
<rect width="1488" height="297" fill="white"/>
</clipPath>
</defs>
</svg>
