<svg width="193" height="216" viewBox="0 0 193 216" fill="none" xmlns="http://www.w3.org/2000/svg">
<g clip-path="url(#clip0_2464_5444)">
<path d="M228.431 58.0769C228.12 61.3021 227.957 64.5471 227.468 67.7429C225.927 77.9765 221.651 87.6043 215.094 95.6103C183.879 134.181 152.646 172.731 121.394 211.262C110.221 225.013 95.5771 232.187 77.9139 233.165C51.4543 234.654 25.9112 216.141 19.0465 190.448C13.7396 170.569 17.6054 152.55 30.522 136.568C61.3403 98.425 92.203 60.3154 123.11 22.2391C131.841 11.4546 142.845 4.28623 156.46 1.25125C156.866 1.11683 157.257 0.942023 157.628 0.729423L168.906 -0.455081C169.384 -0.314514 169.875 -0.219163 170.37 -0.170284C193.657 -0.0548098 215.565 14.9979 223.997 36.7857C225.267 40.0686 226.196 43.4839 227.285 46.8342L228.431 58.0769ZM150.849 149.805L84.0134 95.6943C83.8176 95.8431 83.6354 96.009 83.469 96.19C69.2804 113.758 54.883 131.132 40.9953 148.892C32.645 159.58 30.6064 172.03 33.8976 185.161C38.9811 205.419 58.3353 219.121 79.2289 217.291C91.5183 216.215 101.589 210.719 109.377 201.104C122.796 184.535 136.22 167.964 149.647 151.392C150.054 150.88 150.433 150.353 150.849 149.805ZM94.1359 83.1322L160.981 137.251C161.194 137.022 161.51 136.73 161.768 136.396C175.558 119.375 189.444 102.431 203.086 85.2936C211.408 74.8371 214.114 62.8565 211.44 49.7175C207.162 28.6512 187.499 13.8451 165.929 15.6676C153.466 16.7221 143.311 22.2927 135.433 32.0491C122.088 48.5985 108.714 65.1128 95.3118 81.5922C94.9042 82.0955 94.5253 82.6221 94.1359 83.1322Z" fill="url(#paint0_linear_2464_5444)"/>
</g>
<defs>
<linearGradient id="paint0_linear_2464_5444" x1="1.38578" y1="-40.1117" x2="305.659" y2="214.543" gradientUnits="userSpaceOnUse">
<stop stop-color="#B38CFF"/>
<stop offset="1" stop-color="#9065E4"/>
</linearGradient>
<clipPath id="clip0_2464_5444">
<rect width="222.92" height="222.92" fill="white" transform="translate(0 17.2847) rotate(-5.99563)"/>
</clipPath>
</defs>
</svg>
