<svg width="228" height="98" viewBox="0 0 228 98" fill="none" xmlns="http://www.w3.org/2000/svg">
<rect x="-1" y="-2.4682" width="228" height="98" rx="8" fill="#BBEAFF"/>
<g clip-path="url(#clip0_608_513)">
<path d="M185.192 25.2216C184.182 25.4583 183.167 25.737 182.185 26.011C181.729 26.141 181.277 26.2664 180.826 26.3825L174.826 27.9939L172.2 28.6997C172.096 28.4602 171.944 28.2445 171.753 28.0662C168.408 24.777 165.673 22.0329 163.176 19.4892L163.153 19.4659C162.958 19.2587 162.717 19.1006 162.449 19.0045L164.038 13.1488C164.674 10.7981 165.329 8.37295 165.932 5.97103C165.95 5.83797 166.008 5.71362 166.099 5.61465C166.189 5.51569 166.308 5.44685 166.439 5.41736C169.972 4.55851 173.533 3.57862 176.978 2.62193L178.574 2.18074C178.83 2.08416 179.109 2.06957 179.374 2.139C179.638 2.20842 179.875 2.35842 180.05 2.56818L180.074 2.59147C182.571 5.1445 185.296 7.86996 188.651 11.1685C188.852 11.3119 189 11.5194 189.068 11.757C189.137 11.9947 189.123 12.2485 189.029 12.477C188.68 13.4684 188.425 14.4785 188.197 15.4142C187.849 16.927 187.413 18.4817 187.009 19.9666C186.605 21.4515 186.136 23.1598 185.755 24.7704C185.648 25.045 185.536 25.138 185.192 25.2216Z" fill="#A3E3FF"/>
<path d="M214.934 54.964C213.924 55.2007 212.905 55.484 211.927 55.7534C211.471 55.8834 211.02 56.0088 210.568 56.1249L204.568 57.7363L201.943 58.4421C201.839 58.2026 201.686 57.9869 201.495 57.8086C198.15 54.5194 195.416 51.7753 192.918 49.2316C192.719 49.0213 192.476 48.8574 192.206 48.7516L193.789 42.8912C194.425 40.5498 195.085 38.12 195.684 35.7227C195.702 35.5897 195.76 35.4653 195.851 35.3664C195.941 35.2674 196.06 35.1986 196.191 35.1691C199.724 34.3102 203.276 33.3303 206.715 32.3783L208.326 31.9324C208.582 31.8359 208.861 31.8213 209.126 31.8907C209.39 31.9601 209.627 32.1101 209.802 32.3199L209.825 32.3432C212.323 34.8962 215.048 37.6217 218.402 40.9202C218.602 41.0651 218.748 41.2726 218.817 41.5097C218.885 41.7468 218.872 41.9999 218.78 42.2287C218.432 43.2201 218.177 44.2303 217.949 45.1659C217.601 46.6787 217.164 48.2334 216.76 49.7183C216.356 51.2032 215.887 52.9115 215.507 54.5221C215.391 54.7874 215.279 54.8804 214.934 54.964Z" fill="#E7F7FF"/>
<path d="M245.677 87.1746C244.667 87.4113 243.647 87.6946 242.665 87.9686C242.214 88.094 241.762 88.2194 241.311 88.3355C239.433 88.8463 237.554 89.3525 235.674 89.854L232.685 90.6527C232.58 90.4035 232.421 90.1807 232.219 90.0006C228.874 86.7114 226.139 83.9673 223.642 81.4236L223.619 81.4003C223.428 81.1966 223.192 81.0402 222.929 80.9435L223.923 77.2849C224.109 76.5401 224.299 75.8 224.532 75.0273C225.163 72.6999 225.813 70.2887 226.408 67.9147C226.425 67.7816 226.484 67.6573 226.574 67.5583C226.665 67.4594 226.784 67.3905 226.915 67.361C230.438 66.5022 233.99 65.5223 237.421 64.5795L239.05 64.1244C239.305 64.0278 239.585 64.0133 239.849 64.0827C240.114 64.1521 240.35 64.3021 240.526 64.5119L240.549 64.5351C243.046 67.0882 245.772 69.8136 249.126 73.1122C249.322 73.2556 249.465 73.461 249.53 73.695C249.595 73.9291 249.579 74.1782 249.486 74.4021C249.137 75.4028 248.872 76.4501 248.654 77.3392C248.306 78.8521 247.87 80.4068 247.466 81.8916C247.062 83.3765 246.593 85.0848 246.212 86.6954C246.133 86.998 246.003 87.0724 245.677 87.1746Z" fill="#D0F1FF"/>
<path d="M202.322 8.09124C201.312 8.32798 200.293 8.61128 199.311 8.88529C198.859 9.01068 198.408 9.13607 197.951 9.2568C195.959 9.79549 193.969 10.3295 191.979 10.8589L189.321 11.5694C189.219 11.3312 189.068 11.117 188.879 10.9405C185.552 7.61408 182.822 4.88396 180.302 2.3635L180.278 2.34021C180.089 2.13545 179.855 1.97749 179.594 1.87882L180.587 -1.77985C180.778 -2.51997 180.973 -3.25543 181.168 -3.99089C181.799 -6.32761 182.459 -8.74811 183.058 -11.1361C183.076 -11.2691 183.134 -11.3935 183.225 -11.4924C183.315 -11.5914 183.434 -11.6602 183.565 -11.6897C187.093 -12.5439 190.659 -13.5285 194.099 -14.4805L195.695 -14.9217C195.951 -15.0199 196.231 -15.0357 196.497 -14.9671C196.762 -14.8985 197 -14.7488 197.176 -14.5389L197.199 -14.5156C199.697 -11.9626 202.417 -9.23246 205.776 -5.93858C205.971 -5.79362 206.112 -5.58827 206.177 -5.35479C206.242 -5.12131 206.227 -4.87294 206.136 -4.64871C205.807 -3.68308 205.528 -2.70119 205.3 -1.7069C204.952 -0.194042 204.52 1.35599 204.116 2.84088C203.712 4.32576 203.238 6.03872 202.857 7.64932C202.778 7.91464 202.648 8.02628 202.322 8.09124Z" fill="#D0F1FF"/>
<path d="M232.065 37.8336C231.055 38.0704 230.035 38.3537 229.053 38.6277C228.602 38.7531 228.15 38.8785 227.694 38.9992C225.702 39.5379 223.711 40.0719 221.722 40.6013L219.064 41.3117C218.952 41.0687 218.796 40.849 218.602 40.6643C215.276 37.3378 212.546 34.6077 210.025 32.0873C209.833 31.8702 209.59 31.7038 209.317 31.6026L210.311 27.9439L210.892 25.7328C211.523 23.3961 212.178 20.9803 212.777 18.5924C212.795 18.4593 212.853 18.3349 212.944 18.236C213.034 18.137 213.153 18.0682 213.284 18.0387C216.812 17.1845 220.369 16.1999 223.804 15.2525L225.414 14.8067C225.67 14.7085 225.95 14.6926 226.216 14.7613C226.481 14.8299 226.719 14.9796 226.895 15.1895L226.919 15.2128C229.416 17.7658 232.137 20.4959 235.496 23.7898C235.69 23.9348 235.831 24.1401 235.896 24.3736C235.961 24.6071 235.946 24.8555 235.855 25.0797C235.526 26.0453 235.247 27.0272 235.019 28.0215C234.671 29.5344 234.239 31.0844 233.835 32.5693C233.431 34.0542 232.957 35.7671 232.577 37.3777C232.521 37.657 232.391 37.7687 232.065 37.8336Z" fill="#A3E3FF"/>
<path d="M221.608 78.3867C221.348 78.3629 221.085 78.3913 220.835 78.4699L219.206 78.9157C215.776 79.8678 212.229 80.843 208.71 81.6972C208.567 81.7295 208.434 81.793 208.319 81.8832L198.502 72.0669C198.57 71.9632 198.619 71.8481 198.646 71.7271C199.027 70.1165 199.473 68.4967 199.895 66.928C200.318 65.3593 200.727 63.8977 201.089 62.3709C201.311 61.3893 201.584 60.4198 201.906 59.4663C201.994 59.2463 202.03 59.0091 202.013 58.7727L204.647 58.0576L210.652 56.4509C211.099 56.3301 211.555 56.2001 212.011 56.0793C212.989 55.81 214.004 55.522 215.009 55.2899C215.139 55.2592 215.264 55.2124 215.381 55.1505L225.235 65.0041C225.169 65.1187 225.12 65.2426 225.091 65.3718C224.487 67.7458 223.837 70.1476 223.206 72.4751L222.597 74.7326L221.608 78.3867Z" fill="#A3E3FF"/>
<path d="M209.001 31.5186C208.737 31.4962 208.472 31.5244 208.219 31.6018L206.613 32.043C203.173 32.9951 199.621 33.9749 196.093 34.8291C195.952 34.8598 195.82 34.9218 195.707 35.0105L185.89 25.1942C185.957 25.0899 186.006 24.975 186.034 24.8544C186.41 23.2484 186.856 21.6286 187.279 20.0599C187.701 18.4912 188.11 17.0296 188.477 15.4982C188.698 14.5162 188.971 13.5466 189.294 12.5936C189.384 12.3727 189.419 12.133 189.396 11.8953L192.059 11.1802L198.036 9.58275C198.487 9.45736 198.939 9.33198 199.395 9.21125C200.377 8.93724 201.387 8.65394 202.392 8.42185C202.522 8.39112 202.647 8.34429 202.765 8.28244L212.618 18.136C212.551 18.2489 212.501 18.3713 212.47 18.499C211.875 20.8823 211.221 23.2982 210.584 25.6302L210.004 27.8413L209.001 31.5186Z" fill="#D0F1FF"/>
<path d="M238.743 61.261C238.481 61.2321 238.216 61.2589 237.966 61.3396L236.337 61.7854C232.911 62.7328 229.359 63.7127 225.84 64.5669C225.7 64.5986 225.568 64.6605 225.454 64.7482L215.637 54.9319C215.704 54.8276 215.753 54.7127 215.781 54.5921C216.157 52.9862 216.603 51.3663 217.026 49.7976C217.448 48.229 217.857 46.7674 218.224 45.2359C218.445 44.2539 218.718 43.2843 219.041 42.3313C219.13 42.1099 219.165 41.8707 219.143 41.633L221.806 40.9179L227.783 39.3205C228.234 39.1951 228.686 39.0697 229.142 38.949C230.124 38.675 231.134 38.3917 232.139 38.1596C232.269 38.1289 232.394 38.082 232.512 38.0202L242.365 47.8737C242.3 47.9889 242.252 48.1127 242.221 48.2414C241.622 50.6108 240.968 53.0173 240.341 55.34L239.728 57.6023L238.743 61.261Z" fill="#E7F7FF"/>
<path d="M168.066 42.3473C167.056 42.584 166.037 42.8673 165.055 43.1414C164.603 43.2667 164.152 43.3921 163.695 43.5129L157.388 45.2078L155.065 45.8254C154.959 45.5794 154.804 45.3575 154.609 45.1733C151.287 41.9074 148.561 39.1819 146.032 36.5963C145.837 36.3818 145.594 36.2158 145.324 36.1116L146.912 30.2559C147.548 27.9052 148.207 25.4754 148.811 23.0735C148.829 22.9404 148.887 22.816 148.978 22.7171C149.068 22.6181 149.187 22.5493 149.318 22.5198C152.847 21.6656 156.403 20.681 159.843 19.729L161.449 19.2878C161.704 19.1897 161.984 19.1738 162.25 19.2424C162.515 19.311 162.753 19.4607 162.929 19.6706L162.953 19.6939C165.459 22.2563 168.18 24.9864 171.53 28.2709C171.726 28.4155 171.868 28.6214 171.934 28.8559C172 29.0905 171.986 29.3402 171.894 29.5655C171.541 30.5615 171.29 31.567 171.058 32.5073C170.71 34.0201 170.278 35.5702 169.869 37.0597C169.46 38.5492 168.996 40.2529 168.615 41.8635C168.522 42.1707 168.411 42.2637 168.066 42.3473Z" fill="#E7F7FF"/>
<path d="M197.809 72.0897C196.799 72.3265 195.779 72.6097 194.797 72.8837C194.345 73.0091 193.894 73.1345 193.438 73.2553L187.107 74.9269L184.784 75.5445C184.678 75.2985 184.523 75.0766 184.328 74.8924C181.006 71.6265 178.281 68.901 175.751 66.3154C175.558 66.0983 175.315 65.9319 175.043 65.8307L176.626 59.9703C177.267 57.6243 177.922 55.1991 178.525 52.7972C178.543 52.6641 178.602 52.5398 178.692 52.4408C178.783 52.3419 178.902 52.273 179.033 52.2435C182.561 51.3893 186.117 50.4048 189.557 49.4527L191.163 49.0116C191.419 48.9134 191.699 48.8975 191.964 48.9661C192.23 49.0348 192.467 49.1844 192.644 49.3944L192.667 49.4177C195.174 51.98 197.894 54.7101 201.244 57.9947C201.44 58.1393 201.583 58.3451 201.649 58.5797C201.715 58.8142 201.7 59.0639 201.608 59.2892C201.255 60.2853 201.004 61.2907 200.772 62.231C200.424 63.7439 199.992 65.2939 199.583 66.7835C199.175 68.273 198.706 70.0372 198.334 71.6385C198.265 71.9131 198.153 72.0061 197.809 72.0897Z" fill="#D0F1FF"/>
<path d="M175.061 65.868C175.05 65.9098 175.023 65.9455 174.985 65.9673C174.948 65.989 174.903 65.9951 174.861 65.9842C174.837 65.9685 174.816 65.9479 174.801 65.9236C174.78 65.9033 174.765 65.8781 174.757 65.8505C174.749 65.8228 174.748 65.7935 174.754 65.7653C174.866 65.7762 174.976 65.8046 175.08 65.8493L175.061 65.868Z" fill="#D0F1FF"/>
<path d="M162.123 18.9019C161.863 18.8781 161.6 18.9064 161.351 18.9851L159.74 19.431C156.305 20.3783 152.749 21.3629 149.225 22.2124C149.082 22.2447 148.949 22.3082 148.834 22.3984L139.036 12.6007C139.104 12.497 139.153 12.3819 139.18 12.261C139.561 10.6504 140.002 9.03515 140.429 7.47114C140.857 5.90713 141.256 4.43621 141.623 2.90475C141.836 2.02032 142.101 0.98229 142.44 0.000176954C142.528 -0.219862 142.564 -0.457072 142.547 -0.693448L145.181 -1.4086L151.186 -3.01531L152.545 -3.38683C153.527 -3.66084 154.537 -3.94414 155.543 -4.17623C155.672 -4.20695 155.797 -4.25379 155.915 -4.31564L165.769 5.53792C165.701 5.6508 165.651 5.77318 165.62 5.90097C165.017 8.30288 164.362 10.728 163.726 13.0787L162.123 18.9019Z" fill="#E7F7FF"/>
<path d="M191.866 48.6443C191.605 48.6235 191.343 48.6518 191.093 48.7275L189.482 49.1734C186.047 50.1207 182.491 51.1053 178.967 51.9548C178.825 51.9871 178.691 52.0506 178.576 52.1408L168.76 42.3245C168.828 42.2208 168.877 42.1057 168.904 41.9847C169.285 40.3741 169.731 38.7543 170.153 37.1856C170.576 35.6169 170.984 34.1553 171.346 32.6285C171.569 31.6469 171.842 30.6774 172.164 29.7239C172.252 29.5039 172.288 29.2667 172.27 29.0303L174.905 28.3152L180.91 26.7084C181.361 26.583 181.813 26.4577 182.269 26.3369C183.251 26.0629 184.261 25.7796 185.267 25.5475C185.396 25.5168 185.521 25.47 185.639 25.4081L195.493 35.2617C195.425 35.3746 195.375 35.4969 195.344 35.6247C194.745 38.022 194.086 40.4518 193.449 42.7932L191.866 48.6443Z" fill="#D0F1FF"/>
<path d="M174.74 65.77C174.478 65.7514 174.214 65.7812 173.963 65.8579L172.357 66.2991C168.917 67.2511 165.365 68.231 161.837 69.0852C161.696 69.1159 161.564 69.1779 161.451 69.2665L151.634 59.4502C151.702 59.3465 151.751 59.2314 151.778 59.1105C152.154 57.5045 152.6 55.8846 153.027 54.3113C153.455 52.738 153.854 51.2857 154.221 49.7542C154.434 48.8698 154.699 47.8318 155.038 46.8497C155.124 46.6275 155.159 46.3889 155.14 46.1514L157.467 45.5291L163.798 43.8575C164.25 43.7321 164.706 43.6113 165.162 43.4813C166.139 43.2119 167.149 42.9286 168.155 42.6966C168.284 42.6658 168.41 42.619 168.527 42.5571L178.381 52.4107C178.313 52.5236 178.263 52.646 178.232 52.7737C177.633 55.171 176.978 57.5962 176.338 59.9422L174.74 65.77Z" fill="#D0F1FF"/>
<path d="M226.131 14.3882C225.867 14.3658 225.602 14.3941 225.349 14.4715L223.734 14.9126C220.303 15.8647 216.747 16.8492 213.223 17.6988C213.081 17.731 212.947 17.7946 212.832 17.8847L203.016 8.06843C203.084 7.9647 203.133 7.84964 203.16 7.72867C203.541 6.11807 203.982 4.49354 204.409 2.92953C204.836 1.36552 205.236 -0.096081 205.603 -1.62754C205.825 -2.60917 206.098 -3.57865 206.42 -4.53213C206.51 -4.75306 206.545 -4.99274 206.522 -5.23041L207.583 -5.51833C208.393 -5.73193 209.198 -5.95019 210.013 -6.15913C211.074 -6.43773 212.136 -6.72255 213.197 -7.01357C214.998 -7.51048 216.851 -8.01202 218.718 -8.4344C219.136 -8.48452 219.54 -8.62395 219.9 -8.84328L229.739 0.99632C229.523 1.35583 229.385 1.75715 229.335 2.17392C228.917 4.06384 228.397 5.96299 227.891 7.80163C227.612 8.82569 227.329 9.8544 227.065 10.8831C226.846 11.707 226.628 12.5309 226.405 13.3502L226.131 14.3882Z" fill="#E7F7FF"/>
</g>
<defs>
<clipPath id="clip0_608_513">
<rect width="132.782" height="96.5684" fill="white" transform="translate(186.284 -41) rotate(45)"/>
</clipPath>
</defs>
</svg>
