<svg width="228" height="98" viewBox="0 0 228 98" fill="none" xmlns="http://www.w3.org/2000/svg">
<rect width="228" height="98" rx="8" fill="#F5C7FF"/>
<g clip-path="url(#clip0_608_512)">
<path d="M186.192 27.6898C185.182 27.9265 184.167 28.2052 183.185 28.4792C182.729 28.6092 182.277 28.7346 181.826 28.8507L175.826 30.4621L173.2 31.1679C173.096 30.9284 172.944 30.7127 172.753 30.5344C169.408 27.2452 166.673 24.5011 164.176 21.9574L164.153 21.9341C163.958 21.7269 163.717 21.5688 163.449 21.4727L165.038 15.617C165.674 13.2663 166.329 10.8411 166.932 8.43923C166.95 8.30617 167.008 8.18182 167.099 8.08285C167.189 7.98389 167.308 7.91505 167.439 7.88556C170.972 7.02671 174.533 6.04682 177.978 5.09013L179.574 4.64894C179.83 4.55236 180.109 4.53777 180.374 4.6072C180.638 4.67662 180.875 4.82662 181.05 5.03638L181.074 5.05967C183.571 7.6127 186.296 10.3382 189.651 13.6367C189.852 13.7801 190 13.9876 190.068 14.2252C190.137 14.4629 190.123 14.7167 190.029 14.9452C189.68 15.9366 189.425 16.9467 189.197 17.8824C188.849 19.3952 188.413 20.9499 188.009 22.4348C187.605 23.9197 187.136 25.628 186.755 27.2386C186.648 27.5132 186.536 27.6062 186.192 27.6898Z" fill="#F0ADFF"/>
<path d="M215.934 57.4322C214.924 57.6689 213.905 57.9522 212.927 58.2216C212.471 58.3516 212.02 58.477 211.568 58.5931L205.568 60.2045L202.943 60.9103C202.839 60.6708 202.686 60.4551 202.495 60.2768C199.15 56.9876 196.416 54.2435 193.918 51.6998C193.719 51.4895 193.476 51.3256 193.206 51.2198L194.789 45.3594C195.425 43.018 196.085 40.5882 196.684 38.1909C196.702 38.0579 196.76 37.9335 196.851 37.8346C196.941 37.7356 197.06 37.6668 197.191 37.6373C200.724 36.7784 204.276 35.7985 207.715 34.8465L209.326 34.4006C209.582 34.3041 209.861 34.2895 210.126 34.3589C210.39 34.4283 210.627 34.5783 210.802 34.7881L210.825 34.8114C213.323 37.3644 216.048 40.0899 219.402 43.3884C219.602 43.5333 219.748 43.7408 219.817 43.9779C219.885 44.215 219.872 44.4681 219.78 44.6969C219.432 45.6883 219.177 46.6985 218.949 47.6341C218.601 49.1469 218.164 50.7016 217.76 52.1865C217.356 53.6714 216.887 55.3797 216.507 56.9903C216.391 57.2556 216.279 57.3486 215.934 57.4322Z" fill="#FCEDFF"/>
<path d="M245.677 87.1746C244.667 87.4113 243.647 87.6946 242.665 87.9686C242.214 88.094 241.762 88.2194 241.311 88.3355C239.433 88.8463 237.554 89.3525 235.674 89.854L232.685 90.6527C232.58 90.4035 232.421 90.1807 232.219 90.0006C228.874 86.7114 226.139 83.9673 223.642 81.4236L223.619 81.4003C223.428 81.1966 223.192 81.0402 222.929 80.9435L223.923 77.2849C224.109 76.5401 224.299 75.8 224.532 75.0273C225.163 72.6999 225.813 70.2887 226.408 67.9147C226.425 67.7816 226.484 67.6573 226.574 67.5583C226.665 67.4594 226.784 67.3905 226.915 67.361C230.438 66.5022 233.99 65.5223 237.421 64.5795L239.05 64.1244C239.305 64.0278 239.585 64.0133 239.849 64.0827C240.114 64.1521 240.35 64.3021 240.526 64.5119L240.549 64.5351C243.046 67.0882 245.772 69.8136 249.126 73.1122C249.322 73.2556 249.465 73.461 249.53 73.695C249.595 73.9291 249.579 74.1782 249.486 74.4021C249.137 75.4028 248.872 76.4501 248.654 77.3392C248.306 78.8521 247.87 80.4068 247.466 81.8916C247.062 83.3765 246.593 85.0848 246.212 86.6954C246.133 86.998 246.003 87.0724 245.677 87.1746Z" fill="#F9DEFF"/>
<path d="M203.322 10.5594C202.312 10.7962 201.293 11.0795 200.311 11.3535C199.859 11.4789 199.408 11.6043 198.951 11.725C196.959 12.2637 194.969 12.7977 192.979 13.3271L190.321 14.0376C190.219 13.7994 190.068 13.5852 189.879 13.4087C186.552 10.0823 183.822 7.35217 181.302 4.8317L181.278 4.80841C181.089 4.60365 180.855 4.44569 180.594 4.34702L181.587 0.688353C181.778 -0.0517678 181.973 -0.78723 182.168 -1.52269C182.799 -3.85941 183.459 -6.27991 184.058 -8.66786C184.076 -8.80092 184.134 -8.92527 184.225 -9.02424C184.315 -9.1232 184.434 -9.19204 184.565 -9.22153C188.093 -10.0757 191.659 -11.0603 195.099 -12.0123L196.695 -12.4535C196.951 -12.5517 197.231 -12.5675 197.497 -12.4989C197.762 -12.4303 198 -12.2806 198.176 -12.0707L198.199 -12.0474C200.697 -9.49437 203.417 -6.76426 206.776 -3.47038C206.971 -3.32542 207.112 -3.12007 207.177 -2.88659C207.242 -2.65311 207.227 -2.40474 207.136 -2.18051C206.807 -1.21488 206.528 -0.232987 206.3 0.761305C205.952 2.27416 205.52 3.82419 205.116 5.30908C204.712 6.79396 204.238 8.50692 203.857 10.1175C203.778 10.3828 203.648 10.4945 203.322 10.5594Z" fill="#F9DEFF"/>
<path d="M233.065 40.3018C232.055 40.5386 231.035 40.8219 230.053 41.0959C229.602 41.2213 229.15 41.3467 228.694 41.4674C226.702 42.0061 224.711 42.5401 222.722 43.0695L220.064 43.7799C219.952 43.5369 219.796 43.3172 219.602 43.1325C216.276 39.806 213.546 37.0759 211.025 34.5555C210.833 34.3384 210.59 34.172 210.317 34.0708L211.311 30.4121L211.892 28.201C212.523 25.8643 213.178 23.4485 213.777 21.0606C213.795 20.9275 213.853 20.8031 213.944 20.7042C214.034 20.6052 214.153 20.5364 214.284 20.5069C217.812 19.6527 221.369 18.6681 224.804 17.7207L226.414 17.2749C226.67 17.1767 226.95 17.1608 227.216 17.2295C227.481 17.2981 227.719 17.4478 227.895 17.6577L227.919 17.681C230.416 20.234 233.137 22.9641 236.496 26.258C236.69 26.403 236.831 26.6083 236.896 26.8418C236.961 27.0753 236.946 27.3237 236.855 27.5479C236.526 28.5135 236.247 29.4954 236.019 30.4897C235.671 32.0026 235.239 33.5526 234.835 35.0375C234.431 36.5224 233.957 38.2353 233.577 39.8459C233.521 40.1252 233.391 40.2369 233.065 40.3018Z" fill="#F0ADFF"/>
<path d="M222.608 80.8549C222.348 80.8311 222.085 80.8595 221.835 80.9381L220.206 81.3839C216.776 82.336 213.229 83.3112 209.71 84.1654C209.567 84.1977 209.434 84.2612 209.319 84.3514L199.502 74.5351C199.57 74.4314 199.619 74.3163 199.646 74.1953C200.027 72.5847 200.473 70.9649 200.895 69.3962C201.318 67.8275 201.727 66.3659 202.089 64.8391C202.311 63.8575 202.584 62.888 202.906 61.9345C202.994 61.7145 203.03 61.4773 203.013 61.2409L205.647 60.5258L211.652 58.9191C212.099 58.7983 212.555 58.6683 213.011 58.5475C213.989 58.2782 215.004 57.9902 216.009 57.7581C216.139 57.7274 216.264 57.6806 216.381 57.6187L226.235 67.4723C226.169 67.5869 226.12 67.7108 226.091 67.84C225.487 70.214 224.837 72.6158 224.206 74.9433L223.597 77.2008L222.608 80.8549Z" fill="#F0ADFF"/>
<path d="M210.001 33.9868C209.737 33.9644 209.472 33.9926 209.219 34.07L207.613 34.5112C204.173 35.4633 200.621 36.4431 197.093 37.2973C196.952 37.328 196.82 37.39 196.707 37.4787L186.89 27.6624C186.957 27.5581 187.006 27.4432 187.034 27.3226C187.41 25.7166 187.856 24.0968 188.279 22.5281C188.701 20.9594 189.11 19.4978 189.477 17.9664C189.698 16.9844 189.971 16.0148 190.294 15.0618C190.384 14.8409 190.419 14.6012 190.396 14.3635L193.059 13.6484L199.035 12.0509C199.487 11.9256 199.939 11.8002 200.395 11.6794C201.377 11.4054 202.387 11.1221 203.392 10.8901C203.522 10.8593 203.647 10.8125 203.765 10.7506L213.618 20.6042C213.551 20.7171 213.501 20.8395 213.47 20.9672C212.875 23.3505 212.221 25.7664 211.584 28.0984L211.004 30.3095L210.001 33.9868Z" fill="#F9DEFF"/>
<path d="M239.743 63.7292C239.481 63.7003 239.216 63.7271 238.966 63.8078L237.337 64.2536C233.911 65.201 230.359 66.1809 226.84 67.0351C226.7 67.0668 226.568 67.1287 226.454 67.2164L216.637 57.4001C216.704 57.2958 216.753 57.1809 216.781 57.0603C217.157 55.4544 217.603 53.8345 218.026 52.2658C218.448 50.6972 218.857 49.2356 219.224 47.7041C219.445 46.7221 219.718 45.7525 220.041 44.7995C220.13 44.5781 220.165 44.3389 220.143 44.1012L222.806 43.3861L228.783 41.7887C229.234 41.6633 229.686 41.5379 230.142 41.4172C231.124 41.1432 232.134 40.8599 233.139 40.6278C233.269 40.5971 233.394 40.5502 233.512 40.4884L243.365 50.3419C243.3 50.4571 243.252 50.5809 243.221 50.7096C242.622 53.079 241.968 55.4855 241.341 57.8082L240.728 60.0705L239.743 63.7292Z" fill="#FCEDFF"/>
<path d="M169.066 44.8155C168.056 45.0522 167.037 45.3355 166.055 45.6096C165.603 45.7349 165.152 45.8603 164.695 45.9811L158.388 47.676L156.065 48.2936C155.959 48.0476 155.804 47.8257 155.609 47.6415C152.287 44.3756 149.561 41.6501 147.032 39.0645C146.837 38.85 146.594 38.684 146.324 38.5798L147.912 32.7241C148.548 30.3734 149.207 27.9436 149.811 25.5417C149.829 25.4086 149.887 25.2842 149.978 25.1853C150.068 25.0863 150.187 25.0175 150.318 24.988C153.847 24.1338 157.403 23.1492 160.843 22.1972L162.449 21.756C162.704 21.6579 162.984 21.642 163.25 21.7106C163.515 21.7792 163.753 21.9289 163.929 22.1388L163.953 22.1621C166.459 24.7245 169.18 27.4546 172.53 30.7391C172.726 30.8837 172.868 31.0896 172.934 31.3241C173 31.5587 172.986 31.8084 172.894 32.0337C172.541 33.0297 172.29 34.0352 172.058 34.9755C171.71 36.4883 171.278 38.0384 170.869 39.5279C170.46 41.0174 169.996 42.7211 169.615 44.3317C169.522 44.6389 169.411 44.7319 169.066 44.8155Z" fill="#FCEDFF"/>
<path d="M198.809 74.5579C197.799 74.7947 196.779 75.0779 195.797 75.3519C195.345 75.4773 194.894 75.6027 194.438 75.7235L188.107 77.3951L185.784 78.0127C185.678 77.7667 185.523 77.5448 185.328 77.3606C182.006 74.0947 179.281 71.3692 176.751 68.7836C176.558 68.5665 176.315 68.4001 176.043 68.2989L177.626 62.4385C178.267 60.0925 178.922 57.6673 179.525 55.2654C179.543 55.1323 179.602 55.008 179.692 54.909C179.783 54.8101 179.902 54.7412 180.033 54.7117C183.561 53.8575 187.117 52.873 190.557 51.9209L192.163 51.4798C192.419 51.3816 192.699 51.3657 192.964 51.4343C193.23 51.503 193.467 51.6526 193.644 51.8626L193.667 51.8859C196.174 54.4482 198.894 57.1783 202.244 60.4629C202.44 60.6075 202.583 60.8133 202.649 61.0479C202.715 61.2824 202.7 61.5321 202.608 61.7574C202.255 62.7535 202.004 63.7589 201.772 64.6992C201.424 66.2121 200.992 67.7621 200.583 69.2517C200.175 70.7412 199.706 72.5054 199.334 74.1067C199.265 74.3813 199.153 74.4743 198.809 74.5579Z" fill="#F9DEFF"/>
<path d="M176.061 68.3362C176.05 68.378 176.023 68.4137 175.985 68.4355C175.948 68.4572 175.903 68.4633 175.861 68.4524C175.837 68.4367 175.816 68.4161 175.801 68.3918C175.78 68.3715 175.765 68.3463 175.757 68.3187C175.749 68.291 175.748 68.2617 175.754 68.2335C175.866 68.2444 175.976 68.2728 176.08 68.3175L176.061 68.3362Z" fill="#F9DEFF"/>
<path d="M163.123 21.3701C162.863 21.3463 162.6 21.3746 162.351 21.4533L160.74 21.8992C157.305 22.8465 153.749 23.8311 150.225 24.6806C150.082 24.7129 149.949 24.7764 149.834 24.8666L140.036 15.0689C140.104 14.9652 140.153 14.8501 140.18 14.7292C140.561 13.1186 141.002 11.5034 141.429 9.93934C141.857 8.37533 142.256 6.90441 142.623 5.37295C142.836 4.48852 143.101 3.45049 143.44 2.46838C143.528 2.24834 143.564 2.01113 143.547 1.77475L146.181 1.0596L152.186 -0.547114L153.545 -0.91863C154.527 -1.19264 155.537 -1.47594 156.543 -1.70803C156.672 -1.73875 156.798 -1.78559 156.915 -1.84744L166.769 8.00612C166.701 8.119 166.651 8.24138 166.62 8.36917C166.017 10.7711 165.362 13.1962 164.726 15.5469L163.123 21.3701Z" fill="#FCEDFF"/>
<path d="M192.866 51.1125C192.605 51.0917 192.343 51.12 192.093 51.1957L190.482 51.6416C187.047 52.589 183.491 53.5735 179.967 54.423C179.825 54.4553 179.691 54.5188 179.576 54.609L169.76 44.7927C169.828 44.689 169.877 44.5739 169.904 44.4529C170.285 42.8423 170.731 41.2225 171.153 39.6538C171.576 38.0851 171.984 36.6235 172.346 35.0967C172.569 34.1151 172.842 33.1456 173.164 32.1921C173.252 31.9721 173.288 31.7349 173.27 31.4985L175.905 30.7834L181.91 29.1766C182.361 29.0513 182.813 28.9259 183.269 28.8051C184.251 28.5311 185.261 28.2478 186.267 28.0157C186.396 27.985 186.521 27.9382 186.639 27.8763L196.493 37.7299C196.425 37.8428 196.375 37.9651 196.344 38.0929C195.745 40.4902 195.086 42.92 194.449 45.2614L192.866 51.1125Z" fill="#F9DEFF"/>
<path d="M175.74 68.2382C175.478 68.2196 175.214 68.2494 174.963 68.3261L173.357 68.7673C169.917 69.7193 166.365 70.6992 162.837 71.5534C162.696 71.5841 162.564 71.6461 162.451 71.7347L152.634 61.9184C152.702 61.8147 152.751 61.6996 152.778 61.5787C153.154 59.9727 153.6 58.3528 154.027 56.7795C154.455 55.2062 154.854 53.7539 155.221 52.2225C155.434 51.338 155.699 50.3 156.038 49.3179C156.124 49.0957 156.159 48.8571 156.14 48.6196L158.467 47.9973L164.798 46.3257C165.25 46.2003 165.706 46.0795 166.162 45.9495C167.139 45.6801 168.15 45.3968 169.155 45.1648C169.284 45.134 169.41 45.0872 169.527 45.0253L179.381 54.8789C179.313 54.9918 179.263 55.1142 179.232 55.2419C178.633 57.6392 177.978 60.0644 177.338 62.4104L175.74 68.2382Z" fill="#F9DEFF"/>
<path d="M227.131 16.8564C226.867 16.834 226.602 16.8623 226.349 16.9397L224.734 17.3808C221.303 18.3329 217.747 19.3174 214.223 20.167C214.081 20.1992 213.947 20.2628 213.832 20.3529L204.016 10.5366C204.084 10.4329 204.133 10.3178 204.16 10.1969C204.541 8.58627 204.982 6.96174 205.409 5.39773C205.836 3.83372 206.236 2.37212 206.603 0.840656C206.825 -0.140969 207.098 -1.11045 207.42 -2.06393C207.51 -2.28486 207.545 -2.52454 207.522 -2.7622L208.583 -3.05013C209.393 -3.26373 210.198 -3.48198 211.013 -3.69093C212.074 -3.96953 213.136 -4.25435 214.197 -4.54537C215.998 -5.04228 217.851 -5.54382 219.718 -5.96619C220.136 -6.01631 220.54 -6.15575 220.9 -6.37508L230.739 3.46452C230.523 3.82403 230.385 4.22535 230.335 4.64212C229.917 6.53204 229.397 8.43119 228.891 10.2698C228.612 11.2939 228.329 12.3226 228.065 13.3513C227.846 14.1752 227.628 14.9991 227.405 15.8184L227.131 16.8564Z" fill="#FCEDFF"/>
</g>
<defs>
<clipPath id="clip0_608_512">
<rect width="132.782" height="96.5684" fill="white" transform="translate(186.284 -41) rotate(45)"/>
</clipPath>
</defs>
</svg>
