<svg width="381" height="275" viewBox="0 0 381 275" fill="none" xmlns="http://www.w3.org/2000/svg">
<path d="M278.316 94.1453C277.768 94.1099 277.219 94.0742 276.671 94.0387C271.736 93.7187 266.8 93.3987 261.865 93.0784V84.659L245.759 67.2185H197.616C195.056 67.2205 192.852 68.8683 191.855 71.238C189.666 72.3187 188.145 74.7094 188.145 77.4858V88.2969C184.426 88.0558 180.709 87.8146 176.99 87.5735C166.35 86.8832 155.71 86.1931 145.07 85.503C135.216 84.8641 125.363 84.225 115.51 83.5865C112.877 83.4146 110.243 83.2447 107.61 83.0728C106.128 82.1067 104.787 80.7738 103.606 79.1737C101.21 75.9257 100.353 71.2704 100.446 66.8405C100.508 64.4823 101.005 62.3112 101.936 60.3292C102.58 58.2441 103.582 56.4683 104.942 55.0037C107.336 52.2292 110.692 50.5776 113.874 50.5776C114.07 50.5776 114.265 50.5852 114.458 50.5966C114.549 50.6024 114.64 50.61 114.732 50.6157C116.814 50.736 118.896 50.885 120.978 51.0206C125.383 51.3051 129.788 51.5915 134.194 51.8779C140.321 52.2751 146.448 52.6722 152.576 53.0694C159.8 53.5372 167.026 54.0069 174.25 54.4748C182.052 54.9808 189.854 55.4868 197.655 55.9928C205.331 56.4912 213.008 56.9895 220.686 57.486C227.718 57.9424 234.752 58.3987 241.786 58.8551C247.55 59.2293 253.315 59.6036 259.082 59.9779C262.968 60.2299 266.858 60.4819 270.746 60.734C272.188 60.8276 273.629 60.9211 275.071 61.0147C278.612 61.2438 281.649 63.3843 284.035 66.619C286.43 69.867 287.287 74.5223 287.193 78.9522C287.132 81.3104 286.636 83.4815 285.706 85.4643C285.061 87.5488 284.06 89.3237 282.699 90.789C281.448 92.2408 279.93 93.3845 278.316 94.1453Z" fill="#F2F2F2"/>
<path d="M259.963 226.001C259.766 226.001 259.572 225.995 259.379 225.983C259.285 225.976 259.191 225.97 259.097 225.965C256.956 225.84 254.815 225.687 252.676 225.548C248.147 225.254 243.617 224.96 239.089 224.667C232.79 224.259 226.492 223.85 220.193 223.44C212.767 222.959 205.34 222.478 197.912 221.995C189.892 221.475 181.872 220.956 173.852 220.435C165.96 219.923 158.068 219.412 150.177 218.9C142.946 218.431 135.716 217.962 128.485 217.493C122.559 217.108 116.633 216.723 110.707 216.34C106.71 216.08 102.712 215.821 98.715 215.562C97.233 215.465 95.7508 215.369 94.2686 215.274C90.7279 215.043 87.6923 212.904 85.3051 209.668C82.9093 206.422 82.0526 201.765 82.1454 197.336C82.2077 194.978 82.7039 192.808 83.6348 190.824C84.2787 188.739 85.2807 186.964 86.6406 185.499C87.8929 184.048 89.4087 182.904 91.0247 182.142C91.9932 182.205 92.9619 182.269 93.9305 182.33C102.359 182.878 110.787 183.425 119.216 183.971C121.499 184.119 123.783 184.268 126.066 184.415L126.297 187.326H126.294L126.418 188.88C126.441 189.287 126.526 189.687 126.663 190.069C126.719 190.22 126.78 190.373 126.849 190.517C126.92 190.667 126.999 190.812 127.08 190.949C127.209 191.162 127.349 191.367 127.509 191.558C127.561 191.621 127.617 191.686 127.672 191.749C128.006 192.125 128.394 192.457 128.822 192.741C129.032 192.878 129.252 193.003 129.479 193.115C129.484 193.117 129.489 193.12 129.494 193.123C129.73 193.236 129.971 193.339 130.22 193.42C130.55 193.533 130.893 193.618 131.246 193.667C131.25 193.667 131.253 193.669 131.257 193.669C131.515 193.707 131.779 193.728 132.045 193.731L157.608 193.876L202.508 194.14C202.734 194.447 203.048 194.682 203.424 194.798C205.133 195.322 206.91 195.891 208.704 196.49C208.88 196.549 209.059 196.577 209.234 196.577C210.001 196.577 210.712 196.041 210.95 195.205C211.048 194.862 211.053 194.515 210.984 194.19L235.899 194.336C235.992 194.336 236.084 194.336 236.18 194.333C236.235 194.329 236.294 194.326 236.352 194.318C236.849 194.283 237.336 194.18 237.795 194.025C237.946 193.975 238.092 193.919 238.237 193.854C238.696 193.656 239.129 193.405 239.52 193.105C239.614 193.031 239.71 192.952 239.797 192.874C240.149 192.57 240.458 192.226 240.715 191.851C243.689 192.045 246.666 192.237 249.641 192.43C255.169 192.789 260.697 193.148 266.226 193.507C267.707 194.472 269.048 195.806 270.229 197.406C272.625 200.654 273.482 205.31 273.39 209.74C273.328 212.097 272.831 214.268 271.9 216.251C271.437 217.752 270.788 219.091 269.952 220.271C268.806 219.583 267.618 218.886 266.409 218.192C266.14 218.038 265.853 217.965 265.57 217.965C264.926 217.965 264.303 218.342 263.981 219C263.516 219.95 263.85 221.128 264.726 221.632C265.602 222.134 266.464 222.637 267.31 223.138C265.13 224.96 262.491 226.002 259.963 226.001ZM255.656 212.555C254.986 212.555 254.344 212.962 254.035 213.659C253.605 214.627 253.981 215.79 254.877 216.255C256.558 217.13 258.223 218.017 259.827 218.892C260.088 219.033 260.364 219.099 260.635 219.099C261.291 219.099 261.924 218.708 262.239 218.028C262.687 217.069 262.328 215.898 261.442 215.415C259.82 214.529 258.134 213.631 256.432 212.746C256.181 212.616 255.916 212.555 255.656 212.555ZM245.57 207.529C244.881 207.529 244.221 207.962 243.924 208.691C243.525 209.674 243.936 210.823 244.845 211.256C246.533 212.064 248.228 212.89 249.879 213.712C250.124 213.833 250.379 213.891 250.631 213.891C251.308 213.891 251.959 213.47 252.263 212.757C252.678 211.78 252.282 210.624 251.381 210.176C249.713 209.344 248.001 208.509 246.295 207.694C246.059 207.583 245.812 207.529 245.57 207.529ZM235.346 202.844C234.638 202.844 233.965 203.305 233.681 204.061C233.309 205.057 233.752 206.192 234.671 206.595C236.367 207.34 238.082 208.11 239.775 208.885C240.003 208.989 240.24 209.039 240.473 209.039C241.173 209.039 241.839 208.593 242.129 207.851C242.517 206.861 242.089 205.718 241.174 205.3C239.466 204.518 237.733 203.739 236.02 202.989C235.8 202.891 235.571 202.844 235.346 202.844ZM224.995 198.496C224.264 198.496 223.579 198.983 223.309 199.768C222.965 200.776 223.442 201.895 224.373 202.268C226.079 202.953 227.817 203.666 229.535 204.388C229.75 204.479 229.968 204.52 230.185 204.52C230.905 204.52 231.584 204.049 231.861 203.279C232.22 202.276 231.76 201.149 230.834 200.76C229.099 200.029 227.343 199.309 225.618 198.617C225.413 198.535 225.202 198.496 224.995 198.496ZM214.519 194.516C213.766 194.516 213.064 195.033 212.814 195.851C212.502 196.871 213.014 197.973 213.955 198.309C215.668 198.924 217.425 199.573 219.178 200.24C219.375 200.316 219.576 200.35 219.774 200.35C220.516 200.35 221.21 199.85 221.47 199.048C221.797 198.035 221.306 196.923 220.37 196.567C218.594 195.892 216.816 195.235 215.084 194.615C214.898 194.547 214.707 194.516 214.519 194.516Z" fill="#F2F2F2"/>
<path d="M268.042 159.32C265.983 159.186 263.923 159.053 261.864 158.919V130.676C262.316 130.793 262.757 130.912 263.187 131.031C263.339 131.072 263.486 131.092 263.634 131.092C264.436 131.092 265.165 130.506 265.374 129.626C265.561 128.828 265.264 128.019 264.681 127.565C266.374 127.675 268.066 127.784 269.759 127.894C270.709 128.513 271.601 129.283 272.43 130.178C271.495 129.76 270.498 129.355 269.446 128.968C269.254 128.897 269.059 128.864 268.868 128.864C268.121 128.864 267.42 129.374 267.167 130.185C266.848 131.202 267.351 132.308 268.291 132.653C270.102 133.32 271.727 134.036 273.113 134.782C273.37 134.919 273.642 134.985 273.91 134.985C274.406 134.985 274.889 134.76 275.232 134.358C276.515 137.267 276.993 140.763 276.921 144.127C276.896 145.114 276.794 146.067 276.616 146.989C276.192 147.202 275.727 147.408 275.224 147.606C274.291 147.975 273.81 149.091 274.148 150.102C274.338 150.665 274.743 151.076 275.226 151.266C274.581 153.081 273.649 154.647 272.428 155.965C271.174 157.415 269.66 158.559 268.042 159.32ZM270.583 149.021C270.466 149.021 270.347 149.035 270.226 149.061C268.676 149.399 266.909 149.708 264.973 149.979C263.989 150.117 263.294 151.093 263.424 152.159C263.539 153.14 264.312 153.855 265.203 153.855C265.279 153.855 265.356 153.851 265.434 153.84C267.454 153.557 269.305 153.233 270.936 152.876C271.91 152.663 272.539 151.636 272.343 150.583C272.17 149.659 271.421 149.021 270.583 149.021ZM123.326 149.934C115.983 149.458 108.64 148.981 101.296 148.505C98.5094 148.324 95.7227 148.144 92.9359 147.962C91.4539 146.997 90.1137 145.664 88.9319 144.063C86.5364 140.815 85.6796 136.159 85.7724 131.729C85.8346 129.372 86.3309 127.201 87.2618 125.218C87.9057 123.133 88.9078 121.358 90.2676 119.893C91.5199 118.441 93.0353 117.298 94.6517 116.537C98.7781 116.804 102.905 117.072 107.031 117.34C112.409 117.688 117.787 118.037 123.165 118.386C121.859 119.768 121.125 121.739 121.265 123.973L123.173 148.001L123.326 149.934Z" fill="#F2F2F2"/>
<path d="M322.524 131.144C322.215 131.144 321.904 131.127 321.591 131.091C321.274 131.07 320.959 131.05 320.644 131.029C319.265 130.94 317.887 130.85 316.51 130.761C315.645 130.705 314.781 130.649 313.916 130.593C311.558 130.43 309.403 129.51 307.449 127.832C306.619 126.884 305.785 125.936 304.953 124.988C303.452 122.75 302.468 120.164 302.009 117.228C301.937 115.704 301.865 114.179 301.793 112.655C301.855 110.297 302.351 108.127 303.284 106.143C303.926 104.058 304.929 102.284 306.288 100.818C307.564 99.2284 309.03 98.1414 310.689 97.5572C312.024 96.7577 313.418 96.358 314.871 96.358C315.18 96.358 315.491 96.3759 315.806 96.4118C316.121 96.4321 316.436 96.4528 316.751 96.4731C318.13 96.5626 319.506 96.6518 320.885 96.7412C321.75 96.7975 322.615 96.8534 323.479 96.9094C325.837 97.072 327.993 97.9924 329.946 99.6705C330.778 100.618 331.61 101.566 332.442 102.514C333.945 104.752 334.925 107.338 335.386 110.274C335.458 111.798 335.53 113.323 335.602 114.848C335.54 117.205 335.044 119.376 334.112 121.359C333.469 123.444 332.467 125.219 331.108 126.684C329.831 128.274 328.363 129.361 326.706 129.945C325.374 130.745 323.978 131.144 322.524 131.144Z" fill="#F2F2F2"/>
<path d="M281.265 128.623C281.069 128.623 280.874 128.617 280.681 128.604C280.556 128.596 280.433 128.587 280.308 128.58C277.467 128.419 274.628 128.212 271.788 128.028C271.112 127.984 270.435 127.94 269.759 127.896C268.066 127.786 266.374 127.676 264.683 127.567C264.504 127.428 264.301 127.323 264.077 127.261C263.364 127.064 262.626 126.87 261.863 126.68V93.0805C266.798 93.4005 271.734 93.7206 276.671 94.0408C277.219 94.0762 277.765 94.1119 278.313 94.1473C279.733 94.2392 281.151 94.3313 282.569 94.4232C286.11 94.653 289.146 96.793 291.532 100.028C293.928 103.275 294.785 107.932 294.693 112.361C294.602 116.628 292.628 121.381 290.197 124.198C287.804 126.973 284.446 128.623 281.265 128.623ZM123.165 118.388C117.786 118.039 112.409 117.69 107.031 117.341C102.904 117.074 98.7774 116.806 94.651 116.539C90.9152 116.296 87.1795 116.054 83.4439 115.812C81.7846 115.704 80.1251 115.596 78.466 115.489L82.7521 111.825L82.7688 111.811L84.0346 106.209L90.0469 105.591L90.0487 105.591L90.0525 105.592L96.7666 99.8476L55.2018 87.0876L77.0396 115.396C73.8713 115.191 70.703 114.985 67.5347 114.78C65.5683 114.652 63.6021 114.525 61.6359 114.397C58.0951 114.167 55.0593 112.027 52.6721 108.792C50.2765 105.545 49.4195 100.889 49.5126 96.459C49.602 92.1924 51.5776 87.4397 54.0078 84.6224C56.4018 81.8474 59.7582 80.1973 62.9404 80.1973C63.1359 80.1973 63.3308 80.2035 63.5247 80.2161C63.649 80.2241 63.773 80.2333 63.8971 80.2402C66.7379 80.401 69.5769 80.6085 72.4162 80.7929C78.424 81.1824 84.4321 81.5723 90.4399 81.9618C96.1631 82.3329 101.886 82.7042 107.609 83.0755C110.242 83.2461 112.876 83.417 115.509 83.5879C125.362 84.227 135.215 84.8661 145.069 85.505C155.708 86.1951 166.349 86.8852 176.989 87.5754C180.707 87.8164 184.425 88.0576 188.143 88.2988V95.7653L178.442 95.697C175.466 95.6756 172.543 94.7696 169.992 93.0817L165.004 89.7765C162.436 88.078 159.491 87.165 156.498 87.1438L132.899 86.9775C132.882 86.9773 132.867 86.9772 132.851 86.9772C128.954 86.9772 125.92 90.378 126.063 94.5786L126.737 114.441C126.386 114.743 126.139 115.186 126.075 115.705C126.037 116.011 126.067 116.309 126.152 116.583C124.986 116.911 123.967 117.538 123.165 118.388ZM117.072 112.171C116.224 112.171 115.469 112.826 115.308 113.762C115.127 114.819 115.771 115.835 116.746 116.032C118.469 116.378 120.296 116.717 122.176 117.037C122.27 117.053 122.364 117.06 122.456 117.06C123.326 117.06 124.09 116.375 124.229 115.416C124.383 114.354 123.713 113.358 122.733 113.191C120.886 112.877 119.093 112.545 117.403 112.205C117.292 112.182 117.181 112.171 117.072 112.171ZM106.432 109.56C105.645 109.56 104.923 110.125 104.702 110.987C104.437 112.023 104.997 113.095 105.953 113.382C107.631 113.887 109.442 114.375 111.335 114.835C111.467 114.867 111.599 114.883 111.729 114.883C112.552 114.883 113.293 114.267 113.481 113.362C113.698 112.313 113.089 111.272 112.121 111.037C110.286 110.591 108.534 110.118 106.914 109.631C106.753 109.583 106.592 109.56 106.432 109.56ZM96.2068 105.531C95.5417 105.531 94.9022 105.933 94.5909 106.624C94.156 107.591 94.5264 108.756 95.4182 109.227C96.972 110.048 98.725 110.837 100.628 111.572C100.828 111.649 101.031 111.685 101.231 111.685C101.97 111.685 102.662 111.188 102.924 110.392C103.257 109.379 102.769 108.266 101.835 107.905C100.057 107.219 98.4277 106.486 96.9932 105.728C96.7396 105.594 96.4712 105.531 96.2068 105.531Z" fill="#F2F2F2"/>
<path d="M305.954 196.066C305.758 196.066 305.564 196.06 305.37 196.047C305.237 196.039 305.104 196.029 304.971 196.021C301.925 195.851 298.883 195.626 295.837 195.43C289.397 195.012 282.956 194.594 276.518 194.176C273.086 193.953 269.658 193.732 266.228 193.509C260.699 193.15 255.172 192.791 249.643 192.432C246.668 192.24 243.69 192.047 240.717 191.854C241.05 191.365 241.297 190.825 241.43 190.247L243.798 179.069V179.066L245.552 170.779H252.385C254.948 170.779 257.155 169.13 258.153 166.758C260.342 165.678 261.863 163.287 261.863 160.51V158.922C263.923 159.056 265.983 159.189 268.043 159.322C273.323 159.665 278.601 160.007 283.881 160.351C289.565 160.719 295.249 161.088 300.935 161.456C303.042 161.593 305.151 161.73 307.258 161.866C310.799 162.096 313.835 164.237 316.223 167.472C318.618 170.719 319.474 175.374 319.382 179.804C319.292 184.071 317.316 188.824 314.886 191.64C312.493 194.417 309.137 196.066 305.954 196.066ZM126.067 184.418C123.784 184.27 121.5 184.122 119.217 183.973C110.788 183.427 102.36 182.88 93.932 182.333C92.9634 182.271 91.9945 182.208 91.0261 182.145C86.3097 181.839 81.5938 181.533 76.8774 181.227C74.7694 181.09 72.6617 180.954 70.5537 180.818C67.0131 180.588 63.9773 178.447 61.59 175.212C59.1944 171.966 58.3377 167.308 58.4306 162.88C58.52 158.613 60.4954 153.86 62.9258 151.042C65.3197 148.267 68.6759 146.617 71.8581 146.617C72.0535 146.617 72.2487 146.624 72.4425 146.637C72.5756 146.645 72.7087 146.655 72.842 146.663C75.8872 146.833 78.9306 147.057 81.9744 147.254C85.6282 147.492 89.282 147.728 92.9357 147.965C95.7224 148.147 98.5093 148.327 101.296 148.508C108.639 148.984 115.983 149.461 123.326 149.937L126.067 184.418ZM117.608 168.707C116.957 168.707 116.329 169.092 116.01 169.763C115.555 170.719 115.902 171.891 116.784 172.383C118.231 173.191 119.994 173.966 122.176 174.756C122.365 174.824 122.556 174.856 122.745 174.856C123.497 174.856 124.198 174.34 124.449 173.526C124.763 172.506 124.254 171.403 123.313 171.064C121.336 170.349 119.693 169.628 118.43 168.923C118.166 168.777 117.885 168.707 117.608 168.707ZM114.675 159.118C114.111 159.118 113.555 159.405 113.205 159.944C112.145 161.575 111.607 163.409 111.607 165.396C111.607 165.548 111.61 165.704 111.616 165.858C111.638 166.386 111.735 166.911 111.905 167.417C112.171 168.208 112.86 168.697 113.594 168.697C113.798 168.697 114.005 168.66 114.208 168.58C115.14 168.212 115.621 167.095 115.281 166.085C115.236 165.95 115.211 165.819 115.206 165.685C115.202 165.587 115.2 165.491 115.2 165.396C115.2 164.21 115.508 163.16 116.143 162.184C116.714 161.305 116.519 160.091 115.708 159.472C115.394 159.233 115.033 159.118 114.675 159.118ZM121.195 154.205C120.97 154.205 120.741 154.25 120.519 154.348C119.643 154.734 118.823 155.147 118.082 155.574C117.207 156.079 116.875 157.257 117.341 158.206C117.664 158.863 118.286 159.239 118.929 159.239C119.213 159.239 119.502 159.164 119.772 159.009C120.403 158.645 121.11 158.29 121.872 157.954C122.792 157.549 123.234 156.414 122.86 155.417C122.577 154.663 121.904 154.205 121.195 154.205Z" fill="#F2F2F2"/>
<path d="M70.3313 246.633C70.0229 246.633 69.7117 246.615 69.3978 246.578L69.3662 246.576C68.6044 246.528 67.8429 246.477 67.0813 246.428C65.5243 246.328 63.9672 246.226 62.41 246.125C60.5988 246.007 58.7876 245.89 56.9762 245.772C55.4872 245.676 53.9981 245.58 52.5091 245.483C51.8844 245.442 51.2597 245.402 50.6349 245.361C48.2767 245.199 46.1211 244.279 44.1684 242.6C43.3361 241.653 42.5038 240.704 41.6714 239.756C40.1696 237.519 39.1883 234.933 38.7275 231.997C38.6555 230.472 38.5836 228.948 38.5117 227.423C38.5739 225.066 39.0703 222.895 40.0011 220.912C40.6451 218.828 41.6471 217.052 43.007 215.587C44.2827 213.997 45.7497 212.91 47.4077 212.326C48.7416 211.526 50.1356 211.126 51.5905 211.126C51.8988 211.126 52.2101 211.144 52.5238 211.18L52.5554 211.183C53.3171 211.231 54.0787 211.281 54.8403 211.331C56.3973 211.431 57.9545 211.533 59.5116 211.633C61.3228 211.752 63.1341 211.869 64.9454 211.986C66.4344 212.083 67.9234 212.179 69.4125 212.276C70.0372 212.317 70.6619 212.357 71.2866 212.398C73.6449 212.56 75.8005 213.48 77.7532 215.159C78.5856 216.106 79.4179 217.055 80.2503 218.003C81.752 220.24 82.7333 222.826 83.1942 225.762C83.266 227.287 83.338 228.811 83.4099 230.335C83.3477 232.693 82.8514 234.864 81.9205 236.847C81.2764 238.931 80.2746 240.707 78.9147 242.172C77.6389 243.762 76.172 244.849 74.5138 245.432C73.1802 246.233 71.786 246.633 70.3313 246.633Z" fill="#F2F2F2"/>
<path d="M315.269 63.3419C314.96 63.3419 314.65 63.3238 314.336 63.2878L314.312 63.2863C313.72 63.2496 313.129 63.2094 312.537 63.1713C311.324 63.0925 310.11 63.0137 308.893 62.9347C307.489 62.8437 306.083 62.7527 304.679 62.6615C303.517 62.5862 302.356 62.5107 301.194 62.4354C300.711 62.4039 300.227 62.3727 299.744 62.3413C297.385 62.1787 295.229 61.2584 293.278 59.5802C292.446 58.6323 291.612 57.6843 290.78 56.7354C289.279 54.4985 288.298 51.9124 287.837 48.9771C287.764 47.4516 287.692 45.9283 287.621 44.4028C287.682 42.0458 288.179 39.8744 289.11 37.8928C289.754 35.8064 290.755 34.0322 292.115 32.5656C293.392 30.9768 294.857 29.89 296.517 29.3051C297.85 28.5064 299.244 28.107 300.699 28.107C301.007 28.107 301.319 28.1245 301.631 28.1594L301.657 28.1616C302.248 28.1987 302.84 28.238 303.43 28.2772C304.645 28.3558 305.859 28.4344 307.074 28.5129C308.48 28.6046 309.886 28.6963 311.29 28.7857C312.453 28.8621 313.613 28.9363 314.775 29.0127C315.259 29.0433 315.742 29.076 316.226 29.1065C318.582 29.2702 320.74 30.189 322.692 31.8673C323.524 32.8166 324.356 33.7637 325.19 34.7109C326.69 36.95 327.671 39.5361 328.133 42.4714C328.205 43.9969 328.278 45.5202 328.348 47.0457C328.286 49.4026 327.79 51.5719 326.86 53.5557C326.215 55.6421 325.214 57.4161 323.852 58.8814C322.577 60.4714 321.11 61.5583 319.453 62.1425C318.119 62.9421 316.723 63.3419 315.269 63.3419Z" fill="#F2F2F2"/>
<path d="M247.261 103.745L246.734 115.189L246.655 116.866L243.798 179.059V179.062L241.43 190.241C241.195 191.26 240.607 192.17 239.8 192.87C239.712 192.948 239.616 193.026 239.523 193.101C239.13 193.4 238.699 193.652 238.239 193.85C238.095 193.915 237.948 193.971 237.797 194.021C237.337 194.176 236.851 194.279 236.354 194.313H236.344L134.363 193.592C131.633 193.575 129.342 191.32 129.248 188.554L129.186 186.681L126.805 116.427L126.063 94.5726C125.92 90.3539 128.981 86.9428 132.9 86.9707L156.499 87.1368C159.491 87.1582 162.437 88.071 165.005 89.77L169.992 93.0759C172.544 94.7634 175.467 95.6696 178.442 95.691L240.551 96.1284C244.451 96.1581 247.452 99.5758 247.261 103.745Z" fill="#2D9596" fill-opacity="0.65"/>
<path d="M252.387 170.778H245.555L246.275 167.372H255.531C256.467 167.372 257.355 167.152 258.155 166.757C257.157 169.129 254.951 170.778 252.387 170.778Z" fill="#D6D6D6"/>
<path d="M191.288 88.4995C190.241 88.4321 189.192 88.3648 188.145 88.296V77.4857C188.145 74.7096 189.666 72.3185 191.856 71.2364C191.666 71.686 191.521 72.1617 191.424 72.6581C191.335 73.116 191.288 73.5931 191.288 74.0812V88.4995Z" fill="#D6D6D6"/>
<path d="M191.288 95.7874L188.145 95.764V88.2977C189.192 88.3665 190.241 88.4338 191.288 88.5012V95.7874Z" fill="#D6D6D6"/>
<path d="M191.288 111.314L188.145 111.094V95.7638L191.288 95.7872V111.314Z" fill="#2D9596"/>
<path d="M261.82 84.6114L261.612 84.6619L248.432 88.1335L247.657 84.6619L245.768 76.2585V71.9341L256.896 79.269L261.82 84.6114Z" fill="#CECECE"/>
<path d="M261.867 84.6584H245.768V67.2081L256.896 79.2663L261.82 84.608L261.867 84.6584Z" fill="#E6E6E6"/>
<path d="M228.987 93.3007C228.098 93.3007 227.209 93.3007 226.321 93.3007C224.206 93.3007 222.092 93.3007 219.979 93.3007C217.401 93.3007 214.825 93.3007 212.251 93.3007C210.032 93.3007 207.814 93.3007 205.595 93.3007C204.517 93.3007 203.438 93.2807 202.36 93.3007C202.344 93.3022 202.33 93.3007 202.314 93.3007C201.178 93.3007 200.09 94.3841 200.142 95.6535C200.195 96.929 201.097 98.0063 202.314 98.0063C203.202 98.0063 204.092 98.0063 204.981 98.0063C207.094 98.0063 209.209 98.0063 211.323 98.0063C213.899 98.0063 216.475 98.0063 219.052 98.0063C221.271 98.0063 223.488 98.0063 225.706 98.0063C226.783 98.0063 227.864 98.0262 228.941 98.0063C228.956 98.0063 228.972 98.0063 228.987 98.0063C230.122 98.0063 231.212 96.9244 231.158 95.6535C231.107 94.3795 230.204 93.3007 228.987 93.3007Z" fill="#E6E6E6"/>
<path d="M250.839 93.2989C249.267 93.2989 247.695 93.2989 246.123 93.2989C243.62 93.2989 241.117 93.2989 238.615 93.2989C238.043 93.2989 237.474 93.2989 236.902 93.2989C235.766 93.2989 234.678 94.3804 234.73 95.652C234.783 96.9269 235.684 98.0034 236.902 98.0034C238.473 98.0034 240.046 98.0034 241.617 98.0034C244.12 98.0034 246.623 98.0034 249.125 98.0034C249.697 98.0034 250.268 98.0034 250.839 98.0034C251.974 98.0034 253.063 96.9219 253.01 95.652C252.957 94.377 252.056 93.2989 250.839 93.2989Z" fill="#E6E6E6"/>
<path d="M228.987 122.153C228.098 122.153 227.209 122.153 226.321 122.153C224.206 122.153 222.092 122.153 219.979 122.153C217.401 122.153 214.825 122.153 212.251 122.153C210.032 122.153 207.814 122.153 205.595 122.153C204.517 122.153 203.438 122.132 202.36 122.153C202.344 122.153 202.33 122.153 202.314 122.153C201.178 122.153 200.09 123.235 200.142 124.505C200.195 125.78 201.097 126.858 202.314 126.858C203.202 126.858 204.092 126.858 204.981 126.858C207.094 126.858 209.208 126.858 211.323 126.858C213.899 126.858 216.475 126.858 219.052 126.858C221.271 126.858 223.488 126.858 225.706 126.858C226.783 126.858 227.864 126.878 228.941 126.858C228.956 126.857 228.972 126.858 228.987 126.858C230.122 126.858 231.212 125.776 231.158 124.505C231.107 123.231 230.204 122.153 228.987 122.153Z" fill="#E6E6E6"/>
<path d="M250.839 122.155C249.267 122.155 247.695 122.155 246.123 122.155C243.62 122.155 241.117 122.155 238.615 122.155C238.043 122.155 237.474 122.155 236.902 122.155C235.766 122.155 234.678 123.237 234.73 124.508C234.783 125.782 235.685 126.86 236.902 126.86C238.473 126.86 240.046 126.86 241.617 126.86C244.12 126.86 246.623 126.86 249.125 126.86C249.697 126.86 250.268 126.86 250.839 126.86C251.974 126.86 253.063 125.778 253.01 124.508C252.957 123.233 252.056 122.155 250.839 122.155Z" fill="#E6E6E6"/>
<path d="M224.162 112.435C225.052 112.435 225.94 112.435 226.829 112.435C228.942 112.435 231.057 112.435 233.17 112.435C235.747 112.435 238.323 112.435 240.9 112.435C243.118 112.435 245.337 112.435 247.554 112.435C248.633 112.435 249.71 112.455 250.789 112.435C250.805 112.435 250.82 112.435 250.836 112.435C251.971 112.435 253.059 111.353 253.006 110.083C252.954 108.808 252.053 107.73 250.836 107.73C249.946 107.73 249.057 107.73 248.167 107.73C246.054 107.73 243.94 107.73 241.825 107.73C239.251 107.73 236.674 107.73 234.098 107.73C231.88 107.73 229.661 107.73 227.443 107.73C226.365 107.73 225.285 107.709 224.207 107.73C224.192 107.73 224.176 107.73 224.162 107.73C223.026 107.73 221.937 108.812 221.99 110.083C222.043 111.357 222.945 112.435 224.162 112.435Z" fill="#E6E6E6"/>
<path d="M202.314 112.431C203.885 112.431 205.458 112.431 207.029 112.431C209.532 112.431 212.034 112.431 214.538 112.431C215.109 112.431 215.68 112.431 216.251 112.431C217.387 112.431 218.474 111.349 218.422 110.079C218.368 108.805 217.468 107.726 216.251 107.726C214.678 107.726 213.108 107.726 211.534 107.726C209.032 107.726 206.529 107.726 204.025 107.726C203.456 107.726 202.885 107.726 202.314 107.726C201.179 107.726 200.09 108.808 200.142 110.079C200.195 111.354 201.097 112.431 202.314 112.431Z" fill="#E6E6E6"/>
<path d="M224.162 141.288C225.052 141.288 225.94 141.288 226.829 141.288C228.942 141.288 231.057 141.288 233.17 141.288C235.747 141.288 238.323 141.288 240.9 141.288C243.118 141.288 245.337 141.288 247.554 141.288C248.633 141.288 249.71 141.309 250.789 141.288C250.805 141.288 250.82 141.288 250.836 141.288C251.971 141.288 253.059 140.206 253.006 138.936C252.954 137.661 252.053 136.584 250.836 136.584C249.946 136.584 249.057 136.584 248.167 136.584C246.054 136.584 243.94 136.584 241.825 136.584C239.25 136.584 236.674 136.584 234.098 136.584C231.88 136.584 229.661 136.584 227.443 136.584C226.365 136.584 225.285 136.563 224.207 136.584C224.192 136.584 224.176 136.584 224.162 136.584C223.026 136.584 221.937 137.665 221.99 138.936C222.043 140.21 222.945 141.288 224.162 141.288Z" fill="#E6E6E6"/>
<path d="M202.314 141.286C203.885 141.286 205.458 141.286 207.029 141.286C209.532 141.286 212.034 141.286 214.538 141.286C215.109 141.286 215.68 141.286 216.251 141.286C217.387 141.286 218.474 140.204 218.422 138.934C218.368 137.659 217.468 136.582 216.251 136.582C214.678 136.582 213.108 136.582 211.534 136.582C209.032 136.582 206.529 136.582 204.025 136.582C203.456 136.582 202.885 136.582 202.314 136.582C201.179 136.582 200.09 137.663 200.142 138.934C200.195 140.208 201.097 141.286 202.314 141.286Z" fill="#E6E6E6"/>
<path d="M236.18 194.337C236.233 194.333 236.288 194.33 236.344 194.322H236.353C236.295 194.33 236.235 194.333 236.18 194.337ZM157.608 193.88L132.046 193.735C131.779 193.732 131.516 193.711 131.258 193.673C131.516 193.711 131.779 193.732 132.046 193.732L157.608 193.88ZM131.246 193.671C130.894 193.622 130.551 193.537 130.221 193.424C130.551 193.537 130.894 193.618 131.246 193.671ZM126.298 187.33L126.066 184.419C127.082 184.485 128.099 184.551 129.116 184.617L129.185 186.689C128.225 186.909 127.261 187.121 126.298 187.33Z" fill="#756AFE"/>
<path d="M127.95 150.232C126.409 150.132 124.868 150.033 123.326 149.933L123.173 147.999L121.265 123.971C121.125 121.738 121.859 119.766 123.165 118.385C124.403 118.466 125.641 118.545 126.879 118.625L127.95 150.232Z" fill="#2D9596"/>
<path d="M126.88 118.628C125.642 118.548 124.404 118.468 123.166 118.387C123.969 117.537 124.988 116.91 126.153 116.582C126.278 116.984 126.521 117.332 126.844 117.572L126.88 118.628Z" fill="#756AFE"/>
<path d="M129.116 184.615C128.1 184.549 127.083 184.483 126.067 184.417L123.326 149.936C124.867 150.036 126.409 150.135 127.95 150.236L128.715 172.787C128.653 172.769 128.592 172.751 128.53 172.734C128.375 172.69 128.219 172.668 128.067 172.668C127.272 172.668 126.546 173.242 126.332 174.113C126.076 175.152 126.646 176.218 127.605 176.496C128.012 176.612 128.427 176.731 128.852 176.849L129.116 184.615Z" fill="#2D9596"/>
<path d="M129.186 186.685L129.117 184.612L128.853 176.846C130.145 177.205 131.528 177.572 133.048 177.956C133.186 177.99 133.323 178.007 133.458 178.007C134.274 178.007 135.013 177.401 135.206 176.503C135.432 175.456 134.83 174.409 133.865 174.165C131.956 173.683 130.269 173.23 128.716 172.785L127.95 150.233L126.88 118.626L126.844 117.57C127.068 117.736 127.33 117.849 127.616 117.89C129.356 118.145 131.189 118.394 133.064 118.63C133.133 118.64 133.205 118.644 133.274 118.644C134.173 118.644 134.95 117.914 135.056 116.922C135.061 116.874 135.064 116.828 135.066 116.779L136.945 116.909C136.928 116.984 136.917 117.063 136.909 117.141C136.809 118.211 137.527 119.166 138.513 119.275C140.264 119.469 142.099 119.66 143.967 119.843C144.022 119.848 144.076 119.851 144.131 119.851C145.05 119.851 145.834 119.091 145.918 118.08C145.934 117.889 145.924 117.702 145.891 117.523L147.907 117.661C147.837 117.845 147.791 118.043 147.776 118.252C147.696 119.323 148.432 120.262 149.422 120.349C151.172 120.502 153.007 120.656 154.876 120.803C154.92 120.807 154.964 120.808 155.009 120.808C155.942 120.808 156.73 120.027 156.798 119.003C156.816 118.746 156.787 118.497 156.718 118.266L157.721 118.335C157.909 118.348 158.098 118.354 158.286 118.354C158.484 118.354 158.681 118.347 158.877 118.333C158.754 118.575 158.675 118.849 158.658 119.143C158.592 120.216 159.341 121.144 160.33 121.215C162.068 121.34 163.903 121.468 165.785 121.593C165.823 121.596 165.86 121.597 165.897 121.597C166.839 121.597 167.631 120.803 167.689 119.771C167.75 118.698 166.997 117.775 166.006 117.709C164.646 117.618 163.309 117.526 162.017 117.434C162.1 117.39 162.182 117.345 162.265 117.298L172.523 111.392C173.771 110.674 175.167 110.303 176.591 110.303C176.783 110.303 176.973 110.31 177.165 110.324L188.144 111.092V119.083C188.031 119.052 187.915 119.033 187.794 119.026C185.975 118.922 184.154 118.817 182.335 118.713C182.302 118.711 182.271 118.71 182.238 118.71C181.29 118.71 180.496 119.514 180.446 120.552C180.392 121.625 181.152 122.542 182.144 122.6C183.964 122.704 185.785 122.809 187.605 122.913C187.638 122.915 187.67 122.916 187.701 122.916C187.854 122.916 188.002 122.894 188.144 122.856V163.912C188.144 164.227 188.165 164.536 188.201 164.84C177.912 170.378 167.03 175.144 155.69 179.101C155.643 179.086 155.596 179.074 155.548 179.064L154.785 178.899C153.193 178.556 151.632 178.219 150.105 177.887C149.985 177.861 149.866 177.849 149.749 177.849C148.911 177.849 148.162 178.49 147.99 179.414C147.844 180.204 148.163 180.98 148.742 181.406C142.351 183.418 135.824 185.18 129.186 186.685ZM138.874 175.425C138.045 175.425 137.3 176.049 137.119 176.962C136.911 178.012 137.529 179.048 138.498 179.273C140.141 179.656 141.924 180.06 143.949 180.509C144.071 180.537 144.192 180.551 144.312 180.551C145.147 180.551 145.896 179.915 146.07 178.994C146.269 177.941 145.642 176.912 144.67 176.697C142.656 176.25 140.884 175.847 139.253 175.467C139.127 175.438 139 175.425 138.874 175.425ZM171.343 118.057C170.399 118.057 169.604 118.856 169.55 119.891C169.491 120.964 170.249 121.885 171.239 121.947C173.051 122.059 174.87 122.171 176.691 122.279C176.726 122.282 176.759 122.282 176.793 122.282C177.74 122.282 178.532 121.481 178.585 120.444C178.639 119.37 177.881 118.451 176.889 118.392C175.071 118.284 173.256 118.174 171.447 118.061C171.412 118.058 171.377 118.057 171.343 118.057Z" fill="#2D9596" fill-opacity="0.46"/>
<path d="M188.202 164.842C188.165 164.538 188.145 164.229 188.145 163.914V122.858C188.886 122.653 189.452 121.945 189.494 121.074C189.539 120.131 188.958 119.31 188.145 119.085V111.095L191.288 111.315V160.51C191.288 161.358 191.43 162.171 191.691 162.921C190.537 163.57 189.372 164.212 188.202 164.842Z" fill="#2D9596"/>
<path d="M191.693 162.922C191.433 162.171 191.291 161.358 191.291 160.51V111.315L201.073 111.999C201.421 112.273 201.845 112.436 202.318 112.436C203.89 112.436 205.462 112.436 207.034 112.436C207.126 112.436 207.217 112.436 207.309 112.436L246.736 115.195L247.922 115.28C247.505 115.815 247.086 116.345 246.658 116.873C245.225 118.664 243.756 120.424 242.251 122.157C241.039 122.157 239.827 122.157 238.616 122.157C238.045 122.157 237.474 122.157 236.902 122.157C235.768 122.157 234.679 123.24 234.732 124.51C234.784 125.785 235.686 126.863 236.902 126.863C237.274 126.863 237.645 126.863 238.015 126.863C234.879 130.221 231.605 133.463 228.206 136.584C227.953 136.584 227.699 136.584 227.447 136.584C226.728 136.584 226.009 136.575 225.29 136.575C224.93 136.575 224.571 136.577 224.211 136.584C224.207 136.584 224.202 136.584 224.196 136.584C224.187 136.584 224.176 136.584 224.166 136.584C223.03 136.584 221.942 137.666 221.994 138.936C222.033 139.834 222.489 140.634 223.183 141.029C213.551 149.247 202.995 156.561 191.693 162.922ZM202.318 136.584C201.182 136.584 200.095 137.666 200.148 138.936C200.199 140.211 201.101 141.289 202.318 141.289C203.89 141.289 205.462 141.289 207.034 141.289C209.536 141.289 212.039 141.289 214.541 141.289C215.112 141.289 215.683 141.289 216.254 141.289C217.391 141.289 218.478 140.207 218.427 138.936C218.374 137.662 217.473 136.584 216.254 136.584C214.683 136.584 213.111 136.584 211.539 136.584C209.037 136.584 206.533 136.584 204.03 136.584C203.461 136.584 202.89 136.584 202.318 136.584ZM202.261 122.158C201.147 122.194 200.095 123.261 200.148 124.51C200.199 125.785 201.101 126.863 202.318 126.863C203.207 126.863 204.097 126.863 204.984 126.863C207.099 126.863 209.213 126.863 211.327 126.863C213.903 126.863 216.48 126.863 219.056 126.863C221.275 126.863 223.492 126.863 225.71 126.863C226.429 126.863 227.148 126.872 227.869 126.872C228.227 126.872 228.586 126.869 228.946 126.863C228.95 126.862 228.956 126.862 228.961 126.862C228.97 126.862 228.981 126.863 228.991 126.863C229.68 126.863 230.352 126.464 230.762 125.867C230.877 125.878 230.993 125.889 231.107 125.9C231.162 125.905 231.214 125.908 231.267 125.908C232.189 125.908 232.973 125.145 233.055 124.133C233.143 123.062 232.411 122.117 231.425 122.023C229.682 121.856 227.845 121.69 225.967 121.53C225.919 121.526 225.872 121.524 225.824 121.524C225.302 121.524 224.828 121.766 224.498 122.157C223.664 122.157 222.826 122.157 221.991 122.157C221.715 121.565 221.167 121.14 220.511 121.089C218.777 120.956 216.942 120.822 215.055 120.69C215.016 120.688 214.977 120.686 214.939 120.686C214.108 120.686 213.394 121.303 213.196 122.157C212.884 122.157 212.568 122.157 212.255 122.157C211.931 122.157 211.609 122.157 211.287 122.157C211.237 121.183 210.521 120.383 209.6 120.323C207.888 120.212 206.106 120.1 204.145 119.98C204.111 119.978 204.077 119.977 204.044 119.977C203.095 119.977 202.306 120.778 202.252 121.814C202.245 121.931 202.248 122.046 202.261 122.158ZM193.148 119.336C192.2 119.336 191.405 120.141 191.353 121.18C191.302 122.253 192.063 123.17 193.054 123.226C194.873 123.331 196.69 123.435 198.499 123.541C198.532 123.543 198.565 123.544 198.599 123.544C199.545 123.544 200.339 122.741 200.39 121.703C200.443 120.63 199.685 119.713 198.694 119.655C196.883 119.548 195.065 119.443 193.243 119.339C193.211 119.337 193.179 119.336 193.148 119.336Z" fill="#2D9596"/>
<path d="M227.863 126.867C227.144 126.867 226.423 126.858 225.706 126.858C223.487 126.858 221.27 126.858 219.052 126.858C216.475 126.858 213.899 126.858 211.322 126.858C209.207 126.858 207.095 126.858 204.98 126.858C204.092 126.858 203.202 126.858 202.314 126.858C201.097 126.858 200.195 125.78 200.143 124.505C200.09 123.256 201.142 122.189 202.256 122.154C202.359 123.072 203.056 123.808 203.939 123.862C205.894 123.982 207.674 124.094 209.38 124.204C209.417 124.207 209.454 124.208 209.489 124.208C210.433 124.208 211.225 123.411 211.281 122.378C211.285 122.302 211.285 122.227 211.281 122.153C211.604 122.153 211.927 122.153 212.25 122.153C212.564 122.153 212.878 122.153 213.192 122.153C213.167 122.266 213.148 122.382 213.143 122.502C213.078 123.575 213.829 124.501 214.819 124.57C216.699 124.701 218.525 124.835 220.254 124.968C220.295 124.971 220.339 124.972 220.381 124.972C221.316 124.972 222.106 124.189 222.171 123.163C222.195 122.801 222.125 122.455 221.985 122.153C222.82 122.153 223.659 122.153 224.494 122.153C224.233 122.462 224.063 122.864 224.031 123.313C223.953 124.384 224.692 125.321 225.682 125.406C227.424 125.554 229.13 125.707 230.757 125.862C230.348 126.459 229.675 126.858 228.986 126.858C228.976 126.858 228.966 126.858 228.956 126.858C228.95 126.858 228.946 126.858 228.941 126.858C228.581 126.865 228.223 126.867 227.863 126.867Z" fill="#2D9596"/>
<path d="M238.013 126.862C237.643 126.862 237.273 126.862 236.902 126.862C235.685 126.862 234.782 125.784 234.73 124.51C234.677 123.239 235.766 122.157 236.902 122.157C237.474 122.157 238.043 122.157 238.614 122.157C239.827 122.157 241.038 122.157 242.25 122.157C241.974 122.475 241.698 122.793 241.418 123.109C239.959 122.929 238.435 122.752 236.879 122.581C236.818 122.574 236.758 122.571 236.698 122.571C235.789 122.571 235.005 123.319 234.91 124.322C234.811 125.391 235.53 126.346 236.518 126.454C237.089 126.517 237.657 126.58 238.217 126.644C238.15 126.716 238.082 126.79 238.013 126.862Z" fill="#7368FD"/>
<path d="M207.306 112.431C207.214 112.431 207.123 112.431 207.03 112.431C205.459 112.431 203.887 112.431 202.315 112.431C201.842 112.431 201.418 112.269 201.07 111.994L207.306 112.431Z" fill="#7368FD"/>
<path d="M223.179 141.027C222.486 140.632 222.029 139.832 221.99 138.934C221.938 137.664 223.026 136.582 224.161 136.582C224.173 136.582 224.182 136.583 224.192 136.583C224.198 136.583 224.203 136.583 224.208 136.582C224.567 136.576 224.926 136.573 225.287 136.573C226.005 136.573 226.725 136.582 227.443 136.582C227.695 136.582 227.95 136.582 228.202 136.582C226.556 138.093 224.883 139.574 223.179 141.027Z" fill="#2D9596"/>
<path d="M216.251 141.286C215.68 141.286 215.109 141.286 214.538 141.286C212.034 141.286 209.532 141.286 207.029 141.286C205.458 141.286 203.885 141.286 202.314 141.286C201.097 141.286 200.195 140.208 200.142 138.934C200.09 137.663 201.179 136.582 202.314 136.582C202.885 136.582 203.456 136.582 204.025 136.582C206.529 136.582 209.032 136.582 211.534 136.582C213.108 136.582 214.678 136.582 216.251 136.582C217.468 136.582 218.368 137.659 218.422 138.934C218.474 140.204 217.387 141.286 216.251 141.286Z" fill="#2C9394"/>
<path d="M129.48 193.114C129.253 193.003 129.033 192.878 128.823 192.74C128.395 192.457 128.007 192.124 127.673 191.749C127.618 191.686 127.562 191.621 127.51 191.558C127.35 191.367 127.21 191.162 127.081 190.949C127 190.811 126.922 190.667 126.85 190.517C126.782 190.372 126.72 190.22 126.664 190.069C126.527 189.686 126.442 189.286 126.419 188.879L126.295 187.325H126.298L126.422 188.879C126.448 189.286 126.53 189.686 126.664 190.069C126.72 190.22 126.782 190.372 126.85 190.517C126.922 190.667 127 190.811 127.081 190.949C127.21 191.162 127.353 191.362 127.51 191.558C127.562 191.621 127.618 191.686 127.673 191.749C128.007 192.12 128.395 192.457 128.823 192.74C129.033 192.875 129.253 193.003 129.48 193.114Z" fill="#E6E6E6"/>
<path d="M255.152 119.772C255.076 119.567 254.995 119.373 254.907 119.178C254.998 119.373 255.081 119.571 255.152 119.772ZM254.078 117.83C253.943 117.667 253.81 117.511 253.666 117.359C253.81 117.508 253.948 117.667 254.078 117.83Z" fill="#EAEAEA"/>
<path d="M235.901 194.337L210.985 194.191C210.982 194.173 210.978 194.157 210.975 194.14L236.344 194.319C236.29 194.327 236.234 194.33 236.18 194.334C236.086 194.337 235.994 194.337 235.901 194.337ZM202.51 194.142L157.609 193.878L132.047 193.729C131.781 193.729 131.517 193.708 131.259 193.67C131.255 193.67 131.251 193.669 131.248 193.669C130.895 193.615 130.552 193.534 130.222 193.421C129.973 193.34 129.732 193.237 129.496 193.124C129.491 193.121 129.486 193.119 129.481 193.116C129.254 193.004 129.034 192.877 128.823 192.742C128.396 192.459 128.007 192.122 127.674 191.75C127.619 191.687 127.563 191.623 127.511 191.559C127.354 191.364 127.21 191.163 127.082 190.95C127.001 190.813 126.922 190.668 126.851 190.518C126.782 190.374 126.72 190.222 126.665 190.07C126.531 189.688 126.449 189.288 126.423 188.881L126.299 187.327C127.262 187.118 128.226 186.906 129.186 186.686L129.249 188.559C129.342 191.326 131.633 193.581 134.363 193.597L202.467 194.08C202.482 194.1 202.495 194.121 202.51 194.142Z" fill="#2D9596" fill-opacity="0.176471"/>
<path d="M241.429 190.245L243.797 179.066V179.064L244.178 170.776H245.552L243.797 179.064V179.066L241.429 190.245Z" fill="#2D9596" fill-opacity="0.176471"/>
<path d="M236.353 194.313H236.344L210.973 194.135C210.821 193.505 210.38 192.973 209.766 192.767C207.944 192.157 206.139 191.58 204.401 191.048C204.238 190.997 204.075 190.974 203.912 190.974C203.128 190.974 202.408 191.533 202.184 192.391C202.027 192.992 202.148 193.607 202.466 194.074L134.362 193.592C131.632 193.575 129.342 191.32 129.248 188.554L129.186 186.681C135.823 185.177 142.351 183.414 148.741 181.402C148.934 181.544 149.156 181.648 149.398 181.701C150.926 182.032 152.489 182.369 154.082 182.713L154.845 182.877C154.963 182.904 155.082 182.915 155.198 182.915C156.037 182.915 156.788 182.275 156.957 181.348C157.141 180.347 156.581 179.371 155.69 179.098C167.03 175.14 177.912 170.375 188.2 164.836C188.62 168.187 191.271 170.772 194.48 170.772H244.179L243.798 179.059V179.062L241.43 190.241C241.297 190.818 241.051 191.359 240.717 191.847C240.459 192.222 240.151 192.566 239.799 192.87C239.712 192.948 239.616 193.026 239.523 193.101C239.13 193.4 238.699 193.652 238.238 193.85C238.094 193.915 237.947 193.971 237.797 194.021C237.337 194.176 236.85 194.279 236.353 194.313ZM193.171 187.933C192.363 187.933 191.631 188.526 191.43 189.413C191.19 190.457 191.779 191.511 192.742 191.77C194.555 192.255 196.357 192.75 198.102 193.241C198.254 193.284 198.406 193.303 198.556 193.303C199.355 193.303 200.083 192.723 200.294 191.845C200.543 190.806 199.966 189.743 199.006 189.473C197.247 188.978 195.43 188.479 193.604 187.991C193.458 187.951 193.315 187.933 193.171 187.933ZM182.365 185.171C181.544 185.171 180.804 185.784 180.614 186.689C180.397 187.737 181.004 188.779 181.971 189.015C183.806 189.465 185.622 189.919 187.364 190.363C187.502 190.399 187.643 190.417 187.778 190.417C188.593 190.417 189.33 189.812 189.526 188.916C189.752 187.87 189.154 186.821 188.19 186.575C186.436 186.127 184.611 185.672 182.764 185.219C182.629 185.186 182.496 185.171 182.365 185.171ZM171.517 182.615C170.685 182.615 169.938 183.245 169.759 184.162C169.556 185.214 170.177 186.245 171.148 186.466C173.015 186.891 174.838 187.313 176.566 187.719C176.694 187.749 176.823 187.764 176.95 187.764C177.775 187.764 178.52 187.141 178.703 186.231C178.912 185.181 178.297 184.144 177.329 183.916C175.593 183.507 173.762 183.084 171.888 182.656C171.762 182.629 171.639 182.615 171.517 182.615ZM160.638 180.2C159.8 180.2 159.05 180.84 158.879 181.764C158.683 182.818 159.315 183.844 160.286 184.056C162.263 184.485 164.041 184.875 165.721 185.248C165.844 185.274 165.965 185.288 166.085 185.288C166.919 185.288 167.668 184.653 167.842 183.731C168.041 182.678 167.413 181.65 166.443 181.434C164.757 181.061 162.976 180.671 160.994 180.239C160.875 180.213 160.756 180.2 160.638 180.2Z" fill="#2D9596" fill-opacity="0.53"/>
<path d="M245.553 170.778H244.178L244.333 167.372H246.273L245.553 170.778Z" fill="#2D9596"/>
<path d="M244.177 170.778H194.478C191.269 170.778 188.617 168.193 188.199 164.842C189.37 164.212 190.535 163.57 191.689 162.921C192.59 165.522 194.906 167.372 197.62 167.372H244.333L244.177 170.778Z" fill="#2D9596"/>
<path d="M246.271 167.368H244.332H197.62C194.905 167.368 192.589 165.518 191.688 162.917C202.991 156.556 213.544 149.243 223.176 141.024C223.469 141.191 223.802 141.284 224.161 141.284C225.05 141.284 225.939 141.284 226.828 141.284C228.942 141.284 231.056 141.284 233.168 141.284C235.745 141.284 238.321 141.284 240.897 141.284C243.116 141.284 245.335 141.284 247.553 141.284C248.272 141.284 248.991 141.294 249.71 141.294C250.07 141.294 250.43 141.291 250.789 141.284C250.794 141.284 250.799 141.284 250.803 141.284C250.814 141.284 250.824 141.284 250.835 141.284C251.192 141.284 251.545 141.177 251.86 140.99L246.271 167.368ZM252.583 137.574C252.196 136.977 251.573 136.58 250.835 136.58C249.944 136.58 249.056 136.58 248.166 136.58C246.053 136.58 243.94 136.58 241.824 136.58C239.248 136.58 236.673 136.58 234.096 136.58C232.13 136.58 230.165 136.58 228.2 136.58C231.6 133.458 234.873 130.216 238.009 126.858C238.694 126.858 239.379 126.858 240.066 126.858C240.692 126.933 241.308 127.009 241.912 127.086C241.983 127.095 242.053 127.099 242.122 127.099C242.433 127.099 242.727 127.012 242.988 126.858C243.982 126.858 244.978 126.858 245.974 126.858C246.242 127.366 246.715 127.739 247.291 127.825C249.154 128.102 250.956 128.396 252.643 128.697C252.742 128.715 252.839 128.723 252.938 128.723C253.8 128.723 254.562 128.046 254.708 127.093C254.87 126.032 254.205 125.031 253.226 124.856C253.149 124.842 253.073 124.829 252.996 124.815C253.005 124.714 253.01 124.61 253.005 124.505C252.952 123.231 252.052 122.153 250.835 122.153C249.262 122.153 247.691 122.153 246.118 122.153C244.827 122.153 243.537 122.153 242.246 122.153C243.751 120.42 245.219 118.659 246.653 116.868C247.081 116.341 247.499 115.81 247.916 115.276L249.337 115.375C251.092 115.499 252.579 116.227 253.662 117.356C253.806 117.509 253.94 117.664 254.075 117.827C254.401 118.241 254.678 118.691 254.903 119.175C254.992 119.37 255.073 119.564 255.149 119.77C255.445 120.585 255.604 121.476 255.605 122.412C255.605 123.052 255.531 123.713 255.376 124.384L252.583 137.574Z" fill="#2D9596"/>
<path d="M245.976 126.862C244.981 126.862 243.985 126.862 242.99 126.862C243.48 126.569 243.837 126.032 243.907 125.383C244.023 124.316 243.317 123.349 242.333 123.224C242.03 123.185 241.725 123.147 241.416 123.109C241.695 122.793 241.971 122.475 242.249 122.157C243.539 122.157 244.831 122.157 246.121 122.157C247.693 122.157 249.264 122.157 250.838 122.157C252.055 122.157 252.955 123.235 253.009 124.51C253.012 124.614 253.009 124.718 252.998 124.82C251.345 124.527 249.593 124.243 247.783 123.973C247.701 123.961 247.62 123.955 247.538 123.955C246.654 123.955 245.883 124.661 245.759 125.636C245.703 126.077 245.788 126.503 245.976 126.862ZM240.07 126.862C239.382 126.862 238.698 126.862 238.012 126.862C238.08 126.79 238.148 126.716 238.215 126.644C238.841 126.716 239.46 126.789 240.07 126.862Z" fill="#2D9596"/>
<path d="M249.71 141.298C248.989 141.298 248.272 141.288 247.551 141.288C245.335 141.288 243.116 141.288 240.897 141.288C238.322 141.288 235.745 141.288 233.168 141.288C231.056 141.288 228.94 141.288 226.828 141.288C225.937 141.288 225.049 141.288 224.16 141.288C223.8 141.288 223.469 141.195 223.176 141.028C224.88 139.575 226.554 138.094 228.2 136.583C230.164 136.583 232.129 136.583 234.096 136.583C236.673 136.583 239.247 136.583 241.824 136.583C243.939 136.583 246.053 136.583 248.166 136.583C249.056 136.583 249.944 136.583 250.833 136.583C251.572 136.583 252.195 136.981 252.583 137.578L251.859 140.994C251.544 141.181 251.191 141.288 250.833 141.288C250.824 141.288 250.813 141.288 250.804 141.288C250.797 141.288 250.793 141.288 250.788 141.288C250.429 141.295 250.069 141.298 249.71 141.298Z" fill="#2D9596"/>
<path d="M265.205 153.856C264.315 153.856 263.543 153.141 263.426 152.159C263.297 151.093 263.992 150.117 264.975 149.98C266.912 149.709 268.677 149.399 270.227 149.061C270.348 149.035 270.468 149.021 270.585 149.021C271.423 149.021 272.172 149.659 272.344 150.583C272.541 151.637 271.913 152.664 270.938 152.877C269.306 153.233 267.455 153.557 265.437 153.841C265.358 153.852 265.28 153.856 265.205 153.856Z" fill="#CDCDCD"/>
<path d="M275.838 151.381C275.627 151.381 275.419 151.34 275.225 151.264C275.299 151.058 275.367 150.849 275.433 150.637C275.973 149.484 276.368 148.267 276.616 146.987C277.748 146.419 278.585 145.804 279.117 145.15C279.472 144.714 279.968 144.49 280.465 144.49C280.886 144.49 281.311 144.651 281.652 144.976C282.395 145.687 282.468 146.917 281.811 147.724C280.663 149.137 278.909 150.295 276.452 151.263C276.249 151.343 276.041 151.381 275.838 151.381Z" fill="#C8C8C8"/>
<path d="M275.224 151.269C274.742 151.08 274.338 150.669 274.148 150.105C273.808 149.094 274.29 147.978 275.224 147.609C275.726 147.411 276.191 147.205 276.615 146.992C276.367 148.272 275.974 149.489 275.432 150.642C275.366 150.854 275.298 151.063 275.224 151.269Z" fill="#CDCDCD"/>
<path d="M281.32 142.894C280.533 142.894 279.81 142.327 279.589 141.464C279.248 140.119 278.478 138.88 277.237 137.677C276.497 136.961 276.434 135.731 277.095 134.93C277.449 134.5 277.941 134.28 278.435 134.28C278.861 134.28 279.288 134.444 279.632 134.776C281.379 136.468 282.53 138.37 283.053 140.43C283.317 141.465 282.756 142.538 281.8 142.822C281.64 142.87 281.478 142.894 281.32 142.894ZM275.23 134.355C274.825 133.434 274.336 132.572 273.761 131.791C273.337 131.217 272.892 130.676 272.428 130.175C273.236 130.537 273.997 130.91 274.706 131.291C275.596 131.769 275.958 132.937 275.518 133.9C275.44 134.07 275.343 134.222 275.23 134.355Z" fill="#C8C8C8"/>
<path d="M273.909 134.986C273.639 134.986 273.369 134.92 273.112 134.783C271.724 134.037 270.101 133.321 268.29 132.654C267.349 132.309 266.848 131.203 267.165 130.186C267.42 129.375 268.119 128.865 268.867 128.865C269.058 128.865 269.254 128.898 269.445 128.968C270.497 129.356 271.493 129.76 272.428 130.179C272.893 130.68 273.338 131.22 273.762 131.795C274.338 132.576 274.824 133.438 275.231 134.359C274.888 134.761 274.406 134.986 273.909 134.986ZM263.633 131.093C263.486 131.093 263.337 131.073 263.187 131.032C262.755 130.913 262.314 130.794 261.861 130.677V127.383C262.802 127.444 263.741 127.505 264.681 127.566C265.264 128.02 265.561 128.829 265.372 129.627C265.164 130.507 264.435 131.093 263.633 131.093Z" fill="#CDCDCD"/>
<path d="M264.684 127.566C263.746 127.505 262.805 127.444 261.865 127.383V126.679C262.628 126.869 263.367 127.063 264.079 127.26C264.304 127.322 264.507 127.427 264.684 127.566Z" fill="#CDCDCD"/>
<path d="M261.865 130.678C260.628 130.357 259.317 130.046 257.955 129.748C256.983 129.536 256.353 128.509 256.549 127.456C256.721 126.531 257.472 125.894 258.309 125.894C258.427 125.894 258.546 125.906 258.665 125.932C259.767 126.173 260.837 126.423 261.865 126.68V127.384V130.678Z" fill="#C8C8C8"/>
<path d="M252.941 128.728C252.842 128.728 252.746 128.72 252.645 128.702C250.958 128.401 249.157 128.108 247.293 127.83C246.718 127.744 246.244 127.371 245.977 126.863C247.026 126.863 248.075 126.863 249.124 126.863C249.695 126.863 250.266 126.863 250.838 126.863C251.879 126.863 252.88 125.952 252.999 124.82C253.075 124.834 253.152 124.848 253.23 124.861C254.207 125.036 254.872 126.037 254.711 127.098C254.566 128.052 253.804 128.728 252.941 128.728Z" fill="#2D9596"/>
<path d="M250.836 126.86C250.267 126.86 249.695 126.86 249.124 126.86C248.073 126.86 247.026 126.86 245.976 126.86C245.789 126.501 245.703 126.075 245.759 125.634C245.883 124.659 246.655 123.953 247.538 123.953C247.62 123.953 247.701 123.959 247.783 123.971C249.593 124.241 251.345 124.525 252.998 124.818C252.88 125.949 251.879 126.86 250.836 126.86Z" fill="#2D9596"/>
<path d="M238.218 126.643C237.656 126.579 237.089 126.515 236.517 126.453C235.531 126.345 234.811 125.39 234.912 124.321C235.005 123.317 235.79 122.57 236.698 122.57C236.757 122.57 236.819 122.573 236.88 122.58C238.435 122.75 239.959 122.928 241.418 123.108C240.368 124.3 239.3 125.479 238.218 126.643Z" fill="#2D9596"/>
<path d="M242.126 127.098C242.056 127.098 241.987 127.093 241.916 127.084C241.312 127.008 240.696 126.932 240.07 126.856C240.586 126.856 241.1 126.856 241.616 126.856C242.074 126.856 242.533 126.856 242.991 126.856C242.731 127.011 242.436 127.098 242.126 127.098Z" fill="#2D9596"/>
<path d="M242.989 126.86C242.531 126.86 242.073 126.86 241.615 126.86C241.1 126.86 240.583 126.86 240.068 126.86C239.459 126.787 238.841 126.714 238.215 126.643C239.297 125.478 240.366 124.3 241.416 123.107C241.724 123.145 242.029 123.184 242.332 123.222C243.317 123.347 244.022 124.314 243.907 125.381C243.836 126.03 243.479 126.567 242.989 126.86Z" fill="#2D9596"/>
<path d="M231.262 125.905C231.209 125.905 231.156 125.902 231.102 125.897C230.987 125.886 230.871 125.875 230.755 125.864C231.023 125.477 231.179 125.006 231.157 124.507C231.104 123.232 230.202 122.154 228.986 122.154C228.097 122.154 227.207 122.154 226.319 122.154C225.709 122.154 225.101 122.154 224.492 122.154C224.823 121.763 225.297 121.52 225.818 121.52C225.865 121.52 225.912 121.522 225.961 121.527C227.839 121.686 229.676 121.852 231.419 122.019C232.406 122.114 233.137 123.059 233.05 124.13C232.967 125.142 232.183 125.905 231.262 125.905Z" fill="#177172"/>
<path d="M230.756 125.865C229.129 125.709 227.423 125.556 225.68 125.408C224.691 125.323 223.952 124.386 224.029 123.315C224.063 122.866 224.232 122.464 224.493 122.155C225.101 122.155 225.71 122.155 226.319 122.155C227.207 122.155 228.097 122.155 228.986 122.155C230.203 122.155 231.105 123.233 231.157 124.508C231.179 125.007 231.022 125.477 230.756 125.865Z" fill="#2D9596"/>
<path d="M221.989 122.157C221.319 122.157 220.65 122.157 219.982 122.157C217.72 122.157 215.457 122.157 213.195 122.157C213.393 121.303 214.106 120.686 214.937 120.686C214.975 120.686 215.015 120.687 215.053 120.69C216.941 120.822 218.775 120.956 220.509 121.089C221.165 121.139 221.714 121.565 221.989 122.157Z" fill="#5D54C8"/>
<path d="M220.384 124.972C220.341 124.972 220.297 124.971 220.256 124.968C218.528 124.835 216.701 124.702 214.821 124.571C213.832 124.501 213.079 123.575 213.145 122.503C213.151 122.382 213.169 122.265 213.194 122.153C215.457 122.153 217.718 122.153 219.98 122.153C220.649 122.153 221.318 122.153 221.987 122.153C222.128 122.456 222.197 122.801 222.173 123.163C222.107 124.19 221.318 124.972 220.384 124.972Z" fill="#2D9596"/>
<path d="M202.254 122.157C202.243 122.045 202.239 121.929 202.245 121.811C202.3 120.776 203.089 119.976 204.038 119.976C204.07 119.976 204.105 119.976 204.139 119.979C206.099 120.098 207.883 120.21 209.594 120.321C210.515 120.38 211.231 121.181 211.28 122.155C209.384 122.155 207.488 122.155 205.592 122.155C204.874 122.155 204.155 122.147 203.435 122.147C203.076 122.147 202.717 122.148 202.358 122.155C202.353 122.155 202.348 122.155 202.343 122.155C202.332 122.155 202.322 122.155 202.311 122.155C202.293 122.155 202.274 122.155 202.254 122.157Z" fill="#177172"/>
<path d="M209.491 124.212C209.455 124.212 209.418 124.211 209.381 124.209C207.675 124.098 205.895 123.986 203.94 123.867C203.056 123.813 202.36 123.077 202.258 122.159C202.276 122.157 202.295 122.158 202.315 122.158C202.325 122.158 202.334 122.158 202.345 122.158C202.35 122.158 202.355 122.158 202.36 122.158C202.719 122.15 203.078 122.149 203.437 122.149C204.157 122.149 204.876 122.158 205.596 122.158C207.491 122.158 209.386 122.158 211.282 122.158C211.286 122.232 211.286 122.306 211.282 122.382C211.225 123.416 210.433 124.212 209.491 124.212Z" fill="#2D9596"/>
<path d="M198.595 123.544C198.562 123.544 198.529 123.543 198.496 123.542C196.686 123.436 194.87 123.33 193.05 123.227C192.058 123.169 191.298 122.253 191.35 121.179C191.401 120.141 192.197 119.337 193.144 119.337C193.175 119.337 193.207 119.337 193.239 119.338C195.061 119.443 196.879 119.549 198.69 119.654C199.681 119.712 200.44 120.629 200.387 121.703C200.335 122.74 199.541 123.544 198.595 123.544Z" fill="#177172"/>
<path d="M187.702 122.916C187.67 122.916 187.638 122.915 187.605 122.913C185.785 122.809 183.964 122.704 182.144 122.6C181.153 122.542 180.393 121.625 180.446 120.552C180.497 119.514 181.29 118.71 182.238 118.71C182.271 118.71 182.303 118.711 182.336 118.713C184.155 118.817 185.976 118.922 187.794 119.026C187.915 119.033 188.032 119.052 188.145 119.083V122.856C188.003 122.894 187.854 122.916 187.702 122.916Z" fill="#2D9596"/>
<path d="M188.145 122.854V119.081C188.958 119.307 189.539 120.128 189.494 121.071C189.452 121.941 188.886 122.65 188.145 122.854Z" fill="#2D9596"/>
<path d="M176.791 122.281C176.757 122.281 176.724 122.281 176.69 122.278C174.868 122.17 173.05 122.058 171.237 121.946C170.247 121.884 169.49 120.963 169.548 119.89C169.603 118.855 170.397 118.056 171.341 118.056C171.376 118.056 171.41 118.057 171.445 118.06C173.254 118.173 175.069 118.283 176.888 118.391C177.879 118.45 178.638 119.369 178.583 120.443C178.53 121.48 177.738 122.281 176.791 122.281Z" fill="#2D9596"/>
<path d="M158.879 118.336C159.187 117.731 159.781 117.329 160.451 117.329C160.491 117.329 160.531 117.331 160.572 117.334C161.047 117.368 161.53 117.402 162.019 117.437C161.045 117.952 159.979 118.256 158.879 118.336Z" fill="#2D9596"/>
<path d="M165.898 121.598C165.861 121.598 165.824 121.596 165.786 121.594C163.904 121.468 162.069 121.341 160.331 121.215C159.341 121.144 158.592 120.216 158.658 119.143C158.676 118.849 158.755 118.575 158.878 118.333C159.978 118.254 161.044 117.95 162.018 117.434C163.31 117.526 164.646 117.618 166.007 117.709C166.998 117.775 167.751 118.698 167.69 119.772C167.631 120.803 166.839 121.598 165.898 121.598Z" fill="#2D9596"/>
<path d="M156.718 118.266L147.906 117.661C148.18 116.95 148.829 116.462 149.564 116.462C149.613 116.462 149.662 116.465 149.711 116.469C151.452 116.622 153.279 116.774 155.138 116.922C155.889 116.981 156.5 117.533 156.718 118.266Z" fill="#2D9596"/>
<path d="M155.008 120.809C154.964 120.809 154.92 120.808 154.875 120.804C153.007 120.656 151.172 120.502 149.422 120.35C148.432 120.263 147.696 119.324 147.775 118.253C147.791 118.044 147.836 117.846 147.906 117.662L156.718 118.267C156.787 118.498 156.816 118.747 156.798 119.004C156.729 120.028 155.941 120.809 155.008 120.809Z" fill="#2D9596"/>
<path d="M145.892 117.525L136.945 116.91C137.129 116.027 137.857 115.395 138.695 115.395C138.756 115.395 138.817 115.398 138.88 115.404C140.616 115.597 142.437 115.787 144.291 115.968C145.102 116.048 145.739 116.701 145.892 117.525Z" fill="#2D9596"/>
<path d="M144.127 119.85C144.073 119.85 144.018 119.847 143.964 119.842C142.095 119.659 140.26 119.468 138.51 119.274C137.524 119.165 136.806 118.21 136.906 117.14C136.913 117.062 136.925 116.983 136.941 116.908L145.888 117.522C145.921 117.701 145.931 117.888 145.914 118.079C145.831 119.09 145.046 119.85 144.127 119.85Z" fill="#2D9596"/>
<path d="M126.154 116.579C126.069 116.305 126.039 116.007 126.077 115.701C126.141 115.183 126.388 114.739 126.738 114.438L126.806 116.43C126.584 116.469 126.366 116.52 126.154 116.579Z" fill="#CDCDCD"/>
<path d="M135.067 116.78L128.596 116.335C128.423 116.324 128.252 116.318 128.083 116.318C127.644 116.318 127.216 116.357 126.806 116.432L126.738 114.439C127.049 114.173 127.438 114.016 127.855 114.016C127.934 114.016 128.016 114.021 128.097 114.034C129.815 114.284 131.628 114.53 133.481 114.764C134.421 114.883 135.108 115.77 135.067 116.78Z" fill="#2D9596"/>
<path d="M126.842 117.568C126.519 117.329 126.275 116.981 126.15 116.578C126.363 116.519 126.581 116.468 126.803 116.43L126.842 117.568Z" fill="#2D9596"/>
<path d="M133.274 118.644C133.204 118.644 133.133 118.64 133.063 118.63C131.189 118.394 129.356 118.145 127.616 117.89C127.329 117.849 127.068 117.736 126.843 117.57L126.805 116.431C127.215 116.357 127.643 116.317 128.082 116.317C128.251 116.317 128.422 116.324 128.594 116.335L135.066 116.779C135.063 116.827 135.061 116.874 135.056 116.922C134.949 117.914 134.172 118.644 133.274 118.644Z" fill="#2D9596"/>
<path d="M122.46 117.058C122.367 117.058 122.273 117.05 122.179 117.033C120.299 116.714 118.472 116.376 116.75 116.03C115.774 115.833 115.13 114.817 115.312 113.759C115.472 112.823 116.227 112.169 117.075 112.169C117.185 112.169 117.295 112.18 117.406 112.202C119.096 112.543 120.889 112.874 122.736 113.189C123.717 113.355 124.386 114.351 124.232 115.414C124.093 116.372 123.329 117.058 122.46 117.058ZM111.733 114.88C111.602 114.88 111.47 114.865 111.338 114.832C109.445 114.373 107.635 113.883 105.957 113.38C105.001 113.093 104.441 112.02 104.706 110.983C104.926 110.123 105.649 109.557 106.436 109.557C106.595 109.557 106.756 109.581 106.917 109.629C108.537 110.116 110.289 110.589 112.124 111.034C113.092 111.269 113.701 112.31 113.484 113.359C113.297 114.264 112.555 114.88 111.733 114.88ZM101.235 111.682C101.035 111.682 100.831 111.646 100.632 111.569C98.7284 110.835 96.9754 110.046 95.4214 109.225C94.5297 108.753 94.1594 107.587 94.5943 106.622C94.9055 105.93 95.5449 105.527 96.2102 105.527C96.4745 105.527 96.7429 105.592 96.9965 105.725C98.4309 106.483 100.06 107.216 101.838 107.902C102.773 108.264 103.26 109.376 102.927 110.389C102.665 111.185 101.973 111.682 101.235 111.682Z" fill="#CDCDCD"/>
<path d="M277.061 228.998C276.735 228.998 276.403 228.902 276.107 228.7C275.422 228.232 274.701 227.751 273.965 227.271C273.117 226.715 272.843 225.519 273.357 224.599C273.693 223.993 274.287 223.658 274.896 223.658C275.211 223.658 275.532 223.748 275.823 223.938C276.574 224.431 277.314 224.924 278.02 225.404C278.859 225.976 279.112 227.177 278.585 228.088C278.242 228.675 277.658 228.998 277.061 228.998Z" fill="#C8C8C8"/>
<path d="M270.44 224.741C270.139 224.741 269.838 224.66 269.559 224.489C268.827 224.044 268.076 223.591 267.311 223.138C267.874 222.667 268.406 222.145 268.895 221.576C269.277 221.166 269.629 220.73 269.955 220.271C270.418 220.548 270.873 220.825 271.323 221.098C272.187 221.626 272.493 222.813 272.005 223.749C271.675 224.383 271.067 224.741 270.44 224.741Z" fill="#C8C8C8"/>
<path d="M267.31 223.137C266.464 222.636 265.601 222.133 264.727 221.631C263.85 221.127 263.516 219.95 263.981 218.999C264.303 218.341 264.927 217.964 265.569 217.964C265.854 217.964 266.141 218.037 266.409 218.191C267.618 218.885 268.806 219.583 269.953 220.27C269.629 220.729 269.276 221.165 268.895 221.575C268.403 222.144 267.872 222.667 267.31 223.137ZM260.636 219.098C260.364 219.098 260.088 219.032 259.828 218.891C258.224 218.016 256.558 217.129 254.877 216.254C253.983 215.789 253.607 214.626 254.036 213.658C254.344 212.96 254.987 212.554 255.656 212.554C255.916 212.554 256.182 212.615 256.432 212.745C258.133 213.63 259.821 214.528 261.444 215.413C262.33 215.898 262.688 217.068 262.241 218.027C261.924 218.707 261.292 219.098 260.636 219.098ZM250.631 213.89C250.379 213.89 250.124 213.832 249.881 213.711C248.229 212.889 246.535 212.063 244.846 211.255C243.937 210.822 243.526 209.673 243.925 208.69C244.222 207.961 244.881 207.528 245.57 207.528C245.813 207.528 246.058 207.581 246.295 207.693C248.003 208.508 249.713 209.343 251.381 210.175C252.282 210.623 252.678 211.779 252.264 212.756C251.961 213.469 251.31 213.89 250.631 213.89ZM240.474 209.037C240.24 209.037 240.003 208.988 239.775 208.884C238.084 208.109 236.368 207.34 234.672 206.594C233.753 206.191 233.309 205.056 233.682 204.06C233.965 203.304 234.637 202.843 235.346 202.843C235.571 202.843 235.8 202.89 236.02 202.988C237.733 203.738 239.467 204.517 241.174 205.299C242.088 205.717 242.516 206.86 242.13 207.85C241.84 208.592 241.174 209.037 240.474 209.037ZM230.186 204.519C229.97 204.519 229.75 204.478 229.536 204.387C227.817 203.665 226.08 202.952 224.372 202.267C223.442 201.895 222.966 200.775 223.311 199.767C223.579 198.982 224.265 198.495 224.995 198.495C225.202 198.495 225.413 198.534 225.62 198.616C227.344 199.308 229.099 200.029 230.835 200.759C231.761 201.148 232.219 202.275 231.86 203.278C231.585 204.048 230.904 204.519 230.186 204.519ZM219.775 200.349C219.576 200.349 219.376 200.315 219.179 200.239C217.425 199.572 215.669 198.923 213.957 198.308C213.015 197.972 212.503 196.87 212.816 195.85C213.066 195.032 213.766 194.515 214.52 194.515C214.707 194.515 214.898 194.546 215.085 194.614C216.817 195.234 218.596 195.891 220.37 196.566C221.307 196.922 221.797 198.033 221.469 199.047C221.209 199.849 220.515 200.349 219.775 200.349ZM209.235 196.576C209.06 196.576 208.881 196.548 208.705 196.489C206.912 195.89 205.134 195.321 203.424 194.797C203.048 194.681 202.735 194.446 202.508 194.139L210.984 194.189C211.054 194.513 211.049 194.861 210.951 195.204C210.712 196.04 210.002 196.576 209.235 196.576Z" fill="#CDCDCD"/>
<path d="M210.987 194.188L202.511 194.139C202.496 194.118 202.483 194.097 202.469 194.077L210.975 194.137C210.979 194.154 210.983 194.17 210.987 194.188Z" fill="#2D9596" fill-opacity="0.176471"/>
<path d="M210.973 194.136L202.466 194.076C202.148 193.608 202.027 192.993 202.185 192.393C202.407 191.535 203.128 190.975 203.911 190.975C204.074 190.975 204.238 190.998 204.402 191.049C206.139 191.581 207.943 192.159 209.766 192.768C210.38 192.974 210.82 193.506 210.973 194.136ZM198.555 193.304C198.405 193.304 198.254 193.285 198.102 193.242C196.358 192.751 194.553 192.256 192.741 191.771C191.778 191.513 191.191 190.458 191.429 189.414C191.631 188.527 192.363 187.935 193.171 187.935C193.313 187.935 193.458 187.953 193.603 187.992C195.43 188.481 197.247 188.98 199.005 189.475C199.966 189.744 200.542 190.807 200.294 191.847C200.083 192.724 199.354 193.304 198.555 193.304ZM187.778 190.418C187.642 190.418 187.502 190.4 187.363 190.364C185.621 189.92 183.807 189.466 181.971 189.017C181.003 188.78 180.396 187.738 180.615 186.69C180.804 185.786 181.544 185.172 182.365 185.172C182.495 185.172 182.629 185.187 182.763 185.22C184.61 185.673 186.435 186.128 188.189 186.576C189.155 186.822 189.753 187.871 189.525 188.918C189.33 189.813 188.593 190.418 187.778 190.418ZM176.949 187.766C176.822 187.766 176.694 187.75 176.566 187.72C174.837 187.315 173.015 186.892 171.148 186.468C170.177 186.246 169.555 185.215 169.759 184.163C169.937 183.246 170.685 182.616 171.516 182.616C171.639 182.616 171.762 182.63 171.887 182.657C173.763 183.085 175.593 183.509 177.329 183.917C178.297 184.145 178.913 185.182 178.702 186.232C178.519 187.143 177.775 187.766 176.949 187.766ZM166.083 185.289C165.964 185.289 165.843 185.275 165.721 185.249C164.042 184.877 162.264 184.486 160.286 184.057C159.314 183.846 158.684 182.82 158.879 181.765C159.05 180.841 159.8 180.202 160.638 180.202C160.756 180.202 160.874 180.214 160.994 180.24C162.976 180.672 164.758 181.062 166.442 181.435C167.414 181.651 168.04 182.679 167.841 183.733C167.668 184.654 166.918 185.289 166.083 185.289Z" fill="#2D9596"/>
<path d="M148.742 181.408C148.163 180.982 147.844 180.206 147.99 179.416C148.162 178.492 148.91 177.851 149.749 177.851C149.866 177.851 149.985 177.863 150.105 177.89C151.632 178.221 153.193 178.558 154.785 178.902L155.548 179.067C155.596 179.076 155.643 179.089 155.69 179.104C153.391 179.905 151.078 180.673 148.742 181.408Z" fill="#2D9596"/>
<path d="M155.198 182.921C155.081 182.921 154.963 182.91 154.845 182.884L154.082 182.719C152.488 182.375 150.926 182.038 149.398 181.707C149.155 181.655 148.933 181.55 148.74 181.408C151.077 180.673 153.389 179.906 155.689 179.104C156.58 179.378 157.141 180.354 156.957 181.355C156.787 182.282 156.037 182.921 155.198 182.921Z" fill="#2D9596"/>
<path d="M144.312 180.55C144.192 180.55 144.071 180.536 143.949 180.509C141.924 180.059 140.14 179.655 138.498 179.272C137.528 179.047 136.91 178.012 137.118 176.961C137.3 176.048 138.045 175.424 138.874 175.424C138.999 175.424 139.126 175.438 139.253 175.466C140.884 175.846 142.656 176.249 144.67 176.696C145.642 176.912 146.269 177.94 146.07 178.993C145.896 179.915 145.147 180.55 144.312 180.55Z" fill="#2D9596"/>
<path d="M128.853 176.846C128.428 176.728 128.013 176.61 127.605 176.493C126.647 176.215 126.077 175.149 126.332 174.11C126.547 173.239 127.273 172.665 128.067 172.665C128.22 172.665 128.376 172.687 128.531 172.731C128.593 172.749 128.654 172.766 128.716 172.784L128.853 176.846Z" fill="#2D9596"/>
<path d="M133.46 178.007C133.324 178.007 133.187 177.991 133.05 177.956C131.529 177.573 130.146 177.206 128.854 176.847L128.717 172.785C130.27 173.23 131.957 173.683 133.866 174.165C134.832 174.409 135.433 175.457 135.207 176.503C135.014 177.401 134.276 178.007 133.46 178.007Z" fill="#2D9596"/>
<path d="M122.746 174.854C122.557 174.854 122.365 174.822 122.176 174.754C119.995 173.964 118.231 173.189 116.785 172.382C115.903 171.89 115.556 170.717 116.01 169.761C116.329 169.09 116.958 168.705 117.609 168.705C117.886 168.705 118.167 168.775 118.43 168.921C119.693 169.626 121.337 170.347 123.314 171.062C124.255 171.401 124.763 172.504 124.449 173.524C124.198 174.338 123.497 174.854 122.746 174.854ZM113.594 168.695C112.86 168.695 112.172 168.206 111.906 167.415C111.736 166.909 111.639 166.384 111.617 165.856C111.611 165.702 111.607 165.547 111.607 165.394C111.607 163.407 112.145 161.573 113.206 159.942C113.555 159.403 114.111 159.116 114.676 159.116C115.033 159.116 115.394 159.231 115.709 159.47C116.52 160.089 116.715 161.303 116.143 162.182C115.509 163.158 115.2 164.209 115.2 165.394C115.2 165.489 115.202 165.585 115.206 165.683C115.212 165.817 115.237 165.948 115.282 166.083C115.622 167.093 115.141 168.21 114.209 168.578C114.006 168.658 113.798 168.695 113.594 168.695ZM118.929 159.237C118.286 159.237 117.665 158.861 117.342 158.204C116.875 157.255 117.207 156.077 118.083 155.572C118.823 155.145 119.643 154.732 120.52 154.346C120.741 154.248 120.971 154.203 121.196 154.203C121.905 154.203 122.577 154.661 122.861 155.416C123.235 156.412 122.792 157.547 121.873 157.952C121.11 158.288 120.404 158.643 119.772 159.007C119.503 159.162 119.214 159.237 118.929 159.237Z" fill="#CDCDCD"/>
<path d="M77.6507 116.185L77.041 115.395C77.5164 115.426 77.9917 115.457 78.4673 115.488L77.6507 116.185Z" fill="#E8E8E8"/>
<path d="M78.4673 115.489C77.9918 115.457 77.5165 115.427 77.0411 115.395L55.2031 87.0867L96.768 99.8467L90.054 105.591H90.05L90.0482 105.59L84.0359 106.209L82.7701 111.811L82.7534 111.824L78.4673 115.489Z" fill="#DEDEDE"/>
<path d="M51.1289 78.6569L55.0369 79.5795L93.0934 89.0341L103.001 82.027C103.624 81.5843 103.315 80.5805 102.554 80.5874L53.0426 78.441L51.4972 78.4534C51.3478 78.5029 51.2208 78.5703 51.1289 78.6569Z" fill="#FED302"/>
<path d="M93.0945 89.0343L91.0823 104.038C91.053 104.254 90.9354 104.421 90.7786 104.524C90.7622 104.533 90.7427 104.544 90.7231 104.555C90.599 104.623 90.4521 104.65 90.3083 104.623L90.2756 104.619C90.207 104.605 90.1417 104.58 90.0764 104.54L81.7604 99.6466L62.2245 86.2885L55.0288 81.366L51.547 79.3172L50.9492 78.9624C50.9525 78.9418 50.959 78.9171 50.9688 78.8923C50.9851 78.8469 51.0047 78.8043 51.0308 78.7686C51.057 78.7259 51.0929 78.6902 51.1288 78.6558L55.0353 79.5785L93.0945 89.0343Z" fill="#FED302"/>
<path d="M90.7752 104.524C90.7588 104.533 90.7393 104.544 90.7197 104.555C90.5956 104.623 90.4486 104.65 90.3048 104.623L62.2211 86.2885L51.5436 79.3172L51.465 79.2636C51.292 79.1618 51.4096 78.8882 51.6023 78.9487L87.6788 93.1992C87.7343 93.2171 87.7768 93.2625 87.7897 93.3188L90.7752 104.524Z" fill="#FED302"/>
<path d="M51.0817 79.5459L51.6501 80.1674L73.2055 106.383C73.8089 107.043 74.8297 107.05 75.4393 106.398L81.7571 99.6484L81.7775 99.6264L87.7416 93.2574L87.7413 93.2547L87.7676 93.2285L87.6348 93.1859L80.4989 90.8704L55.8477 80.5744L52.3644 79.2021L51.0295 78.769C51.0026 78.8075 50.9823 78.8501 50.9664 78.8941C50.9587 78.9175 50.9508 78.9423 50.9473 78.9656C50.9107 79.1444 50.9607 79.3424 51.0817 79.5459Z" fill="#FED302"/>
</svg>
