<svg width="250" height="250" viewBox="0 0 250 250" fill="none" xmlns="http://www.w3.org/2000/svg">
<mask id="mask0_1_2751" style="mask-type:luminance" maskUnits="userSpaceOnUse" x="0" y="0" width="250" height="250">
<path d="M250 0H0V250H250V0Z" fill="white"/>
</mask>
<g mask="url(#mask0_1_2751)">
<path d="M117.33 209.375C169.363 209.375 211.545 167.193 211.545 115.16C211.545 63.1269 169.363 20.9453 117.33 20.9453C65.2968 20.9453 23.1152 63.1269 23.1152 115.16C23.1152 167.193 65.2968 209.375 117.33 209.375Z" fill="url(#paint0_linear_1_2751)"/>
<path d="M81.9995 48.0762H154.653C161.591 48.0762 167.214 53.7 167.214 60.6382V157.231C167.214 164.169 161.591 169.793 154.653 169.793H81.9995C75.0613 169.793 69.4375 164.169 69.4375 157.231V60.6382C69.4375 53.7 75.0613 48.0762 81.9995 48.0762Z" fill="white"/>
<path d="M81.9194 63.7773H113.481C115.606 63.7773 117.328 65.4999 117.328 67.6244C117.328 69.749 115.606 71.4716 113.481 71.4716H81.9194C79.7948 71.4716 78.0723 69.749 78.0723 67.6244C78.0723 65.4999 79.7948 63.7773 81.9194 63.7773Z" fill="#C9C9C9"/>
<path d="M81.9194 85.6055H152.738C154.862 85.6055 156.585 87.328 156.585 89.4526C156.585 91.5771 154.862 93.2997 152.738 93.2997H81.9194C79.7948 93.2997 78.0723 91.5771 78.0723 89.4526C78.0723 87.328 79.7948 85.6055 81.9194 85.6055Z" fill="#D5D5D5"/>
<path d="M81.9194 107.432H152.738C154.862 107.432 156.585 109.154 156.585 111.279C156.585 113.403 154.862 115.126 152.738 115.126H81.9194C79.7948 115.126 78.0723 113.403 78.0723 111.279C78.0723 109.154 79.7948 107.432 81.9194 107.432Z" fill="#D5D5D5"/>
<path d="M81.9194 129.256H152.738C154.862 129.256 156.585 130.978 156.585 133.103C156.585 135.228 154.862 136.95 152.738 136.95H81.9194C79.7948 136.95 78.0723 135.228 78.0723 133.103C78.0723 130.978 79.7948 129.256 81.9194 129.256Z" fill="#D5D5D5"/>
<path d="M81.9194 151.084H152.738C154.862 151.084 156.585 152.807 156.585 154.931C156.585 157.056 154.862 158.778 152.738 158.778H81.9194C79.7948 158.778 78.0723 157.056 78.0723 154.931C78.0723 152.807 79.7948 151.084 81.9194 151.084Z" fill="#D5D5D5"/>
<path d="M225.795 34.627H178.624C176.427 34.627 174.645 36.5018 174.645 38.8156V62.1487C174.645 64.4617 176.427 66.3373 178.624 66.3373H225.795C227.994 66.3373 229.775 64.4617 229.775 62.1487V38.8156C229.775 36.5018 227.994 34.627 225.795 34.627Z" fill="white"/>
<path d="M186.42 55.4898C189.022 55.4898 191.13 53.381 191.13 50.7791C191.13 48.1772 189.022 46.0684 186.42 46.0684C183.818 46.0684 181.709 48.1772 181.709 50.7791C181.709 53.381 183.818 55.4898 186.42 55.4898Z" fill="#94B1B1"/>
<path d="M202.123 46.0684H217.825C220.427 46.0684 222.536 48.1772 222.536 50.7791C222.536 53.381 220.427 55.4898 217.825 55.4898H202.123C199.521 55.4898 197.412 53.381 197.412 50.7791C197.412 48.1772 199.521 46.0684 202.123 46.0684Z" fill="#D5D5D5"/>
<path fill-rule="evenodd" clip-rule="evenodd" d="M144.894 175.271C155.006 175.271 164.404 172.213 172.213 166.969L204.167 197.473L215.756 184.028L184.922 154.594C190.616 146.579 193.965 136.781 193.965 126.201C193.965 99.101 171.995 77.1309 144.894 77.1309C117.794 77.1309 95.8242 99.101 95.8242 126.201C95.8242 153.302 117.794 175.271 144.894 175.271ZM186.749 126.201C186.749 149.146 168.148 167.745 145.205 167.745C122.261 167.745 103.661 149.146 103.661 126.201C103.661 103.257 122.261 84.6578 145.205 84.6578C168.148 84.6578 186.749 103.257 186.749 126.201Z" fill="#94B1B1"/>
<path d="M145.201 168.548C168.834 168.548 187.991 149.566 187.991 126.152C187.991 102.737 168.834 83.7549 145.201 83.7549C121.569 83.7549 102.412 102.737 102.412 126.152C102.412 149.566 121.569 168.548 145.201 168.548Z" fill="white" fill-opacity="0.3"/>
<path d="M152.598 126.151L162.953 115.836C163.924 114.816 164.455 113.46 164.435 112.056C164.415 110.652 163.845 109.312 162.847 108.319C161.848 107.326 160.499 106.76 159.087 106.74C157.674 106.72 156.31 107.248 155.283 108.212L144.905 118.527L134.55 108.212C134.051 107.688 133.452 107.269 132.788 106.979C132.124 106.689 131.408 106.534 130.682 106.524C129.957 106.514 129.237 106.648 128.565 106.919C127.893 107.191 127.282 107.593 126.769 108.103C126.256 108.612 125.851 109.219 125.578 109.887C125.305 110.556 125.17 111.272 125.18 111.993C125.19 112.714 125.346 113.425 125.638 114.086C125.929 114.746 126.352 115.341 126.879 115.836L137.252 126.151L126.879 136.466C126.352 136.962 125.929 137.557 125.638 138.217C125.346 138.877 125.19 139.589 125.18 140.309C125.17 141.031 125.305 141.746 125.578 142.415C125.851 143.083 126.256 143.69 126.769 144.2C127.282 144.709 127.893 145.112 128.565 145.384C129.237 145.655 129.957 145.789 130.682 145.779C131.408 145.768 132.124 145.614 132.788 145.324C133.452 145.034 134.051 144.614 134.55 144.091L144.928 133.776L155.306 144.091C156.343 144.997 157.688 145.478 159.069 145.433C160.449 145.389 161.76 144.823 162.735 143.851C163.71 142.878 164.275 141.573 164.316 140.202C164.357 138.829 163.87 137.493 162.953 136.466L152.598 126.151Z" fill="#BECDCD"/>
<path d="M204.164 197.474L215.753 184.028L217.499 185.695C219.192 187.312 220.206 189.57 220.317 191.974C220.429 194.377 219.628 196.728 218.092 198.511C216.556 200.293 214.41 201.36 212.126 201.477C209.842 201.594 207.608 200.751 205.914 199.135L204.169 197.469L204.164 197.474Z" fill="#E1DCEB"/>
<path fill-rule="evenodd" clip-rule="evenodd" d="M43.7739 69.7582C43.7597 68.6386 43.6192 67.5088 43.3381 66.372C42.3528 62.382 37.9577 59.8201 33.2799 59.2179C28.6045 58.6157 23.7414 59.9866 21.8673 63.4576C20.7956 65.4416 20.648 67.1516 21.0861 68.5939C21.5219 70.0283 22.5567 71.217 23.9613 72.1442C27.8775 74.7249 34.7363 75.2517 37.8658 74.173C39.3128 73.6729 40.7268 73.0707 42.1031 72.3813C41.3164 76.8927 38.3832 81.1661 34.4686 85.0171C25.961 93.3873 12.7599 99.7405 5.5705 102.076C5.18422 102.202 4.96988 102.63 5.09001 103.033C5.21013 103.437 5.62075 103.663 6.00703 103.537C13.3385 101.155 26.7971 94.6671 35.4727 86.1312C39.955 81.7227 43.1481 76.7592 43.6938 71.5412C53.8258 65.8876 62.1458 55.6299 69.2598 46.9967C69.5244 46.6787 69.489 46.1943 69.182 45.9179C68.8751 45.6439 68.4134 45.6785 68.1488 45.9988C61.3245 54.2787 53.405 64.1273 43.7739 69.7582ZM42.301 70.5787C42.3567 69.3201 42.2382 68.0419 41.9186 66.7528C41.0668 63.299 37.1506 61.2569 33.1009 60.7356C30.6191 60.4168 28.0667 60.6798 26.0646 61.6141C24.806 62.2006 23.7697 63.0517 23.1447 64.2098C22.3243 65.729 22.1468 67.0284 22.4829 68.1307C22.8197 69.2408 23.6551 70.1327 24.7432 70.8488C28.3124 73.2018 34.5573 73.7019 37.4057 72.7189C39.0851 72.1403 40.7158 71.418 42.301 70.5787Z" fill="#C9C9C9"/>
<path d="M223.32 147.35C225.922 147.35 228.031 145.241 228.031 142.639C228.031 140.038 225.922 137.929 223.32 137.929C220.718 137.929 218.609 140.038 218.609 142.639C218.609 145.241 220.718 147.35 223.32 147.35Z" fill="#E3E3E3"/>
<path fill-rule="evenodd" clip-rule="evenodd" d="M45.3991 175.137C46.24 174.822 47.1248 174.403 47.8071 173.796C48.6173 173.076 48.9471 172.148 49.1677 171.171C49.4519 169.916 49.5657 168.58 49.9104 167.323C50.0376 166.855 50.2833 166.679 50.3885 166.601C50.6547 166.403 50.924 166.35 51.1768 166.37C51.4767 166.393 51.8889 166.512 52.1606 167.042C52.199 167.118 52.2493 167.233 52.283 167.391C52.3074 167.507 52.3239 167.869 52.3498 168.019C52.415 168.387 52.4691 168.755 52.5209 169.125C52.6913 170.357 52.7895 171.404 53.3281 172.536C54.059 174.072 54.7915 175.012 55.7847 175.429C56.7457 175.832 57.8936 175.756 59.361 175.44C59.5007 175.405 59.6389 175.374 59.7755 175.349C60.4224 175.23 61.0411 175.677 61.1683 176.355C61.2955 177.033 60.8841 177.693 60.2426 177.843C60.1092 177.874 59.9773 177.903 59.8469 177.93C57.8637 178.447 55.568 180.291 54.2341 181.905C53.8235 182.403 53.2213 183.795 52.6073 184.682C52.1543 185.337 51.6448 185.768 51.2169 185.921C50.9303 186.024 50.6892 186.008 50.4898 185.956C50.1993 185.881 49.9591 185.716 49.7746 185.453C49.6741 185.309 49.5807 185.117 49.5359 184.87C49.5147 184.752 49.5123 184.451 49.5131 184.314C49.3875 183.861 49.2344 183.419 49.1229 182.962C48.8568 181.871 48.3347 181.181 47.7144 180.269C47.1342 179.415 46.5108 178.878 45.5969 178.45C45.4784 178.42 44.519 178.172 44.1806 178.031C43.6859 177.823 43.4496 177.474 43.364 177.287C43.2188 176.969 43.2039 176.691 43.2329 176.458C43.2761 176.116 43.4221 175.823 43.6812 175.587C43.8414 175.44 44.0809 175.297 44.402 175.227C44.6493 175.173 45.3072 175.142 45.3991 175.137ZM51.0261 173.359C51.07 173.464 51.1179 173.568 51.1682 173.674C52.2383 175.924 53.4356 177.181 54.8912 177.791L54.9399 177.81C53.9664 178.571 53.0847 179.421 52.4118 180.236C52.1339 180.572 51.7672 181.27 51.37 181.984C51.0096 180.751 50.4207 179.88 49.6796 178.789C49.1127 177.956 48.5199 177.33 47.7906 176.819C48.3566 176.514 48.896 176.156 49.3663 175.738C50.1491 175.042 50.6665 174.236 51.0261 173.359Z" fill="#94B1B1"/>
</g>
<defs>
<linearGradient id="paint0_linear_1_2751" x1="116.602" y1="-9.73333" x2="118.532" y2="321.135" gradientUnits="userSpaceOnUse">
<stop stop-color="#F2F2F2"/>
<stop offset="1" stop-color="#EFEFEF"/>
</linearGradient>
</defs>
</svg>
