<svg width="20" height="23" viewBox="0 0 20 23" fill="none" xmlns="http://www.w3.org/2000/svg">
<path d="M18.3744 16.6615C17.7134 16.2069 16.6294 14.7359 16.6294 9.94875C16.6294 5.45584 13.9327 3.66389 11.9498 2.91506C11.9762 2.75462 12.0027 2.56733 12.0027 2.40687C12.0027 1.06967 10.9453 0 9.62341 0C8.30151 0 7.24408 1.06967 7.24408 2.40687C7.24408 2.56731 7.27045 2.7546 7.29701 2.91506C5.31415 3.63719 2.61742 5.4557 2.61742 9.94875C2.61742 14.7627 1.53341 16.2336 0.872457 16.6615C0.317163 17.0359 0 17.6778 0 18.3196C0 19.4428 0.898848 20.3254 1.98286 20.3254H6.39802C6.71522 21.8766 8.06347 23 9.62327 23C11.1831 23 12.5316 21.8767 12.8487 20.3523H17.2639C18.3479 20.3523 19.2467 19.443 19.2467 18.3465C19.2467 17.6779 18.9295 17.036 18.3744 16.6616L18.3744 16.6615ZM9.62336 1.06972C10.3636 1.06972 10.9453 1.65809 10.9453 2.40692C10.9453 2.48714 10.9453 2.54068 10.9189 2.6209C9.83488 2.38024 8.83038 2.514 8.30147 2.6209C8.30147 2.54068 8.2751 2.48714 8.2751 2.40692C8.30147 1.65809 8.88309 1.06972 9.62336 1.06972ZM3.67479 9.94875C3.67479 5.8836 6.16002 4.33249 8.22214 3.74412H8.24851C8.24851 3.74412 8.83015 3.55682 9.64973 3.55682C10.0728 3.55682 10.5222 3.61036 11.0246 3.7708H11.0509C13.1131 4.35917 15.5983 5.91037 15.5983 9.97543C15.5983 13.0778 16.0213 15.2975 16.8938 16.608L2.37929 16.6081C3.22521 15.2441 3.67466 13.0243 3.67466 9.94887L3.67479 9.94875ZM9.62336 21.9301C8.6452 21.9301 7.77274 21.2615 7.48192 20.3522H11.7648C11.4742 21.2615 10.6017 21.9301 9.62341 21.9301H9.62336ZM17.264 19.2825H1.98275C1.48038 19.2825 1.05732 18.8546 1.05732 18.3464C1.05732 18.0789 1.163 17.8382 1.37453 17.6511H17.9248C18.1099 17.8384 18.242 18.079 18.242 18.3464C18.1894 18.8546 17.7663 19.2825 17.264 19.2825Z" fill="#424242"/>
<path d="M7.24392 5.16125C7.16462 5.21479 5.1554 6.39157 4.86459 8.50426C4.81166 8.79846 5.02319 9.06598 5.31401 9.11933H5.39331C5.65777 9.11933 5.8691 8.93203 5.92202 8.6647C6.13355 7.08685 7.7463 6.12406 7.77264 6.12406C8.0371 5.9903 8.11639 5.64276 7.9578 5.40192C7.82557 5.08105 7.50837 5.00082 7.24392 5.16125Z" fill="black"/>
</svg>
