<svg width="12" height="12" viewBox="0 0 12 12" fill="none" xmlns="http://www.w3.org/2000/svg">
<path d="M11.4394 0.56065C10.6919 -0.186859 9.48004 -0.186887 8.73254 0.560588L1.33819 7.9547C1.15716 8.13571 1.02077 8.3564 0.939823 8.59927L0.02567 11.3419C-0.0342146 11.5215 0.0125431 11.7196 0.146449 11.8535C0.280355 11.9875 0.478424 12.0342 0.658077 11.9743L3.40061 11.0601C3.6434 10.9792 3.86402 10.8428 4.045 10.6618L11.4393 3.26777C12.1869 2.52025 12.1869 1.30821 11.4394 0.56065ZM9.43956 1.26771C9.79657 0.910726 10.3753 0.910739 10.7323 1.26774C11.0893 1.62477 11.0893 2.20363 10.7323 2.56064L9.99861 3.29431L8.70581 2.00144L9.43956 1.26771ZM7.99873 2.7085L9.29152 4.00137L3.33798 9.95472C3.26676 10.0259 3.17995 10.0796 3.08441 10.1114L1.29048 10.7094L1.88843 8.91549C1.92029 8.81991 1.97397 8.73306 2.04521 8.66182L7.99873 2.7085Z" fill="#4F52B2"/>
</svg>
