<svg width="222" height="188" viewBox="0 0 222 188" fill="none" xmlns="http://www.w3.org/2000/svg">
<path d="M112 167C153.421 167 187 133.421 187 92C187 50.5786 153.421 17 112 17C70.5786 17 37 50.5786 37 92C37 133.421 70.5786 167 112 167Z" fill="url(#paint0_linear_336_2121)"/>
<path d="M157 167H67V70C71.242 69.9952 75.3089 68.308 78.3084 65.3085C81.308 62.3089 82.9952 58.242 83 54H141C140.996 56.1014 141.408 58.1828 142.213 60.1238C143.018 62.0648 144.2 63.8268 145.691 65.308C147.172 66.7991 148.934 67.9816 150.875 68.787C152.817 69.5924 154.898 70.0047 157 70V167Z" fill="white"/>
<path d="M112 119C125.255 119 136 108.255 136 95C136 81.7452 125.255 71 112 71C98.7452 71 88 81.7452 88 95C88 108.255 98.7452 119 112 119Z" fill="#FF4672"/>
<path d="M125 125H99C97.3431 125 96 126.343 96 128C96 129.657 97.3431 131 99 131H125C126.657 131 128 129.657 128 128C128 126.343 126.657 125 125 125Z" fill="#DFEAFB"/>
<path d="M134 137H90C88.3431 137 87 138.343 87 140C87 141.657 88.3431 143 90 143H134C135.657 143 137 141.657 137 140C137 138.343 135.657 137 134 137Z" fill="#DFEAFB"/>
<path d="M112.095 82.264C114.463 82.264 116.361 82.8613 117.791 84.056C119.241 85.2293 119.967 86.9573 119.967 89.24C119.967 91.1173 119.327 92.632 118.047 93.784C116.788 94.936 115.135 95.5333 113.087 95.576L112.895 97.848H106.623L106.431 91.064H109.119C110.377 91.064 111.337 90.9253 111.999 90.648C112.681 90.3707 113.023 89.9227 113.023 89.304C113.023 88.8987 112.916 88.5893 112.703 88.376C112.511 88.1413 112.244 88.024 111.903 88.024C111.476 88.024 111.156 88.1627 110.943 88.44C110.751 88.696 110.655 89.0373 110.655 89.464H103.967C103.903 88.1413 104.159 86.936 104.735 85.848C105.332 84.76 106.249 83.896 107.487 83.256C108.724 82.5947 110.26 82.264 112.095 82.264ZM109.855 107.256C108.617 107.256 107.625 106.925 106.879 106.264C106.132 105.603 105.759 104.771 105.759 103.768C105.759 102.744 106.132 101.901 106.879 101.24C107.625 100.557 108.617 100.216 109.855 100.216C111.071 100.216 112.052 100.557 112.799 101.24C113.545 101.901 113.919 102.744 113.919 103.768C113.919 104.771 113.545 105.603 112.799 106.264C112.052 106.925 111.071 107.256 109.855 107.256Z" fill="white"/>
<path d="M173.346 94.7802C173.639 93.5688 175.362 93.5688 175.654 94.7802L176.76 99.3642C176.865 99.7971 177.203 100.135 177.636 100.24L182.22 101.346C183.431 101.639 183.431 103.362 182.22 103.654L177.636 104.76C177.203 104.865 176.865 105.203 176.76 105.636L175.654 110.22C175.361 111.431 173.638 111.431 173.346 110.22L172.24 105.636C172.135 105.203 171.797 104.865 171.364 104.76L166.78 103.654C165.569 103.361 165.569 101.638 166.78 101.346L171.364 100.24C171.797 100.135 172.135 99.7971 172.24 99.3642L173.346 94.7802Z" fill="url(#paint1_linear_336_2121)"/>
<path d="M135.346 13.7802C135.639 12.5688 137.362 12.5688 137.654 13.7802L138.76 18.3642C138.865 18.7971 139.203 19.135 139.636 19.2395L144.22 20.3461C145.431 20.6385 145.431 22.3615 144.22 22.6539L139.636 23.7605C139.203 23.865 138.865 24.2029 138.76 24.6358L137.654 29.2198C137.361 30.4312 135.638 30.4312 135.346 29.2198L134.24 24.6358C134.135 24.2029 133.797 23.865 133.364 23.7605L128.78 22.6539C127.569 22.3615 127.569 20.6385 128.78 20.3461L133.364 19.2395C133.797 19.135 134.135 18.7971 134.24 18.3642L135.346 13.7802Z" fill="url(#paint2_linear_336_2121)"/>
<path d="M90.3461 68.7802C90.6385 67.5688 92.3615 67.5688 92.6539 68.7802L92.9826 70.142C93.0871 70.5749 93.4251 70.9129 93.858 71.0174L95.2198 71.3461C96.4312 71.6385 96.4312 73.3615 95.2198 73.6539L93.858 73.9826C93.4251 74.0871 93.0871 74.4251 92.9826 74.858L92.6539 76.2198C92.3615 77.4312 90.6385 77.4312 90.3461 76.2198L90.0174 74.858C89.9129 74.4251 89.5749 74.0871 89.142 73.9826L87.7802 73.6539C86.5688 73.3615 86.5688 71.6385 87.7802 71.3461L89.142 71.0174C89.5749 70.9129 89.9129 70.5749 90.0174 70.142L90.3461 68.7802Z" fill="url(#paint3_linear_336_2121)"/>
<path d="M35.3461 100.78C35.6385 99.5688 37.3615 99.5688 37.6539 100.78L37.9826 102.142C38.0871 102.575 38.4251 102.913 38.858 103.017L40.2198 103.346C41.4312 103.639 41.4312 105.361 40.2198 105.654L38.858 105.983C38.4251 106.087 38.0871 106.425 37.9826 106.858L37.6539 108.22C37.3615 109.431 35.6385 109.431 35.3461 108.22L35.0174 106.858C34.9129 106.425 34.5749 106.087 34.142 105.983L32.7802 105.654C31.5688 105.362 31.5688 103.639 32.7802 103.346L34.142 103.017C34.5749 102.913 34.9129 102.575 35.0174 102.142L35.3461 100.78Z" fill="url(#paint4_linear_336_2121)"/>
<circle cx="52" cy="52" r="3.25809" stroke="url(#paint5_linear_336_2121)" stroke-width="1.48382"/>
<circle cx="184" cy="68" r="3.25809" stroke="url(#paint6_linear_336_2121)" stroke-width="1.48382"/>
<path d="M196 84.5C196 131.168 158.168 169 111.5 169C64.8319 169 27 131.168 27 84.5C27 37.8319 64.8319 0 111.5 0C158.168 0 196 37.8319 196 84.5Z" fill="white" fill-opacity="0.32"/>
<path d="M0.357955 174.818H1.76989L4.59375 179.571H4.71307L7.53693 174.818H8.94886L5.26989 180.804V185H4.03693V180.804L0.357955 174.818ZM12.4066 185.159C11.7172 185.159 11.1123 184.995 10.592 184.667C10.0749 184.339 9.67057 183.88 9.37891 183.29C9.09055 182.7 8.94638 182.01 8.94638 181.222C8.94638 180.426 9.09055 179.732 9.37891 179.138C9.67057 178.545 10.0749 178.085 10.592 177.756C11.1123 177.428 11.7172 177.264 12.4066 177.264C13.096 177.264 13.6992 177.428 14.2163 177.756C14.7366 178.085 15.141 178.545 15.4293 179.138C15.721 179.732 15.8668 180.426 15.8668 181.222C15.8668 182.01 15.721 182.7 15.4293 183.29C15.141 183.88 14.7366 184.339 14.2163 184.667C13.6992 184.995 13.096 185.159 12.4066 185.159ZM12.4066 184.105C12.9303 184.105 13.3612 183.971 13.6992 183.702C14.0373 183.434 14.2875 183.081 14.4499 182.643C14.6123 182.206 14.6935 181.732 14.6935 181.222C14.6935 180.711 14.6123 180.236 14.4499 179.795C14.2875 179.354 14.0373 178.998 13.6992 178.726C13.3612 178.454 12.9303 178.318 12.4066 178.318C11.8829 178.318 11.4521 178.454 11.114 178.726C10.7759 178.998 10.5257 179.354 10.3633 179.795C10.2009 180.236 10.1197 180.711 10.1197 181.222C10.1197 181.732 10.2009 182.206 10.3633 182.643C10.5257 183.081 10.7759 183.434 11.114 183.702C11.4521 183.971 11.8829 184.105 12.4066 184.105ZM22.4703 181.878V177.364H23.6436V185H22.4703V183.707H22.3908C22.2118 184.095 21.9334 184.425 21.5556 184.697C21.1777 184.965 20.7005 185.099 20.1238 185.099C19.6465 185.099 19.2222 184.995 18.851 184.786C18.4798 184.574 18.1882 184.256 17.976 183.832C17.7639 183.404 17.6578 182.866 17.6578 182.216V177.364H18.8311V182.136C18.8311 182.693 18.9869 183.137 19.2985 183.469C19.6133 183.8 20.0144 183.966 20.5016 183.966C20.7933 183.966 21.0899 183.891 21.3915 183.742C21.6964 183.593 21.9516 183.364 22.1571 183.056C22.3659 182.748 22.4703 182.355 22.4703 181.878ZM30.9034 180.406V185H29.7301V174.818H30.9034V178.557H31.0028C31.1818 178.162 31.4503 177.849 31.8082 177.617C32.1695 177.382 32.6501 177.264 33.25 177.264C33.7704 177.264 34.2261 177.369 34.6172 177.577C35.0083 177.783 35.3116 178.099 35.527 178.527C35.7457 178.951 35.8551 179.491 35.8551 180.148V185H34.6818V180.227C34.6818 179.621 34.5244 179.152 34.2095 178.82C33.898 178.486 33.4654 178.318 32.9119 178.318C32.5275 178.318 32.1828 178.399 31.8778 178.562C31.5762 178.724 31.3376 178.961 31.1619 179.273C30.9896 179.584 30.9034 179.962 30.9034 180.406ZM40.2488 185.179C39.7649 185.179 39.3257 185.088 38.9313 184.906C38.5369 184.72 38.2237 184.453 37.9917 184.105C37.7596 183.754 37.6436 183.33 37.6436 182.832C37.6436 182.395 37.7298 182.04 37.9022 181.768C38.0745 181.493 38.3049 181.278 38.5932 181.122C38.8816 180.966 39.1998 180.85 39.5478 180.774C39.8991 180.695 40.2521 180.632 40.6067 180.585C41.0707 180.526 41.4469 180.481 41.7353 180.451C42.0269 180.418 42.2391 180.363 42.3716 180.287C42.5075 180.211 42.5755 180.078 42.5755 179.889V179.849C42.5755 179.359 42.4412 178.978 42.1728 178.706C41.9076 178.434 41.5049 178.298 40.9647 178.298C40.4045 178.298 39.9654 178.421 39.6472 178.666C39.329 178.911 39.1053 179.173 38.976 179.452L37.8624 179.054C38.0613 178.59 38.3264 178.229 38.6578 177.97C38.9926 177.708 39.3572 177.526 39.7516 177.423C40.1493 177.317 40.5404 177.264 40.9249 177.264C41.1702 177.264 41.4519 177.294 41.7701 177.354C42.0916 177.41 42.4015 177.528 42.6998 177.707C43.0014 177.886 43.2516 178.156 43.4505 178.517C43.6493 178.878 43.7488 179.362 43.7488 179.969V185H42.5755V183.966H42.5158C42.4363 184.132 42.3037 184.309 42.1181 184.498C41.9325 184.687 41.6855 184.848 41.3773 184.98C41.0691 185.113 40.6929 185.179 40.2488 185.179ZM40.4277 184.125C40.8917 184.125 41.2828 184.034 41.601 183.852C41.9225 183.669 42.1645 183.434 42.3269 183.146C42.4926 182.857 42.5755 182.554 42.5755 182.236V181.162C42.5257 181.222 42.4164 181.276 42.2473 181.326C42.0816 181.372 41.8894 181.414 41.6706 181.45C41.4552 181.483 41.2447 181.513 41.0392 181.54C40.8371 181.563 40.673 181.583 40.5471 181.599C40.2421 181.639 39.9571 181.704 39.6919 181.793C39.4301 181.879 39.218 182.01 39.0556 182.186C38.8965 182.358 38.8169 182.594 38.8169 182.892C38.8169 183.3 38.9677 183.608 39.2694 183.817C39.5743 184.022 39.9604 184.125 40.4277 184.125ZM51.8612 177.364L49.0373 185H47.8441L45.0202 177.364H46.293L48.4009 183.449H48.4805L50.5884 177.364H51.8612ZM56.3381 185.159C55.6023 185.159 54.9676 184.997 54.4339 184.672C53.9036 184.344 53.4943 183.886 53.206 183.3C52.9209 182.71 52.7784 182.024 52.7784 181.241C52.7784 180.459 52.9209 179.77 53.206 179.173C53.4943 178.573 53.8954 178.106 54.4091 177.771C54.9261 177.433 55.5294 177.264 56.2188 177.264C56.6165 177.264 57.0092 177.33 57.397 177.463C57.7848 177.596 58.1378 177.811 58.456 178.109C58.7741 178.404 59.0277 178.795 59.2166 179.283C59.4055 179.77 59.5 180.37 59.5 181.082V181.58H53.6136V180.565H58.3068C58.3068 180.134 58.2206 179.75 58.0483 179.412C57.8793 179.074 57.6373 178.807 57.3224 178.612C57.0109 178.416 56.643 178.318 56.2188 178.318C55.7514 178.318 55.3471 178.434 55.0057 178.666C54.6676 178.895 54.4074 179.193 54.2251 179.561C54.0429 179.929 53.9517 180.323 53.9517 180.744V181.42C53.9517 181.997 54.0511 182.486 54.25 182.887C54.4522 183.285 54.7322 183.588 55.0902 183.797C55.4482 184.002 55.8641 184.105 56.3381 184.105C56.6463 184.105 56.9247 184.062 57.1733 183.976C57.4252 183.886 57.6423 183.754 57.8246 183.578C58.0069 183.399 58.1477 183.177 58.2472 182.912L59.3807 183.23C59.2614 183.615 59.0608 183.953 58.7791 184.244C58.4974 184.533 58.1494 184.758 57.7351 184.92C57.3208 185.08 56.8551 185.159 56.3381 185.159ZM62.4581 180.406V185H61.2848V177.364H62.4183V178.557H62.5178C62.6967 178.169 62.9685 177.857 63.3331 177.622C63.6977 177.384 64.1683 177.264 64.745 177.264C65.2621 177.264 65.7145 177.37 66.1023 177.582C66.4901 177.791 66.7917 178.109 67.0071 178.537C67.2225 178.961 67.3303 179.498 67.3303 180.148V185H66.157V180.227C66.157 179.627 66.0012 179.16 65.6896 178.825C65.3781 178.487 64.9505 178.318 64.407 178.318C64.0324 178.318 63.6977 178.399 63.4027 178.562C63.111 178.724 62.8807 178.961 62.7116 179.273C62.5426 179.584 62.4581 179.962 62.4581 180.406ZM70.4885 174.818V178.318H69.3947V174.818H70.4885ZM75.8988 177.364V178.358H71.9414V177.364H75.8988ZM73.0948 175.534H74.2681V182.812C74.2681 183.144 74.3162 183.393 74.4123 183.558C74.5117 183.721 74.6377 183.83 74.7901 183.886C74.9459 183.939 75.11 183.966 75.2823 183.966C75.4116 183.966 75.5176 183.959 75.6005 183.946C75.6834 183.929 75.7496 183.916 75.7994 183.906L76.038 184.96C75.9585 184.99 75.8474 185.02 75.7049 185.05C75.5624 185.083 75.3817 185.099 75.163 185.099C74.8316 185.099 74.5067 185.028 74.1886 184.886C73.8737 184.743 73.6119 184.526 73.4031 184.234C73.1976 183.943 73.0948 183.575 73.0948 183.131V175.534ZM81.6012 185V177.364H82.7347V178.517H82.8143C82.9535 178.139 83.2054 177.833 83.57 177.597C83.9345 177.362 84.3455 177.244 84.8029 177.244C84.8891 177.244 84.9968 177.246 85.1261 177.249C85.2553 177.253 85.3531 177.258 85.4194 177.264V178.457C85.3796 178.447 85.2885 178.433 85.146 178.413C85.0067 178.389 84.8593 178.378 84.7035 178.378C84.3323 178.378 84.0008 178.456 83.7092 178.612C83.4208 178.764 83.1921 178.976 83.0231 179.248C82.8574 179.516 82.7745 179.823 82.7745 180.168V185H81.6012ZM89.0574 185.179C88.5734 185.179 88.1343 185.088 87.7399 184.906C87.3455 184.72 87.0323 184.453 86.8002 184.105C86.5682 183.754 86.4522 183.33 86.4522 182.832C86.4522 182.395 86.5384 182.04 86.7108 181.768C86.8831 181.493 87.1135 181.278 87.4018 181.122C87.6902 180.966 88.0083 180.85 88.3564 180.774C88.7077 180.695 89.0607 180.632 89.4153 180.585C89.8793 180.526 90.2555 180.481 90.5439 180.451C90.8355 180.418 91.0476 180.363 91.1802 180.287C91.3161 180.211 91.3841 180.078 91.3841 179.889V179.849C91.3841 179.359 91.2498 178.978 90.9814 178.706C90.7162 178.434 90.3135 178.298 89.7733 178.298C89.2131 178.298 88.774 178.421 88.4558 178.666C88.1376 178.911 87.9139 179.173 87.7846 179.452L86.671 179.054C86.8699 178.59 87.135 178.229 87.4664 177.97C87.8012 177.708 88.1658 177.526 88.5602 177.423C88.9579 177.317 89.349 177.264 89.7335 177.264C89.9788 177.264 90.2605 177.294 90.5787 177.354C90.9002 177.41 91.21 177.528 91.5083 177.707C91.81 177.886 92.0602 178.156 92.2591 178.517C92.4579 178.878 92.5574 179.362 92.5574 179.969V185H91.3841V183.966H91.3244C91.2449 184.132 91.1123 184.309 90.9267 184.498C90.7411 184.687 90.4941 184.848 90.1859 184.98C89.8777 185.113 89.5015 185.179 89.0574 185.179ZM89.2363 184.125C89.7003 184.125 90.0914 184.034 90.4096 183.852C90.7311 183.669 90.9731 183.434 91.1355 183.146C91.3012 182.857 91.3841 182.554 91.3841 182.236V181.162C91.3343 181.222 91.225 181.276 91.0559 181.326C90.8902 181.372 90.698 181.414 90.4792 181.45C90.2638 181.483 90.0533 181.513 89.8478 181.54C89.6457 181.563 89.4816 181.583 89.3556 181.599C89.0507 181.639 88.7657 181.704 88.5005 181.793C88.2387 181.879 88.0266 182.01 87.8642 182.186C87.7051 182.358 87.6255 182.594 87.6255 182.892C87.6255 183.3 87.7763 183.608 88.0779 183.817C88.3829 184.022 88.769 184.125 89.2363 184.125ZM94.6989 185V177.364H95.8722V185H94.6989ZM95.2955 176.091C95.0668 176.091 94.8696 176.013 94.7038 175.857C94.5414 175.701 94.4602 175.514 94.4602 175.295C94.4602 175.077 94.5414 174.889 94.7038 174.734C94.8696 174.578 95.0668 174.5 95.2955 174.5C95.5241 174.5 95.7197 174.578 95.8821 174.734C96.0478 174.889 96.1307 175.077 96.1307 175.295C96.1307 175.514 96.0478 175.701 95.8821 175.857C95.7197 176.013 95.5241 176.091 95.2955 176.091ZM103.43 179.074L102.376 179.372C102.31 179.196 102.212 179.026 102.083 178.86C101.957 178.691 101.785 178.552 101.566 178.442C101.347 178.333 101.067 178.278 100.726 178.278C100.258 178.278 99.8689 178.386 99.5574 178.602C99.2491 178.814 99.095 179.084 99.095 179.412C99.095 179.704 99.2011 179.934 99.4132 180.103C99.6253 180.272 99.9567 180.413 100.407 180.526L101.541 180.804C102.224 180.97 102.733 181.223 103.067 181.565C103.402 181.903 103.569 182.339 103.569 182.872C103.569 183.31 103.443 183.701 103.192 184.045C102.943 184.39 102.595 184.662 102.148 184.861C101.7 185.06 101.18 185.159 100.586 185.159C99.8076 185.159 99.1629 184.99 98.6525 184.652C98.1421 184.314 97.819 183.82 97.6831 183.17L98.7967 182.892C98.9028 183.303 99.1033 183.611 99.3983 183.817C99.6966 184.022 100.086 184.125 100.567 184.125C101.113 184.125 101.548 184.009 101.869 183.777C102.194 183.542 102.356 183.26 102.356 182.932C102.356 182.667 102.264 182.445 102.078 182.266C101.892 182.083 101.607 181.947 101.223 181.858L99.9501 181.56C99.2508 181.394 98.737 181.137 98.4089 180.789C98.0841 180.438 97.9217 179.999 97.9217 179.472C97.9217 179.041 98.0427 178.66 98.2846 178.328C98.5299 177.997 98.863 177.737 99.2839 177.548C99.7082 177.359 100.189 177.264 100.726 177.264C101.481 177.264 102.075 177.43 102.506 177.761C102.94 178.093 103.248 178.53 103.43 179.074ZM108.537 185.159C107.801 185.159 107.167 184.997 106.633 184.672C106.103 184.344 105.694 183.886 105.405 183.3C105.12 182.71 104.978 182.024 104.978 181.241C104.978 180.459 105.12 179.77 105.405 179.173C105.694 178.573 106.095 178.106 106.608 177.771C107.125 177.433 107.729 177.264 108.418 177.264C108.816 177.264 109.208 177.33 109.596 177.463C109.984 177.596 110.337 177.811 110.655 178.109C110.973 178.404 111.227 178.795 111.416 179.283C111.605 179.77 111.699 180.37 111.699 181.082V181.58H105.813V180.565H110.506C110.506 180.134 110.42 179.75 110.248 179.412C110.078 179.074 109.837 178.807 109.522 178.612C109.21 178.416 108.842 178.318 108.418 178.318C107.951 178.318 107.546 178.434 107.205 178.666C106.867 178.895 106.607 179.193 106.424 179.561C106.242 179.929 106.151 180.323 106.151 180.744V181.42C106.151 181.997 106.25 182.486 106.449 182.887C106.651 183.285 106.931 183.588 107.289 183.797C107.647 184.002 108.063 184.105 108.537 184.105C108.846 184.105 109.124 184.062 109.373 183.976C109.624 183.886 109.842 183.754 110.024 183.578C110.206 183.399 110.347 183.177 110.446 182.912L111.58 183.23C111.461 183.615 111.26 183.953 110.978 184.244C110.697 184.533 110.349 184.758 109.934 184.92C109.52 185.08 109.054 185.159 108.537 185.159ZM116.368 185.159C115.731 185.159 115.169 184.998 114.682 184.677C114.195 184.352 113.814 183.895 113.539 183.305C113.264 182.711 113.126 182.01 113.126 181.202C113.126 180.4 113.264 179.704 113.539 179.114C113.814 178.524 114.197 178.068 114.687 177.746C115.178 177.425 115.744 177.264 116.387 177.264C116.885 177.264 117.277 177.347 117.566 177.513C117.857 177.675 118.079 177.861 118.232 178.07C118.388 178.275 118.509 178.444 118.595 178.577H118.694V174.818H119.868V185H118.734V183.827H118.595C118.509 183.966 118.386 184.142 118.227 184.354C118.068 184.562 117.841 184.75 117.546 184.915C117.251 185.078 116.858 185.159 116.368 185.159ZM116.527 184.105C116.997 184.105 117.395 183.982 117.72 183.737C118.045 183.489 118.292 183.146 118.461 182.708C118.63 182.267 118.714 181.759 118.714 181.182C118.714 180.612 118.631 180.113 118.466 179.685C118.3 179.254 118.055 178.92 117.73 178.681C117.405 178.439 117.004 178.318 116.527 178.318C116.029 178.318 115.615 178.446 115.284 178.701C114.956 178.953 114.709 179.296 114.543 179.73C114.381 180.161 114.299 180.645 114.299 181.182C114.299 181.725 114.382 182.219 114.548 182.663C114.717 183.104 114.966 183.455 115.294 183.717C115.625 183.976 116.036 184.105 116.527 184.105ZM128.364 185.179C127.88 185.179 127.441 185.088 127.047 184.906C126.652 184.72 126.339 184.453 126.107 184.105C125.875 183.754 125.759 183.33 125.759 182.832C125.759 182.395 125.845 182.04 126.017 181.768C126.19 181.493 126.42 181.278 126.708 181.122C126.997 180.966 127.315 180.85 127.663 180.774C128.014 180.695 128.367 180.632 128.722 180.585C129.186 180.526 129.562 180.481 129.85 180.451C130.142 180.418 130.354 180.363 130.487 180.287C130.623 180.211 130.691 180.078 130.691 179.889V179.849C130.691 179.359 130.556 178.978 130.288 178.706C130.023 178.434 129.62 178.298 129.08 178.298C128.52 178.298 128.081 178.421 127.762 178.666C127.444 178.911 127.221 179.173 127.091 179.452L125.978 179.054C126.176 178.59 126.442 178.229 126.773 177.97C127.108 177.708 127.472 177.526 127.867 177.423C128.265 177.317 128.656 177.264 129.04 177.264C129.285 177.264 129.567 177.294 129.885 177.354C130.207 177.41 130.517 177.528 130.815 177.707C131.117 177.886 131.367 178.156 131.566 178.517C131.765 178.878 131.864 179.362 131.864 179.969V185H130.691V183.966H130.631C130.551 184.132 130.419 184.309 130.233 184.498C130.048 184.687 129.801 184.848 129.493 184.98C129.184 185.113 128.808 185.179 128.364 185.179ZM128.543 184.125C129.007 184.125 129.398 184.034 129.716 183.852C130.038 183.669 130.28 183.434 130.442 183.146C130.608 182.857 130.691 182.554 130.691 182.236V181.162C130.641 181.222 130.532 181.276 130.363 181.326C130.197 181.372 130.005 181.414 129.786 181.45C129.57 181.483 129.36 181.513 129.154 181.54C128.952 181.563 128.788 181.583 128.662 181.599C128.357 181.639 128.072 181.704 127.807 181.793C127.545 181.879 127.333 182.01 127.171 182.186C127.012 182.358 126.932 182.594 126.932 182.892C126.932 183.3 127.083 183.608 127.385 183.817C127.69 184.022 128.076 184.125 128.543 184.125ZM135.179 180.406V185H134.006V177.364H135.139V178.557H135.238C135.417 178.169 135.689 177.857 136.054 177.622C136.418 177.384 136.889 177.264 137.466 177.264C137.983 177.264 138.435 177.37 138.823 177.582C139.211 177.791 139.512 178.109 139.728 178.537C139.943 178.961 140.051 179.498 140.051 180.148V185H138.878V180.227C138.878 179.627 138.722 179.16 138.41 178.825C138.099 178.487 137.671 178.318 137.128 178.318C136.753 178.318 136.418 178.399 136.123 178.562C135.832 178.724 135.601 178.961 135.432 179.273C135.263 179.584 135.179 179.962 135.179 180.406ZM142.677 187.864C142.478 187.864 142.301 187.847 142.145 187.814C141.989 187.784 141.882 187.754 141.822 187.724L142.12 186.69C142.405 186.763 142.657 186.79 142.876 186.77C143.095 186.75 143.289 186.652 143.458 186.477C143.63 186.304 143.788 186.024 143.93 185.636L144.149 185.04L141.325 177.364H142.598L144.706 183.449H144.785L146.893 177.364H148.166L144.924 186.114C144.779 186.508 144.598 186.835 144.382 187.093C144.167 187.355 143.917 187.549 143.632 187.675C143.35 187.801 143.032 187.864 142.677 187.864ZM156.973 177.364V178.358H153.016V177.364H156.973ZM154.169 175.534H155.342V182.812C155.342 183.144 155.39 183.393 155.487 183.558C155.586 183.721 155.712 183.83 155.864 183.886C156.02 183.939 156.184 183.966 156.357 183.966C156.486 183.966 156.592 183.959 156.675 183.946C156.758 183.929 156.824 183.916 156.874 183.906L157.112 184.96C157.033 184.99 156.922 185.02 156.779 185.05C156.637 185.083 156.456 185.099 156.237 185.099C155.906 185.099 155.581 185.028 155.263 184.886C154.948 184.743 154.686 184.526 154.477 184.234C154.272 183.943 154.169 183.575 154.169 183.131V175.534ZM158.738 185V177.364H159.911V185H158.738ZM159.335 176.091C159.106 176.091 158.909 176.013 158.743 175.857C158.58 175.701 158.499 175.514 158.499 175.295C158.499 175.077 158.58 174.889 158.743 174.734C158.909 174.578 159.106 174.5 159.335 174.5C159.563 174.5 159.759 174.578 159.921 174.734C160.087 174.889 160.17 175.077 160.17 175.295C160.17 175.514 160.087 175.701 159.921 175.857C159.759 176.013 159.563 176.091 159.335 176.091ZM165.162 185.159C164.447 185.159 163.83 184.99 163.313 184.652C162.796 184.314 162.398 183.848 162.12 183.255C161.841 182.662 161.702 181.984 161.702 181.222C161.702 180.446 161.845 179.762 162.13 179.168C162.418 178.572 162.819 178.106 163.333 177.771C163.85 177.433 164.453 177.264 165.143 177.264C165.68 177.264 166.163 177.364 166.594 177.562C167.025 177.761 167.378 178.04 167.653 178.398C167.928 178.756 168.099 179.173 168.165 179.651H166.992C166.903 179.303 166.704 178.994 166.395 178.726C166.09 178.454 165.68 178.318 165.162 178.318C164.705 178.318 164.304 178.437 163.959 178.676C163.618 178.911 163.351 179.245 163.159 179.675C162.97 180.103 162.876 180.605 162.876 181.182C162.876 181.772 162.968 182.286 163.154 182.723C163.343 183.161 163.608 183.5 163.949 183.742C164.294 183.984 164.698 184.105 165.162 184.105C165.467 184.105 165.744 184.052 165.993 183.946C166.241 183.84 166.452 183.688 166.624 183.489C166.796 183.29 166.919 183.051 166.992 182.773H168.165C168.099 183.223 167.935 183.629 167.673 183.991C167.415 184.349 167.072 184.634 166.644 184.846C166.22 185.055 165.726 185.159 165.162 185.159ZM170.974 182.216L170.954 180.764H171.193L174.534 177.364H175.986L172.426 180.963H172.327L170.974 182.216ZM169.881 185V174.818H171.054V185H169.881ZM174.733 185L171.75 181.222L172.585 180.406L176.224 185H174.733ZM180.383 185.159C179.647 185.159 179.012 184.997 178.479 184.672C177.949 184.344 177.539 183.886 177.251 183.3C176.966 182.71 176.823 182.024 176.823 181.241C176.823 180.459 176.966 179.77 177.251 179.173C177.539 178.573 177.94 178.106 178.454 177.771C178.971 177.433 179.574 177.264 180.264 177.264C180.661 177.264 181.054 177.33 181.442 177.463C181.83 177.596 182.183 177.811 182.501 178.109C182.819 178.404 183.073 178.795 183.262 179.283C183.45 179.77 183.545 180.37 183.545 181.082V181.58H177.659V180.565H182.352C182.352 180.134 182.266 179.75 182.093 179.412C181.924 179.074 181.682 178.807 181.367 178.612C181.056 178.416 180.688 178.318 180.264 178.318C179.796 178.318 179.392 178.434 179.051 178.666C178.713 178.895 178.452 179.193 178.27 179.561C178.088 179.929 177.997 180.323 177.997 180.744V181.42C177.997 181.997 178.096 182.486 178.295 182.887C178.497 183.285 178.777 183.588 179.135 183.797C179.493 184.002 179.909 184.105 180.383 184.105C180.691 184.105 180.97 184.062 181.218 183.976C181.47 183.886 181.687 183.754 181.869 183.578C182.052 183.399 182.193 183.177 182.292 182.912L183.426 183.23C183.306 183.615 183.106 183.953 182.824 184.244C182.542 184.533 182.194 184.758 181.78 184.92C181.366 185.08 180.9 185.159 180.383 185.159ZM188.651 177.364V178.358H184.693V177.364H188.651ZM185.847 175.534H187.02V182.812C187.02 183.144 187.068 183.393 187.164 183.558C187.264 183.721 187.39 183.83 187.542 183.886C187.698 183.939 187.862 183.966 188.034 183.966C188.164 183.966 188.27 183.959 188.352 183.946C188.435 183.929 188.502 183.916 188.551 183.906L188.79 184.96C188.71 184.99 188.599 185.02 188.457 185.05C188.314 185.083 188.134 185.099 187.915 185.099C187.584 185.099 187.259 185.028 186.941 184.886C186.626 184.743 186.364 184.526 186.155 184.234C185.95 183.943 185.847 183.575 185.847 183.131V175.534ZM195.688 179.074L194.634 179.372C194.568 179.196 194.47 179.026 194.341 178.86C194.215 178.691 194.042 178.552 193.824 178.442C193.605 178.333 193.325 178.278 192.983 178.278C192.516 178.278 192.127 178.386 191.815 178.602C191.507 178.814 191.353 179.084 191.353 179.412C191.353 179.704 191.459 179.934 191.671 180.103C191.883 180.272 192.215 180.413 192.665 180.526L193.799 180.804C194.482 180.97 194.99 181.223 195.325 181.565C195.66 181.903 195.827 182.339 195.827 182.872C195.827 183.31 195.701 183.701 195.449 184.045C195.201 184.39 194.853 184.662 194.405 184.861C193.958 185.06 193.438 185.159 192.844 185.159C192.065 185.159 191.421 184.99 190.91 184.652C190.4 184.314 190.077 183.82 189.941 183.17L191.055 182.892C191.161 183.303 191.361 183.611 191.656 183.817C191.954 184.022 192.344 184.125 192.824 184.125C193.371 184.125 193.805 184.009 194.127 183.777C194.452 183.542 194.614 183.26 194.614 182.932C194.614 182.667 194.521 182.445 194.336 182.266C194.15 182.083 193.865 181.947 193.481 181.858L192.208 181.56C191.509 181.394 190.995 181.137 190.667 180.789C190.342 180.438 190.18 179.999 190.18 179.472C190.18 179.041 190.3 178.66 190.542 178.328C190.788 177.997 191.121 177.737 191.542 177.548C191.966 177.359 192.447 177.264 192.983 177.264C193.739 177.264 194.332 177.43 194.763 177.761C195.198 178.093 195.506 178.53 195.688 179.074ZM202.287 187.864C202.088 187.864 201.91 187.847 201.755 187.814C201.599 187.784 201.491 187.754 201.431 187.724L201.73 186.69C202.015 186.763 202.267 186.79 202.485 186.77C202.704 186.75 202.898 186.652 203.067 186.477C203.239 186.304 203.397 186.024 203.539 185.636L203.758 185.04L200.934 177.364H202.207L204.315 183.449H204.395L206.502 177.364H207.775L204.534 186.114C204.388 186.508 204.207 186.835 203.992 187.093C203.776 187.355 203.526 187.549 203.241 187.675C202.959 187.801 202.641 187.864 202.287 187.864ZM212.252 185.159C211.516 185.159 210.882 184.997 210.348 184.672C209.818 184.344 209.408 183.886 209.12 183.3C208.835 182.71 208.692 182.024 208.692 181.241C208.692 180.459 208.835 179.77 209.12 179.173C209.408 178.573 209.809 178.106 210.323 177.771C210.84 177.433 211.443 177.264 212.133 177.264C212.531 177.264 212.923 177.33 213.311 177.463C213.699 177.596 214.052 177.811 214.37 178.109C214.688 178.404 214.942 178.795 215.131 179.283C215.32 179.77 215.414 180.37 215.414 181.082V181.58H209.528V180.565H214.221C214.221 180.134 214.135 179.75 213.962 179.412C213.793 179.074 213.551 178.807 213.237 178.612C212.925 178.416 212.557 178.318 212.133 178.318C211.665 178.318 211.261 178.434 210.92 178.666C210.582 178.895 210.321 179.193 210.139 179.561C209.957 179.929 209.866 180.323 209.866 180.744V181.42C209.866 181.997 209.965 182.486 210.164 182.887C210.366 183.285 210.646 183.588 211.004 183.797C211.362 184.002 211.778 184.105 212.252 184.105C212.56 184.105 212.839 184.062 213.087 183.976C213.339 183.886 213.556 183.754 213.739 183.578C213.921 183.399 214.062 183.177 214.161 182.912L215.295 183.23C215.175 183.615 214.975 183.953 214.693 184.244C214.411 184.533 214.063 184.758 213.649 184.92C213.235 185.08 212.769 185.159 212.252 185.159ZM220.52 177.364V178.358H216.562V177.364H220.52ZM217.716 175.534H218.889V182.812C218.889 183.144 218.937 183.393 219.033 183.558C219.133 183.721 219.259 183.83 219.411 183.886C219.567 183.939 219.731 183.966 219.903 183.966C220.033 183.966 220.139 183.959 220.222 183.946C220.304 183.929 220.371 183.916 220.42 183.906L220.659 184.96C220.58 184.99 220.469 185.02 220.326 185.05C220.183 185.083 220.003 185.099 219.784 185.099C219.453 185.099 219.128 185.028 218.81 184.886C218.495 184.743 218.233 184.526 218.024 184.234C217.819 183.943 217.716 183.575 217.716 183.131V175.534Z" fill="#4B4B4B"/>
<defs>
<linearGradient id="paint0_linear_336_2121" x1="112" y1="17" x2="112" y2="167" gradientUnits="userSpaceOnUse">
<stop stop-color="#CDD8F8"/>
<stop offset="1" stop-color="#DAE7FF"/>
</linearGradient>
<linearGradient id="paint1_linear_336_2121" x1="174.5" y1="90" x2="174.5" y2="115" gradientUnits="userSpaceOnUse">
<stop stop-color="#70A8FF"/>
<stop offset="1" stop-color="#5597FD"/>
</linearGradient>
<linearGradient id="paint2_linear_336_2121" x1="136.5" y1="9" x2="136.5" y2="34" gradientUnits="userSpaceOnUse">
<stop stop-color="#70A8FF"/>
<stop offset="1" stop-color="#5597FD"/>
</linearGradient>
<linearGradient id="paint3_linear_336_2121" x1="91.5" y1="64" x2="91.5" y2="81" gradientUnits="userSpaceOnUse">
<stop stop-color="#70A8FF"/>
<stop offset="1" stop-color="#5597FD"/>
</linearGradient>
<linearGradient id="paint4_linear_336_2121" x1="36.5" y1="96" x2="36.5" y2="113" gradientUnits="userSpaceOnUse">
<stop stop-color="#70A8FF"/>
<stop offset="1" stop-color="#5597FD"/>
</linearGradient>
<linearGradient id="paint5_linear_336_2121" x1="47.0833" y1="49.5" x2="59.5833" y2="60.3333" gradientUnits="userSpaceOnUse">
<stop stop-color="#94BFFF"/>
<stop offset="1" stop-color="#4C94FE"/>
</linearGradient>
<linearGradient id="paint6_linear_336_2121" x1="179.083" y1="65.5" x2="191.583" y2="76.3333" gradientUnits="userSpaceOnUse">
<stop stop-color="#94BFFF"/>
<stop offset="1" stop-color="#4C94FE"/>
</linearGradient>
</defs>
</svg>
