<svg width="18" height="18" viewBox="0 0 18 18" fill="none" xmlns="http://www.w3.org/2000/svg">
<path d="M3.111 6.77112L7.87518 11.5353C8.04791 11.708 8.27466 11.7943 8.50142 11.7943C8.72818 11.7943 8.95511 11.708 9.12766 11.5353L13.8918 6.77112C14.2371 6.42585 14.2371 5.86374 13.8918 5.51847L9.12783 0.754647C8.9606 0.587414 8.7381 0.495117 8.50142 0.495117C8.26474 0.495117 8.04242 0.587414 7.87518 0.754647L3.111 5.51847C2.76573 5.86374 2.76573 6.42585 3.111 6.77112Z" fill="#292B5D"/>
<path d="M16.7401 9.63965C17.0908 9.28871 17.0908 8.71739 16.7401 8.36627L15.7831 7.40929C15.613 7.23922 15.387 7.14551 15.1464 7.14551C14.9058 7.14551 14.6798 7.23922 14.5097 7.40929L8.6371 13.2814C8.56482 13.3537 8.43834 13.3537 8.36588 13.2814L2.49361 7.40929C2.32354 7.23922 2.09749 7.14551 1.85692 7.14551C1.61635 7.14551 1.3903 7.23922 1.22023 7.40929L0.263072 8.36627C-0.0876908 8.71721 -0.0876908 9.28853 0.263072 9.63965L7.86471 17.2413C8.03478 17.4114 8.26083 17.5051 8.5014 17.5051C8.74198 17.5051 8.96802 17.4114 9.13809 17.2413L16.7401 9.63965Z" fill="#292B5D"/>
</svg>
