<svg width="13" height="12" viewBox="0 0 13 12" fill="none" xmlns="http://www.w3.org/2000/svg">
<path d="M5.7805 7.66145C5.86428 7.60111 5.96249 7.56395 6.06523 7.55371V8.20525C5.96127 8.18239 5.86224 8.14113 5.77281 8.0834C5.74081 8.06079 5.715 8.0305 5.69774 7.99532C5.68049 7.96014 5.67234 7.92119 5.67405 7.88204C5.67323 7.8395 5.68244 7.79736 5.70093 7.75903C5.71943 7.72071 5.74668 7.68728 5.7805 7.66145Z" fill="#292B5D"/>
<path d="M6.66274 8.82746C6.66274 9.03267 6.52294 9.14425 6.24463 9.16477V8.52734C6.35365 8.55403 6.45882 8.59455 6.55757 8.6479C6.5898 8.66541 6.61663 8.69139 6.63517 8.72303C6.6537 8.75468 6.66324 8.79079 6.66274 8.82746Z" fill="#292B5D"/>
<path d="M6.15631 6.52588C5.79357 6.52588 5.43898 6.63344 5.13737 6.83497C4.83576 7.0365 4.60069 7.32294 4.46187 7.65806C4.32306 7.99319 4.28674 8.36196 4.35751 8.71773C4.42827 9.0735 4.60295 9.40029 4.85945 9.65679C5.11594 9.91328 5.44274 10.088 5.79851 10.1587C6.15428 10.2295 6.52304 10.1932 6.85817 10.0544C7.1933 9.91554 7.47973 9.68047 7.68126 9.37886C7.88279 9.07726 7.99035 8.72266 7.99035 8.35992C7.98981 7.87367 7.79641 7.40749 7.45257 7.06366C7.10874 6.71983 6.64256 6.52642 6.15631 6.52588ZM6.84504 9.12945C6.78502 9.21756 6.7021 9.28763 6.6052 9.33209C6.49203 9.38473 6.36953 9.41438 6.24481 9.41931V9.62965C6.24519 9.64142 6.24323 9.65314 6.23905 9.66415C6.23486 9.67516 6.22854 9.68523 6.22044 9.69377C6.20219 9.70918 6.17914 9.71773 6.15526 9.71797C6.13138 9.7182 6.10816 9.7101 6.08962 9.69506C6.08131 9.68639 6.07486 9.67612 6.07067 9.66487C6.06648 9.65362 6.06463 9.64163 6.06525 9.62965V9.41931C5.85925 9.407 5.65678 9.36018 5.4663 9.28079C5.4426 9.27016 5.42221 9.25332 5.4073 9.23206C5.39241 9.21057 5.38437 9.18509 5.38422 9.15895C5.38398 9.12672 5.39588 9.09559 5.41756 9.07174C5.42867 9.05975 5.44218 9.05025 5.4572 9.04384C5.47223 9.03743 5.48844 9.03426 5.50478 9.03454C5.52419 9.0344 5.54341 9.03833 5.56121 9.04609C5.7203 9.11698 5.89126 9.15743 6.06525 9.16536V8.48433C5.94914 8.45471 5.83551 8.41612 5.72537 8.3689C5.63595 8.32946 5.55756 8.26868 5.49708 8.19191C5.4333 8.10958 5.4006 8.0074 5.40474 7.90334C5.40379 7.80374 5.42995 7.70576 5.48041 7.61989C5.53442 7.52881 5.61194 7.45394 5.70485 7.40314C5.81608 7.34311 5.93908 7.30809 6.06525 7.30054V7.09277C6.06447 7.06861 6.07323 7.04512 6.08962 7.02736C6.09785 7.01874 6.10783 7.01199 6.1189 7.00756C6.12996 7.00314 6.14184 7.00114 6.15374 7.0017C6.16583 7.00126 6.17787 7.0033 6.18912 7.00772C6.20038 7.01213 6.2106 7.01882 6.21916 7.02736C6.23591 7.04498 6.24511 7.06845 6.24481 7.09277V7.29669C6.42085 7.3018 6.59492 7.33514 6.76039 7.39545C6.78564 7.40269 6.80766 7.41834 6.82282 7.43979C6.83797 7.46124 6.84536 7.48722 6.84376 7.51344C6.84358 7.54521 6.8317 7.5758 6.81041 7.59937C6.79998 7.61193 6.78681 7.62193 6.77192 7.6286C6.75702 7.63527 6.74079 7.63843 6.72448 7.63785C6.70812 7.6367 6.69208 7.6328 6.67702 7.62631C6.53782 7.57783 6.39212 7.55059 6.24481 7.54551V8.25091C6.36563 8.27732 6.48404 8.31378 6.59879 8.35992C6.69073 8.39816 6.77179 8.45852 6.83478 8.53563C6.90092 8.62467 6.93402 8.73395 6.9284 8.84473C6.92939 8.94579 6.90038 9.04488 6.84504 9.12945Z" fill="#292B5D"/>
<path d="M2.46377 7.93134C2.37912 7.93121 2.29634 7.95621 2.2259 8.00316C2.15546 8.05011 2.10054 8.1169 2.06809 8.19509C2.03563 8.27327 2.02711 8.35932 2.04359 8.44236C2.06008 8.52539 2.10083 8.60166 2.16068 8.66152C2.22054 8.72138 2.29681 8.76213 2.37984 8.77861C2.46288 8.79509 2.54893 8.78657 2.62711 8.75411C2.7053 8.72166 2.77209 8.66674 2.81904 8.5963C2.866 8.52586 2.89099 8.44308 2.89086 8.35843C2.89063 8.24523 2.84555 8.13673 2.76551 8.05669C2.68547 7.97665 2.57697 7.93158 2.46377 7.93134ZM2.46377 7.93134C2.37912 7.93121 2.29634 7.95621 2.2259 8.00316C2.15546 8.05011 2.10054 8.1169 2.06809 8.19509C2.03563 8.27327 2.02711 8.35932 2.04359 8.44236C2.06008 8.52539 2.10083 8.60166 2.16068 8.66152C2.22054 8.72138 2.29681 8.76213 2.37984 8.77861C2.46288 8.79509 2.54893 8.78657 2.62711 8.75411C2.7053 8.72166 2.77209 8.66674 2.81904 8.5963C2.866 8.52586 2.89099 8.44308 2.89086 8.35843C2.89063 8.24523 2.84555 8.13673 2.76551 8.05669C2.68547 7.97665 2.57697 7.93158 2.46377 7.93134ZM2.46377 7.93134C2.37912 7.93121 2.29634 7.95621 2.2259 8.00316C2.15546 8.05011 2.10054 8.1169 2.06809 8.19509C2.03563 8.27327 2.02711 8.35932 2.04359 8.44236C2.06008 8.52539 2.10083 8.60166 2.16068 8.66152C2.22054 8.72138 2.29681 8.76213 2.37984 8.77861C2.46288 8.79509 2.54893 8.78657 2.62711 8.75411C2.7053 8.72166 2.77209 8.66674 2.81904 8.5963C2.866 8.52586 2.89099 8.44308 2.89086 8.35843C2.89063 8.24523 2.84555 8.13673 2.76551 8.05669C2.68547 7.97665 2.57697 7.93158 2.46377 7.93134ZM9.85125 7.93134C9.7666 7.93121 9.68381 7.95621 9.61337 8.00316C9.54294 8.05011 9.48802 8.1169 9.45556 8.19509C9.42311 8.27327 9.41458 8.35932 9.43107 8.44236C9.44755 8.52539 9.4883 8.60166 9.54816 8.66152C9.60802 8.72138 9.68429 8.76213 9.76732 8.77861C9.85035 8.79509 9.93641 8.78657 10.0146 8.75411C10.0928 8.72166 10.1596 8.66674 10.2065 8.5963C10.2535 8.52586 10.2785 8.44308 10.2783 8.35843C10.2779 8.2453 10.2327 8.13694 10.1527 8.05695C10.0727 7.97696 9.96438 7.93181 9.85125 7.93134ZM9.85125 7.93134C9.7666 7.93121 9.68381 7.95621 9.61337 8.00316C9.54294 8.05011 9.48802 8.1169 9.45556 8.19509C9.42311 8.27327 9.41458 8.35932 9.43107 8.44236C9.44755 8.52539 9.4883 8.60166 9.54816 8.66152C9.60802 8.72138 9.68429 8.76213 9.76732 8.77861C9.85035 8.79509 9.93641 8.78657 10.0146 8.75411C10.0928 8.72166 10.1596 8.66674 10.2065 8.5963C10.2535 8.52586 10.2785 8.44308 10.2783 8.35843C10.2779 8.2453 10.2327 8.13694 10.1527 8.05695C10.0727 7.97696 9.96438 7.93181 9.85125 7.93134ZM2.46377 7.93134C2.37912 7.93121 2.29634 7.95621 2.2259 8.00316C2.15546 8.05011 2.10054 8.1169 2.06809 8.19509C2.03563 8.27327 2.02711 8.35932 2.04359 8.44236C2.06008 8.52539 2.10083 8.60166 2.16068 8.66152C2.22054 8.72138 2.29681 8.76213 2.37984 8.77861C2.46288 8.79509 2.54893 8.78657 2.62711 8.75411C2.7053 8.72166 2.77209 8.66674 2.81904 8.5963C2.866 8.52586 2.89099 8.44308 2.89086 8.35843C2.89063 8.24523 2.84555 8.13673 2.76551 8.05669C2.68547 7.97665 2.57697 7.93158 2.46377 7.93134ZM10.0103 5.86002H2.30346C2.27298 6.1884 2.12857 6.49576 1.89526 6.72883C1.66195 6.96191 1.35444 7.10601 1.02604 7.13616V9.58326C1.35444 9.61341 1.66195 9.75751 1.89526 9.99058C2.12857 10.2237 2.27298 10.531 2.30346 10.8594H10.0103C10.0404 10.5311 10.1845 10.2237 10.4176 9.99058C10.6507 9.75747 10.9581 9.61335 11.2864 9.58326V7.13616C10.9581 7.10607 10.6507 6.96195 10.4176 6.72883C10.1845 6.49572 10.0404 6.18832 10.0103 5.86002ZM2.46377 9.04331C2.32844 9.04343 2.19612 9.00343 2.08352 8.92835C1.97093 8.85327 1.88313 8.74649 1.83122 8.62151C1.77932 8.49653 1.76564 8.35896 1.79192 8.22621C1.81819 8.09345 1.88325 7.97147 1.97885 7.87569C2.07445 7.77991 2.19631 7.71463 2.32902 7.6881C2.46172 7.66158 2.59931 7.675 2.72439 7.72667C2.84946 7.77834 2.95641 7.86594 3.0317 7.97839C3.10699 8.09084 3.14725 8.2231 3.14737 8.35843C3.14741 8.53986 3.07544 8.71388 2.94727 8.84229C2.8191 8.9707 2.6452 9.043 2.46377 9.04331ZM6.15623 10.4509C5.74276 10.4509 5.33857 10.3283 4.99478 10.0986C4.65099 9.86887 4.38304 9.54237 4.22481 9.16037C4.06658 8.77837 4.02518 8.35803 4.10585 7.9525C4.18651 7.54698 4.38562 7.17448 4.67799 6.88211C4.97035 6.58974 5.34286 6.39063 5.74838 6.30997C6.15391 6.2293 6.57425 6.2707 6.95625 6.42893C7.33825 6.58716 7.66475 6.85511 7.89446 7.1989C8.12417 7.54269 8.24678 7.94688 8.24678 8.36035C8.24624 8.91463 8.02581 9.44606 7.63387 9.83799C7.24194 10.2299 6.71051 10.4504 6.15623 10.4509ZM9.85125 9.04395C9.71592 9.04408 9.58359 9.00407 9.471 8.92899C9.35841 8.85391 9.27061 8.74713 9.2187 8.62215C9.16679 8.49717 9.15312 8.3596 9.17939 8.22685C9.20567 8.0941 9.27072 7.97211 9.36633 7.87633C9.46193 7.78055 9.58379 7.71527 9.71649 7.68874C9.8492 7.66222 9.98679 7.67564 10.1119 7.72731C10.2369 7.77898 10.3439 7.86658 10.4192 7.97903C10.4945 8.09149 10.5347 8.22374 10.5348 8.35907C10.5347 8.54039 10.4627 8.71425 10.3345 8.84252C10.2064 8.97079 10.0326 9.043 9.85125 9.04331V9.04395ZM9.85125 7.93198C9.7666 7.93185 9.68381 7.95685 9.61337 8.0038C9.54294 8.05075 9.48802 8.11754 9.45556 8.19573C9.42311 8.27391 9.41458 8.35997 9.43107 8.443C9.44755 8.52603 9.4883 8.6023 9.54816 8.66216C9.60802 8.72202 9.68429 8.76277 9.76732 8.77925C9.85035 8.79573 9.93641 8.78721 10.0146 8.75476C10.0928 8.7223 10.1596 8.66738 10.2065 8.59694C10.2535 8.5265 10.2785 8.44372 10.2783 8.35907C10.278 8.24583 10.233 8.13731 10.153 8.05718C10.0729 7.97705 9.96449 7.93181 9.85125 7.93134V7.93198ZM2.46377 7.93198C2.37912 7.93185 2.29634 7.95685 2.2259 8.0038C2.15546 8.05075 2.10054 8.11754 2.06809 8.19573C2.03563 8.27391 2.02711 8.35997 2.04359 8.443C2.06008 8.52603 2.10083 8.6023 2.16068 8.66216C2.22054 8.72202 2.29681 8.76277 2.37984 8.77925C2.46288 8.79573 2.54893 8.78721 2.62711 8.75476C2.7053 8.7223 2.77209 8.66738 2.81904 8.59694C2.866 8.5265 2.89099 8.44372 2.89086 8.35907C2.8908 8.24576 2.8458 8.1371 2.76574 8.05692C2.68567 7.97674 2.57708 7.93158 2.46377 7.93134V7.93198ZM10.0103 5.86066H2.30346C2.27284 6.18892 2.12837 6.49613 1.89507 6.72908C1.66177 6.96203 1.35434 7.10603 1.02604 7.13616V9.58326C1.35444 9.61341 1.66195 9.75751 1.89526 9.99058C2.12857 10.2237 2.27298 10.531 2.30346 10.8594H10.0103C10.0404 10.5311 10.1845 10.2237 10.4176 9.99058C10.6507 9.75747 10.9581 9.61335 11.2864 9.58326V7.13616C10.9581 7.10607 10.6507 6.96195 10.4176 6.72883C10.1845 6.49572 10.0404 6.18832 10.0103 5.86002V5.86066ZM2.46377 9.04331C2.32844 9.04343 2.19612 9.00343 2.08352 8.92835C1.97093 8.85327 1.88313 8.74649 1.83122 8.62151C1.77932 8.49653 1.76564 8.35896 1.79192 8.22621C1.81819 8.09345 1.88325 7.97147 1.97885 7.87569C2.07445 7.77991 2.19631 7.71463 2.32902 7.6881C2.46172 7.66158 2.59931 7.675 2.72439 7.72667C2.84946 7.77834 2.95641 7.86594 3.0317 7.97839C3.10699 8.09084 3.14725 8.2231 3.14737 8.35843C3.14741 8.53986 3.07544 8.71388 2.94727 8.84229C2.8191 8.9707 2.6452 9.043 2.46377 9.04331ZM6.15623 10.4509C5.74276 10.4509 5.33857 10.3283 4.99478 10.0986C4.65099 9.86887 4.38304 9.54237 4.22481 9.16037C4.06658 8.77837 4.02518 8.35803 4.10585 7.9525C4.18651 7.54698 4.38562 7.17448 4.67799 6.88211C4.97035 6.58974 5.34286 6.39063 5.74838 6.30997C6.15391 6.2293 6.57425 6.2707 6.95625 6.42893C7.33825 6.58716 7.66475 6.85511 7.89446 7.1989C8.12417 7.54269 8.24678 7.94688 8.24678 8.36035C8.24624 8.91463 8.02581 9.44606 7.63387 9.83799C7.24194 10.2299 6.71051 10.4504 6.15623 10.4509ZM9.85125 9.04395C9.71592 9.04408 9.58359 9.00407 9.471 8.92899C9.35841 8.85391 9.27061 8.74713 9.2187 8.62215C9.16679 8.49717 9.15312 8.3596 9.17939 8.22685C9.20567 8.0941 9.27072 7.97211 9.36633 7.87633C9.46193 7.78055 9.58379 7.71527 9.71649 7.68874C9.8492 7.66222 9.98679 7.67564 10.1119 7.72731C10.2369 7.77898 10.3439 7.86658 10.4192 7.97903C10.4945 8.09149 10.5347 8.22374 10.5348 8.35907C10.5347 8.54039 10.4627 8.71425 10.3345 8.84252C10.2064 8.97079 10.0326 9.043 9.85125 9.04331V9.04395ZM9.85125 7.93198C9.7666 7.93185 9.68381 7.95685 9.61337 8.0038C9.54294 8.05075 9.48802 8.11754 9.45556 8.19573C9.42311 8.27391 9.41458 8.35997 9.43107 8.443C9.44755 8.52603 9.4883 8.6023 9.54816 8.66216C9.60802 8.72202 9.68429 8.76277 9.76732 8.77925C9.85035 8.79573 9.93641 8.78721 10.0146 8.75476C10.0928 8.7223 10.1596 8.66738 10.2065 8.59694C10.2535 8.5265 10.2785 8.44372 10.2783 8.35907C10.278 8.24583 10.233 8.13731 10.153 8.05718C10.0729 7.97705 9.96449 7.93181 9.85125 7.93134V7.93198ZM2.46377 7.93198C2.37912 7.93185 2.29634 7.95685 2.2259 8.0038C2.15546 8.05075 2.10054 8.11754 2.06809 8.19573C2.03563 8.27391 2.02711 8.35997 2.04359 8.443C2.06008 8.52603 2.10083 8.6023 2.16068 8.66216C2.22054 8.72202 2.29681 8.76277 2.37984 8.77925C2.46288 8.79573 2.54893 8.78721 2.62711 8.75476C2.7053 8.7223 2.77209 8.66738 2.81904 8.59694C2.866 8.5265 2.89099 8.44372 2.89086 8.35907C2.8908 8.24576 2.8458 8.1371 2.76574 8.05692C2.68567 7.97674 2.57708 7.93158 2.46377 7.93134V7.93198ZM11.6417 4.83463H0.66949C0.492145 4.83496 0.322151 4.90552 0.196689 5.03086C0.0712273 5.1562 0.000508315 5.32613 0 5.50347V11.2147C6.74445e-05 11.3923 0.0705836 11.5627 0.196086 11.6884C0.321588 11.8142 0.491833 11.885 0.66949 11.8854H11.6417C11.7298 11.8855 11.817 11.8681 11.8984 11.8344C11.9798 11.8007 12.0538 11.7513 12.1161 11.689C12.1784 11.6267 12.2278 11.5528 12.2615 11.4714C12.2952 11.39 12.3125 11.3028 12.3125 11.2147V5.50347C12.3123 5.32576 12.2415 5.15539 12.1157 5.02985C11.9899 4.9043 11.8194 4.83385 11.6417 4.83398V4.83463ZM11.5429 9.7051C11.5429 9.73912 11.5294 9.77174 11.5054 9.79579C11.4813 9.81984 11.4487 9.83336 11.4147 9.83336C11.1087 9.83383 10.8154 9.9556 10.599 10.172C10.3826 10.3883 10.2609 10.6817 10.2604 10.9876C10.2604 11.0217 10.2469 11.0543 10.2228 11.0783C10.1988 11.1024 10.1661 11.1159 10.1321 11.1159H2.18033C2.14632 11.1159 2.11369 11.1024 2.08964 11.0783C2.06559 11.0543 2.05208 11.0217 2.05208 10.9876C2.0516 10.6817 1.92984 10.3883 1.71347 10.172C1.4971 9.9556 1.20378 9.83383 0.897784 9.83336C0.863768 9.83336 0.831146 9.81984 0.807094 9.79579C0.783041 9.77174 0.769529 9.73912 0.769529 9.7051V7.01432C0.769529 6.9803 0.783041 6.94768 0.807094 6.92363C0.831146 6.89957 0.863768 6.88606 0.897784 6.88606C1.20378 6.88559 1.4971 6.76382 1.71347 6.54745C1.92984 6.33108 2.0516 6.03776 2.05208 5.73177C2.05208 5.69775 2.06559 5.66513 2.08964 5.64108C2.11369 5.61703 2.14632 5.60351 2.18033 5.60351H10.1321C10.1661 5.60351 10.1988 5.61703 10.2228 5.64108C10.2469 5.66513 10.2604 5.69775 10.2604 5.73177C10.2609 6.03776 10.3826 6.33108 10.599 6.54745C10.8154 6.76382 11.1087 6.88559 11.4147 6.88606C11.4487 6.88606 11.4813 6.89957 11.5054 6.92363C11.5294 6.94768 11.5429 6.9803 11.5429 7.01432V9.7051ZM10.0103 5.86002H2.30346C2.27298 6.1884 2.12857 6.49576 1.89526 6.72883C1.66195 6.96191 1.35444 7.10601 1.02604 7.13616V9.58326C1.35444 9.61341 1.66195 9.75751 1.89526 9.99058C2.12857 10.2237 2.27298 10.531 2.30346 10.8594H10.0103C10.0404 10.5311 10.1845 10.2237 10.4176 9.99058C10.6507 9.75747 10.9581 9.61335 11.2864 9.58326V7.13616C10.9581 7.10607 10.6507 6.96195 10.4176 6.72883C10.1845 6.49572 10.0404 6.18832 10.0103 5.86002ZM2.46377 9.04331C2.32844 9.04343 2.19612 9.00343 2.08352 8.92835C1.97093 8.85327 1.88313 8.74649 1.83122 8.62151C1.77932 8.49653 1.76564 8.35896 1.79192 8.22621C1.81819 8.09345 1.88325 7.97147 1.97885 7.87569C2.07445 7.77991 2.19631 7.71463 2.32902 7.6881C2.46172 7.66158 2.59931 7.675 2.72439 7.72667C2.84946 7.77834 2.95641 7.86594 3.0317 7.97839C3.10699 8.09084 3.14725 8.2231 3.14737 8.35843C3.14741 8.53986 3.07544 8.71388 2.94727 8.84229C2.8191 8.9707 2.6452 9.043 2.46377 9.04331ZM6.15623 10.4509C5.74276 10.4509 5.33857 10.3283 4.99478 10.0986C4.65099 9.86887 4.38304 9.54237 4.22481 9.16037C4.06658 8.77837 4.02518 8.35803 4.10585 7.9525C4.18651 7.54698 4.38562 7.17448 4.67799 6.88211C4.97035 6.58974 5.34286 6.39063 5.74838 6.30997C6.15391 6.2293 6.57425 6.2707 6.95625 6.42893C7.33825 6.58716 7.66475 6.85511 7.89446 7.1989C8.12417 7.54269 8.24678 7.94688 8.24678 8.36035C8.24624 8.91463 8.02581 9.44606 7.63387 9.83799C7.24194 10.2299 6.71051 10.4504 6.15623 10.4509ZM9.85125 9.04395C9.71592 9.04408 9.58359 9.00407 9.471 8.92899C9.35841 8.85391 9.27061 8.74713 9.2187 8.62215C9.16679 8.49717 9.15312 8.3596 9.17939 8.22685C9.20567 8.0941 9.27072 7.97211 9.36633 7.87633C9.46193 7.78055 9.58379 7.71527 9.71649 7.68874C9.8492 7.66222 9.98679 7.67564 10.1119 7.72731C10.2369 7.77898 10.3439 7.86658 10.4192 7.97903C10.4945 8.09149 10.5347 8.22374 10.5348 8.35907C10.5347 8.54039 10.4627 8.71425 10.3345 8.84252C10.2064 8.97079 10.0326 9.043 9.85125 9.04331V9.04395ZM9.85125 7.93198C9.7666 7.93185 9.68381 7.95685 9.61337 8.0038C9.54294 8.05075 9.48802 8.11754 9.45556 8.19573C9.42311 8.27391 9.41458 8.35997 9.43107 8.443C9.44755 8.52603 9.4883 8.6023 9.54816 8.66216C9.60802 8.72202 9.68429 8.76277 9.76732 8.77925C9.85035 8.79573 9.93641 8.78721 10.0146 8.75476C10.0928 8.7223 10.1596 8.66738 10.2065 8.59694C10.2535 8.5265 10.2785 8.44372 10.2783 8.35907C10.278 8.24583 10.233 8.13731 10.153 8.05718C10.0729 7.97705 9.96449 7.93181 9.85125 7.93134V7.93198ZM2.46377 7.93198C2.37912 7.93185 2.29634 7.95685 2.2259 8.0038C2.15546 8.05075 2.10054 8.11754 2.06809 8.19573C2.03563 8.27391 2.02711 8.35997 2.04359 8.443C2.06008 8.52603 2.10083 8.6023 2.16068 8.66216C2.22054 8.72202 2.29681 8.76277 2.37984 8.77925C2.46288 8.79573 2.54893 8.78721 2.62711 8.75476C2.7053 8.7223 2.77209 8.66738 2.81904 8.59694C2.866 8.5265 2.89099 8.44372 2.89086 8.35907C2.8908 8.24576 2.8458 8.1371 2.76574 8.05692C2.68567 7.97674 2.57708 7.93158 2.46377 7.93134V7.93198ZM2.46377 7.93198C2.37912 7.93185 2.29634 7.95685 2.2259 8.0038C2.15546 8.05075 2.10054 8.11754 2.06809 8.19573C2.03563 8.27391 2.02711 8.35997 2.04359 8.443C2.06008 8.52603 2.10083 8.6023 2.16068 8.66216C2.22054 8.72202 2.29681 8.76277 2.37984 8.77925C2.46288 8.79573 2.54893 8.78721 2.62711 8.75476C2.7053 8.7223 2.77209 8.66738 2.81904 8.59694C2.866 8.5265 2.89099 8.44372 2.89086 8.35907C2.8908 8.24576 2.8458 8.1371 2.76574 8.05692C2.68567 7.97674 2.57708 7.93158 2.46377 7.93134V7.93198ZM9.85125 7.93198C9.7666 7.93185 9.68381 7.95685 9.61337 8.0038C9.54294 8.05075 9.48802 8.11754 9.45556 8.19573C9.42311 8.27391 9.41458 8.35997 9.43107 8.443C9.44755 8.52603 9.4883 8.6023 9.54816 8.66216C9.60802 8.72202 9.68429 8.76277 9.76732 8.77925C9.85035 8.79573 9.93641 8.78721 10.0146 8.75476C10.0928 8.7223 10.1596 8.66738 10.2065 8.59694C10.2535 8.5265 10.2785 8.44372 10.2783 8.35907C10.278 8.24583 10.233 8.13731 10.153 8.05718C10.0729 7.97705 9.96449 7.93181 9.85125 7.93134V7.93198ZM9.85125 7.93198C9.7666 7.93185 9.68381 7.95685 9.61337 8.0038C9.54294 8.05075 9.48802 8.11754 9.45556 8.19573C9.42311 8.27391 9.41458 8.35997 9.43107 8.443C9.44755 8.52603 9.4883 8.6023 9.54816 8.66216C9.60802 8.72202 9.68429 8.76277 9.76732 8.77925C9.85035 8.79573 9.93641 8.78721 10.0146 8.75476C10.0928 8.7223 10.1596 8.66738 10.2065 8.59694C10.2535 8.5265 10.2785 8.44372 10.2783 8.35907C10.278 8.24583 10.233 8.13731 10.153 8.05718C10.0729 7.97705 9.96449 7.93181 9.85125 7.93134V7.93198ZM2.46377 7.93198C2.37912 7.93185 2.29634 7.95685 2.2259 8.0038C2.15546 8.05075 2.10054 8.11754 2.06809 8.19573C2.03563 8.27391 2.02711 8.35997 2.04359 8.443C2.06008 8.52603 2.10083 8.6023 2.16068 8.66216C2.22054 8.72202 2.29681 8.76277 2.37984 8.77925C2.46288 8.79573 2.54893 8.78721 2.62711 8.75476C2.7053 8.7223 2.77209 8.66738 2.81904 8.59694C2.866 8.5265 2.89099 8.44372 2.89086 8.35907C2.8908 8.24576 2.8458 8.1371 2.76574 8.05692C2.68567 7.97674 2.57708 7.93158 2.46377 7.93134V7.93198Z" fill="#292B5D"/>
<path d="M8.59323 4.57712H3.71826C3.78387 4.16131 3.95463 3.76916 4.21433 3.43785C4.47402 3.10655 4.81406 2.84709 5.20217 2.68408C5.47611 2.8937 5.81145 3.00728 6.15638 3.00728C6.50132 3.00728 6.83666 2.8937 7.1106 2.68408C7.49967 2.84547 7.84053 3.10449 8.10025 3.43611C8.35997 3.76772 8.52976 4.16072 8.59323 4.57712Z" fill="#292B5D"/>
<path d="M7.47475 1.43433C7.47449 1.69489 7.39701 1.94953 7.25208 2.16606C7.10715 2.38259 6.90128 2.5513 6.6605 2.65086C6.41971 2.75043 6.15482 2.77638 5.89929 2.72544C5.64376 2.6745 5.40906 2.54895 5.22487 2.36466C5.04067 2.18038 4.91523 1.94562 4.86442 1.69007C4.8136 1.43451 4.83968 1.16963 4.93936 0.928894C5.03904 0.688157 5.20785 0.482374 5.42446 0.33755C5.64106 0.192726 5.89573 0.115361 6.15629 0.115234C6.506 0.115472 6.84132 0.254546 7.08854 0.501892C7.33577 0.749238 7.47468 1.08462 7.47475 1.43433Z" fill="#292B5D"/>
<path d="M3.79009 3.61161C3.73104 3.71498 3.67878 3.82209 3.63362 3.93224C3.54883 4.13918 3.49024 4.3559 3.4592 4.57737H0.669655C0.6495 4.57737 0.629366 4.57865 0.609375 4.58121C0.667846 4.29973 0.789407 4.03518 0.964908 3.80747C1.14041 3.57976 1.36528 3.39483 1.62259 3.2666C1.85568 3.47001 2.15457 3.58209 2.46394 3.58209C2.77331 3.58209 3.0722 3.47001 3.30529 3.2666C3.48427 3.35499 3.64795 3.47146 3.79009 3.61161Z" fill="#292B5D"/>
<path d="M11.7046 4.58103C11.6838 4.57843 11.6628 4.57715 11.6418 4.57718H8.85354C8.82245 4.35587 8.7643 4.1392 8.6804 3.93206C8.63576 3.8225 8.58348 3.71621 8.52393 3.61399C8.66623 3.47254 8.8309 3.35554 9.01129 3.2677C9.2447 3.47076 9.54376 3.58238 9.85313 3.58191C10.1625 3.58144 10.4612 3.46891 10.694 3.26514C10.9513 3.39337 11.176 3.5785 11.3511 3.80649C11.5262 4.03449 11.6471 4.29936 11.7046 4.58103Z" fill="#292B5D"/>
<path d="M3.4886 2.30094C3.4886 2.50387 3.42842 2.70225 3.31568 2.87098C3.20294 3.03971 3.04269 3.17122 2.85521 3.24888C2.66773 3.32653 2.46142 3.34685 2.26239 3.30726C2.06336 3.26767 1.88054 3.16995 1.73704 3.02646C1.59355 2.88297 1.49583 2.70014 1.45624 2.50111C1.41665 2.30208 1.43697 2.09578 1.51463 1.90829C1.59228 1.72081 1.72379 1.56056 1.89253 1.44782C2.06126 1.33508 2.25963 1.2749 2.46256 1.2749C2.73468 1.2749 2.99566 1.383 3.18808 1.57542C3.3805 1.76784 3.4886 2.02882 3.4886 2.30094Z" fill="#292B5D"/>
<path d="M10.8761 2.30094C10.8761 2.50387 10.8159 2.70225 10.7031 2.87098C10.5904 3.03971 10.4301 3.17122 10.2427 3.24888C10.0552 3.32653 9.84888 3.34685 9.64984 3.30726C9.45081 3.26767 9.26799 3.16995 9.12449 3.02646C8.981 2.88297 8.88328 2.70014 8.84369 2.50111C8.8041 2.30208 8.82442 2.09578 8.90208 1.90829C8.97974 1.72081 9.11125 1.56056 9.27998 1.44782C9.44871 1.33508 9.64708 1.2749 9.85001 1.2749C10.1221 1.2749 10.3831 1.383 10.5755 1.57542C10.768 1.76784 10.8761 2.02882 10.8761 2.30094Z" fill="#292B5D"/>
</svg>
