<svg width="18" height="18" viewBox="0 0 18 18" fill="none" xmlns="http://www.w3.org/2000/svg">
<path d="M0.375246 17.8259C0.486956 17.9028 0.614215 17.9559 0.748626 17.9816C0.810192 17.9929 0.87266 17.999 0.935316 17.9997H1.03053H1.79409H2.55205H2.73874C2.84637 18.0021 2.95381 17.9899 3.05798 17.9635C3.18825 17.9286 3.30913 17.8666 3.41228 17.7819C3.51543 17.6972 3.59837 17.5917 3.65538 17.4729C3.68437 17.4104 3.70568 17.3447 3.71886 17.2774C3.72557 17.2433 3.72993 17.2088 3.73193 17.1742V16.8121L4.03997 17.013C4.19184 17.109 4.35098 17.1938 4.51602 17.2665C4.69518 17.3509 4.88287 17.417 5.07609 17.4638C5.28142 17.514 5.49173 17.5425 5.70337 17.5489L6.29331 17.567L7.5516 17.5978L8.21808 17.6123H8.55972H8.73148H8.91817C9.22106 17.604 9.51848 17.5321 9.78988 17.4014C10.0613 17.2708 10.3002 17.0845 10.4901 16.8555C10.5887 16.7363 10.6727 16.6063 10.7403 16.4681C10.7748 16.3986 10.8053 16.3273 10.8317 16.2545L10.8952 16.0734L11.1416 15.3764L11.642 13.948L12.1516 12.4816C12.1946 12.353 12.2356 12.2517 12.2842 12.0706C12.3291 11.9069 12.3535 11.7385 12.357 11.5691C12.3566 11.2236 12.2667 10.8837 12.0956 10.5807C11.925 10.2759 11.6802 10.0161 11.3825 9.8239C11.3078 9.77864 11.2294 9.73519 11.151 9.69355C11.0726 9.65191 10.9886 9.62113 10.9027 9.59398C10.8183 9.56617 10.7322 9.54319 10.645 9.52518C10.5629 9.5107 10.4584 9.49078 10.3986 9.48535C9.84975 9.42199 9.29901 9.36767 8.74268 9.3369C8.60266 9.3369 8.46264 9.32241 8.32076 9.31879H8.21808C8.21265 9.23922 8.21265 9.15939 8.21808 9.07982C8.23201 8.85155 8.267 8.62494 8.32263 8.40273C8.33196 8.36108 8.34503 8.31764 8.35623 8.276C8.53569 8.37391 8.7278 8.44819 8.9275 8.49687C9.10053 8.53824 9.27768 8.56131 9.45583 8.56566L9.9543 8.58377L11.9164 8.63808C12.0537 8.98889 12.2465 9.31687 12.4877 9.61027C12.8079 9.99172 13.1923 10.318 13.6246 10.5752C13.7329 10.6422 13.8468 10.7038 13.9607 10.7563C14.0823 10.8171 14.2177 10.8476 14.3546 10.845C14.4956 10.8412 14.633 10.8005 14.7522 10.7273C14.8711 10.6556 14.969 10.5555 15.0366 10.4366C15.1043 10.3178 15.1394 10.1841 15.1387 10.0484C15.1372 9.98107 15.1271 9.91419 15.1088 9.84924L15.0789 9.74786C15.0621 9.70079 15.0528 9.65191 15.0397 9.60484C14.975 9.31494 14.9674 9.0158 15.0173 8.72317H15.204C15.2712 8.72317 15.3254 8.72317 15.4131 8.72317C15.7331 8.71941 16.0497 8.65802 16.3466 8.54213C16.8094 8.36033 17.2098 8.05529 17.5015 7.66223C17.7932 7.26916 17.9643 6.8041 17.995 6.32075C18.0062 6.13971 17.995 6.03652 17.995 5.89711V5.50063C17.995 4.97079 17.995 4.43913 17.995 3.90566V3.10546C18.0024 2.81799 17.9943 2.53035 17.9708 2.2437C17.9065 1.75516 17.6991 1.29473 17.3732 0.917037C17.0473 0.539347 16.6164 0.260247 16.1319 0.112849L15.8892 0.0531054C15.807 0.0386221 15.7174 0.0277596 15.6427 0.0168972C15.5681 0.0060347 15.4766 0.00784512 15.3944 0.00241388C15.3123 -0.00301735 15.2544 0.00241388 15.1835 0.00241388L13.5929 0.0150868L10.5554 0.0494846L9.83481 0.0603471L9.48197 0.0657783C9.42783 0.0657783 9.35502 0.0657783 9.28595 0.0657783C9.21645 0.0685447 9.14722 0.0758025 9.07872 0.0875032C8.54619 0.165205 8.05309 0.405564 7.67108 0.773649C7.31762 1.10807 7.07404 1.53639 6.97099 2.00473C6.94687 2.114 6.93004 2.22466 6.92059 2.33603C6.92059 2.44285 6.92059 2.56415 6.92059 2.64924L6.93926 3.19236C6.96041 3.78738 6.98282 4.32387 7.00646 4.80182H6.97846C6.77616 4.79979 6.57898 4.86353 6.41839 4.98286C6.26506 5.09506 6.15364 5.25269 6.10102 5.43184V5.44632C6.09671 5.46238 6.09359 5.47871 6.09168 5.4952L5.97407 6.42757C5.95342 6.55768 5.92221 6.68602 5.88073 6.81137C5.83666 6.93996 5.78428 7.06573 5.72391 7.18794L5.02195 8.72679L4.70271 9.41656C4.66541 9.51214 4.62047 9.60475 4.5683 9.69355C4.51824 9.77388 4.46075 9.84962 4.39654 9.91985C4.27097 10.0522 4.12169 10.1614 3.95596 10.2421C3.87901 10.2801 3.79911 10.3122 3.71699 10.3381L3.59378 10.3706L3.50417 10.3906V10.2946C3.50417 10.224 3.37348 10.1697 3.22973 10.1751C3.08598 10.1805 2.99637 10.2312 2.99077 10.2946C2.90489 11.2831 2.83955 12.7712 2.80408 14.5074L2.77608 15.8526L2.76487 16.5532V16.9153V17.0221H2.57818H1.82022H1.05666H1.01186C1.01186 15.0705 0.987589 13.1207 0.94465 11.4098L0.927848 10.7707L0.918513 10.4485V10.2964V10.1787C0.924859 10.1689 0.934888 10.1617 0.946517 10.1588L1.48792 10.1353L2.49791 10.0864L2.7294 10.0719H2.82275C2.83701 10.0703 2.85142 10.0703 2.86569 10.0719C2.89115 10.0746 2.91571 10.0826 2.93764 10.0954C2.95957 10.1082 2.97834 10.1255 2.99264 10.1462C2.99264 10.157 3.03184 10.1606 3.08225 10.1679C3.14377 10.1793 3.2063 10.1847 3.26894 10.1842C3.39402 10.1842 3.4967 10.0991 3.46869 10.0031C3.43934 9.89668 3.38321 9.79895 3.30534 9.71869C3.22747 9.63844 3.13029 9.57817 3.02251 9.54328C2.96753 9.52484 2.91051 9.51269 2.85262 9.50708L2.7238 9.49802L2.49231 9.48354L1.47298 9.42561L1.19295 9.41475H1.0492H0.976387H0.877442C0.690439 9.42323 0.511718 9.49205 0.369646 9.61027C0.212134 9.74108 0.113087 9.92604 0.0933449 10.1262V10.195V10.3073V10.4594L0.0840104 10.7689L0.0672083 11.408C0.0224028 13.1442 0.0018669 15.1302 0 17.1162C0.00122766 17.2547 0.0357938 17.391 0.100943 17.5142C0.166092 17.6374 0.260022 17.7441 0.375246 17.8259ZM7.61507 2.65105C7.61507 2.55147 7.62814 2.4863 7.63188 2.40302C7.64622 2.3241 7.66555 2.2461 7.68975 2.16948C7.78039 1.8469 7.96592 1.5569 8.22368 1.33488C8.4907 1.10118 8.82604 0.953764 9.18327 0.913051C9.22925 0.909567 9.27544 0.909567 9.32142 0.913051C9.36809 0.913051 9.41103 0.913051 9.4745 0.913051H9.82735L10.548 0.923913L13.5854 0.960122L15.176 0.972795C15.2395 0.972795 15.3198 0.972795 15.3627 0.972795C15.4056 0.972795 15.4672 0.972795 15.5176 0.983657L15.6707 1.009L15.8201 1.04702C16.1197 1.14034 16.3856 1.31459 16.5867 1.54932C16.7877 1.78405 16.9155 2.06953 16.9552 2.37224C16.9776 2.55328 16.9664 2.85019 16.9682 3.10908V3.90928C16.9682 4.44275 16.9682 4.97441 16.9682 5.50426V5.90074C16.9682 6.02746 16.9682 6.18135 16.9682 6.26282C16.9629 6.46338 16.9186 6.66117 16.8375 6.84577C16.6647 7.20968 16.3596 7.49907 15.9806 7.65865C15.7946 7.73633 15.5951 7.77932 15.3926 7.78537C15.3496 7.78537 15.275 7.78537 15.2059 7.78537H15.0192H14.6346C14.5306 7.78629 14.4297 7.82024 14.3474 7.88204C14.2651 7.94383 14.206 8.03007 14.1791 8.12754C14.0194 8.67857 14.0078 9.26007 14.1455 9.81666L14.1585 9.86192L14.0969 9.82933C13.3989 9.46361 12.863 8.86278 12.5904 8.14021V8.12392C12.5657 8.04763 12.5157 7.98139 12.4482 7.93554C12.3806 7.88969 12.2993 7.86681 12.217 7.87046L9.93003 7.93926L9.43156 7.95736C9.29611 7.96389 9.16033 7.95661 9.02645 7.93564C8.8376 7.90655 8.65442 7.84978 8.48318 7.76727L8.50372 7.69666C8.59135 7.42002 8.64584 7.13451 8.66614 6.84577C8.68503 6.5318 8.63673 6.21744 8.52425 5.92246C8.40072 5.61322 8.18898 5.34447 7.91378 5.1476C7.79034 5.06199 7.65686 4.99088 7.51613 4.93579C7.54226 4.42706 7.5684 3.84954 7.5908 3.19236L7.61507 2.65105ZM3.55457 10.8902L3.69646 10.8739L3.85888 10.8486C3.97476 10.8253 4.08842 10.7926 4.19865 10.7508C4.43914 10.6581 4.65952 10.5224 4.84833 10.3507C4.94971 10.2575 5.04162 10.1551 5.12277 10.0448C5.20324 9.92991 5.2738 9.8088 5.33373 9.68269L5.6903 9.0074L6.4688 7.51381C6.54807 7.36852 6.6179 7.21857 6.67789 7.06483C6.74037 6.89992 6.78907 6.7304 6.82351 6.55791L6.96539 5.69435C7.10878 5.7276 7.24352 5.78924 7.36118 5.87539C7.48814 5.97305 7.58395 6.10362 7.63748 6.25196C7.69666 6.4269 7.71888 6.61162 7.70282 6.79508C7.6814 7.00812 7.63569 7.2182 7.56653 7.42148L7.54226 7.50114L7.51053 7.59709C7.48812 7.66046 7.46759 7.72382 7.44705 7.789C7.40598 7.91753 7.36864 8.04969 7.33504 8.18548C7.26164 8.46436 7.21477 8.74918 7.19502 9.03637C7.18511 9.1964 7.19011 9.35697 7.20996 9.51613C7.20996 9.55958 7.22302 9.60122 7.23236 9.64648V9.67906L7.24916 9.73881C7.30193 9.89961 7.40511 10.0404 7.54432 10.1417C7.68353 10.2429 7.85183 10.2996 8.02579 10.3037H8.09113H8.27782C8.40664 10.3037 8.53732 10.3145 8.668 10.3218C9.1926 10.3543 9.7284 10.4068 10.2623 10.4702C10.3389 10.4702 10.3669 10.4883 10.4192 10.4956C10.4652 10.5052 10.5107 10.5172 10.5554 10.5318C10.6002 10.5444 10.6413 10.568 10.6861 10.5825L10.8075 10.6494C10.9629 10.7521 11.0909 10.8893 11.1808 11.0495C11.2732 11.2089 11.3227 11.3882 11.3246 11.5709C11.3164 11.7795 11.2696 11.9849 11.1864 12.1774L10.6973 13.6511L10.225 15.0886L9.99723 15.791L9.94123 15.9612C9.92732 16.0024 9.91112 16.0429 9.89269 16.0825C9.85716 16.1616 9.81204 16.2364 9.75827 16.3052C9.65545 16.4422 9.52331 16.5559 9.37089 16.6388C9.21847 16.7216 9.04938 16.7714 8.87523 16.7849L7.5404 16.8157L6.28211 16.8465L5.69404 16.8646C5.37535 16.8751 5.05778 16.8228 4.76059 16.7107C4.61843 16.6551 4.48056 16.5898 4.348 16.5152L3.73193 16.1875V15.8508L3.70392 14.5056C3.66845 13.0899 3.61991 11.8389 3.55644 10.8848L3.55457 10.8902Z" fill="#696969"/>
</svg>
