<svg width="16" height="16" viewBox="0 0 16 16" fill="none" xmlns="http://www.w3.org/2000/svg">
<path d="M15.271 0.721053C15.1289 0.578947 14.9237 0.5 14.7184 0.5L11.9395 0.610526C11.5289 0.626316 11.2132 0.973684 11.2289 1.38421C11.2447 1.79474 11.5763 2.11053 12.0026 2.09474L12.8711 2.06316L10.8342 4.1C9.90263 3.38947 8.75 2.96316 7.48684 2.96316C4.43947 2.96316 1.94474 5.44211 1.94474 8.50526C1.94474 9.76842 2.37105 10.9211 3.08158 11.8526L0.713158 14.2368C0.428947 14.5211 0.428947 14.9947 0.713158 15.2947C0.855263 15.4211 1.04474 15.5 1.23421 15.5C1.42368 15.5 1.61316 15.4211 1.75526 15.2789L4.15526 12.8947C5.08684 13.6053 6.23947 14.0316 7.50263 14.0316C10.55 14.0316 13.0447 11.5526 13.0447 8.48947C13.0447 7.22632 12.6184 6.07368 11.9079 5.14211L13.9447 3.10526L13.9132 3.97368C13.8974 4.38421 14.2132 4.73158 14.6237 4.74737C14.6395 4.74737 14.6395 4.74737 14.6553 4.74737C15.05 4.74737 15.3816 4.43158 15.3974 4.03684L15.5079 1.25789C15.4921 1.06842 15.4289 0.863158 15.271 0.721053ZM5.87632 6.02632C6.35 6.02632 6.72895 6.40526 6.72895 6.87895C6.72895 7.35263 6.35 7.73158 5.87632 7.73158C5.40263 7.73158 5.02368 7.35263 5.02368 6.87895C5.02368 6.40526 5.40263 6.02632 5.87632 6.02632ZM6.17632 10.6684C6.06579 10.7789 5.90789 10.8421 5.75 10.8421C5.5921 10.8421 5.45 10.7789 5.32368 10.6684C5.08684 10.4316 5.08684 10.0526 5.32368 9.83158L8.81316 6.3421C9.05 6.10526 9.42895 6.10526 9.65 6.3421C9.88684 6.57895 9.88684 6.95789 9.65 7.17895L6.17632 10.6684ZM9.11316 10.9684C8.63947 10.9684 8.26053 10.5895 8.26053 10.1158C8.26053 9.64211 8.63947 9.26316 9.11316 9.26316C9.58684 9.26316 9.96579 9.64211 9.96579 10.1158C9.96579 10.5895 9.58684 10.9684 9.11316 10.9684Z" fill="#292B5D"/>
</svg>
