<svg width="15" height="16" viewBox="0 0 15 16" fill="none" xmlns="http://www.w3.org/2000/svg">
<path d="M7.74338 12.7614C8.09745 12.7614 8.38324 12.4756 8.38324 12.1216L8.38756 6.00705C8.38756 5.65298 8.10177 5.36719 7.74769 5.36719C7.39361 5.36719 7.10783 5.65297 7.10783 6.00705L7.10352 12.1216C7.10366 12.4756 7.38945 12.7614 7.74338 12.7614Z" fill="black"/>
<path d="M5.18478 12.7604C5.53885 12.7604 5.82465 12.4747 5.82465 12.1206L5.82896 6.00607C5.82896 5.652 5.54318 5.36621 5.1891 5.36621C4.83502 5.36621 4.54924 5.652 4.54924 6.00607L4.54492 12.1206C4.54492 12.4747 4.83071 12.7604 5.18478 12.7604Z" fill="black"/>
<path d="M10.302 12.7643C10.656 12.7643 10.9418 12.4786 10.9418 12.1245L10.9461 6.00998C10.9461 5.65591 10.6604 5.37012 10.3063 5.37012C9.95221 5.37012 9.66642 5.6559 9.66642 6.00998L9.66211 12.1245C9.66211 12.4786 9.94789 12.7643 10.302 12.7643Z" fill="black"/>
<path d="M1.56645 3.41089L1.55797 11.8821C1.55589 14.1492 3.39854 15.996 5.6658 15.996L9.8117 16.0003H9.81602C12.081 16.0003 13.9257 14.1577 13.928 11.8925L13.9344 3.4213H14.3609C14.715 3.4213 15.0008 3.13551 15.0008 2.78143C15.0008 2.42736 14.715 2.14157 14.3609 2.14157L1.13791 2.13086C0.783839 2.13086 0.498047 2.41664 0.498047 2.77072C0.498047 3.1248 0.783832 3.41058 1.13791 3.41058L1.56645 3.41089ZM12.6484 11.8908C12.6463 13.452 11.3773 14.721 9.81611 14.721H9.81403L5.66812 14.7167C4.10695 14.7146 2.83796 13.4434 2.83796 11.8822L2.84436 3.41099L12.655 3.41947L12.6484 11.8908Z" fill="black"/>
<path d="M5.44846 1.27924L10.0594 1.28355C10.4134 1.28355 10.6992 0.997766 10.6992 0.643688C10.6992 0.28961 10.4135 0.00382601 10.0594 0.00382601L5.44846 -0.000488281C5.09439 -0.000488281 4.80859 0.285296 4.80859 0.639374C4.80859 0.993452 5.09438 1.27924 5.44846 1.27924Z" fill="black"/>
</svg>
