<svg width="19" height="18" viewBox="0 0 19 18" fill="none" xmlns="http://www.w3.org/2000/svg">
<path d="M1.17898 12.3849L0.934843 15.6112C0.92512 15.7425 0.972472 15.8716 1.0661 15.9639C1.15108 16.0489 1.26612 16.0963 1.38441 16.0963C1.39629 16.0963 1.40691 16.0963 1.4188 16.0952L4.64733 15.851C4.75482 15.8435 4.856 15.7961 4.93234 15.7198L16.8966 3.75227C17.0731 3.57583 17.0731 3.29081 16.8966 3.11456L13.9144 0.132331C13.738 -0.0441102 13.4529 -0.0441102 13.2767 0.132331L1.30917 12.0999C1.23284 12.1762 1.18654 12.2774 1.17898 12.3849ZM2.06517 12.6193L13.5953 1.08916L15.9398 3.43367L4.41107 14.9638L1.87302 15.1552L2.06517 12.6193Z" fill="black"/>
<path d="M0.710938 17.5493C0.710938 17.7988 0.913125 17.9999 1.16158 17.9999H18.2332C18.4828 17.9999 18.6839 17.7977 18.6839 17.5493C18.6839 17.2997 18.4817 17.0986 18.2332 17.0986H1.16158C0.912042 17.0986 0.710938 17.3008 0.710938 17.5493Z" fill="black"/>
</svg>
