<svg width="25" height="17" viewBox="0 0 25 17" fill="none" xmlns="http://www.w3.org/2000/svg">
<path fill-rule="evenodd" clip-rule="evenodd" d="M17.7091 5.46754C17.7091 2.76325 15.5163 0.558594 12.8006 0.558594C10.6074 0.558594 8.75541 1.99044 8.11923 3.96747C7.7328 5.18338 8.10792 4.67225 6.68739 4.67225C3.31281 4.67225 0.574219 7.41051 0.574219 10.7854C0.574219 14.1603 3.31267 16.8986 6.68739 16.8986C9.94879 16.8986 10.7441 15.6488 10.7441 12.4328H8.68761L12.5054 8.26277L16.3233 12.4328H14.2667C14.2667 16.3417 16.3122 16.8986 18.9709 16.8986C21.9819 16.8986 24.4252 14.4555 24.4252 11.4331C24.4252 8.42193 21.982 5.97928 18.9709 5.97928C17.7094 5.97928 17.7094 6.51321 17.7094 5.46801L17.7091 5.46754ZM9.81225 13.3307H8.68765C7.89217 13.3307 7.48292 12.399 8.01685 11.8193L11.8346 7.64926C12.1871 7.26283 12.8119 7.26283 13.1642 7.64926L16.9822 11.8193C17.5161 12.3989 17.1072 13.3307 16.323 13.3307H15.2094C15.4368 15.4894 16.5618 15.9897 18.9706 15.9897C21.4815 15.9897 23.5271 13.9556 23.5271 11.433C23.5271 8.92208 21.4816 6.88803 18.9706 6.88803C18.3682 6.88803 17.8116 7.19469 17.2889 6.85408C16.7891 6.52441 16.8117 5.99033 16.8117 5.4677C16.8117 3.26337 15.0162 1.46774 12.8006 1.46774C11.0621 1.46774 9.51678 2.5929 8.98266 4.25198C8.83498 4.72914 8.7554 5.297 8.25559 5.55859C7.78939 5.80849 7.2217 5.56991 6.68725 5.56991C3.81244 5.56991 1.48297 7.91078 1.48297 10.7854C1.48297 13.6604 3.81235 15.9897 6.68725 15.9897C7.4488 15.9897 8.63055 15.9329 9.1986 15.3421C9.61898 14.8989 9.76697 14.0808 9.81225 13.3307Z" fill="#000568" fill-opacity="0.58"/>
</svg>
