<svg width="25" height="29" viewBox="0 0 25 29" fill="none" xmlns="http://www.w3.org/2000/svg">
<path d="M16.0093 0H9.36376C7.89326 0 6.69141 1.25106 6.69141 2.8V4.2C6.69141 5.74894 7.87912 7 9.34962 7H16.0093C17.4798 7 18.6675 5.74894 18.6675 4.2V2.8C18.6817 1.25106 17.4798 0 16.0093 0Z" fill="#13DE69"/>
<path d="M19.9805 4.12663C19.9805 6.34513 18.1185 8.159 15.8411 8.159H9.10937C6.83203 8.159 4.97005 6.34513 4.97005 4.12663C4.97005 3.34526 4.11067 2.85691 3.39453 3.21969C2.36866 3.75188 1.51077 4.54597 0.912787 5.51685C0.314806 6.48774 -0.000726596 7.59883 1.25638e-06 8.73107V21.8607C1.25638e-06 25.2931 2.87891 28.0977 6.40234 28.0977H18.5482C22.0716 28.0977 24.9505 25.2931 24.9505 21.8607V8.73107C24.9505 6.34513 23.5755 4.26615 21.556 3.21969C20.8398 2.85691 19.9805 3.34526 19.9805 4.12663V4.12663ZM17.2591 15.1633L11.5299 20.7445C11.3151 20.9538 11.043 21.0515 10.7708 21.0515C10.4987 21.0515 10.2266 20.9538 10.0117 20.7445L7.86327 18.6516C7.6635 18.4546 7.55146 18.1889 7.55146 17.9121C7.55146 17.6352 7.6635 17.3695 7.86327 17.1726C8.27864 16.7679 8.96614 16.7679 9.3815 17.1726L10.7708 18.526L15.7409 13.6843C16.1562 13.2797 16.8437 13.2797 17.2591 13.6843C17.6745 14.089 17.6745 14.7587 17.2591 15.1633V15.1633Z" fill="#1ABD5F"/>
</svg>
