<svg width="29" height="28" viewBox="0 0 29 28" fill="none" xmlns="http://www.w3.org/2000/svg">
<path d="M5.05625 9.38824V6.50589C5.05625 4.28071 6.88158 2.4706 9.12545 2.4706L20.7517 2.4706C22.9956 2.4706 24.821 4.28071 24.821 6.50589V7.2553C24.821 9.06542 23.3328 10.5412 21.5075 10.5412L6.21888 10.5412C5.57943 10.5412 5.05625 10.0224 5.05625 9.38824ZM10.8694 25.5294H19.0078C23.6583 25.5294 24.821 24.3765 24.821 19.7647V11.0254C23.9374 11.7979 22.7747 12.2706 21.5075 12.2706L6.21888 12.2706C5.57943 12.2706 5.05625 12.7894 5.05625 13.4235V19.7647C5.05625 24.3765 6.21888 25.5294 10.8694 25.5294ZM13.776 15.4412L19.5891 15.4412C20.0658 15.4412 20.4611 15.8332 20.4611 16.3059C20.4611 16.7786 20.0658 17.1706 19.5891 17.1706H13.776C13.2993 17.1706 12.904 16.7786 12.904 16.3059C12.904 15.8332 13.2993 15.4412 13.776 15.4412ZM10.2881 19.4765H19.5891C20.0658 19.4765 20.4611 19.8685 20.4611 20.3412C20.4611 20.8139 20.0658 21.2059 19.5891 21.2059H10.2881C9.8114 21.2059 9.41611 20.8139 9.41611 20.3412C9.41611 19.8685 9.8114 19.4765 10.2881 19.4765Z" fill="#FF763B"/>
<path d="M5.05624 6.64709C5.05624 3.88567 7.29482 1.64709 10.0562 1.64709H19.8209C22.5824 1.64709 24.8209 3.88567 24.8209 6.64709V7.70592C24.8209 9.36277 23.4778 10.7059 21.8209 10.7059H6.05624C5.50396 10.7059 5.05624 10.2582 5.05624 9.70592V6.64709Z" fill="#E26129"/>
</svg>
