<svg width="24" height="29" viewBox="0 0 24 29" fill="none" xmlns="http://www.w3.org/2000/svg">
<path d="M-0.000328064 9.4V5.9C-0.000328064 3.198 2.21175 1 4.93106 1L19.0208 1C21.7401 1 23.9521 3.198 23.9521 5.9V6.81C23.9521 9.008 22.1487 10.8 19.9366 10.8L1.40864 10.8C0.633707 10.8 -0.000328064 10.17 -0.000328064 9.4ZM7.04452 29L16.9073 29C22.5432 29 23.9521 27.6 23.9521 22L23.9521 11.388C22.8813 12.326 21.4724 12.9 19.9366 12.9L1.40864 12.9C0.633707 12.9 -0.000328064 13.53 -0.000328064 14.3L-0.000328064 22C-0.000328064 27.6 1.40864 29 7.04452 29ZM10.5669 16.75H17.6118C18.1895 16.75 18.6685 17.226 18.6685 17.8C18.6685 18.374 18.1895 18.85 17.6118 18.85H10.5669C9.98926 18.85 9.51021 18.374 9.51021 17.8C9.51021 17.226 9.98926 16.75 10.5669 16.75ZM6.34003 21.65H17.6118C18.1895 21.65 18.6685 22.126 18.6685 22.7C18.6685 23.274 18.1895 23.75 17.6118 23.75H6.34003C5.76236 23.75 5.28331 23.274 5.28331 22.7C5.28331 22.126 5.76236 21.65 6.34003 21.65Z" fill="#6CADF3"/>
<path d="M3.07129 24L1.57129 15H2.07129C3.57129 14.8333 6.87129 14.5 8.07129 14.5C9.57129 14.5 10.0713 14 13.0713 14H19.5713C22.5713 14 21.5713 16.5 21.5713 17V23C21.5713 23.4 20.9046 26.1667 20.5713 27.5C16.738 27.6667 8.97129 27.9 8.57129 27.5C8.17129 27.1 4.73796 25 3.07129 24Z" fill="#6CADF3"/>
<path d="M0 5C0 2.23858 2.23858 0 5 0H18.9525C21.7139 0 23.9525 2.23858 23.9525 5V8C23.9525 9.65685 22.6093 11 20.9525 11H1C0.447716 11 0 10.5523 0 10V5Z" fill="#183D66"/>
<rect x="6.07129" y="15" width="12" height="2" rx="1" fill="white"/>
<rect x="6.07129" y="19" width="8" height="2" rx="1" fill="white"/>
<rect x="6.07129" y="23" width="12" height="2" rx="1" fill="white"/>
</svg>
