<svg width="24" height="29" viewBox="0 0 24 29" fill="none" xmlns="http://www.w3.org/2000/svg">
<path d="M0.000160217 9.4V5.9C0.000160217 3.198 2.21224 1 4.93155 1L19.0212 1C21.7406 1 23.9526 3.198 23.9526 5.9V6.81C23.9526 9.008 22.1492 10.8 19.9371 10.8L1.40913 10.8C0.634195 10.8 0.000160217 10.17 0.000160217 9.4ZM7.04501 29L16.9078 29C22.5437 29 23.9526 27.6 23.9526 22L23.9526 11.388C22.8818 12.326 21.4729 12.9 19.9371 12.9L1.40913 12.9C0.634195 12.9 0.000160217 13.53 0.000160217 14.3L0.000160217 22C0.000160217 27.6 1.40913 29 7.04501 29ZM10.5674 16.75H17.6123C18.19 16.75 18.669 17.226 18.669 17.8C18.669 18.374 18.19 18.85 17.6123 18.85H10.5674C9.98975 18.85 9.5107 18.374 9.5107 17.8C9.5107 17.226 9.98975 16.75 10.5674 16.75ZM6.34052 21.65H17.6123C18.19 21.65 18.669 22.126 18.669 22.7C18.669 23.274 18.19 23.75 17.6123 23.75H6.34052C5.76284 23.75 5.28379 23.274 5.28379 22.7C5.28379 22.126 5.76284 21.65 6.34052 21.65Z" fill="#E05656"/>
<path d="M0 5C0 2.23858 2.23858 0 5 0H18.9525C21.7139 0 23.9525 2.23858 23.9525 5V8C23.9525 9.65685 22.6093 11 20.9525 11H1C0.447716 11 0 10.5523 0 10V5Z" fill="#EB4949"/>
<path d="M1.07118 22.4991C0.671176 22.0991 3.57118 17.6657 5.07118 15.4991C6.40451 15.1657 9.17117 14.4991 9.57117 14.4991C10.0712 14.4991 15.5712 14.9991 16.5712 14.4991C17.5712 13.9991 20.0712 15.4991 20.5712 15.9991C21.0712 16.4991 22.0712 18.9991 22.5712 19.4991C23.0712 19.9991 22.5712 24.4991 22.5712 24.9991C22.5712 25.4991 17.0712 25.9991 16.0712 26.4991C15.0712 26.9991 7.57117 25.4991 7.07117 25.4991C6.57117 25.4991 1.57118 22.9991 1.07118 22.4991Z" fill="#E05656"/>
<rect x="9.07129" y="25" width="9" height="2" rx="1" transform="rotate(-90 9.07129 25)" fill="white"/>
<rect x="13.0713" y="25" width="9" height="2" rx="1" transform="rotate(-90 13.0713 25)" fill="white"/>
</svg>
