<svg width="29" height="34" viewBox="0 0 29 34" fill="none" xmlns="http://www.w3.org/2000/svg">
<g clip-path="url(#clip0_39_6574)">
<path d="M14.5206 -0.00102225C20.2741 -0.0178251 24.9793 4.23526 25.497 9.67641C25.6809 11.6048 25.2461 13.4037 24.5515 15.167C23.5861 17.6182 22.2399 19.8688 20.7818 22.0571C19.2426 24.3519 17.5788 26.5626 15.7979 28.6794C15.56 28.9641 15.2982 29.1924 14.9044 29.2339C14.4047 29.2873 14.0439 29.0797 13.7351 28.71C11.3865 25.8971 9.20186 22.9674 7.31301 19.8303C6.1807 17.9523 5.2043 15.9992 4.50072 13.9147C2.60887 8.30649 5.92685 2.28218 11.4195 0.517888C12.4969 0.175902 13.5992 -0.00991786 14.5206 -0.00102225ZM14.7285 15.0098C15.599 15.0135 16.4511 14.7616 17.1767 14.286C17.9023 13.8104 18.4689 13.1325 18.8046 12.3382C19.1404 11.5439 19.2302 10.6688 19.0626 9.82399C18.8951 8.97914 18.4778 8.20247 17.8636 7.59238C17.2494 6.98228 16.4659 6.56622 15.6124 6.39688C14.7589 6.22755 13.8737 6.31257 13.0691 6.64117C12.2645 6.96978 11.5766 7.52718 11.0926 8.24276C10.6086 8.95835 10.3502 9.79992 10.3502 10.6609C10.3515 11.8108 10.8125 12.9136 11.6327 13.7287C12.4529 14.5438 13.5658 15.005 14.7285 15.0118V15.0098Z" fill="#D3D3D3"/>
<path d="M14.7545 31.6852C17.5958 31.6081 20.3981 31.3432 23.0914 30.4002C23.815 30.1482 24.4966 29.7706 25.1902 29.4306C25.3968 29.3148 25.5879 29.1736 25.7588 29.0105C26.5523 28.3187 26.5423 27.7503 25.7308 27.0881C24.7674 26.2974 23.6321 25.8744 22.4548 25.5067C21.9411 25.3475 21.6273 25.0125 21.5714 24.4708C21.5184 23.9658 21.7193 23.5506 22.178 23.3381C22.4298 23.2215 22.7776 23.1543 23.0355 23.2244C24.5246 23.6277 25.9337 24.2129 27.155 25.1805C27.4552 25.4216 27.728 25.6944 27.9685 25.9939C29.0198 27.2957 29.0128 28.8376 27.9605 30.1452C27.074 31.2463 25.8618 31.8759 24.5735 32.381C22.5058 33.1935 20.3421 33.6086 18.1344 33.8241C15.6472 34.0774 13.139 34.0502 10.658 33.743C8.09555 33.4168 5.58007 32.8979 3.31945 31.5873C2.69511 31.228 2.13105 30.7748 1.64746 30.2441C0.396216 28.8445 0.471172 27.1039 1.76139 25.736C2.68783 24.7535 3.86711 24.1684 5.10236 23.6781C5.50212 23.518 5.92186 23.3816 6.33861 23.2521C7.02919 23.0416 7.70178 23.3786 7.90066 24.0171C8.09954 24.6557 7.74176 25.2526 7.08016 25.5165C6.16972 25.8803 5.26127 26.2529 4.3818 26.6779C4.03301 26.845 3.72819 27.1346 3.45436 27.4163C3.0546 27.8294 3.0606 28.2327 3.42838 28.6755C3.97604 29.3347 4.72159 29.7143 5.48912 30.0503C7.14812 30.7758 8.90105 31.1633 10.686 31.3669C12.0381 31.5191 13.3983 31.5824 14.7545 31.6852Z" fill="#D3D3D3"/>
</g>
<defs>
<clipPath id="clip0_39_6574">
<rect width="28" height="34" fill="white" transform="translate(0.75)"/>
</clipPath>
</defs>
</svg>
