<svg width="33" height="31" viewBox="0 0 33 31" fill="none" xmlns="http://www.w3.org/2000/svg">
<rect width="32.8235" height="31" rx="2" fill="#FFFDBE"/>
<path d="M12.7611 9.02574C12.1945 9.02574 11.7353 9.48499 11.7353 10.0515C11.7353 10.618 12.1945 11.0772 12.7611 11.0772C13.3276 11.0772 13.7869 10.618 13.7869 10.0515C13.7869 9.48499 13.3276 9.02574 12.7611 9.02574ZM10.7096 10.0515C10.7096 8.91846 11.6281 8 12.7611 8C13.8941 8 14.8126 8.91846 14.8126 10.0515C14.8126 11.1845 13.8941 12.1029 12.7611 12.1029C11.6281 12.1029 10.7096 11.1845 10.7096 10.0515ZM10.2089 12.7868C9.54124 12.7868 9 13.328 9 13.9956V14.2414C8.99999 14.3838 8.99996 15.2048 9.47926 16.0026C9.85319 16.6249 10.4884 17.1838 11.5132 17.4343C11.654 17.0588 11.9106 16.74 12.2396 16.5213C11.1428 16.4039 10.6245 15.917 10.3585 15.4743C10.0275 14.9234 10.0257 14.3369 10.0257 14.2399V13.9956C10.0257 13.8945 10.1077 13.8125 10.2089 13.8125H13.1241C13.1702 13.4426 13.2902 13.0956 13.4689 12.7868H10.2089ZM18.2077 12.7868C18.3864 13.0956 18.5063 13.4426 18.5525 13.8125H21.4676C21.5687 13.8125 21.6507 13.8945 21.6507 13.9956V14.2399C21.6507 14.3369 21.649 14.9234 21.318 15.4743C21.052 15.917 20.5336 16.4039 19.4369 16.5213C19.7658 16.74 20.0225 17.0588 20.1632 17.4343C21.1881 17.1838 21.8233 16.6249 22.1972 16.0026C22.6765 15.2048 22.6765 14.3838 22.6765 14.2414V13.9956C22.6765 13.328 22.1352 12.7868 21.4676 12.7868H18.2077ZM17.8897 10.0515C17.8897 9.48499 18.349 9.02574 18.9155 9.02574C19.4821 9.02574 19.9412 9.48499 19.9412 10.0515C19.9412 10.618 19.4821 11.0772 18.9155 11.0772C18.349 11.0772 17.8897 10.618 17.8897 10.0515ZM18.9155 8C17.7825 8 16.864 8.91846 16.864 10.0515C16.864 11.1845 17.7825 12.1029 18.9155 12.1029C20.0485 12.1029 20.967 11.1845 20.967 10.0515C20.967 8.91846 20.0485 8 18.9155 8ZM15.8383 13.1287C15.2718 13.1287 14.8125 13.5879 14.8125 14.1544C14.8125 14.7209 15.2718 15.1801 15.8383 15.1801C16.4049 15.1801 16.864 14.7209 16.864 14.1544C16.864 13.5879 16.4049 13.1287 15.8383 13.1287ZM13.7868 14.1544C13.7868 13.0214 14.7053 12.1029 15.8383 12.1029C16.9713 12.1029 17.8898 13.0214 17.8898 14.1544C17.8898 15.2874 16.9713 16.2059 15.8383 16.2059C14.7053 16.2059 13.7868 15.2874 13.7868 14.1544ZM12.0772 18.0986C12.0772 17.431 12.6184 16.8897 13.2861 16.8897H18.3904C19.058 16.8897 19.5993 17.431 19.5993 18.0986V18.3443C19.5993 18.4868 19.5993 19.3077 19.12 20.1055C18.6131 20.9494 17.6258 21.6765 15.8382 21.6765C14.0507 21.6765 13.0634 20.9494 12.5565 20.1055C12.0772 19.3077 12.0772 18.4868 12.0772 18.3443V18.0986ZM13.2861 17.9154C13.1849 17.9154 13.1029 17.9974 13.1029 18.0986V18.3428C13.1029 18.4399 13.1047 19.0263 13.4357 19.5773C13.7408 20.085 14.3776 20.6507 15.8382 20.6507C17.2989 20.6507 17.9357 20.085 18.2408 19.5773C18.5718 19.0263 18.5735 18.4399 18.5735 18.3428V18.0986C18.5735 17.9974 18.4915 17.9154 18.3904 17.9154H13.2861Z" fill="#BAB300"/>
</svg>
