<svg width="14" height="16" viewBox="0 0 14 16" fill="none" xmlns="http://www.w3.org/2000/svg">
<path d="M5.30461 15.6773C5.22915 15.6773 5.15385 15.6569 5.08724 15.6165C4.96202 15.5407 4.88572 15.4046 4.88572 15.2584V9.00058L0.0721709 1.90635C-0.00563147 1.79165 -0.0216597 1.64572 0.0295963 1.51666L0.526808 0.264296C0.590253 0.104683 0.744354 0 0.915991 0H12.2087C12.3839 0 12.541 0.109192 12.6017 0.273644L13.0649 1.52601C13.1118 1.6534 13.0943 1.79532 13.018 1.90735L8.17621 9.00115V13.984C8.17621 14.1402 8.0894 14.2836 7.95049 14.3556L5.49751 15.6302C5.4369 15.6619 5.37062 15.6774 5.30434 15.6774L5.30461 15.6773ZM0.889845 1.61916L5.65125 8.63646C5.69833 8.70591 5.72354 8.78773 5.72354 8.87154V14.5686L7.3387 13.7294L7.33853 8.87141C7.33853 8.78709 7.36391 8.70512 7.41149 8.63533L12.2037 1.61333L11.917 0.837315L1.2 0.837482L0.889845 1.61916Z" fill="#4F52B2"/>
</svg>
