<svg width="13" height="14" viewBox="0 0 13 14" fill="none" xmlns="http://www.w3.org/2000/svg">
<path d="M4.72727 5.83333V10.5C4.72727 10.8222 4.99183 11.0833 5.31818 11.0833C5.64453 11.0833 5.90909 10.8222 5.90909 10.5L5.90909 5.83333C5.90909 5.51117 5.64453 5.25 5.31818 5.25C4.99183 5.25 4.72727 5.51117 4.72727 5.83333ZM7.68182 5.25C8.00817 5.25 8.27273 5.51117 8.27273 5.83333V10.5C8.27273 10.8222 8.00817 11.0833 7.68182 11.0833C7.35547 11.0833 7.09091 10.8222 7.09091 10.5V5.83333C7.09091 5.51117 7.35547 5.25 7.68182 5.25ZM8.86364 2.33333H12.4091C12.7354 2.33333 13 2.5945 13 2.91667C13 3.23883 12.7354 3.5 12.4091 3.5H11.7562L10.8664 11.4054C10.7001 12.8825 9.43538 14 7.92989 14H5.07009C3.56461 14 2.29987 12.8825 2.13362 11.4054L1.24383 3.5H0.590909C0.264559 3.5 0 3.23883 0 2.91667C0 2.5945 0.264559 2.33333 0.590909 2.33333H4.13636C4.13636 1.04467 5.1946 0 6.5 0C7.8054 0 8.86364 1.04467 8.86364 2.33333ZM6.5 1.16667C5.8473 1.16667 5.31818 1.689 5.31818 2.33333H7.68182C7.68182 1.689 7.1527 1.16667 6.5 1.16667ZM2.43292 3.5L3.30821 11.2766C3.40796 12.1628 4.1668 12.8333 5.07009 12.8333H7.92989C8.83318 12.8333 9.59202 12.1628 9.69178 11.2766L10.5671 3.5H2.43292Z" fill="#DE0000"/>
</svg>
