<svg width="11" height="11" viewBox="0 0 11 11" fill="none" xmlns="http://www.w3.org/2000/svg">
<path d="M2.95657 5.89316C2.80993 5.74434 2.80993 5.50331 2.95657 5.35449C3.02976 5.28008 3.126 5.24288 3.22197 5.24288C3.31807 5.24288 3.41404 5.28008 3.48736 5.35449L5.25138 7.14484L5.25151 0.587972C5.25151 0.377634 5.41962 0.207031 5.62687 0.207031C5.83413 0.207031 6.00224 0.37764 6.00224 0.587972L6.00211 7.14484L7.76234 5.3586C7.90898 5.20979 8.14675 5.20979 8.29313 5.3586C8.43977 5.50742 8.43977 5.74846 8.29313 5.89728L5.89227 8.33351C5.87473 8.35132 5.85548 8.36726 5.83466 8.38121C5.82576 8.38733 5.81607 8.39131 5.80677 8.39663C5.7946 8.40341 5.78294 8.41085 5.76998 8.41629C5.75781 8.42148 5.7451 8.4244 5.73253 8.42812C5.72167 8.43144 5.71132 8.43569 5.69993 8.43795C5.65136 8.44778 5.60147 8.44778 5.5529 8.43795C5.54164 8.43569 5.53117 8.43144 5.5203 8.42812C5.50773 8.4244 5.49503 8.42148 5.48285 8.41629C5.46989 8.41085 5.45824 8.4034 5.44606 8.39663C5.43676 8.39145 5.42708 8.38733 5.41817 8.38121C5.39749 8.36713 5.37811 8.35132 5.36056 8.33351L2.95605 5.89316L2.95657 5.89316ZM1.00037 10.207L10.2496 10.207C10.4569 10.207 10.625 10.0364 10.625 9.82609C10.625 9.61576 10.4569 9.44515 10.2496 9.44515L1.00037 9.44515C0.793106 9.44515 0.625 9.61576 0.625 9.82609C0.625 10.0364 0.793113 10.207 1.00037 10.207Z" fill="#616161"/>
</svg>
