<svg width="20" height="21" viewBox="0 0 20 21" fill="none" xmlns="http://www.w3.org/2000/svg">
<path d="M19.0656 1.43442C17.8199 0.188568 15.8001 0.188522 14.5542 1.43431L2.23031 13.7578C1.92861 14.0595 1.70129 14.4273 1.56637 14.8321L0.0427833 19.4031C-0.0570243 19.7026 0.0209052 20.0327 0.244082 20.2559C0.467258 20.4791 0.797373 20.557 1.0968 20.4572L5.66768 18.9335C6.07234 18.7986 6.44004 18.5714 6.74167 18.2697L19.0655 5.94628C20.3114 4.70041 20.3115 2.68035 19.0656 1.43442ZM15.7326 2.61286C16.3276 2.01788 17.2922 2.0179 17.8872 2.61291C18.4822 3.20795 18.4822 4.17272 17.8872 4.76774L16.6643 5.99052L14.5097 3.83573L15.7326 2.61286ZM13.3312 5.01417L15.4859 7.16895L5.5633 17.0912C5.44461 17.2099 5.29991 17.2993 5.14068 17.3524L2.15081 18.3491L3.14739 15.3591C3.20049 15.1998 3.28995 15.0551 3.40868 14.9364L13.3312 5.01417Z" fill="#5B5FC7"/>
</svg>
