<svg width="20" height="20" viewBox="0 0 20 20" fill="none" xmlns="http://www.w3.org/2000/svg">
<path d="M4.97485 6.29412C4.97485 5.15706 5.9262 4.23529 7.09975 4.23529C8.27329 4.23529 9.22464 5.15706 9.22464 6.29412C9.22464 7.43117 8.27329 8.35294 7.09975 8.35294C5.9262 8.35294 4.97485 7.43117 4.97485 6.29412ZM7.09975 3C5.22207 3 3.69992 4.47483 3.69992 6.29412C3.69992 8.11338 5.22207 9.58824 7.09975 9.58824C8.97739 9.58824 10.4996 8.11338 10.4996 6.29412C10.4996 4.47483 8.97739 3 7.09975 3ZM13.4744 7.11765C13.4744 6.43541 14.0453 5.88235 14.7494 5.88235C15.4535 5.88235 16.0243 6.43541 16.0243 7.11765C16.0243 7.79988 15.4535 8.35294 14.7494 8.35294C14.0453 8.35294 13.4744 7.79988 13.4744 7.11765ZM14.7494 4.64706C13.3411 4.64706 12.1995 5.75318 12.1995 7.11765C12.1995 8.48215 13.3411 9.58824 14.7494 9.58824C16.1577 9.58824 17.2992 8.48215 17.2992 7.11765C17.2992 5.75318 16.1577 4.64706 14.7494 4.64706ZM12.4106 15.384C13.0075 15.6191 13.7734 15.7647 14.7502 15.7647C16.6901 15.7647 17.7979 15.1905 18.4024 14.4817C18.6957 14.1377 18.845 13.7905 18.9207 13.5243C18.9584 13.3914 18.9782 13.2776 18.9885 13.1928C18.9937 13.1503 18.9966 13.1147 18.9981 13.0872C18.9989 13.0734 18.9994 13.0616 18.9997 13.0519L18.9999 13.0391L19 13.0338V13.0315V13.0294C19 12.0386 18.171 11.2353 17.1483 11.2353H12.3521C12.3288 11.2353 12.3056 11.2357 12.2825 11.2365C12.6173 11.5751 12.8614 11.9987 12.9764 12.4706H17.1483C17.4641 12.4706 17.7206 12.7165 17.725 13.0214C17.7247 13.0261 17.724 13.0351 17.7224 13.048C17.7186 13.0789 17.7102 13.1306 17.6915 13.1963C17.6543 13.3272 17.5778 13.5093 17.4196 13.6948C17.121 14.0448 16.4227 14.5294 14.7502 14.5294C13.9172 14.5294 13.3259 14.4092 12.9051 14.2453C12.8141 14.5748 12.6629 14.9723 12.4106 15.384ZM3.9124 11.2353C2.85621 11.2353 2 12.0649 2 13.0882V13.295V13.2959L2.00001 13.2981L2.00006 13.3033L2.0003 13.3169C2.00054 13.3276 2.00099 13.3411 2.00178 13.3576C2.00337 13.3904 2.00633 13.4345 2.01188 13.4883C2.02296 13.5956 2.04448 13.7429 2.0864 13.917C2.16995 14.2639 2.33704 14.7274 2.67302 15.1924C3.36899 16.1558 4.69588 17 7.09975 17C9.5036 17 10.8305 16.1558 11.5265 15.1924C11.8625 14.7274 12.0296 14.2639 12.113 13.917C12.155 13.7429 12.1765 13.5956 12.1876 13.4883C12.1932 13.4345 12.1961 13.3904 12.1977 13.3576C12.1985 13.3411 12.199 13.3276 12.1992 13.3169L12.1994 13.3033L12.1995 13.2981V13.2959V13.0882C12.1995 12.0649 11.3432 11.2353 10.2871 11.2353H3.9124ZM3.27534 13.3L3.27494 13.2898V13.0882C3.27494 12.7471 3.56034 12.4706 3.9124 12.4706H10.2871C10.6391 12.4706 10.9246 12.7471 10.9246 13.0882V13.2897L10.9241 13.3C10.9235 13.3124 10.9222 13.3347 10.919 13.3654C10.9127 13.4269 10.8993 13.5208 10.8715 13.6363C10.8156 13.8684 10.7038 14.177 10.482 14.484C10.0624 15.0648 9.15817 15.7647 7.09975 15.7647C5.04133 15.7647 4.13708 15.0648 3.71748 14.484C3.49568 14.177 3.38388 13.8684 3.32798 13.6363C3.30018 13.5208 3.28684 13.4269 3.28049 13.3654C3.27732 13.3347 3.27593 13.3124 3.27534 13.3Z" fill="#9C9C9C"/>
</svg>
