<svg width="24" height="24" viewBox="0 0 24 24" fill="none" xmlns="http://www.w3.org/2000/svg">
<path d="M11.9984 9.18952C12.4649 7.3407 14.227 6.39667 18.0635 6.3794C18.1248 6.37917 18.1856 6.39112 18.2423 6.41458C18.299 6.43803 18.3505 6.47252 18.3939 6.51606C18.4373 6.55959 18.4716 6.61132 18.495 6.66825C18.5183 6.72517 18.5303 6.78618 18.53 6.84775V15.2781C18.53 15.4023 18.4809 15.5215 18.3934 15.6093C18.3059 15.6971 18.1872 15.7465 18.0635 15.7465C14.3311 15.7465 12.8892 16.502 11.9984 17.6199C11.1128 16.5076 9.66565 15.7465 5.93329 15.7465C5.64519 15.7465 5.46674 15.5108 5.46674 15.2216V6.84775C5.46651 6.78618 5.47842 6.72517 5.50178 6.66825C5.52515 6.61132 5.5595 6.55959 5.60287 6.51606C5.64624 6.47252 5.69776 6.43803 5.75447 6.41458C5.81118 6.39112 5.87195 6.37917 5.93329 6.3794C9.76975 6.39667 11.5318 7.3407 11.9984 9.18952Z" stroke="#242424" stroke-width="0.940902" stroke-linecap="round" stroke-linejoin="round"/>
<path d="M11.9987 9.18994V17.6203" stroke="#242424" stroke-width="0.940902" stroke-linecap="round" stroke-linejoin="round"/>
<circle cx="12" cy="12" r="11.5443" stroke="#242424" stroke-width="0.911392"/>
</svg>
