<svg width="24" height="24" viewBox="0 0 24 24" fill="none" xmlns="http://www.w3.org/2000/svg">
<path d="M15.5813 11.9691L15.5819 11.9694C15.5899 11.9744 15.5949 11.9803 15.5978 11.9855C15.6007 11.9905 15.6017 11.9952 15.6017 11.9992C15.6017 12.0033 15.6007 12.008 15.5978 12.013C15.5949 12.0182 15.5899 12.0241 15.5819 12.0291L15.5813 12.0295L9.39949 15.8953C9.39947 15.8953 9.39946 15.8953 9.39944 15.8953C9.3908 15.9007 9.37969 15.9044 9.36731 15.9048C9.35491 15.9052 9.34327 15.9023 9.33383 15.8973C9.32448 15.8924 9.31848 15.886 9.31505 15.8804C9.31174 15.875 9.31058 15.87 9.31055 15.8657V15.8653V8.13388C9.31058 8.12962 9.31174 8.12458 9.31505 8.11916C9.31848 8.11355 9.32449 8.1072 9.33383 8.10224C9.34326 8.09724 9.3549 8.09434 9.36731 8.09477C9.37968 8.0952 9.39078 8.09885 9.39941 8.10422C9.39944 8.10424 9.39946 8.10426 9.39949 8.10427L15.5813 11.9691Z" stroke="#4F52B2"/>
<circle cx="12" cy="12" r="11.5443" stroke="#4F52B2" stroke-width="0.911392"/>
</svg>
