<svg width="42" height="49" viewBox="0 0 42 49" fill="none" xmlns="http://www.w3.org/2000/svg">
<path d="M8.34375 45.2248V45.2375C8.34375 46.7615 9.59358 48.001 11.1296 48.001H42.0003V42.4609L11.1296 42.4613C9.59358 42.4613 8.34375 43.7011 8.34375 45.2248V45.2248Z" fill="#4F52B2"/>
<path d="M27.5543 14.7012V16.832C27.5543 17.459 27.1523 18.0173 26.5542 18.2212L17.0508 21.4585V40.7228H41.9989V14.7013L27.5543 14.7012Z" fill="#4F52B2"/>
<path d="M8.68692 41.2695C9.45796 40.9072 10.2805 40.7232 11.1317 40.7232H14.0929V21.5012L8.38672 19.5469V41.4112L8.68692 41.2695Z" fill="#4F52B2"/>
<path d="M28.3456 4.67122L15.9559 0L2.90234 4.67497L15.9093 9.3462L28.3456 4.67122Z" fill="#4F52B2"/>
<path d="M24.5968 15.7838V9.22399L16.4514 12.2859C16.1205 12.4102 15.7549 12.4132 15.4222 12.2934L6.48047 9.08203V15.7852L15.5111 18.8784L24.5968 15.7838Z" fill="#4F52B2"/>
<path d="M0 19.0703H3.38203V22.4536H0V19.0703Z" fill="#4F52B2"/>
<path d="M0 6.86523H3.38203V16.4299H0V6.86523Z" fill="#4F52B2"/>
</svg>
