<svg width="94" height="94" viewBox="0 0 94 94" fill="none" xmlns="http://www.w3.org/2000/svg">
<path d="M47.6678 85.2749C68.9069 85.2749 86.1246 68.0734 86.1246 46.8542C86.1246 25.6351 68.9069 8.43359 47.6678 8.43359C26.4287 8.43359 9.21094 25.6351 9.21094 46.8542C9.21094 68.0734 26.4287 85.2749 47.6678 85.2749Z" fill="url(#paint0_linear_149_350)"/>
<path d="M66.7348 13.457H28.0109C26.5701 13.457 25.1882 14.0289 24.1694 15.0468C23.1505 16.0647 22.5781 17.4452 22.5781 18.8847V62.9696H22.6445V78.4506C22.6445 79.0483 22.7978 79.6361 23.0897 80.1578C23.3817 80.6796 23.8027 81.1179 24.3124 81.4309C24.8221 81.7439 25.4037 81.9211 26.0015 81.9457C26.5993 81.9704 27.1934 81.8415 27.7272 81.5715L45.5891 72.5253C46.0757 72.2816 46.6126 72.1546 47.157 72.1546C47.7014 72.1546 48.2383 72.2816 48.725 72.5253L67.1362 81.6378C67.6703 81.9022 68.2632 82.026 68.8586 81.9974C69.4541 81.9688 70.0324 81.7888 70.5387 81.4744C71.045 81.1601 71.4625 80.7218 71.7518 80.201C72.0411 79.6803 72.1925 79.0944 72.1917 78.4988L72.1434 62.9696V18.8696C72.1394 17.4369 71.5686 16.0639 70.5554 15.0499C69.5422 14.036 68.1688 13.4634 66.7348 13.457V13.457Z" fill="url(#paint1_linear_149_350)"/>
<path d="M48.8026 22.0985L53.1005 30.7979C53.228 31.0558 53.4163 31.2789 53.6492 31.4481C53.8821 31.6172 54.1527 31.7273 54.4376 31.7688L64.0446 33.1529C64.3699 33.2027 64.675 33.3417 64.9259 33.5545C65.1768 33.7672 65.3636 34.0454 65.4656 34.358C65.5676 34.6706 65.5808 35.0053 65.5036 35.325C65.4264 35.6446 65.262 35.9365 65.0285 36.1683L58.0866 42.9378C57.8802 43.1385 57.7258 43.3865 57.6369 43.6602C57.5481 43.934 57.5273 44.2253 57.5765 44.5088L59.2185 54.0676C59.2748 54.3944 59.2383 54.7304 59.1133 55.0376C58.9883 55.3448 58.7798 55.6109 58.5112 55.8058C58.2426 56.0007 57.9248 56.1166 57.5937 56.1403C57.2627 56.164 56.9315 56.0947 56.6379 55.9401L48.045 51.4171C47.7899 51.2834 47.5061 51.2136 47.218 51.2136C46.9299 51.2136 46.6461 51.2834 46.391 51.4171L37.7981 55.9401C37.5045 56.0939 37.1738 56.1625 36.8432 56.1384C36.5126 56.1142 36.1954 55.9982 35.9273 55.8035C35.6592 55.6087 35.451 55.343 35.3261 55.0362C35.2012 54.7295 35.1647 54.394 35.2206 54.0676L36.8594 44.5088C36.9087 44.2253 36.8879 43.934 36.7991 43.6602C36.7102 43.3865 36.5558 43.1385 36.3494 42.9378L29.4074 36.1683C29.174 35.9365 29.0096 35.6446 28.9324 35.325C28.8552 35.0053 28.8684 34.6706 28.9704 34.358C29.0724 34.0454 29.2592 33.7672 29.5101 33.5545C29.761 33.3417 30.0661 33.2027 30.3914 33.1529L39.9984 31.7598C40.2833 31.7182 40.5539 31.6081 40.7868 31.439C41.0197 31.2699 41.208 31.0468 41.3355 30.7888L45.6334 22.0895C45.783 21.7977 46.0104 21.553 46.2906 21.3825C46.5708 21.2119 46.8927 21.1221 47.2208 21.1231C47.5488 21.124 47.8703 21.2156 48.1494 21.3878C48.4286 21.5599 48.6547 21.8059 48.8026 22.0985Z" fill="url(#paint2_linear_149_350)"/>
<path d="M79.1104 37.5621C78.9997 37.1287 79.4003 36.7381 79.8313 36.8592L82.7385 37.6754C83.1696 37.7964 83.3079 38.3382 82.9875 38.6506L80.8263 40.7579C80.5059 41.0703 79.9671 40.9191 79.8565 40.4856L79.1104 37.5621Z" fill="url(#paint3_linear_149_350)"/>
<path d="M11.9619 37.5621C11.8513 37.1287 12.2518 36.7381 12.6829 36.8592L15.5901 37.6754C16.0212 37.7964 16.1594 38.3382 15.839 38.6506L13.6779 40.7579C13.3575 41.0703 12.8186 40.9191 12.708 40.4856L11.9619 37.5621Z" fill="url(#paint4_linear_149_350)"/>
<path d="M34.5403 2.80652C34.7123 2.09481 35.7246 2.09481 35.8966 2.80652L36.4749 5.20001C36.5364 5.4544 36.735 5.65299 36.9894 5.71435L39.3826 6.2915C40.0947 6.46324 40.0947 7.47614 39.3826 7.64788L36.9894 8.22503C36.735 8.28639 36.5364 8.48498 36.4749 8.73937L35.8966 11.1329C35.7246 11.8446 34.7123 11.8446 34.5403 11.1329L33.962 8.73937C33.9005 8.48498 33.7019 8.28639 33.4475 8.22503L31.0543 7.64788C30.3422 7.47614 30.3422 6.46324 31.0543 6.2915L33.4474 5.71435C33.7019 5.65299 33.9005 5.4544 33.962 5.20001L34.5403 2.80652Z" fill="url(#paint5_linear_149_350)"/>
<path d="M50.1882 79.5699C50.1882 80.4514 49.4728 81.1667 48.5894 81.1667C47.7061 81.1667 46.9907 80.4514 46.9907 79.5699C46.9907 78.6884 47.7061 77.9731 48.5894 77.9731C49.4728 77.9731 50.1882 78.6884 50.1882 79.5699Z" stroke="url(#paint6_linear_149_350)" stroke-width="0.872039"/>
<path d="M78.7122 66.4042C78.8842 65.6925 79.8965 65.6925 80.0684 66.4042L80.6468 68.7977C80.7082 69.0521 80.9069 69.2507 81.1613 69.312L83.5545 69.8892C84.2666 70.0609 84.2666 71.0738 83.5545 71.2455L81.1613 71.8227C80.9069 71.884 80.7082 72.0826 80.6468 72.337L80.0684 74.7305C79.8965 75.4422 78.8842 75.4422 78.7122 74.7305L78.1339 72.337C78.0724 72.0826 77.8737 71.884 77.6193 71.8227L75.2262 71.2455C74.5141 71.0738 74.5141 70.0609 75.2262 69.8892L77.6193 69.312C77.8737 69.2507 78.0724 69.0521 78.1339 68.7977L78.7122 66.4042Z" fill="url(#paint7_linear_149_350)"/>
<path d="M83.0241 56.3375C83.0241 57.219 82.3087 57.9343 81.4254 57.9343C80.542 57.9343 79.8266 57.219 79.8266 56.3375C79.8266 55.456 80.542 54.7407 81.4254 54.7407C82.3087 54.7407 83.0241 55.456 83.0241 56.3375Z" stroke="url(#paint8_linear_149_350)" stroke-width="0.872039"/>
<path d="M47 94C72.9574 94 94 72.9574 94 47C94 21.0426 72.9574 0 47 0C21.0426 0 0 21.0426 0 47C0 72.9574 21.0426 94 47 94Z" fill="url(#paint9_linear_149_350)"/>
<defs>
<linearGradient id="paint0_linear_149_350" x1="48" y1="-60.499" x2="50.4961" y2="296.001" gradientUnits="userSpaceOnUse">
<stop stop-color="#E9E6FF"/>
<stop offset="1" stop-color="#9388FD"/>
</linearGradient>
<linearGradient id="paint1_linear_149_350" x1="75" y1="90" x2="28.0655" y2="20.4558" gradientUnits="userSpaceOnUse">
<stop stop-color="#8478FD"/>
<stop offset="1" stop-color="#EDEAFF"/>
</linearGradient>
<linearGradient id="paint2_linear_149_350" x1="32.5" y1="28.5" x2="62.954" y2="77.5286" gradientUnits="userSpaceOnUse">
<stop stop-color="#F9F7FF"/>
<stop offset="0.70369" stop-color="#796DFD"/>
</linearGradient>
<linearGradient id="paint3_linear_149_350" x1="78.8615" y1="36.5869" x2="82.9181" y2="40.7472" gradientUnits="userSpaceOnUse">
<stop stop-color="#70A8FF"/>
<stop offset="1" stop-color="#5597FD"/>
</linearGradient>
<linearGradient id="paint4_linear_149_350" x1="11.713" y1="36.5869" x2="15.7697" y2="40.7472" gradientUnits="userSpaceOnUse">
<stop stop-color="#70A8FF"/>
<stop offset="1" stop-color="#5597FD"/>
</linearGradient>
<linearGradient id="paint5_linear_149_350" x1="35.2184" y1="0" x2="35.2184" y2="13.9394" gradientUnits="userSpaceOnUse">
<stop stop-color="#70A8FF"/>
<stop offset="1" stop-color="#5597FD"/>
</linearGradient>
<linearGradient id="paint6_linear_149_350" x1="46.0884" y1="78.2994" x2="52.4418" y2="83.8109" gradientUnits="userSpaceOnUse">
<stop stop-color="#94BFFF"/>
<stop offset="1" stop-color="#4C94FE"/>
</linearGradient>
<linearGradient id="paint7_linear_149_350" x1="79.3903" y1="63.5977" x2="79.3903" y2="77.537" gradientUnits="userSpaceOnUse">
<stop stop-color="#70A8FF"/>
<stop offset="1" stop-color="#5597FD"/>
</linearGradient>
<linearGradient id="paint8_linear_149_350" x1="78.9243" y1="55.067" x2="85.2778" y2="60.5785" gradientUnits="userSpaceOnUse">
<stop stop-color="#94BFFF"/>
<stop offset="1" stop-color="#4C94FE"/>
</linearGradient>
<linearGradient id="paint9_linear_149_350" x1="46.6377" y1="-15.3044" x2="47" y2="223" gradientUnits="userSpaceOnUse">
<stop stop-color="#CAE0FF" stop-opacity="0"/>
<stop offset="1" stop-color="#BCD8FF"/>
</linearGradient>
</defs>
</svg>
