<svg width="80" height="133" viewBox="0 0 80 133" fill="none" xmlns="http://www.w3.org/2000/svg">
<circle cx="13.5" cy="66.5" r="66.5" fill="#E0EFEC" fill-opacity="0.62"/>
<path d="M27.1857 39.2828C29.066 37.0747 31.8343 35.6552 34.6547 35.182C35.9605 34.9717 37.2663 34.9192 38.572 35.1557C39.7995 35.366 41.0269 35.9181 42.1237 36.5227C42.646 36.8118 43.1422 37.1535 43.6123 37.4953C44.213 37.9422 44.8136 38.389 45.362 38.8885C46.4067 39.8611 47.0857 41.2017 47.5296 42.5424C47.9997 43.9619 48.2086 45.4602 48.287 46.9323C48.3653 48.5621 48.3131 50.2707 47.9997 51.8742C47.6602 53.5303 46.8506 55.1075 45.4143 56.0539C44.1607 56.8687 42.5938 56.9739 41.288 56.2116C40.1128 55.5281 39.2771 54.2926 38.9115 53.0046C38.5198 51.5851 38.7548 50.113 39.46 48.8249C40.9485 46.1174 44.1607 44.5139 47.0857 44.0144C48.6004 43.7516 50.2195 43.7516 51.7081 44.2247C53.3011 44.7505 54.5808 45.802 55.4948 47.2214C56.4611 48.7461 57.0617 50.5073 57.6363 52.1897C58.2631 54.0035 58.8115 55.8436 59.2293 57.7099C60.0911 61.4164 60.5873 65.228 60.7179 69.0396C60.744 69.9859 60.744 70.906 60.7179 71.8523C60.6918 72.6935 59.386 72.6935 59.4121 71.8523C59.5688 64.7548 58.3414 57.6574 55.8343 51.0331C55.2859 49.5873 54.6852 48.0363 53.6145 46.906C52.6744 45.9071 51.3947 45.3551 50.0628 45.1973C48.6526 45.0396 47.2162 45.2236 45.8844 45.6442C44.6047 46.0385 43.325 46.6431 42.2804 47.5106C41.2619 48.3518 40.4262 49.4295 40.1128 50.7439C39.8517 51.8217 40.1651 53.0308 40.7657 53.9772C41.3664 54.8709 42.2804 55.5018 43.325 55.4493C44.6308 55.3704 45.6493 54.2926 46.1977 53.1623C46.9028 51.7165 46.929 49.9553 46.9812 48.3781C47.0073 47.09 46.9029 45.7757 46.6678 44.4876C46.4067 43.2258 46.0149 41.9641 45.3098 40.86C44.6308 39.8085 43.5601 39.0725 42.5677 38.3364C41.6275 37.653 40.5829 37.1535 39.4861 36.7592C38.4676 36.3649 37.5013 36.2861 36.4045 36.3124C33.9757 36.3912 31.4425 37.285 29.51 38.8359C28.9877 39.2565 28.5437 39.7034 28.0998 40.2028C27.8647 40.4657 27.4208 40.4394 27.1857 40.2028C26.9246 39.94 26.9507 39.5457 27.1857 39.2828Z" fill="black"/>
<path d="M53.0992 60.4444C54.4834 63.3885 56.1026 66.2013 57.9046 68.9089C58.3485 69.566 58.8186 70.2495 59.2887 70.8804C59.4715 71.117 59.6543 71.4324 59.9155 71.6164C60.0983 71.7479 60.1506 71.6953 60.2811 71.5113C60.4901 71.2484 60.6468 70.9592 60.8035 70.6701C61.0124 70.3283 61.1952 69.9603 61.378 69.5923C61.7436 68.9088 62.057 68.1991 62.3443 67.4631C62.9711 65.8333 63.4412 64.1246 63.7285 62.4159C63.7807 62.0742 64.2247 61.8639 64.538 61.969C64.9037 62.0742 65.0604 62.4159 64.982 62.7839C64.6947 64.4663 64.2508 66.1224 63.624 67.7259C63.3106 68.5408 62.9711 69.3557 62.5793 70.1181C62.2137 70.8278 61.8481 71.5901 61.378 72.221C60.8557 72.9308 60.0461 73.2462 59.2626 72.7731C58.5575 72.3262 58.0874 71.485 57.6173 70.8278C56.5988 69.382 55.6325 67.8837 54.7445 66.359C53.7521 64.6503 52.8119 62.9154 51.9762 61.1278C51.8195 60.8124 51.8979 60.4181 52.2113 60.2341C52.4986 60.0238 52.9687 60.1289 53.0992 60.4444Z" fill="black"/>
</svg>
