<svg width="125" height="125" viewBox="0 0 125 125" fill="none" xmlns="http://www.w3.org/2000/svg">
<g opacity="0.4">
<path d="M62.4639 124C28.478 124 1 96.4497 1 62.4638C1 28.5503 28.478 1 62.4639 1C96.4498 1 124 28.5503 124 62.4638C124 96.4497 96.4498 124 62.4639 124Z" stroke="#263238"/>
<path d="M62.0668 120.032C30.5462 120.032 4.96753 94.453 4.96753 62.86C4.96753 31.3395 30.5462 5.76074 62.0668 5.76074C93.6598 5.76074 119.239 31.3395 119.239 62.86C119.239 94.453 93.6598 120.032 62.0668 120.032Z" stroke="#263238"/>
<path d="M63.2936 67.6585C61.3458 67.6585 59.7227 66.0536 59.7227 64.0474C59.7227 62.1215 61.3458 60.5166 63.2936 60.5166C65.3226 60.5166 66.8646 62.1215 66.8646 64.0474C66.8646 66.0536 65.3226 67.6585 63.2936 67.6585Z" fill="#263238"/>
<path d="M62.8964 27.9805V63.6901H33.5352" stroke="#263238" stroke-linecap="round" stroke-linejoin="round"/>
</g>
</svg>
