<svg width="12" height="12" viewBox="0 0 12 12" fill="none" xmlns="http://www.w3.org/2000/svg">
<path d="M6 0C9.31371 0 12 2.68629 12 6C12 9.31371 9.31371 12 6 12C2.68629 12 0 9.31371 0 6C0 2.68629 2.68629 0 6 0ZM6 1.2C3.34903 1.2 1.2 3.34903 1.2 6C1.2 8.65097 3.34903 10.8 6 10.8C8.65097 10.8 10.8 8.65097 10.8 6C10.8 3.34903 8.65097 1.2 6 1.2ZM5.4 3C5.69455 3 5.93953 3.21225 5.99033 3.49215L6 3.6V6H7.8C8.13137 6 8.4 6.26863 8.4 6.6C8.4 6.89455 8.18775 7.13953 7.90785 7.19033L7.8 7.2H5.4C5.10545 7.2 4.86047 6.98775 4.80967 6.70785L4.8 6.6V3.6C4.8 3.26863 5.06863 3 5.4 3Z" fill="#FE8F69"/>
</svg>
