<svg width="16" height="16" viewBox="0 0 16 16" fill="none" xmlns="http://www.w3.org/2000/svg">
<path d="M14.5001 13.7911L10.7241 10.0151C11.6314 8.92575 12.0839 7.52855 11.9873 6.11412C11.8908 4.6997 11.2526 3.37695 10.2057 2.42105C9.15867 1.46515 7.78347 0.949684 6.36612 0.981892C4.94877 1.0141 3.5984 1.5915 2.59593 2.59398C1.59345 3.59645 1.01605 4.94682 0.983845 6.36417C0.951637 7.78152 1.4671 9.15672 2.423 10.2037C3.37891 11.2507 4.70165 11.8888 6.11608 11.9854C7.5305 12.0819 8.9277 11.6295 10.017 10.7221L13.7931 14.4982L14.5001 13.7911ZM2.00012 6.49817C2.00012 5.60815 2.26404 4.73812 2.75851 3.9981C3.25297 3.25808 3.95578 2.6813 4.77804 2.34071C5.60031 2.00011 6.50511 1.911 7.37802 2.08463C8.25094 2.25826 9.05276 2.68685 9.6821 3.31618C10.3114 3.94552 10.74 4.74734 10.9137 5.62026C11.0873 6.49317 10.9982 7.39797 10.6576 8.22024C10.317 9.04251 9.7402 9.74531 9.00018 10.2398C8.26016 10.7342 7.39013 10.9982 6.50012 10.9982C5.30705 10.9968 4.16323 10.5223 3.3196 9.67868C2.47597 8.83506 2.00144 7.69123 2.00012 6.49817Z" fill="#161616"/>
</svg>
