<svg width="49" height="49" viewBox="0 0 49 49" fill="none" xmlns="http://www.w3.org/2000/svg">
<rect x="0.5" y="0.5" width="48" height="48" rx="3" fill="#2037B3"/>
<path fill-rule="evenodd" clip-rule="evenodd" d="M21.25 23.5V25.5C21.25 26.097 21.487 26.669 21.909 27.091C22.331 27.513 22.903 27.75 23.5 27.75H25.5C26.097 27.75 26.669 27.513 27.091 27.091C27.513 26.669 27.75 26.097 27.75 25.5V23.5C27.75 22.903 27.513 22.331 27.091 21.909C26.669 21.487 26.097 21.25 25.5 21.25H23.5C22.903 21.25 22.331 21.487 21.909 21.909C21.487 22.331 21.25 22.903 21.25 23.5ZM22.75 23.5C22.75 23.301 22.829 23.11 22.97 22.97C23.11 22.829 23.301 22.75 23.5 22.75H25.5C25.699 22.75 25.89 22.829 26.03 22.97C26.171 23.11 26.25 23.301 26.25 23.5V25.5C26.25 25.699 26.171 25.89 26.03 26.03C25.89 26.171 25.699 26.25 25.5 26.25H23.5C23.301 26.25 23.11 26.171 22.97 26.03C22.829 25.89 22.75 25.699 22.75 25.5V23.5Z" fill="white"/>
<path fill-rule="evenodd" clip-rule="evenodd" d="M13.75 16V18C13.75 18.597 13.987 19.169 14.409 19.591C14.831 20.013 15.403 20.25 16 20.25H18C18.597 20.25 19.169 20.013 19.591 19.591C20.013 19.169 20.25 18.597 20.25 18V16C20.25 15.403 20.013 14.831 19.591 14.409C19.169 13.987 18.597 13.75 18 13.75H16C15.403 13.75 14.831 13.987 14.409 14.409C13.987 14.831 13.75 15.403 13.75 16ZM15.25 16C15.25 15.801 15.329 15.61 15.47 15.47C15.61 15.329 15.801 15.25 16 15.25H18C18.199 15.25 18.39 15.329 18.53 15.47C18.671 15.61 18.75 15.801 18.75 16V18C18.75 18.199 18.671 18.39 18.53 18.53C18.39 18.671 18.199 18.75 18 18.75H16C15.801 18.75 15.61 18.671 15.47 18.53C15.329 18.39 15.25 18.199 15.25 18V16Z" fill="white"/>
<path fill-rule="evenodd" clip-rule="evenodd" d="M28.75 31V33C28.75 33.597 28.987 34.169 29.409 34.591C29.831 35.013 30.403 35.25 31 35.25H33C33.597 35.25 34.169 35.013 34.591 34.591C35.013 34.169 35.25 33.597 35.25 33V31C35.25 30.403 35.013 29.831 34.591 29.409C34.169 28.987 33.597 28.75 33 28.75H31C30.403 28.75 29.831 28.987 29.409 29.409C28.987 29.831 28.75 30.403 28.75 31ZM30.25 31C30.25 30.801 30.329 30.61 30.47 30.47C30.61 30.329 30.801 30.25 31 30.25H33C33.199 30.25 33.39 30.329 33.53 30.47C33.671 30.61 33.75 30.801 33.75 31V33C33.75 33.199 33.671 33.39 33.53 33.53C33.39 33.671 33.199 33.75 33 33.75H31C30.801 33.75 30.61 33.671 30.47 33.53C30.329 33.39 30.25 33.199 30.25 33V31Z" fill="white"/>
<path fill-rule="evenodd" clip-rule="evenodd" d="M19.5 17.75H32.5C32.832 17.75 33.149 17.882 33.384 18.116C33.618 18.351 33.75 18.668 33.75 19V22.5C33.75 22.832 33.618 23.149 33.384 23.384C33.149 23.618 32.832 23.75 32.5 23.75H29.5C29.086 23.75 28.75 24.086 28.75 24.5C28.75 24.914 29.086 25.25 29.5 25.25H32.5C33.229 25.25 33.929 24.96 34.445 24.445C34.96 23.929 35.25 23.229 35.25 22.5C35.25 21.417 35.25 20.083 35.25 19C35.25 18.271 34.96 17.571 34.445 17.055C33.929 16.54 33.229 16.25 32.5 16.25C28.416 16.25 19.5 16.25 19.5 16.25C19.086 16.25 18.75 16.586 18.75 17C18.75 17.414 19.086 17.75 19.5 17.75Z" fill="white"/>
<path fill-rule="evenodd" clip-rule="evenodd" d="M25.5 31.25H16.5C16.168 31.25 15.851 31.118 15.616 30.884C15.382 30.649 15.25 30.332 15.25 30C15.25 28.917 15.25 27.583 15.25 26.5C15.25 26.168 15.382 25.851 15.616 25.616C15.851 25.382 16.168 25.25 16.5 25.25H22C22.414 25.25 22.75 24.914 22.75 24.5C22.75 24.086 22.414 23.75 22 23.75H16.5C15.771 23.75 15.071 24.04 14.555 24.555C14.04 25.071 13.75 25.771 13.75 26.5V30C13.75 30.729 14.04 31.429 14.555 31.945C15.071 32.46 15.771 32.75 16.5 32.75H25.5C25.914 32.75 26.25 32.414 26.25 32C26.25 31.586 25.914 31.25 25.5 31.25Z" fill="white"/>
<path fill-rule="evenodd" clip-rule="evenodd" d="M32.0298 25.9702L30.5608 24.5002L32.0298 23.0302C32.3228 22.7382 32.3228 22.2622 32.0298 21.9702C31.7378 21.6772 31.2618 21.6772 30.9698 21.9702L28.9698 23.9702C28.6767 24.2632 28.6767 24.7372 28.9698 25.0302L30.9698 27.0302C31.2618 27.3232 31.7378 27.3232 32.0298 27.0302C32.3228 26.7382 32.3228 26.2622 32.0298 25.9702Z" fill="white"/>
<path fill-rule="evenodd" clip-rule="evenodd" d="M25.0297 34.5302L27.0297 32.5302C27.3227 32.2372 27.3227 31.7632 27.0297 31.4702L25.0297 29.4702C24.7377 29.1772 24.2617 29.1772 23.9698 29.4702C23.6768 29.7622 23.6768 30.2382 23.9698 30.5302L25.4387 32.0002L23.9698 33.4702C23.6768 33.7622 23.6768 34.2382 23.9698 34.5302C24.2617 34.8232 24.7377 34.8232 25.0297 34.5302Z" fill="white"/>
</svg>
