<svg width="49" height="49" viewBox="0 0 49 49" fill="none" xmlns="http://www.w3.org/2000/svg">
<rect x="0.5" y="0.5" width="48" height="48" rx="2" fill="#8A0FB5"/>
<path d="M30.6946 29.853C30.0119 29.86 29.3351 29.7266 28.7061 29.4611C28.0771 29.1955 27.5095 28.8034 27.0384 28.3092L24.5196 25.7092L22.0009 28.3092C21.018 29.2851 19.6891 29.8327 18.304 29.8327C16.919 29.8327 15.5901 29.2851 14.6071 28.3092C13.665 27.2605 13.144 25.9003 13.1446 24.4905C13.1353 23.0637 13.6902 21.6911 14.6884 20.6717C15.1671 20.189 15.7367 19.8059 16.3642 19.5445C16.9917 19.283 17.6648 19.1484 18.3446 19.1484C19.0245 19.1484 19.6976 19.283 20.3251 19.5445C20.9526 19.8059 21.5222 20.189 22.0009 20.6717L24.5196 23.2717L27.0384 20.6717C27.5171 20.189 28.0867 19.8059 28.7142 19.5445C29.3417 19.283 30.0148 19.1484 30.6946 19.1484C31.3745 19.1484 32.0476 19.283 32.6751 19.5445C33.3026 19.8059 33.8722 20.189 34.3509 20.6717C35.3291 21.7025 35.8744 23.0694 35.8744 24.4905C35.8744 25.9115 35.3291 27.2784 34.3509 28.3092C33.3772 29.2765 32.067 29.8297 30.6946 29.853ZM25.6571 24.4905L28.1759 27.1717C28.8462 27.8354 29.7514 28.2077 30.6946 28.2077C31.6379 28.2077 32.5431 27.8354 33.2134 27.1717C33.88 26.4378 34.2494 25.4819 34.2494 24.4905C34.2494 23.499 33.88 22.5431 33.2134 21.8092C32.5431 21.1455 31.6379 20.7732 30.6946 20.7732C29.7514 20.7732 28.8462 21.1455 28.1759 21.8092L25.6571 24.4905ZM18.3446 20.753C17.8744 20.744 17.4075 20.8333 16.9738 21.0152C16.5401 21.1971 16.1491 21.4675 15.8259 21.8092C15.1472 22.5371 14.7698 23.4953 14.7698 24.4905C14.7698 25.4857 15.1472 26.4438 15.8259 27.1717C16.4962 27.8354 17.4014 28.2077 18.3446 28.2077C19.2879 28.2077 20.1931 27.8354 20.8634 27.1717L23.3821 24.4905L20.8634 21.8092C20.1798 21.1631 19.2846 20.7877 18.3446 20.753Z" fill="white"/>
</svg>
