<svg width="49" height="49" viewBox="0 0 49 49" fill="none" xmlns="http://www.w3.org/2000/svg">
<rect x="0.5" y="0.5" width="48" height="48" rx="2" fill="#35A30E"/>
<g clip-path="url(#clip0_273_12464)">
<path d="M21.0574 30.1976L19.0275 28.302H27.9414L29.9713 30.1975L21.0574 30.1976ZM21.0574 23.5528L19.0275 25.4483H27.9414L29.9713 23.5528H21.0574ZM29.9707 20.6984L27.9414 18.8022H19.0281L21.0573 20.6984H29.9707ZM18.0896 22.5743L16.7486 21.2333L11.7767 26.2046C11.6884 26.2925 11.6185 26.397 11.571 26.5121C11.5236 26.6272 11.4994 26.7506 11.5 26.8751C11.5 27.1285 11.5982 27.3665 11.7767 27.545L16.7487 32.5169L18.0896 31.1766L13.7882 26.8751L18.0896 22.5743ZM37.2221 21.4554L32.252 16.4829L30.9117 17.8238L35.2106 22.1253L30.9117 26.4267L32.252 27.7671L37.2221 22.7964C37.3105 22.7083 37.3805 22.6036 37.4282 22.4883C37.4759 22.373 37.5003 22.2494 37.5 22.1247C37.4994 21.8713 37.4012 21.634 37.2221 21.4554Z" fill="white"/>
</g>
<defs>
<clipPath id="clip0_273_12464">
<rect width="26" height="26" fill="white" transform="translate(11.5 11.5)"/>
</clipPath>
</defs>
</svg>
