<svg width="49" height="49" viewBox="0 0 49 49" fill="none" xmlns="http://www.w3.org/2000/svg">
<rect x="0.5" y="0.5" width="48" height="48" rx="2" fill="#9E0C44"/>
<g clip-path="url(#clip0_273_12527)">
<path d="M21.5003 26.6426H14.2146C13.9872 26.6426 13.7692 26.733 13.6085 26.8937C13.4477 27.0544 13.3574 27.2725 13.3574 27.4998V34.7855C13.3574 35.0128 13.4477 35.2309 13.6085 35.3916C13.7692 35.5523 13.9872 35.6426 14.2146 35.6426H21.5003C21.7276 35.6426 21.9456 35.5523 22.1064 35.3916C22.2671 35.2309 22.3574 35.0128 22.3574 34.7855V27.4998C22.3574 27.2725 22.2671 27.0544 22.1064 26.8937C21.9456 26.733 21.7276 26.6426 21.5003 26.6426ZM34.786 26.6426H27.5003C27.273 26.6426 27.0549 26.733 26.8942 26.8937C26.7334 27.0544 26.6431 27.2725 26.6431 27.4998V34.7855C26.6431 35.0128 26.7334 35.2309 26.8942 35.3916C27.0549 35.5523 27.273 35.6426 27.5003 35.6426H34.786C35.0133 35.6426 35.2313 35.5523 35.3921 35.3916C35.5528 35.2309 35.6431 35.0128 35.6431 34.7855V27.4998C35.6431 27.2725 35.5528 27.0544 35.3921 26.8937C35.2313 26.733 35.0133 26.6426 34.786 26.6426ZM28.1517 13.3569H20.866C20.6387 13.3569 20.4206 13.4472 20.2599 13.608C20.0992 13.7687 20.0089 13.9867 20.0089 14.2141V21.4998C20.0089 21.7271 20.0992 21.9451 20.2599 22.1059C20.4206 22.2666 20.6387 22.3569 20.866 22.3569H28.1517C28.379 22.3569 28.5971 22.2666 28.7578 22.1059C28.9185 21.9451 29.0089 21.7271 29.0089 21.4998V14.2141C29.0089 13.9867 28.9185 13.7687 28.7578 13.608C28.5971 13.4472 28.379 13.3569 28.1517 13.3569Z" stroke="white" stroke-linecap="round" stroke-linejoin="round"/>
</g>
<defs>
<clipPath id="clip0_273_12527">
<rect width="24" height="24" fill="white" transform="translate(12.5 12.5)"/>
</clipPath>
</defs>
</svg>
