<svg width="49" height="49" viewBox="0 0 49 49" fill="none" xmlns="http://www.w3.org/2000/svg">
<rect y="0.5" width="49" height="48" rx="2" fill="#82A817"/>
<path d="M24.5005 15.8864C24.7286 15.8864 24.9132 15.7016 24.9132 15.4737V14.4265C25.593 14.2433 26.0972 13.6277 26.0972 12.8909C26.0972 12.0105 25.3811 11.2944 24.5005 11.2944C23.6204 11.2944 22.9043 12.0105 22.9043 12.8909C22.9043 13.6276 23.4084 14.2432 24.0879 14.4264V15.4737C24.0878 15.7016 24.2724 15.8864 24.5005 15.8864ZM23.7296 12.8909C23.7296 12.4658 24.0753 12.1198 24.5005 12.1198C24.9256 12.1198 25.2718 12.4658 25.2718 12.8909C25.2718 13.3161 24.9256 13.6621 24.5005 13.6621C24.0753 13.6621 23.7296 13.3161 23.7296 12.8909Z" fill="white"/>
<path d="M24.5006 33.1133C24.2725 33.1133 24.0879 33.298 24.0879 33.526V34.5733C23.4085 34.7565 22.9043 35.3721 22.9043 36.1088C22.9043 36.9891 23.6204 37.7053 24.5005 37.7053C25.3811 37.7053 26.0972 36.9891 26.0972 36.1088C26.0972 35.372 25.593 34.7564 24.9132 34.5732V33.526C24.9133 33.298 24.7287 33.1133 24.5006 33.1133ZM25.2719 36.1087C25.2719 36.5339 24.9257 36.8798 24.5006 36.8798C24.0755 36.8798 23.7297 36.5339 23.7297 36.1087C23.7297 35.6836 24.0755 35.3376 24.5006 35.3376C24.9257 35.3376 25.2719 35.6836 25.2719 36.1087Z" fill="white"/>
<path d="M33.8385 15.1621C33.2159 14.5408 32.2032 14.5399 31.5805 15.1623C31.0599 15.6833 30.9811 16.4753 31.3319 17.0852L30.5916 17.8256C30.4304 17.9868 30.4304 18.2482 30.5916 18.4092C30.7528 18.5704 31.0139 18.5704 31.1751 18.4092L31.9154 17.6687C32.5766 18.0491 33.35 17.9088 33.8385 17.42C34.4607 16.7976 34.4607 15.7849 33.8385 15.1621ZM33.255 16.8365C32.9547 17.1368 32.4651 17.1376 32.1641 16.8365C31.8634 16.5359 31.8634 16.0467 32.1641 15.7458C32.4642 15.4457 32.9543 15.4451 33.255 15.7458C33.5552 16.0464 33.5556 16.5357 33.255 16.8365Z" fill="white"/>
<path d="M15.1637 33.8375C15.7865 34.4608 16.7975 34.4617 17.4212 33.8375C17.9118 33.3477 18.0517 32.5739 17.6703 31.9143L18.4106 31.1741C18.5718 31.0132 18.5718 30.7518 18.4106 30.5906C18.2494 30.4294 17.9883 30.4294 17.8271 30.5906L17.0868 31.3307C16.4428 30.958 15.6686 31.0753 15.1637 31.5798C14.5463 32.1968 14.5321 33.2069 15.1637 33.8375ZM15.7472 32.1633C16.0483 31.8623 16.5367 31.8618 16.8377 32.1633C17.1376 32.4632 17.14 32.9517 16.8377 33.254C16.5364 33.5549 16.0489 33.5557 15.7472 33.254C15.4469 32.9537 15.4434 32.4672 15.7472 32.1633Z" fill="white"/>
<path d="M36.1088 22.9033C35.3718 22.9033 34.7562 23.4075 34.573 24.0871H33.526C33.2979 24.0871 33.1133 24.2719 33.1133 24.4998C33.1133 24.7277 33.2979 24.9125 33.526 24.9125H34.573C34.7563 25.5921 35.3719 26.0963 36.1088 26.0963C36.9889 26.0963 37.705 25.3802 37.705 24.4998C37.705 23.6194 36.9889 22.9033 36.1088 22.9033ZM36.1088 25.2709C35.6836 25.2709 35.3374 24.9249 35.3374 24.4998C35.3374 24.0746 35.6836 23.7287 36.1088 23.7287C36.5339 23.7287 36.8797 24.0746 36.8797 24.4998C36.8797 24.9249 36.5339 25.2709 36.1088 25.2709Z" fill="white"/>
<path d="M12.8916 26.0963C13.6282 26.0963 14.2438 25.5921 14.427 24.9125H15.4744C15.7025 24.9125 15.8871 24.7277 15.8871 24.4998C15.8871 24.2719 15.7025 24.0871 15.4744 24.0871H14.427C14.2437 23.4075 13.6282 22.9033 12.8916 22.9033C12.011 22.9033 11.2949 23.6194 11.2949 24.4998C11.2949 25.3802 12.011 26.0963 12.8916 26.0963ZM12.8916 23.7287C13.3168 23.7287 13.6626 24.0746 13.6626 24.4998C13.6626 24.9249 13.3168 25.2709 12.8916 25.2709C12.4665 25.2709 12.1203 24.9249 12.1203 24.4998C12.1203 24.0746 12.4664 23.7287 12.8916 23.7287Z" fill="white"/>
<path d="M31.9155 31.3311L31.1751 30.5906C31.0139 30.4294 30.7528 30.4294 30.5916 30.5906C30.4304 30.7516 30.4304 31.0129 30.5916 31.1741L31.3318 31.9145C30.9807 32.5244 31.0595 33.3163 31.5805 33.8375C31.8917 34.1488 32.3007 34.3042 32.7093 34.3042C33.1184 34.3042 33.5274 34.1487 33.8385 33.8375C34.4608 33.2153 34.4608 32.2026 33.8385 31.5796C33.3174 31.0593 32.5256 30.9803 31.9155 31.3311ZM33.255 33.254C32.9539 33.5551 32.4643 33.5543 32.1641 33.254C31.8634 32.9532 31.8634 32.464 32.1641 32.1633C32.4647 31.8627 32.9543 31.8627 33.255 32.1633C33.5556 32.4641 33.5556 32.9534 33.255 33.254Z" fill="white"/>
<path d="M17.4199 15.162C16.8162 14.558 15.766 14.558 15.1623 15.162C14.5396 15.7849 14.5396 16.7976 15.1623 17.4198C15.6501 17.908 16.4229 18.0496 17.0851 17.6686L17.8257 18.409C17.9869 18.5702 18.248 18.5702 18.4092 18.409C18.5704 18.2478 18.5704 17.9865 18.4092 17.8255L17.6689 17.0853C18.0525 16.4226 17.9084 15.6505 17.4199 15.162ZM15.7459 16.8363C15.4452 16.5356 15.4452 16.0464 15.7459 15.7456C16.0484 15.4434 16.5336 15.4433 16.8364 15.7456C17.1389 16.0486 17.1371 16.5356 16.8364 16.8363C16.5357 17.1369 16.0465 17.1369 15.7459 16.8363Z" fill="white"/>
<path d="M17.5195 24.4999C17.5195 28.3493 20.6512 31.4812 24.5006 31.4812C28.35 31.4812 31.4821 28.3493 31.4821 24.4999C31.4821 20.6504 28.35 17.5186 24.5006 17.5186C20.6512 17.5186 17.5195 20.6504 17.5195 24.4999ZM24.5006 18.3439C27.895 18.3439 30.6568 21.1054 30.6568 24.4999C30.6568 27.8943 27.895 30.6558 24.5006 30.6558C21.1062 30.6558 18.3448 27.8943 18.3448 24.4999C18.3448 21.1054 21.1062 18.3439 24.5006 18.3439Z" fill="white"/>
<path d="M22.6705 26.4588C22.7705 26.5324 22.8277 26.6357 22.8277 26.7426V26.9044C22.8277 27.5727 23.3717 28.1166 24.0403 28.1166H24.9603C25.6289 28.1166 26.1725 27.5727 26.1725 26.9044V26.7688C26.1725 26.6467 26.2378 26.5274 26.351 26.442C27.1373 25.8511 27.5878 24.9505 27.5878 23.971C27.5878 22.1451 26.0066 20.7043 24.1612 20.9014C22.7117 21.0567 21.5611 22.2248 21.4257 23.6786C21.3249 24.7705 21.7899 25.8098 22.6705 26.4588ZM22.2478 23.7549C22.3449 22.7078 23.2057 21.8338 24.2491 21.7218C25.638 21.5737 26.7625 22.6642 26.7625 23.971C26.7625 24.6887 26.4317 25.3488 25.855 25.7824C25.5322 26.0257 25.3472 26.3851 25.3472 26.7688V26.9044C25.3472 27.1177 25.1735 27.2912 24.9603 27.2912H24.0403C23.8267 27.2912 23.6531 27.1177 23.6531 26.9044V26.7426C23.6531 26.3708 23.4734 26.025 23.1602 25.7945C22.5145 25.3185 22.1736 24.5561 22.2478 23.7549Z" fill="white"/>
<path d="M23.3779 24.6948C23.5391 24.856 23.8002 24.856 23.9614 24.6948C24.1226 24.5336 24.1226 24.2725 23.9614 24.1113L23.72 23.8699C23.5588 23.7087 23.2977 23.7087 23.1365 23.8699C22.9753 24.0311 22.9753 24.2922 23.1365 24.4534L23.3779 24.6948Z" fill="white"/>
<path d="M25.6419 24.6948L25.8833 24.4534C26.0445 24.2922 26.0445 24.0311 25.8833 23.8699C25.7221 23.7087 25.461 23.7087 25.2998 23.8699L25.0584 24.1113C24.8972 24.2725 24.8972 24.5336 25.0584 24.6948C25.2195 24.856 25.4807 24.856 25.6419 24.6948Z" fill="white"/>
</svg>
