<svg width="161" height="125" viewBox="0 0 161 125" fill="none" xmlns="http://www.w3.org/2000/svg">
<g filter="url(#filter0_f_1734_712)">
<ellipse cx="79.0013" cy="100.545" rx="59.0643" ry="11.405" fill="#1F88F8" fill-opacity="0.35"/>
</g>
<path d="M79.6501 123.309C113.478 123.309 140.901 95.8605 140.901 62.0008C140.901 28.1411 113.478 0.692383 79.6501 0.692383C45.8223 0.692383 18.3994 28.1411 18.3994 62.0008C18.3994 95.8605 45.8223 123.309 79.6501 123.309Z" fill="url(#paint0_linear_1734_712)"/>
<g filter="url(#filter1_d_1734_712)">
<path d="M130.957 42.1838L78.469 78.8481L25.9814 42.1838L74.0297 8.60684C75.3327 7.69781 76.8829 7.21045 78.4712 7.21045C80.0595 7.21045 81.6096 7.69781 82.9126 8.60684L92.497 15.3135L95.0064 17.0578L120.274 34.7184L122.936 36.5891L130.957 42.1838Z" fill="url(#paint1_linear_1734_712)"/>
</g>
<path d="M69.9345 72.8864L25.9814 104.17V42.1831L69.9345 72.8864Z" fill="url(#paint2_linear_1734_712)"/>
<g filter="url(#filter2_f_1734_712)">
<ellipse cx="104.114" cy="40.9595" rx="19.5331" ry="6.28441" fill="#FF4C77" fill-opacity="0.3"/>
</g>
<path d="M87.0083 72.8864L130.961 104.17V42.1831L87.0083 72.8864Z" fill="url(#paint3_linear_1734_712)"/>
<path d="M25.9814 104.17L73.973 70.0171C75.2865 69.081 76.8588 68.5779 78.4712 68.5779C80.0836 68.5779 81.6559 69.081 82.9693 70.0171L130.957 104.17H25.9814Z" fill="url(#paint4_linear_1734_712)"/>
<g filter="url(#filter3_d_1734_712)">
<path d="M31.5291 30.9502C23.4824 34.7178 14.8356 37.037 5.98501 37.8016C7.18091 40.5842 15.6781 54.5128 40.9022 65.9896C41.5841 66.0946 57.3354 58.7602 65.9795 53.7305C65.6858 54.1505 39.1294 44.3695 31.5291 30.9502Z" fill="url(#paint5_linear_1734_712)"/>
</g>
<path d="M104.717 46.1946C114.39 46.1946 122.231 38.3462 122.231 28.6648C122.231 18.9834 114.39 11.135 104.717 11.135C95.0451 11.135 87.2041 18.9834 87.2041 28.6648C87.2041 38.3462 95.0451 46.1946 104.717 46.1946Z" fill="url(#paint6_linear_1734_712)"/>
<path d="M105.785 17.2153C108.119 17.2153 109.989 17.8039 111.398 18.981C112.827 20.1372 113.542 21.8398 113.542 24.0891C113.542 25.9389 112.911 27.4314 111.65 28.5665C110.41 29.7016 108.781 30.2902 106.763 30.3322L106.574 32.571H100.393L100.204 25.8863H102.853C104.093 25.8863 105.039 25.7497 105.691 25.4764C106.363 25.2032 106.7 24.7617 106.7 24.1521C106.7 23.7527 106.595 23.4479 106.384 23.2377C106.195 23.0065 105.932 22.8909 105.596 22.8909C105.176 22.8909 104.86 23.0275 104.65 23.3008C104.461 23.553 104.366 23.8894 104.366 24.3098H97.7764C97.7133 23.0065 97.9655 21.8188 98.5331 20.7468C99.1217 19.6747 100.026 18.8234 101.245 18.1927C102.464 17.5411 103.977 17.2153 105.785 17.2153ZM103.578 41.8411C102.359 41.8411 101.381 41.5153 100.646 40.8637C99.91 40.212 99.5421 39.3922 99.5421 38.4042C99.5421 37.3952 99.91 36.5649 100.646 35.9133C101.381 35.2406 102.359 34.9043 103.578 34.9043C104.776 34.9043 105.743 35.2406 106.479 35.9133C107.215 36.5649 107.583 37.3952 107.583 38.4042C107.583 39.3922 107.215 40.212 106.479 40.8637C105.743 41.5153 104.776 41.8411 103.578 41.8411Z" fill="white"/>
<path d="M32.1495 37.8764C31.7791 37.6192 31.3097 37.5498 30.8805 37.6887L16.8032 42.2475C16.2986 42.4109 16.1186 43.0326 16.4579 43.4401V43.4401C16.7312 43.7684 17.1788 43.8938 17.583 43.7552L32.0199 38.8057C32.4274 38.666 32.5033 38.1221 32.1495 37.8764V37.8764Z" fill="#C9DFFF"/>
<path d="M31.9065 43.4917C31.5493 43.156 31.0364 43.0442 30.5717 43.2007L20.8265 46.4835C20.3965 46.6284 20.2445 47.1591 20.5327 47.5095V47.5095C20.7682 47.7958 21.1565 47.9062 21.5075 47.7866L31.731 44.3023C32.0763 44.1846 32.1723 43.7415 31.9065 43.4917V43.4917Z" fill="#C9DFFF"/>
<path d="M37.1381 46.2721C36.7654 45.9733 36.2638 45.8906 35.8147 46.054L24.5893 50.1377C24.1484 50.2981 24.0155 50.8575 24.3372 51.1988V51.1988C24.5835 51.46 24.9617 51.5492 25.2987 51.4254L36.9981 47.128C37.362 46.9944 37.4405 46.5144 37.1381 46.2721V46.2721Z" fill="#C9DFFF"/>
<path d="M41.0619 54.7009C40.7168 54.319 40.1725 54.1884 39.6916 54.3721L33.2766 56.8224C32.8824 56.973 32.7402 57.458 32.9906 57.7976V57.7976C33.2254 58.1158 33.6441 58.2374 34.0129 58.0944L40.8891 55.4287C41.1858 55.3137 41.2753 54.9369 41.0619 54.7009V54.7009Z" fill="#C9DFFF"/>
<g filter="url(#filter4_d_1734_712)">
<path d="M124.543 50.375C134.3 54.9434 144.785 57.7557 155.516 58.6828C154.066 62.0568 143.763 78.9461 113.177 92.8624C112.35 92.9897 93.251 84.0962 82.7695 77.9975C83.1257 78.5068 115.327 66.6468 124.543 50.375Z" fill="url(#paint7_linear_1734_712)"/>
</g>
<path d="M123.787 58.7725C124.236 58.4605 124.805 58.3764 125.325 58.5449L142.395 64.0726C143.007 64.2707 143.225 65.0246 142.814 65.5188V65.5188C142.482 65.9169 141.939 66.0689 141.449 65.9009L123.944 59.8993C123.45 59.7298 123.358 59.0704 123.787 58.7725V58.7725Z" fill="#C9DFFF"/>
<path d="M119.009 63.3227C119.442 62.9157 120.064 62.7801 120.627 62.9699L132.444 66.9505C132.965 67.1261 133.15 67.7696 132.8 68.1945V68.1945C132.515 68.5417 132.044 68.6756 131.618 68.5305L119.221 64.3056C118.803 64.1629 118.686 63.6256 119.009 63.3227V63.3227Z" fill="#C9DFFF"/>
<path d="M114.095 67.1009C114.547 66.7386 115.155 66.6384 115.699 66.8364L129.311 71.7882C129.845 71.9827 130.006 72.661 129.616 73.0749V73.0749C129.318 73.3916 128.859 73.4997 128.451 73.3496L114.264 68.1388C113.823 67.9768 113.728 67.3948 114.095 67.1009V67.1009Z" fill="#C9DFFF"/>
<path d="M103.044 74.6576C103.462 74.1946 104.122 74.0363 104.705 74.259L112.484 77.2301C112.962 77.4127 113.134 78.0009 112.831 78.4126V78.4126C112.546 78.7985 112.038 78.9459 111.591 78.7726L103.253 75.5402C102.893 75.4007 102.785 74.9438 103.044 74.6576V74.6576Z" fill="#C9DFFF"/>
<path d="M108.12 70.6232C108.581 70.3339 109.149 70.2741 109.66 70.4611L127.585 77.021C128.158 77.2307 128.297 77.9783 127.837 78.3799V78.3799C127.533 78.6457 127.109 78.7241 126.73 78.5844L108.239 71.7665C107.74 71.5826 107.67 70.9058 108.12 70.6232V70.6232Z" fill="#C9DFFF"/>
<path d="M44.946 48.114C44.566 47.8754 44.097 47.826 43.6756 47.9803L28.8935 53.3902C28.4207 53.5632 28.306 54.1797 28.6849 54.5109V54.5109C28.9356 54.7301 29.286 54.7948 29.5985 54.6796L44.8476 49.0569C45.259 48.9052 45.3172 48.347 44.946 48.114V48.114Z" fill="#C9DFFF"/>
<path d="M130.346 15.1224C130.346 16.5129 129.22 17.639 127.832 17.639C126.445 17.639 125.319 16.5129 125.319 15.1224C125.319 13.7318 126.445 12.6057 127.832 12.6057C129.22 12.6057 130.346 13.7318 130.346 15.1224Z" stroke="url(#paint8_linear_1734_712)" stroke-width="1.48382"/>
<path d="M39.6568 110.088C39.6568 111.479 38.5308 112.605 37.1432 112.605C35.7556 112.605 34.6296 111.479 34.6296 110.088C34.6296 108.698 35.7556 107.571 37.1432 107.571C38.5308 107.571 39.6568 108.698 39.6568 110.088Z" stroke="url(#paint9_linear_1734_712)" stroke-width="1.48382"/>
<path d="M118.254 115.208C118.254 116.598 117.128 117.724 115.74 117.724C114.353 117.724 113.227 116.598 113.227 115.208C113.227 113.817 114.353 112.691 115.74 112.691C117.128 112.691 118.254 113.817 118.254 115.208Z" stroke="url(#paint10_linear_1734_712)" stroke-width="1.48382"/>
<path d="M45.7568 18.0457C46.049 16.834 47.7725 16.834 48.0648 18.0457L48.9112 21.5553C49.0156 21.9883 49.3535 22.3263 49.7864 22.4309L53.2971 23.2792C54.5081 23.5718 54.5081 25.2943 53.2971 25.5869L49.7863 26.4352C49.3535 26.5398 49.0156 26.8778 48.9112 27.3107L48.0648 30.8204C47.7725 32.0321 46.049 32.0321 45.7568 30.8204L44.9104 27.3107C44.806 26.8778 44.4681 26.5398 44.0352 26.4352L40.5245 25.5869C39.3134 25.2943 39.3134 23.5718 40.5245 23.2792L44.0352 22.4309C44.4681 22.3263 44.806 21.9883 44.9104 21.5553L45.7568 18.0457Z" fill="url(#paint11_linear_1734_712)"/>
<path d="M138.946 99.0164C139.238 97.8047 140.962 97.8047 141.254 99.0164L142.1 102.526C142.205 102.959 142.542 103.297 142.975 103.402L146.486 104.25C147.697 104.542 147.697 106.265 146.486 106.558L142.975 107.406C142.542 107.51 142.205 107.849 142.1 108.281L141.254 111.791C140.962 113.003 139.238 113.003 138.946 111.791L138.099 108.281C137.995 107.849 137.657 107.51 137.224 107.406L133.713 106.558C132.502 106.265 132.502 104.542 133.713 104.25L137.224 103.402C137.657 103.297 137.995 102.959 138.099 102.526L138.946 99.0164Z" fill="url(#paint12_linear_1734_712)"/>
<path d="M20.0249 89.7643C20.7765 89.6438 21.3764 90.3827 21.1048 91.0944L19.4529 95.424C19.1813 96.1358 18.2418 96.2865 17.7618 95.6953L14.8418 92.0986C14.3618 91.5074 14.7014 90.6177 15.453 90.4972L20.0249 89.7643Z" fill="url(#paint13_linear_1734_712)"/>
<path d="M140.885 43.7771C140.697 43.0388 141.378 42.3736 142.111 42.5798L146.568 43.8336C147.301 44.0397 147.536 44.9625 146.991 45.4946L143.678 48.7317C143.133 49.2638 142.217 49.0062 142.029 48.2679L140.885 43.7771Z" fill="url(#paint14_linear_1734_712)"/>
<defs>
<filter id="filter0_f_1734_712" x="7.57185" y="76.775" width="142.859" height="47.5404" filterUnits="userSpaceOnUse" color-interpolation-filters="sRGB">
<feFlood flood-opacity="0" result="BackgroundImageFix"/>
<feBlend mode="normal" in="SourceGraphic" in2="BackgroundImageFix" result="shape"/>
<feGaussianBlur stdDeviation="6.18258" result="effect1_foregroundBlur_1734_712"/>
</filter>
<filter id="filter1_d_1734_712" x="24.003" y="7.21045" width="108.932" height="75.5945" filterUnits="userSpaceOnUse" color-interpolation-filters="sRGB">
<feFlood flood-opacity="0" result="BackgroundImageFix"/>
<feColorMatrix in="SourceAlpha" type="matrix" values="0 0 0 0 0 0 0 0 0 0 0 0 0 0 0 0 0 0 127 0" result="hardAlpha"/>
<feOffset dy="1.97843"/>
<feGaussianBlur stdDeviation="0.989213"/>
<feComposite in2="hardAlpha" operator="out"/>
<feColorMatrix type="matrix" values="0 0 0 0 0 0 0 0 0 0 0 0 0 0 0 0 0 0 0.25 0"/>
<feBlend mode="normal" in2="BackgroundImageFix" result="effect1_dropShadow_1734_712"/>
<feBlend mode="normal" in="SourceGraphic" in2="effect1_dropShadow_1734_712" result="shape"/>
</filter>
<filter id="filter2_f_1734_712" x="72.2159" y="22.3099" width="63.7967" height="37.2992" filterUnits="userSpaceOnUse" color-interpolation-filters="sRGB">
<feFlood flood-opacity="0" result="BackgroundImageFix"/>
<feBlend mode="normal" in="SourceGraphic" in2="BackgroundImageFix" result="shape"/>
<feGaussianBlur stdDeviation="6.18258" result="effect1_foregroundBlur_1734_712"/>
</filter>
<filter id="filter3_d_1734_712" x="0.0495849" y="26.9933" width="71.8652" height="46.9111" filterUnits="userSpaceOnUse" color-interpolation-filters="sRGB">
<feFlood flood-opacity="0" result="BackgroundImageFix"/>
<feColorMatrix in="SourceAlpha" type="matrix" values="0 0 0 0 0 0 0 0 0 0 0 0 0 0 0 0 0 0 127 0" result="hardAlpha"/>
<feOffset dy="1.97843"/>
<feGaussianBlur stdDeviation="2.96764"/>
<feComposite in2="hardAlpha" operator="out"/>
<feColorMatrix type="matrix" values="0 0 0 0 0.0196078 0 0 0 0 0.168627 0 0 0 0 0.396078 0 0 0 0.15 0"/>
<feBlend mode="normal" in2="BackgroundImageFix" result="effect1_dropShadow_1734_712"/>
<feBlend mode="normal" in="SourceGraphic" in2="effect1_dropShadow_1734_712" result="shape"/>
</filter>
<filter id="filter4_d_1734_712" x="71.3625" y="49.3858" width="89.5637" height="59.3054" filterUnits="userSpaceOnUse" color-interpolation-filters="sRGB">
<feFlood flood-opacity="0" result="BackgroundImageFix"/>
<feColorMatrix in="SourceAlpha" type="matrix" values="0 0 0 0 0 0 0 0 0 0 0 0 0 0 0 0 0 0 127 0" result="hardAlpha"/>
<feOffset dx="-2.9987" dy="7.4191"/>
<feGaussianBlur stdDeviation="4.20416"/>
<feComposite in2="hardAlpha" operator="out"/>
<feColorMatrix type="matrix" values="0 0 0 0 0.021441 0 0 0 0 0.168056 0 0 0 0 0.395833 0 0 0 0.15 0"/>
<feBlend mode="normal" in2="BackgroundImageFix" result="effect1_dropShadow_1734_712"/>
<feBlend mode="normal" in="SourceGraphic" in2="effect1_dropShadow_1734_712" result="shape"/>
</filter>
<linearGradient id="paint0_linear_1734_712" x1="79.1779" y1="-19.2711" x2="80.435" y2="196.035" gradientUnits="userSpaceOnUse">
<stop stop-color="#CAE0FF" stop-opacity="0"/>
<stop offset="1" stop-color="#BCD8FF"/>
</linearGradient>
<linearGradient id="paint1_linear_1734_712" x1="78.469" y1="7.21045" x2="78.469" y2="78.8481" gradientUnits="userSpaceOnUse">
<stop stop-color="#EDF4FF"/>
<stop offset="1" stop-color="#ABCCFF"/>
</linearGradient>
<linearGradient id="paint2_linear_1734_712" x1="47.958" y1="42.1831" x2="45.9833" y2="153.216" gradientUnits="userSpaceOnUse">
<stop stop-color="#FCFCFC"/>
<stop offset="1" stop-color="#7B70FF"/>
</linearGradient>
<linearGradient id="paint3_linear_1734_712" x1="127.853" y1="41.8141" x2="130.844" y2="170.038" gradientUnits="userSpaceOnUse">
<stop stop-color="#BCABFF"/>
<stop offset="0.0001" stop-color="#AC9DFF"/>
<stop offset="0.0002" stop-color="#FBFBFB"/>
<stop offset="1" stop-color="#7B70FF"/>
</linearGradient>
<linearGradient id="paint4_linear_1734_712" x1="78.469" y1="68.5779" x2="78.5066" y2="193.964" gradientUnits="userSpaceOnUse">
<stop stop-color="#F9F8FF"/>
<stop offset="1" stop-color="#6C55FD"/>
</linearGradient>
<linearGradient id="paint5_linear_1734_712" x1="12.496" y1="46.5448" x2="51.7975" y2="38.8778" gradientUnits="userSpaceOnUse">
<stop stop-color="#C6DDFF"/>
<stop offset="1" stop-color="white"/>
</linearGradient>
<linearGradient id="paint6_linear_1734_712" x1="87.3716" y1="13.4939" x2="122.283" y2="46.2796" gradientUnits="userSpaceOnUse">
<stop stop-color="#FF698D"/>
<stop offset="1" stop-color="#FF3868"/>
</linearGradient>
<linearGradient id="paint7_linear_1734_712" x1="147.621" y1="69.2844" x2="99.9661" y2="59.9877" gradientUnits="userSpaceOnUse">
<stop stop-color="#C6DDFF"/>
<stop offset="1" stop-color="white"/>
</linearGradient>
<linearGradient id="paint8_linear_1734_712" x1="123.831" y1="13.0857" x2="134.012" y2="21.9016" gradientUnits="userSpaceOnUse">
<stop stop-color="#94BFFF"/>
<stop offset="1" stop-color="#4C94FE"/>
</linearGradient>
<linearGradient id="paint9_linear_1734_712" x1="33.1416" y1="108.052" x2="43.3233" y2="116.867" gradientUnits="userSpaceOnUse">
<stop stop-color="#94BFFF"/>
<stop offset="1" stop-color="#4C94FE"/>
</linearGradient>
<linearGradient id="paint10_linear_1734_712" x1="111.739" y1="113.171" x2="121.921" y2="121.987" gradientUnits="userSpaceOnUse">
<stop stop-color="#94BFFF"/>
<stop offset="1" stop-color="#4C94FE"/>
</linearGradient>
<linearGradient id="paint11_linear_1734_712" x1="46.9108" y1="13.2607" x2="46.9108" y2="35.6053" gradientUnits="userSpaceOnUse">
<stop stop-color="#70A8FF"/>
<stop offset="1" stop-color="#5597FD"/>
</linearGradient>
<linearGradient id="paint12_linear_1734_712" x1="140.1" y1="94.2314" x2="140.1" y2="116.576" gradientUnits="userSpaceOnUse">
<stop stop-color="#70A8FF"/>
<stop offset="1" stop-color="#5597FD"/>
</linearGradient>
<linearGradient id="paint13_linear_1734_712" x1="21.7157" y1="89.4933" x2="14.4917" y2="95.3582" gradientUnits="userSpaceOnUse">
<stop stop-color="#70A8FF"/>
<stop offset="1" stop-color="#5597FD"/>
</linearGradient>
<linearGradient id="paint14_linear_1734_712" x1="140.462" y1="42.116" x2="146.965" y2="48.7727" gradientUnits="userSpaceOnUse">
<stop stop-color="#70A8FF"/>
<stop offset="1" stop-color="#5597FD"/>
</linearGradient>
</defs>
</svg>
