<svg width="33" height="28" viewBox="0 0 33 28" fill="none" xmlns="http://www.w3.org/2000/svg">
<path d="M16.0162 10.9692C14.5616 10.9692 13.1666 10.3913 12.138 9.36278C11.1095 8.33422 10.5316 6.93919 10.5316 5.48459C10.5316 4.02999 11.1095 2.63496 12.138 1.6064C13.1666 0.577839 14.5616 -1.7346e-08 16.0162 0V5.48459L16.0162 10.9692Z" fill="#FEB546"/>
<path d="M16.0143 10.9692C17.4689 10.9692 18.8639 10.3913 19.8925 9.36278C20.9211 8.33422 21.4989 6.93919 21.4989 5.48459C21.4989 4.02999 20.9211 2.63496 19.8925 1.6064C18.8639 0.577839 17.4689 -1.7346e-08 16.0143 0V5.48459L16.0143 10.9692Z" fill="#F4A640"/>
<path d="M27.1093 10.9695C26.1867 10.9695 25.3018 10.603 24.6494 9.95058C23.997 9.29818 23.6305 8.41333 23.6305 7.4907C23.6305 6.56807 23.997 5.68322 24.6494 5.03082C25.3018 4.37842 26.1867 4.0119 27.1093 4.0119V7.4907L27.1093 10.9695Z" fill="#55769F"/>
<path d="M27.1085 10.9694C28.0312 10.9694 28.916 10.6029 29.5684 9.95052C30.2208 9.29812 30.5873 8.41327 30.5873 7.49064C30.5873 6.568 30.2208 5.68316 29.5684 5.03076C28.916 4.37836 28.0312 4.01184 27.1085 4.01184V7.49064L27.1085 10.9694Z" fill="#07085B"/>
<path d="M5.04697 10.9694C4.12434 10.9694 3.23949 10.6029 2.58709 9.95052C1.93469 9.29812 1.56818 8.41327 1.56818 7.49064C1.56818 6.568 1.93469 5.68316 2.58709 5.03076C3.23949 4.37836 4.12434 4.01184 5.04697 4.01184V7.49064L5.04697 10.9694Z" fill="#55769F"/>
<path d="M5.0458 10.9693C5.96843 10.9693 6.85328 10.6028 7.50568 9.9504C8.15808 9.298 8.5246 8.41315 8.5246 7.49052C8.5246 6.56788 8.15808 5.68304 7.50568 5.03064C6.85328 4.37823 5.96843 4.01172 5.0458 4.01172V7.49052L5.0458 10.9693Z" fill="#07085B"/>
<path d="M22.0631 17.1896V24.2725C22.1885 25.5512 23.2436 25.9336 23.7555 25.9649H27.0776V13.0526C23.3167 12.8019 22.1676 15.727 22.0631 17.1896Z" fill="#55769F"/>
<path d="M32.0621 17.1896V24.2725C31.9367 25.5512 30.8816 25.9336 30.3697 25.9649H27.0476V13.0526C30.8085 12.8019 31.9576 15.727 32.0621 17.1896Z" fill="#07085B"/>
<path d="M0 17.1896V24.2725C0.125362 25.5512 1.18049 25.9336 1.69239 25.9649H5.01448V13.0526C1.25362 12.8019 0.104468 15.727 0 17.1896Z" fill="#55769F"/>
<path d="M9.99744 17.1896V24.2725C9.87207 25.5512 8.81694 25.9336 8.30505 25.9649H4.98295V13.0526C8.74382 12.8019 9.89297 15.727 9.99744 17.1896Z" fill="#07085B"/>
<path d="M16.0779 27.9946V13.1078C9.68441 12.8822 7.75174 17.7358 7.58459 20.1908V25.2679C7.58459 27.5997 9.15162 28.0572 9.93513 27.9946H16.0779Z" fill="#FEB546"/>
<path d="M16.0785 27.9946V13.1078C22.472 12.8822 24.4046 17.7358 24.5718 20.1908V25.2679C24.5718 27.5997 23.0048 28.0572 22.2212 27.9946H16.0785Z" fill="#F4A640"/>
</svg>
