<svg width="44" height="45" viewBox="0 0 44 45" fill="none" xmlns="http://www.w3.org/2000/svg">
<rect y="0.820312" width="44" height="44" rx="22" fill="#DEF1FF"/>
<path d="M34.6302 20.798H32.0502V19.538C32.0518 19.1531 31.9775 18.7717 31.8316 18.4156C31.6856 18.0595 31.4709 17.7356 31.1997 17.4626C30.9285 17.1895 30.6061 16.9726 30.251 16.8242C29.8959 16.6759 29.515 16.599 29.1302 16.598H23.0002V14.678C23.4236 14.4975 23.7833 14.1944 24.0328 13.8076C24.2824 13.4208 24.4103 12.9681 24.4002 12.508C24.3936 11.8758 24.1378 11.2717 23.6885 10.827C23.2391 10.3823 22.6324 10.1328 22.0002 10.1328C21.3679 10.1328 20.7612 10.3823 20.3119 10.827C19.8625 11.2717 19.6067 11.8758 19.6002 12.508C19.59 12.9681 19.718 13.4208 19.9675 13.8076C20.217 14.1944 20.5767 14.4975 21.0002 14.678V16.598H14.8702C14.4853 16.599 14.1044 16.6759 13.7493 16.8242C13.3942 16.9726 13.0718 17.1895 12.8006 17.4626C12.5294 17.7356 12.3147 18.0595 12.1688 18.4156C12.0228 18.7717 11.9486 19.1531 11.9502 19.538V20.798H9.37016C9.21118 20.7977 9.05371 20.8288 8.90678 20.8895C8.75984 20.9502 8.62634 21.0393 8.51393 21.1517C8.40151 21.2641 8.3124 21.3976 8.25169 21.5446C8.19098 21.6915 8.15988 21.849 8.16016 22.008V26.668C8.15987 26.8269 8.19097 26.9844 8.25168 27.1313C8.31238 27.2783 8.4015 27.4118 8.51392 27.5242C8.62633 27.6366 8.75984 27.7257 8.90677 27.7864C9.0537 27.8471 9.21118 27.8783 9.37016 27.878H11.9502V29.148C11.949 29.9237 12.2559 30.6681 12.8035 31.2175C13.3511 31.767 14.0944 32.0765 14.8702 32.078H16.2002L20.1902 35.508V32.078H29.1302C29.9059 32.0765 30.6492 31.767 31.1968 31.2175C31.7444 30.6681 32.0513 29.9237 32.0502 29.148V27.878H34.6302C34.7891 27.8783 34.9466 27.8471 35.0935 27.7864C35.2405 27.7257 35.374 27.6366 35.4864 27.5242C35.5988 27.4118 35.6879 27.2783 35.7486 27.1313C35.8093 26.9844 35.8404 26.8269 35.8402 26.668V22.008C35.8404 21.849 35.8093 21.6915 35.7486 21.5446C35.6879 21.3976 35.5988 21.2641 35.4864 21.1517C35.374 21.0393 35.2405 20.9502 35.0935 20.8895C34.9466 20.8288 34.7891 20.7977 34.6302 20.798ZM25.8702 20.958C26.1296 20.9666 26.3756 21.0757 26.5561 21.2623C26.7366 21.4489 26.8375 21.6983 26.8375 21.958C26.8375 22.2176 26.7366 22.467 26.5561 22.6536C26.3756 22.8402 26.1296 22.9494 25.8702 22.958C25.6107 22.9494 25.3647 22.8402 25.1842 22.6536C25.0037 22.467 24.9028 22.2176 24.9028 21.958C24.9028 21.6983 25.0037 21.4489 25.1842 21.2623C25.3647 21.0757 25.6107 20.9666 25.8702 20.958ZM18.1302 20.958C18.389 20.9675 18.634 21.077 18.8138 21.2635C18.9935 21.45 19.094 21.699 19.094 21.958C19.094 22.217 18.9935 22.4659 18.8138 22.6524C18.634 22.8389 18.389 22.9484 18.1302 22.958C17.8713 22.9484 17.6263 22.8389 17.4465 22.6524C17.2668 22.4659 17.1664 22.217 17.1664 21.958C17.1664 21.699 17.2668 21.45 17.4465 21.2635C17.6263 21.077 17.8713 20.9675 18.1302 20.958ZM26.4202 27.228C25.1326 28.1545 23.5864 28.653 22.0002 28.653C20.4139 28.653 18.8677 28.1545 17.5802 27.228C17.3587 27.0834 17.2037 26.8568 17.1494 26.598C17.095 26.3392 17.1456 26.0694 17.2902 25.848C17.4347 25.6265 17.6613 25.4715 17.9201 25.4172C18.1789 25.3628 18.4487 25.4134 18.6702 25.558C19.6386 26.26 20.8041 26.6379 22.0002 26.6379C23.1962 26.6379 24.3617 26.26 25.3302 25.558C25.5516 25.4171 25.8196 25.3692 26.0761 25.4247C26.3326 25.4802 26.5569 25.6346 26.7004 25.8543C26.8438 26.0741 26.8948 26.3416 26.8424 26.5987C26.7899 26.8558 26.6382 27.0819 26.4202 27.228Z" fill="#005DA8"/>
</svg>
