<svg width="393" height="361" viewBox="0 0 393 361" fill="none" xmlns="http://www.w3.org/2000/svg">
<g filter="url(#filter0_d_1012_487)">
<rect x="24" y="4" width="345" height="345" rx="8" fill="#F9F9F9"/>
<rect x="24.5" y="4.5" width="344" height="344" rx="7.5" stroke="#E9E9E9"/>
</g>
<g clip-path="url(#clip0_1012_487)">
<path d="M356.12 322.634H329.757V322.833H356.12V322.634Z" fill="#EBEBEB"/>
<path d="M328.961 315.242H313.686V315.441H328.961V315.242Z" fill="#EBEBEB"/>
<path d="M74.1371 316.58H39.7578V316.779H74.1371V316.58Z" fill="#EBEBEB"/>
<path d="M86.2682 316.58H81.2295V316.779H86.2682V316.58Z" fill="#EBEBEB"/>
<path d="M177.22 319.942H102.65V320.141H177.22V319.942Z" fill="#EBEBEB"/>
<path d="M186.652 274.294H32.9522C31.7482 274.291 30.5941 273.811 29.7435 272.959C28.8928 272.106 28.415 270.95 28.415 269.745V53.5483C28.4255 52.3504 28.9079 51.2049 29.7574 50.3608C30.607 49.5167 31.755 49.0421 32.9522 49.04H186.652C187.857 49.04 189.013 49.5192 189.866 50.3721C190.718 51.2251 191.197 52.3819 191.197 53.5881V269.745C191.197 270.952 190.718 272.108 189.866 272.961C189.013 273.814 187.857 274.294 186.652 274.294ZM32.9522 49.1993C31.8009 49.2015 30.6975 49.6606 29.8842 50.4759C29.0708 51.2913 28.614 52.3963 28.614 53.5483V269.745C28.614 270.897 29.0708 272.002 29.8842 272.818C30.6975 273.633 31.8009 274.092 32.9522 274.094H186.652C187.804 274.092 188.908 273.633 189.723 272.818C190.537 272.003 190.996 270.898 190.998 269.745V53.5483C190.996 52.3955 190.537 51.2906 189.723 50.4754C188.908 49.6603 187.804 49.2014 186.652 49.1993H32.9522Z" fill="#EBEBEB"/>
<path d="M310.892 65.894H78.627V174.634H310.892V65.894Z" fill="#E6E6E6"/>
<path d="M347 66H80V175H347V66Z" fill="#F0F0F0"/>
<path d="M310.892 174.634H78.627V180.178H310.892V174.634Z" fill="#E6E6E6"/>
<path d="M354 175H87V180H354V175Z" fill="#F0F0F0"/>
<path d="M342 170V71L86 71V170H342Z" fill="#FAFAFA"/>
<path d="M87.4225 164.853C87.3296 164.853 87.2405 164.816 87.1748 164.75C87.1092 164.684 87.0723 164.595 87.0723 164.502V73.9867C87.0723 73.8937 87.1092 73.8046 87.1748 73.7389C87.2405 73.6732 87.3296 73.6362 87.4225 73.6362C87.4685 73.6362 87.514 73.6453 87.5565 73.6629C87.599 73.6805 87.6376 73.7063 87.6702 73.7389C87.7027 73.7714 87.7285 73.8101 87.7461 73.8526C87.7637 73.8951 87.7727 73.9407 87.7727 73.9867V164.534C87.7666 164.622 87.7268 164.704 87.6615 164.764C87.5963 164.823 87.5107 164.855 87.4225 164.853Z" fill="#F0F0F0"/>
<path d="M342 170V71H341V170H342Z" fill="#E6E6E6"/>
<path d="M347.444 201.97H311.998V309.818H347.444V201.97Z" fill="#E6E6E6"/>
<path d="M337.98 309.818H347.444V294.923H328.054L337.98 309.818Z" fill="#FAFAFA"/>
<path d="M250.801 201.97H215.355V309.818H250.801V201.97Z" fill="#E6E6E6"/>
<path d="M347.444 201.97H242.539V304.696H347.444V201.97Z" fill="#FAFAFA"/>
<path d="M252.004 309.818H242.539V294.923H261.93L252.004 309.818Z" fill="#FAFAFA"/>
<path d="M340.097 240.243H249.878V265.946H340.097V240.243Z" fill="#F0F0F0"/>
<path d="M340.097 271.45H249.878V297.154H340.097V271.45Z" fill="#F0F0F0"/>
<path d="M264.055 238.02H325.952V239.271C325.952 240.257 325.56 241.203 324.863 241.901C324.166 242.598 323.22 242.99 322.234 242.99H267.78C266.794 242.99 265.849 242.598 265.151 241.901C264.454 241.203 264.063 240.257 264.063 239.271V238.02H264.055Z" fill="#FAFAFA"/>
<path d="M340.097 209.043H249.878V234.747H340.097V209.043Z" fill="#F0F0F0"/>
<path d="M264.055 206.821H325.952V208.071C325.952 209.058 325.56 210.004 324.863 210.702C324.166 211.399 323.22 211.791 322.234 211.791H267.78C266.794 211.791 265.849 211.399 265.151 210.702C264.454 210.004 264.063 209.058 264.063 208.071V206.821H264.055Z" fill="#FAFAFA"/>
<path d="M264.055 269.22H325.952V270.47C325.952 270.959 325.856 271.442 325.669 271.894C325.482 272.345 325.208 272.755 324.863 273.1C324.518 273.446 324.108 273.72 323.657 273.907C323.206 274.094 322.722 274.19 322.234 274.19H267.78C267.292 274.19 266.808 274.094 266.357 273.907C265.906 273.72 265.497 273.446 265.151 273.1C264.806 272.755 264.532 272.345 264.346 271.894C264.159 271.442 264.063 270.959 264.063 270.47V269.22H264.055Z" fill="#FAFAFA"/>
<path d="M40.5221 224.965C42.4962 219.286 58.0341 227.004 64.4021 236.403C68.613 242.664 71.1841 249.346 72.3621 258.323C72.2189 248.08 72.0597 237.08 71.9005 226.694C70.6189 224.105 67.6976 218.131 65.6041 213.4C58.5993 197.613 41.947 191.735 36.1521 181.77C28.614 168.708 28.6617 149.113 35.0775 142.056C40.6495 135.907 59.1167 177.445 61.2022 182.089C68.3662 198.019 70.4358 209.895 71.7731 221.373C71.6219 211.616 71.4786 202.663 71.3592 195.749C70.9691 173.208 70.4756 165.96 70.2527 163.729C69.4567 162.638 68.5732 161.34 68.0399 160.687C63.5743 154.928 53.6561 148.078 48.705 139.707C41.4694 127.488 42.6395 112.864 47.71 107.416C53.0591 101.721 62.4758 115.15 67.419 128.516C72.3621 141.881 70.2687 154.609 71.6696 165.689C71.9641 167.855 72.2587 176.107 72.5452 187.553C74.0576 175.239 77.0665 166.987 82.6385 159.301C89.5 149.846 95.4223 138.337 101.074 139.826C106.725 141.315 103.685 156.553 99.2112 167.242C95.2312 176.76 75.5859 186.263 72.6885 193.917C73.0308 209.433 73.3333 229.083 73.5561 247.379C75.1004 237.924 74.0337 237.136 80.3858 222.687C84.1589 214.085 99.6251 203.483 101.472 209.393C103.319 215.303 100.509 226.471 94.674 234.292C89.9617 240.609 79.55 240.601 77.0904 244.512C76.5252 245.428 74.7024 248.932 73.5959 250.939C73.8427 273.282 73.9621 292.995 73.8347 299.718L72.8159 299.789C72.8716 298.053 72.7442 286.687 72.5452 271.649C70.006 263.684 52.9238 258.984 47.6463 250.661C42.1221 241.931 38.1501 231.767 40.5221 224.965Z" fill="#E6E6E6"/>
<path d="M56.5857 309.818H89.3809C90.2498 309.818 91.0918 309.517 91.7647 308.967C92.4376 308.417 92.9002 307.651 93.0744 306.8L95.3987 295.314H50.5361L52.9241 306.8C53.0971 307.646 53.5551 308.408 54.2214 308.957C54.8878 309.506 55.7223 309.81 56.5857 309.818Z" fill="#F0F0F0"/>
<path d="M49.6288 299.766H96.3381C96.8798 299.766 97.4024 299.566 97.8061 299.204C98.2098 298.843 98.4665 298.345 98.5271 297.807L99.4823 289.316C99.5158 289.008 99.4842 288.697 99.3895 288.402C99.2948 288.107 99.1392 287.835 98.9327 287.605C98.7263 287.374 98.4736 287.19 98.1911 287.063C97.9087 286.937 97.6028 286.871 97.2933 286.871H48.6736C48.3642 286.871 48.0583 286.937 47.7758 287.063C47.4934 287.19 47.2407 287.374 47.0342 287.605C46.8278 287.835 46.6721 288.107 46.5774 288.402C46.4828 288.697 46.4511 289.008 46.4846 289.316L47.4399 297.807C47.5005 298.345 47.7571 298.843 48.1609 299.204C48.5646 299.566 49.0872 299.766 49.6288 299.766Z" fill="#F0F0F0"/>
<path d="M139.56 258.22H111.533V309.818H139.56V258.22Z" fill="#E0E0E0"/>
<path d="M210.994 309.818H117.153L107.291 239.805H201.131L210.994 309.818Z" fill="#E6E6E6"/>
<path d="M224.684 309.818H120.878L111.023 239.805H214.822L224.684 309.818Z" fill="#F0F0F0"/>
<path d="M131.036 298.866L122.733 250.749H204.666L212.968 298.866H131.036Z" fill="white"/>
<path d="M166.243 298.866L138.398 250.749H147.131L174.983 298.866H166.243Z" fill="#FAFAFA"/>
<path d="M178.684 298.866L150.832 250.749H165.733L193.577 298.866H178.684Z" fill="#FAFAFA"/>
<path d="M109.225 169.727L122.86 70.7925H144.137L130.502 169.727H109.225Z" fill="white" fill-opacity="0.6"/>
<path d="M135.071 169.727L148.707 70.7925H157.001L143.366 169.727H135.071Z" fill="white" fill-opacity="0.6"/>
<path d="M188.409 110.112C187.673 110.112 187.011 109.984 186.425 109.728C185.849 109.461 185.395 109.099 185.065 108.64C184.734 108.171 184.563 107.632 184.553 107.024H186.105C186.158 107.547 186.371 107.989 186.745 108.352C187.129 108.704 187.683 108.88 188.409 108.88C189.102 108.88 189.646 108.709 190.041 108.368C190.446 108.016 190.649 107.568 190.649 107.024C190.649 106.597 190.531 106.251 190.297 105.984C190.062 105.717 189.769 105.515 189.417 105.376C189.065 105.237 188.59 105.088 187.993 104.928C187.257 104.736 186.665 104.544 186.217 104.352C185.779 104.16 185.401 103.861 185.081 103.456C184.771 103.04 184.617 102.485 184.617 101.792C184.617 101.184 184.771 100.645 185.081 100.176C185.39 99.7067 185.822 99.344 186.377 99.088C186.942 98.832 187.587 98.704 188.313 98.704C189.358 98.704 190.211 98.9653 190.873 99.488C191.545 100.011 191.923 100.704 192.009 101.568H190.409C190.355 101.141 190.131 100.768 189.737 100.448C189.342 100.117 188.819 99.952 188.169 99.952C187.561 99.952 187.065 100.112 186.681 100.432C186.297 100.741 186.105 101.179 186.105 101.744C186.105 102.149 186.217 102.48 186.441 102.736C186.675 102.992 186.958 103.189 187.289 103.328C187.63 103.456 188.105 103.605 188.713 103.776C189.449 103.979 190.041 104.181 190.489 104.384C190.937 104.576 191.321 104.88 191.641 105.296C191.961 105.701 192.121 106.256 192.121 106.96C192.121 107.504 191.977 108.016 191.689 108.496C191.401 108.976 190.974 109.365 190.409 109.664C189.843 109.963 189.177 110.112 188.409 110.112ZM198.087 110.144C197.266 110.144 196.519 109.957 195.847 109.584C195.186 109.211 194.663 108.683 194.279 108C193.906 107.307 193.719 106.507 193.719 105.6C193.719 104.704 193.911 103.915 194.295 103.232C194.69 102.539 195.223 102.011 195.895 101.648C196.567 101.275 197.319 101.088 198.151 101.088C198.983 101.088 199.735 101.275 200.407 101.648C201.079 102.011 201.607 102.533 201.991 103.216C202.386 103.899 202.583 104.693 202.583 105.6C202.583 106.507 202.381 107.307 201.975 108C201.581 108.683 201.042 109.211 200.359 109.584C199.677 109.957 198.919 110.144 198.087 110.144ZM198.087 108.864C198.61 108.864 199.101 108.741 199.559 108.496C200.018 108.251 200.386 107.883 200.663 107.392C200.951 106.901 201.095 106.304 201.095 105.6C201.095 104.896 200.957 104.299 200.679 103.808C200.402 103.317 200.039 102.955 199.591 102.72C199.143 102.475 198.658 102.352 198.135 102.352C197.602 102.352 197.111 102.475 196.663 102.72C196.226 102.955 195.874 103.317 195.607 103.808C195.341 104.299 195.207 104.896 195.207 105.6C195.207 106.315 195.335 106.917 195.591 107.408C195.858 107.899 196.21 108.267 196.647 108.512C197.085 108.747 197.565 108.864 198.087 108.864ZM215.042 101.072C215.724 101.072 216.332 101.216 216.866 101.504C217.399 101.781 217.82 102.203 218.13 102.768C218.439 103.333 218.594 104.021 218.594 104.832V110H217.154V105.04C217.154 104.165 216.935 103.499 216.498 103.04C216.071 102.571 215.49 102.336 214.754 102.336C213.996 102.336 213.394 102.581 212.946 103.072C212.498 103.552 212.274 104.251 212.274 105.168V110H210.834V105.04C210.834 104.165 210.615 103.499 210.178 103.04C209.751 102.571 209.17 102.336 208.434 102.336C207.676 102.336 207.074 102.581 206.626 103.072C206.178 103.552 205.954 104.251 205.954 105.168V110H204.498V101.232H205.954V102.496C206.242 102.037 206.626 101.685 207.106 101.44C207.596 101.195 208.135 101.072 208.722 101.072C209.458 101.072 210.108 101.237 210.674 101.568C211.239 101.899 211.66 102.384 211.938 103.024C212.183 102.405 212.588 101.925 213.154 101.584C213.719 101.243 214.348 101.072 215.042 101.072ZM228.982 105.28C228.982 105.557 228.966 105.851 228.934 106.16H221.926C221.979 107.024 222.273 107.701 222.806 108.192C223.35 108.672 224.006 108.912 224.774 108.912C225.403 108.912 225.926 108.768 226.342 108.48C226.769 108.181 227.067 107.787 227.238 107.296H228.806C228.571 108.139 228.102 108.827 227.398 109.36C226.694 109.883 225.819 110.144 224.774 110.144C223.942 110.144 223.195 109.957 222.534 109.584C221.883 109.211 221.371 108.683 220.998 108C220.625 107.307 220.438 106.507 220.438 105.6C220.438 104.693 220.619 103.899 220.982 103.216C221.345 102.533 221.851 102.011 222.502 101.648C223.163 101.275 223.921 101.088 224.774 101.088C225.606 101.088 226.342 101.269 226.982 101.632C227.622 101.995 228.113 102.496 228.454 103.136C228.806 103.765 228.982 104.48 228.982 105.28ZM227.478 104.976C227.478 104.421 227.355 103.947 227.11 103.552C226.865 103.147 226.529 102.843 226.102 102.64C225.686 102.427 225.222 102.32 224.71 102.32C223.974 102.32 223.345 102.555 222.822 103.024C222.31 103.493 222.017 104.144 221.942 104.976H227.478ZM232.68 102.432V107.6C232.68 108.027 232.771 108.331 232.952 108.512C233.133 108.683 233.448 108.768 233.896 108.768H234.968V110H233.656C232.845 110 232.237 109.813 231.832 109.44C231.427 109.067 231.224 108.453 231.224 107.6V102.432H230.088V101.232H231.224V99.024H232.68V101.232H234.968V102.432H232.68ZM241.084 101.072C241.745 101.072 242.343 101.216 242.876 101.504C243.409 101.781 243.825 102.203 244.124 102.768C244.433 103.333 244.588 104.021 244.588 104.832V110H243.148V105.04C243.148 104.165 242.929 103.499 242.492 103.04C242.055 102.571 241.457 102.336 240.7 102.336C239.932 102.336 239.319 102.576 238.86 103.056C238.412 103.536 238.188 104.235 238.188 105.152V110H236.732V98.16H238.188V102.48C238.476 102.032 238.871 101.685 239.372 101.44C239.884 101.195 240.455 101.072 241.084 101.072ZM247.718 99.808C247.441 99.808 247.206 99.712 247.014 99.52C246.822 99.328 246.726 99.0933 246.726 98.816C246.726 98.5387 246.822 98.304 247.014 98.112C247.206 97.92 247.441 97.824 247.718 97.824C247.985 97.824 248.209 97.92 248.39 98.112C248.582 98.304 248.678 98.5387 248.678 98.816C248.678 99.0933 248.582 99.328 248.39 99.52C248.209 99.712 247.985 99.808 247.718 99.808ZM248.422 101.232V110H246.966V101.232H248.422ZM255.176 101.072C256.243 101.072 257.107 101.397 257.768 102.048C258.429 102.688 258.76 103.616 258.76 104.832V110H257.32V105.04C257.32 104.165 257.101 103.499 256.664 103.04C256.227 102.571 255.629 102.336 254.872 102.336C254.104 102.336 253.491 102.576 253.032 103.056C252.584 103.536 252.36 104.235 252.36 105.152V110H250.904V101.232H252.36V102.48C252.648 102.032 253.037 101.685 253.528 101.44C254.029 101.195 254.579 101.072 255.176 101.072ZM264.754 101.088C265.512 101.088 266.173 101.253 266.738 101.584C267.314 101.915 267.741 102.331 268.018 102.832V101.232H269.49V110.192C269.49 110.992 269.32 111.701 268.978 112.32C268.637 112.949 268.146 113.44 267.506 113.792C266.877 114.144 266.141 114.32 265.298 114.32C264.146 114.32 263.186 114.048 262.418 113.504C261.65 112.96 261.197 112.219 261.058 111.28H262.498C262.658 111.813 262.989 112.24 263.49 112.56C263.992 112.891 264.594 113.056 265.298 113.056C266.098 113.056 266.749 112.805 267.25 112.304C267.762 111.803 268.018 111.099 268.018 110.192V108.352C267.73 108.864 267.304 109.291 266.738 109.632C266.173 109.973 265.512 110.144 264.754 110.144C263.976 110.144 263.266 109.952 262.626 109.568C261.997 109.184 261.501 108.645 261.138 107.952C260.776 107.259 260.594 106.469 260.594 105.584C260.594 104.688 260.776 103.904 261.138 103.232C261.501 102.549 261.997 102.021 262.626 101.648C263.266 101.275 263.976 101.088 264.754 101.088ZM268.018 105.6C268.018 104.939 267.885 104.363 267.618 103.872C267.352 103.381 266.989 103.008 266.53 102.752C266.082 102.485 265.586 102.352 265.042 102.352C264.498 102.352 264.002 102.48 263.554 102.736C263.106 102.992 262.749 103.365 262.482 103.856C262.216 104.347 262.082 104.923 262.082 105.584C262.082 106.256 262.216 106.843 262.482 107.344C262.749 107.835 263.106 108.213 263.554 108.48C264.002 108.736 264.498 108.864 265.042 108.864C265.586 108.864 266.082 108.736 266.53 108.48C266.989 108.213 267.352 107.835 267.618 107.344C267.885 106.843 268.018 106.261 268.018 105.6ZM287.896 101.232L285.16 110H283.656L281.544 103.04L279.432 110H277.928L275.176 101.232H276.664L278.68 108.592L280.856 101.232H282.344L284.472 108.608L286.456 101.232H287.896ZM297.341 105.28C297.341 105.557 297.325 105.851 297.293 106.16H290.285C290.339 107.024 290.632 107.701 291.165 108.192C291.709 108.672 292.365 108.912 293.133 108.912C293.763 108.912 294.285 108.768 294.701 108.48C295.128 108.181 295.427 107.787 295.597 107.296H297.165C296.931 108.139 296.461 108.827 295.757 109.36C295.053 109.883 294.179 110.144 293.133 110.144C292.301 110.144 291.555 109.957 290.893 109.584C290.243 109.211 289.731 108.683 289.357 108C288.984 107.307 288.797 106.507 288.797 105.6C288.797 104.693 288.979 103.899 289.341 103.216C289.704 102.533 290.211 102.011 290.861 101.648C291.523 101.275 292.28 101.088 293.133 101.088C293.965 101.088 294.701 101.269 295.341 101.632C295.981 101.995 296.472 102.496 296.813 103.136C297.165 103.765 297.341 104.48 297.341 105.28ZM295.837 104.976C295.837 104.421 295.715 103.947 295.469 103.552C295.224 103.147 294.888 102.843 294.461 102.64C294.045 102.427 293.581 102.32 293.069 102.32C292.333 102.32 291.704 102.555 291.181 103.024C290.669 103.493 290.376 104.144 290.301 104.976H295.837ZM303.535 101.072C304.602 101.072 305.466 101.397 306.127 102.048C306.789 102.688 307.119 103.616 307.119 104.832V110H305.679V105.04C305.679 104.165 305.461 103.499 305.023 103.04C304.586 102.571 303.989 102.336 303.231 102.336C302.463 102.336 301.85 102.576 301.391 103.056C300.943 103.536 300.719 104.235 300.719 105.152V110H299.263V101.232H300.719V102.48C301.007 102.032 301.397 101.685 301.887 101.44C302.389 101.195 302.938 101.072 303.535 101.072ZM311.274 102.432V107.6C311.274 108.027 311.364 108.331 311.546 108.512C311.727 108.683 312.042 108.768 312.49 108.768H313.562V110H312.25C311.439 110 310.831 109.813 310.426 109.44C310.02 109.067 309.818 108.453 309.818 107.6V102.432H308.682V101.232H309.818V99.024H311.274V101.232H313.562V102.432H311.274ZM237.436 130.848L234.204 142H232.572L229.98 133.024L227.292 142L225.676 142.016L222.556 130.848H224.108L226.54 140.304L229.228 130.848H230.86L233.42 140.272L235.868 130.848H237.436ZM240.485 134.656C240.741 134.155 241.104 133.765 241.573 133.488C242.053 133.211 242.634 133.072 243.317 133.072V134.576H242.933C241.301 134.576 240.485 135.461 240.485 137.232V142H239.029V133.232H240.485V134.656ZM248.822 142.144C248 142.144 247.254 141.957 246.582 141.584C245.92 141.211 245.398 140.683 245.014 140C244.64 139.307 244.454 138.507 244.454 137.6C244.454 136.704 244.646 135.915 245.03 135.232C245.424 134.539 245.958 134.011 246.63 133.648C247.302 133.275 248.054 133.088 248.886 133.088C249.718 133.088 250.47 133.275 251.142 133.648C251.814 134.011 252.342 134.533 252.726 135.216C253.12 135.899 253.318 136.693 253.318 137.6C253.318 138.507 253.115 139.307 252.71 140C252.315 140.683 251.776 141.211 251.094 141.584C250.411 141.957 249.654 142.144 248.822 142.144ZM248.822 140.864C249.344 140.864 249.835 140.741 250.294 140.496C250.752 140.251 251.12 139.883 251.398 139.392C251.686 138.901 251.83 138.304 251.83 137.6C251.83 136.896 251.691 136.299 251.414 135.808C251.136 135.317 250.774 134.955 250.326 134.72C249.878 134.475 249.392 134.352 248.87 134.352C248.336 134.352 247.846 134.475 247.398 134.72C246.96 134.955 246.608 135.317 246.342 135.808C246.075 136.299 245.942 136.896 245.942 137.6C245.942 138.315 246.07 138.917 246.326 139.408C246.592 139.899 246.944 140.267 247.382 140.512C247.819 140.747 248.299 140.864 248.822 140.864ZM259.504 133.072C260.571 133.072 261.435 133.397 262.096 134.048C262.757 134.688 263.088 135.616 263.088 136.832V142H261.648V137.04C261.648 136.165 261.429 135.499 260.992 135.04C260.555 134.571 259.957 134.336 259.2 134.336C258.432 134.336 257.819 134.576 257.36 135.056C256.912 135.536 256.688 136.235 256.688 137.152V142H255.232V133.232H256.688V134.48C256.976 134.032 257.365 133.685 257.856 133.44C258.357 133.195 258.907 133.072 259.504 133.072ZM269.082 133.088C269.84 133.088 270.501 133.253 271.066 133.584C271.642 133.915 272.069 134.331 272.346 134.832V133.232H273.818V142.192C273.818 142.992 273.648 143.701 273.306 144.32C272.965 144.949 272.474 145.44 271.834 145.792C271.205 146.144 270.469 146.32 269.626 146.32C268.474 146.32 267.514 146.048 266.746 145.504C265.978 144.96 265.525 144.219 265.386 143.28H266.826C266.986 143.813 267.317 144.24 267.818 144.56C268.32 144.891 268.922 145.056 269.626 145.056C270.426 145.056 271.077 144.805 271.578 144.304C272.09 143.803 272.346 143.099 272.346 142.192V140.352C272.058 140.864 271.632 141.291 271.066 141.632C270.501 141.973 269.84 142.144 269.082 142.144C268.304 142.144 267.594 141.952 266.954 141.568C266.325 141.184 265.829 140.645 265.466 139.952C265.104 139.259 264.922 138.469 264.922 137.584C264.922 136.688 265.104 135.904 265.466 135.232C265.829 134.549 266.325 134.021 266.954 133.648C267.594 133.275 268.304 133.088 269.082 133.088ZM272.346 137.6C272.346 136.939 272.213 136.363 271.946 135.872C271.68 135.381 271.317 135.008 270.858 134.752C270.41 134.485 269.914 134.352 269.37 134.352C268.826 134.352 268.33 134.48 267.882 134.736C267.434 134.992 267.077 135.365 266.81 135.856C266.544 136.347 266.41 136.923 266.41 137.584C266.41 138.256 266.544 138.843 266.81 139.344C267.077 139.835 267.434 140.213 267.882 140.48C268.33 140.736 268.826 140.864 269.37 140.864C269.914 140.864 270.41 140.736 270.858 140.48C271.317 140.213 271.68 139.835 271.946 139.344C272.213 138.843 272.346 138.261 272.346 137.6ZM278.167 130.848L277.991 138.848H276.775L276.599 130.848H278.167ZM277.447 142.096C277.17 142.096 276.935 142 276.743 141.808C276.551 141.616 276.455 141.381 276.455 141.104C276.455 140.827 276.551 140.592 276.743 140.4C276.935 140.208 277.17 140.112 277.447 140.112C277.714 140.112 277.938 140.208 278.119 140.4C278.311 140.592 278.407 140.827 278.407 141.104C278.407 141.381 278.311 141.616 278.119 141.808C277.938 142 277.714 142.096 277.447 142.096Z" fill="#034DA2"/>
<ellipse cx="135.24" cy="105.931" rx="4.92772" ry="4.93089" fill="#034DA2"/>
<ellipse cx="160.865" cy="105.931" rx="4.92772" ry="4.93089" fill="#034DA2"/>
<path d="M170.364 140.933C170.364 138.661 169.803 136.413 168.714 134.314C167.624 132.216 166.027 130.31 164.013 128.704C162 127.098 159.61 125.824 156.979 124.955C154.349 124.086 151.529 123.639 148.682 123.639C145.835 123.639 143.015 124.086 140.385 124.955C137.754 125.824 135.364 127.098 133.351 128.704C131.337 130.31 129.74 132.216 128.65 134.314C127.561 136.413 127 138.661 127 140.933L131.182 140.933C131.182 139.1 131.635 137.284 132.514 135.591C133.394 133.897 134.683 132.359 136.308 131.063C137.933 129.766 139.862 128.738 141.985 128.037C144.108 127.335 146.384 126.974 148.682 126.974C150.98 126.974 153.256 127.335 155.379 128.037C157.502 128.738 159.431 129.766 161.056 131.063C162.681 132.359 163.97 133.897 164.85 135.591C165.729 137.284 166.182 139.1 166.182 140.933H170.364Z" fill="#034DA2"/>
</g>
<defs>
<filter id="filter0_d_1012_487" x="16" y="0" width="361" height="361" filterUnits="userSpaceOnUse" color-interpolation-filters="sRGB">
<feFlood flood-opacity="0" result="BackgroundImageFix"/>
<feColorMatrix in="SourceAlpha" type="matrix" values="0 0 0 0 0 0 0 0 0 0 0 0 0 0 0 0 0 0 127 0" result="hardAlpha"/>
<feOffset dy="4"/>
<feGaussianBlur stdDeviation="4"/>
<feComposite in2="hardAlpha" operator="out"/>
<feColorMatrix type="matrix" values="0 0 0 0 0.8 0 0 0 0 0.8 0 0 0 0 0.8 0 0 0 0.25 0"/>
<feBlend mode="normal" in2="BackgroundImageFix" result="effect1_dropShadow_1012_487"/>
<feBlend mode="normal" in="SourceGraphic" in2="effect1_dropShadow_1012_487" result="shape"/>
</filter>
<clipPath id="clip0_1012_487">
<rect width="398" height="274" fill="white" transform="translate(-2 49)"/>
</clipPath>
</defs>
</svg>
