<svg width="14" height="14" viewBox="0 0 14 14" fill="none" xmlns="http://www.w3.org/2000/svg">
<path fill-rule="evenodd" clip-rule="evenodd" d="M11.6567 9.74C11.5659 9.83018 11.4963 9.93908 11.4529 10.0589C11.4095 10.1788 11.3934 10.3066 11.4056 10.4333C11.4671 11.0198 11.5837 11.5993 11.7539 12.1644C10.5333 11.8849 9.78775 11.5611 9.44912 11.3915C9.25706 11.2953 9.03587 11.2725 8.82788 11.3274C8.23162 11.4847 7.61708 11.5638 7 11.5629C3.5035 11.5629 0.875 9.13324 0.875 6.36949C0.875 3.60661 3.5035 1.17611 7 1.17611C10.4965 1.17611 13.125 3.60661 13.125 6.36949C13.125 7.64014 12.5851 8.81904 11.6567 9.74ZM12.0881 13.12C12.2954 13.1607 12.5034 13.1979 12.712 13.2317C12.887 13.2594 13.02 13.0793 12.9509 12.9183C12.8732 12.7371 12.802 12.5532 12.7374 12.367L12.7348 12.3583C12.5178 11.7351 12.341 11.0184 12.2763 10.3511C13.3499 9.28644 14 7.89289 14 6.36949C14 3.02322 10.8658 0.310547 7 0.310547C3.13425 0.310547 0 3.02322 0 6.36949C0 9.71576 3.13425 12.4284 7 12.4284C7.6933 12.4294 8.38374 12.3403 9.05363 12.1636C9.50863 12.3912 10.4878 12.8058 12.0881 13.12Z" fill="#424242"/>
<path d="M9.625 6.36947C9.625 6.59903 9.71719 6.81919 9.88128 6.98152C10.0454 7.14384 10.2679 7.23503 10.5 7.23503C10.7321 7.23503 10.9546 7.14384 11.1187 6.98152C11.2828 6.81919 11.375 6.59903 11.375 6.36947C11.375 6.13991 11.2828 5.91975 11.1187 5.75742C10.9546 5.5951 10.7321 5.50391 10.5 5.50391C10.2679 5.50391 10.0454 5.5951 9.88128 5.75742C9.71719 5.91975 9.625 6.13991 9.625 6.36947ZM6.125 6.36947C6.125 6.59903 6.21719 6.81919 6.38128 6.98152C6.54538 7.14384 6.76794 7.23503 7 7.23503C7.23206 7.23503 7.45462 7.14384 7.61872 6.98152C7.78281 6.81919 7.875 6.59903 7.875 6.36947C7.875 6.13991 7.78281 5.91975 7.61872 5.75742C7.45462 5.5951 7.23206 5.50391 7 5.50391C6.76794 5.50391 6.54538 5.5951 6.38128 5.75742C6.21719 5.91975 6.125 6.13991 6.125 6.36947ZM2.625 6.36947C2.625 6.59903 2.71719 6.81919 2.88128 6.98152C3.04538 7.14384 3.26794 7.23503 3.5 7.23503C3.73206 7.23503 3.95462 7.14384 4.11872 6.98152C4.28281 6.81919 4.375 6.59903 4.375 6.36947C4.375 6.13991 4.28281 5.91975 4.11872 5.75742C3.95462 5.5951 3.73206 5.50391 3.5 5.50391C3.26794 5.50391 3.04538 5.5951 2.88128 5.75742C2.71719 5.91975 2.625 6.13991 2.625 6.36947Z" fill="#424242"/>
</svg>
