<svg width="16" height="16" viewBox="0 0 16 16" fill="none" xmlns="http://www.w3.org/2000/svg">
<path d="M6.875 5.1875C6.875 4.87684 6.62315 4.625 6.3125 4.625C6.00184 4.625 5.75 4.87684 5.75 5.1875V10.8125C5.75 11.1231 6.00184 11.375 6.3125 11.375C6.62315 11.375 6.875 11.1231 6.875 10.8125V5.1875ZM10.25 5.1875C10.25 4.87684 9.99815 4.625 9.6875 4.625C9.37685 4.625 9.125 4.87684 9.125 5.1875V10.8125C9.125 11.1231 9.37685 11.375 9.6875 11.375C9.99815 11.375 10.25 11.1231 10.25 10.8125V5.1875ZM8 0.5C3.85786 0.5 0.5 3.85786 0.5 8C0.5 12.1421 3.85786 15.5 8 15.5C12.1421 15.5 15.5 12.1421 15.5 8C15.5 3.85786 12.1421 0.5 8 0.5ZM1.625 8C1.625 4.47919 4.47919 1.625 8 1.625C11.5208 1.625 14.375 4.47919 14.375 8C14.375 11.5208 11.5208 14.375 8 14.375C4.47919 14.375 1.625 11.5208 1.625 8Z" fill="white"/>
</svg>
