<svg width="13" height="16" viewBox="0 0 13 16" fill="none" xmlns="http://www.w3.org/2000/svg">
<path d="M10.7 5.85519V5.00078C10.7 2.68119 8.81961 0.800781 6.5 0.800781C4.18039 0.800781 2.3 2.68119 2.3 5.00078V5.85519C1.20802 6.33177 0.501575 7.40935 0.5 8.60078V12.2008C0.501969 13.8568 1.84395 15.1988 3.49999 15.2008H9.49998C11.156 15.1988 12.498 13.8568 12.5 12.2008V8.60078C12.4985 7.40935 11.792 6.33177 10.7 5.85519ZM7.09999 11.0008C7.09999 11.3322 6.83137 11.6008 6.5 11.6008C6.16863 11.6008 5.90001 11.3322 5.90001 11.0008V9.80079C5.90001 9.46943 6.16863 9.2008 6.5 9.2008C6.83137 9.2008 7.09999 9.46943 7.09999 9.80079V11.0008ZM9.50001 5.6008H3.49999V5.00081C3.49999 3.34396 4.84313 2.00079 6.5 2.00079C8.15687 2.00079 9.50001 3.34393 9.50001 5.00081V5.6008Z" fill="#CFCFCF"/>
</svg>
