<svg width="19" height="19" viewBox="0 0 19 19" fill="none" xmlns="http://www.w3.org/2000/svg">
<path d="M18.4955 4.16825C18.2661 2.07725 16.4912 0.5 14.3669 0.5C12.0935 0.5 10.2443 2.351 10.2443 4.625V6.5H4.24781C2.18127 6.5 0.5 8.18225 0.5 10.25V14.75C0.5 16.8177 2.18127 18.5 4.24781 18.5H10.2443C12.3109 18.5 13.9921 16.8177 13.9921 14.75V10.25C13.9921 8.7155 13.0657 7.39325 11.7434 6.8135V4.625C11.7434 3.1775 12.9202 2 14.3669 2C15.7026 2 16.8615 3.02375 17.0054 4.33175C17.0503 4.7435 17.4281 5.03975 17.8321 4.9955C18.2436 4.94975 18.5405 4.58 18.4955 4.16825ZM7.99562 13.25C7.99562 13.6648 7.65982 14 7.24606 14C6.8323 14 6.4965 13.6648 6.4965 13.25V11.75C6.4965 11.3352 6.8323 11 7.24606 11C7.65982 11 7.99562 11.3352 7.99562 11.75V13.25Z" fill="#49B068"/>
</svg>
