<svg width="15" height="17" viewBox="0 0 15 17" fill="none" xmlns="http://www.w3.org/2000/svg">
<path d="M12.4 5.99642V4.99961C12.4 2.29342 10.2062 0.0996094 7.5 0.0996094C4.79379 0.0996094 2.6 2.29342 2.6 4.99961V5.99642C1.32602 6.55243 0.501838 7.80961 0.5 9.19961V13.3996C0.502297 15.3317 2.06795 16.8973 3.99998 16.8996H11C12.932 16.8973 14.4977 15.3317 14.5 13.3996V9.19961C14.4982 7.80961 13.674 6.55243 12.4 5.99642ZM8.19999 11.9996C8.19999 12.3862 7.8866 12.6996 7.5 12.6996C7.1134 12.6996 6.80001 12.3862 6.80001 11.9996V10.5996C6.80001 10.213 7.1134 9.89964 7.5 9.89964C7.8866 9.89964 8.19999 10.213 8.19999 10.5996V11.9996ZM11 5.69963H3.99998V4.99964C3.99998 3.06665 5.56698 1.49962 7.5 1.49962C9.43302 1.49962 11 3.06662 11 4.99964V5.69963Z" fill="#E5A163"/>
</svg>
