<svg width="19" height="18" viewBox="0 0 19 18" fill="none" xmlns="http://www.w3.org/2000/svg">
<path d="M18.4955 3.66825C18.2661 1.57725 16.4912 0 14.3669 0C12.0935 0 10.2443 1.851 10.2443 4.125V6H4.24781C2.18127 6 0.5 7.68225 0.5 9.75V14.25C0.5 16.3177 2.18127 18 4.24781 18H10.2443C12.3109 18 13.9921 16.3177 13.9921 14.25V9.75C13.9921 8.2155 13.0657 6.89325 11.7434 6.3135V4.125C11.7434 2.6775 12.9202 1.5 14.3669 1.5C15.7026 1.5 16.8615 2.52375 17.0054 3.83175C17.0503 4.2435 17.4281 4.53975 17.8321 4.4955C18.2436 4.44975 18.5405 4.08 18.4955 3.66825ZM7.99562 12.75C7.99562 13.1648 7.65982 13.5 7.24606 13.5C6.8323 13.5 6.4965 13.1648 6.4965 12.75V11.25C6.4965 10.8352 6.8323 10.5 7.24606 10.5C7.65982 10.5 7.99562 10.8352 7.99562 11.25V12.75Z" fill="white"/>
</svg>
