<svg width="17" height="16" viewBox="0 0 17 16" fill="none" xmlns="http://www.w3.org/2000/svg">
<path d="M4 13H13C13.2761 13 13.5 13.2239 13.5 13.5C13.5 13.7455 13.3231 13.9496 13.0899 13.9919L13 14H4C3.72386 14 3.5 13.7761 3.5 13.5C3.5 13.2545 3.67688 13.0504 3.91012 13.0081L4 13H13H4ZM8.41012 1.00806L8.5 1C8.74546 1 8.94961 1.17688 8.99194 1.41012L9 1.5V10.292L11.682 7.61091C11.8555 7.43735 12.125 7.41806 12.3198 7.55306L12.3891 7.61091C12.5627 7.78448 12.5819 8.0539 12.4469 8.24877L12.3891 8.31802L8.85355 11.8536C8.67999 12.0271 8.41056 12.0464 8.21569 11.9114L8.14645 11.8536L4.61091 8.31802C4.41565 8.12276 4.41565 7.80617 4.61091 7.61091C4.78448 7.43735 5.0539 7.41806 5.24877 7.55306L5.31802 7.61091L8 10.292V1.5C8 1.25454 8.17688 1.05039 8.41012 1.00806L8.5 1L8.41012 1.00806Z" fill="#4F52B2"/>
</svg>
