<svg width="165" height="160" viewBox="0 0 165 160" fill="none" xmlns="http://www.w3.org/2000/svg">
<g filter="url(#filter0_f_4198_3957)">
<ellipse cx="82.9999" cy="113.546" rx="59.0643" ry="11.405" fill="#1F88F8" fill-opacity="0.35"/>
</g>
<path d="M83.6491 136.309C117.477 136.309 144.9 108.86 144.9 75.0008C144.9 41.1411 117.477 13.6924 83.6491 13.6924C49.8213 13.6924 22.3984 41.1411 22.3984 75.0008C22.3984 108.86 49.8213 136.309 83.6491 136.309Z" fill="url(#paint0_linear_4198_3957)"/>
<g filter="url(#filter1_d_4198_3957)">
<path d="M134.956 55.1833L82.468 91.8476L29.9805 55.1833L78.0287 21.6064C79.3317 20.6973 80.8819 20.21 82.4702 20.21C84.0585 20.21 85.6086 20.6973 86.9117 21.6064L96.496 28.313L99.0054 30.0573L124.273 47.7179L126.935 49.5886L134.956 55.1833Z" fill="url(#paint1_linear_4198_3957)"/>
</g>
<path d="M73.9336 85.8859L29.9805 117.169V55.1826L73.9336 85.8859Z" fill="url(#paint2_linear_4198_3957)"/>
<g filter="url(#filter2_f_4198_3957)">
<ellipse cx="108.113" cy="53.9592" rx="19.5331" ry="6.28441" fill="#FF4C77" fill-opacity="0.3"/>
</g>
<path d="M91.0078 85.8859L134.961 117.169V55.1826L91.0078 85.8859Z" fill="url(#paint3_linear_4198_3957)"/>
<path d="M29.9805 117.17L77.9721 83.0174C79.2855 82.0812 80.8578 81.5781 82.4702 81.5781C84.0826 81.5781 85.6549 82.0812 86.9683 83.0174L134.956 117.17H29.9805Z" fill="url(#paint4_linear_4198_3957)"/>
<g filter="url(#filter3_d_4198_3957)">
<path d="M35.5281 43.9502C27.4815 47.7178 18.8346 50.037 9.98404 50.8016C11.1799 53.5842 19.6771 67.5128 44.9013 78.9896C45.5831 79.0946 61.3344 71.7602 69.9785 66.7305C69.6848 67.1505 43.1284 57.3695 35.5281 43.9502Z" fill="url(#paint5_linear_4198_3957)"/>
</g>
<path d="M108.716 59.1943C118.389 59.1943 126.23 51.346 126.23 41.6646C126.23 31.9831 118.389 24.1348 108.716 24.1348C99.0441 24.1348 91.2031 31.9831 91.2031 41.6646C91.2031 51.346 99.0441 59.1943 108.716 59.1943Z" fill="url(#paint6_linear_4198_3957)"/>
<path d="M109.785 30.2153C112.118 30.2153 113.989 30.8039 115.397 31.981C116.827 33.1372 117.541 34.8398 117.541 37.0891C117.541 38.9389 116.911 40.4314 115.65 41.5665C114.409 42.7016 112.78 43.2902 110.762 43.3322L110.573 45.571H104.393L104.204 38.8863H106.852C108.093 38.8863 109.039 38.7497 109.69 38.4764C110.363 38.2032 110.699 37.7617 110.699 37.1521C110.699 36.7527 110.594 36.4479 110.384 36.2377C110.195 36.0065 109.932 35.8909 109.596 35.8909C109.175 35.8909 108.86 36.0275 108.65 36.3008C108.46 36.553 108.366 36.8894 108.366 37.3098H101.776C101.713 36.0065 101.965 34.8188 102.533 33.7468C103.121 32.6747 104.025 31.8234 105.244 31.1927C106.464 30.5411 107.977 30.2153 109.785 30.2153ZM107.578 54.8411C106.358 54.8411 105.381 54.5153 104.645 53.8637C103.909 53.212 103.542 52.3922 103.542 51.4042C103.542 50.3952 103.909 49.5649 104.645 48.9133C105.381 48.2406 106.358 47.9043 107.578 47.9043C108.776 47.9043 109.743 48.2406 110.478 48.9133C111.214 49.5649 111.582 50.3952 111.582 51.4042C111.582 52.3922 111.214 53.212 110.478 53.8637C109.743 54.5153 108.776 54.8411 107.578 54.8411Z" fill="white"/>
<path d="M36.1491 50.8762C35.7786 50.6189 35.3092 50.5495 34.88 50.6885L20.8027 55.2472C20.2981 55.4106 20.1181 56.0323 20.4574 56.4399C20.7307 56.7682 21.1784 56.8935 21.5825 56.755L36.0194 51.8055C36.427 51.6657 36.5028 51.1219 36.1491 50.8762Z" fill="#C9DFFF"/>
<path d="M35.905 56.4915C35.5478 56.1558 35.0349 56.044 34.5703 56.2005L24.8251 59.4833C24.3951 59.6281 24.2431 60.1588 24.5312 60.5092C24.7667 60.7956 25.155 60.906 25.506 60.7863L35.7296 57.3021C36.0749 57.1844 36.1708 56.7413 35.905 56.4915Z" fill="#C9DFFF"/>
<path d="M41.1386 59.2718C40.7658 58.973 40.2643 58.8904 39.8152 59.0537L28.5897 63.1375C28.1489 63.2979 28.016 63.8573 28.3377 64.1986C28.5839 64.4598 28.9622 64.5489 29.2992 64.4251L40.9986 60.1278C41.3625 59.9942 41.4409 59.5142 41.1386 59.2718Z" fill="#C9DFFF"/>
<path d="M45.0615 67.7013C44.7163 67.3195 44.172 67.1889 43.6911 67.3726L37.2761 69.8229C36.8819 69.9735 36.7397 70.4585 36.9901 70.798C37.2249 71.1163 37.6436 71.2379 38.0124 71.0949L44.8886 68.4292C45.1853 68.3142 45.2748 67.9374 45.0615 67.7013Z" fill="#C9DFFF"/>
<g filter="url(#filter4_d_4198_3957)">
<path d="M128.543 63.375C138.3 67.9434 148.785 70.7557 159.516 71.6828C158.066 75.0568 147.763 91.9461 117.177 105.862C116.35 105.99 97.251 97.0962 86.7695 90.9975C87.1257 91.5068 119.327 79.6468 128.543 63.375Z" fill="url(#paint7_linear_4198_3957)"/>
</g>
<path d="M127.787 71.7727C128.236 71.4608 128.805 71.3766 129.326 71.5451L146.395 77.0728C147.007 77.271 147.225 78.0248 146.814 78.519C146.483 78.9171 145.94 79.0691 145.45 78.9011L127.944 72.8995C127.45 72.7301 127.358 72.0706 127.787 71.7727Z" fill="#C9DFFF"/>
<path d="M123.009 76.323C123.442 75.9159 124.064 75.7803 124.627 75.9701L136.444 79.9507C136.965 80.1264 137.15 80.7699 136.8 81.1947C136.515 81.542 136.044 81.6758 135.618 81.5307L123.221 77.3059C122.803 77.1632 122.686 76.6259 123.009 76.323Z" fill="#C9DFFF"/>
<path d="M118.095 80.1006C118.547 79.7383 119.155 79.6381 119.699 79.8362L133.311 84.788C133.845 84.9825 134.006 85.6608 133.616 86.0746C133.318 86.3914 132.859 86.4994 132.451 86.3493L118.264 81.1386C117.823 80.9765 117.728 80.3945 118.095 80.1006Z" fill="#C9DFFF"/>
<path d="M107.043 87.6581C107.461 87.195 108.121 87.0367 108.704 87.2595L116.483 90.2306C116.961 90.4132 117.133 91.0014 116.83 91.4131C116.545 91.799 116.037 91.9464 115.59 91.773L107.252 88.5407C106.892 88.4012 106.784 87.9443 107.043 87.6581Z" fill="#C9DFFF"/>
<path d="M112.121 83.623C112.582 83.3337 113.15 83.2738 113.661 83.4609L131.585 90.0207C132.159 90.2305 132.298 90.978 131.838 91.3797C131.534 91.6455 131.11 91.7239 130.731 91.5842L112.24 84.7663C111.741 84.5824 111.671 83.9056 112.121 83.623Z" fill="#C9DFFF"/>
<path d="M48.9445 61.1137C48.5645 60.8751 48.0956 60.8258 47.6741 60.98L32.892 66.3899C32.4193 66.563 32.3045 67.1794 32.6834 67.5107C32.9341 67.7299 33.2845 67.7945 33.5971 67.6793L48.8461 62.0566C49.2575 61.9049 49.3158 61.3468 48.9445 61.1137Z" fill="#C9DFFF"/>
<path d="M134.345 28.1219C134.345 29.5124 133.219 30.6385 131.832 30.6385C130.444 30.6385 129.318 29.5124 129.318 28.1219C129.318 26.7313 130.444 25.6052 131.832 25.6052C133.219 25.6052 134.345 26.7313 134.345 28.1219Z" stroke="url(#paint8_linear_4198_3957)" stroke-width="1.48382"/>
<path d="M43.6558 123.088C43.6558 124.478 42.5298 125.604 41.1422 125.604C39.7547 125.604 38.6286 124.478 38.6286 123.088C38.6286 121.697 39.7547 120.571 41.1422 120.571C42.5298 120.571 43.6558 121.697 43.6558 123.088Z" stroke="url(#paint9_linear_4198_3957)" stroke-width="1.48382"/>
<path d="M122.253 128.208C122.253 129.598 121.127 130.724 119.74 130.724C118.352 130.724 117.226 129.598 117.226 128.208C117.226 126.817 118.352 125.691 119.74 125.691C121.127 125.691 122.253 126.817 122.253 128.208Z" stroke="url(#paint10_linear_4198_3957)" stroke-width="1.48382"/>
<path d="M49.7558 31.0457C50.0481 29.834 51.7716 29.834 52.0638 31.0457L52.9102 34.5553C53.0146 34.9883 53.3525 35.3263 53.7854 35.4309L57.2961 36.2792C58.5072 36.5718 58.5072 38.2943 57.2961 38.5869L53.7854 39.4352C53.3525 39.5398 53.0146 39.8778 52.9102 40.3107L52.0638 43.8204C51.7716 45.0321 50.0481 45.0321 49.7558 43.8204L48.9094 40.3107C48.805 39.8778 48.4671 39.5398 48.0342 39.4352L44.5235 38.5869C43.3125 38.2943 43.3125 36.5718 44.5235 36.2792L48.0342 35.4309C48.4671 35.3263 48.805 34.9883 48.9094 34.5553L49.7558 31.0457Z" fill="url(#paint11_linear_4198_3957)"/>
<path d="M142.945 112.016C143.238 110.805 144.961 110.805 145.253 112.016L146.1 115.526C146.204 115.959 146.542 116.297 146.975 116.402L150.486 117.25C151.697 117.542 151.697 119.265 150.486 119.558L146.975 120.406C146.542 120.51 146.204 120.849 146.1 121.281L145.253 124.791C144.961 126.003 143.238 126.003 142.945 124.791L142.099 121.281C141.994 120.849 141.657 120.51 141.224 120.406L137.713 119.558C136.502 119.265 136.502 117.542 137.713 117.25L141.224 116.402C141.657 116.297 141.994 115.959 142.099 115.526L142.945 112.016Z" fill="url(#paint12_linear_4198_3957)"/>
<path d="M24.0254 102.765C24.777 102.644 25.3768 103.383 25.1053 104.095L23.4534 108.424C23.1818 109.136 22.2423 109.287 21.7623 108.696L18.8423 105.099C18.3623 104.508 18.7019 103.618 19.4535 103.497L24.0254 102.765Z" fill="url(#paint13_linear_4198_3957)"/>
<path d="M144.884 56.7768C144.696 56.0386 145.377 55.3734 146.11 55.5795L150.567 56.8333C151.3 57.0394 151.535 57.9622 150.99 58.4944L147.677 61.7314C147.132 62.2636 146.216 62.0059 146.028 61.2677L144.884 56.7768Z" fill="url(#paint14_linear_4198_3957)"/>
<path d="M160 80C160 124.183 124.183 160 80 160C35.8172 160 0 124.183 0 80C0 35.8172 35.8172 0 80 0C124.183 0 160 35.8172 160 80Z" fill="white" fill-opacity="0.32"/>
<defs>
<filter id="filter0_f_4198_3957" x="11.5704" y="89.7755" width="142.859" height="47.5409" filterUnits="userSpaceOnUse" color-interpolation-filters="sRGB">
<feFlood flood-opacity="0" result="BackgroundImageFix"/>
<feBlend mode="normal" in="SourceGraphic" in2="BackgroundImageFix" result="shape"/>
<feGaussianBlur stdDeviation="6.18258" result="effect1_foregroundBlur_4198_3957"/>
</filter>
<filter id="filter1_d_4198_3957" x="28.002" y="20.21" width="108.931" height="75.5945" filterUnits="userSpaceOnUse" color-interpolation-filters="sRGB">
<feFlood flood-opacity="0" result="BackgroundImageFix"/>
<feColorMatrix in="SourceAlpha" type="matrix" values="0 0 0 0 0 0 0 0 0 0 0 0 0 0 0 0 0 0 127 0" result="hardAlpha"/>
<feOffset dy="1.97843"/>
<feGaussianBlur stdDeviation="0.989213"/>
<feComposite in2="hardAlpha" operator="out"/>
<feColorMatrix type="matrix" values="0 0 0 0 0 0 0 0 0 0 0 0 0 0 0 0 0 0 0.25 0"/>
<feBlend mode="normal" in2="BackgroundImageFix" result="effect1_dropShadow_4198_3957"/>
<feBlend mode="normal" in="SourceGraphic" in2="effect1_dropShadow_4198_3957" result="shape"/>
</filter>
<filter id="filter2_f_4198_3957" x="76.2149" y="35.3096" width="63.7967" height="37.2987" filterUnits="userSpaceOnUse" color-interpolation-filters="sRGB">
<feFlood flood-opacity="0" result="BackgroundImageFix"/>
<feBlend mode="normal" in="SourceGraphic" in2="BackgroundImageFix" result="shape"/>
<feGaussianBlur stdDeviation="6.18258" result="effect1_foregroundBlur_4198_3957"/>
</filter>
<filter id="filter3_d_4198_3957" x="4.0491" y="39.9933" width="71.8647" height="46.9106" filterUnits="userSpaceOnUse" color-interpolation-filters="sRGB">
<feFlood flood-opacity="0" result="BackgroundImageFix"/>
<feColorMatrix in="SourceAlpha" type="matrix" values="0 0 0 0 0 0 0 0 0 0 0 0 0 0 0 0 0 0 127 0" result="hardAlpha"/>
<feOffset dy="1.97843"/>
<feGaussianBlur stdDeviation="2.96764"/>
<feComposite in2="hardAlpha" operator="out"/>
<feColorMatrix type="matrix" values="0 0 0 0 0.0196078 0 0 0 0 0.168627 0 0 0 0 0.396078 0 0 0 0.15 0"/>
<feBlend mode="normal" in2="BackgroundImageFix" result="effect1_dropShadow_4198_3957"/>
<feBlend mode="normal" in="SourceGraphic" in2="effect1_dropShadow_4198_3957" result="shape"/>
</filter>
<filter id="filter4_d_4198_3957" x="75.3625" y="62.3858" width="89.5627" height="59.3049" filterUnits="userSpaceOnUse" color-interpolation-filters="sRGB">
<feFlood flood-opacity="0" result="BackgroundImageFix"/>
<feColorMatrix in="SourceAlpha" type="matrix" values="0 0 0 0 0 0 0 0 0 0 0 0 0 0 0 0 0 0 127 0" result="hardAlpha"/>
<feOffset dx="-2.9987" dy="7.4191"/>
<feGaussianBlur stdDeviation="4.20416"/>
<feComposite in2="hardAlpha" operator="out"/>
<feColorMatrix type="matrix" values="0 0 0 0 0.021441 0 0 0 0 0.168056 0 0 0 0 0.395833 0 0 0 0.15 0"/>
<feBlend mode="normal" in2="BackgroundImageFix" result="effect1_dropShadow_4198_3957"/>
<feBlend mode="normal" in="SourceGraphic" in2="effect1_dropShadow_4198_3957" result="shape"/>
</filter>
<linearGradient id="paint0_linear_4198_3957" x1="83.1769" y1="-6.27114" x2="84.434" y2="209.035" gradientUnits="userSpaceOnUse">
<stop stop-color="#CAE0FF" stop-opacity="0"/>
<stop offset="1" stop-color="#BCD8FF"/>
</linearGradient>
<linearGradient id="paint1_linear_4198_3957" x1="82.468" y1="20.21" x2="82.468" y2="91.8476" gradientUnits="userSpaceOnUse">
<stop stop-color="#EDF4FF"/>
<stop offset="1" stop-color="#ABCCFF"/>
</linearGradient>
<linearGradient id="paint2_linear_4198_3957" x1="51.957" y1="55.1826" x2="49.9823" y2="166.215" gradientUnits="userSpaceOnUse">
<stop stop-color="#FCFCFC"/>
<stop offset="1" stop-color="#7B70FF"/>
</linearGradient>
<linearGradient id="paint3_linear_4198_3957" x1="131.852" y1="54.8136" x2="134.843" y2="183.038" gradientUnits="userSpaceOnUse">
<stop stop-color="#BCABFF"/>
<stop offset="0.0001" stop-color="#AC9DFF"/>
<stop offset="0.0002" stop-color="#FBFBFB"/>
<stop offset="1" stop-color="#7B70FF"/>
</linearGradient>
<linearGradient id="paint4_linear_4198_3957" x1="82.468" y1="81.5781" x2="82.5057" y2="206.964" gradientUnits="userSpaceOnUse">
<stop stop-color="#F9F8FF"/>
<stop offset="1" stop-color="#6C55FD"/>
</linearGradient>
<linearGradient id="paint5_linear_4198_3957" x1="16.4951" y1="59.5448" x2="55.7965" y2="51.8778" gradientUnits="userSpaceOnUse">
<stop stop-color="#C6DDFF"/>
<stop offset="1" stop-color="white"/>
</linearGradient>
<linearGradient id="paint6_linear_4198_3957" x1="91.3706" y1="26.4936" x2="126.282" y2="59.2794" gradientUnits="userSpaceOnUse">
<stop stop-color="#FF698D"/>
<stop offset="1" stop-color="#FF3868"/>
</linearGradient>
<linearGradient id="paint7_linear_4198_3957" x1="151.621" y1="82.2844" x2="103.966" y2="72.9877" gradientUnits="userSpaceOnUse">
<stop stop-color="#C6DDFF"/>
<stop offset="1" stop-color="white"/>
</linearGradient>
<linearGradient id="paint8_linear_4198_3957" x1="127.83" y1="26.0853" x2="138.012" y2="34.9011" gradientUnits="userSpaceOnUse">
<stop stop-color="#94BFFF"/>
<stop offset="1" stop-color="#4C94FE"/>
</linearGradient>
<linearGradient id="paint9_linear_4198_3957" x1="37.1407" y1="121.051" x2="47.3224" y2="129.867" gradientUnits="userSpaceOnUse">
<stop stop-color="#94BFFF"/>
<stop offset="1" stop-color="#4C94FE"/>
</linearGradient>
<linearGradient id="paint10_linear_4198_3957" x1="115.738" y1="126.171" x2="125.92" y2="134.987" gradientUnits="userSpaceOnUse">
<stop stop-color="#94BFFF"/>
<stop offset="1" stop-color="#4C94FE"/>
</linearGradient>
<linearGradient id="paint11_linear_4198_3957" x1="50.9098" y1="26.2607" x2="50.9098" y2="48.6053" gradientUnits="userSpaceOnUse">
<stop stop-color="#70A8FF"/>
<stop offset="1" stop-color="#5597FD"/>
</linearGradient>
<linearGradient id="paint12_linear_4198_3957" x1="144.099" y1="107.231" x2="144.099" y2="129.576" gradientUnits="userSpaceOnUse">
<stop stop-color="#70A8FF"/>
<stop offset="1" stop-color="#5597FD"/>
</linearGradient>
<linearGradient id="paint13_linear_4198_3957" x1="25.7162" y1="102.494" x2="18.4922" y2="108.358" gradientUnits="userSpaceOnUse">
<stop stop-color="#70A8FF"/>
<stop offset="1" stop-color="#5597FD"/>
</linearGradient>
<linearGradient id="paint14_linear_4198_3957" x1="144.461" y1="55.1158" x2="150.964" y2="61.7725" gradientUnits="userSpaceOnUse">
<stop stop-color="#70A8FF"/>
<stop offset="1" stop-color="#5597FD"/>
</linearGradient>
</defs>
</svg>
