<svg width="317" height="243" viewBox="0 0 317 243" fill="none" xmlns="http://www.w3.org/2000/svg">
<g opacity="0.2">
<path d="M163.467 220.79L156.812 227.398C152.292 231.886 146.927 235.446 141.022 237.874C135.117 240.303 128.788 241.553 122.397 241.553C116.005 241.553 109.676 240.303 103.771 237.874C97.8658 235.446 92.5005 231.886 87.9814 227.398C78.8572 218.333 73.7318 206.041 73.7318 193.226C73.7318 180.41 78.8572 168.119 87.9814 159.053L122.403 124.879L157.465 159.69C165.439 167.607 170.397 178.026 171.494 189.169C172.591 200.311 169.758 211.486 163.479 220.786L163.467 220.79Z" fill="#6400B1"/>
<path d="M87.9695 159.049C78.8452 168.114 73.7198 180.405 73.7198 193.221C73.7198 206.037 78.8452 218.328 87.9695 227.394L14.2716 154.216C9.74869 149.73 6.16037 144.402 3.71161 138.539C1.26285 132.675 0.00163392 126.39 1.58651e-06 120.042C-0.00163074 113.695 1.25636 107.409 3.7021 101.544C6.14784 95.6794 9.73342 90.3504 14.254 85.8617C18.7746 81.373 24.1416 77.8125 30.0485 75.3836C35.9554 72.9547 42.2864 71.705 48.6799 71.7058C55.0733 71.7067 61.404 72.9582 67.3102 75.3887C73.2164 77.8192 78.5824 81.3812 83.1018 85.8712L122.407 124.878L87.9695 159.049Z" fill="#7657E1"/>
<path d="M316.997 48.3356C317.006 54.6808 315.753 60.9654 313.309 66.8281C310.864 72.6909 307.277 78.0162 302.753 82.498L163.462 220.791C169.741 211.491 172.574 200.317 171.478 189.174C170.382 178.032 165.424 167.612 157.452 159.695L122.389 124.879L233.91 14.1652C240.716 7.40279 249.39 2.79679 258.833 0.930099C268.276 -0.936588 278.065 0.0199429 286.961 3.67864C295.856 7.33735 303.459 13.5338 308.806 21.4837C314.154 29.4337 317.005 38.78 317.001 48.3396L316.997 48.3356Z" fill="#B979FC"/>
<path d="M87.9695 159.049C78.8452 168.114 73.7198 180.405 73.7198 193.221C73.7198 206.037 78.8452 218.328 87.9695 227.394L14.2716 154.216C9.74869 149.73 6.16037 144.402 3.71161 138.539C1.26285 132.675 0.00163392 126.39 1.58651e-06 120.042C-0.00163074 113.695 1.25636 107.409 3.7021 101.544C6.14784 95.6794 9.73342 90.3504 14.254 85.8617C18.7746 81.373 24.1416 77.8125 30.0485 75.3836C35.9554 72.9547 42.2864 71.705 48.6799 71.7058C55.0733 71.7067 61.404 72.9582 67.3102 75.3887C73.2164 77.8192 78.5824 81.3812 83.1018 85.8712L122.407 124.878L87.9695 159.049Z" fill="#7657E1"/>
<path d="M316.997 48.3356C317.006 54.6808 315.753 60.9654 313.309 66.8281C310.864 72.6909 307.277 78.0162 302.753 82.498L163.462 220.791C169.741 211.491 172.574 200.317 171.478 189.174C170.382 178.032 165.424 167.612 157.452 159.695L122.389 124.879L233.91 14.1652C240.716 7.40279 249.39 2.79679 258.833 0.930099C268.276 -0.936588 278.065 0.0199429 286.961 3.67864C295.856 7.33735 303.459 13.5338 308.806 21.4837C314.154 29.4337 317.005 38.78 317.001 48.3396L316.997 48.3356Z" fill="#B979FC"/>
</g>
</svg>
