<svg width="16" height="16" viewBox="0 0 16 16" fill="none" xmlns="http://www.w3.org/2000/svg">
<path d="M10.6667 9.33203H11C11.5514 9.33203 12 8.88336 12 8.33203V2.33203C12 1.7807 11.5514 1.33203 11 1.33203H2.33337C1.78204 1.33203 1.33337 1.7807 1.33337 2.33203V11.9987L4.88871 9.33203H10.6667ZM4.44471 7.9987L2.66671 9.33203V2.66536H10.6667V7.9987H4.44471Z" fill="#030413"/>
<path d="M13.6667 5.33203H13.3334V9.3327C13.3334 10.066 12.738 10.6614 12.0067 10.6654H5.33337V10.9987C5.33337 11.55 5.78204 11.9987 6.33337 11.9987H11.1114L14.6667 14.6654V6.33203C14.6667 5.7807 14.218 5.33203 13.6667 5.33203Z" fill="#030413"/>
</svg>
