<svg width="7" height="11" viewBox="0 0 7 11" fill="none" xmlns="http://www.w3.org/2000/svg">
<path d="M6.11652 0.757699C5.97761 0.619024 5.78934 0.541138 5.59306 0.541138C5.39678 0.541138 5.20851 0.619024 5.0696 0.757699L0.883353 4.9397C0.721853 5.1012 0.649603 5.31937 0.669436 5.53045C0.669436 5.7217 0.740978 5.91224 0.886187 6.05745L5.07031 10.2416C5.13901 10.3103 5.22056 10.3648 5.31031 10.4019C5.40007 10.4391 5.49627 10.4583 5.59342 10.4583C5.69056 10.4583 5.78676 10.4391 5.87652 10.4019C5.96627 10.3648 6.04782 10.3103 6.11652 10.2416C6.18521 10.1729 6.23971 10.0913 6.27688 10.0016C6.31406 9.91182 6.3332 9.81562 6.3332 9.71847C6.3332 9.62132 6.31406 9.52512 6.27688 9.43537C6.23971 9.34561 6.18521 9.26406 6.11652 9.19536L2.41902 5.49787L6.11652 1.8032C6.18523 1.73458 6.23973 1.6531 6.27692 1.5634C6.31411 1.4737 6.33325 1.37755 6.33325 1.28045C6.33325 1.18335 6.31411 1.0872 6.27692 0.9975C6.23973 0.907802 6.18523 0.826315 6.11652 0.757699Z" fill="black"/>
</svg>
