<svg width="16" height="16" viewBox="0 0 16 16" fill="none" xmlns="http://www.w3.org/2000/svg">
<path d="M8 14.6666C7.16667 14.6666 6.386 14.5082 5.658 14.1913C4.93 13.8744 4.29667 13.4468 3.758 12.9086C3.21933 12.3695 2.79178 11.7362 2.47533 11.0086C2.15889 10.2811 2.00044 9.5004 2 8.66663H3.33333C3.33333 9.96663 3.78622 11.0695 4.692 11.9753C5.59778 12.8811 6.70044 13.3337 8 13.3333C9.3 13.3333 10.4029 12.8804 11.3087 11.9746C12.2144 11.0688 12.6671 9.96618 12.6667 8.66663C12.6667 7.36663 12.2138 6.26374 11.308 5.35796C10.4022 4.45218 9.29956 3.99951 8 3.99996H7.9L8.93333 5.03329L8 5.99996L5.33333 3.33329L8 0.666626L8.93333 1.63329L7.9 2.66663H8C8.83333 2.66663 9.614 2.82507 10.342 3.14196C11.07 3.45885 11.7033 3.88663 12.242 4.42529C12.7807 4.96396 13.2084 5.59729 13.5253 6.32529C13.8422 7.05329 14.0004 7.83374 14 8.66663C14 9.49996 13.8416 10.2806 13.5247 11.0086C13.2078 11.7366 12.7802 12.37 12.242 12.9086C11.7029 13.4473 11.0696 13.8751 10.342 14.192C9.61444 14.5088 8.83378 14.6671 8 14.6666Z" fill="#29414D"/>
</svg>
