<svg width="22" height="32" viewBox="0 0 22 32" fill="none" xmlns="http://www.w3.org/2000/svg">
<path d="M2.53602 21.2137C5.52918 22.0329 6.23651 21.804 6.76961 22.6063C6.83072 22.6986 7.14408 23.1693 7.08037 23.7726C7.03096 24.2537 6.76181 24.6256 6.59408 24.7881C5.56949 25.7802 2.74796 24.5671 1.13176 23.2382C0.779393 22.9483 -0.165883 22.172 0.0252528 21.6207C0.103267 21.3945 0.345113 21.2826 0.519345 21.2046C1.28779 20.8614 2.08484 21.0889 2.53602 21.2124V21.2137Z" fill="url(#paint0_linear_262_226)"/>
<path d="M11.7764 1.09375H11.1393V5.27403H11.7764V1.09375Z" fill="url(#paint1_linear_262_226)"/>
<path d="M13.6583 4.83594H9.25959C8.935 4.83594 8.67188 5.09906 8.67188 5.42365V6.99564C8.67188 7.32022 8.935 7.58335 9.25959 7.58335H13.6583C13.9829 7.58335 14.246 7.32022 14.246 6.99564V5.42365C14.246 5.09906 13.9829 4.83594 13.6583 4.83594Z" fill="url(#paint2_linear_262_226)"/>
<path d="M9.66676 6.15234H13.2502C17.766 6.15234 21.4314 9.81773 21.4314 14.3335V16.722C21.4314 19.2601 19.3705 21.3197 16.8337 21.3197H6.08459C3.54652 21.3197 1.48694 19.2588 1.48694 16.722V14.3335C1.48694 9.81773 5.15232 6.15234 9.66806 6.15234H9.66676Z" fill="url(#paint3_linear_262_226)"/>
<path d="M18.2936 16.287C18.0323 16.4157 17.7397 16.4833 17.4433 16.4833H5.47456C5.1768 16.4833 4.88425 16.4157 4.6242 16.287C3.98318 15.9697 3.62171 15.33 3.71143 14.6734L3.71793 14.6253C4.02479 12.4019 6.03886 10.6921 8.50672 10.5646C9.55082 10.51 10.6469 10.4827 11.7911 10.4892C12.687 10.4944 13.553 10.5204 14.3864 10.5633C16.8647 10.6908 18.8931 12.3941 19.2012 14.6253C19.2038 14.6409 19.2051 14.6578 19.2077 14.6734C19.2987 15.33 18.936 15.9697 18.2949 16.287H18.2936Z" fill="url(#paint4_linear_262_226)"/>
<path style="mix-blend-mode:screen" d="M8.3041 15.991C9.55072 15.991 10.5613 14.9804 10.5613 13.7338C10.5613 12.4872 9.55072 11.4766 8.3041 11.4766C7.05747 11.4766 6.04688 12.4872 6.04688 13.7338C6.04688 14.9804 7.05747 15.991 8.3041 15.991Z" fill="url(#paint5_radial_262_226)"/>
<path d="M8.3037 15.3535C9.19845 15.3535 9.9238 14.6281 9.9238 13.7334C9.9238 12.8386 9.19845 12.1133 8.3037 12.1133C7.40894 12.1133 6.68359 12.8386 6.68359 13.7334C6.68359 14.6281 7.40894 15.3535 8.3037 15.3535Z" fill="#030413"/>
<path d="M8.30402 15.0951C9.05516 15.0951 9.66408 14.4862 9.66408 13.7351C9.66408 12.9839 9.05516 12.375 8.30402 12.375C7.55289 12.375 6.94397 12.9839 6.94397 13.7351C6.94397 14.4862 7.55289 15.0951 8.30402 15.0951Z" fill="url(#paint6_linear_262_226)"/>
<path d="M9.17439 13.3834C9.17439 13.6617 8.94815 13.8879 8.6699 13.8879C8.39165 13.8879 8.16541 13.6617 8.16541 13.3834C8.16541 13.1051 8.39165 12.8789 8.6699 12.8789C8.94815 12.8789 9.17439 13.1051 9.17439 13.3834Z" fill="#030413"/>
<path d="M8.10254 14.9812C8.21385 14.9812 8.30408 14.891 8.30408 14.7797C8.30408 14.6684 8.21385 14.5781 8.10254 14.5781C7.99123 14.5781 7.901 14.6684 7.901 14.7797C7.901 14.891 7.99123 14.9812 8.10254 14.9812Z" fill="#030413"/>
<path d="M7.60392 14.4751C7.60392 14.531 7.55842 14.5752 7.50381 14.5752C7.4492 14.5752 7.40369 14.5297 7.40369 14.4751C7.40369 14.4205 7.4492 14.375 7.50381 14.375C7.55842 14.375 7.60392 14.4205 7.60392 14.4751Z" fill="#030413"/>
<path style="mix-blend-mode:screen" d="M14.4018 15.991C15.6484 15.991 16.659 14.9804 16.659 13.7338C16.659 12.4872 15.6484 11.4766 14.4018 11.4766C13.1551 11.4766 12.1445 12.4872 12.1445 13.7338C12.1445 14.9804 13.1551 15.991 14.4018 15.991Z" fill="url(#paint7_radial_262_226)"/>
<path d="M14.4014 15.3535C15.2961 15.3535 16.0215 14.6281 16.0215 13.7334C16.0215 12.8386 15.2961 12.1133 14.4014 12.1133C13.5066 12.1133 12.7812 12.8386 12.7812 13.7334C12.7812 14.6281 13.5066 15.3535 14.4014 15.3535Z" fill="#030413"/>
<path d="M14.4017 15.0951C15.1528 15.0951 15.7617 14.4862 15.7617 13.7351C15.7617 12.9839 15.1528 12.375 14.4017 12.375C13.6505 12.375 13.0416 12.9839 13.0416 13.7351C13.0416 14.4862 13.6505 15.0951 14.4017 15.0951Z" fill="url(#paint8_linear_262_226)"/>
<path d="M15.2733 13.3834C15.2733 13.6617 15.047 13.8879 14.7688 13.8879C14.4905 13.8879 14.2643 13.6617 14.2643 13.3834C14.2643 13.1051 14.4905 12.8789 14.7688 12.8789C15.047 12.8789 15.2733 13.1051 15.2733 13.3834Z" fill="#030413"/>
<path d="M14.2002 14.9812C14.3115 14.9812 14.4017 14.891 14.4017 14.7797C14.4017 14.6684 14.3115 14.5781 14.2002 14.5781C14.0889 14.5781 13.9987 14.6684 13.9987 14.7797C13.9987 14.891 14.0889 14.9812 14.2002 14.9812Z" fill="#030413"/>
<path d="M13.7028 14.4751C13.7028 14.531 13.6573 14.5752 13.6027 14.5752C13.5481 14.5752 13.5026 14.5297 13.5026 14.4751C13.5026 14.4205 13.5481 14.375 13.6027 14.375C13.6573 14.375 13.7028 14.4205 13.7028 14.4751Z" fill="#030413"/>
<path d="M12.2751 0.816552C12.2751 1.26774 11.9097 1.6331 11.4585 1.6331C11.0073 1.6331 10.642 1.26774 10.642 0.816552C10.642 0.365368 11.0073 0 11.4585 0C11.9097 0 12.2751 0.365368 12.2751 0.816552Z" fill="url(#paint9_linear_262_226)"/>
<path d="M12.0254 0.498346C12.0254 0.636172 11.9136 0.746693 11.777 0.746693C11.6405 0.746693 11.5287 0.634872 11.5287 0.498346C11.5287 0.361821 11.6405 0.25 11.777 0.25C11.9136 0.25 12.0254 0.361821 12.0254 0.498346Z" fill="#030413"/>
<path d="M18.4846 8.76966C18.495 9.15063 18.1843 9.60572 17.828 9.64473C17.4939 9.68113 17.2273 9.34047 16.953 8.9881C16.6825 8.64094 16.0896 7.75027 16.3249 7.49803C16.6357 7.16516 18.4599 7.86989 18.4846 8.76836V8.76966Z" fill="#030413"/>
<path d="M15.4345 7.31691C15.591 7.31691 15.7179 7.19 15.7179 7.03345C15.7179 6.87691 15.591 6.75 15.4345 6.75C15.2779 6.75 15.151 6.87691 15.151 7.03345C15.151 7.19 15.2779 7.31691 15.4345 7.31691Z" fill="#030413"/>
<path d="M18.4443 14.0534C18.3533 14.1171 17.7188 12.8247 16.0155 11.7052C15.4174 11.3112 14.8258 11.0304 14.8609 10.9485C14.896 10.8652 15.5617 11.02 16.0948 11.267C17.7929 12.055 18.5523 13.978 18.443 14.0534H18.4443Z" fill="#030413"/>
<path d="M14.0837 5.65072C14.0629 5.65332 14.0499 5.535 13.9511 5.35037C13.9511 5.35037 13.9043 5.26455 13.851 5.19174C13.6793 4.95639 13.1007 4.96159 13.0552 4.96159C12.1529 4.9694 11.5717 4.91219 11.5717 4.91739C11.5717 4.92259 11.9955 4.91349 12.305 4.90698C13.1801 4.88878 13.7015 4.84197 13.9251 5.07602C14.0174 5.17353 14.0642 5.29966 14.0642 5.29966C14.1279 5.47129 14.1058 5.64682 14.0824 5.64942L14.0837 5.65072Z" fill="#030413"/>
<path d="M13.8965 17.4517C13.8744 17.6676 13.695 17.834 13.4778 17.8548L10.4886 18.1434C10.2727 18.1642 10.0634 18.0355 10.001 17.8275C9.97236 17.7352 9.95156 17.6402 9.93725 17.5414C9.93335 17.5141 9.93986 17.4868 9.95676 17.4647C9.97366 17.4426 9.99837 17.4296 10.0257 17.427L13.7977 17.0629C13.825 17.0603 13.851 17.0694 13.8718 17.0863C13.8926 17.1045 13.9043 17.1293 13.9056 17.1566C13.9095 17.2554 13.9069 17.3542 13.8978 17.4504L13.8965 17.4517Z" fill="#030413"/>
<path d="M13.8955 17.4492C13.8006 18.3763 13.0634 19.1382 12.0999 19.2306C11.1507 19.3229 10.2926 18.7339 10.0117 17.8614C10.0871 18.0473 10.2835 18.1618 10.4876 18.1409L13.4782 17.8536C13.694 17.8315 13.8734 17.6664 13.8955 17.4505V17.4492Z" fill="url(#paint10_linear_262_226)"/>
<path d="M18.607 24.166C18.607 24.1933 18.607 24.2193 18.607 24.2453C18.5979 24.4962 18.5393 24.6848 18.5107 24.7693C17.6877 27.2827 17.1949 28.6089 16.5032 29.6816C16.3835 29.8662 16.2587 30.0444 16.1235 30.2186C15.9467 30.4514 15.7529 30.6789 15.5384 30.9129C15.0612 31.433 14.3383 31.6684 14.1055 31.749C13.2539 32.0494 12.501 31.9947 12.0017 31.9999H11.9146C11.4127 31.9947 10.6612 32.0507 9.81082 31.749C9.57808 31.6684 8.85384 31.433 8.37795 30.9129C7.06471 29.484 6.55892 28.2956 5.4056 24.7693C5.3783 24.6887 5.32368 24.5132 5.31068 24.2778C5.30678 24.2102 5.30548 24.1413 5.31068 24.0737C5.33539 23.6524 5.50702 23.2389 5.80998 22.8618C6.33007 22.2143 7.13232 21.8594 7.96188 21.8568L11.9614 21.8399L15.8882 21.8243C16.7359 21.8203 17.5577 22.1766 18.096 22.8319C18.356 23.1492 18.5224 23.4925 18.5836 23.8461C18.5914 23.8968 18.5992 23.9475 18.6044 23.9983C18.6096 24.0542 18.6122 24.1101 18.6122 24.1673L18.607 24.166Z" fill="url(#paint11_linear_262_226)"/>
<path d="M11.9541 21.8359L7.95454 21.8529C7.12499 21.8568 6.32144 22.2117 5.80264 22.8579C5.49968 23.235 5.32805 23.6485 5.30334 24.0698C5.32415 23.6381 5.50098 23.2129 5.81824 22.828C6.35524 22.1727 7.17829 21.8164 8.02605 21.8203L11.9541 21.8359Z" fill="url(#paint12_linear_262_226)"/>
<path d="M15.9304 27.7302C15.8719 24.6278 15.4519 24.0141 16.0708 23.2755C16.1423 23.191 16.5051 22.758 17.1019 22.6475C17.5778 22.5591 18.0095 22.7112 18.2136 22.8283C19.4553 23.5317 19.0861 26.5808 18.2695 28.5051C18.0914 28.9251 17.6129 30.0511 17.0304 30.0238C16.7911 30.0134 16.6156 29.8119 16.4921 29.6675C15.9447 29.0278 15.9395 28.1983 15.9304 27.7302Z" fill="url(#paint13_linear_262_226)"/>
<path d="M16.5005 29.6797C16.3809 29.8644 16.2561 30.0425 16.1209 30.2167C16.078 30.1725 16.0403 30.1283 16.0052 30.088C15.4578 29.4483 15.4526 28.6187 15.4435 28.1507C15.3849 25.0483 14.965 24.4346 15.5839 23.6973C15.6294 23.6427 15.7958 23.4451 16.065 23.2812C15.4539 24.0172 15.8699 24.6361 15.9284 27.7294C15.9362 28.1975 15.944 29.027 16.4901 29.668C16.494 29.6719 16.4979 29.6758 16.4992 29.6797H16.5005Z" fill="url(#paint14_linear_262_226)"/>
<path d="M18.2522 25.147C18.234 24.8141 18.1716 24.5684 18.0467 24.0782C17.8829 23.4372 17.6775 23.1238 17.8114 23.0003C17.8985 22.9197 18.0688 22.9743 18.1078 22.986C18.6943 23.1732 18.8763 24.2732 18.8503 24.9623C18.8347 25.3836 18.732 25.8556 18.5772 25.8764C18.5525 25.8803 18.4927 25.8764 18.4485 25.8387C18.2756 25.6866 18.2652 25.4018 18.2509 25.1483L18.2522 25.147Z" fill="#030413"/>
<path d="M18.6546 26.3253C18.6546 26.393 18.6 26.4476 18.5324 26.4476C18.4648 26.4476 18.4102 26.393 18.4102 26.3253C18.4102 26.2577 18.4648 26.2031 18.5324 26.2031C18.6 26.2031 18.6546 26.2577 18.6546 26.3253Z" fill="#030413"/>
<defs>
<linearGradient id="paint0_linear_262_226" x1="4.2374" y1="23.0982" x2="15.8411" y2="32.118" gradientUnits="userSpaceOnUse">
<stop offset="0.04" stop-color="#06BED8"/>
<stop offset="1" stop-color="#DEFA8E"/>
</linearGradient>
<linearGradient id="paint1_linear_262_226" x1="10.1602" y1="3.37307" x2="12.0703" y2="3.09482" gradientUnits="userSpaceOnUse">
<stop offset="0.04" stop-color="#06CFF1"/>
<stop offset="1" stop-color="#DEFA8E"/>
</linearGradient>
<linearGradient id="paint2_linear_262_226" x1="9.67306" y1="8.22567" x2="13.0641" y2="4.39646" gradientUnits="userSpaceOnUse">
<stop offset="0.04" stop-color="#06CFF1"/>
<stop offset="1" stop-color="#DEFA8E"/>
</linearGradient>
<linearGradient id="paint3_linear_262_226" x1="4.76095" y1="21.49" x2="18.199" y2="8.052" gradientUnits="userSpaceOnUse">
<stop offset="0.04" stop-color="#06CFF1"/>
<stop offset="1" stop-color="#DEFA8E"/>
</linearGradient>
<linearGradient id="paint4_linear_262_226" x1="11.4232" y1="16.4638" x2="11.5428" y2="11.0899" gradientUnits="userSpaceOnUse">
<stop stop-color="#030D14"/>
<stop offset="1" stop-color="#0B2F45"/>
</linearGradient>
<radialGradient id="paint5_radial_262_226" cx="0" cy="0" r="1" gradientUnits="userSpaceOnUse" gradientTransform="translate(8.3041 13.7338) scale(2.23382)">
<stop offset="0.13" stop-color="#3280FC"/>
<stop offset="1"/>
</radialGradient>
<linearGradient id="paint6_linear_262_226" x1="6.94267" y1="13.7351" x2="9.66408" y2="13.7351" gradientUnits="userSpaceOnUse">
<stop stop-color="#030D14"/>
<stop offset="1" stop-color="#0B2F45"/>
</linearGradient>
<radialGradient id="paint7_radial_262_226" cx="0" cy="0" r="1" gradientUnits="userSpaceOnUse" gradientTransform="translate(14.4018 0.0448319) scale(2.23382)">
<stop offset="0.13" stop-color="#3280FC"/>
<stop offset="1"/>
</radialGradient>
<linearGradient id="paint8_linear_262_226" x1="13.0416" y1="13.7351" x2="15.763" y2="13.7351" gradientUnits="userSpaceOnUse">
<stop stop-color="#030D14"/>
<stop offset="1" stop-color="#0B2F45"/>
</linearGradient>
<linearGradient id="paint9_linear_262_226" x1="9.7409" y1="1.0675" x2="12.2699" y2="0.69823" gradientUnits="userSpaceOnUse">
<stop offset="0.04" stop-color="#06CFF1"/>
<stop offset="1" stop-color="#DEFA8E"/>
</linearGradient>
<linearGradient id="paint10_linear_262_226" x1="11.3757" y1="18.5479" x2="15.266" y2="14.6576" gradientUnits="userSpaceOnUse">
<stop offset="0.07" stop-color="#0DA9AB"/>
<stop offset="1" stop-color="#DEFA8E"/>
</linearGradient>
<linearGradient id="paint11_linear_262_226" x1="7.70183" y1="30.3577" x2="18.0101" y2="18.3201" gradientUnits="userSpaceOnUse">
<stop offset="0.04" stop-color="#06CFF0"/>
<stop offset="0.16" stop-color="#36D8DA"/>
<stop offset="0.27" stop-color="#5CE0C9"/>
<stop offset="0.38" stop-color="#77E5BD"/>
<stop offset="0.47" stop-color="#88E8B5"/>
<stop offset="0.54" stop-color="#8EEAB3"/>
<stop offset="0.8" stop-color="#B9F29E"/>
<stop offset="1" stop-color="#DEFA8E"/>
</linearGradient>
<linearGradient id="paint12_linear_262_226" x1="7.15489" y1="24.3532" x2="13.3544" y2="17.1148" gradientUnits="userSpaceOnUse">
<stop offset="0.04" stop-color="#06CFF1"/>
<stop offset="1" stop-color="#DEFA8E"/>
</linearGradient>
<linearGradient id="paint13_linear_262_226" x1="20.4745" y1="28.5561" x2="12.7564" y2="22.9101" gradientUnits="userSpaceOnUse">
<stop offset="0.04" stop-color="#06CFF1"/>
<stop offset="0.07" stop-color="#0FD0EC"/>
<stop offset="0.42" stop-color="#66E2C4"/>
<stop offset="0.69" stop-color="#A7EFA7"/>
<stop offset="0.9" stop-color="#CEF694"/>
<stop offset="1" stop-color="#DEFA8E"/>
</linearGradient>
<linearGradient id="paint14_linear_262_226" x1="13.6738" y1="28.0102" x2="19.1439" y2="25.1601" gradientUnits="userSpaceOnUse">
<stop offset="0.04" stop-color="#06BED8"/>
<stop offset="1" stop-color="#DEFA8E"/>
</linearGradient>
</defs>
</svg>
