<svg width="24" height="24" viewBox="0 0 24 24" fill="none" xmlns="http://www.w3.org/2000/svg">
<path d="M23.781 0.21776C23.8849 0.321758 23.9559 0.453971 23.9852 0.597976C24.0145 0.74198 24.0009 0.89143 23.946 1.02776L15.2175 22.8483C15.1406 23.0404 15.0122 23.2076 14.8463 23.3315C14.6805 23.4554 14.4837 23.5311 14.2776 23.5503C14.0715 23.5696 13.8641 23.5316 13.6782 23.4405C13.4923 23.3494 13.3352 23.2089 13.224 23.0343L8.45702 15.5418L0.96452 10.7748C0.789496 10.6637 0.648547 10.5065 0.557224 10.3205C0.465902 10.1344 0.427756 9.92671 0.446997 9.72034C0.466238 9.51397 0.542117 9.31692 0.666261 9.15095C0.790405 8.98497 0.957989 8.85652 1.15052 8.77976L22.971 0.0542598C23.1073 -0.000621803 23.2568 -0.0142414 23.4008 0.0150929C23.5448 0.0444271 23.677 0.115422 23.781 0.21926V0.21776ZM9.95402 15.1038L14.0955 21.6108L21.195 3.86276L9.95402 15.1038ZM20.1345 2.80226L2.38652 9.90176L8.89502 14.0418L20.1345 2.80226Z" fill="#030413"/>
</svg>
