<svg width="13" height="14" viewBox="0 0 13 14" fill="none" xmlns="http://www.w3.org/2000/svg">
<path d="M0 10.7917C0 12.285 1.21496 13.5 2.70833 13.5H10.2917C11.785 13.5 13 12.285 13 10.7917V5.91667H0V10.7917ZM4.54838 8.99171H5.7655L6.08833 7.75508C6.13925 7.559 6.31529 7.4225 6.51733 7.41871C6.71938 7.4225 6.89542 7.559 6.94633 7.75508L7.26917 8.99171H8.48629C8.73112 8.99171 8.88225 9.18346 8.88225 9.35788C8.88225 9.56317 8.73925 9.73596 8.57567 9.82696L7.7285 10.2982L8.10442 11.3236C8.177 11.5224 8.11146 11.745 7.94246 11.8723C7.76967 12.0023 7.53133 12.0007 7.36017 11.8685L6.51733 11.2169L5.6745 11.8685C5.50333 12.0007 5.265 12.0023 5.09221 11.8723C4.92321 11.745 4.85767 11.5224 4.93025 11.3236L5.30617 10.2982L4.459 9.82696C4.29542 9.73596 4.15242 9.56317 4.15242 9.35788C4.15242 9.184 4.30354 8.99171 4.54838 8.99171ZM13 4.29167V4.83333H0V4.29167C0 2.79829 1.21496 1.58333 2.70833 1.58333H3.25V1.04167C3.25 0.742667 3.49267 0.5 3.79167 0.5C4.09067 0.5 4.33333 0.742667 4.33333 1.04167V1.58333H8.66667V1.04167C8.66667 0.742667 8.90933 0.5 9.20833 0.5C9.50733 0.5 9.75 0.742667 9.75 1.04167V1.58333H10.2917C11.785 1.58333 13 2.79829 13 4.29167Z" fill="white"/>
</svg>
