<svg width="15" height="16" viewBox="0 0 15 16" fill="none" xmlns="http://www.w3.org/2000/svg">
<g clip-path="url(#clip0_37_4841)">
<path d="M2.71438 7.37495H0C0.000992411 6.54645 0.330551 5.75218 0.916387 5.16634C1.50222 4.5805 2.2965 4.25094 3.125 4.24995H6.875V1.52245C6.87511 1.35041 6.91861 1.18117 7.00146 1.03039C7.08432 0.879615 7.20386 0.752166 7.34903 0.659832C7.49419 0.567498 7.6603 0.513262 7.83198 0.50214C8.00367 0.491018 8.17538 0.52337 8.33125 0.596202L10.3313 1.5337C10.4217 1.58975 10.4963 1.66797 10.5481 1.76094C10.5998 1.8539 10.627 1.95855 10.627 2.06495C10.627 2.17136 10.5998 2.276 10.5481 2.36897C10.4963 2.46193 10.4217 2.54015 10.3313 2.5962L8.125 3.62495V4.24995H11.875C12.7035 4.25094 13.4978 4.5805 14.0836 5.16634C14.6694 5.75218 14.999 6.54645 15 7.37495H12.2856C11.7973 7.37508 11.3282 7.18471 10.9781 6.84433L9.26813 4.98245C8.79019 4.52152 8.1511 4.26552 7.48712 4.26902C6.82314 4.27252 6.1868 4.53525 5.71375 5.0012L4.04 6.82558C3.68779 7.17625 3.21138 7.37369 2.71438 7.37495ZM7.5 12.375C7.33424 12.375 7.17527 12.4408 7.05806 12.558C6.94085 12.6752 6.875 12.8342 6.875 13V15.5H8.125V13C8.125 12.8342 8.05915 12.6752 7.94194 12.558C7.82473 12.4408 7.66576 12.375 7.5 12.375ZM12.2856 8.62495H15V13.625C15 14.1222 14.8025 14.5991 14.4508 14.9508C14.0992 15.3024 13.6223 15.5 13.125 15.5H9.375V13C9.375 12.5027 9.17746 12.0258 8.82583 11.6741C8.47419 11.3225 7.99728 11.125 7.5 11.125C7.00272 11.125 6.52581 11.3225 6.17417 11.6741C5.82254 12.0258 5.625 12.5027 5.625 13V15.5H1.875C1.37772 15.5 0.900805 15.3024 0.549175 14.9508C0.197544 14.5991 0 14.1222 0 13.625L0 8.62495H2.71438C3.12923 8.62509 3.53994 8.54253 3.92251 8.3821C4.30509 8.22167 4.65184 7.98658 4.9425 7.69058L6.61625 5.8662C6.85259 5.64446 7.16354 5.5195 7.4876 5.51603C7.81166 5.51255 8.12521 5.63083 8.36625 5.84745L10.0775 7.70933C10.3668 8.00027 10.7109 8.23099 11.0899 8.38815C11.4689 8.54531 11.8753 8.62579 12.2856 8.62495ZM3.75 13.625C3.75 13.4592 3.68415 13.3002 3.56694 13.183C3.44973 13.0658 3.29076 13 3.125 13H2.5C2.33424 13 2.17527 13.0658 2.05806 13.183C1.94085 13.3002 1.875 13.4592 1.875 13.625C1.875 13.7907 1.94085 13.9497 2.05806 14.0669C2.17527 14.1841 2.33424 14.25 2.5 14.25H3.125C3.29076 14.25 3.44973 14.1841 3.56694 14.0669C3.68415 13.9497 3.75 13.7907 3.75 13.625ZM3.75 11.125C3.75 10.9592 3.68415 10.8002 3.56694 10.683C3.44973 10.5658 3.29076 10.5 3.125 10.5H2.5C2.33424 10.5 2.17527 10.5658 2.05806 10.683C1.94085 10.8002 1.875 10.9592 1.875 11.125C1.875 11.2907 1.94085 11.4497 2.05806 11.5669C2.17527 11.6841 2.33424 11.75 2.5 11.75H3.125C3.29076 11.75 3.44973 11.6841 3.56694 11.5669C3.68415 11.4497 3.75 11.2907 3.75 11.125ZM8.75 8.62495C8.75 8.37773 8.67669 8.13605 8.53934 7.93049C8.40199 7.72493 8.20676 7.56471 7.97835 7.4701C7.74995 7.37549 7.49861 7.35074 7.25614 7.39897C7.01366 7.4472 6.79093 7.56625 6.61612 7.74107C6.4413 7.91588 6.32225 8.13861 6.27402 8.38109C6.22579 8.62356 6.25054 8.8749 6.34515 9.10331C6.43976 9.33171 6.59998 9.52694 6.80554 9.66429C7.0111 9.80164 7.25277 9.87495 7.5 9.87495C7.83152 9.87495 8.14946 9.74326 8.38388 9.50883C8.6183 9.27441 8.75 8.95647 8.75 8.62495ZM13.125 13.625C13.125 13.4592 13.0592 13.3002 12.9419 13.183C12.8247 13.0658 12.6658 13 12.5 13H11.875C11.7092 13 11.5503 13.0658 11.4331 13.183C11.3158 13.3002 11.25 13.4592 11.25 13.625C11.25 13.7907 11.3158 13.9497 11.4331 14.0669C11.5503 14.1841 11.7092 14.25 11.875 14.25H12.5C12.6658 14.25 12.8247 14.1841 12.9419 14.0669C13.0592 13.9497 13.125 13.7907 13.125 13.625ZM12.5 10.5H11.875C11.7092 10.5 11.5503 10.5658 11.4331 10.683C11.3158 10.8002 11.25 10.9592 11.25 11.125C11.25 11.2907 11.3158 11.4497 11.4331 11.5669C11.5503 11.6841 11.7092 11.75 11.875 11.75H12.5C12.6658 11.75 12.8247 11.6841 12.9419 11.5669C13.0592 11.4497 13.125 11.2907 13.125 11.125C13.125 10.9592 13.0592 10.8002 12.9419 10.683C12.8247 10.5658 12.6658 10.5 12.5 10.5Z" fill="#9C8BB8"/>
</g>
<defs>
<clipPath id="clip0_37_4841">
<rect width="15" height="15" fill="white" transform="translate(0 0.5)"/>
</clipPath>
</defs>
</svg>
