<svg width="12" height="13" viewBox="0 0 12 13" fill="none" xmlns="http://www.w3.org/2000/svg">
<g clip-path="url(#clip0_1419_7105)">
<path d="M6 4V0.73C6.4565 0.903 6.8765 1.1695 7.2325 1.525L8.9745 3.268C9.3305 3.6235 9.597 4.0435 9.77 4.5H6.5C6.224 4.5 6 4.2755 6 4ZM6.635 10.24C6.2285 10.6465 6 11.1975 6 11.7725V12.5H6.7275C7.3025 12.5 7.8535 12.2715 8.26 11.865L11.6635 8.4615C12.112 8.013 12.112 7.285 11.6635 6.8365C11.215 6.388 10.487 6.388 10.0385 6.8365L6.635 10.24ZM5 11.7725C5 10.9265 5.3295 10.131 5.9275 9.533L9.331 6.1295C9.5255 5.935 9.752 5.7855 9.9965 5.679C9.9945 5.619 9.992 5.5595 9.988 5.4995H6.5C5.673 5.4995 5 4.8265 5 3.9995V0.512C4.9195 0.5065 4.839 0.5 4.7575 0.5H2.5C1.1215 0.5 0 1.6215 0 3V10C0 11.3785 1.1215 12.5 2.5 12.5H5V11.7725Z" fill="#654E8A"/>
</g>
<defs>
<clipPath id="clip0_1419_7105">
<rect width="12" height="12" fill="white" transform="translate(0 0.5)"/>
</clipPath>
</defs>
</svg>
