<svg width="14" height="14" viewBox="0 0 14 14" fill="none" xmlns="http://www.w3.org/2000/svg">
<g clip-path="url(#clip0_1651_4997)">
<path d="M13.9732 3.23438L9.06267 8.14488C8.51513 8.69102 7.77335 8.99773 7 8.99773C6.22665 8.99773 5.48487 8.69102 4.93733 8.14488L0.0268333 3.23438C0.0186667 3.32654 0 3.40996 0 3.50154V10.5015C0.00092625 11.2748 0.308514 12.0161 0.855295 12.5629C1.40208 13.1097 2.1434 13.4173 2.91667 13.4182H11.0833C11.8566 13.4173 12.5979 13.1097 13.1447 12.5629C13.6915 12.0161 13.9991 11.2748 14 10.5015V3.50154C14 3.40996 13.9813 3.32654 13.9732 3.23438Z" fill="#654E8A"/>
<path d="M8.23743 7.3172L13.5656 1.98845C13.3075 1.56047 12.9434 1.20622 12.5086 0.959874C12.0737 0.713528 11.5827 0.583397 11.0829 0.582031H2.91626C2.41647 0.583397 1.92547 0.713528 1.49061 0.959874C1.05575 1.20622 0.691706 1.56047 0.433594 1.98845L5.76176 7.3172C6.09051 7.64463 6.5356 7.82847 6.99959 7.82847C7.46359 7.82847 7.90868 7.64463 8.23743 7.3172Z" fill="#654E8A"/>
</g>
<defs>
<clipPath id="clip0_1651_4997">
<rect width="14" height="14" fill="white"/>
</clipPath>
</defs>
</svg>
