<svg width="16" height="17" viewBox="0 0 16 17" fill="none" xmlns="http://www.w3.org/2000/svg">
<g clip-path="url(#clip0_589_647)">
<path d="M8 0.5C5.87897 0.502294 3.84547 1.34589 2.34568 2.84568C0.845885 4.34547 0.00229405 6.37897 0 8.5C0.4 19.1 15.6 19.0953 16 8.5C15.9977 6.37897 15.1541 4.34547 13.6543 2.84568C12.1545 1.34589 10.121 0.502294 8 0.5ZM10.3333 5.83333C10.5985 5.83333 10.8529 5.93869 11.0404 6.12623C11.228 6.31376 11.3333 6.56812 11.3333 6.83333C11.3333 7.09855 11.228 7.3529 11.0404 7.54044C10.8529 7.72798 10.5985 7.83333 10.3333 7.83333C10.0681 7.83333 9.81376 7.72798 9.62623 7.54044C9.43869 7.3529 9.33333 7.09855 9.33333 6.83333C9.33333 6.56812 9.43869 6.31376 9.62623 6.12623C9.81376 5.93869 10.0681 5.83333 10.3333 5.83333ZM5.66667 5.83333C5.93188 5.83333 6.18624 5.93869 6.37377 6.12623C6.56131 6.31376 6.66667 6.56812 6.66667 6.83333C6.66667 7.09855 6.56131 7.3529 6.37377 7.54044C6.18624 7.72798 5.93188 7.83333 5.66667 7.83333C5.40145 7.83333 5.1471 7.72798 4.95956 7.54044C4.77202 7.3529 4.66667 7.09855 4.66667 6.83333C4.66667 6.56812 4.77202 6.31376 4.95956 6.12623C5.1471 5.93869 5.40145 5.83333 5.66667 5.83333ZM11.8947 10.8613C11.503 11.5519 10.9374 12.128 10.2542 12.5324C9.57098 12.9368 8.79386 13.1555 8 13.1667C7.20559 13.1556 6.42788 12.937 5.744 12.5326C5.06013 12.1282 4.49385 11.5521 4.10133 10.8613C4.03046 10.7507 3.99385 10.6216 3.99611 10.4902C3.99838 10.3588 4.03941 10.2311 4.11406 10.1229C4.18871 10.0148 4.29364 9.93116 4.41568 9.88248C4.53772 9.8338 4.67143 9.82227 4.8 9.84933C5.82512 10.2356 6.90545 10.4552 8 10.5C9.09275 10.4547 10.1712 10.235 11.1947 9.84933C11.3233 9.82193 11.4572 9.83321 11.5795 9.88175C11.7018 9.9303 11.807 10.0139 11.8818 10.1221C11.9567 10.2303 11.9978 10.3582 12.0001 10.4898C12.0024 10.6213 11.9657 10.7506 11.8947 10.8613Z" fill="#654E8A"/>
</g>
<defs>
<clipPath id="clip0_589_647">
<rect width="16" height="16" fill="white" transform="translate(0 0.5)"/>
</clipPath>
</defs>
</svg>
