<svg width="15" height="16" viewBox="0 0 15 16" fill="none" xmlns="http://www.w3.org/2000/svg">
<g clip-path="url(#clip0_37_4854)">
<g clip-path="url(#clip1_37_4854)">
<path d="M1 10.7917C1 12.285 2.21496 13.5 3.70833 13.5H11.2917C12.785 13.5 14 12.285 14 10.7917V5.91667H1V10.7917ZM5.54838 8.99171H6.7655L7.08833 7.75508C7.13925 7.559 7.31529 7.4225 7.51733 7.41871C7.71938 7.4225 7.89542 7.559 7.94633 7.75508L8.26917 8.99171H9.48629C9.73112 8.99171 9.88225 9.18346 9.88225 9.35788C9.88225 9.56317 9.73925 9.73596 9.57567 9.82696L8.7285 10.2982L9.10442 11.3236C9.177 11.5224 9.11146 11.745 8.94246 11.8723C8.76967 12.0023 8.53133 12.0007 8.36017 11.8685L7.51733 11.2169L6.6745 11.8685C6.50333 12.0007 6.265 12.0023 6.09221 11.8723C5.92321 11.745 5.85767 11.5224 5.93025 11.3236L6.30617 10.2982L5.459 9.82696C5.29542 9.73596 5.15242 9.56317 5.15242 9.35788C5.15242 9.184 5.30354 8.99171 5.54838 8.99171ZM14 4.29167V4.83333H1V4.29167C1 2.79829 2.21496 1.58333 3.70833 1.58333H4.25V1.04167C4.25 0.742667 4.49267 0.5 4.79167 0.5C5.09067 0.5 5.33333 0.742667 5.33333 1.04167V1.58333H9.66667V1.04167C9.66667 0.742667 9.90933 0.5 10.2083 0.5C10.5073 0.5 10.75 0.742667 10.75 1.04167V1.58333H11.2917C12.785 1.58333 14 2.79829 14 4.29167Z" fill="#9C8BB8"/>
</g>
</g>
<defs>
<clipPath id="clip0_37_4854">
<rect width="15" height="15" fill="white" transform="translate(0 0.5)"/>
</clipPath>
<clipPath id="clip1_37_4854">
<rect width="13" height="13" fill="white" transform="translate(1 0.5)"/>
</clipPath>
</defs>
</svg>
