<svg width="19" height="19" viewBox="0 0 19 19" fill="none" xmlns="http://www.w3.org/2000/svg">
<g clip-path="url(#clip0_37_4879)">
<path d="M12.2569 15.582C12.0981 15.574 11.9418 15.5151 11.815 15.4097L8.93137 13.0123C8.74966 12.862 8.64996 12.634 8.66178 12.398L8.79644 9.71188L4.61345 5.08815C4.09906 4.51868 3.83703 3.78389 3.8754 3.01835C3.95467 1.43709 5.30607 0.214717 6.88659 0.29395L16.133 0.757481C17.7135 0.836714 18.9359 2.18736 18.8566 3.76937C18.8182 4.53491 18.484 5.23981 17.9152 5.75498L13.2908 9.93794L13.0434 14.8712C13.0292 15.1551 12.8559 15.4063 12.5956 15.5209C12.4866 15.5687 12.3707 15.5877 12.2569 15.582ZM7.97241 14.1657C7.43097 13.7165 7.12833 13.0278 7.16367 12.3229L7.26719 10.2578L3.50118 6.09422C2.82457 5.34541 2.45567 4.40551 2.39955 3.41295C1.46237 3.84733 0.784199 4.76252 0.728962 5.86439C0.690584 6.62992 0.952623 7.36472 1.46701 7.93418L5.65 12.5579L5.51534 15.244C5.50351 15.48 5.60326 15.7073 5.78493 15.8583L8.66851 18.2557C8.79539 18.3612 8.95163 18.4201 9.11043 18.428C9.22429 18.4337 9.34096 18.4133 9.44921 18.3662C9.70948 18.2523 9.88281 18.0004 9.89705 17.7165L9.99092 15.8439L7.97241 14.1657Z" fill="#979797"/>
</g>
<defs>
<clipPath id="clip0_37_4879">
<rect width="18" height="18" fill="white" transform="translate(1.02295) rotate(2.86989)"/>
</clipPath>
</defs>
</svg>
