<svg width="16" height="16" viewBox="0 0 16 16" fill="none" xmlns="http://www.w3.org/2000/svg">
<g clip-path="url(#clip0_1364_3163)">
<path d="M15.1773 3.04376C14.9337 2.94228 14.6654 2.91561 14.4066 2.96713C14.1478 3.01866 13.9102 3.14605 13.724 3.33309L12 5.05709L8.94267 1.99976C8.69263 1.7498 8.35355 1.60938 8 1.60938C7.64645 1.60938 7.30737 1.7498 7.05733 1.99976L4 5.05709L2.276 3.33309C2.08953 3.14668 1.85198 3.01974 1.59338 2.96831C1.33477 2.91689 1.06673 2.94329 0.823127 3.04419C0.579528 3.14508 0.37131 3.31593 0.224798 3.53515C0.0782854 3.75436 5.62991e-05 4.01209 0 4.27576L0 11.3331C0.00105857 12.2168 0.352588 13.0641 0.97748 13.6889C1.60237 14.3138 2.4496 14.6654 3.33333 14.6664H12.6667C13.5504 14.6654 14.3976 14.3138 15.0225 13.6889C15.6474 13.0641 15.9989 12.2168 16 11.3331V4.27576C16.0001 4.01207 15.9219 3.75428 15.7755 3.53499C15.6291 3.3157 15.4209 3.14475 15.1773 3.04376Z" fill="#7856FF"/>
</g>
<defs>
<clipPath id="clip0_1364_3163">
<rect width="16" height="16" fill="white"/>
</clipPath>
</defs>
</svg>
