<svg width="18" height="18" viewBox="0 0 18 18" fill="none" xmlns="http://www.w3.org/2000/svg">
<path d="M13.1233 0.606445C12.2791 0.619576 11.4534 0.855235 10.7294 1.28962C10.0054 1.72401 9.40886 2.34175 9 3.08045C8.59114 2.34175 7.99461 1.72401 7.27063 1.28962C6.54665 0.855235 5.72086 0.619576 4.87666 0.606445C3.53091 0.664915 2.263 1.25362 1.34992 2.24396C0.436849 3.23429 -0.047163 4.54575 0.00362936 5.89181C0.00362936 10.971 8.21732 16.8374 8.56668 17.0863L9 17.3929L9.43332 17.0863C9.78268 16.8389 17.9964 10.971 17.9964 5.89181C18.0472 4.54575 17.5632 3.23429 16.6501 2.24396C15.737 1.25362 14.4691 0.664915 13.1233 0.606445ZM9 15.5472C6.56123 13.7254 1.50302 9.24971 1.50302 5.89181C1.45178 4.94323 1.77769 4.01287 2.40968 3.30363C3.04167 2.5944 3.92847 2.16383 4.87666 2.10584C5.82486 2.16383 6.71165 2.5944 7.34365 3.30363C7.97564 4.01287 8.30155 4.94323 8.2503 5.89181H9.7497C9.69845 4.94323 10.0244 4.01287 10.6564 3.30363C11.2883 2.5944 12.1751 2.16383 13.1233 2.10584C14.0715 2.16383 14.9583 2.5944 15.5903 3.30363C16.2223 4.01287 16.5482 4.94323 16.497 5.89181C16.497 9.25121 11.4388 13.7254 9 15.5472Z" fill="#616161"/>
</svg>
