<svg width="14" height="14" viewBox="0 0 14 14" fill="none" xmlns="http://www.w3.org/2000/svg">
<g clip-path="url(#clip0_1223_25239)">
<path d="M1.16667 12.25V1.75C1.16667 1.59529 1.22812 1.44692 1.33752 1.33752C1.44692 1.22812 1.59529 1.16667 1.75 1.16667H4.66667V0H1.75C1.28587 0 0.840752 0.184374 0.512563 0.512563C0.184374 0.840752 0 1.28587 0 1.75L0 12.25C0 12.7141 0.184374 13.1592 0.512563 13.4874C0.840752 13.8156 1.28587 14 1.75 14H4.66667V12.8333H1.75C1.59529 12.8333 1.44692 12.7719 1.33752 12.6625C1.22812 12.5531 1.16667 12.4047 1.16667 12.25Z" fill="#654E8A"/>
<path d="M13.4878 5.76306L10.8126 3.08789L9.98777 3.91272L12.4751 6.40006L2.91602 6.41697V7.58364L12.5078 7.56672L9.9866 10.0879L10.8114 10.9127L13.4866 8.23756C13.8148 7.90954 13.9993 7.46459 13.9996 7.00055C13.9998 6.53651 13.8157 6.09139 13.4878 5.76306Z" fill="#654E8A"/>
</g>
<defs>
<clipPath id="clip0_1223_25239">
<rect width="14" height="14" fill="white"/>
</clipPath>
</defs>
</svg>
