<svg width="31" height="31" viewBox="0 0 31 31" fill="none" xmlns="http://www.w3.org/2000/svg">
<circle cx="15.5" cy="15.5" r="15.5" fill="#ECE8EF"/>
<path d="M11.662 19H20.3375C20.6045 19 20.8676 18.9355 21.1045 18.812C21.3414 18.6886 21.5451 18.5097 21.6985 18.2905C21.8518 18.0714 21.9503 17.8185 21.9855 17.5531C22.0207 17.2878 21.9916 17.0178 21.9008 16.7661L20.3204 12.3856C20.0505 11.4121 19.4699 10.554 18.6675 9.94259C17.8652 9.33119 16.8851 9.00012 15.8773 9C14.8282 8.99998 13.8104 9.35866 12.992 10.0168C12.1736 10.675 11.6036 11.5932 11.376 12.62L10.0738 16.8422C9.99714 17.0915 9.9799 17.3553 10.0235 17.6125C10.0671 17.8697 10.1703 18.113 10.3248 18.3229C10.4792 18.5328 10.6807 18.7034 10.913 18.821C11.1452 18.9386 11.4018 18.9999 11.662 19Z" fill="#654E8A"/>
<path d="M13 20C13.1171 20.5644 13.43 21.0719 13.8856 21.4364C14.3412 21.8009 14.9116 22 15.5 22C16.0884 22 16.6588 21.8009 17.1144 21.4364C17.57 21.0719 17.8829 20.5644 18 20H13Z" fill="#654E8A"/>
</svg>
