<svg width="16" height="17" viewBox="0 0 16 17" fill="none" xmlns="http://www.w3.org/2000/svg">
<path d="M10.4715 4.80715C10.5975 4.93248 10.6668 5.09982 10.6668 5.27848C10.6668 5.45715 10.5975 5.62382 10.4715 5.74982L6.66685 9.55448C6.41485 9.80648 6.08018 9.94515 5.72418 9.94515H5.33351V9.55448C5.33351 9.20382 5.47618 8.85982 5.72418 8.61182L9.52885 4.80715C9.78951 4.54715 10.2108 4.54715 10.4715 4.80715ZM16.0002 3.27848V11.2785C16.0002 12.7492 14.8042 13.9452 13.3335 13.9452H11.4322L8.86685 16.0652C8.62618 16.2798 8.31751 16.3878 8.00551 16.3878C7.68818 16.3878 7.36885 16.2758 7.11418 16.0498L4.61485 13.9452H2.66618C1.19551 13.9452 -0.000488281 12.7492 -0.000488281 11.2785V3.27848C0.000178386 1.80782 1.19618 0.611816 2.66685 0.611816H13.3335C14.8042 0.611816 16.0002 1.80782 16.0002 3.27848ZM12.0002 5.27848C12.0002 4.74448 11.7915 4.24182 11.4142 3.86448C10.6342 3.08448 9.36618 3.08448 8.58618 3.86448L4.78151 7.66915C4.27751 8.17248 4.00018 8.84248 4.00018 9.55448V10.6118C4.00018 10.9798 4.29818 11.2785 4.66685 11.2785H5.72418C6.43618 11.2785 7.10618 11.0005 7.60951 10.4972L11.4142 6.69248C11.7915 6.31448 12.0002 5.81315 12.0002 5.27848Z" fill="#654E8A"/>
</svg>
