<svg width="14" height="15" viewBox="0 0 14 15" fill="none" xmlns="http://www.w3.org/2000/svg">
<path d="M0.0987125 2.66177C-0.127628 2.04215 0.0427106 1.35601 0.53331 0.914334C1.02274 0.474412 1.71985 0.375225 2.31137 0.662867L12.8642 5.58953C13.4301 5.85442 13.8349 6.3381 13.9988 6.91572H2.35979L0.131964 2.73587C0.119713 2.71195 0.108629 2.68686 0.0987125 2.66177ZM2.36795 8.0832L0.178632 12.2695C0.166381 12.2928 0.155881 12.3161 0.147131 12.3406C-0.0786266 12.9609 0.0934623 13.6458 0.584062 14.0869C0.887988 14.3594 1.27183 14.5 1.65801 14.5C1.8966 14.5 2.13578 14.4463 2.35862 14.3372L12.8654 9.41405C13.433 9.148 13.8372 8.66257 14 8.08379H2.36795V8.0832Z" fill="white"/>
</svg>
