<svg width="15" height="16" viewBox="0 0 15 16" fill="none" xmlns="http://www.w3.org/2000/svg">
<g clip-path="url(#clip0_37_4834)">
<path d="M7.5 10.5C7.00555 10.5 6.5222 10.3534 6.11107 10.0787C5.69995 9.80397 5.37952 9.41353 5.1903 8.95671C5.00108 8.49989 4.95157 7.99723 5.04804 7.51228C5.1445 7.02732 5.3826 6.58187 5.73223 6.23223C6.08186 5.8826 6.52732 5.6445 7.01227 5.54804C7.49723 5.45157 7.99989 5.50108 8.45671 5.6903C8.91352 5.87952 9.30397 6.19995 9.57867 6.61108C9.85338 7.0222 10 7.50555 10 8C10 8.66304 9.73661 9.29893 9.26777 9.76777C8.79893 10.2366 8.16304 10.5 7.5 10.5ZM3.55188 10.5H0.625C0.45924 10.5 0.300269 10.4342 0.183058 10.3169C0.065848 10.1997 0 10.0408 0 9.875C0.0059224 8.97757 0.332328 8.11178 0.920347 7.4338C1.50837 6.75582 2.31929 6.31027 3.20688 6.1775C3.31001 6.16305 3.41513 6.1746 3.51267 6.21111C3.6102 6.24761 3.69707 6.30791 3.76538 6.38653C3.83369 6.46514 3.88127 6.55958 3.9038 6.66126C3.92632 6.76294 3.92308 6.86864 3.89437 6.96875C3.7986 7.30413 3.75001 7.65121 3.75 8C3.75018 8.5561 3.87535 9.10504 4.11625 9.60625C4.16156 9.70138 4.18208 9.80643 4.17591 9.91162C4.16974 10.0168 4.13707 10.1187 4.08094 10.2079C4.02481 10.2971 3.94705 10.3706 3.85488 10.4217C3.76271 10.4728 3.65912 10.4997 3.55375 10.5H3.55188ZM10.625 15.5H4.375C4.20924 15.5 4.05027 15.4342 3.93306 15.3169C3.81585 15.1997 3.75 15.0408 3.75 14.875C3.75 13.8804 4.14509 12.9266 4.84835 12.2234C5.55161 11.5201 6.50544 11.125 7.5 11.125C8.49456 11.125 9.44839 11.5201 10.1517 12.2234C10.8549 12.9266 11.25 13.8804 11.25 14.875C11.25 15.0408 11.1842 15.1997 11.0669 15.3169C10.9497 15.4342 10.7908 15.5 10.625 15.5ZM11.25 5.5C10.7555 5.5 10.2722 5.35338 9.86107 5.07868C9.44995 4.80397 9.12952 4.41352 8.9403 3.95671C8.75108 3.49989 8.70157 2.99723 8.79804 2.51228C8.8945 2.02732 9.1326 1.58187 9.48223 1.23223C9.83186 0.882603 10.2773 0.644501 10.7623 0.548038C11.2472 0.451575 11.7499 0.501083 12.2067 0.690302C12.6635 0.879521 13.054 1.19995 13.3287 1.61108C13.6034 2.0222 13.75 2.50555 13.75 3C13.75 3.66304 13.4866 4.29893 13.0178 4.76777C12.5489 5.23661 11.913 5.5 11.25 5.5ZM3.75 5.5C3.25555 5.5 2.7722 5.35338 2.36107 5.07868C1.94995 4.80397 1.62952 4.41352 1.4403 3.95671C1.25108 3.49989 1.20157 2.99723 1.29804 2.51228C1.3945 2.02732 1.6326 1.58187 1.98223 1.23223C2.33186 0.882603 2.77732 0.644501 3.26227 0.548038C3.74723 0.451575 4.24989 0.501083 4.70671 0.690302C5.16352 0.879521 5.55397 1.19995 5.82867 1.61108C6.10338 2.0222 6.25 2.50555 6.25 3C6.25 3.66304 5.98661 4.29893 5.51777 4.76777C5.04893 5.23661 4.41304 5.5 3.75 5.5ZM14.375 10.5H11.4481C11.3428 10.4997 11.2392 10.4728 11.147 10.4217C11.0548 10.3706 10.9771 10.2971 10.9209 10.2079C10.8648 10.1187 10.8321 10.0168 10.826 9.91162C10.8198 9.80643 10.8403 9.70138 10.8856 9.60625C11.1259 9.10489 11.2504 8.55595 11.25 8C11.249 7.65107 11.1993 7.30398 11.1025 6.96875C11.0736 6.86836 11.0704 6.76232 11.093 6.66035C11.1157 6.55837 11.1636 6.46371 11.2323 6.385C11.301 6.3063 11.3883 6.24607 11.4863 6.20982C11.5842 6.17357 11.6897 6.16246 11.7931 6.1775C12.6807 6.31027 13.4916 6.75582 14.0797 7.4338C14.6677 8.11178 14.9941 8.97757 15 9.875C15 10.0408 14.9342 10.1997 14.8169 10.3169C14.6997 10.4342 14.5408 10.5 14.375 10.5Z" fill="#9C8BB8"/>
</g>
<defs>
<clipPath id="clip0_37_4834">
<rect width="15" height="15" fill="white" transform="translate(0 0.5)"/>
</clipPath>
</defs>
</svg>
