<svg width="20" height="20" viewBox="0 0 20 20" fill="none" xmlns="http://www.w3.org/2000/svg">
<path d="M0.141018 3.08772C-0.182326 2.20269 0.0610152 1.22266 0.761871 0.591806C1.46106 -0.0365482 2.45693 -0.178219 3.30195 0.232627L18.3774 7.26952C19.1858 7.64787 19.7642 8.33873 19.9983 9.16375H3.37112L0.188519 3.19356C0.171019 3.15939 0.155185 3.12355 0.141018 3.08772ZM3.38279 10.8313L0.255188 16.8107C0.237688 16.844 0.222687 16.8773 0.210187 16.9123C-0.112324 17.7982 0.133518 18.7766 0.834374 19.4066C1.26855 19.7958 1.81691 19.9966 2.36859 19.9966C2.70944 19.9966 3.05111 19.9199 3.36946 19.7641L18.3791 12.7322C19.19 12.3522 19.7675 11.6588 20 10.8321H3.38279V10.8313Z" fill="#654E8A"/>
</svg>
