<svg width="19" height="18" viewBox="0 0 19 18" fill="none" xmlns="http://www.w3.org/2000/svg">
<g clip-path="url(#clip0_1419_6849)">
<path d="M1.8335 10.5C2.66192 10.5 3.3335 9.82843 3.3335 9C3.3335 8.17157 2.66192 7.5 1.8335 7.5C1.00507 7.5 0.333496 8.17157 0.333496 9C0.333496 9.82843 1.00507 10.5 1.8335 10.5Z" fill="#3D3B3B"/>
<path d="M9.3335 10.5C10.1619 10.5 10.8335 9.82843 10.8335 9C10.8335 8.17157 10.1619 7.5 9.3335 7.5C8.50507 7.5 7.8335 8.17157 7.8335 9C7.8335 9.82843 8.50507 10.5 9.3335 10.5Z" fill="#3D3B3B"/>
<path d="M16.8335 10.5C17.6619 10.5 18.3335 9.82843 18.3335 9C18.3335 8.17157 17.6619 7.5 16.8335 7.5C16.0051 7.5 15.3335 8.17157 15.3335 9C15.3335 9.82843 16.0051 10.5 16.8335 10.5Z" fill="#3D3B3B"/>
</g>
<defs>
<clipPath id="clip0_1419_6849">
<rect width="18" height="18" fill="white" transform="translate(0.333496)"/>
</clipPath>
</defs>
</svg>
