<svg width="14" height="10" viewBox="0 0 14 10" fill="none" xmlns="http://www.w3.org/2000/svg">
<path d="M0.583333 2H13.4167C13.5714 2 13.7197 1.89464 13.8291 1.70711C13.9385 1.51957 14 1.26522 14 1C14 0.734784 13.9385 0.48043 13.8291 0.292893C13.7197 0.105357 13.5714 0 13.4167 0H0.583333C0.428624 0 0.280251 0.105357 0.170854 0.292893C0.0614582 0.48043 0 0.734784 0 1C0 1.26522 0.0614582 1.51957 0.170854 1.70711C0.280251 1.89464 0.428624 2 0.583333 2Z" fill="#ffffff"/>
<path d="M0.583333 6H13.4167C13.5714 6 13.7197 5.89464 13.8291 5.70711C13.9385 5.51957 14 5.26522 14 5C14 4.73478 13.9385 4.48043 13.8291 4.29289C13.7197 4.10536 13.5714 4 13.4167 4H0.583333C0.428624 4 0.280251 4.10536 0.170854 4.29289C0.0614582 4.48043 0 4.73478 0 5C0 5.26522 0.0614582 5.51957 0.170854 5.70711C0.280251 5.89464 0.428624 6 0.583333 6Z" fill="#ffffff"/>
<path d="M0.583333 10H13.4167C13.5714 10 13.7197 9.89464 13.8291 9.70711C13.9385 9.51957 14 9.26522 14 9C14 8.73478 13.9385 8.48043 13.8291 8.29289C13.7197 8.10536 13.5714 8 13.4167 8H0.583333C0.428624 8 0.280251 8.10536 0.170854 8.29289C0.0614582 8.48043 0 8.73478 0 9C0 9.26522 0.0614582 9.51957 0.170854 9.70711C0.280251 9.89464 0.428624 10 0.583333 10Z" fill="#ffffff"/>
</svg>
