<svg width="16" height="20" viewBox="0 0 16 20" fill="none" xmlns="http://www.w3.org/2000/svg">
<path d="M0 2.5C0 1.57465 0.536265 0.766718 1.33333 0.334456V17.5C1.33333 18.1904 1.93029 18.75 2.66667 18.75H13.3333C14.0697 18.75 14.6667 18.1904 14.6667 17.5V2.5C14.6667 1.80964 14.0697 1.25 13.3333 1.25H10.6667V0H13.3333C14.8061 0 16 1.11929 16 2.5V17.5C16 18.8807 14.8061 20 13.3333 20H2.66667C1.19391 20 0 18.8807 0 17.5V2.5ZM2.66667 0V8.125C2.66667 8.36173 2.80934 8.57815 3.03519 8.68402C3.26105 8.78989 3.53132 8.76704 3.73333 8.625L6 7.03125L8.26667 8.625C8.46868 8.76704 8.73895 8.78989 8.96481 8.68402C9.19067 8.57815 9.33333 8.36173 9.33333 8.125V0H2.66667ZM4 6.875V1.25H8V6.875L6.4 5.75C6.16296 5.58333 5.83704 5.58333 5.6 5.75L4 6.875Z" fill="#212121"/>
</svg>
