<svg width="144" height="140" viewBox="0 0 144 140" fill="none" xmlns="http://www.w3.org/2000/svg">
<path d="M74.0788 130.28C110.021 130.28 139.158 101.116 139.158 65.1402C139.158 29.1643 110.021 0 74.0788 0C38.1368 0 9 29.1643 9 65.1402C9 101.116 38.1368 130.28 74.0788 130.28Z" fill="url(#paint0_linear_109_107)"/>
<path fill-rule="evenodd" clip-rule="evenodd" d="M74.6317 9.74471C74.3122 9.61247 73.9699 9.54471 73.6244 9.54531L73.6215 9.54531C72.9238 9.54592 72.2549 9.82422 71.7615 10.3191C71.2685 10.8137 70.9911 11.4843 70.9901 12.1837V15.505H64.4468L64.4468 12.1793C64.4489 9.74052 65.4156 7.40224 67.1347 5.67776C68.8534 3.95361 71.1839 2.98392 73.6145 2.98146L73.6159 2.98145C74.8207 2.97974 76.0141 3.21617 77.1279 3.67724C78.2425 4.13868 79.2555 4.81607 80.1088 5.67064C80.9622 6.52521 81.6392 7.54019 82.1012 8.6575C82.5631 9.77481 82.8009 10.9725 82.8008 12.1821V15.3821H76.2575V12.1821C76.2575 11.8355 76.1893 11.4922 76.057 11.172C75.9246 10.8518 75.7306 10.5609 75.486 10.316C75.2414 10.0711 74.9511 9.87696 74.6317 9.74471ZM73.6159 2.98145L73.6145 2.98146Z" fill="url(#paint1_linear_109_107)"/>
<path d="M74.0223 122.764C87.5839 122.764 98.5777 111.736 98.5777 98.1314C98.5777 84.5273 87.5839 73.499 74.0223 73.499C60.4607 73.499 49.4668 84.5273 49.4668 98.1314C49.4668 111.736 60.4607 122.764 74.0223 122.764Z" fill="url(#paint2_linear_109_107)"/>
<path d="M112.767 70.9749V52.077C112.767 41.7691 108.685 31.8833 101.419 24.5945C94.1526 17.3057 84.2977 13.2109 74.022 13.2109C63.7463 13.2109 53.8914 17.3057 46.6254 24.5945C39.3594 31.8833 35.2774 41.7691 35.2774 52.077V70.9749C35.2778 75.3166 34.0534 79.5697 31.7458 83.2428C29.4381 86.9158 26.1413 89.8588 22.2366 91.7315C21.3391 92.1602 20.5815 92.8359 20.052 93.6798C19.5225 94.5237 19.2428 95.5011 19.2456 96.4982V96.6006C19.245 96.9608 19.3151 97.3175 19.452 97.6504C19.5889 97.9834 19.79 98.2859 20.0436 98.5408C20.2972 98.7957 20.5985 98.998 20.9301 99.136C21.2618 99.2739 21.6173 99.345 21.9763 99.345H126.063C126.422 99.345 126.777 99.2739 127.109 99.136C127.44 98.998 127.742 98.7957 127.995 98.5408C128.249 98.2859 128.45 97.9834 128.587 97.6504C128.724 97.3175 128.794 96.9608 128.793 96.6006V96.4982C128.794 95.5042 128.513 94.5305 127.985 93.6896C127.457 92.8488 126.702 92.1752 125.807 91.7468C121.9 89.873 118.602 86.9277 116.294 83.2516C113.986 79.5756 112.763 75.3192 112.767 70.9749Z" fill="url(#paint3_linear_109_107)"/>
<path d="M143.59 46.7368C143.619 46.6844 143.637 46.6264 143.642 46.5667C143.647 46.5069 143.639 46.4468 143.62 46.3902C143.6 46.3336 143.568 46.2819 143.527 46.2384C143.486 46.1949 143.436 46.1606 143.381 46.1378C141.768 45.4927 136.062 43.5778 132.943 47.4383C130.857 49.9755 127.908 51.648 124.665 52.1333C124.583 52.1443 124.507 52.1798 124.445 52.2351C124.384 52.2903 124.341 52.3629 124.322 52.4432C124.303 52.5235 124.308 52.6077 124.337 52.6849C124.366 52.7621 124.418 52.8286 124.486 52.8757C127.242 54.8367 136.348 59.8338 143.59 46.7368Z" fill="url(#paint4_linear_109_107)"/>
<path d="M22.7194 73.8111C22.7424 73.7689 22.7563 73.7223 22.7602 73.6744C22.7641 73.6264 22.7579 73.5782 22.7421 73.5328C22.7262 73.4874 22.701 73.4459 22.668 73.411C22.6351 73.376 22.5952 73.3483 22.551 73.3298C21.2597 72.8178 16.6711 71.2818 14.1651 74.3538C12.4928 76.3893 10.1297 77.7332 7.52983 78.1273C7.46455 78.1361 7.40344 78.1644 7.35452 78.2087C7.3056 78.2529 7.27116 78.3109 7.2557 78.3752C7.24025 78.4394 7.24451 78.5068 7.26792 78.5686C7.29134 78.6303 7.33282 78.6835 7.38692 78.7212C9.58675 80.3187 16.9008 84.3327 22.7194 73.8111Z" fill="url(#paint5_linear_109_107)"/>
<path d="M131.036 68.0034C131.016 67.9683 131.004 67.9294 131.001 67.8894C130.998 67.8493 131.003 67.809 131.017 67.7712C131.03 67.7334 131.052 67.6989 131.079 67.6701C131.107 67.6412 131.141 67.6187 131.178 67.6041C132.26 67.1689 136.094 65.8838 138.186 68.4745C139.589 70.1788 141.571 71.3022 143.75 71.6284C143.807 71.6337 143.862 71.6572 143.906 71.6955C143.95 71.7338 143.98 71.785 143.993 71.8418C144.006 71.8985 144.001 71.958 143.978 72.0116C143.956 72.0652 143.917 72.1103 143.867 72.1404C142.019 73.4665 135.9 76.8201 131.036 68.0034Z" fill="url(#paint6_linear_109_107)"/>
<path d="M0.0569853 51.3863C0.025483 51.3278 0.00655595 51.2633 0.00142382 51.197C-0.0037083 51.1306 0.00506841 51.064 0.0271883 51.0013C0.0493082 50.9386 0.0842805 50.8812 0.129851 50.8329C0.175422 50.7846 0.23058 50.7463 0.29177 50.7207C2.07818 50.009 8.40207 47.8893 11.8575 52.1594C14.1721 54.9748 17.4458 56.8284 21.0447 57.3614C21.1347 57.3747 21.2187 57.4148 21.2857 57.4765C21.3527 57.5382 21.3997 57.6187 21.4206 57.7075C21.4415 57.7963 21.4353 57.8894 21.4029 57.9746C21.3705 58.0599 21.3133 58.1334 21.2387 58.1857C18.1712 60.3566 8.08051 65.8964 0.0569853 51.3863Z" fill="url(#paint7_linear_109_107)"/>
<path d="M21.5355 34.7805C21.3598 34.089 21.9962 33.4659 22.6811 33.659L27.2921 34.9588C27.9769 35.1518 28.1966 36.0162 27.6875 36.5147L24.2598 39.8705C23.7507 40.3689 22.8946 40.1276 22.7189 39.4362L21.5355 34.7805Z" fill="url(#paint8_linear_109_107)"/>
<path d="M127.614 12.1116C127.887 10.9771 129.501 10.9771 129.774 12.1116L130.688 15.9115C130.785 16.3166 131.101 16.6331 131.506 16.7311L135.308 17.6517C136.44 17.9259 136.44 19.5365 135.308 19.8108L131.506 20.7313C131.101 20.8294 130.785 21.1459 130.688 21.551L129.774 25.3509C129.501 26.4853 127.887 26.4853 127.614 25.3509L126.699 21.551C126.602 21.1459 126.286 20.8294 125.881 20.7313L122.079 19.8108C120.947 19.5365 120.947 17.9259 122.079 17.6517L125.881 16.7311C126.286 16.6331 126.602 16.3166 126.699 15.9115L127.614 12.1116Z" fill="url(#paint9_linear_109_107)"/>
<path d="M48.4565 122.273C48.7295 121.138 50.3433 121.138 50.6163 122.273L51.5307 126.073C51.6282 126.478 51.9442 126.794 52.3492 126.892L56.1509 127.813C57.2833 128.087 57.2833 129.698 56.1509 129.972L52.3492 130.892C51.9442 130.991 51.6282 131.307 51.5307 131.712L50.6163 135.512C50.3433 136.646 48.7295 136.646 48.4565 135.512L47.5421 131.712C47.4446 131.307 47.1286 130.991 46.7236 130.892L42.9219 129.972C41.7895 129.698 41.7895 128.087 42.9219 127.813L46.7236 126.892C47.1286 126.794 47.4446 126.478 47.5421 126.073L48.4565 122.273Z" fill="url(#paint10_linear_109_107)"/>
<path d="M33.6368 116.551C33.6368 117.959 32.4997 119.097 31.1016 119.097C29.7034 119.097 28.5663 117.959 28.5663 116.551C28.5663 115.143 29.7034 114.006 31.1016 114.006C32.4997 114.006 33.6368 115.143 33.6368 116.551Z" stroke="url(#paint11_linear_109_107)" stroke-width="1.3884"/>
<path d="M37.5392 16.4564C37.5392 17.8642 36.4021 19.0018 35.0039 19.0018C33.6057 19.0018 32.4686 17.8642 32.4686 16.4564C32.4686 15.0486 33.6057 13.911 35.0039 13.911C36.4021 13.911 37.5392 15.0486 37.5392 16.4564Z" stroke="url(#paint12_linear_109_107)" stroke-width="1.3884"/>
<path d="M138.437 111.519C138.437 112.927 137.3 114.064 135.901 114.064C134.503 114.064 133.366 112.927 133.366 111.519C133.366 110.111 134.503 108.973 135.901 108.973C137.3 108.973 138.437 110.111 138.437 111.519Z" stroke="url(#paint13_linear_109_107)" stroke-width="1.3884"/>
<defs>
<linearGradient id="paint0_linear_109_107" x1="73.5771" y1="-21.2112" x2="74.9128" y2="207.551" gradientUnits="userSpaceOnUse">
<stop stop-color="#CAE0FF" stop-opacity="0"/>
<stop offset="1" stop-color="#BCD8FF"/>
</linearGradient>
<linearGradient id="paint1_linear_109_107" x1="87.2662" y1="16.15" x2="78.052" y2="-0.629147" gradientUnits="userSpaceOnUse">
<stop stop-color="#FFFDFD"/>
<stop offset="1" stop-color="#5E61B9"/>
</linearGradient>
<linearGradient id="paint2_linear_109_107" x1="115.391" y1="139.314" x2="39.6211" y2="57.7039" gradientUnits="userSpaceOnUse">
<stop stop-color="white"/>
<stop offset="0.70369" stop-color="#AC9EFE"/>
</linearGradient>
<linearGradient id="paint3_linear_109_107" x1="74.0194" y1="13.2109" x2="77.0289" y2="160.282" gradientUnits="userSpaceOnUse">
<stop stop-color="#F9F8FF"/>
<stop offset="1" stop-color="#6C55FD"/>
</linearGradient>
<linearGradient id="paint4_linear_109_107" x1="133.977" y1="45.0908" x2="133.977" y2="55.4613" gradientUnits="userSpaceOnUse">
<stop stop-color="#70A8FF"/>
<stop offset="1" stop-color="#5597FD"/>
</linearGradient>
<linearGradient id="paint5_linear_109_107" x1="15.004" y1="72.4912" x2="15.004" y2="80.8171" gradientUnits="userSpaceOnUse">
<stop stop-color="#70A8FF"/>
<stop offset="1" stop-color="#5597FD"/>
</linearGradient>
<linearGradient id="paint6_linear_109_107" x1="137.5" y1="66.8994" x2="137.5" y2="73.8812" gradientUnits="userSpaceOnUse">
<stop stop-color="#70A8FF"/>
<stop offset="1" stop-color="#5597FD"/>
</linearGradient>
<linearGradient id="paint7_linear_109_107" x1="10.7164" y1="49.5635" x2="10.7164" y2="61.0505" gradientUnits="userSpaceOnUse">
<stop stop-color="#70A8FF"/>
<stop offset="1" stop-color="#5597FD"/>
</linearGradient>
<linearGradient id="paint8_linear_109_107" x1="21.14" y1="33.2245" x2="27.6055" y2="39.8284" gradientUnits="userSpaceOnUse">
<stop stop-color="#70A8FF"/>
<stop offset="1" stop-color="#5597FD"/>
</linearGradient>
<linearGradient id="paint9_linear_109_107" x1="128.694" y1="7.62402" x2="128.694" y2="29.8384" gradientUnits="userSpaceOnUse">
<stop stop-color="#70A8FF"/>
<stop offset="1" stop-color="#5597FD"/>
</linearGradient>
<linearGradient id="paint10_linear_109_107" x1="49.5364" y1="117.785" x2="49.5364" y2="140" gradientUnits="userSpaceOnUse">
<stop stop-color="#70A8FF"/>
<stop offset="1" stop-color="#5597FD"/>
</linearGradient>
<linearGradient id="paint11_linear_109_107" x1="31.1016" y1="113.312" x2="31.1016" y2="119.791" gradientUnits="userSpaceOnUse">
<stop stop-color="#70A8FF"/>
<stop offset="1" stop-color="#5597FD"/>
</linearGradient>
<linearGradient id="paint12_linear_109_107" x1="35.0039" y1="13.2168" x2="35.0039" y2="19.696" gradientUnits="userSpaceOnUse">
<stop stop-color="#70A8FF"/>
<stop offset="1" stop-color="#5597FD"/>
</linearGradient>
<linearGradient id="paint13_linear_109_107" x1="135.901" y1="108.279" x2="135.901" y2="114.759" gradientUnits="userSpaceOnUse">
<stop stop-color="#70A8FF"/>
<stop offset="1" stop-color="#5597FD"/>
</linearGradient>
</defs>
</svg>
