<svg width="20" height="20" viewBox="0 0 20 20" fill="none" xmlns="http://www.w3.org/2000/svg">
<path d="M3.68291 8.72847C3.60769 8.90449 3.56975 9.09419 3.57149 9.28561C3.57578 9.48105 3.61346 9.67431 3.68291 9.85704C3.74863 10.026 3.85168 10.1778 3.98434 10.3013C4.118 10.4277 4.27271 10.5297 4.44149 10.6028C4.61798 10.6781 4.80817 10.716 5.00006 10.7142C5.19253 10.7229 5.38424 10.6847 5.55863 10.6028C5.72862 10.5269 5.88349 10.4209 6.01577 10.2899C6.14357 10.1618 6.24586 10.0105 6.3172 9.84418C6.39254 9.66769 6.43048 9.4775 6.42863 9.28561C6.42893 9.09433 6.39105 8.90491 6.3172 8.72847C6.24652 8.5552 6.13989 8.3989 6.00434 8.2699C5.87019 8.14419 5.71559 8.04225 5.5472 7.96847C5.37446 7.89396 5.18817 7.85602 5.00006 7.85704C4.80735 7.85104 4.61595 7.89069 4.44149 7.97275C4.27206 8.04964 4.11736 8.15552 3.98434 8.28561C3.85723 8.41323 3.75501 8.56341 3.68291 8.72847ZM3.68291 14.4428C3.60769 14.6188 3.56975 14.8085 3.57149 14.9999C3.57594 15.1948 3.61362 15.3876 3.68291 15.5699C3.74845 15.7393 3.8515 15.8917 3.98434 16.0156C4.118 16.142 4.27271 16.244 4.44149 16.317C4.61798 16.3924 4.80817 16.4303 5.00006 16.4285C5.19253 16.4372 5.38424 16.399 5.55863 16.317C5.72823 16.2411 5.883 16.1356 6.01577 16.0056C6.14332 15.8767 6.24557 15.7251 6.3172 15.5585C6.39254 15.382 6.43048 15.1918 6.42863 14.9999C6.42893 14.8086 6.39105 14.6192 6.3172 14.4428C6.24652 14.2695 6.13989 14.1132 6.00434 13.9842C5.8705 13.8584 5.71582 13.7569 5.5472 13.6842C5.37477 13.6085 5.18834 13.5701 5.00006 13.5713C4.80752 13.5638 4.61598 13.6025 4.44149 13.6842C4.27189 13.7601 4.11711 13.8656 3.98434 13.9956C3.85679 14.1245 3.75455 14.2762 3.68291 14.4428ZM9.35626 10.0001C9.15162 10.0035 8.95357 9.92775 8.80341 9.78868V9.78297C8.7315 9.72101 8.6738 9.64427 8.63424 9.55798C8.59469 9.47169 8.57422 9.37789 8.57422 9.28297C8.57422 9.18805 8.59469 9.09424 8.63424 9.00795C8.6738 8.92167 8.7315 8.84492 8.80341 8.78297C8.95357 8.64389 9.15162 8.56815 9.35626 8.57154H15.642C15.8474 8.5697 16.0456 8.64752 16.1948 8.78868C16.2667 8.85064 16.3244 8.92738 16.364 9.01367C16.4035 9.09996 16.424 9.19376 16.424 9.28868C16.424 9.3836 16.4035 9.47741 16.364 9.56369C16.3244 9.64998 16.2667 9.72672 16.1948 9.78868C16.0447 9.92775 15.8466 10.0035 15.642 10.0001H9.35626ZM8.80341 15.5029C8.95396 15.6414 9.15175 15.717 9.35626 15.7144H15.642C15.8465 15.717 16.0443 15.6414 16.1948 15.5029C16.2667 15.441 16.3244 15.3642 16.364 15.2779C16.4035 15.1916 16.424 15.0978 16.424 15.0029C16.424 14.908 16.4035 14.8142 16.364 14.7279C16.3244 14.6416 16.2667 14.5649 16.1948 14.5029C16.0452 14.3624 15.8473 14.2847 15.642 14.2858H9.35626C9.15175 14.2831 8.95396 14.3588 8.80341 14.4972C8.7315 14.5592 8.6738 14.6359 8.63424 14.7222C8.59469 14.8085 8.57422 14.9023 8.57422 14.9972C8.57422 15.0921 8.59469 15.1859 8.63424 15.2722C8.6738 15.3585 8.7315 15.4353 8.80341 15.4972V15.5029ZM0 4.28571C0 1.91878 1.91878 0 4.28571 0H15.7143C18.0812 0 20 1.91878 20 4.28571V15.7143C20 18.0812 18.0812 20 15.7143 20H4.28571C1.91878 20 0 18.0812 0 15.7143V4.28571ZM4.28571 1.42857C2.70776 1.42857 1.42857 2.70776 1.42857 4.28571L18.5714 4.28571C18.5714 2.70776 17.2922 1.42857 15.7143 1.42857H4.28571ZM18.5714 5.71429H1.42857V15.7143C1.42857 17.2922 2.70776 18.5714 4.28571 18.5714H15.7143C17.2922 18.5714 18.5714 17.2922 18.5714 15.7143V5.71429Z" fill="#212121"/>
</svg>
