<svg width="16" height="18" viewBox="0 0 16 18" fill="none" xmlns="http://www.w3.org/2000/svg">
<path d="M2.44389 6.75V10.6875C2.44389 10.7657 2.42778 10.843 2.3966 10.9146L1.1717 13.725H14.8283L13.6034 10.9146C13.5722 10.843 13.5561 10.7657 13.5561 10.6875V6.75C13.5561 3.6434 11.0685 1.125 7.99998 1.125C4.93144 1.125 2.44389 3.6434 2.44389 6.75ZM5.33308 14.85H1.00121C0.278636 14.85 -0.205468 14.098 0.0862307 13.4288L1.33267 10.5689V6.75C1.33267 3.02208 4.31773 0 7.99998 0C11.6822 0 14.6673 3.02208 14.6673 6.75V10.5689L15.9138 13.4288C16.2055 14.098 15.7214 14.85 14.9988 14.85H10.6669V15.3C10.6669 16.7912 9.47291 18 8.00001 18C6.52711 18 5.33308 16.7912 5.33308 15.3V14.85ZM9.55572 14.85H6.4443V15.3C6.4443 16.1698 7.14082 16.875 8.00001 16.875C8.8592 16.875 9.55572 16.1698 9.55572 15.3V14.85Z" fill="white"/>
</svg>
