<svg width="20" height="20" viewBox="0 0 20 20" fill="none" xmlns="http://www.w3.org/2000/svg">
<path d="M12.0622 1.37011C11.723 1.05956 11.1991 1.07093 10.8737 1.3959L1.39758 10.8609C1.06197 11.1961 1.06197 11.7396 1.39758 12.0748L2.72377 13.3993C2.72713 13.4006 2.73876 13.4042 2.75808 13.4042C2.80041 13.4042 2.85921 13.3885 2.91226 13.3532C3.34414 13.0657 3.8634 12.8981 4.42011 12.8981C5.92312 12.8981 7.14155 14.1151 7.14155 15.6163C7.14155 16.1723 6.97378 16.6909 6.68592 17.1223C6.65056 17.1753 6.63491 17.234 6.63487 17.2763C6.63485 17.2956 6.63801 17.3061 6.63928 17.3095L7.93484 18.6041C8.27767 18.9465 8.83606 18.9381 9.16835 18.5854L18.6205 8.55467C18.9489 8.20625 18.9286 7.65697 18.5755 7.33365L17.306 6.17139L17.3023 6.17029C17.2943 6.16841 17.274 6.16578 17.2408 6.17171C17.1682 6.18464 17.0853 6.22922 17.0299 6.28984C16.533 6.83357 15.8158 7.176 15.0194 7.176C13.5164 7.176 12.298 5.95904 12.298 4.45785C12.298 3.74738 12.5716 3.09945 13.0184 2.61556C13.0739 2.5554 13.1111 2.46937 13.1177 2.39632C13.1207 2.36287 13.1163 2.34302 13.1138 2.33529L13.1124 2.33168L12.0622 1.37011ZM10.0635 0.586644C10.8226 -0.171622 12.0451 -0.19815 12.8365 0.526471L13.8869 1.48822C14.2004 1.77522 14.289 2.16522 14.2589 2.49888C14.2294 2.8274 14.0846 3.14904 13.8608 3.39142C13.6015 3.67228 13.4438 4.04603 13.4438 4.45785C13.4438 5.32696 14.1493 6.03152 15.0194 6.03152C15.4805 6.03152 15.8946 5.83445 16.1836 5.51829C16.406 5.27483 16.7143 5.10296 17.0395 5.04502C17.3697 4.98618 17.7665 5.04041 18.0802 5.32755L19.3498 6.49C20.1737 7.24442 20.221 8.52607 19.455 9.33906L10.0028 19.3698C9.22744 20.1926 7.92453 20.2123 7.12459 19.4134L5.8291 18.1195C5.33187 17.6228 5.45161 16.9084 5.73243 16.4875C5.89874 16.2383 5.99568 15.9395 5.99568 15.6163C5.99568 14.7472 5.29027 14.0426 4.42011 14.0426C4.09651 14.0426 3.7973 14.1394 3.54778 14.3055C3.12646 14.586 2.41112 14.7056 1.91389 14.209L0.587331 12.884C-0.195769 12.1019 -0.195778 10.8338 0.58731 10.0516L10.0635 0.586644Z" fill="#212121"/>
</svg>
