<svg width="18" height="18" viewBox="0 0 18 18" fill="none" xmlns="http://www.w3.org/2000/svg">
<path d="M6.75 3.9375V14.0625" stroke="black" stroke-linecap="round" stroke-linejoin="round"/>
<path d="M1.68751 11.7562C1.68679 11.6267 1.73138 11.501 1.81355 11.4008C1.89572 11.3007 2.01032 11.2324 2.13751 11.2078C2.64342 11.1004 3.09709 10.8225 3.42262 10.4206C3.74814 10.0187 3.92576 9.51719 3.92576 9C3.92576 8.48281 3.74814 7.98131 3.42262 7.57941C3.09709 7.17752 2.64342 6.89961 2.13751 6.79219C2.01032 6.76759 1.89572 6.69931 1.81355 6.59916C1.73138 6.49902 1.68679 6.37329 1.68751 6.24375V4.5C1.68751 4.35082 1.74677 4.20774 1.85226 4.10225C1.95775 3.99676 2.10082 3.9375 2.25001 3.9375H15.75C15.8992 3.9375 16.0423 3.99676 16.1478 4.10225C16.2532 4.20774 16.3125 4.35082 16.3125 4.5V6.24375C16.3132 6.37329 16.2686 6.49902 16.1865 6.59916C16.1043 6.69931 15.9897 6.76759 15.8625 6.79219C15.3566 6.89961 14.9029 7.17752 14.5774 7.57941C14.2519 7.98131 14.0743 8.48281 14.0743 9C14.0743 9.51719 14.2519 10.0187 14.5774 10.4206C14.9029 10.8225 15.3566 11.1004 15.8625 11.2078C15.9897 11.2324 16.1043 11.3007 16.1865 11.4008C16.2686 11.501 16.3132 11.6267 16.3125 11.7562V13.5C16.3125 13.6492 16.2532 13.7923 16.1478 13.8977C16.0423 14.0032 15.8992 14.0625 15.75 14.0625H2.25001C2.10082 14.0625 1.95775 14.0032 1.85226 13.8977C1.74677 13.7923 1.68751 13.6492 1.68751 13.5V11.7562Z" stroke="black" stroke-linecap="round" stroke-linejoin="round"/>
</svg>
