<svg width="13" height="16" viewBox="0 0 13 16" fill="none" xmlns="http://www.w3.org/2000/svg">
<path d="M0.258224 15.9965C0.0670518 15.9028 0.00549473 15.7503 0.00852922 15.5487C0.0202336 14.6535 -0.0348209 13.7533 0.0406076 12.8635C0.222676 10.7095 1.35801 9.13319 3.33042 8.10719C3.34667 8.1025 3.36337 8.09943 3.38027 8.09802C3.30311 8.31006 3.22508 8.51209 3.15485 8.71662C2.84844 9.61103 2.62163 10.5288 2.47686 11.4601C2.46082 11.5613 2.41617 11.5951 2.32427 11.6267C2.08713 11.7044 1.87559 11.841 1.7111 12.0226C1.54662 12.2042 1.43503 12.4244 1.38767 12.6608C1.34031 12.8972 1.35886 13.1414 1.44143 13.3687C1.52401 13.596 1.66767 13.7983 1.85785 13.955C2.04803 14.1118 2.27796 14.2174 2.52432 14.2611C2.77068 14.3049 3.02471 14.2853 3.26064 14.2043C3.49657 14.1233 3.706 13.9838 3.86771 13.7999C4.02941 13.616 4.13762 13.3943 4.18138 13.1572C4.30319 12.5324 3.93732 11.9008 3.31438 11.6576C3.26496 11.638 3.21554 11.6197 3.13058 11.5872C3.27623 10.969 3.39068 10.3433 3.57448 9.73637C3.76608 9.09903 4.02358 8.4796 4.2477 7.851C4.25824 7.80865 4.28205 7.77044 4.31594 7.74153C4.34982 7.71262 4.39213 7.69441 4.43714 7.68937C4.8637 7.62272 5.28766 7.51692 5.71639 7.49401C6.58339 7.44818 7.45038 7.4336 8.30393 7.62564C8.45869 7.66021 8.54669 7.71312 8.57184 7.87558C8.66634 8.48168 8.77341 9.08612 8.87529 9.69055C8.89566 9.81094 8.84407 9.87342 8.72876 9.92799C8.06768 10.24 7.46165 10.6291 6.96703 11.161C6.64321 11.5093 6.41432 11.9025 6.35276 12.3766C6.28254 12.9181 6.65101 13.595 7.15993 13.8416C7.23274 13.8778 7.31654 13.888 7.39645 13.8705C7.47636 13.853 7.54722 13.8088 7.59647 13.7458C7.64676 13.6832 7.67137 13.6051 7.66562 13.5262C7.65986 13.4473 7.62415 13.3732 7.56526 13.318C7.51627 13.2701 7.45602 13.2347 7.40226 13.1893C7.04073 12.8977 6.95056 12.5444 7.13523 12.1266C7.29018 11.7855 7.53692 11.4901 7.85006 11.271C8.2129 11.0102 8.60305 10.784 8.98496 10.5487C9.02311 10.5253 9.10937 10.5178 9.13711 10.542C9.66685 11.0036 10.1342 11.5122 10.4021 12.1629C10.4504 12.2841 10.4857 12.4097 10.5074 12.5378C10.5919 13.0152 10.3986 13.3447 9.93345 13.5338C9.8901 13.5517 9.84242 13.5679 9.79907 13.5892C9.71924 13.6239 9.65654 13.687 9.6242 13.7653C9.59185 13.8435 9.59238 13.9308 9.62567 14.0087C9.65781 14.0868 9.71948 14.1504 9.79834 14.1867C9.8772 14.223 9.96742 14.2293 10.0509 14.2044C10.4369 14.1023 10.7692 13.8651 10.9825 13.5396C11.1958 13.214 11.2747 12.8235 11.2036 12.4449C11.0965 11.8238 10.7783 11.3022 10.3717 10.8274C10.1489 10.5666 9.89184 10.3329 9.65428 10.0838C9.61396 10.0421 9.56758 9.98215 9.56758 9.93216C9.59272 9.28523 9.4553 8.65872 9.31919 8.03221C9.31109 7.99527 9.31629 7.95679 9.33392 7.92307C9.65905 8.10177 10.0006 8.2584 10.3071 8.4646C12.0663 9.64473 12.961 11.2735 12.9948 13.3347C13.0061 14.0736 12.9948 14.8135 12.9991 15.5529C12.9991 15.7545 12.9363 15.9057 12.7473 16.0003L0.258224 15.9965Z" fill="#7657E1"/>
<path d="M6.82496 0C7.09807 0.0599854 7.37897 0.0991418 7.64341 0.184121C8.41112 0.42879 9.07102 0.914251 9.51716 1.56257C9.9633 2.21089 10.1698 2.98445 10.1035 3.75908C9.97562 5.32162 8.74102 6.62255 7.12278 6.89957C5.10398 7.24531 3.17231 5.87398 2.91785 3.91404C2.85686 3.45979 2.89012 2.99844 3.01569 2.5566C3.14127 2.11477 3.35669 1.70122 3.6495 1.33983C3.94232 0.978434 4.30673 0.676358 4.7217 0.451041C5.13666 0.225724 5.59397 0.0816278 6.06721 0.0270752C6.10419 0.0203075 6.14068 0.0112649 6.17645 0H6.82496Z" fill="#7657E1"/>
</svg>
