<svg width="14" height="14" viewBox="0 0 14 14" fill="none" xmlns="http://www.w3.org/2000/svg">
<path d="M6.76636 7.00003C5.8498 7.01384 5.06025 6.69931 4.39771 6.05644C3.73517 5.41358 3.39699 4.63386 3.38318 3.7173C3.36937 2.80074 3.6839 2.01119 4.32676 1.34865C4.96963 0.686106 5.74935 0.34793 6.66591 0.334118C7.58247 0.320306 8.37202 0.634834 9.03456 1.2777C9.6971 1.92057 10.0353 2.70028 10.0491 3.61685C10.0629 4.53341 9.74837 5.32296 9.10551 5.9855C8.46264 6.64804 7.68292 6.98622 6.76636 7.00003ZM0.200904 13.7664L0.165746 11.4333C0.158631 10.9612 0.273742 10.5252 0.511079 10.1255C0.748416 9.72574 1.06661 9.41896 1.46565 9.20515C2.32018 8.76167 3.19021 8.42546 4.07575 8.19654C4.96129 7.96761 5.86235 7.84652 6.77892 7.83327C7.69548 7.81945 8.59978 7.91362 9.49182 8.11575C10.3839 8.31789 11.2636 8.62745 12.1311 9.04443C12.537 9.24667 12.8646 9.54398 13.1138 9.93638C13.3631 10.3288 13.491 10.7608 13.4976 11.2324L13.5327 13.5655L0.200904 13.7664Z" fill="#7657E1"/>
</svg>
