<svg width="20" height="23" viewBox="0 0 20 23" fill="none" xmlns="http://www.w3.org/2000/svg">
<g clip-path="url(#clip0_2123_7468)">
<path d="M-0.000229127 8.02878H0.324515C1.59101 8.02878 2.8575 8.02878 4.12399 8.02878C5.9669 8.02878 7.24218 6.76188 7.24218 4.93622C7.24218 3.38993 7.24218 1.84342 7.24218 0.29669V0.0166317C7.34298 0.011272 7.41672 0.00390625 7.49114 0.00390625C10.6483 0.00390625 13.8056 0.00390625 16.9628 0.00390625C18.4512 0.00390625 19.6053 0.915741 19.9206 2.32401C19.9725 2.56919 19.9975 2.81919 19.995 3.06968C19.9991 8.70411 19.9991 14.3385 19.995 19.973C19.995 21.7196 18.7049 22.9965 16.9404 22.9979C12.3138 23.0019 7.68689 23.0019 3.05978 22.9979C1.27911 22.9979 -0.00225314 21.7209 -0.00292969 19.9582C-0.00292969 16.0791 -0.00292969 12.2002 -0.00292969 8.32157L-0.000229127 8.02878ZM10.7372 10.7C9.31105 10.7 7.8849 10.7 6.45874 10.7C5.9811 10.7 5.62659 11.045 5.62253 11.4925C5.62097 11.5994 5.64114 11.7055 5.68183 11.8046C5.72253 11.9036 5.78293 11.9935 5.85943 12.069C5.93593 12.1444 6.02698 12.2038 6.12715 12.2437C6.22731 12.2836 6.33455 12.3032 6.4425 12.3012C9.32052 12.3052 12.1981 12.3052 15.0752 12.3012C15.194 12.304 15.3119 12.2793 15.4195 12.2292C15.527 12.1791 15.6213 12.1049 15.6949 12.0124C15.9046 11.7578 15.9527 11.4704 15.8099 11.1696C15.6591 10.8514 15.3959 10.6973 15.0407 10.6973L10.7372 10.7ZM8.58986 16.5809C9.2894 16.5809 9.98895 16.5809 10.6871 16.5809C11.2115 16.5809 11.5592 16.2526 11.5579 15.777C11.5565 15.3013 11.2006 14.9777 10.6783 14.973C9.28783 14.969 7.89707 14.969 6.5061 14.973C5.98448 14.973 5.62659 15.304 5.61915 15.7683C5.61171 16.2325 5.97907 16.5722 6.51422 16.5762C7.20767 16.5803 7.89911 16.5783 8.58986 16.5783V16.5809Z" fill="#6D43FF"/>
<path d="M5.62176 0.660352V3.86414C5.62176 4.25674 5.62176 4.65 5.62176 5.04194C5.61499 5.8124 5.08052 6.39662 4.3052 6.41203C3.06577 6.43749 1.82499 6.41872 0.584203 6.41738C0.570672 6.41738 0.557142 6.40398 0.483398 6.36445L5.53719 0.607422L5.62176 0.660352Z" fill="#6D43FF"/>
</g>
<defs>
<clipPath id="clip0_2123_7468">
<rect width="20" height="23" fill="white"/>
</clipPath>
</defs>
</svg>
