<svg width="62" height="62" viewBox="0 0 62 62" fill="none" xmlns="http://www.w3.org/2000/svg">
<rect width="62" height="62" rx="8" fill="#F8BBFF" fill-opacity="0.27"/>
<g clip-path="url(#clip0_2601_1185)">
<path d="M48 29.7C48 29.7 47.915 29.7 47.9044 29.7C47.4086 30.5586 46.596 31.2167 45.62 31.55L45.3437 31.68L43.6225 32.2501L40.8281 32.8801H40.5306C39.4308 33.078 38.3207 33.2214 37.205 33.31C37.258 32.9518 37.258 32.5883 37.205 32.2301C38.6594 32.1138 40.1041 31.9067 41.5294 31.6101C42.4715 31.4491 43.3936 31.1978 44.2812 30.8601C44.6551 30.7739 45.0132 30.6357 45.3437 30.45C45.8885 30.2577 46.3766 29.9457 46.7675 29.54C46.8556 29.4596 46.922 29.3604 46.9608 29.2507C46.9997 29.141 47.0099 29.0242 46.9907 28.91C47.2988 28.52 47.4581 28.4901 47.9468 28.7301L48 29.7Z" fill="#2F2962"/>
<path d="M39.6377 46.67C39.4358 46.82 39.2446 47.01 38.9683 47C38.2737 46.9693 37.6075 46.7311 37.0664 46.32C36.6733 46.04 36.3015 45.72 35.919 45.43C35.5365 45.14 35.2921 44.8 34.9946 44.43C33.5981 42.9122 32.3299 41.2939 31.2015 39.59C31.1059 39.46 31.0421 39.2401 30.8402 39.5301C29.4742 41.6312 27.8828 43.5948 26.0908 45.39L25.772 45.64C25.0474 46.4028 24.0399 46.8751 22.9565 46.96C22.7134 46.8897 22.4913 46.7664 22.3084 46.6C22.2128 45.94 22.3084 45.75 22.914 45.74C23.0189 45.7917 23.1355 45.8186 23.2539 45.8186C23.3723 45.8186 23.4891 45.7917 23.594 45.74C24.1168 45.5491 24.5883 45.2521 24.9752 44.87C25.2657 44.6669 25.5328 44.4356 25.772 44.18C27.3255 42.5923 28.7132 40.8678 29.9158 39.0301C29.9816 38.9612 30.0193 38.8726 30.022 38.7801C30.2239 38.6201 30.4684 38.47 30.2665 38.14L28.2902 34.89L27.6209 33.6599C27.6038 33.6077 27.5702 33.5617 27.5247 33.5277C27.4791 33.4938 27.4237 33.4737 27.3658 33.47C26.537 33.47 25.719 33.38 24.8902 33.32C24.4554 33.2405 24.0151 33.1903 23.5727 33.17L22.1703 32.98C20.9059 32.76 19.6308 32.51 18.3771 32.2L16.6665 31.63C15.5822 31.2571 14.662 30.5529 14.0528 29.63C13.9734 29.3212 13.9734 28.9989 14.0528 28.69C14.5521 28.45 14.7008 28.48 15.0196 28.87C14.9961 28.9834 15.0033 29.1004 15.0404 29.2105C15.0776 29.3205 15.1435 29.4201 15.2321 29.5C15.6205 29.906 16.1096 30.2152 16.6558 30.4001C16.9864 30.588 17.3443 30.7294 17.7183 30.82C18.746 31.197 19.8151 31.4654 20.9058 31.62C21.6925 31.8025 22.4911 31.9362 23.2965 32.0201C23.9053 32.113 24.5188 32.1763 25.1346 32.21L26.7815 32.37C26.9834 32.37 26.9408 32.29 26.8771 32.17C26.1333 30.74 25.464 29.28 24.7521 27.83C24.6241 27.4422 24.4643 27.0644 24.274 26.7L23.2115 24.0399C23.1611 23.8025 23.0826 23.5711 22.9777 23.35C22.5071 21.9719 22.1205 20.5696 21.8196 19.1501C21.8196 18.8101 21.724 18.4701 21.7027 18.1501C21.542 17.2369 21.6908 16.2992 22.1277 15.47C22.1919 15.3552 22.2841 15.2563 22.3967 15.1815C22.5094 15.1068 22.6394 15.0583 22.7759 15.0399C23.2965 15.2199 23.4027 15.5099 23.1158 16.0399C22.9943 16.1243 22.8955 16.2343 22.8272 16.3611C22.7589 16.4879 22.7231 16.6279 22.7227 16.7701C22.6431 17.2907 22.6431 17.8193 22.7227 18.34C22.8467 19.3591 23.0781 20.364 23.4133 21.34C23.5773 22.0838 23.8084 22.8132 24.104 23.5201C24.4604 24.6118 24.8825 25.6835 25.3683 26.73C25.4975 27.0932 25.6538 27.4474 25.8359 27.7899C26.4946 29.3299 27.2595 30.7899 28.0245 32.2899C28.0498 32.3512 28.0958 32.403 28.1553 32.4373C28.2148 32.4716 28.2845 32.4866 28.354 32.48H32.3384C32.3292 32.8351 32.3577 33.1901 32.4233 33.5399H29.969C29.5801 33.5101 29.1892 33.5101 28.8003 33.5399C28.7938 33.5795 28.7971 33.6201 28.81 33.6582C28.8229 33.6964 28.845 33.7312 28.8746 33.76C29.4165 34.7 29.9371 35.64 30.5215 36.57C31.1059 37.5 31.074 37.46 31.584 36.5C32.0515 35.82 32.4552 35.1 32.8696 34.37C33.0947 34.6336 33.3514 34.8718 33.6346 35.08L32.6465 36.7899C32.3915 37.1799 32.1577 37.58 31.8814 37.96C31.7942 38.0601 31.7467 38.1855 31.7467 38.315C31.7467 38.4444 31.7942 38.5698 31.8814 38.67C32.7314 39.91 33.6027 41.1301 34.5589 42.2701C34.9015 42.7745 35.3244 43.2264 35.8127 43.61C36.1613 44.0841 36.5881 44.5027 37.0771 44.85C37.4668 45.2289 37.9376 45.5254 38.4584 45.72C38.5633 45.7717 38.6799 45.7987 38.7983 45.7987C38.9167 45.7987 39.0335 45.7717 39.1384 45.72C39.7015 45.79 39.8715 46.07 39.6377 46.67Z" fill="#2F2962"/>
<path d="M22.1069 46.49C21.7356 45.7589 21.5813 44.9469 21.6606 44.14C21.6606 43.67 21.7563 43.2 21.8094 42.73L22.1601 41.19C22.5107 39.75 23.0206 38.36 23.5093 36.97H24.4975H24.5825C24.3062 37.75 24.0301 38.53 23.7645 39.32C23.2654 40.7045 22.9096 42.1311 22.702 43.58C22.702 43.75 22.7019 43.91 22.6382 44.07C22.5556 44.6512 22.6438 45.2427 22.8931 45.7801C22.3194 45.7801 22.192 45.98 22.2876 46.64L22.1069 46.49Z" fill="#352768"/>
<path d="M23.0951 16.08C23.3819 15.57 23.2756 15.28 22.755 15.08L22.8294 15.01C23.3811 14.9996 23.9284 15.1044 24.4319 15.3171C24.9353 15.5298 25.3823 15.845 25.7407 16.24C25.8575 16.33 25.9744 16.42 26.0806 16.52L26.3356 16.7899C27.3153 17.7332 28.2076 18.7536 29.0025 19.84H28.4182H27.6956C27.4243 19.4588 27.1224 19.0978 26.7925 18.76C26.2624 18.1115 25.6564 17.5211 24.9862 17C24.5073 16.4731 23.8288 16.1429 23.0951 16.08Z" fill="#352768"/>
<path d="M39.6381 46.67C39.8719 46.07 39.7019 45.7901 39.0962 45.7801C39.1964 45.6089 39.2648 45.4229 39.2982 45.23C39.3885 44.6833 39.3885 44.1267 39.2982 43.58C39.2982 43.51 39.2982 43.44 39.2982 43.37C39.1193 42.3042 38.8744 41.249 38.565 40.21C38.5826 39.9959 38.6609 39.7902 38.7917 39.6143C38.9225 39.4384 39.1011 39.2988 39.3088 39.21C39.6701 40.36 39.9782 41.52 40.2225 42.7C40.3696 43.5359 40.4052 44.3858 40.3288 45.23C40.2602 45.6407 40.1239 46.0387 39.925 46.4099L39.8506 46.51L39.6381 46.67Z" fill="#352768"/>
<path d="M14.2124 28.3C14.8833 27.4559 15.8147 26.8273 16.8793 26.5L17.3999 26.2801L19.2806 25.7899C19.2061 26.1623 19.1741 26.5412 19.185 26.92C18.4292 27.0732 17.6948 27.3082 16.9963 27.62C16.2015 27.8494 15.5076 28.3163 15.0199 28.95C14.7118 28.56 14.5632 28.5301 14.0638 28.7701L14.2124 28.3Z" fill="#352768"/>
<path d="M39.8401 46.5301L39.9144 46.43C39.9463 46.51 39.8826 46.5001 39.8401 46.5301Z" fill="#012D5D"/>
<path d="M39.9037 15.53C40.3358 16.3571 40.4843 17.29 40.3288 18.1999C40.3288 18.5199 40.265 18.8399 40.2225 19.1999C40.0419 19.9699 39.8719 20.74 39.6913 21.51L38.8412 24.13C38.6753 24.472 38.5402 24.8266 38.4375 25.1899L36.7906 29.0399L36.3657 29.9499L36.0469 30.6C35.7468 30.45 35.4295 30.3326 35.1012 30.25L35.4731 29.4099C35.6568 29.0887 35.8132 28.7544 35.9406 28.4099C36.4585 27.3639 36.9161 26.2924 37.3113 25.1999C37.4836 24.8569 37.6189 24.4985 37.7151 24.13C37.9738 23.541 38.1904 22.9362 38.3632 22.3199C38.5857 21.7357 38.7493 21.1331 38.8519 20.52C39.0673 19.8379 39.2132 19.138 39.2875 18.4299C39.3619 17.9123 39.3619 17.3876 39.2875 16.87C39.2871 16.7265 39.2513 16.5849 39.1831 16.4565C39.1149 16.3282 39.0162 16.2164 38.8944 16.13C38.6182 15.64 38.6924 15.4 39.1812 15.13C39.5212 15.08 39.7125 15.31 39.9037 15.53Z" fill="#2F2962"/>
<path d="M39.2025 15.1001C38.7137 15.3501 38.6393 15.5901 38.9156 16.1001C38.1787 16.1681 37.4997 16.5056 37.0244 17.04C36.0024 17.8799 35.0925 18.8336 34.315 19.8801H33.0081L33.4225 19.33C34.1921 18.3553 35.0298 17.4299 35.93 16.56C36.4249 16.1196 36.966 15.7276 37.545 15.3901C38.0232 15.0908 38.604 14.9729 39.1707 15.06L39.2025 15.1001Z" fill="#352768"/>
<path d="M44.6107 26.2801C45.0888 26.4901 45.5775 26.6801 46.045 26.9001C46.7521 27.2105 47.3576 27.694 47.7982 28.3L47.9468 28.7701C47.4581 28.5301 47.2988 28.56 46.9907 28.95C46.503 28.3163 45.8092 27.8494 45.0144 27.62C44.3156 27.3064 43.5813 27.0682 42.8256 26.9099C42.8275 26.5343 42.792 26.1593 42.7194 25.7899C43.3569 25.8899 44.0263 26.1401 44.6107 26.2801Z" fill="#352768"/>
<path d="M42.7194 25.7899C42.792 26.1593 42.8275 26.5343 42.8256 26.9099C42.8256 27.0899 42.645 27.28 42.8788 27.44C43.4449 27.8257 43.8792 28.3586 44.1283 28.9732C44.3774 29.5878 44.4305 30.2574 44.2812 30.9001C43.3936 31.2378 42.4715 31.4891 41.5294 31.6501C40.1041 31.9467 38.6594 32.1538 37.205 32.2701C37.0438 31.5872 36.6342 30.9787 36.0469 30.55L36.3657 29.9001C36.8138 30.1857 37.3438 30.3357 37.885 30.33C38.4609 30.3521 39.0351 30.2572 39.5686 30.0519C40.1021 29.8466 40.5824 29.5356 40.9769 29.14C41.1039 29.0376 41.1892 28.8969 41.2182 28.7419C41.2473 28.5868 41.2183 28.4271 41.1363 28.2899C40.9238 28.0099 40.605 28.0199 40.2969 28.2899C39.874 28.7515 39.3002 29.0678 38.6655 29.1891C38.0308 29.3104 37.3713 29.2298 36.7906 28.96L38.4375 25.11H39.0962C39.1923 25.1027 39.2846 25.0713 39.3635 25.0192C39.4425 24.9671 39.5053 24.8962 39.5454 24.8136C39.5854 24.7311 39.6014 24.6399 39.5916 24.5496C39.5817 24.4593 39.5464 24.3731 39.4894 24.3C39.33 24.05 39.0856 24.05 38.8412 24.05C39.1175 23.17 39.4044 22.3 39.6913 21.43C39.9747 21.9631 40.1134 22.5541 40.0951 23.1501C40.0951 23.3401 40.095 23.42 40.3075 23.46C40.9085 23.5819 41.4579 23.868 41.887 24.2825C42.316 24.697 42.6056 25.2213 42.7194 25.7899Z" fill="#FDBEAA"/>
<path d="M41.7312 33.4001C42.305 33.9416 42.6777 34.6431 42.7937 35.4001C42.8834 35.8208 42.8797 36.2543 42.7827 36.6736C42.6857 37.0929 42.4975 37.4888 42.23 37.8363C41.9626 38.1839 41.6217 38.4756 41.2286 38.693C40.8356 38.9105 40.399 39.0491 39.9463 39.1C39.7223 39.0853 39.4991 39.1379 39.3088 39.25C39.1011 39.3389 38.9225 39.4784 38.7917 39.6543C38.6609 39.8302 38.5826 40.036 38.565 40.25C38.533 40.7562 38.533 41.2638 38.565 41.7701C38.4448 41.7808 38.3239 41.7808 38.2038 41.7701C37.2467 41.4965 36.3749 41.0075 35.664 40.3454C34.953 39.6832 34.4244 38.8678 34.1238 37.97C33.8369 37.21 33.3907 36.9 32.6682 36.97L33.6562 35.26L33.9644 35.4001C34.2467 35.5107 34.5494 35.5673 34.8552 35.5667C35.1609 35.5661 35.4635 35.5083 35.7453 35.3966C36.0271 35.285 36.2826 35.1217 36.4967 34.9163C36.7108 34.7108 36.8793 34.4673 36.9925 34.2C37.1349 33.9645 37.2321 33.7072 37.2794 33.44C38.3952 33.3514 39.5052 33.2079 40.605 33.01H40.9026C41.1964 33.104 41.4751 33.2352 41.7312 33.4001ZM41.5718 35.24C41.5718 34.72 41.4868 34.5699 41.1893 34.5399C40.8918 34.5099 40.6688 34.6 40.5944 35.14C40.5467 35.6198 40.3165 36.0673 39.9463 36.4001C39.6645 36.6553 39.3313 36.8549 38.9664 36.9871C38.6015 37.1193 38.2121 37.1814 37.8213 37.17C37.6677 37.1781 37.522 37.2366 37.4095 37.3352C37.2969 37.4339 37.2246 37.5664 37.205 37.71C37.205 38.03 37.4282 38.24 37.8213 38.24C38.4246 38.2487 39.021 38.1193 39.5595 37.8633C40.098 37.6073 40.5625 37.2322 40.9131 36.7701C41.3104 36.345 41.5426 35.8055 41.5718 35.24ZM39.7762 34.55C39.7762 34.35 39.7763 34.2 39.7019 34.08C39.6276 33.96 39.4149 33.78 39.1918 33.83C39.0697 33.8672 38.964 33.9413 38.891 34.0407C38.8181 34.1401 38.7818 34.2593 38.7881 34.38C38.7738 34.519 38.7225 34.6524 38.6389 34.7677C38.5553 34.8831 38.4422 34.9767 38.31 35.0399C38.0853 35.1519 37.8401 35.2233 37.5874 35.25C37.4418 35.2578 37.3052 35.3184 37.2061 35.4191C37.107 35.5198 37.0532 35.6527 37.0562 35.7899C37.0743 35.9323 37.1468 36.0636 37.2602 36.1593C37.3736 36.255 37.5202 36.3085 37.6725 36.31C38.0703 36.2847 38.456 36.1717 38.7987 35.98C39.0748 35.8366 39.3087 35.6309 39.4794 35.3813C39.65 35.1316 39.7521 34.8459 39.7762 34.55Z" fill="#FDDECE"/>
<path d="M41.7312 33.4001C41.4593 33.1906 41.1547 33.0219 40.8281 32.9001L43.6225 32.2701C43.1734 32.865 42.4944 33.2707 41.7312 33.4001Z" fill="#F7BCAB"/>
<path d="M35.1012 30.2C34.5702 30.1454 34.0358 30.2694 33.5926 30.55C33.2514 30.7531 32.9615 31.024 32.7432 31.3435C32.5248 31.6631 32.3831 32.0237 32.3281 32.4001C31.8606 32.1701 31.7968 31.69 31.7437 31.23C31.6906 30.77 31.5099 30.61 31.2231 30.63C30.9362 30.65 30.7238 30.8901 30.745 31.2701C30.7675 31.7125 30.8793 32.1468 31.0744 32.55H28.3544C28.2849 32.5566 28.2152 32.5417 28.1557 32.5074C28.0962 32.473 28.0502 32.4213 28.0249 32.36C27.2599 30.88 26.495 29.36 25.8363 27.86C26.1019 27.75 26.2718 27.86 26.4631 28.07C27.0156 28.69 27.6 29.3 28.1737 29.91C28.2147 29.9568 28.2652 29.9955 28.3222 30.0238C28.3792 30.0522 28.4415 30.0697 28.5057 30.0752C28.5699 30.0808 28.6347 30.0744 28.6963 30.0563C28.7578 30.0383 28.8149 30.009 28.8644 29.97C28.9531 29.8591 29.0012 29.7239 29.0012 29.585C29.0012 29.4461 28.9531 29.311 28.8644 29.2L28.705 29.0201L27.4832 27.71C27.2069 27.41 27.2069 27.4 27.4832 27.18C28.0329 26.7967 28.4917 26.3096 28.8301 25.75C29.1686 25.1904 29.3793 24.5706 29.4488 23.93C29.4595 23.7635 29.4595 23.5965 29.4488 23.43C29.4488 23.06 29.2787 22.82 29.0131 22.8C28.7475 22.78 28.4606 23.01 28.4606 23.41C28.4471 23.9158 28.3318 24.4147 28.1207 24.88C28.0144 25.15 27.9188 25.19 27.7063 24.96C27.1431 24.33 26.5481 23.71 25.9744 23.09C25.8812 23.0195 25.8172 22.9204 25.7937 22.81C25.8133 22.2935 25.9744 21.7907 26.2613 21.35C26.4757 20.9844 26.7704 20.666 27.1259 20.4159C27.4813 20.1659 27.8892 19.9901 28.3225 19.9001H28.9069H34.2194C35.1119 19.9001 36.0044 19.9001 36.8969 19.9001C37.5722 19.8895 38.23 20.1017 38.7563 20.5C38.6537 21.1131 38.49 21.7157 38.2675 22.3C38.0946 22.9163 37.8781 23.521 37.6193 24.11H36.1637C35.9406 24.11 35.8768 24.03 35.8875 23.8C35.8875 23.41 35.8875 23.02 35.8875 22.63C35.8875 22.24 35.8875 21.84 35.8875 21.45C35.8875 21.06 35.6006 20.82 35.3562 20.83C35.1118 20.84 34.8994 21.11 34.8994 21.49C34.8994 22.27 34.8994 23.04 34.8994 23.81C34.8994 24.04 34.8994 24.15 34.6125 24.21C33.9993 24.3209 33.4255 24.5754 32.9443 24.95C32.7956 25.07 32.6893 25.08 32.5618 24.95C32.275 24.62 31.9775 24.3 31.6694 23.95C31.6246 23.8978 31.568 23.8557 31.5036 23.8268C31.4393 23.7979 31.3688 23.7829 31.2975 23.7829C31.2262 23.7829 31.1558 23.7979 31.0914 23.8268C31.0271 23.8557 30.9705 23.8978 30.9257 23.95C30.7132 24.2 30.7344 24.41 30.9894 24.7L31.8394 25.6C31.9075 25.6654 31.9456 25.7534 31.9456 25.845C31.9456 25.9366 31.9075 26.0246 31.8394 26.09C31.3415 26.8462 31.0834 27.7205 31.0956 28.61C31.0836 28.6794 31.0871 28.7502 31.1056 28.8183C31.1241 28.8863 31.1572 28.95 31.2031 29.0054C31.249 29.0608 31.3066 29.1067 31.3722 29.1402C31.4378 29.1737 31.5101 29.194 31.5844 29.2C31.8713 29.2 32.0838 28.96 32.0838 28.61C32.0925 28.0091 32.2451 27.4178 32.5301 26.88C32.6469 26.65 32.7637 26.58 32.9443 26.82C33.1249 27.06 33.1038 26.99 33.1782 27.07C33.9113 27.83 34.5913 28.64 35.3032 29.36L35.1012 30.2Z" fill="#FEBEAA"/>
<path d="M19.185 26.97C19.1741 26.5912 19.2062 26.2124 19.2806 25.84C19.4026 25.3259 19.6617 24.8496 20.0335 24.4559C20.4053 24.0623 20.8775 23.7642 21.4056 23.59C21.9252 23.4835 22.4582 23.4465 22.9887 23.48C23.0936 23.7011 23.1721 23.9325 23.2226 24.1699C23.1695 24.2399 23.1269 24.31 23.0738 24.37C22.7467 24.6975 22.4948 25.085 22.3339 25.5083C22.173 25.9316 22.1066 26.3815 22.1388 26.83C22.008 26.82 21.8765 26.82 21.7457 26.83C21.5226 26.83 21.2888 26.93 21.2251 27.23C21.1917 27.3514 21.1981 27.4793 21.2436 27.5972C21.2892 27.715 21.3716 27.8172 21.4801 27.89C21.4691 27.9817 21.4239 28.0667 21.3526 28.13C20.8761 28.7014 20.6111 29.4037 20.5981 30.13C20.6175 30.6665 20.714 31.1979 20.885 31.71C19.7943 31.5554 18.7252 31.287 17.6975 30.9099C17.5565 30.3004 17.597 29.6661 17.8145 29.0768C18.032 28.4875 18.418 27.966 18.93 27.5699C19.0427 27.5161 19.1306 27.4256 19.1775 27.3152C19.2244 27.2048 19.2271 27.0821 19.185 26.97Z" fill="#FDA68F"/>
<path d="M32.5937 36.8801C33.3162 36.8301 33.7625 37.1401 34.0494 37.8801C34.35 38.7779 34.8787 39.5932 35.5897 40.2553C36.3006 40.9175 37.1723 41.4065 38.1293 41.68C38.2495 41.6908 38.3705 41.6908 38.4907 41.68C38.4907 42.35 38.4907 43.02 38.4907 43.68C38.4907 43.93 38.3524 44.0001 38.1293 44.0101C37.3197 44.0444 36.5118 43.9149 35.76 43.6301C35.2717 43.2464 34.8489 42.7944 34.5063 42.29C33.55 41.15 32.6788 39.93 31.8288 38.69C31.7416 38.5899 31.6939 38.4645 31.6939 38.335C31.6939 38.2056 31.7416 38.0802 31.8288 37.9801C32.105 37.6701 32.3387 37.2701 32.5937 36.8801Z" fill="#FDCDBE"/>
<path d="M28.3544 36.97H24.5825H24.4975C24.4262 36.899 24.3335 36.8501 24.2319 36.83C23.468 36.5381 22.8402 35.9985 22.4622 35.3089C22.0841 34.6192 21.9808 33.8251 22.1707 33.07L23.5732 33.26C23.863 33.6057 24.0269 34.0299 24.0406 34.47C24.0406 34.82 24.2532 35.05 24.5401 35.05C24.827 35.05 25.0075 34.81 25.0394 34.46C25.0713 34.11 24.9013 33.77 24.8907 33.46C25.7194 33.52 26.5375 33.57 27.3662 33.61C27.4242 33.6137 27.4796 33.6338 27.5251 33.6678C27.5706 33.7017 27.6043 33.7477 27.6214 33.8L28.2906 35.0301C28.1719 35.6741 28.1936 36.3341 28.3544 36.97Z" fill="#FEBEAA"/>
<path d="M20.8531 31.7C20.682 31.1879 20.5856 30.6565 20.5663 30.12C20.5793 29.3938 20.8441 28.6914 21.3206 28.12C21.392 28.0567 21.4371 27.9717 21.4481 27.88C22.0863 27.8549 22.7257 27.8749 23.3607 27.94C23.5519 27.94 23.5731 28.02 23.5199 28.21C23.4248 28.551 23.223 28.8572 22.9407 29.089C22.6584 29.3208 22.3087 29.4675 21.9368 29.51C21.5437 29.51 21.3418 29.76 21.3843 30.09C21.3891 30.1644 21.4107 30.2371 21.4473 30.3032C21.484 30.3694 21.5351 30.4274 21.5973 30.4737C21.6595 30.5199 21.7313 30.5534 21.8082 30.5717C21.885 30.59 21.9651 30.5928 22.0432 30.58C22.6833 30.5009 23.2775 30.2244 23.733 29.7938C24.1886 29.3633 24.4799 28.8028 24.5613 28.2C24.5613 28.09 24.5612 27.96 24.7099 27.94C25.4112 29.39 26.0806 30.8501 26.8349 32.2801C26.8987 32.4001 26.9412 32.5 26.7394 32.48L25.0926 32.32C25.2592 32.026 25.3739 31.7086 25.4325 31.38C25.4617 31.2398 25.4328 31.0944 25.3518 30.9735C25.2708 30.8527 25.1438 30.7656 24.9968 30.73C24.7312 30.73 24.4868 30.87 24.4443 31.19C24.4336 31.3531 24.3756 31.5104 24.2762 31.6444C24.1769 31.7785 24.0403 31.8842 23.8813 31.95C23.677 32.0236 23.4675 32.0838 23.2543 32.13C22.4447 32.0367 21.6425 31.893 20.8531 31.7Z" fill="#FDBEAA"/>
<path d="M25.8894 22.8C25.9129 22.9104 25.9767 23.0095 26.0699 23.08C26.6437 23.7 27.2387 24.32 27.8018 24.95C28.0143 25.18 28.11 25.1401 28.2162 24.8701C28.4273 24.4047 28.5426 23.9059 28.5562 23.4001C28.5562 23.0001 28.7899 22.77 29.1087 22.79C29.4274 22.81 29.5443 23.05 29.5443 23.42C29.5551 23.5865 29.5551 23.7535 29.5443 23.92C29.4748 24.5606 29.2641 25.1806 28.9257 25.7402C28.5872 26.2998 28.1285 26.7867 27.5787 27.17C27.2494 27.39 27.2494 27.4 27.5787 27.7L28.8006 29.0101L28.9599 29.19C29.0487 29.301 29.0967 29.4361 29.0967 29.575C29.0967 29.7139 29.0487 29.8491 28.9599 29.96C28.9105 29.999 28.8534 30.0283 28.7918 30.0463C28.7303 30.0644 28.6656 30.0708 28.6014 30.0653C28.5372 30.0597 28.4748 30.0422 28.4178 30.0139C28.3608 29.9855 28.3104 29.9469 28.2694 29.9001C27.6956 29.2901 27.1113 28.68 26.5588 28.06C26.3675 27.85 26.1974 27.74 25.9318 27.85C25.7497 27.5075 25.5936 27.1532 25.4644 26.79C26.1314 26.7959 26.7777 26.5718 27.2812 26.16C27.4193 26.07 27.4938 26 27.345 25.84L25.0606 23.43C25.0606 23.43 25.0606 23.3201 25.0606 23.2601C25.0146 23.1433 25.0104 23.0155 25.0488 22.8963C25.0872 22.7771 25.1659 22.6731 25.2731 22.6C25.5068 22.44 25.6769 22.54 25.8575 22.71C25.8663 22.7406 25.877 22.7706 25.8894 22.8Z" fill="#F79580"/>
<path d="M22.1707 33.05C21.9807 33.8051 22.0841 34.5994 22.4621 35.289C22.8402 35.9786 23.4679 36.5181 24.2319 36.81C24.3335 36.8301 24.4262 36.879 24.4975 36.95H23.5093H22.16C21.6977 36.9128 21.249 36.7835 20.8439 36.5706C20.4387 36.3577 20.0862 36.0662 19.8099 35.7154C19.5336 35.3645 19.3397 34.9623 19.2412 34.5356C19.1426 34.1088 19.1416 33.6672 19.2382 33.24C19.253 33.1801 19.2464 33.1173 19.2195 33.0613C19.1926 33.0053 19.1469 32.9591 19.0894 32.93C18.8091 32.7512 18.5674 32.5239 18.3775 32.26C19.5887 32.58 20.9063 32.83 22.1707 33.05Z" fill="#FDA68F"/>
<path d="M23.4137 21.4001C23.6484 20.9407 24.0164 20.5533 24.4752 20.2825C24.934 20.0118 25.4648 19.8688 26.0063 19.87C26.5694 19.87 27.1325 19.87 27.6956 19.87H28.4182C27.9849 19.9601 27.5769 20.1359 27.2214 20.3859C26.866 20.6359 26.5713 20.9544 26.3569 21.32C26.07 21.7606 25.9091 22.2636 25.8894 22.7801C25.8294 22.7561 25.7724 22.7258 25.7194 22.69C25.5388 22.52 25.3687 22.42 25.135 22.58C25.0278 22.6531 24.9491 22.7572 24.9107 22.8764C24.8723 22.9956 24.8765 23.1233 24.9225 23.24C24.9225 23.3 24.9225 23.36 24.9225 23.41C24.625 23.41 24.3593 23.57 24.0618 23.56C23.7818 22.8583 23.5651 22.1359 23.4137 21.4001Z" fill="#FDA68F"/>
<path d="M24.7099 27.91C24.5612 27.91 24.5826 28.06 24.5613 28.17C24.4799 28.7728 24.1886 29.3333 23.733 29.7639C23.2775 30.1944 22.6833 30.4709 22.0432 30.55C21.9651 30.5628 21.885 30.56 21.8082 30.5417C21.7313 30.5234 21.6595 30.4899 21.5973 30.4437C21.5351 30.3974 21.484 30.3394 21.4473 30.2733C21.4107 30.2071 21.3891 30.1345 21.3843 30.06C21.3843 29.73 21.5437 29.52 21.9368 29.48C22.3087 29.4375 22.6584 29.2908 22.9407 29.059C23.223 28.8272 23.4248 28.521 23.5199 28.18C23.5199 27.99 23.52 27.94 23.3607 27.91C22.7257 27.8449 22.0863 27.8249 21.4481 27.85C21.3397 27.7772 21.2573 27.6751 21.2118 27.5573C21.1663 27.4395 21.1597 27.3114 21.1931 27.19C21.2569 26.89 21.4906 26.84 21.7137 26.79C21.8446 26.78 21.976 26.78 22.1069 26.79H24.2319C24.4217 27.1512 24.5815 27.5256 24.7099 27.91Z" fill="#F79580"/>
<path d="M32.4026 33.62L32.8168 34.46C32.4024 35.19 31.9987 35.91 31.5312 36.59C31.5312 36.47 31.3612 36.42 31.2656 36.34C30.8372 36.0203 30.4948 35.6103 30.2659 35.143C30.037 34.6757 29.9281 34.1643 29.9481 33.6501L32.4026 33.62Z" fill="#FDDECE"/>
<path d="M24.1044 23.5799C24.4019 23.5799 24.6676 23.3999 24.9651 23.4299L27.2493 25.84C27.3981 26 27.3238 26.0699 27.1857 26.1599C26.6821 26.5717 26.0357 26.7958 25.3687 26.7899C24.8829 25.7433 24.4608 24.6717 24.1044 23.5799Z" fill="#FDBEAA"/>
<path d="M24.2319 26.7801H22.1069C22.0747 26.3316 22.141 25.8815 22.3019 25.4583C22.4628 25.035 22.7147 24.6475 23.0419 24.32C23.0419 24.26 23.1375 24.19 23.1906 24.12C23.5306 24.97 23.8387 25.9001 24.2319 26.7801Z" fill="#FDBEAA"/>
<path d="M28.3544 36.97C28.1848 36.3149 28.163 35.6335 28.2906 34.97L30.267 38.22C30.4688 38.55 30.2669 38.7 30.0225 38.86C29.2236 38.4614 28.6242 37.7822 28.3544 36.97Z" fill="#FDCDBE"/>
<path d="M29.9482 33.6501C29.9282 34.1643 30.0371 34.6757 30.266 35.143C30.4948 35.6103 30.8373 36.0204 31.2657 36.3401C31.3613 36.4201 31.4782 36.4701 31.5313 36.5901C31.0532 37.5901 31.0426 37.59 30.4688 36.66C29.8951 35.73 29.4062 34.7901 28.8219 33.8501C28.7923 33.8213 28.7703 33.7864 28.7574 33.7483C28.7445 33.7101 28.7411 33.6697 28.7476 33.6301C29.1477 33.6052 29.5493 33.6119 29.9482 33.6501Z" fill="#FDCDBE"/>
<path d="M32.3387 32.4V32.5599H31.0956C30.9005 32.1568 30.7888 31.7225 30.7663 31.28C30.7663 30.9 30.9468 30.65 31.2443 30.64C31.5418 30.63 31.7118 30.86 31.765 31.24C31.8181 31.62 31.8606 32.17 32.3387 32.4Z" fill="#F79580"/>
<path d="M23.2437 32.1C23.4568 32.0538 23.6664 31.9936 23.8707 31.92C24.0296 31.8542 24.1663 31.7485 24.2656 31.6144C24.3649 31.4804 24.4231 31.3231 24.4338 31.16C24.4338 30.84 24.7206 30.65 24.9862 30.7C25.1332 30.7356 25.2602 30.8227 25.3412 30.9435C25.4222 31.0644 25.451 31.2098 25.4219 31.35C25.3633 31.6786 25.2485 31.996 25.0819 32.29C24.4662 32.2563 23.8525 32.1929 23.2437 32.1Z" fill="#F79580"/>
<path d="M24.9012 33.39C24.9012 33.75 25.0713 34.07 25.05 34.39C25.0288 34.71 24.8375 34.97 24.5507 34.98C24.2638 34.99 24.0512 34.7501 24.0512 34.4001C24.0375 33.9599 23.8736 33.5356 23.5838 33.19C24.0275 33.2268 24.4677 33.2937 24.9012 33.39Z" fill="#F79580"/>
<path d="M35.5263 29.3601C34.7613 28.6401 34.0813 27.8301 33.4013 27.0701C33.3269 26.9901 33.242 26.9101 33.1676 26.8201C33.0932 26.7301 32.8701 26.6501 32.7532 26.8801C32.4683 27.4179 32.3157 28.0092 32.3069 28.6101C32.3069 28.9601 32.0944 29.2001 31.8076 29.2001C31.7332 29.1941 31.661 29.1737 31.5954 29.1403C31.5298 29.1068 31.4722 29.0609 31.4264 29.0055C31.3805 28.9501 31.3472 28.8864 31.3287 28.8184C31.3102 28.7503 31.3069 28.6794 31.3188 28.6101C31.3067 27.7206 31.5647 26.8463 32.0625 26.0901C32.1307 26.0247 32.1689 25.9367 32.1689 25.8451C32.1689 25.7535 32.1307 25.6655 32.0625 25.6001L31.2125 24.7001C30.9575 24.4101 30.9363 24.2001 31.1488 23.9501C31.1936 23.8979 31.2502 23.8558 31.3146 23.8269C31.3789 23.798 31.4493 23.783 31.5207 23.783C31.592 23.783 31.6624 23.798 31.7267 23.8269C31.7911 23.8558 31.8477 23.8979 31.8925 23.9501C32.2006 24.2501 32.4982 24.5701 32.7851 24.9501C32.9126 25.1101 33.0188 25.1001 33.1676 24.9501C33.6488 24.5755 34.2224 24.321 34.8356 24.2101C35.0907 24.1501 35.1225 24.0401 35.1225 23.8101C35.1225 23.0401 35.1225 22.2701 35.1225 21.4901C35.1225 21.1101 35.3032 20.8501 35.5795 20.8301C35.8557 20.8101 36.0895 21.1001 36.1107 21.4501C36.132 21.8001 36.1107 22.2401 36.1107 22.6301C36.1107 23.0201 36.1107 23.41 36.1107 23.8C36.1107 24.03 36.1107 24.1201 36.387 24.1101H37.8426C37.7464 24.4786 37.6111 24.837 37.4389 25.1801C36.9076 25.1801 36.3763 25.1801 35.8238 25.1801C35.14 25.1651 34.4679 25.3503 33.9006 25.7101C33.7731 25.8001 33.667 25.8702 33.8263 26.0302C34.5807 26.8102 35.2713 27.6501 36.0682 28.3901C35.9152 28.7265 35.734 29.0508 35.5263 29.3601Z" fill="#F79580"/>
<path d="M35.9407 28.36C35.1438 27.62 34.4532 26.78 33.6988 26C33.5394 25.84 33.6987 25.7699 33.7731 25.6799C34.3404 25.3202 35.0124 25.1351 35.6963 25.15C36.2382 25.15 36.7588 25.15 37.3113 25.15C36.9161 26.2425 36.4585 27.314 35.9407 28.36Z" fill="#FDBEAA"/>
<path d="M36.7906 28.97C37.3713 29.2398 38.0308 29.3204 38.6655 29.1991C39.3002 29.0779 39.874 28.7616 40.2969 28.3C40.605 28 40.9238 27.99 41.1363 28.3C41.2183 28.4371 41.2473 28.5969 41.2183 28.7519C41.1892 28.9069 41.1039 29.0476 40.9769 29.1501C40.5824 29.5456 40.1021 29.8566 39.5686 30.0619C39.0351 30.2673 38.4609 30.3621 37.885 30.34C37.3438 30.3457 36.8138 30.1956 36.3657 29.9099L36.7906 28.97Z" fill="#F79580"/>
<path d="M38.8412 24.08C39.0856 24.08 39.33 24.08 39.4894 24.33C39.5464 24.4032 39.5817 24.4893 39.5916 24.5796C39.6014 24.6699 39.5854 24.761 39.5454 24.8435C39.5053 24.9261 39.4425 24.9971 39.3635 25.0492C39.2846 25.1013 39.1923 25.1327 39.0962 25.14H38.4375C38.5402 24.7767 38.6753 24.422 38.8412 24.08Z" fill="#F79580"/>
<path d="M41.5718 35.2401C41.5575 35.7995 41.3443 36.3383 40.9662 36.7701C40.6156 37.2322 40.1512 37.6073 39.6127 37.8633C39.0741 38.1194 38.4776 38.2487 37.8743 38.2401C37.4812 38.2401 37.2475 38.03 37.2581 37.71C37.2777 37.5665 37.3501 37.4339 37.4626 37.3353C37.5752 37.2366 37.7208 37.1781 37.8743 37.17C38.2652 37.1815 38.6546 37.1194 39.0195 36.9871C39.3845 36.8549 39.7175 36.6553 39.9993 36.4001C40.3696 36.0673 40.5997 35.6199 40.6474 35.1401C40.7218 34.6001 40.86 34.5 41.2425 34.54C41.625 34.58 41.5611 34.7201 41.5718 35.2401Z" fill="#FDCDBE"/>
<path d="M39.7762 34.55C39.7521 34.8459 39.65 35.1316 39.4794 35.3813C39.3087 35.6309 39.0748 35.8366 38.7987 35.98C38.456 36.1717 38.0702 36.2847 37.6725 36.31C37.5202 36.3085 37.3736 36.255 37.2602 36.1593C37.1468 36.0636 37.0742 35.9323 37.0562 35.7899C37.0532 35.6527 37.107 35.5198 37.2061 35.4191C37.3052 35.3184 37.4418 35.2578 37.5874 35.25C37.8401 35.2233 38.0853 35.1519 38.31 35.0399C38.4422 34.9767 38.5553 34.8831 38.6389 34.7677C38.7225 34.6524 38.7738 34.519 38.7881 34.38C38.7818 34.2593 38.8181 34.1401 38.891 34.0407C38.964 33.9413 39.0697 33.8672 39.1918 33.83C39.4149 33.83 39.5638 33.9 39.7019 34.08C39.84 34.26 39.7762 34.35 39.7762 34.55Z" fill="#FDCDBE"/>
<path d="M39.4312 33.7833C39.3494 34.1875 39.1818 34.5767 38.9356 34.9328C38.1298 35.1682 37.2684 35.2459 36.4198 35.1597C35.6725 35.017 34.9826 34.7178 34.4165 34.2912C33.8504 33.8646 33.4274 33.3251 33.1884 32.7246C32.775 31.688 32.775 30.5695 33.1884 29.5329C33.9599 29.1197 34.8806 28.9381 35.7956 29.0187C36.3629 29.1436 36.9112 29.3211 37.4298 29.548C38.4448 30.1965 39.1527 31.1169 39.4312 32.1498C39.5229 32.6917 39.5229 33.2414 39.4312 33.7833Z" fill="#FE5757"/>
<path d="M31.0213 32.3464C31.1163 31.7771 31.3611 31.2317 31.7385 30.7483C32.1159 30.265 32.6167 29.8553 33.2062 29.548C32.7929 30.5794 32.7929 31.6931 33.2062 32.7245C33.4453 33.325 33.8684 33.8646 34.4345 34.2912C35.0006 34.7177 35.6905 35.0169 36.4379 35.1597C37.2864 35.2459 38.1477 35.1682 38.9534 34.9328C38.7578 35.3371 38.4665 35.7053 38.0965 36.0161C37.7265 36.3268 37.2853 36.5739 36.7983 36.7428C36.3113 36.9117 35.7884 36.9991 35.26 37C34.7316 37.0009 34.2082 36.9151 33.7204 36.7478L33.188 36.536C32.6986 36.2212 32.2548 35.8609 31.8658 35.4621L31.1497 34.1916C31.0362 33.6626 30.9871 33.1254 31.0029 32.5883L31.0213 32.3464Z" fill="#FE4444"/>
</g>
<defs>
<clipPath id="clip0_2601_1185">
<rect width="34" height="32" fill="white" transform="translate(14 15)"/>
</clipPath>
</defs>
</svg>
