<svg width="64" height="64" viewBox="0 0 64 64" fill="none" xmlns="http://www.w3.org/2000/svg">
<rect x="62.7495" y="63.2485" width="62" height="62" rx="8" transform="rotate(-179.539 62.7495 63.2485)" fill="#F8BBFF" fill-opacity="0.27"/>
<g clip-path="url(#clip0_2601_1189)">
<path d="M16 17.8314C16 17.8314 16.0401 17.8314 16.0458 17.7907C16.1716 17.2335 16.4948 16.743 16.9539 16.4127C17.4129 16.0824 17.9757 15.9356 18.5346 16.0001H21.9503C21.8665 16.081 21.7997 16.1783 21.7542 16.2862C21.7086 16.3942 21.6851 16.5104 21.6851 16.6279C21.6851 16.7453 21.7086 16.8616 21.7542 16.9695C21.7997 17.0775 21.8665 17.1749 21.9503 17.2558H18.2657C18.1356 17.2519 18.006 17.2746 17.8846 17.3225C17.7633 17.3705 17.6527 17.4427 17.5593 17.5349C17.466 17.6271 17.3917 17.7372 17.3411 17.8591C17.2904 17.9809 17.2644 18.1119 17.2644 18.2442V37.8197H16.0114L16 17.8314Z" fill="#3C58A0"/>
<path d="M16 37.8372H17.253H17.6592H24.1302C24.0092 37.9945 23.8983 38.1596 23.7983 38.3314C23.2261 39.4186 23.0259 40.5174 23.7411 41.6337C23.8441 41.7907 24.0386 41.8721 24.0672 42.0872H18.2199C17.7337 42.092 17.2596 41.9333 16.8715 41.6357C16.4834 41.3381 16.2031 40.9182 16.0743 40.4418C16.0743 40.3721 16.0743 40.2908 16 40.2442V37.8372Z" fill="#BDC7F6"/>
<path d="M24.0672 42.0931C24.0672 41.8779 23.8441 41.7965 23.7411 41.6395C23.0259 40.5233 23.169 39.4245 23.7983 38.3373C23.8984 38.1655 24.0093 38.0003 24.1302 37.843H24.4106H46.4781H46.7584H48.0058C48.0058 38.5407 48.0058 39.2384 48.0058 39.9361C47.9925 40.511 47.7602 41.0582 47.3579 41.4627C46.9556 41.8672 46.4146 42.0973 45.8488 42.1047H24.1073L24.0672 42.0931Z" fill="#DDEDFE"/>
<path d="M47.9943 37.8256H46.747C46.747 31.2908 46.747 24.7539 46.747 18.2152C46.7482 18.0764 46.7126 17.9399 46.644 17.8199C46.5503 17.635 46.4058 17.4816 46.2281 17.3784C46.0504 17.2752 45.8471 17.2266 45.6428 17.2385H21.9503C21.8665 17.1576 21.7997 17.0601 21.7542 16.9522C21.7086 16.8442 21.6851 16.728 21.6851 16.6105C21.6851 16.4931 21.7086 16.3768 21.7542 16.2689C21.7997 16.1609 21.8665 16.0636 21.9503 15.9827H45.6256C46.1167 15.9443 46.6067 16.0708 47.0201 16.3428C47.4336 16.6149 47.7477 17.0174 47.9142 17.4884C47.9979 17.7154 48.0424 17.9554 48.0457 18.1977C48.0114 24.752 47.9943 31.2946 47.9943 37.8256Z" fill="#6389CB"/>
<path d="M35.819 46.7209H36.5342C36.6516 46.7095 36.7695 46.7352 36.8719 46.7945C36.9743 46.8538 37.0562 46.9439 37.1064 47.0523C36.5556 47.2963 35.9799 47.4776 35.3899 47.593C34.1498 47.8687 32.8833 48.0032 31.6138 47.9941C31.5108 47.9941 31.4021 48.0291 31.3163 47.936C31.2323 47.797 31.1878 47.6369 31.1878 47.4737C31.1878 47.3106 31.2323 47.1506 31.3163 47.0116C31.3666 46.9214 31.4068 46.8259 31.4364 46.7267L35.819 46.7209Z" fill="#DDEDFE"/>
<path d="M31.4421 46.7267C31.4126 46.8259 31.3723 46.9214 31.322 47.0116C31.238 47.1506 31.1936 47.3106 31.1936 47.4737C31.1936 47.6369 31.238 47.797 31.322 47.936C29.8044 47.9083 28.3034 47.6092 26.8879 47.0523C26.938 46.9439 27.0199 46.8538 27.1223 46.7945C27.2247 46.7352 27.3427 46.7095 27.46 46.7209H31.4364L31.4421 46.7267Z" fill="#D3DBFA"/>
<path d="M24.1302 37.843H17.6592H17.253V18.2675C17.2529 18.1352 17.279 18.0042 17.3297 17.8824C17.3803 17.7605 17.4545 17.6502 17.5479 17.5581C17.6412 17.4659 17.7519 17.3938 17.8732 17.3459C17.9945 17.2979 18.1241 17.2753 18.2542 17.2791H21.9503C21.7383 17.4962 21.5769 17.7587 21.4779 18.0475C21.3789 18.3362 21.3448 18.6438 21.3781 18.9477C21.3781 20.0116 21.3781 21.0814 21.3781 22.1512C21.3644 22.319 21.3856 22.488 21.4405 22.647C21.4954 22.8059 21.5826 22.9513 21.6965 23.0737C21.8105 23.196 21.9485 23.2925 22.1017 23.357C22.2548 23.4214 22.4196 23.4523 22.5853 23.4477C21.7652 24.2971 21.1945 25.3623 20.9376 26.5233C20.8388 27.2333 20.5825 27.9112 20.1881 28.5058C20.084 28.676 20.0031 28.86 19.9478 29.0524C19.5661 30.24 19.426 31.494 19.5358 32.7384C19.5619 33.2769 19.682 33.8066 19.8906 34.3024C19.9904 34.5742 20.1866 34.7982 20.4406 34.9305C20.6947 35.0628 20.9883 35.0939 21.2637 35.0175C21.8921 34.881 22.4801 34.5961 22.9802 34.186C23.3035 33.9149 23.6799 33.7167 24.0844 33.6046C24.05 33.6802 24.0157 33.7559 23.9757 33.8256C23.6897 34.2525 23.5069 34.7419 23.4422 35.2541C23.3776 35.7664 23.433 36.287 23.6038 36.7733C23.7643 37.1402 23.9558 37.4922 24.1759 37.8256L24.1302 37.843Z" fill="#2A428B"/>
<path d="M24.1187 37.8256C23.8985 37.4922 23.7071 37.1402 23.5466 36.7734C23.3757 36.287 23.3204 35.7664 23.385 35.2542C23.4496 34.7419 23.6324 34.2525 23.9184 33.8257C23.9584 33.7559 23.9928 33.6802 24.0271 33.6047L24.1187 33.535C24.7666 33.3831 25.345 33.0135 25.7603 32.4859C26.1757 31.9583 26.4037 31.3036 26.4073 30.628C26.4073 29.6105 26.4073 28.5989 26.4073 27.5815C26.4146 27.275 26.3601 26.9703 26.2471 26.6861C26.5248 26.4539 26.8305 26.2586 27.1568 26.1047C27.2117 26.0731 27.2739 26.0565 27.337 26.0565C27.4002 26.0565 27.4622 26.0731 27.5172 26.1047C27.8222 26.2711 28.1114 26.4657 28.3811 26.6861C28.2713 26.9834 28.2169 27.2989 28.2209 27.6164C28.2209 28.6222 28.2209 29.6222 28.2209 30.628C28.2099 31.1712 28.353 31.7062 28.633 32.1691C28.913 32.6319 29.3181 33.0032 29.8001 33.2384C30.3722 33.5291 30.9443 33.7268 31.5165 33.9652C31.5165 34.0408 31.5165 34.0582 31.5909 34.0756C31.7797 34.2152 31.9685 34.3721 32.163 34.4942C32.65 34.8545 33.2435 35.0351 33.8451 35.0059C34.0124 35.0018 34.1756 34.9528 34.3183 34.864C34.4609 34.7751 34.578 34.6496 34.6575 34.5C34.7953 34.276 34.8958 34.0305 34.9551 33.7733C35.2125 32.5762 35.2125 31.3367 34.9551 30.1396C34.8527 29.3671 34.5724 28.6301 34.1369 27.9884C33.9583 27.7149 33.8465 27.4019 33.8108 27.0756C33.728 26.5359 33.58 26.0087 33.3702 25.5059C33.389 25.434 33.4139 25.3641 33.4446 25.2966C33.9481 24.3955 34.463 23.5059 34.9436 22.5931C35.001 22.46 35.0999 22.3499 35.225 22.2795C35.3501 22.2091 35.4945 22.1824 35.636 22.2036C36.4656 22.2036 37.3009 22.2036 38.1362 22.2036C38.204 22.2115 38.2727 22.2014 38.3355 22.1743C38.3983 22.1472 38.4531 22.1041 38.4946 22.049C38.5361 21.9939 38.5629 21.9289 38.5722 21.8602C38.5816 21.7915 38.5733 21.7216 38.5482 21.6571C38.4566 21.3548 38.1762 21.3315 37.9359 21.3257C36.9976 21.3257 36.0593 21.3257 35.121 21.3257C34.9809 21.3188 34.8418 21.3536 34.7208 21.4259C34.5999 21.4982 34.5023 21.6048 34.4401 21.7326C33.9366 22.6628 33.3988 23.5756 32.8725 24.5001C32.1767 23.4211 31.1516 22.604 29.9545 22.1745C29.8159 22.0961 29.6585 22.0585 29.5001 22.066C29.3416 22.0736 29.1884 22.126 29.0576 22.2172C28.9268 22.3084 28.8236 22.4349 28.7597 22.5824C28.6958 22.73 28.6737 22.8928 28.6959 23.0524C28.6959 23.7384 28.6959 24.4245 28.6959 25.1164C28.7102 25.3685 28.6871 25.6213 28.6272 25.8664C28.3666 25.7494 28.1496 25.551 28.0076 25.3C27.8656 25.0491 27.806 24.7586 27.8376 24.471C27.9006 23.407 27.8376 22.3372 27.8376 21.2733C27.8226 21.083 27.8645 20.8925 27.9578 20.7268C27.9844 20.6903 28.0035 20.6487 28.0142 20.6046C28.0249 20.5605 28.0268 20.5146 28.0199 20.4698C28.0129 20.4249 27.9973 20.3817 27.9739 20.343C27.9505 20.3043 27.9197 20.2707 27.8834 20.2442C27.8195 20.1866 27.7371 20.1548 27.6517 20.1548C27.5662 20.1548 27.4839 20.1866 27.42 20.2442C27.2884 20.3605 27.214 20.343 27.0881 20.2442C27.0242 20.1866 26.9418 20.1548 26.8564 20.1548C26.771 20.1548 26.6886 20.1866 26.6247 20.2442C26.5526 20.2987 26.5044 20.3798 26.4905 20.47C26.4766 20.5603 26.4981 20.6525 26.5503 20.7268C26.632 20.8507 26.6758 20.9963 26.6762 21.1454C26.6762 22.4012 26.6762 23.657 26.6762 24.9128C26.6818 25.0089 26.6657 25.105 26.629 25.1937C26.5923 25.2824 26.536 25.3614 26.4645 25.4245C26.289 25.5911 26.0973 25.7392 25.8923 25.8664C25.8369 25.5852 25.8157 25.2982 25.8294 25.0118C25.8552 24.2733 25.8437 23.5339 25.795 22.7966C25.7846 22.6743 25.7467 22.556 25.6842 22.451C25.6217 22.3459 25.5364 22.2568 25.4347 22.1905C25.333 22.1242 25.2177 22.0826 25.0977 22.0687C24.9776 22.0549 24.8561 22.0691 24.7423 22.1105C23.9102 22.3554 23.1513 22.8069 22.5339 23.4244H22.4824C22.3167 23.4291 22.1518 23.3983 21.9987 23.3339C21.8455 23.2694 21.7075 23.1728 21.5936 23.0504C21.4796 22.928 21.3924 22.7827 21.3375 22.6237C21.2827 22.4648 21.2614 22.2958 21.2751 22.1279C21.3094 21.0582 21.2751 19.9884 21.2751 18.9244C21.2417 18.6205 21.2758 18.313 21.3748 18.0242C21.4738 17.7355 21.6353 17.4729 21.8472 17.2559H45.5569C45.7613 17.2441 45.9646 17.2927 46.1423 17.3958C46.32 17.499 46.4645 17.6524 46.5582 17.8373C46.6268 17.9573 46.6623 18.0938 46.6611 18.2326C46.6611 24.7675 46.6611 31.3043 46.6611 37.8431H46.3808H24.3132L24.1187 37.8256ZM40.9969 25.2559H38.0676C37.7357 25.2559 37.4954 25.4303 37.4954 25.6803C37.4954 25.9303 37.6956 26.1338 38.0275 26.1338H43.9263C43.9893 26.141 44.0531 26.1352 44.1138 26.1166C44.1745 26.0981 44.2309 26.0672 44.2796 26.0259C44.3282 25.9846 44.3681 25.9337 44.3969 25.8763C44.4257 25.8189 44.4427 25.7562 44.4469 25.6919C44.4469 25.4245 44.2467 25.2559 43.9091 25.2559H40.9969ZM40.9969 27.8605H43.9606C44.3382 27.8605 44.5328 27.6164 44.4641 27.2791C44.3954 26.9419 44.1551 26.9768 43.892 26.9768H38.119C38.0373 26.9681 37.9548 26.9681 37.873 26.9768C37.7989 26.9926 37.7302 27.028 37.6739 27.0794C37.6177 27.1309 37.5758 27.1966 37.5526 27.2698C37.5293 27.343 37.5256 27.4211 37.5417 27.4963C37.5578 27.5715 37.5931 27.6409 37.6442 27.6977C37.7051 27.7552 37.7776 27.7985 37.8567 27.8246C37.9357 27.8507 38.0193 27.859 38.1019 27.8489L40.9969 27.8605ZM40.9969 29.6047H43.995C44.3039 29.6047 44.4641 29.4478 44.4641 29.1803C44.4705 29.1187 44.4633 29.0563 44.4427 28.9979C44.4222 28.9395 44.389 28.8865 44.3456 28.8429C44.3022 28.7994 44.2496 28.7664 44.1919 28.7463C44.1341 28.7262 44.0728 28.7195 44.0122 28.7268C42.0154 28.7268 40.0071 28.7268 38.0218 28.7268C37.9331 28.7204 37.8446 28.7407 37.7673 28.7852C37.6899 28.8296 37.6272 28.8963 37.5869 28.9768C37.4267 29.3082 37.6499 29.6047 38.0676 29.6047H40.9969ZM40.9969 24.4071H43.9606C44.3096 24.4071 44.4641 24.2792 44.4698 23.9943C44.4755 23.7094 44.3153 23.5639 43.9492 23.5639H38.0847C37.7586 23.5639 37.5125 23.7443 37.5125 23.9943C37.5125 24.2443 37.7414 24.4071 38.0847 24.4071H40.9969ZM39.4865 31.3198H40.9855C41.0426 31.3263 41.1005 31.3207 41.1554 31.3033C41.2103 31.286 41.2611 31.2574 41.3046 31.2192C41.3481 31.181 41.3834 31.1341 41.4082 31.0814C41.4331 31.0287 41.4469 30.9713 41.4489 30.9129C41.4512 30.8519 41.4414 30.7911 41.42 30.734C41.3986 30.677 41.3661 30.6248 41.3244 30.5809C41.2828 30.5369 41.2328 30.502 41.1775 30.4781C41.1222 30.4542 41.0628 30.4419 41.0027 30.4419C40.8368 30.4419 40.6708 30.4419 40.5049 30.4419C39.6925 30.4419 38.8857 30.4419 38.0733 30.4419C37.7357 30.4419 37.5412 30.628 37.5412 30.8954C37.5412 31.1628 37.7529 31.3198 38.0561 31.3198C38.5081 31.3024 38.9887 31.2965 39.4636 31.2965L39.4865 31.3198Z" fill="#3C58A0"/>
<path d="M31.4421 46.7268H28.1809C28.4155 45.6163 28.6501 44.5117 28.8732 43.3954C28.987 42.9701 29.0693 42.5367 29.1193 42.0989H34.8807C34.9699 42.766 35.094 43.4277 35.2526 44.0814C35.4357 44.9651 35.6302 45.8256 35.8248 46.7268H31.4421Z" fill="#C6D0F8"/>
<path d="M22.5739 23.4302H22.6255C22.6255 23.6453 22.6255 23.8663 22.6255 24.0873C22.6301 24.3424 22.7108 24.5901 22.8569 24.7977C23.0029 25.0053 23.2075 25.1631 23.4436 25.25C23.2519 25.3611 23.096 25.526 22.9944 25.7251C22.8929 25.9242 22.8502 26.1489 22.8714 26.3721C22.8817 26.4927 22.8547 26.6135 22.7942 26.7177C22.7337 26.8219 22.6427 26.9043 22.5339 26.9535C22.276 27.0932 22.0575 27.2976 21.899 27.5472C21.7406 27.7968 21.6475 28.0833 21.6286 28.3797C21.6097 28.6761 21.6656 28.9725 21.791 29.2408C21.9164 29.509 22.1071 29.7404 22.3451 29.9128C22.4938 30.0175 22.448 30.064 22.3451 30.1686C22.191 30.3558 22.1019 30.5894 22.0916 30.8332C22.0813 31.077 22.1502 31.3175 22.2879 31.5175C22.4171 31.6948 22.5934 31.831 22.796 31.9103C22.9986 31.9895 23.2193 32.0086 23.4321 31.9652C23.4321 32.0989 23.4322 32.2384 23.3921 32.3721C23.3482 32.6248 23.3998 32.885 23.5367 33.1006C23.6736 33.3162 23.8856 33.4714 24.1302 33.5349L24.0386 33.6046C23.6342 33.7167 23.2578 33.9149 22.9344 34.186C22.4343 34.5961 21.8463 34.881 21.2179 35.0175C20.9425 35.0939 20.649 35.0628 20.3949 34.9305C20.1409 34.7982 19.9446 34.5742 19.8448 34.3024C19.6362 33.8066 19.5161 33.2769 19.4901 32.7384C19.3802 31.494 19.5204 30.24 19.9021 29.0524C19.9574 28.86 20.0382 28.676 20.1423 28.5058C20.5367 27.9112 20.7931 27.2333 20.8919 26.5233C21.1555 25.3522 21.7385 24.2802 22.5739 23.4302Z" fill="#FD4155"/>
<path d="M31.5452 33.9709C30.973 33.7326 30.4009 33.5349 29.8287 33.2442C29.3468 33.0089 28.9416 32.6377 28.6616 32.1748C28.3816 31.7119 28.2386 31.177 28.2496 30.6337C28.2496 29.6279 28.2496 28.628 28.2496 27.6221C28.2456 27.3046 28.3 26.9891 28.4098 26.6919C28.6553 26.8049 28.8907 26.9391 29.1136 27.093C29.2909 27.1976 29.4855 27.3372 29.6857 27.093C29.886 26.8488 29.6857 26.6919 29.5026 26.5465L28.7245 25.8721C28.7843 25.6271 28.8075 25.3742 28.7931 25.1221C28.7931 24.4303 28.7931 23.7442 28.7931 23.0581C28.771 22.8985 28.7931 22.7357 28.857 22.5882C28.9209 22.4406 29.024 22.3142 29.1548 22.2229C29.2856 22.1317 29.4389 22.0793 29.5974 22.0718C29.7558 22.0642 29.9133 22.1018 30.0519 22.1802C30.6814 22.3914 31.2644 22.7251 31.7683 23.1627C31.559 23.3236 31.3789 23.5203 31.2362 23.7441C31.1033 23.9645 31.0302 24.2167 31.0241 24.475C31.0181 24.7333 31.0795 24.9886 31.2019 25.2151C31.0553 25.2268 30.908 25.2268 30.7613 25.2151C30.5762 25.2097 30.3931 25.2548 30.231 25.3458C30.0689 25.4368 29.9338 25.5704 29.8397 25.7325C29.7456 25.8946 29.6961 26.0793 29.6962 26.2674C29.6963 26.4556 29.746 26.6403 29.8402 26.8023C29.9384 26.9553 29.9907 27.1341 29.9907 27.3168C29.9907 27.4995 29.9384 27.6783 29.8402 27.8314C29.6658 28.207 29.6329 28.6345 29.7479 29.0331C29.8628 29.4316 30.1175 29.7736 30.4638 29.9941C30.6526 30.1046 30.687 30.1686 30.5668 30.3721C30.4901 30.5013 30.4404 30.6451 30.4209 30.7947C30.4013 30.9443 30.4122 31.0964 30.453 31.2415C30.4938 31.3866 30.5636 31.5216 30.658 31.6381C30.7524 31.7546 30.8693 31.8501 31.0016 31.9186C31.2757 32.0214 31.5711 32.0514 31.8598 32.0057C31.5373 32.3978 31.381 32.9038 31.425 33.4128C31.4536 33.5931 31.5909 33.7616 31.5452 33.9709Z" fill="#FD4155"/>
<path d="M31.5451 33.971C31.5909 33.7617 31.4535 33.5931 31.4306 33.3896C31.3866 32.8806 31.543 32.3747 31.8655 31.9826L31.9341 31.9244C32.0843 31.8494 32.2165 31.7418 32.3213 31.6092C32.426 31.4766 32.5009 31.3222 32.5406 31.157C32.58 30.9538 32.5681 30.7438 32.5061 30.5466C32.444 30.3494 32.3339 30.1714 32.1859 30.0291C32.4263 29.8941 32.6307 29.7017 32.7812 29.4683C32.9318 29.2349 33.0241 28.9677 33.05 28.6899C33.0759 28.412 33.0347 28.132 32.93 27.874C32.8253 27.616 32.6602 27.3877 32.4491 27.2093C32.7447 26.6208 33.0732 26.0502 33.4331 25.5C33.6429 26.0029 33.7909 26.5301 33.8737 27.0697C33.9094 27.396 34.0213 27.709 34.1999 27.9826C34.6353 28.6242 34.9156 29.3612 35.018 30.1337C34.2685 30.4011 33.9081 30.6745 33.9939 31.5175C34.0203 32.0675 33.9038 32.6149 33.6563 33.1047C33.4804 33.4007 33.4069 33.748 33.4473 34.0913C33.4877 34.4347 33.6398 34.7545 33.8794 35.0001C33.2777 35.0293 32.6843 34.8487 32.1974 34.4883C31.9971 34.3663 31.8083 34.2093 31.6252 34.0698C31.6252 34.0174 31.6252 33.9768 31.5508 33.9593L31.5451 33.971Z" fill="#FD7085"/>
<path d="M24.1415 33.5349C23.8969 33.4714 23.685 33.3162 23.5481 33.1006C23.4112 32.8849 23.3596 32.6248 23.4035 32.3721C23.4035 32.2384 23.4035 32.0989 23.4435 31.9652C24.1301 31.6047 24.4448 31.157 24.2102 30.6163C24.0157 30.1628 24.1416 29.9942 24.4677 29.7151C24.75 29.4659 24.9369 29.1235 24.9955 28.7482C25.0541 28.3729 24.9806 27.9886 24.7881 27.6628C24.5878 27.25 24.5993 27.1163 24.8739 26.8198C25.1371 27.2791 25.2 27.2907 25.6806 27C25.8475 26.8556 26.0424 26.7486 26.2528 26.6861C26.3658 26.9703 26.4203 27.275 26.413 27.5814C26.413 28.5989 26.413 29.6105 26.413 30.6279C26.4103 31.3012 26.1848 31.954 25.7728 32.4813C25.3608 33.0086 24.7862 33.3797 24.1415 33.5349Z" fill="#FD7085"/>
<path d="M26.2757 26.7152C26.0654 26.7777 25.8704 26.8847 25.7036 27.0291C25.223 27.3198 25.1314 27.3082 24.8968 26.8489L24.9598 26.721C25.3403 26.4829 25.6917 26.2 26.0068 25.878C26.2117 25.7508 26.4034 25.6027 26.5789 25.4361C26.6504 25.373 26.7067 25.294 26.7434 25.2053C26.7801 25.1166 26.7962 25.0205 26.7906 24.9244C26.7906 23.6686 26.7906 22.4128 26.7906 21.157C26.7902 21.0079 26.7464 20.8623 26.6647 20.7384C26.6125 20.6641 26.591 20.5719 26.6049 20.4816C26.6189 20.3914 26.667 20.3103 26.7391 20.2558C26.803 20.1982 26.8854 20.1664 26.9708 20.1664C27.0563 20.1664 27.1387 20.1982 27.2026 20.2558C27.3285 20.3546 27.4028 20.3721 27.5344 20.2558C27.5983 20.1982 27.6807 20.1664 27.7661 20.1664C27.8515 20.1664 27.9339 20.1982 27.9978 20.2558C28.0341 20.2823 28.0649 20.3159 28.0883 20.3546C28.1117 20.3933 28.1274 20.4365 28.1343 20.4814C28.1413 20.5262 28.1393 20.5721 28.1287 20.6162C28.118 20.6603 28.0988 20.7019 28.0722 20.7384C27.9789 20.9041 27.937 21.0946 27.9521 21.2849C27.9521 22.3488 27.9978 23.4186 27.9521 24.4826C27.9205 24.7702 27.98 25.0607 28.122 25.3116C28.264 25.5626 28.481 25.761 28.7416 25.878L29.5197 26.5524C29.6856 26.6977 29.8859 26.843 29.7028 27.0988C29.5198 27.3547 29.3367 27.2035 29.1307 27.0988C28.9078 26.9449 28.6723 26.8108 28.4269 26.6977C28.1571 26.4773 27.868 26.2827 27.563 26.1163C27.5081 26.0847 27.4459 26.0681 27.3828 26.0681C27.3196 26.0681 27.2576 26.0847 27.2026 26.1163C26.8694 26.2743 26.5578 26.4756 26.2757 26.7152Z" fill="#F49DB0"/>
<path d="M25.9839 25.878C25.6689 26.2 25.3174 26.483 24.9368 26.721C24.9368 26.5989 24.9883 26.4768 24.9998 26.3488C25.057 25.4942 24.3475 25.0001 23.4436 25.2675C23.2075 25.1805 23.0029 25.0228 22.8568 24.8152C22.7107 24.6076 22.6301 24.3599 22.6254 24.1047C22.6254 23.8838 22.6254 23.6628 22.6254 23.4477C23.2428 22.8302 24.0018 22.3786 24.8339 22.1337C24.9476 22.0924 25.0691 22.0781 25.1892 22.092C25.3092 22.1059 25.4245 22.1475 25.5262 22.2138C25.6279 22.2801 25.7133 22.3692 25.7758 22.4743C25.8383 22.5793 25.8762 22.6976 25.8866 22.8199C25.9352 23.5572 25.9467 24.2964 25.9209 25.0349C25.9082 25.3175 25.9294 25.6007 25.9839 25.878Z" fill="#FD7085"/>
<path d="M33.4389 25.5058C33.0789 26.056 32.7504 26.6267 32.4548 27.2151C32.3518 27.4011 32.2489 27.5815 32.1402 27.7617C31.9685 28.0582 31.7282 28.1454 31.4993 28.0058C31.2704 27.8663 31.2419 27.6222 31.3906 27.3373L31.8197 26.5291C32.2202 25.8663 32.6036 25.1977 32.964 24.5C33.4904 23.5756 34.0282 22.6628 34.5317 21.7326C34.5939 21.6048 34.6914 21.4981 34.8124 21.4258C34.9333 21.3535 35.0724 21.3188 35.2126 21.3256C36.1509 21.3256 37.0892 21.3256 38.0275 21.3256C38.2678 21.3256 38.5482 21.3547 38.6397 21.6571C38.6649 21.7215 38.6731 21.7915 38.6637 21.8602C38.6544 21.9289 38.6276 21.9939 38.5861 22.049C38.5446 22.104 38.4898 22.1472 38.427 22.1743C38.3642 22.2014 38.2955 22.2114 38.2277 22.2035C37.3924 22.2035 36.5571 22.2035 35.7275 22.2035C35.586 22.1824 35.4417 22.2091 35.3166 22.2795C35.1915 22.3499 35.0926 22.46 35.0352 22.593C34.5546 23.5058 34.0397 24.3954 33.5362 25.2966C33.4976 25.3632 33.465 25.4332 33.4389 25.5058Z" fill="#4B6AB1"/>
<path d="M40.997 25.2559H43.9321C44.2696 25.2559 44.4698 25.4245 44.4698 25.6919C44.4656 25.7562 44.4486 25.8189 44.4198 25.8763C44.3911 25.9337 44.3512 25.9846 44.3025 26.0259C44.2538 26.0672 44.1974 26.0981 44.1367 26.1166C44.076 26.1351 44.0122 26.141 43.9492 26.1338H38.0504C37.7186 26.1338 37.5183 25.9477 37.5183 25.6803C37.5183 25.4128 37.7357 25.2559 38.0904 25.2559H40.997Z" fill="#71C0F6"/>
<path d="M40.9684 27.8605H38.1076C38.0251 27.8706 37.9414 27.8623 37.8624 27.8362C37.7833 27.8101 37.7108 27.7668 37.6499 27.7093C37.5988 27.6525 37.5635 27.5831 37.5474 27.5079C37.5314 27.4327 37.5351 27.3546 37.5583 27.2814C37.5816 27.2081 37.6234 27.1425 37.6797 27.091C37.736 27.0396 37.8047 27.0041 37.8788 26.9884C37.9606 26.9797 38.043 26.9797 38.1248 26.9884H43.8977C44.138 26.9884 44.3669 26.9884 44.4699 27.2907C44.5729 27.593 44.344 27.8721 43.9664 27.8721L40.9684 27.8605Z" fill="#71C0F6"/>
<path d="M40.9798 29.5815H38.0504C37.6327 29.5815 37.4096 29.2849 37.5698 28.9535C37.6101 28.873 37.6728 28.8065 37.7501 28.762C37.8275 28.7176 37.916 28.6972 38.0046 28.7035C40.0014 28.7035 42.0096 28.7035 43.995 28.7035C44.0556 28.6962 44.117 28.7029 44.1747 28.723C44.2325 28.7431 44.285 28.7761 44.3284 28.8197C44.3718 28.8632 44.405 28.9163 44.4255 28.9747C44.4461 29.0331 44.4534 29.0954 44.4469 29.157C44.4469 29.4245 44.2867 29.5815 43.9778 29.5815H40.9798Z" fill="#71C0F6"/>
<path d="M33.8852 35.0059C33.6455 34.7603 33.4935 34.4405 33.4531 34.0972C33.4126 33.7538 33.4862 33.4066 33.662 33.1105C33.9096 32.6207 34.0261 32.0733 33.9996 31.5233C33.9138 30.6803 34.2742 30.407 35.0237 30.1395C35.2811 31.3366 35.2811 32.5761 35.0237 33.7732C34.9645 34.0304 34.864 34.276 34.7262 34.5C34.6443 34.6538 34.5228 34.7822 34.3746 34.8713C34.2265 34.9604 34.0573 35.0069 33.8852 35.0059Z" fill="#F79EB0"/>
<path d="M40.9741 24.3838H38.0733C37.7415 24.3838 37.5012 24.2152 37.5012 23.971C37.5012 23.7268 37.7243 23.5408 38.0733 23.5408H43.9378C44.304 23.5408 44.4641 23.6745 44.4584 23.971C44.4527 24.2675 44.2982 24.3838 43.9492 24.3838H40.9741Z" fill="#71C0F6"/>
<path d="M32.9411 24.5059C32.6036 25.2035 32.2202 25.8721 31.7968 26.5349C31.8247 26.2756 31.7799 26.0136 31.6675 25.7791C31.5551 25.5445 31.3798 25.347 31.1618 25.2093C31.0393 24.9828 30.9781 24.7276 30.9841 24.4692C30.9901 24.2109 31.0633 23.9587 31.1961 23.7384C31.3388 23.5146 31.5189 23.3178 31.7282 23.157C32.2072 23.5308 32.6178 23.9874 32.9411 24.5059Z" fill="#FD7085"/>
<path d="M39.4636 31.2965C38.9887 31.2965 38.5081 31.2965 38.0332 31.2965C37.73 31.2965 37.5183 31.1163 37.5183 30.8721C37.5183 30.6279 37.7128 30.4244 38.0504 30.4186C38.8629 30.4186 39.6696 30.4186 40.482 30.4186C40.6479 30.4186 40.8139 30.4186 40.9798 30.4186C41.0399 30.4185 41.0993 30.4309 41.1546 30.4548C41.2099 30.4786 41.2599 30.5136 41.3015 30.5575C41.3432 30.6015 41.3758 30.6536 41.3972 30.7107C41.4185 30.7677 41.4284 30.8285 41.4261 30.8895C41.4241 30.9479 41.4102 31.0053 41.3854 31.058C41.3605 31.1107 41.3252 31.1576 41.2817 31.1959C41.2382 31.2341 41.1874 31.2627 41.1325 31.28C41.0776 31.2974 41.0197 31.3029 40.9626 31.2965H39.4636Z" fill="#71C0F6"/>
<path d="M31.5508 33.9651C31.6081 33.9651 31.6195 34.0233 31.6252 34.0756C31.631 34.1279 31.5222 34.0407 31.5508 33.9651Z" fill="#FD4155"/>
<path d="M23.4436 25.2675C24.3476 25 25.057 25.4941 24.9998 26.3488C24.9998 26.4767 24.9598 26.5989 24.9369 26.721L24.874 26.8489C24.5993 27.1454 24.5879 27.2791 24.7881 27.6919C24.9807 28.0176 25.0541 28.402 24.9955 28.7773C24.937 29.1526 24.7501 29.495 24.4678 29.7442C24.1416 30.0233 24.0157 30.1919 24.2102 30.6454C24.4448 31.1861 24.1302 31.6337 23.4436 31.9941C23.2307 32.0375 23.0101 32.0185 22.8075 31.9392C22.6049 31.8599 22.4286 31.7238 22.2993 31.5466C22.1617 31.3466 22.0927 31.1061 22.1031 30.8623C22.1134 30.6185 22.2024 30.3849 22.3565 30.1977C22.4423 30.093 22.4881 30.0466 22.3565 29.9419C22.1185 29.7695 21.9278 29.5381 21.8025 29.2698C21.6771 29.0015 21.6212 28.7052 21.6401 28.4088C21.659 28.1124 21.7521 27.8259 21.9105 27.5763C22.0689 27.3267 22.2874 27.1223 22.5454 26.9826C22.6542 26.9334 22.7451 26.851 22.8057 26.7468C22.8662 26.6426 22.8932 26.5217 22.8829 26.4012C22.8583 26.1773 22.8981 25.9511 22.9977 25.7498C23.0972 25.5485 23.2521 25.381 23.4436 25.2675Z" fill="#E70154"/>
<path d="M31.1847 25.2035C31.4027 25.3411 31.578 25.5387 31.6904 25.7732C31.8028 26.0078 31.8476 26.2698 31.8198 26.5291L31.3906 27.3373C31.2419 27.6222 31.2819 27.8721 31.4993 28.0058C31.7167 28.1396 31.9685 28.0582 32.1402 27.7617C32.2489 27.5815 32.3518 27.4011 32.4548 27.2151C32.666 27.3936 32.831 27.6218 32.9358 27.8798C33.0405 28.1378 33.0817 28.4179 33.0557 28.6957C33.0298 28.9735 32.9375 29.2407 32.7869 29.4741C32.6363 29.7075 32.432 29.9 32.1917 30.0349C32.3396 30.1772 32.4498 30.3552 32.5118 30.5524C32.5738 30.7497 32.5857 30.9596 32.5464 31.1628C32.5067 31.328 32.4318 31.4824 32.327 31.615C32.2222 31.7476 32.09 31.8552 31.9399 31.9303L31.8712 31.9885C31.5825 32.0341 31.2871 32.004 31.013 31.9012C30.8807 31.8326 30.7638 31.7372 30.6694 31.6207C30.575 31.5042 30.5052 31.3692 30.4644 31.2241C30.4236 31.079 30.4126 30.927 30.4322 30.7774C30.4518 30.6278 30.5015 30.4839 30.5782 30.3547C30.6983 30.1512 30.664 30.0872 30.4752 29.9767C30.1289 29.7561 29.8742 29.4143 29.7593 29.0158C29.6444 28.6172 29.6772 28.1896 29.8516 27.8139C29.9498 27.6609 30.0021 27.4821 30.0021 27.2994C30.0021 27.1167 29.9498 26.9379 29.8516 26.7849C29.7574 26.6229 29.7077 26.4382 29.7076 26.25C29.7075 26.0619 29.7571 25.8771 29.8511 25.715C29.9452 25.553 30.0804 25.4195 30.2424 25.3285C30.4045 25.2375 30.5877 25.1923 30.7728 25.1977C30.9097 25.2098 31.0474 25.2118 31.1847 25.2035Z" fill="#E70154"/>
</g>
<defs>
<clipPath id="clip0_2601_1189">
<rect width="32" height="32" fill="white" transform="translate(16 16)"/>
</clipPath>
</defs>
</svg>
