<svg width="246" height="168" viewBox="0 0 246 168" fill="none" xmlns="http://www.w3.org/2000/svg">
<g opacity="0.2" clip-path="url(#clip0_2318_3072)">
<path d="M66.797 16.1851C65.1415 17.1393 63.5001 18.1699 61.9137 19.175C61.1784 19.6467 60.4487 20.1077 59.7142 20.5523L49.9894 26.582L45.7348 29.2217C45.4238 28.8546 45.0407 28.5553 44.6092 28.3423C36.9626 24.3192 30.6818 20.9332 24.9265 17.7743L24.873 17.7456C24.4195 17.4837 23.9104 17.333 23.3875 17.3056L23.0769 6.1353C22.9498 1.6519 22.8159 -2.97273 22.604 -7.52915C22.5649 -7.77333 22.6014 -8.02352 22.7086 -8.2462C22.8159 -8.46888 22.9888 -8.65339 23.2041 -8.77498C28.9782 -12.1668 34.7371 -15.7869 40.3031 -19.3043L42.8843 -20.9306C43.2837 -21.2368 43.7687 -21.411 44.2721 -21.4291C44.7754 -21.4472 45.2721 -21.3083 45.6932 -21.0317L45.7467 -21.003C51.507 -17.8277 57.7614 -14.4696 65.4294 -10.435C65.8613 -10.2893 66.2311 -10.0017 66.4785 -9.61902C66.7259 -9.23638 66.8361 -8.78138 66.7913 -8.32834C66.7036 -6.39483 66.79 -4.47784 66.8859 -2.707C67.0759 0.145861 67.1321 3.1195 67.2086 5.95273C67.2851 8.78596 67.3657 12.0477 67.5502 15.0903C67.5076 15.6313 67.3601 15.8547 66.797 16.1851Z" fill="#FCF2FF"/>
<path d="M135.051 52.8314C133.395 53.7856 131.748 54.8268 130.167 55.8212C129.432 56.2929 128.702 56.7539 127.968 57.1986L118.243 63.2283L113.988 65.868C113.677 65.5008 113.294 65.2015 112.863 64.9885C105.216 60.9655 98.9355 57.5795 93.1801 54.4205C92.7165 54.1557 92.2003 53.996 91.6683 53.9527L91.3469 42.7766C91.2248 38.3096 91.0966 33.6743 90.879 29.1286C90.8399 28.8844 90.8764 28.6342 90.9836 28.4115C91.0909 28.1888 91.2638 28.0043 91.4791 27.8827C97.2532 24.4909 102.996 20.8757 108.556 17.369L111.159 15.7271C111.559 15.4209 112.044 15.2468 112.547 15.2286C113.05 15.2105 113.547 15.3494 113.968 15.626L114.022 15.6547C119.782 18.83 126.036 22.1882 133.704 26.2227C134.134 26.3721 134.501 26.6606 134.748 27.0423C134.995 27.424 135.107 27.877 135.066 28.3294C134.979 30.2629 135.065 32.1799 135.161 33.9507C135.351 36.8036 135.407 39.7772 135.484 42.6104C135.56 45.4437 135.641 48.7054 135.825 51.748C135.761 52.2776 135.614 52.501 135.051 52.8314Z" fill="#F0C5FF"/>
<path d="M203.304 89.4777C201.649 90.4319 200.002 91.4732 198.415 92.4782C197.686 92.9393 196.956 93.4003 196.221 93.8449C193.182 95.7433 190.137 97.6343 187.088 99.5179L182.242 102.514C181.924 102.131 181.525 101.822 181.074 101.612C173.427 97.5889 167.146 94.2028 161.391 91.0439L161.337 91.0152C160.892 90.7577 160.393 90.6073 159.879 90.5761L159.688 83.596C159.619 82.184 159.562 80.7776 159.561 79.2916C159.438 74.8517 159.303 70.2542 159.09 65.752C159.051 65.5078 159.087 65.2576 159.194 65.0349C159.302 64.8122 159.475 64.6277 159.69 64.5061C165.448 61.1192 171.19 57.5041 176.739 54.0187L179.37 52.3505C179.77 52.0444 180.255 51.8701 180.758 51.852C181.261 51.8339 181.758 51.9728 182.179 52.2494L182.233 52.2781C187.993 55.4534 194.247 58.8115 201.915 62.8461C202.337 62.9948 202.697 63.2814 202.937 63.6595C203.176 64.0376 203.281 64.4851 203.234 64.9298C203.152 66.8797 203.241 68.8673 203.329 70.5511C203.519 73.404 203.575 76.3776 203.652 79.2109C203.728 82.0441 203.809 85.3059 203.993 88.3484C204.015 88.9239 203.825 89.1244 203.304 89.4777Z" fill="#F6DAFF"/>
<path d="M156.158 13.5197C154.502 14.4739 152.855 15.5151 151.268 16.5202C150.539 16.9812 149.809 17.4422 149.069 17.8975C145.842 19.9061 142.615 21.9056 139.388 23.896L135.079 26.5612C134.753 26.1918 134.36 25.8875 133.921 25.6646C126.288 21.566 120.022 18.2021 114.238 15.0966C113.783 14.8162 113.266 14.6519 112.732 14.618L112.541 7.63799L112.39 3.43046C112.262 -1.02586 112.133 -5.63405 111.92 -10.1634C111.881 -10.4075 111.918 -10.6578 112.025 -10.8804C112.132 -11.1031 112.305 -11.2876 112.52 -11.4092C118.289 -14.7904 124.037 -18.4162 129.591 -21.9122L132.195 -23.5542C132.594 -23.8632 133.079 -24.0401 133.584 -24.0601C134.088 -24.0801 134.587 -23.9423 135.009 -23.6659L135.063 -23.6373C140.823 -20.4619 147.072 -17.0931 154.746 -13.0692C155.165 -12.9169 155.523 -12.6295 155.761 -12.2523C156 -11.8752 156.107 -11.4296 156.065 -10.9855C155.998 -9.10802 156.028 -7.22822 156.154 -5.35352C156.344 -2.50065 156.405 0.462312 156.482 3.29554C156.559 6.12877 156.633 9.40123 156.818 12.4437C156.868 12.9659 156.698 13.232 156.158 13.5197Z" fill="#FCF2FF"/>
<path d="M224.411 50.1668C222.75 51.1317 221.103 52.1729 219.516 53.178C218.787 53.639 218.057 54.1001 217.322 54.5447L208.156 60.2276L203.332 63.2084C203.019 62.8261 202.623 62.5196 202.175 62.3117C194.541 58.2131 188.276 54.8492 182.492 51.7437L182.439 51.715C181.996 51.4546 181.498 51.3006 180.986 51.2652L180.794 44.2851C180.745 42.8375 180.705 41.3991 180.673 39.97C180.545 35.5408 180.41 30.9433 180.202 26.4304C180.163 26.1862 180.2 25.936 180.307 25.7133C180.414 25.4906 180.587 25.3061 180.802 25.1845C186.554 21.8083 192.297 18.1932 197.835 14.7021L200.477 13.0396C200.876 12.7306 201.361 12.5537 201.866 12.5337C202.37 12.5136 202.869 12.6514 203.292 12.9278L203.345 12.9565C209.105 16.1318 215.354 19.5006 223.028 23.5245C223.448 23.6769 223.805 23.9642 224.044 24.3414C224.282 24.7186 224.389 25.1642 224.347 25.6082C224.264 27.5582 224.348 29.5564 224.436 31.2402C224.626 34.0931 224.688 37.0561 224.759 39.9C224.829 42.7439 224.916 45.995 225.1 49.0375C225.122 49.613 224.908 49.8562 224.411 50.1668Z" fill="#F6DAFF"/>
<path d="M159.265 90.5902C158.793 90.6869 158.345 90.8764 157.947 91.1477L155.311 92.7995C149.767 96.3012 144.03 99.9057 138.278 103.282C138.044 103.415 137.842 103.598 137.687 103.818L115.161 91.7227C115.225 91.5037 115.25 91.2748 115.234 91.0469C115.05 88.0044 114.975 84.9109 114.887 81.9201C114.799 78.9292 114.743 76.1346 114.57 73.2497C114.441 71.4004 114.407 69.5458 114.468 67.6932C114.506 67.2585 114.444 66.8209 114.288 66.4134L118.554 63.7523L128.289 57.7284C129.013 57.278 129.748 56.8063 130.489 56.351C132.069 55.3566 133.706 54.3096 135.356 53.3661C135.568 53.2431 135.763 53.094 135.938 52.9224L158.55 65.0633C158.495 65.3006 158.475 65.545 158.492 65.7882C158.689 70.2954 158.818 74.8765 158.941 79.3164L159.068 83.6208L159.265 90.5902Z" fill="#FCF2FF"/>
<path d="M112.129 14.6389C111.653 14.7395 111.199 14.9304 110.794 15.2013L108.197 16.8326C102.637 20.3392 96.8941 23.9544 91.1257 27.3356C90.8938 27.4645 90.6939 27.6439 90.5408 27.8605L68.0141 15.7656C68.0766 15.5461 68.1015 15.3177 68.0877 15.0899C67.8975 12.058 67.823 8.96453 67.7347 5.97368C67.6464 2.98283 67.5905 0.188181 67.4235 -2.70739C67.2913 -4.55656 67.2573 -6.41133 67.3216 -8.26387C67.3634 -8.70144 67.2977 -9.1427 67.1303 -9.54943L71.4457 -12.2253L81.1368 -18.2181C81.8664 -18.6791 82.5961 -19.1401 83.3364 -19.5954C84.9228 -20.6005 86.5535 -21.6368 88.2033 -22.5803C88.4153 -22.7033 88.611 -22.8524 88.7859 -23.024L111.398 -10.8831C111.339 -10.6482 111.316 -10.4058 111.329 -10.1639C111.547 -5.64523 111.676 -1.03705 111.793 3.41353L111.944 7.62106L112.129 14.6389Z" fill="#F6DAFF"/>
<path d="M180.383 51.2853C179.906 51.3735 179.453 51.5616 179.054 51.837L176.418 53.4889C170.879 56.9799 165.137 60.5951 159.385 63.9713C159.154 64.1019 158.955 64.281 158.8 64.4963L136.273 52.4013C136.336 52.1819 136.361 51.9534 136.347 51.7256C136.157 48.6938 136.082 45.6003 135.994 42.6094C135.906 39.6186 135.85 36.8239 135.683 33.9284C135.551 32.0792 135.517 30.2244 135.581 28.3719C135.619 27.9344 135.554 27.4939 135.39 27.0863L139.705 24.4104L149.396 18.4177C150.126 17.9567 150.855 17.4956 151.596 17.0403C153.182 16.0353 154.813 14.999 156.463 14.0554C156.675 13.9325 156.87 13.7834 157.045 13.6117L179.657 25.7526C179.604 25.9903 179.584 26.2343 179.599 26.4776C179.801 30.9741 179.925 35.5659 180.054 39.9951L180.175 44.3102L180.383 51.2853Z" fill="#F0C5FF"/>
<path d="M45.6962 55.4855C44.0406 56.4397 42.3935 57.481 40.8071 58.4861C40.0775 58.9471 39.3479 59.4081 38.6076 59.8634L28.3854 66.2038L24.6175 68.5271C24.299 68.1498 23.9071 67.8411 23.4656 67.6198C15.8724 63.6254 9.61799 60.2673 3.78283 57.0518C3.32492 56.7771 2.80914 56.6132 2.27677 56.5732L1.96606 45.4029C1.83897 40.9195 1.7108 36.2842 1.49895 31.7278C1.45982 31.4836 1.4963 31.2334 1.60355 31.0107C1.7108 30.788 1.88367 30.6035 2.09897 30.4819C7.86737 27.1007 13.6156 23.4749 19.1759 19.9683L21.7735 18.337C22.1723 18.0279 22.6578 17.8511 23.1624 17.8311C23.6669 17.811 24.1654 17.9488 24.5882 18.2252L24.6416 18.2539C30.4233 21.4407 36.672 24.8095 44.3244 28.8219C44.7472 28.9726 45.1076 29.2601 45.3485 29.6386C45.5894 30.0171 45.697 30.4651 45.6542 30.9114C45.5607 32.8555 45.6528 34.7619 45.7431 36.5434C45.933 39.3962 45.995 42.3592 46.0657 45.2031C46.1365 48.047 46.2228 51.2981 46.4073 54.3406C46.4067 54.9317 46.2592 55.1551 45.6962 55.4855Z" fill="#F0C5FF"/>
<path d="M113.95 92.1315C112.294 93.0857 110.647 94.1269 109.061 95.132C108.331 95.593 107.601 96.0541 106.861 96.5094L96.5855 102.821L92.8175 105.144C92.499 104.767 92.1071 104.458 91.6656 104.237C84.0725 100.243 77.818 96.8845 71.9829 93.669C71.5275 93.3887 71.0103 93.2244 70.4768 93.1905L70.1554 82.0144C70.039 77.5367 69.9051 72.9121 69.6933 68.3557C69.6541 68.1115 69.6906 67.8613 69.7979 67.6386C69.9051 67.4159 70.078 67.2314 70.2933 67.1099C76.0617 63.7287 81.8099 60.1028 87.3702 56.5962L89.9678 54.9649C90.3666 54.6559 90.8522 54.479 91.3567 54.459C91.8613 54.439 92.3597 54.5767 92.7825 54.8531L92.836 54.8818C98.6177 58.0686 104.866 61.4374 112.519 65.4498C112.942 65.6006 113.302 65.888 113.543 66.2665C113.784 66.6451 113.891 67.093 113.849 67.5393C113.755 69.4835 113.847 71.3898 113.937 73.1713C114.127 76.0241 114.189 78.9871 114.26 81.831C114.331 84.6749 114.441 88.0352 114.637 91.0564C114.66 91.5777 114.513 91.8011 113.95 92.1315Z" fill="#F6DAFF"/>
<path d="M70.5295 93.2464C70.5318 93.3262 70.5026 93.4037 70.4481 93.462C70.3935 93.5203 70.3182 93.5547 70.2384 93.5578C70.1873 93.543 70.1399 93.5176 70.0994 93.4832C70.0524 93.4582 70.0126 93.4218 69.9835 93.3773C69.9544 93.3328 69.937 93.2817 69.933 93.2288C70.1369 93.1883 70.3458 93.1799 70.5524 93.2037L70.5295 93.2464Z" fill="#F6DAFF"/>
<path d="M22.7583 17.2977C22.2861 17.3944 21.8378 17.5839 21.4397 17.8552L18.8364 19.4972C13.2819 22.9931 7.53364 26.619 1.77098 29.9895C1.53681 30.1221 1.33509 30.3051 1.18036 30.5251L-21.3035 18.4531C-21.2389 18.2341 -21.214 18.0053 -21.23 17.7774C-21.4145 14.7349 -21.4947 11.6521 -21.5723 8.66697C-21.6499 5.68185 -21.7272 2.87573 -21.8942 -0.0198376C-21.9876 -1.69298 -22.0724 -3.66414 -21.9961 -5.5763C-21.9582 -6.01097 -22.02 -6.44865 -22.1767 -6.85614L-17.9106 -9.51719L-8.17512 -15.5412L-5.97561 -16.9185C-4.38919 -17.9236 -2.75845 -18.9599 -1.10866 -19.9034C-0.896656 -20.0264 -0.700942 -20.1755 -0.526092 -20.3471L22.0861 -8.20627C22.0271 -7.97137 22.0038 -7.72893 22.0167 -7.48702C22.2286 -2.9306 22.3625 1.69403 22.4896 6.17744L22.7583 17.2977Z" fill="#F0C5FF"/>
<path d="M91.0118 53.9437C90.5412 54.0456 90.094 54.2347 89.6932 54.5012L87.0899 56.1432C81.5354 59.6392 75.7871 63.265 70.0245 66.6355C69.7903 66.7681 69.5886 66.9511 69.4338 67.1711L46.9072 55.0762C46.9718 54.8572 46.9967 54.6283 46.9807 54.4005C46.7962 51.358 46.7217 48.2645 46.6334 45.2736C46.5451 42.2828 46.4892 39.4881 46.3165 36.6032C46.1873 34.7539 46.1533 32.8993 46.2146 31.0467C46.2524 30.6121 46.1907 30.1744 46.034 29.7669L50.3001 27.1059L60.0356 21.0819C60.7652 20.6208 61.4948 20.1598 62.2351 19.7045C63.8215 18.6995 65.4523 17.6632 67.1021 16.7196C67.3141 16.5966 67.5098 16.4476 67.6846 16.2759L90.2968 28.4168C90.2379 28.6517 90.2145 28.8941 90.2274 29.136C90.445 33.6818 90.5732 38.3171 90.6953 42.7841L91.0118 53.9437Z" fill="#F6DAFF"/>
<path d="M69.9107 93.2445C69.4381 93.3511 68.9892 93.5437 68.5865 93.8126L65.9889 95.4439C60.4286 98.9506 54.6861 102.566 48.9177 105.947C48.6858 106.076 48.4859 106.255 48.3328 106.472L25.8061 94.3769C25.8708 94.1579 25.8957 93.9291 25.8797 93.7012C25.6895 90.6694 25.615 87.5759 25.5324 84.5743C25.4498 81.5728 25.3825 78.7995 25.2155 75.9039C25.1221 74.2308 25.0373 72.2596 25.1136 70.3475C25.1468 69.9101 25.0814 69.4709 24.9223 69.0619L28.696 66.7279L38.9716 60.4162C39.7012 59.9552 40.4415 59.4999 41.1768 59.0282C42.7575 58.0338 44.3882 56.9975 46.038 56.054C46.25 55.931 46.4458 55.7819 46.6206 55.6103L69.2328 67.7512C69.1739 67.9861 69.1505 68.2285 69.1634 68.4704C69.381 73.0161 69.5149 77.6408 69.6313 82.1184L69.9107 93.2445Z" fill="#F6DAFF"/>
<path d="M201.495 11.9902C201.016 12.0806 200.56 12.2663 200.155 12.5362L197.513 14.1987C191.975 17.6897 186.232 21.3049 180.486 24.6704C180.252 24.8031 180.05 24.986 179.895 25.2061L157.369 13.1112C157.433 12.8922 157.458 12.6633 157.442 12.4354C157.258 9.3929 157.173 6.29368 157.095 3.30857C157.017 0.323459 156.945 -2.46625 156.778 -5.36182C156.649 -7.21112 156.615 -9.06573 156.676 -10.9183C156.715 -11.3558 156.649 -11.7963 156.485 -12.2039L158.252 -13.2632C159.567 -14.0703 160.871 -14.883 162.196 -15.6843C163.92 -16.7396 165.64 -17.8058 167.357 -18.8829C170.27 -20.7163 173.27 -22.5852 176.338 -24.3218C177.05 -24.6328 177.687 -25.0929 178.205 -25.6711L200.785 -13.5474C200.595 -12.7985 200.565 -12.0176 200.698 -11.256C200.966 -7.7012 201.058 -4.07572 201.142 -0.564352C201.195 1.3896 201.242 3.35423 201.322 5.30899C201.375 6.87789 201.428 8.44679 201.47 10.0099L201.495 11.9902Z" fill="#F6DAFF"/>
</g>
<defs>
<clipPath id="clip0_2318_3072">
<rect width="244.555" height="177.858" fill="white" transform="translate(30.4617 -104.997) rotate(28.2321)"/>
</clipPath>
</defs>
</svg>
