<svg width="22" height="15" viewBox="0 0 22 15" fill="none" xmlns="http://www.w3.org/2000/svg">
<path d="M0.343117 7.74684L0.333984 7.61111C0.333984 7.10484 0.710184 6.68644 1.19829 6.62031L1.33398 6.61111L18.262 6.61231L13.9671 2.31977C13.612 1.96484 13.5795 1.40924 13.8697 1.01764L13.9665 0.905509C14.3213 0.550309 14.8769 0.517776 15.2685 0.808175L15.3808 0.904843L21.3808 6.89991C21.7359 7.25471 21.7684 7.81031 21.4781 8.20191L21.3813 8.31404L15.3813 14.3191C14.9909 14.7098 14.3579 14.7101 13.9671 14.3197C13.612 13.9648 13.5795 13.4093 13.8697 13.0177L13.9665 12.9055L18.2567 8.61231L1.33398 8.61111C0.827717 8.61111 0.40933 8.23497 0.343117 7.74684Z" fill="#217098"/>
</svg>
