<svg width="64" height="64" viewBox="0 0 64 64" fill="none" xmlns="http://www.w3.org/2000/svg">
<g filter="url(#filter0_d_74_5706)">
<rect x="4" y="2" width="56" height="56" rx="12" fill="white"/>
<rect x="6.83398" y="4.83325" width="50.3333" height="50.3333" rx="11.5" stroke="#1C3444"/>
<path d="M24.7543 41.666C24.5045 41.5339 24.4269 41.3275 24.4305 41.0483C24.4429 40.0023 24.431 38.9564 24.4397 37.9104C24.441 37.7401 24.383 37.6394 24.2556 37.5319C22.0448 35.6641 20.688 33.3139 20.3971 30.4262C20.0642 27.1212 21.142 24.2754 23.4468 21.9015C25.1905 20.1057 27.336 19.0361 29.7925 18.5764C30.114 18.5163 30.3583 18.6589 30.4035 18.9295C30.4496 19.2028 30.2811 19.4137 29.9537 19.4734C28.1671 19.7991 26.5345 20.4838 25.1156 21.6181C22.5243 23.6895 21.147 26.3754 21.2621 29.7124C21.3648 32.6853 22.6983 35.0819 24.9909 36.9551C25.2444 37.1624 25.3599 37.3761 25.353 37.7059C25.3343 38.6225 25.3466 39.5395 25.3466 40.4952C25.4521 40.4515 25.5389 40.4187 25.6234 40.38C26.5824 39.9431 27.5424 39.5085 28.4982 39.0653C28.6882 38.9773 28.8649 38.9605 29.0686 39.012C31.8325 39.7094 34.5141 39.4803 37.0647 38.1979C39.649 36.8987 41.4904 34.8992 42.3279 32.1104C43.3189 28.8095 42.6412 25.7937 40.4619 23.142C38.8037 21.1239 36.6208 19.9572 34.0611 19.4748C33.7839 19.4224 33.6277 19.2916 33.5975 19.078C33.55 18.7413 33.8286 18.4949 34.1972 18.5769C34.737 18.6972 35.2831 18.8065 35.806 18.9819C38.953 20.0374 41.2981 22.0181 42.722 25.0348C43.2408 26.134 43.5377 27.2961 43.6308 28.5088C43.6359 28.5748 43.6564 28.64 43.6697 28.7056V30.0244C43.656 30.0905 43.6395 30.1556 43.629 30.2221C43.5436 30.7446 43.5011 31.2781 43.3673 31.7878C42.4458 35.2924 40.2687 37.7565 36.9943 39.2461C34.4566 40.4005 31.8037 40.5872 29.0919 39.9522C28.9275 39.9135 28.7891 39.9272 28.6366 40C28.1301 40.2415 27.6168 40.4683 27.1076 40.7034C26.4135 41.0237 25.7207 41.3457 25.0274 41.6669H24.7539L24.7543 41.666Z" fill="#1C3444"/>
<path d="M32.5485 18.7832C32.5504 19.0337 32.3375 19.2442 32.0868 19.2396C31.8439 19.2351 31.6429 19.0324 31.6406 18.79C31.6384 18.5386 31.8507 18.3295 32.1023 18.3336C32.3448 18.3377 32.5467 18.5408 32.5485 18.7827V18.7832Z" fill="#1C3444"/>
<path d="M29.8585 29.1919C29.864 29.9281 29.2388 30.5467 28.5017 30.5331C27.7883 30.5203 27.1974 29.924 27.1914 29.212C27.1855 28.474 27.808 27.8585 28.5478 27.8713C29.2602 27.884 29.853 28.4808 29.8585 29.1915V29.1919Z" fill="#1C3444"/>
<path d="M36.8136 29.1919C36.819 29.9281 36.1938 30.5467 35.4567 30.5331C34.7434 30.5203 34.1525 29.924 34.1465 29.212C34.1406 28.474 34.763 27.8585 35.5029 27.8713C36.2153 27.884 36.8081 28.4808 36.8136 29.1915V29.1919Z" fill="#1C3444"/>
</g>
<defs>
<filter id="filter0_d_74_5706" x="0" y="0" width="64" height="64" filterUnits="userSpaceOnUse" color-interpolation-filters="sRGB">
<feFlood flood-opacity="0" result="BackgroundImageFix"/>
<feColorMatrix in="SourceAlpha" type="matrix" values="0 0 0 0 0 0 0 0 0 0 0 0 0 0 0 0 0 0 127 0" result="hardAlpha"/>
<feOffset dy="2"/>
<feGaussianBlur stdDeviation="2"/>
<feComposite in2="hardAlpha" operator="out"/>
<feColorMatrix type="matrix" values="0 0 0 0 0 0 0 0 0 0 0 0 0 0 0 0 0 0 0.08 0"/>
<feBlend mode="normal" in2="BackgroundImageFix" result="effect1_dropShadow_74_5706"/>
<feBlend mode="normal" in="SourceGraphic" in2="effect1_dropShadow_74_5706" result="shape"/>
</filter>
</defs>
</svg>
