<svg width="40" height="41" viewBox="0 0 40 41" fill="none" xmlns="http://www.w3.org/2000/svg">
<rect y="0.557617" width="40" height="40" rx="20" fill="#98499F"/>
<path d="M26.2498 29.0585C26.664 29.0584 27 29.3941 27 29.8083C27 30.2225 26.6644 30.5584 26.2502 30.5585L13.2502 30.5623C12.836 30.5624 12.5 30.2267 12.5 29.8125C12.5 29.3983 12.8356 29.0624 13.2498 29.0623L26.2498 29.0585ZM19.6482 10.5703L19.75 10.5635C20.1297 10.5635 20.4435 10.8456 20.4932 11.2117L20.5 11.3135L20.499 24.9985L24.2208 21.2781C24.4871 21.0119 24.9038 20.9877 25.1974 21.2056L25.2815 21.2782C25.5477 21.5445 25.5719 21.9612 25.354 22.2548L25.2814 22.3389L20.2837 27.3355C20.0176 27.6016 19.6012 27.6259 19.3076 27.4083L19.2235 27.3358L14.22 22.3392C13.9269 22.0465 13.9266 21.5716 14.2193 21.2785C14.4854 21.0121 14.902 20.9876 15.1958 21.2053L15.28 21.2778L18.999 24.9915L19 11.3135C19 10.9338 19.2822 10.62 19.6482 10.5703Z" fill="white"/>
</svg>
