<svg width="20" height="20" viewBox="0 0 20 20" fill="none" xmlns="http://www.w3.org/2000/svg">
<path d="M3.69362 10.1296L0.299331 1.40138C0.0631011 0.793911 0.655441 0.212971 1.2414 0.419471L1.33375 0.458731L19.3337 9.45868C19.852 9.71788 19.8844 10.4274 19.4309 10.7428L19.3337 10.8004L1.33375 19.8004C0.750771 20.0919 0.117461 19.5559 0.268801 18.9533L0.299331 18.8577L3.69362 10.1296ZM2.4021 2.66995L5.01109 9.37898L11.6387 9.37958C12.0184 9.37958 12.3322 9.66168 12.3818 10.0278L12.3887 10.1296C12.3887 10.5093 12.1065 10.8231 11.7404 10.8727L11.6387 10.8796L5.01109 10.879L2.4021 17.5892L17.3213 10.1296L2.4021 2.66995Z" fill="#212121"/>
</svg>
