<svg width="18" height="17" viewBox="0 0 18 17" fill="none" xmlns="http://www.w3.org/2000/svg">
<path d="M8.995 0.557617C11.5912 0.557617 14.1879 0.557617 16.7846 0.558128C17.3833 0.558128 17.8158 0.869999 17.9549 1.40529C17.9851 1.52084 17.9922 1.64508 17.9927 1.76522C17.9948 5.10122 17.9948 8.43773 17.9938 11.7737C17.9938 12.5314 17.5331 12.9905 16.7769 12.9905C11.5902 12.991 6.4034 12.991 1.21663 12.9905C0.468142 12.9905 0.000847089 12.5202 0.000847089 11.7671C-0.000175438 8.43108 -0.000175438 5.09457 0.000335826 1.75858C0.000335826 1.00344 0.44718 0.558128 1.20538 0.557617C3.80158 0.557617 6.39829 0.557617 8.995 0.557617ZM8.97659 11.2686C11.468 11.2722 13.4977 9.25012 13.5038 6.75822C13.51 4.26326 11.4905 2.22485 9.00522 2.21718C6.5077 2.209 4.4698 4.24025 4.46827 6.7388C4.46674 9.23325 6.48878 11.265 8.97608 11.2686H8.97659Z" fill="white"/>
<path d="M11.2059 15.7705C9.09494 15.7705 6.98393 15.7716 4.87292 15.768C4.73284 15.768 4.65206 15.7992 4.57486 15.9336C4.3136 16.3882 3.88363 16.5579 3.38259 16.5579C2.87388 16.5579 2.44289 16.3784 2.17498 15.9214C2.10545 15.8028 2.03592 15.7665 1.90759 15.768C1.4674 15.7746 1.02771 15.7695 0.58751 15.7705C0.434643 15.7705 0.305804 15.7322 0.260302 15.5671C0.20713 15.3748 0.330856 15.2266 0.556323 15.224C1.0093 15.2189 1.46177 15.2189 1.91475 15.224C2.0349 15.2255 2.12079 15.2087 2.1622 15.0783C2.18265 15.0139 2.2302 14.9561 2.27417 14.9019C2.80588 14.2429 4.18476 14.2552 4.60451 15.1131C4.66842 15.2434 4.75891 15.2214 4.85554 15.2214C7.62352 15.222 10.391 15.222 13.159 15.222C14.6197 15.222 16.0798 15.222 17.5405 15.222C17.6044 15.222 17.6688 15.2189 17.7312 15.2281C17.8774 15.2491 17.9643 15.3396 17.9649 15.4858C17.9654 15.6366 17.8871 15.7409 17.7287 15.7613C17.653 15.7711 17.5758 15.7695 17.4996 15.7695C15.4014 15.7695 13.3032 15.7695 11.2049 15.7695L11.2059 15.7705Z" fill="white"/>
<path d="M8.97656 11.2687C6.48875 11.2651 4.46722 9.23338 4.46875 6.73893C4.47028 4.23987 6.50767 2.20913 9.0057 2.21731C11.491 2.22549 13.5105 4.26339 13.5043 6.75835C13.4982 9.25025 11.4685 11.2728 8.97707 11.2687H8.97656ZM7.18867 6.74864C7.18867 7.20878 7.181 7.66891 7.19072 8.12854C7.2035 8.72928 7.8344 9.12295 8.34822 8.82999C9.13403 8.38111 9.91115 7.91534 10.6724 7.42658C11.177 7.10295 11.1459 6.39894 10.6351 6.08502C9.90195 5.6346 9.16624 5.18826 8.4244 4.75164C7.84207 4.4091 7.19276 4.78846 7.18867 5.46435C7.18612 5.89227 7.18867 6.32071 7.18867 6.74864Z" fill="#98499F"/>
<path d="M7.18842 6.74832C7.18842 6.3204 7.18638 5.89196 7.18842 5.46403C7.19251 4.78814 7.84182 4.40878 8.42415 4.75133C9.16548 5.18795 9.9017 5.63377 10.6349 6.0847C11.1456 6.39862 11.1763 7.10212 10.6722 7.42626C9.9109 7.91503 9.13378 8.3813 8.34797 8.82968C7.83415 9.12314 7.20325 8.72947 7.19047 8.12823C7.18075 7.6686 7.18842 7.20846 7.18842 6.74832Z" fill="white"/>
</svg>
