<svg width="274" height="108" viewBox="0 0 274 108" fill="none" xmlns="http://www.w3.org/2000/svg">
<mask id="path-1-outside-1_407_5" maskUnits="userSpaceOnUse" x="-5" y="10" width="66" height="52" fill="black">
<rect fill="white" x="-5" y="10" width="66" height="52"/>
<path d="M22.5625 21.2812L10.1875 59H0.21875L17.125 13.5H23.4688L22.5625 21.2812ZM32.8438 59L20.4375 21.2812L19.4375 13.5H25.8438L42.8438 59H32.8438ZM32.2812 42.0625V49.4062H8.25V42.0625H32.2812ZM57.0312 13.5V59H47.6875V13.5H57.0312Z"/>
</mask>
<path d="M22.5625 21.2812L25.413 22.2165L25.5073 21.9289L25.5424 21.6283L22.5625 21.2812ZM10.1875 59V62H12.3606L13.038 59.9352L10.1875 59ZM0.21875 59L-2.5934 57.9551L-4.09635 62H0.21875V59ZM17.125 13.5V10.5H15.0393L14.3129 12.4551L17.125 13.5ZM23.4688 13.5L26.4486 13.8471L26.8384 10.5H23.4688V13.5ZM32.8438 59L29.9939 59.9373L30.6724 62H32.8438V59ZM20.4375 21.2812L17.462 21.6636L17.4984 21.9471L17.5877 22.2186L20.4375 21.2812ZM19.4375 13.5V10.5H16.0273L16.462 13.8824L19.4375 13.5ZM25.8438 13.5L28.654 12.45L27.9254 10.5H25.8438V13.5ZM42.8438 59V62H47.1672L45.654 57.95L42.8438 59ZM32.2812 42.0625H35.2812V39.0625H32.2812V42.0625ZM32.2812 49.4062V52.4062H35.2812V49.4062H32.2812ZM8.25 49.4062H5.25V52.4062H8.25V49.4062ZM8.25 42.0625V39.0625H5.25V42.0625H8.25ZM19.712 20.346L7.33699 58.0648L13.038 59.9352L25.413 22.2165L19.712 20.346ZM10.1875 56H0.21875V62H10.1875V56ZM3.0309 60.0449L19.9371 14.5449L14.3129 12.4551L-2.5934 57.9551L3.0309 60.0449ZM17.125 16.5H23.4688V10.5H17.125V16.5ZM20.4889 13.1529L19.5826 20.9342L25.5424 21.6283L26.4486 13.8471L20.4889 13.1529ZM35.6936 58.0627L23.2873 20.3439L17.5877 22.2186L29.9939 59.9373L35.6936 58.0627ZM23.413 20.8989L22.413 13.1176L16.462 13.8824L17.462 21.6636L23.413 20.8989ZM19.4375 16.5H25.8438V10.5H19.4375V16.5ZM23.0335 14.55L40.0335 60.05L45.654 57.95L28.654 12.45L23.0335 14.55ZM42.8438 56H32.8438V62H42.8438V56ZM29.2812 42.0625V49.4062H35.2812V42.0625H29.2812ZM32.2812 46.4062H8.25V52.4062H32.2812V46.4062ZM11.25 49.4062V42.0625H5.25V49.4062H11.25ZM8.25 45.0625H32.2812V39.0625H8.25V45.0625ZM57.0312 13.5H60.0312V10.5H57.0312V13.5ZM57.0312 59V62H60.0312V59H57.0312ZM47.6875 59H44.6875V62H47.6875V59ZM47.6875 13.5V10.5H44.6875V13.5H47.6875ZM54.0312 13.5V59H60.0312V13.5H54.0312ZM57.0312 56H47.6875V62H57.0312V56ZM50.6875 59V13.5H44.6875V59H50.6875ZM47.6875 16.5H57.0312V10.5H47.6875V16.5Z" fill="url(#paint0_linear_407_5)" mask="url(#path-1-outside-1_407_5)"/>
<path d="M79.8281 84.6797H86.8359C86.6953 86.9766 86.0625 89.0156 84.9375 90.7969C83.8281 92.5781 82.2734 93.9688 80.2734 94.9688C78.2891 95.9688 75.8984 96.4688 73.1016 96.4688C70.9141 96.4688 68.9531 96.0938 67.2188 95.3438C65.4844 94.5781 64 93.4844 62.7656 92.0625C61.5469 90.6406 60.6172 88.9219 59.9766 86.9062C59.3359 84.8906 59.0156 82.6328 59.0156 80.1328V77.7656C59.0156 75.2656 59.3438 73.0078 60 70.9922C60.6719 68.9609 61.625 67.2344 62.8594 65.8125C64.1094 64.3906 65.6016 63.2969 67.3359 62.5312C69.0703 61.7656 71.0078 61.3828 73.1484 61.3828C75.9922 61.3828 78.3906 61.8984 80.3438 62.9297C82.3125 63.9609 83.8359 65.3828 84.9141 67.1953C86.0078 69.0078 86.6641 71.0703 86.8828 73.3828H79.8516C79.7734 72.0078 79.5 70.8438 79.0312 69.8906C78.5625 68.9219 77.8516 68.1953 76.8984 67.7109C75.9609 67.2109 74.7109 66.9609 73.1484 66.9609C71.9766 66.9609 70.9531 67.1797 70.0781 67.6172C69.2031 68.0547 68.4688 68.7188 67.875 69.6094C67.2812 70.5 66.8359 71.625 66.5391 72.9844C66.2578 74.3281 66.1172 75.9062 66.1172 77.7188V80.1328C66.1172 81.8984 66.25 83.4531 66.5156 84.7969C66.7812 86.125 67.1875 87.25 67.7344 88.1719C68.2969 89.0781 69.0156 89.7656 69.8906 90.2344C70.7812 90.6875 71.8516 90.9141 73.1016 90.9141C74.5703 90.9141 75.7812 90.6797 76.7344 90.2109C77.6875 89.7422 78.4141 89.0469 78.9141 88.125C79.4297 87.2031 79.7344 86.0547 79.8281 84.6797ZM114.211 75.7734V81.2578H96.3984V75.7734H114.211ZM98.4844 61.875V96H91.4531V61.875H98.4844ZM119.227 61.875V96H112.219V61.875H119.227ZM139.641 67.7109L130.359 96H122.883L135.562 61.875H140.32L139.641 67.7109ZM147.352 96L138.047 67.7109L137.297 61.875H142.102L154.852 96H147.352ZM146.93 83.2969V88.8047H128.906V83.2969H146.93ZM170.367 61.875V96H163.359V61.875H170.367ZM180.867 61.875V67.3828H153.023V61.875H180.867ZM198.234 81.0234H189.469L189.422 76.1953H196.781C198.078 76.1953 199.141 76.0312 199.969 75.7031C200.797 75.3594 201.414 74.8672 201.82 74.2266C202.242 73.5703 202.453 72.7734 202.453 71.8359C202.453 70.7734 202.25 69.9141 201.844 69.2578C201.453 68.6016 200.836 68.125 199.992 67.8281C199.164 67.5312 198.094 67.3828 196.781 67.3828H191.906V96H184.875V61.875H196.781C198.766 61.875 200.539 62.0625 202.102 62.4375C203.68 62.8125 205.016 63.3828 206.109 64.1484C207.203 64.9141 208.039 65.8828 208.617 67.0547C209.195 68.2109 209.484 69.5859 209.484 71.1797C209.484 72.5859 209.164 73.8828 208.523 75.0703C207.898 76.2578 206.906 77.2266 205.547 77.9766C204.203 78.7266 202.445 79.1406 200.273 79.2188L198.234 81.0234ZM197.93 96H187.547L190.289 90.5156H197.93C199.164 90.5156 200.172 90.3203 200.953 89.9297C201.734 89.5234 202.312 88.9766 202.688 88.2891C203.062 87.6016 203.25 86.8125 203.25 85.9219C203.25 84.9219 203.078 84.0547 202.734 83.3203C202.406 82.5859 201.875 82.0234 201.141 81.6328C200.406 81.2266 199.438 81.0234 198.234 81.0234H191.461L191.508 76.1953H199.945L201.562 78.0938C203.641 78.0625 205.312 78.4297 206.578 79.1953C207.859 79.9453 208.789 80.9219 209.367 82.125C209.961 83.3281 210.258 84.6172 210.258 85.9922C210.258 88.1797 209.781 90.0234 208.828 91.5234C207.875 93.0078 206.477 94.125 204.633 94.875C202.805 95.625 200.57 96 197.93 96ZM243.562 78.1406V79.7578C243.562 82.3516 243.211 84.6797 242.508 86.7422C241.805 88.8047 240.812 90.5625 239.531 92.0156C238.25 93.4531 236.719 94.5547 234.938 95.3203C233.172 96.0859 231.211 96.4688 229.055 96.4688C226.914 96.4688 224.953 96.0859 223.172 95.3203C221.406 94.5547 219.875 93.4531 218.578 92.0156C217.281 90.5625 216.273 88.8047 215.555 86.7422C214.852 84.6797 214.5 82.3516 214.5 79.7578V78.1406C214.5 75.5312 214.852 73.2031 215.555 71.1562C216.258 69.0938 217.25 67.3359 218.531 65.8828C219.828 64.4297 221.359 63.3203 223.125 62.5547C224.906 61.7891 226.867 61.4062 229.008 61.4062C231.164 61.4062 233.125 61.7891 234.891 62.5547C236.672 63.3203 238.203 64.4297 239.484 65.8828C240.781 67.3359 241.781 69.0938 242.484 71.1562C243.203 73.2031 243.562 75.5312 243.562 78.1406ZM236.461 79.7578V78.0938C236.461 76.2812 236.297 74.6875 235.969 73.3125C235.641 71.9375 235.156 70.7812 234.516 69.8438C233.875 68.9062 233.094 68.2031 232.172 67.7344C231.25 67.25 230.195 67.0078 229.008 67.0078C227.82 67.0078 226.766 67.25 225.844 67.7344C224.938 68.2031 224.164 68.9062 223.523 69.8438C222.898 70.7812 222.422 71.9375 222.094 73.3125C221.766 74.6875 221.602 76.2812 221.602 78.0938V79.7578C221.602 81.5547 221.766 83.1484 222.094 84.5391C222.422 85.9141 222.906 87.0781 223.547 88.0312C224.188 88.9688 224.969 89.6797 225.891 90.1641C226.812 90.6484 227.867 90.8906 229.055 90.8906C230.242 90.8906 231.297 90.6484 232.219 90.1641C233.141 89.6797 233.914 88.9688 234.539 88.0312C235.164 87.0781 235.641 85.9141 235.969 84.5391C236.297 83.1484 236.461 81.5547 236.461 79.7578ZM262.289 61.875V96H255.281V61.875H262.289ZM272.789 61.875V67.3828H244.945V61.875H272.789Z" fill="white"/>
<defs>
<linearGradient id="paint0_linear_407_5" x1="13.5" y1="21.5" x2="119.5" y2="123.5" gradientUnits="userSpaceOnUse">
<stop stop-color="#FBC300"/>
<stop offset="0.651157" stop-color="#FB5A00"/>
</linearGradient>
</defs>
</svg>
