<svg width="16" height="16" viewBox="0 0 16 16" fill="none" xmlns="http://www.w3.org/2000/svg">
<path d="M10.4987 1.9646C10.7488 1.71464 11.0878 1.57422 11.4414 1.57422C11.7949 1.57422 12.134 1.71464 12.3841 1.9646L14.0341 3.6146C14.1579 3.73842 14.2562 3.88543 14.3232 4.04723C14.3903 4.20903 14.4248 4.38246 14.4248 4.5576C14.4248 4.73274 14.3903 4.90617 14.3232 5.06797C14.2562 5.22977 14.1579 5.37678 14.0341 5.5006L6.10538 13.4293L1.85205 14.1466L2.57005 9.89327L10.4987 1.9646ZM10.3461 4.0026L11.9961 5.6526L13.0914 4.55727L11.4414 2.90793L10.3461 4.0026ZM11.0527 6.59593L9.40338 4.94593L3.81405 10.5353L3.47872 12.5199L5.46338 12.1853L11.0534 6.59527L11.0527 6.59593Z" fill="#030413"/>
</svg>
