<svg width="537" height="332" viewBox="0 0 537 332" fill="none" xmlns="http://www.w3.org/2000/svg">
<path d="M536.168 312.517C542.286 331.684 502.33 331.479 503.028 331.684L210.114 331.462C158.825 332.426 62.9799 332.687 19.0809 277.249C16.0269 273.393 13.4179 269.195 11.0989 264.855C-9.75911 225.714 -7.60711 157.872 74.2579 128.225C104.56 117.251 136.74 112.64 167.284 102.196C202.649 90.1098 236.281 73.5198 267.317 52.6718C360.055 -9.65616 410.062 -6.05517 450.455 10.0118C489.935 25.6988 517.452 62.0188 522.941 104.156C528.009 143.154 508.589 178.415 488.427 211.002C441.831 286.312 529.219 290.744 536.168 312.517Z" fill="#D2F1F7" fill-opacity="0.3"/>
<path d="M304.671 125.594H172.075V290.49H304.671V125.594Z" fill="white"/>
<path d="M296.545 331.687H180.051C175.605 331.687 172.001 328.082 172.001 323.636V290.338H304.597V323.636C304.596 328.081 300.992 331.687 296.545 331.687Z" fill="#1388E5"/>
<path d="M304.596 125.595H172V102.051C172 97.6044 175.604 94 180.051 94H296.545C300.991 94 304.595 97.6044 304.595 102.051V125.595H304.596Z" fill="#1388E5"/>
<path d="M183.924 102.034C183.924 104.448 181.966 106.405 179.552 106.405C177.138 106.405 175.18 104.447 175.18 102.034C175.18 99.6194 177.138 97.6621 179.552 97.6621C181.966 97.663 183.924 99.6203 183.924 102.034Z" fill="white"/>
<path d="M181.738 104.509C181.663 104.509 181.589 104.481 181.533 104.424L177.161 100.052C177.048 99.9387 177.048 99.7551 177.161 99.6417C177.275 99.5283 177.459 99.5283 177.572 99.6417L181.944 104.013C182.057 104.127 182.057 104.31 181.944 104.424C181.886 104.481 181.813 104.509 181.738 104.509Z" fill="#1388E5"/>
<path d="M177.366 104.509C177.292 104.509 177.218 104.481 177.161 104.424C177.048 104.31 177.048 104.127 177.161 104.013L181.533 99.6417C181.646 99.5283 181.83 99.5283 181.944 99.6417C182.057 99.7551 182.057 99.9387 181.944 100.052L177.572 104.424C177.515 104.481 177.441 104.509 177.366 104.509Z" fill="#1388E5"/>
<path d="M267.638 249.443H187.857C184.151 249.443 181.147 252.447 181.147 256.152V266.222V267.765C181.147 270.146 179.587 272.245 177.307 272.931H187.857H188.513H267.638C271.343 272.931 274.347 269.927 274.347 266.222V256.152C274.347 252.447 271.343 249.443 267.638 249.443Z" fill="#B1E4FA"/>
<path d="M280.585 221.074H187.126C183.677 221.074 180.881 224.078 180.881 227.784V233.094V234.637C180.881 237.018 179.429 239.117 177.308 239.804H187.126H187.738H280.586C284.034 239.804 286.83 236.8 286.83 233.094V227.784C286.829 224.077 284.033 221.074 280.585 221.074Z" fill="#B1E4FA"/>
<path d="M291.032 116.358C289.947 116.358 288.864 116.003 287.971 115.32C286.393 114.115 284.982 112.704 283.777 111.127C282.764 109.803 282.474 108.061 283.001 106.468C283.059 106.263 283.131 106.1 283.208 105.937C283.233 105.882 283.262 105.822 283.292 105.763C283.625 105.126 284.049 104.578 284.068 104.555C284.26 104.268 284.579 104.082 284.955 104.045C285.393 104.005 285.835 104.17 286.169 104.504L287.673 106.008C288.235 106.569 288.297 107.418 287.814 107.941L286.436 109.421C287.382 110.578 288.52 111.714 289.68 112.658L291.155 111.283C291.68 110.8 292.529 110.862 293.089 111.424L294.594 112.929C294.928 113.262 295.095 113.705 295.053 114.143C295.017 114.518 294.831 114.837 294.528 115.042C294.521 115.048 293.972 115.473 293.337 115.804C293.274 115.836 293.216 115.864 293.156 115.892C292.998 115.967 292.835 116.039 292.674 116.091L292.582 116.109C292.078 116.275 291.554 116.358 291.032 116.358ZM285.084 104.619C285.06 104.619 285.034 104.62 285.01 104.622C284.809 104.642 284.641 104.739 284.536 104.895C284.52 104.916 284.113 105.443 283.807 106.03C283.782 106.079 283.756 106.131 283.733 106.183C283.664 106.328 283.603 106.467 283.557 106.604C283.085 108.061 283.341 109.602 284.238 110.775C285.412 112.311 286.786 113.687 288.322 114.86C289.496 115.756 291.036 116.012 292.447 115.545L292.537 115.529C292.631 115.495 292.77 115.432 292.909 115.364L293.072 115.286C293.654 114.982 294.182 114.574 294.187 114.571C294.359 114.454 294.455 114.286 294.474 114.086C294.499 113.825 294.39 113.546 294.183 113.338L292.678 111.833C292.343 111.497 291.838 111.443 291.549 111.707L289.708 113.423L289.512 113.268C288.187 112.216 286.877 110.908 285.824 109.587L285.668 109.392L287.388 107.546C287.653 107.259 287.595 106.752 287.261 106.417L285.757 104.913C285.57 104.725 285.323 104.619 285.084 104.619Z" fill="white"/>
<path d="M292.571 109.292C292.41 109.292 292.281 109.162 292.281 109.002V103.53C292.281 103.37 292.41 103.24 292.571 103.24C292.731 103.24 292.861 103.37 292.861 103.53V109.002C292.861 109.162 292.731 109.292 292.571 109.292Z" fill="white"/>
<path d="M295.307 106.557H289.834C289.673 106.557 289.544 106.427 289.544 106.267C289.544 106.107 289.673 105.977 289.834 105.977H295.307C295.468 105.977 295.597 106.107 295.597 106.267C295.597 106.427 295.467 106.557 295.307 106.557Z" fill="white"/>
<path d="M290.271 319.754H186.959C182.131 319.754 178.217 315.841 178.217 311.012C178.217 306.183 182.131 302.27 186.959 302.27H290.271C295.1 302.27 299.014 306.183 299.014 311.012C299.014 315.841 295.1 319.754 290.271 319.754Z" fill="white"/>
<path d="M295.31 311.013C295.31 314.166 292.754 316.722 289.601 316.722C286.449 316.722 283.893 314.166 283.893 311.013C283.893 307.861 286.449 305.305 289.601 305.305C292.755 305.305 295.31 307.861 295.31 311.013Z" fill="white"/>
<path d="M289.602 317.302C286.135 317.302 283.314 314.48 283.314 311.013C283.314 307.546 286.135 304.725 289.602 304.725C293.07 304.725 295.891 307.546 295.891 311.013C295.891 314.48 293.07 317.302 289.602 317.302ZM289.602 305.884C286.774 305.884 284.474 308.184 284.474 311.012C284.474 313.841 286.774 316.141 289.602 316.141C292.431 316.141 294.731 313.841 294.731 311.012C294.731 308.185 292.43 305.884 289.602 305.884Z" fill="#F9773B"/>
<path d="M289.602 313.034C288.519 313.034 287.639 312.153 287.639 311.071V308.154C287.639 307.072 288.52 306.191 289.602 306.191C290.685 306.191 291.565 307.072 291.565 308.154V311.071C291.565 312.153 290.685 313.034 289.602 313.034ZM289.602 306.771C288.84 306.771 288.219 307.391 288.219 308.153V311.07C288.219 311.832 288.84 312.453 289.602 312.453C290.365 312.453 290.985 311.832 290.985 311.07V308.153C290.985 307.391 290.365 306.771 289.602 306.771Z" fill="#F9773B"/>
<path d="M289.602 314.42C287.914 314.42 286.54 313.047 286.54 311.358C286.54 311.198 286.669 311.068 286.83 311.068C286.991 311.068 287.12 311.198 287.12 311.358C287.12 312.728 288.233 313.84 289.602 313.84C290.971 313.84 292.084 312.727 292.084 311.358C292.084 311.198 292.213 311.068 292.374 311.068C292.535 311.068 292.664 311.198 292.664 311.358C292.664 313.047 291.29 314.42 289.602 314.42Z" fill="#F9773B"/>
<path d="M289.601 315.834C289.44 315.834 289.311 315.705 289.311 315.544V314.13C289.311 313.969 289.44 313.84 289.601 313.84C289.762 313.84 289.891 313.969 289.891 314.13V315.544C289.891 315.704 289.761 315.834 289.601 315.834Z" fill="#F9773B"/>
<path d="M281.825 227.379H186.464C186.309 227.379 186.184 227.254 186.184 227.1C186.184 226.945 186.31 226.82 186.464 226.82H281.825C281.98 226.82 282.105 226.946 282.105 227.1C282.105 227.254 281.98 227.379 281.825 227.379Z" fill="white"/>
<path d="M240.541 234.061H186.464C186.309 234.061 186.184 233.935 186.184 233.781C186.184 233.627 186.31 233.502 186.464 233.502H240.541C240.695 233.502 240.82 233.628 240.82 233.781C240.821 233.935 240.695 234.061 240.541 234.061Z" fill="white"/>
<path d="M268.076 255.127H187.144C186.984 255.127 186.854 254.998 186.854 254.837C186.854 254.676 186.984 254.547 187.144 254.547H268.076C268.236 254.547 268.366 254.676 268.366 254.837C268.366 254.998 268.236 255.127 268.076 255.127Z" fill="white"/>
<path d="M268.075 268.488H187.144C186.984 268.488 186.854 268.359 186.854 268.198C186.854 268.037 186.984 267.908 187.144 267.908H268.075C268.236 267.908 268.365 268.037 268.365 268.198C268.365 268.358 268.236 268.488 268.075 268.488Z" fill="white"/>
<path d="M245.245 261.807H187.145C186.985 261.807 186.854 261.677 186.854 261.517C186.854 261.356 186.985 261.227 187.145 261.227H245.245C245.405 261.227 245.535 261.357 245.535 261.517C245.535 261.677 245.405 261.807 245.245 261.807Z" fill="white"/>
<path d="M200.083 148.66H308.715C313.76 148.66 317.85 153.187 317.85 158.772V173.949V176.274C317.85 179.862 319.974 183.026 323.079 184.061H308.715H307.82H200.083C195.038 184.061 190.947 179.533 190.947 173.949V158.772C190.947 153.187 195.037 148.66 200.083 148.66Z" fill="#F9773B"/>
<path d="M309.684 157.203H199.485C199.255 157.203 199.069 157.016 199.069 156.787C199.069 156.557 199.255 156.371 199.485 156.371H309.684C309.913 156.371 310.1 156.557 310.1 156.787C310.1 157.016 309.913 157.203 309.684 157.203Z" fill="white"/>
<path d="M309.684 177.337H199.485C199.255 177.337 199.069 177.151 199.069 176.922C199.069 176.692 199.255 176.506 199.485 176.506H309.684C309.913 176.506 310.1 176.692 310.1 176.922C310.1 177.151 309.913 177.337 309.684 177.337Z" fill="white"/>
<path d="M309.683 167.271H230.571C230.341 167.271 230.155 167.085 230.155 166.855C230.155 166.626 230.341 166.439 230.571 166.439H309.683C309.913 166.439 310.099 166.626 310.099 166.855C310.099 167.085 309.913 167.271 309.683 167.271Z" fill="white"/>
<path d="M183.319 285.941C182.543 285.941 181.913 285.312 181.913 284.535C181.913 283.759 182.542 283.129 183.319 283.129C184.096 283.129 184.725 283.758 184.725 284.535C184.725 285.312 184.096 285.941 183.319 285.941Z" fill="#B1E4FA"/>
<path d="M188.91 285.941C188.134 285.941 187.503 285.312 187.503 284.535C187.503 283.759 188.133 283.129 188.91 283.129C189.687 283.129 190.316 283.758 190.316 284.535C190.316 285.312 189.687 285.941 188.91 285.941Z" fill="#B1E4FA"/>
<path d="M194.5 285.941C193.723 285.941 193.094 285.312 193.094 284.535C193.094 283.759 193.723 283.129 194.5 283.129C195.276 283.129 195.906 283.758 195.906 284.535C195.906 285.312 195.277 285.941 194.5 285.941Z" fill="#B1E4FA"/>
<path d="M185.782 314.961C185.622 314.961 185.492 314.832 185.492 314.671V306.987C185.492 306.826 185.622 306.697 185.782 306.697C185.942 306.697 186.072 306.826 186.072 306.987V314.671C186.072 314.831 185.942 314.961 185.782 314.961Z" fill="#F9773B"/>
<path d="M189.435 311.117H182.128C181.968 311.117 181.838 310.988 181.838 310.827C181.838 310.666 181.968 310.537 182.128 310.537H189.435C189.595 310.537 189.725 310.667 189.725 310.827C189.725 310.988 189.595 311.117 189.435 311.117Z" fill="#F9773B"/>
<path d="M345.146 219.291C345.047 220.58 344.623 225.333 343.325 231.059C342.252 235.784 340.593 241.185 338.023 245.856C334.695 251.933 329.844 256.776 322.811 257.317C322.396 257.353 321.99 257.371 321.594 257.371C305.552 257.371 300.097 232.384 299.871 231.293C299.357 228.859 300.917 226.469 303.351 225.955C305.786 225.441 308.175 227.001 308.69 229.435C309.78 234.521 314.578 248.913 322.117 248.326C326.102 248.02 329.087 244.16 331.269 239.21C332.658 236.062 333.714 232.474 334.489 229.074C335.435 224.899 335.968 221.022 336.157 218.605C336.346 216.125 338.511 214.25 340.99 214.457C343.478 214.647 345.336 216.811 345.146 219.291Z" fill="#1388E5"/>
<mask id="mask0_872_10" style="mask-type:luminance" maskUnits="userSpaceOnUse" x="299" y="214" width="47" height="44">
<path d="M321.594 257.369C305.554 257.369 300.097 232.388 299.867 231.299C299.353 228.863 300.912 226.47 303.348 225.956C305.789 225.445 308.176 227 308.69 229.436C309.777 234.526 314.575 248.913 322.119 248.332C331.75 247.592 335.574 226.082 336.154 218.605C336.345 216.124 338.509 214.253 340.995 214.456C343.477 214.647 345.335 216.811 345.145 219.293C344.859 223.032 341.811 255.864 322.81 257.322C322.398 257.354 321.993 257.369 321.594 257.369Z" fill="white"/>
</mask>
<g mask="url(#mask0_872_10)">
<path d="M300.778 239.149C299.76 239.149 298.764 239.04 297.814 238.819C294.898 238.143 292.753 236.499 291.775 234.193C291.719 234.063 291.781 233.912 291.911 233.855C292.039 233.8 292.192 233.862 292.248 233.992C293.161 236.143 295.179 237.68 297.931 238.319C300.712 238.962 303.902 238.616 306.914 237.337C313.104 234.711 316.597 228.936 314.699 224.465C314.644 224.335 314.705 224.184 314.835 224.128C314.965 224.072 315.117 224.134 315.173 224.264C317.18 228.996 313.565 235.072 307.114 237.81C305.027 238.696 302.854 239.149 300.778 239.149Z" fill="#2C2A2B"/>
</g>
<mask id="mask1_872_10" style="mask-type:luminance" maskUnits="userSpaceOnUse" x="299" y="214" width="47" height="44">
<path d="M321.594 257.369C305.554 257.369 300.097 232.388 299.867 231.299C299.353 228.863 300.912 226.47 303.348 225.956C305.789 225.445 308.176 227 308.69 229.436C309.777 234.526 314.575 248.913 322.119 248.332C331.75 247.592 335.574 226.082 336.154 218.605C336.345 216.124 338.509 214.253 340.995 214.456C343.477 214.647 345.335 216.811 345.145 219.293C344.859 223.032 341.811 255.864 322.81 257.322C322.398 257.354 321.993 257.369 321.594 257.369Z" fill="white"/>
</mask>
<g mask="url(#mask1_872_10)">
<path d="M305.713 250.219C304.694 250.219 303.699 250.11 302.749 249.89C299.833 249.213 297.688 247.57 296.709 245.264C296.654 245.134 296.715 244.983 296.845 244.927C296.975 244.873 297.127 244.933 297.183 245.063C298.095 247.214 300.113 248.75 302.865 249.389C305.647 250.035 308.837 249.685 311.849 248.407C318.038 245.781 321.531 240.007 319.633 235.536C319.578 235.406 319.64 235.254 319.77 235.198C319.898 235.143 320.05 235.204 320.107 235.334C322.114 240.066 318.5 246.142 312.049 248.88C309.962 249.767 307.789 250.219 305.713 250.219Z" fill="#2C2A2B"/>
</g>
<mask id="mask2_872_10" style="mask-type:luminance" maskUnits="userSpaceOnUse" x="299" y="214" width="47" height="44">
<path d="M321.594 257.369C305.554 257.369 300.097 232.388 299.867 231.299C299.353 228.863 300.912 226.47 303.348 225.956C305.789 225.445 308.176 227 308.69 229.436C309.777 234.526 314.575 248.913 322.119 248.332C331.75 247.592 335.574 226.082 336.154 218.605C336.345 216.124 338.509 214.253 340.995 214.456C343.477 214.647 345.335 216.811 345.145 219.293C344.859 223.032 341.811 255.864 322.81 257.322C322.398 257.354 321.993 257.369 321.594 257.369Z" fill="white"/>
</mask>
<g mask="url(#mask2_872_10)">
<path d="M317.212 263.74C317.07 263.74 316.955 263.625 316.955 263.484C316.955 263.342 317.07 263.227 317.212 263.227C322.068 263.227 326.02 257.756 326.02 251.032C326.02 244.309 322.069 238.837 317.212 238.837C317.07 238.837 316.955 238.722 316.955 238.581C316.955 238.439 317.07 238.324 317.212 238.324C322.352 238.324 326.532 244.025 326.532 251.032C326.532 258.04 322.351 263.74 317.212 263.74Z" fill="#2C2A2B"/>
</g>
<mask id="mask3_872_10" style="mask-type:luminance" maskUnits="userSpaceOnUse" x="299" y="214" width="47" height="44">
<path d="M321.594 257.369C305.554 257.369 300.097 232.388 299.867 231.299C299.353 228.863 300.912 226.47 303.348 225.956C305.789 225.445 308.176 227 308.69 229.436C309.777 234.526 314.575 248.913 322.119 248.332C331.75 247.592 335.574 226.082 336.154 218.605C336.345 216.124 338.509 214.253 340.995 214.456C343.477 214.647 345.335 216.811 345.145 219.293C344.859 223.032 341.811 255.864 322.81 257.322C322.398 257.354 321.993 257.369 321.594 257.369Z" fill="white"/>
</mask>
<g mask="url(#mask3_872_10)">
<path d="M337.823 259.777C337.743 259.777 337.664 259.74 337.614 259.67C337.532 259.554 337.559 259.393 337.674 259.311C341.628 256.493 341.669 249.745 337.765 244.27C335.866 241.606 333.329 239.64 330.62 238.736C327.942 237.843 325.417 238.097 323.515 239.454C323.398 239.534 323.239 239.509 323.156 239.394C323.074 239.278 323.101 239.118 323.216 239.035C325.258 237.581 327.944 237.302 330.782 238.249C333.593 239.186 336.222 241.219 338.184 243.971C342.251 249.677 342.156 256.747 337.972 259.731C337.927 259.761 337.874 259.777 337.823 259.777Z" fill="#2C2A2B"/>
</g>
<mask id="mask4_872_10" style="mask-type:luminance" maskUnits="userSpaceOnUse" x="299" y="214" width="47" height="44">
<path d="M321.594 257.369C305.554 257.369 300.097 232.388 299.867 231.299C299.353 228.863 300.912 226.47 303.348 225.956C305.789 225.445 308.176 227 308.69 229.436C309.777 234.526 314.575 248.913 322.119 248.332C331.75 247.592 335.574 226.082 336.154 218.605C336.345 216.124 338.509 214.253 340.995 214.456C343.477 214.647 345.335 216.811 345.145 219.293C344.859 223.032 341.811 255.864 322.81 257.322C322.398 257.354 321.993 257.369 321.594 257.369Z" fill="white"/>
</mask>
<g mask="url(#mask4_872_10)">
<path d="M343.326 231.062C342.252 235.787 340.593 241.189 338.023 245.859C335.769 242.288 333.262 240.304 331.269 239.214C332.657 236.066 333.713 232.478 334.488 229.078L341.468 229.168L343.326 231.062Z" fill="#2C2A2B"/>
</g>
<path d="M355.792 184.513C354.62 186.722 352.456 188.454 349.732 189.085C348.911 189.274 348.091 189.355 347.289 189.328C343.366 189.22 339.912 186.65 339.029 182.863C337.965 178.291 341.031 173.674 345.882 172.547C350.733 171.42 355.53 174.207 356.595 178.779C357.063 180.779 356.73 182.79 355.792 184.513Z" fill="#5AC7E0"/>
<mask id="mask5_872_10" style="mask-type:luminance" maskUnits="userSpaceOnUse" x="338" y="172" width="19" height="18">
<path d="M356.592 178.773C357.655 183.34 354.585 187.957 349.734 189.086C344.884 190.214 340.09 187.426 339.028 182.859C337.965 178.291 341.035 173.673 345.886 172.546C350.736 171.417 355.53 174.205 356.592 178.773Z" fill="white"/>
</mask>
<g mask="url(#mask5_872_10)">
<path d="M340.173 191.376C340.065 191.376 339.969 191.299 339.951 191.19C339.93 191.067 340.011 190.951 340.134 190.929C342.239 190.562 343.288 186.45 342.471 181.762C341.655 177.073 339.283 173.561 337.175 173.923C337.051 173.943 336.935 173.862 336.914 173.739C336.892 173.616 336.975 173.5 337.098 173.478C339.49 173.073 342.043 176.668 342.916 181.685C343.789 186.701 342.602 190.957 340.212 191.374C340.199 191.375 340.185 191.376 340.173 191.376Z" fill="#2C2A2B"/>
</g>
<path d="M355.792 184.512C354.619 186.721 352.456 188.453 349.732 189.084C348.911 189.273 348.091 189.354 347.289 189.327C351.265 184.755 350.805 176.351 350.724 175.846L355.792 184.512Z" fill="#2C2A2B"/>
<path d="M422.867 182.861C421.911 186.991 417.889 189.669 413.534 189.3C413.083 189.263 412.624 189.191 412.164 189.083C408.692 188.281 406.131 185.675 405.347 182.591C405.031 181.374 405.004 180.075 405.302 178.776C406.366 174.204 411.163 171.418 416.015 172.545C420.866 173.672 423.931 178.29 422.867 182.861Z" fill="#5AC7E0"/>
<path d="M413.534 189.301C413.083 189.265 412.624 189.193 412.164 189.085C408.692 188.282 406.131 185.676 405.346 182.592L410.676 175.848C410.612 176.442 409.657 184.35 413.534 189.301Z" fill="#2C2A2B"/>
<mask id="mask6_872_10" style="mask-type:luminance" maskUnits="userSpaceOnUse" x="405" y="172" width="19" height="18">
<path d="M405.305 178.773C404.243 183.34 407.313 187.957 412.163 189.086C417.014 190.214 421.807 187.426 422.87 182.859C423.933 178.291 420.862 173.673 416.012 172.546C411.161 171.417 406.368 174.205 405.305 178.773Z" fill="white"/>
</mask>
<g mask="url(#mask6_872_10)">
<path d="M421.724 191.377C421.711 191.377 421.698 191.376 421.685 191.374C419.296 190.958 418.109 186.702 418.982 181.685C419.855 176.669 422.417 173.069 424.799 173.479C424.922 173.5 425.004 173.617 424.983 173.74C424.962 173.862 424.84 173.944 424.722 173.924C422.619 173.561 420.241 177.076 419.426 181.763C418.61 186.451 419.658 190.563 421.762 190.93C421.886 190.951 421.967 191.068 421.946 191.191C421.927 191.3 421.832 191.377 421.724 191.377Z" fill="#2C2A2B"/>
</g>
<path d="M398.714 201.177H362.893C358.07 201.177 353.953 197.693 353.157 192.936L349.202 169.327C348.365 164.326 352.219 159.771 357.29 159.771H404.317C409.388 159.771 413.242 164.327 412.405 169.327L408.45 192.936C407.653 197.692 403.537 201.177 398.714 201.177Z" fill="#5AC7E0"/>
<path d="M380.16 163.086C380.072 163.086 379.983 163.064 379.901 163.017C379.2 162.614 379.032 159.306 379.097 157.625C379.21 154.757 380.008 149.655 384.097 147.711C384.354 147.588 384.665 147.697 384.79 147.957C384.914 148.216 384.803 148.526 384.544 148.649C382.825 149.467 381.581 151.043 380.847 153.334C379.618 157.166 380.265 161.604 380.539 162.209C380.692 162.372 380.728 162.621 380.611 162.825C380.515 162.992 380.34 163.086 380.16 163.086Z" fill="#5AC7E0"/>
<path d="M390.378 144.751C391.323 146.387 390.439 148.666 388.404 149.841C386.369 151.016 383.953 150.641 383.009 149.005C382.065 147.368 382.949 145.089 384.983 143.915C387.018 142.741 389.434 143.114 390.378 144.751Z" fill="#5AC7E0"/>
<path d="M361.387 201.401C361.276 201.401 361.179 201.32 361.163 201.207L355.405 159.943C355.387 159.82 355.473 159.706 355.597 159.689C355.716 159.668 355.835 159.758 355.851 159.88L361.61 201.144C361.628 201.268 361.541 201.381 361.417 201.399C361.408 201.401 361.397 201.401 361.387 201.401Z" fill="#2C2A2B"/>
<path d="M399.937 201.4C399.927 201.4 399.917 201.4 399.906 201.399C399.783 201.381 399.697 201.268 399.714 201.144L405.473 159.88C405.49 159.757 405.607 159.668 405.727 159.689C405.85 159.706 405.936 159.82 405.919 159.944L400.16 201.207C400.145 201.319 400.048 201.4 399.937 201.4Z" fill="#2C2A2B"/>
<path d="M405.837 175.981C405.837 183.965 400.166 195.271 380.592 195.271C362.132 195.271 355.771 183.965 355.771 175.981C355.771 167.997 367.491 166.359 380.592 166.359C393.695 166.359 405.837 167.998 405.837 175.981Z" fill="white"/>
<path d="M372.45 179.125C372.45 182.267 369.902 184.814 366.76 184.814C363.618 184.814 361.071 182.267 361.071 179.125C361.071 175.983 363.618 173.436 366.76 173.436C369.902 173.436 372.45 175.983 372.45 179.125Z" fill="#2C2A2B"/>
<path d="M400.537 179.125C400.537 182.267 397.99 184.814 394.848 184.814C391.706 184.814 389.159 182.267 389.159 179.125C389.159 175.983 391.706 173.436 394.848 173.436C397.99 173.436 400.537 175.983 400.537 179.125Z" fill="#2C2A2B"/>
<path d="M429.107 227.661L428.44 230.591C425.438 243.621 419.73 255.921 411.38 266.363C391.172 291.63 368.214 291.819 347.582 263.973C340.287 254.135 335.273 242.792 332.532 230.861L331.793 227.661C329.502 217.688 338.475 208.408 350.423 208.408H410.478C422.425 208.408 431.407 217.687 429.107 227.661Z" fill="#5AC7E0"/>
<mask id="mask7_872_10" style="mask-type:luminance" maskUnits="userSpaceOnUse" x="331" y="208" width="99" height="78">
<path d="M347.582 263.973C340.291 254.132 335.276 242.794 332.529 230.858L331.794 227.663C329.499 217.687 338.477 208.408 350.427 208.408H410.479C422.428 208.408 431.407 217.687 429.111 227.663L428.438 230.587C425.439 243.618 419.73 255.922 411.38 266.366C391.175 291.631 368.214 291.822 347.582 263.973Z" fill="white"/>
</mask>
<g mask="url(#mask7_872_10)">
<path d="M431.72 227.965C433.065 233.742 430.285 239.327 425.512 240.437C420.738 241.548 415.779 237.764 414.435 231.986C413.09 226.208 415.87 220.624 420.643 219.514C425.417 218.403 430.376 222.187 431.72 227.965Z" fill="#2C2A2B"/>
</g>
<mask id="mask8_872_10" style="mask-type:luminance" maskUnits="userSpaceOnUse" x="331" y="208" width="99" height="78">
<path d="M347.582 263.973C340.291 254.132 335.276 242.794 332.529 230.858L331.794 227.663C329.499 217.687 338.477 208.408 350.427 208.408H410.479C422.428 208.408 431.407 217.687 429.111 227.663L428.438 230.587C425.439 243.618 419.73 255.922 411.38 266.366C391.175 291.631 368.214 291.822 347.582 263.973Z" fill="white"/>
</mask>
<g mask="url(#mask8_872_10)">
<path d="M422.158 244.193C415.592 244.193 409.621 238.102 408.475 229.885C407.244 221.058 412.037 213.068 419.161 212.074C426.277 211.095 433.082 217.453 434.313 226.28H434.314C435.544 235.107 430.751 243.097 423.627 244.091C423.135 244.158 422.646 244.193 422.158 244.193ZM420.632 212.486C420.168 212.486 419.7 212.518 419.231 212.583C412.389 213.538 407.79 221.267 408.983 229.814C410.176 238.359 416.706 244.535 423.557 243.581C430.399 242.626 434.997 234.896 433.805 226.35C432.693 218.391 426.944 212.486 420.632 212.486Z" fill="#2C2A2B"/>
</g>
<mask id="mask9_872_10" style="mask-type:luminance" maskUnits="userSpaceOnUse" x="331" y="208" width="99" height="78">
<path d="M347.582 263.973C340.291 254.132 335.276 242.794 332.529 230.858L331.794 227.663C329.499 217.687 338.477 208.408 350.427 208.408H410.479C422.428 208.408 431.407 217.687 429.111 227.663L428.438 230.587C425.439 243.618 419.73 255.922 411.38 266.366C391.175 291.631 368.214 291.822 347.582 263.973Z" fill="white"/>
</mask>
<g mask="url(#mask9_872_10)">
<path d="M327.604 240.863C326.429 240.863 325.257 240.676 324.115 240.283C317.314 237.941 314.14 229.18 317.042 220.754C318.445 216.681 321.041 213.29 324.351 211.204C327.681 209.107 331.333 208.58 334.637 209.718C341.438 212.059 344.611 220.82 341.711 229.246C339.297 236.258 333.426 240.863 327.604 240.863ZM331.123 209.645C328.948 209.645 326.722 210.319 324.626 211.639C321.413 213.663 318.893 216.958 317.528 220.921C314.72 229.079 317.749 237.548 324.282 239.797C330.814 242.044 338.416 237.238 341.225 229.079C344.034 220.921 341.004 212.453 334.471 210.203C333.387 209.83 332.262 209.645 331.123 209.645Z" fill="#2C2A2B"/>
</g>
<mask id="mask10_872_10" style="mask-type:luminance" maskUnits="userSpaceOnUse" x="331" y="208" width="99" height="78">
<path d="M347.582 263.973C340.291 254.132 335.276 242.794 332.529 230.858L331.794 227.663C329.499 217.687 338.477 208.408 350.427 208.408H410.479C422.428 208.408 431.407 217.687 429.111 227.663L428.438 230.587C425.439 243.618 419.73 255.922 411.38 266.366C391.175 291.631 368.214 291.822 347.582 263.973Z" fill="white"/>
</mask>
<g mask="url(#mask10_872_10)">
<path d="M380.141 294.395C366.242 294.395 354.933 290.223 354.933 285.094C354.933 279.965 366.241 275.793 380.141 275.793C394.04 275.793 405.349 279.965 405.349 285.094C405.349 290.223 394.041 294.395 380.141 294.395ZM380.141 276.306C366.525 276.306 355.446 280.248 355.446 285.094C355.446 289.94 366.524 293.882 380.141 293.882C393.757 293.882 404.836 289.94 404.836 285.094C404.836 280.248 393.757 276.306 380.141 276.306Z" fill="#2C2A2B"/>
</g>
<path d="M415.223 266.507C408.302 266.507 400.002 264.05 390.032 259.121C387.8 258.018 386.885 255.313 387.988 253.081C389.092 250.848 391.796 249.935 394.027 251.037C415.767 261.786 421.911 256.359 424.226 254.317C427.784 251.175 426.235 245.986 422.122 235.702C420.7 232.151 419.232 228.479 418.123 224.647C417.43 222.255 418.809 219.755 421.2 219.062C423.594 218.374 426.093 219.749 426.784 222.14C427.769 225.543 429.154 229.005 430.493 232.353C434.437 242.211 438.907 253.382 430.192 261.077C426.097 264.694 421.168 266.507 415.223 266.507Z" fill="#1388E5"/>
<path d="M409.441 208.408C409.441 209.355 396.619 210.112 380.802 210.112C364.985 210.112 352.172 209.355 352.172 208.408H409.441Z" fill="#2C2A2B"/>
<mask id="mask11_872_10" style="mask-type:luminance" maskUnits="userSpaceOnUse" x="387" y="218" width="49" height="49">
<path d="M415.223 266.507C408.302 266.507 400.002 264.05 390.032 259.121C387.8 258.018 386.885 255.313 387.988 253.081C389.092 250.848 391.796 249.935 394.027 251.037C415.767 261.786 421.911 256.359 424.226 254.317C427.784 251.175 426.235 245.986 422.122 235.702C420.7 232.151 419.232 228.479 418.123 224.647C417.43 222.255 418.809 219.755 421.2 219.062C423.594 218.374 426.093 219.749 426.784 222.14C427.769 225.543 429.154 229.005 430.493 232.353C434.437 242.211 438.907 253.382 430.192 261.077C426.097 264.694 421.168 266.507 415.223 266.507Z" fill="white"/>
</mask>
<g mask="url(#mask11_872_10)">
<path d="M392.964 268.781C392.641 268.781 392.317 268.759 391.994 268.713C391.853 268.694 391.756 268.564 391.775 268.424C391.794 268.284 391.916 268.185 392.064 268.205C394.382 268.523 396.735 267.586 398.696 265.554C400.68 263.5 402.021 260.585 402.474 257.344C403.403 250.684 400.245 244.72 395.436 244.048C395.295 244.03 395.197 243.899 395.216 243.759C395.235 243.619 395.359 243.517 395.506 243.54C400.597 244.25 403.95 250.475 402.983 257.415C402.515 260.762 401.125 263.78 399.067 265.911C397.259 267.785 395.123 268.781 392.964 268.781Z" fill="#2C2A2B"/>
</g>
<mask id="mask12_872_10" style="mask-type:luminance" maskUnits="userSpaceOnUse" x="387" y="218" width="49" height="49">
<path d="M415.223 266.507C408.302 266.507 400.002 264.05 390.032 259.121C387.8 258.018 386.885 255.313 387.988 253.081C389.092 250.848 391.796 249.935 394.027 251.037C415.767 261.786 421.911 256.359 424.226 254.317C427.784 251.175 426.235 245.986 422.122 235.702C420.7 232.151 419.232 228.479 418.123 224.647C417.43 222.255 418.809 219.755 421.2 219.062C423.594 218.374 426.093 219.749 426.784 222.14C427.769 225.543 429.154 229.005 430.493 232.353C434.437 242.211 438.907 253.382 430.192 261.077C426.097 264.694 421.168 266.507 415.223 266.507Z" fill="white"/>
</mask>
<g mask="url(#mask12_872_10)">
<path d="M409.575 273.196C409.258 273.196 408.938 273.174 408.619 273.129C408.479 273.11 408.38 272.98 408.401 272.84C408.42 272.7 408.542 272.601 408.69 272.621C413.501 273.294 418.169 268.421 419.099 261.761C420.028 255.102 416.871 249.138 412.061 248.465C411.921 248.447 411.823 248.316 411.842 248.176C411.861 248.036 411.986 247.939 412.132 247.957C417.222 248.668 420.575 254.893 419.608 261.832C418.7 268.336 414.313 273.196 409.575 273.196Z" fill="#2C2A2B"/>
</g>
<mask id="mask13_872_10" style="mask-type:luminance" maskUnits="userSpaceOnUse" x="387" y="218" width="49" height="49">
<path d="M415.223 266.507C408.302 266.507 400.002 264.05 390.032 259.121C387.8 258.018 386.885 255.313 387.988 253.081C389.092 250.848 391.796 249.935 394.027 251.037C415.767 261.786 421.911 256.359 424.226 254.317C427.784 251.175 426.235 245.986 422.122 235.702C420.7 232.151 419.232 228.479 418.123 224.647C417.43 222.255 418.809 219.755 421.2 219.062C423.594 218.374 426.093 219.749 426.784 222.14C427.769 225.543 429.154 229.005 430.493 232.353C434.437 242.211 438.907 253.382 430.192 261.077C426.097 264.694 421.168 266.507 415.223 266.507Z" fill="white"/>
</mask>
<g mask="url(#mask13_872_10)">
<path d="M440.174 256.27C440.168 256.27 440.162 256.27 440.156 256.27C440.014 256.259 439.908 256.137 439.918 255.995C440.262 251.15 435.085 246.822 428.378 246.345C421.678 245.868 415.935 249.423 415.591 254.268C415.58 254.409 415.46 254.512 415.315 254.506C415.174 254.495 415.068 254.373 415.077 254.231C415.441 249.103 421.423 245.334 428.414 245.831C435.404 246.328 440.795 250.903 440.431 256.03C440.42 256.167 440.308 256.27 440.174 256.27Z" fill="#2C2A2B"/>
</g>
<mask id="mask14_872_10" style="mask-type:luminance" maskUnits="userSpaceOnUse" x="387" y="218" width="49" height="49">
<path d="M415.223 266.507C408.302 266.507 400.002 264.05 390.032 259.121C387.8 258.018 386.885 255.313 387.988 253.081C389.092 250.848 391.796 249.935 394.027 251.037C415.767 261.786 421.911 256.359 424.226 254.317C427.784 251.175 426.235 245.986 422.122 235.702C420.7 232.151 419.232 228.479 418.123 224.647C417.43 222.255 418.809 219.755 421.2 219.062C423.594 218.374 426.093 219.749 426.784 222.14C427.769 225.543 429.154 229.005 430.493 232.353C434.437 242.211 438.907 253.382 430.192 261.077C426.097 264.694 421.168 266.507 415.223 266.507Z" fill="white"/>
</mask>
<g mask="url(#mask14_872_10)">
<path d="M414.205 239.145C414.072 239.145 413.959 239.043 413.949 238.908C413.558 233.783 418.924 229.179 425.91 228.646C429.28 228.386 432.525 229.104 435.046 230.66C437.593 232.232 439.101 234.474 439.292 236.972C439.303 237.114 439.197 237.238 439.056 237.248C438.893 237.266 438.79 237.153 438.781 237.012C438.602 234.682 437.181 232.581 434.777 231.098C432.347 229.598 429.207 228.908 425.951 229.159C419.246 229.671 414.093 234.026 414.463 238.869C414.473 239.011 414.368 239.135 414.225 239.145C414.218 239.145 414.211 239.145 414.205 239.145Z" fill="#2C2A2B"/>
</g>
<path d="M394.752 243.828H364.447C361.969 243.828 359.854 242.041 359.438 239.599L357.394 227.594C356.866 224.491 359.257 221.66 362.403 221.66H396.796C399.944 221.66 402.334 224.491 401.805 227.594L399.762 239.599C399.346 242.042 397.23 243.828 394.752 243.828Z" fill="#F9773B"/>
<path d="M394.752 244.053H364.448C361.851 244.053 359.652 242.196 359.216 239.637L357.173 227.631C356.909 226.086 357.338 224.515 358.349 223.318C359.359 222.121 360.837 221.434 362.404 221.434H396.796C398.364 221.434 399.842 222.12 400.852 223.318C401.862 224.515 402.291 226.086 402.028 227.631L399.984 239.637C399.548 242.196 397.348 244.053 394.752 244.053ZM362.404 221.884C360.97 221.884 359.617 222.513 358.693 223.608C357.768 224.703 357.376 226.142 357.617 227.554L359.66 239.56C360.058 241.901 362.071 243.601 364.447 243.601H394.751C397.127 243.601 399.14 241.901 399.538 239.56L401.581 227.554C401.822 226.142 401.43 224.703 400.505 223.608C399.581 222.513 398.228 221.884 396.794 221.884H362.404Z" fill="white"/>
<path d="M396.693 229.76H392.386C392.261 229.76 392.16 229.659 392.16 229.534C392.16 229.41 392.261 229.309 392.386 229.309H396.693C396.818 229.309 396.919 229.41 396.919 229.534C396.919 229.659 396.818 229.76 396.693 229.76Z" fill="white"/>
<path d="M390.054 229.76H377.443C377.319 229.76 377.218 229.659 377.218 229.534C377.218 229.41 377.319 229.309 377.443 229.309H390.054C390.179 229.309 390.28 229.41 390.28 229.534C390.279 229.659 390.178 229.76 390.054 229.76Z" fill="white"/>
<path d="M372.488 229.76H362.508C362.383 229.76 362.282 229.659 362.282 229.534C362.282 229.41 362.383 229.309 362.508 229.309H372.488C372.613 229.309 372.714 229.41 372.714 229.534C372.714 229.659 372.613 229.76 372.488 229.76Z" fill="white"/>
<path d="M396.693 236.176H385.899C385.774 236.176 385.673 236.075 385.673 235.95C385.673 235.826 385.774 235.725 385.899 235.725H396.693C396.818 235.725 396.919 235.826 396.919 235.95C396.919 236.075 396.818 236.176 396.693 236.176Z" fill="white"/>
<path d="M382.108 236.176H369.133C369.008 236.176 368.907 236.075 368.907 235.95C368.907 235.826 369.008 235.725 369.133 235.725H382.108C382.233 235.725 382.334 235.826 382.334 235.95C382.334 236.075 382.233 236.176 382.108 236.176Z" fill="white"/>
<path d="M366.364 236.176H362.507C362.382 236.176 362.281 236.075 362.281 235.95C362.281 235.826 362.382 235.725 362.507 235.725H366.364C366.489 235.725 366.59 235.826 366.59 235.95C366.59 236.075 366.489 236.176 366.364 236.176Z" fill="white"/>
<path d="M382.49 187.274C382.49 188.204 381.736 188.958 380.806 188.958C379.876 188.958 379.122 188.204 379.122 187.274C379.122 186.344 379.876 185.59 380.806 185.59C381.736 185.59 382.49 186.344 382.49 187.274Z" fill="#1388E5"/>
<path d="M379.601 314.748C369.777 314.748 359.337 313.337 359.337 310.72C359.337 308.104 369.777 306.693 379.601 306.693C389.424 306.693 399.865 308.104 399.865 310.72C399.865 313.337 389.424 314.748 379.601 314.748ZM379.601 307.353C368.047 307.353 359.996 309.128 359.996 310.72C359.996 312.313 368.047 314.089 379.601 314.089C391.155 314.089 399.206 312.313 399.206 310.72C399.206 309.128 391.154 307.353 379.601 307.353Z" fill="white"/>
<path d="M379.601 301.406C361.57 301.406 342.408 299.576 342.408 296.183C342.408 292.79 361.571 290.959 379.601 290.959C397.631 290.959 416.793 292.79 416.793 296.183C416.793 299.576 397.631 301.406 379.601 301.406ZM379.601 291.617C358.071 291.617 343.067 294.023 343.067 296.182C343.067 298.341 358.071 300.746 379.601 300.746C401.13 300.746 416.134 298.341 416.134 296.182C416.134 294.023 401.13 291.617 379.601 291.617Z" fill="white"/>
<path d="M363.789 178.227C363.789 178.724 363.386 179.126 362.89 179.126C362.393 179.126 361.99 178.724 361.99 178.227C361.99 177.731 362.393 177.328 362.89 177.328C363.386 177.328 363.789 177.731 363.789 178.227Z" fill="white"/>
<path d="M392.794 178.227C392.794 178.724 392.391 179.126 391.895 179.126C391.398 179.126 390.996 178.724 390.996 178.227C390.996 177.731 391.398 177.328 391.895 177.328C392.391 177.328 392.794 177.731 392.794 178.227Z" fill="white"/>
<path d="M221.238 38.0977C220.6 38.0977 220.005 38.0293 219.451 37.8926C218.904 37.7493 218.465 37.5801 218.133 37.3848C217.807 37.1829 217.645 37.0007 217.645 36.8379C217.645 36.7467 217.68 36.6263 217.752 36.4766C217.83 36.3268 217.918 36.1934 218.016 36.0762C218.113 35.959 218.191 35.9004 218.25 35.9004C218.302 35.9004 218.416 35.9525 218.592 36.0566C218.995 36.265 219.396 36.4375 219.793 36.5742C220.19 36.7109 220.672 36.7793 221.238 36.7793C221.681 36.7793 222.075 36.6947 222.42 36.5254C222.765 36.3561 223.032 36.1185 223.221 35.8125C223.416 35.5 223.514 35.1419 223.514 34.7383C223.514 34.3086 223.396 33.9538 223.162 33.6738C222.934 33.3874 222.654 33.1628 222.322 33C221.997 32.8307 221.521 32.6224 220.896 32.375C220.219 32.1146 219.682 31.8737 219.285 31.6523C218.895 31.4245 218.559 31.0957 218.279 30.666C218.006 30.2363 217.869 29.6667 217.869 28.957C217.869 28.3385 218.029 27.7852 218.348 27.2969C218.667 26.8021 219.119 26.418 219.705 26.1445C220.291 25.8711 220.965 25.7344 221.727 25.7344C222.072 25.7344 222.465 25.7832 222.908 25.8809C223.351 25.972 223.729 26.099 224.041 26.2617C224.36 26.4245 224.52 26.6035 224.52 26.7988C224.52 26.8835 224.484 27.0007 224.412 27.1504C224.347 27.2936 224.269 27.4238 224.178 27.541C224.087 27.6582 224.015 27.7168 223.963 27.7168C223.904 27.7168 223.787 27.668 223.611 27.5703C223.318 27.4141 223.029 27.2904 222.742 27.1992C222.456 27.1016 222.107 27.0527 221.697 27.0527C221.027 27.0527 220.483 27.2253 220.066 27.5703C219.656 27.9154 219.451 28.3971 219.451 29.0156C219.451 29.3867 219.542 29.6927 219.725 29.9336C219.907 30.1745 220.138 30.3665 220.418 30.5098C220.698 30.653 221.089 30.819 221.59 31.0078C221.622 31.0143 221.697 31.0404 221.814 31.0859C222.505 31.3529 223.068 31.6133 223.504 31.8672C223.947 32.1146 224.321 32.4727 224.627 32.9414C224.939 33.4102 225.096 34.0091 225.096 34.7383C225.096 35.4219 224.936 36.0176 224.617 36.5254C224.305 37.0332 223.855 37.4238 223.27 37.6973C222.69 37.9642 222.013 38.0977 221.238 38.0977ZM229.793 38.0977C229.214 38.0977 228.696 37.9219 228.24 37.5703C227.785 37.2188 227.557 36.597 227.557 35.7051V30.168H226.688C226.564 30.168 226.473 30.1289 226.414 30.0508C226.362 29.9661 226.336 29.8327 226.336 29.6504V29.4355C226.336 29.2533 226.362 29.123 226.414 29.0449C226.473 28.9603 226.564 28.918 226.688 28.918H227.557L227.762 27.1016C227.775 26.8477 227.96 26.7207 228.318 26.7207H228.484C228.667 26.7207 228.8 26.7533 228.885 26.8184C228.969 26.877 229.012 26.9714 229.012 27.1016V28.918H230.467C230.59 28.918 230.678 28.9603 230.73 29.0449C230.789 29.123 230.818 29.2533 230.818 29.4355V29.6504C230.818 29.8327 230.789 29.9661 230.73 30.0508C230.678 30.1289 230.59 30.168 230.467 30.168H229.012V35.5684C229.012 36.0436 229.093 36.3757 229.256 36.5645C229.425 36.7533 229.653 36.8477 229.939 36.8477C230.161 36.8477 230.33 36.8346 230.447 36.8086C230.571 36.7826 230.652 36.7695 230.691 36.7695C230.796 36.7695 230.88 36.8737 230.945 37.082C231.017 37.2904 231.053 37.4564 231.053 37.5801C231.053 37.9251 230.633 38.0977 229.793 38.0977ZM235.467 38.0977C234.581 38.0977 233.865 37.8796 233.318 37.4434C232.771 37.0072 232.498 36.3594 232.498 35.5C232.498 34.5951 232.775 33.9147 233.328 33.459C233.882 32.9967 234.555 32.7005 235.35 32.5703C236.15 32.4336 237.12 32.3555 238.26 32.3359V31.5156C238.26 31.0794 238.11 30.7311 237.811 30.4707C237.518 30.2038 237.033 30.0703 236.355 30.0703C235.841 30.0703 235.389 30.1322 234.998 30.2559C234.614 30.373 234.253 30.5163 233.914 30.6855C233.771 30.7572 233.683 30.793 233.65 30.793C233.572 30.793 233.484 30.7376 233.387 30.627C233.296 30.5098 233.214 30.3796 233.143 30.2363C233.077 30.0931 233.045 29.9889 233.045 29.9238C233.045 29.7741 233.198 29.6113 233.504 29.4355C233.816 29.2598 234.223 29.1133 234.725 28.9961C235.226 28.8789 235.75 28.8203 236.297 28.8203C237.384 28.8203 238.227 29.0579 238.826 29.5332C239.425 30.0085 239.725 30.6758 239.725 31.5352V35.4316C239.725 36.1868 239.757 36.7337 239.822 37.0723C239.894 37.4043 239.93 37.5866 239.93 37.6191C239.93 37.7624 239.819 37.8665 239.598 37.9316C239.383 37.9902 239.181 38.0195 238.992 38.0195C238.836 38.0195 238.719 37.9316 238.641 37.7559C238.569 37.5801 238.497 37.3262 238.426 36.9941L238.387 36.7988C238.029 37.196 237.605 37.5117 237.117 37.7461C236.635 37.9805 236.085 38.0977 235.467 38.0977ZM235.545 36.8379C236.118 36.8379 236.606 36.7337 237.01 36.5254C237.413 36.3171 237.83 36.0208 238.26 35.6367V33.5859C237.4 33.5924 236.694 33.6283 236.141 33.6934C235.587 33.7585 235.102 33.9245 234.686 34.1914C234.269 34.4518 234.061 34.8587 234.061 35.4121C234.061 35.8743 234.184 36.2292 234.432 36.4766C234.686 36.7174 235.057 36.8379 235.545 36.8379ZM243.387 38.0293C243.139 38.0293 242.96 38 242.85 37.9414C242.739 37.8763 242.684 37.7786 242.684 37.6484V31.5547C242.684 30.7995 242.648 30.2559 242.576 29.9238C242.505 29.5853 242.469 29.3997 242.469 29.3672C242.469 29.224 242.576 29.123 242.791 29.0645C243.012 28.9993 243.221 28.9668 243.416 28.9668C243.572 28.9668 243.689 29.0514 243.768 29.2207C243.846 29.3835 243.914 29.6146 243.973 29.9141L244.021 30.1191C244.64 29.2533 245.311 28.8203 246.033 28.8203C246.365 28.8203 246.616 28.8822 246.785 29.0059C246.954 29.123 247.039 29.2826 247.039 29.4844C247.039 29.6797 247.003 29.888 246.932 30.1094C246.867 30.3242 246.788 30.4316 246.697 30.4316C246.652 30.4316 246.57 30.4121 246.453 30.373C246.349 30.3275 246.245 30.2949 246.141 30.2754C246.036 30.2493 245.903 30.2363 245.74 30.2363C245.473 30.2363 245.219 30.3145 244.979 30.4707C244.744 30.627 244.546 30.7995 244.383 30.9883C244.22 31.1771 244.139 31.2812 244.139 31.3008V37.6484C244.139 37.7786 244.083 37.8763 243.973 37.9414C243.862 38 243.689 38.0293 243.455 38.0293H243.387ZM251.57 38.0977C250.991 38.0977 250.473 37.9219 250.018 37.5703C249.562 37.2188 249.334 36.597 249.334 35.7051V30.168H248.465C248.341 30.168 248.25 30.1289 248.191 30.0508C248.139 29.9661 248.113 29.8327 248.113 29.6504V29.4355C248.113 29.2533 248.139 29.123 248.191 29.0449C248.25 28.9603 248.341 28.918 248.465 28.918H249.334L249.539 27.1016C249.552 26.8477 249.738 26.7207 250.096 26.7207H250.262C250.444 26.7207 250.577 26.7533 250.662 26.8184C250.747 26.877 250.789 26.9714 250.789 27.1016V28.918H252.244C252.368 28.918 252.456 28.9603 252.508 29.0449C252.566 29.123 252.596 29.2533 252.596 29.4355V29.6504C252.596 29.8327 252.566 29.9661 252.508 30.0508C252.456 30.1289 252.368 30.168 252.244 30.168H250.789V35.5684C250.789 36.0436 250.87 36.3757 251.033 36.5645C251.202 36.7533 251.43 36.8477 251.717 36.8477C251.938 36.8477 252.107 36.8346 252.225 36.8086C252.348 36.7826 252.43 36.7695 252.469 36.7695C252.573 36.7695 252.658 36.8737 252.723 37.082C252.794 37.2904 252.83 37.4564 252.83 37.5801C252.83 37.9251 252.41 38.0977 251.57 38.0977ZM259.803 38.0293C259.555 38.0293 259.376 38 259.266 37.9414C259.155 37.8763 259.1 37.7786 259.1 37.6484V31.5547C259.1 30.7995 259.064 30.2559 258.992 29.9238C258.921 29.5853 258.885 29.3997 258.885 29.3672C258.885 29.224 258.992 29.123 259.207 29.0645C259.428 28.9993 259.637 28.9668 259.832 28.9668C259.995 28.9668 260.115 29.0547 260.193 29.2305C260.271 29.4062 260.327 29.5853 260.359 29.7676C260.398 29.9499 260.424 30.0671 260.438 30.1191C260.802 29.709 261.222 29.39 261.697 29.1621C262.179 28.9342 262.664 28.8203 263.152 28.8203C264.038 28.8203 264.728 29.071 265.223 29.5723C265.724 30.0671 265.975 30.7507 265.975 31.623V37.6484C265.975 37.7786 265.919 37.8763 265.809 37.9414C265.698 38 265.522 38.0293 265.281 38.0293H265.203C264.969 38.0293 264.796 38 264.686 37.9414C264.575 37.8763 264.52 37.7786 264.52 37.6484V31.7695C264.52 31.2357 264.363 30.8223 264.051 30.5293C263.745 30.2298 263.312 30.0801 262.752 30.0801C262.361 30.0801 261.967 30.1908 261.57 30.4121C261.18 30.627 260.841 30.9232 260.555 31.3008V37.6484C260.555 37.7786 260.499 37.8763 260.389 37.9414C260.278 38 260.105 38.0293 259.871 38.0293H259.803ZM272.488 38.0977C271.049 38.0977 269.979 37.7233 269.275 36.9746C268.579 36.2194 268.23 35.0671 268.23 33.5176C268.23 31.9811 268.572 30.8158 269.256 30.0215C269.939 29.2207 270.945 28.8203 272.273 28.8203C273.458 28.8203 274.35 29.2044 274.949 29.9727C275.555 30.7409 275.857 31.8672 275.857 33.3516C275.857 33.4167 275.822 33.5078 275.75 33.625C275.685 33.7357 275.604 33.8366 275.506 33.9277C275.415 34.0124 275.337 34.0547 275.271 34.0547H269.793C269.865 35.0247 270.112 35.7344 270.535 36.1836C270.965 36.6263 271.609 36.8477 272.469 36.8477C272.951 36.8477 273.364 36.7891 273.709 36.6719C274.061 36.5547 274.399 36.4115 274.725 36.2422C274.757 36.2292 274.806 36.2064 274.871 36.1738C274.936 36.1413 274.982 36.125 275.008 36.125C275.079 36.125 275.161 36.1836 275.252 36.3008C275.35 36.4115 275.431 36.5384 275.496 36.6816C275.568 36.8184 275.604 36.9193 275.604 36.9844C275.604 37.1276 275.46 37.2871 275.174 37.4629C274.887 37.6387 274.503 37.7884 274.021 37.9121C273.546 38.0358 273.035 38.0977 272.488 38.0977ZM274.305 32.8047C274.305 30.9818 273.611 30.0703 272.225 30.0703C270.734 30.0703 269.923 30.9818 269.793 32.8047H274.305ZM280.242 38.0293C279.819 38.0293 279.588 37.9382 279.549 37.7559L277.264 29.5234C277.199 29.3411 277.166 29.2272 277.166 29.1816C277.166 28.9863 277.433 28.8887 277.967 28.8887C278.383 28.8887 278.615 28.9798 278.66 29.1621L280.125 34.7188C280.151 34.8099 280.236 35.181 280.379 35.832C280.411 36.0078 280.473 36.2975 280.564 36.7012C280.695 35.9004 280.838 35.2331 280.994 34.6992L282.43 29.1816C282.475 28.9863 282.703 28.8887 283.113 28.8887H283.23C283.628 28.8887 283.855 28.9863 283.914 29.1816L285.359 34.6992C285.516 35.2721 285.646 35.8353 285.75 36.3887C285.757 36.4277 285.773 36.5254 285.799 36.6816C285.981 35.7181 286.115 35.0703 286.199 34.7383L287.664 29.1621C287.71 28.9798 287.944 28.8887 288.367 28.8887C288.829 28.8887 289.061 28.9863 289.061 29.1816C289.061 29.2533 289.044 29.3314 289.012 29.416L286.678 37.7559C286.639 37.9382 286.411 38.0293 285.994 38.0293H285.467C285.057 38.0293 284.832 37.9382 284.793 37.7559L283.396 32.248C283.312 31.89 283.227 31.4408 283.143 30.9004C283.058 31.4668 282.97 31.9128 282.879 32.2383L281.463 37.7559C281.424 37.9382 281.189 38.0293 280.76 38.0293H280.242ZM298.973 38.0977C297.534 38.0977 296.46 37.7298 295.75 36.9941C295.047 36.252 294.695 35.0605 294.695 33.4199C294.695 31.7598 295.089 30.5781 295.877 29.875C296.665 29.1719 297.645 28.8203 298.816 28.8203C299.253 28.8203 299.673 28.8594 300.076 28.9375C300.48 29.0091 300.805 29.1068 301.053 29.2305C301.3 29.3542 301.424 29.4844 301.424 29.6211C301.424 29.7122 301.391 29.8327 301.326 29.9824C301.268 30.1322 301.193 30.2656 301.102 30.3828C301.017 30.4935 300.939 30.5488 300.867 30.5488C300.848 30.5488 300.818 30.5423 300.779 30.5293C300.74 30.5098 300.704 30.4935 300.672 30.4805C300.086 30.207 299.454 30.0703 298.777 30.0703C297.977 30.0703 297.358 30.334 296.922 30.8613C296.486 31.3822 296.268 32.222 296.268 33.3809C296.268 34.2012 296.355 34.8652 296.531 35.373C296.707 35.8743 296.99 36.2454 297.381 36.4863C297.778 36.7272 298.305 36.8477 298.963 36.8477C299.686 36.8477 300.337 36.6979 300.916 36.3984C300.975 36.3854 301.017 36.3724 301.043 36.3594C301.076 36.3398 301.098 36.3301 301.111 36.3301C301.183 36.3301 301.264 36.3854 301.355 36.4961C301.447 36.6068 301.525 36.7337 301.59 36.877C301.661 37.0202 301.697 37.1341 301.697 37.2188C301.697 37.3555 301.574 37.4922 301.326 37.6289C301.079 37.7656 300.743 37.8796 300.32 37.9707C299.904 38.0553 299.454 38.0977 298.973 38.0977ZM307.195 38.0977C305.887 38.0977 304.887 37.707 304.197 36.9258C303.514 36.138 303.172 34.9954 303.172 33.498C303.172 32.0007 303.52 30.8483 304.217 30.041C304.913 29.2272 305.906 28.8203 307.195 28.8203C308.471 28.8203 309.448 29.224 310.125 30.0312C310.802 30.832 311.141 31.9876 311.141 33.498C311.141 35.002 310.805 36.1445 310.135 36.9258C309.471 37.707 308.491 38.0977 307.195 38.0977ZM307.146 36.8477C307.993 36.8477 308.618 36.5742 309.021 36.0273C309.425 35.474 309.627 34.6211 309.627 33.4688C309.627 32.3099 309.425 31.4538 309.021 30.9004C308.618 30.347 307.993 30.0703 307.146 30.0703C306.307 30.0703 305.688 30.347 305.291 30.9004C304.894 31.4473 304.695 32.3034 304.695 33.4688C304.695 34.6276 304.891 35.4805 305.281 36.0273C305.678 36.5742 306.3 36.8477 307.146 36.8477ZM314.295 38.0293C314.048 38.0293 313.868 38 313.758 37.9414C313.647 37.8763 313.592 37.7786 313.592 37.6484V31.5547C313.592 30.7995 313.556 30.2559 313.484 29.9238C313.413 29.5853 313.377 29.3997 313.377 29.3672C313.377 29.224 313.484 29.123 313.699 29.0645C313.921 28.9993 314.129 28.9668 314.324 28.9668C314.487 28.9668 314.607 29.0547 314.686 29.2305C314.764 29.4062 314.819 29.5853 314.852 29.7676C314.891 29.9499 314.917 30.0671 314.93 30.1191C315.294 29.709 315.714 29.39 316.189 29.1621C316.671 28.9342 317.156 28.8203 317.645 28.8203C318.53 28.8203 319.22 29.071 319.715 29.5723C320.216 30.0671 320.467 30.7507 320.467 31.623V37.6484C320.467 37.7786 320.411 37.8763 320.301 37.9414C320.19 38 320.014 38.0293 319.773 38.0293H319.695C319.461 38.0293 319.288 38 319.178 37.9414C319.067 37.8763 319.012 37.7786 319.012 37.6484V31.7695C319.012 31.2357 318.855 30.8223 318.543 30.5293C318.237 30.2298 317.804 30.0801 317.244 30.0801C316.854 30.0801 316.46 30.1908 316.062 30.4121C315.672 30.627 315.333 30.9232 315.047 31.3008V37.6484C315.047 37.7786 314.992 37.8763 314.881 37.9414C314.77 38 314.598 38.0293 314.363 38.0293H314.295ZM325.682 38.0293C325.271 38.0293 325.037 37.9382 324.979 37.7559L322.186 29.4062C322.146 29.2891 322.127 29.2142 322.127 29.1816C322.127 29.0905 322.189 29.0189 322.312 28.9668C322.436 28.9147 322.625 28.8887 322.879 28.8887H322.967C323.37 28.8887 323.602 28.9798 323.66 29.1621L325.428 34.6992C325.571 35.1289 325.737 35.7148 325.926 36.457L326.033 36.8672H326.111L326.229 36.3496C326.372 35.666 326.505 35.1289 326.629 34.7383L328.416 29.1621C328.475 28.9798 328.712 28.8887 329.129 28.8887H329.178C329.614 28.8887 329.832 28.9863 329.832 29.1816C329.832 29.2467 329.809 29.3249 329.764 29.416L326.98 37.7559C326.922 37.9382 326.688 38.0293 326.277 38.0293H325.682ZM335.398 38.0977C333.96 38.0977 332.889 37.7233 332.186 36.9746C331.489 36.2194 331.141 35.0671 331.141 33.5176C331.141 31.9811 331.482 30.8158 332.166 30.0215C332.85 29.2207 333.855 28.8203 335.184 28.8203C336.368 28.8203 337.26 29.2044 337.859 29.9727C338.465 30.7409 338.768 31.8672 338.768 33.3516C338.768 33.4167 338.732 33.5078 338.66 33.625C338.595 33.7357 338.514 33.8366 338.416 33.9277C338.325 34.0124 338.247 34.0547 338.182 34.0547H332.703C332.775 35.0247 333.022 35.7344 333.445 36.1836C333.875 36.6263 334.52 36.8477 335.379 36.8477C335.861 36.8477 336.274 36.7891 336.619 36.6719C336.971 36.5547 337.309 36.4115 337.635 36.2422C337.667 36.2292 337.716 36.2064 337.781 36.1738C337.846 36.1413 337.892 36.125 337.918 36.125C337.99 36.125 338.071 36.1836 338.162 36.3008C338.26 36.4115 338.341 36.5384 338.406 36.6816C338.478 36.8184 338.514 36.9193 338.514 36.9844C338.514 37.1276 338.37 37.2871 338.084 37.4629C337.798 37.6387 337.413 37.7884 336.932 37.9121C336.456 38.0358 335.945 38.0977 335.398 38.0977ZM337.215 32.8047C337.215 30.9818 336.521 30.0703 335.135 30.0703C333.644 30.0703 332.833 30.9818 332.703 32.8047H337.215ZM341.824 38.0293C341.577 38.0293 341.398 38 341.287 37.9414C341.176 37.8763 341.121 37.7786 341.121 37.6484V31.5547C341.121 30.7995 341.085 30.2559 341.014 29.9238C340.942 29.5853 340.906 29.3997 340.906 29.3672C340.906 29.224 341.014 29.123 341.229 29.0645C341.45 28.9993 341.658 28.9668 341.854 28.9668C342.01 28.9668 342.127 29.0514 342.205 29.2207C342.283 29.3835 342.352 29.6146 342.41 29.9141L342.459 30.1191C343.077 29.2533 343.748 28.8203 344.471 28.8203C344.803 28.8203 345.053 28.8822 345.223 29.0059C345.392 29.123 345.477 29.2826 345.477 29.4844C345.477 29.6797 345.441 29.888 345.369 30.1094C345.304 30.3242 345.226 30.4316 345.135 30.4316C345.089 30.4316 345.008 30.4121 344.891 30.373C344.786 30.3275 344.682 30.2949 344.578 30.2754C344.474 30.2493 344.34 30.2363 344.178 30.2363C343.911 30.2363 343.657 30.3145 343.416 30.4707C343.182 30.627 342.983 30.7995 342.82 30.9883C342.658 31.1771 342.576 31.2812 342.576 31.3008V37.6484C342.576 37.7786 342.521 37.8763 342.41 37.9414C342.299 38 342.127 38.0293 341.893 38.0293H341.824ZM349.275 38.166C348.787 38.166 348.331 38.1042 347.908 37.9805C347.485 37.8568 347.146 37.707 346.893 37.5312C346.645 37.349 346.521 37.1895 346.521 37.0527C346.521 36.9876 346.554 36.8835 346.619 36.7402C346.691 36.597 346.772 36.4701 346.863 36.3594C346.961 36.2422 347.049 36.1836 347.127 36.1836C347.146 36.1836 347.205 36.2161 347.303 36.2812C347.563 36.4505 347.837 36.5938 348.123 36.7109C348.416 36.8281 348.764 36.8867 349.168 36.8867C350.301 36.8867 350.867 36.418 350.867 35.4805C350.867 35.2135 350.812 34.9889 350.701 34.8066C350.597 34.6243 350.418 34.4648 350.164 34.3281C349.917 34.1849 349.575 34.0482 349.139 33.918C348.514 33.7357 348.025 33.5273 347.674 33.293C347.329 33.0586 347.085 32.7852 346.941 32.4727C346.798 32.1536 346.727 31.7695 346.727 31.3203C346.727 30.8385 346.847 30.4056 347.088 30.0215C347.335 29.6374 347.677 29.3379 348.113 29.123C348.556 28.9082 349.054 28.8008 349.607 28.8008C349.992 28.8008 350.359 28.8366 350.711 28.9082C351.069 28.9798 351.355 29.0742 351.57 29.1914C351.792 29.3021 351.902 29.4193 351.902 29.543C351.902 29.6341 351.87 29.7578 351.805 29.9141C351.746 30.0638 351.671 30.1973 351.58 30.3145C351.489 30.4251 351.408 30.4805 351.336 30.4805C351.323 30.4805 351.242 30.4414 351.092 30.3633C350.942 30.2786 350.75 30.2038 350.516 30.1387C350.288 30.0671 350.034 30.0312 349.754 30.0312C349.311 30.0312 348.943 30.1322 348.65 30.334C348.364 30.5293 348.221 30.793 348.221 31.125C348.221 31.5156 348.325 31.8281 348.533 32.0625C348.742 32.2969 349.087 32.4889 349.568 32.6387C350.311 32.8665 350.877 33.0944 351.268 33.3223C351.658 33.5501 351.935 33.8301 352.098 34.1621C352.267 34.4876 352.352 34.9173 352.352 35.4512C352.352 35.959 352.215 36.4212 351.941 36.8379C351.668 37.248 351.297 37.5736 350.828 37.8145C350.359 38.0488 349.842 38.166 349.275 38.166ZM356.893 38.0977C356.007 38.0977 355.291 37.8796 354.744 37.4434C354.197 37.0072 353.924 36.3594 353.924 35.5C353.924 34.5951 354.201 33.9147 354.754 33.459C355.307 32.9967 355.981 32.7005 356.775 32.5703C357.576 32.4336 358.546 32.3555 359.686 32.3359V31.5156C359.686 31.0794 359.536 30.7311 359.236 30.4707C358.943 30.2038 358.458 30.0703 357.781 30.0703C357.267 30.0703 356.814 30.1322 356.424 30.2559C356.04 30.373 355.678 30.5163 355.34 30.6855C355.197 30.7572 355.109 30.793 355.076 30.793C354.998 30.793 354.91 30.7376 354.812 30.627C354.721 30.5098 354.64 30.3796 354.568 30.2363C354.503 30.0931 354.471 29.9889 354.471 29.9238C354.471 29.7741 354.624 29.6113 354.93 29.4355C355.242 29.2598 355.649 29.1133 356.15 28.9961C356.652 28.8789 357.176 28.8203 357.723 28.8203C358.81 28.8203 359.653 29.0579 360.252 29.5332C360.851 30.0085 361.15 30.6758 361.15 31.5352V35.4316C361.15 36.1868 361.183 36.7337 361.248 37.0723C361.32 37.4043 361.355 37.5866 361.355 37.6191C361.355 37.7624 361.245 37.8665 361.023 37.9316C360.809 37.9902 360.607 38.0195 360.418 38.0195C360.262 38.0195 360.145 37.9316 360.066 37.7559C359.995 37.5801 359.923 37.3262 359.852 36.9941L359.812 36.7988C359.454 37.196 359.031 37.5117 358.543 37.7461C358.061 37.9805 357.511 38.0977 356.893 38.0977ZM356.971 36.8379C357.544 36.8379 358.032 36.7337 358.436 36.5254C358.839 36.3171 359.256 36.0208 359.686 35.6367V33.5859C358.826 33.5924 358.12 33.6283 357.566 33.6934C357.013 33.7585 356.528 33.9245 356.111 34.1914C355.695 34.4518 355.486 34.8587 355.486 35.4121C355.486 35.8743 355.61 36.2292 355.857 36.4766C356.111 36.7174 356.482 36.8379 356.971 36.8379ZM366.648 38.0977C366.069 38.0977 365.551 37.9219 365.096 37.5703C364.64 37.2188 364.412 36.597 364.412 35.7051V30.168H363.543C363.419 30.168 363.328 30.1289 363.27 30.0508C363.217 29.9661 363.191 29.8327 363.191 29.6504V29.4355C363.191 29.2533 363.217 29.123 363.27 29.0449C363.328 28.9603 363.419 28.918 363.543 28.918H364.412L364.617 27.1016C364.63 26.8477 364.816 26.7207 365.174 26.7207H365.34C365.522 26.7207 365.656 26.7533 365.74 26.8184C365.825 26.877 365.867 26.9714 365.867 27.1016V28.918H367.322C367.446 28.918 367.534 28.9603 367.586 29.0449C367.645 29.123 367.674 29.2533 367.674 29.4355V29.6504C367.674 29.8327 367.645 29.9661 367.586 30.0508C367.534 30.1289 367.446 30.168 367.322 30.168H365.867V35.5684C365.867 36.0436 365.949 36.3757 366.111 36.5645C366.281 36.7533 366.508 36.8477 366.795 36.8477C367.016 36.8477 367.186 36.8346 367.303 36.8086C367.426 36.7826 367.508 36.7695 367.547 36.7695C367.651 36.7695 367.736 36.8737 367.801 37.082C367.872 37.2904 367.908 37.4564 367.908 37.5801C367.908 37.9251 367.488 38.0977 366.648 38.0977ZM370.711 26.7305C370.249 26.7305 370.018 26.6035 370.018 26.3496V25.3242C370.018 25.0703 370.249 24.9434 370.711 24.9434H370.916C371.385 24.9434 371.619 25.0703 371.619 25.3242V26.3496C371.619 26.6035 371.385 26.7305 370.916 26.7305H370.711ZM370.779 38.0293C370.317 38.0293 370.086 37.9023 370.086 37.6484V29.2695C370.086 29.0156 370.317 28.8887 370.779 28.8887H370.848C371.316 28.8887 371.551 29.0156 371.551 29.2695V37.6484C371.551 37.9023 371.316 38.0293 370.848 38.0293H370.779ZM378.094 38.0977C376.785 38.0977 375.786 37.707 375.096 36.9258C374.412 36.138 374.07 34.9954 374.07 33.498C374.07 32.0007 374.419 30.8483 375.115 30.041C375.812 29.2272 376.805 28.8203 378.094 28.8203C379.37 28.8203 380.346 29.224 381.023 30.0312C381.701 30.832 382.039 31.9876 382.039 33.498C382.039 35.002 381.704 36.1445 381.033 36.9258C380.369 37.707 379.389 38.0977 378.094 38.0977ZM378.045 36.8477C378.891 36.8477 379.516 36.5742 379.92 36.0273C380.324 35.474 380.525 34.6211 380.525 33.4688C380.525 32.3099 380.324 31.4538 379.92 30.9004C379.516 30.347 378.891 30.0703 378.045 30.0703C377.205 30.0703 376.587 30.347 376.189 30.9004C375.792 31.4473 375.594 32.3034 375.594 33.4688C375.594 34.6276 375.789 35.4805 376.18 36.0273C376.577 36.5742 377.199 36.8477 378.045 36.8477ZM385.193 38.0293C384.946 38.0293 384.767 38 384.656 37.9414C384.546 37.8763 384.49 37.7786 384.49 37.6484V31.5547C384.49 30.7995 384.454 30.2559 384.383 29.9238C384.311 29.5853 384.275 29.3997 384.275 29.3672C384.275 29.224 384.383 29.123 384.598 29.0645C384.819 28.9993 385.027 28.9668 385.223 28.9668C385.385 28.9668 385.506 29.0547 385.584 29.2305C385.662 29.4062 385.717 29.5853 385.75 29.7676C385.789 29.9499 385.815 30.0671 385.828 30.1191C386.193 29.709 386.613 29.39 387.088 29.1621C387.57 28.9342 388.055 28.8203 388.543 28.8203C389.428 28.8203 390.118 29.071 390.613 29.5723C391.115 30.0671 391.365 30.7507 391.365 31.623V37.6484C391.365 37.7786 391.31 37.8763 391.199 37.9414C391.089 38 390.913 38.0293 390.672 38.0293H390.594C390.359 38.0293 390.187 38 390.076 37.9414C389.965 37.8763 389.91 37.7786 389.91 37.6484V31.7695C389.91 31.2357 389.754 30.8223 389.441 30.5293C389.135 30.2298 388.702 30.0801 388.143 30.0801C387.752 30.0801 387.358 30.1908 386.961 30.4121C386.57 30.627 386.232 30.9232 385.945 31.3008V37.6484C385.945 37.7786 385.89 37.8763 385.779 37.9414C385.669 38 385.496 38.0293 385.262 38.0293H385.193Z" fill="#003967"/>
</svg>

