<svg width="24" height="24" viewBox="0 0 24 24" fill="none" xmlns="http://www.w3.org/2000/svg">
<g id="Down">
<path id="Vector" d="M17.9062 12.0001C17.9063 12.1017 17.8858 12.2024 17.8458 12.2958C17.8059 12.3893 17.7473 12.4737 17.6737 12.5438L13.3612 16.6688C13.217 16.8061 13.0242 16.8804 12.8252 16.8755C12.6261 16.8706 12.4372 16.7868 12.3 16.6426C12.1627 16.4984 12.0884 16.3055 12.0933 16.1065C12.0982 15.9075 12.182 15.7186 12.3262 15.5813L16.6387 11.4563C16.7101 11.3883 16.7942 11.335 16.8862 11.2995C16.9781 11.264 17.0762 11.247 17.1748 11.2494C17.2734 11.2518 17.3705 11.2737 17.4606 11.3137C17.5507 11.3537 17.6321 11.4111 17.7 11.4826C17.8326 11.6222 17.9065 11.8075 17.9062 12.0001Z" fill="#000000"/>
<path id="Vector_2" d="M17.9062 12.0001C17.9065 12.1927 17.8326 12.378 17.7 12.5176C17.6321 12.5891 17.5507 12.6465 17.4606 12.6865C17.3705 12.7265 17.2734 12.7483 17.1748 12.7508C17.0762 12.7532 16.9781 12.7362 16.8862 12.7007C16.7942 12.6652 16.7101 12.6119 16.6387 12.5438L12.3262 8.41884C12.182 8.28159 12.0982 8.09267 12.0933 7.89365C12.0884 7.69462 12.1627 7.5018 12.3 7.35758C12.4372 7.21337 12.6261 7.12959 12.8252 7.12467C13.0242 7.11974 13.217 7.19409 13.3612 7.33134L17.6737 11.4563C17.7473 11.5265 17.8059 11.6109 17.8458 11.7043C17.8858 11.7978 17.9063 11.8984 17.9062 12.0001ZM11.9062 12.0001C11.9063 12.1017 11.8858 12.2024 11.8458 12.2958C11.8059 12.3893 11.7473 12.4737 11.6737 12.5438L7.36123 16.6688C7.21701 16.8061 7.02419 16.8804 6.82516 16.8755C6.62614 16.8706 6.43722 16.7868 6.29998 16.6426C6.16273 16.4984 6.08839 16.3055 6.09331 16.1065C6.09823 15.9075 6.18201 15.7186 6.32623 15.5813L10.6387 11.4563C10.7101 11.3883 10.7942 11.335 10.8862 11.2995C10.9781 11.264 11.0762 11.247 11.1748 11.2494C11.2734 11.2518 11.3705 11.2737 11.4606 11.3137C11.5507 11.3537 11.6321 11.4111 11.7 11.4826C11.8326 11.6222 11.9065 11.8075 11.9062 12.0001Z" fill="#000000"/>
<path id="Vector_3" d="M11.9062 12.0001C11.9065 12.1926 11.8326 12.3779 11.7 12.5176C11.6321 12.589 11.5507 12.6464 11.4606 12.6864C11.3705 12.7265 11.2734 12.7483 11.1748 12.7507C11.0762 12.7532 10.9781 12.7362 10.8862 12.7007C10.7942 12.6651 10.7101 12.6118 10.6387 12.5438L6.32623 8.41881C6.18201 8.28156 6.09823 8.09265 6.09331 7.89362C6.08839 7.6946 6.16273 7.50177 6.29998 7.35756C6.43722 7.21335 6.62614 7.12957 6.82516 7.12464C7.02419 7.11972 7.21701 7.19406 7.36123 7.33131L11.6737 11.4563C11.7473 11.5265 11.8059 11.6108 11.8458 11.7043C11.8858 11.7978 11.9063 11.8984 11.9062 12.0001Z" fill="#000000"/>
</g>
</svg>
