<svg width="17" height="18" viewBox="0 0 17 18" fill="none" xmlns="http://www.w3.org/2000/svg">
<g id="Down">
<path id="Vector" d="M5.88342 13.7422C6.02233 13.8809 6.21059 13.9587 6.40688 13.9587C6.60316 13.9587 6.79142 13.8809 6.93034 13.7422L11.1166 9.56018C11.2781 9.39868 11.3503 9.18051 11.3305 8.96943C11.3305 8.77818 11.259 8.58764 11.1138 8.44243L6.92963 4.2583C6.86093 4.18961 6.77938 4.13512 6.68963 4.09794C6.59987 4.06076 6.50367 4.04163 6.40652 4.04163C6.30937 4.04163 6.21318 4.06076 6.12342 4.09794C6.03367 4.13512 5.95211 4.18961 5.88342 4.2583C5.81472 4.327 5.76023 4.40855 5.72306 4.49831C5.68588 4.58806 5.66674 4.68426 5.66674 4.78141C5.66674 4.87856 5.68588 4.97476 5.72306 5.06451C5.76023 5.15427 5.81472 5.23582 5.88342 5.30451L9.58092 9.00201L5.88342 12.6967C5.81471 12.7653 5.76021 12.8468 5.72302 12.9365C5.68583 13.0262 5.66669 13.1223 5.66669 13.2194C5.66669 13.3165 5.68583 13.4127 5.72302 13.5024C5.76021 13.5921 5.81471 13.6736 5.88342 13.7422Z" fill="#000000"/>
</g>
</svg>
