<svg width="17" height="18" viewBox="0 0 17 18" fill="none" xmlns="http://www.w3.org/2000/svg">
<g id="Down">
<path id="Vector" d="M11.1166 4.25782C10.9777 4.11915 10.7894 4.04126 10.5931 4.04126C10.3968 4.04126 10.2086 4.11915 10.0697 4.25782L5.88341 8.43982C5.72191 8.60132 5.64966 8.81949 5.6695 9.03057C5.6695 9.22182 5.74104 9.41236 5.88625 9.55757L10.0704 13.7417C10.1391 13.8104 10.2206 13.8649 10.3104 13.9021C10.4001 13.9392 10.4963 13.9584 10.5935 13.9584C10.6906 13.9584 10.7868 13.9392 10.8766 13.9021C10.9663 13.8649 11.0479 13.8104 11.1166 13.7417C11.1853 13.673 11.2398 13.5914 11.2769 13.5017C11.3141 13.4119 11.3333 13.3157 11.3333 13.2186C11.3333 13.1214 11.3141 13.0252 11.2769 12.9355C11.2398 12.8457 11.1853 12.7642 11.1166 12.6955L7.41908 8.99799L11.1166 5.30332C11.1853 5.23471 11.2398 5.15322 11.277 5.06352C11.3142 4.97382 11.3333 4.87767 11.3333 4.78057C11.3333 4.68347 11.3142 4.58732 11.277 4.49762C11.2398 4.40792 11.1853 4.32644 11.1166 4.25782Z" fill="#3280FC"/>
</g>
</svg>
