<svg width="7" height="11" viewBox="0 0 7 11" fill="none" xmlns="http://www.w3.org/2000/svg">
<path d="M0.88348 10.2423C1.02239 10.381 1.21066 10.4589 1.40694 10.4589C1.60322 10.4589 1.79149 10.381 1.9304 10.2423L6.11665 6.0603C6.27815 5.8988 6.3504 5.68063 6.33056 5.46955C6.33056 5.2783 6.25902 5.08776 6.11381 4.94255L1.92969 0.758427C1.86099 0.689732 1.77944 0.63524 1.68969 0.598062C1.59993 0.560884 1.50373 0.541749 1.40658 0.541749C1.30944 0.541749 1.21324 0.560884 1.12348 0.598062C1.03373 0.63524 0.952175 0.689732 0.88348 0.758427C0.814785 0.827122 0.760294 0.908674 0.723116 0.998428C0.685939 1.08818 0.666803 1.18438 0.666803 1.28153C0.666803 1.37868 0.685939 1.47488 0.723116 1.56463C0.760294 1.65439 0.814785 1.73594 0.88348 1.80464L4.58098 5.50213L0.88348 9.1968C0.814774 9.26542 0.760267 9.3469 0.723078 9.4366C0.685889 9.5263 0.666748 9.62245 0.666748 9.71955C0.666748 9.81665 0.685889 9.9128 0.723078 10.0025C0.760267 10.0922 0.814774 10.1737 0.88348 10.2423Z" fill="#9B9898"/>
</svg>
