<svg width="16" height="16" viewBox="0 0 16 16" fill="none" xmlns="http://www.w3.org/2000/svg">
<path d="M6.54019 12.0574C3.49798 12.0574 1.02295 9.5824 1.02295 6.54019C1.02295 3.49798 3.49798 1.02295 6.54019 1.02295C9.5824 1.02295 12.0574 3.49798 12.0574 6.54019C12.0574 9.5824 9.5824 12.0574 6.54019 12.0574ZM6.54019 2.1264C4.10654 2.1264 2.1264 4.10654 2.1264 6.54019C2.1264 8.97384 4.10654 10.954 6.54019 10.954C8.97384 10.954 10.954 8.97384 10.954 6.54019C10.954 4.10654 8.9744 2.1264 6.54019 2.1264Z" fill="#585858"/>
<path d="M14.4253 14.977C14.3528 14.9771 14.281 14.9628 14.2141 14.9351C14.1472 14.9073 14.0864 14.8666 14.0352 14.8153L9.79023 10.5704C9.73901 10.5191 9.69838 10.4583 9.67065 10.3914C9.64293 10.3245 9.62866 10.2527 9.62866 10.1803C9.62866 10.1079 9.64293 10.0361 9.67065 9.9692C9.69838 9.90227 9.73901 9.84146 9.79023 9.79023C9.84146 9.73901 9.90227 9.69838 9.9692 9.67065C10.0361 9.64293 10.1079 9.62866 10.1803 9.62866C10.2527 9.62866 10.3245 9.64293 10.3914 9.67065C10.4583 9.69838 10.5191 9.73901 10.5704 9.79023L14.8153 14.0352C14.8927 14.1123 14.9455 14.2106 14.9669 14.3177C14.9884 14.4248 14.9775 14.5358 14.9357 14.6367C14.8939 14.7376 14.8231 14.8239 14.7322 14.8844C14.6413 14.945 14.5345 14.9772 14.4253 14.977Z" fill="#585858"/>
</svg>
