<svg width="32" height="32" viewBox="0 0 32 32" fill="none" xmlns="http://www.w3.org/2000/svg">
<path d="M12.4083 22.0491V8H11.211V22.0491L8.84645 19.792L8 20.6L11.3864 23.8326C11.4987 23.9397 11.6509 23.9999 11.8096 23.9999C11.9684 23.9999 12.1206 23.9397 12.2329 23.8326L15.6193 20.6L14.7728 19.792L12.4083 22.0491ZM24 11.4L20.6136 8.16743C20.5013 8.0603 20.3491 8.00012 20.1904 8.00012C20.0316 8.00012 19.8794 8.0603 19.7671 8.16743L16.3807 11.4L17.2272 12.208L19.5917 9.95086V24H20.789V9.95086L23.1535 12.208L24 11.4Z" fill="#29304D"/>
</svg>
