<svg width="24" height="24" viewBox="0 0 24 24" fill="none" xmlns="http://www.w3.org/2000/svg">
<g id="Down">
<path id="Vector" d="M6.09377 11.9999C6.09365 11.8983 6.1142 11.7976 6.15417 11.7042C6.19414 11.6107 6.25269 11.5263 6.32627 11.4562L10.6388 7.33116C10.783 7.19391 10.9758 7.11957 11.1748 7.1245C11.3739 7.12942 11.5628 7.2132 11.7 7.35741C11.8373 7.50163 11.9116 7.69445 11.9067 7.89348C11.9018 8.0925 11.818 8.28141 11.6738 8.41866L7.36127 12.5437C7.28991 12.6117 7.20583 12.665 7.11384 12.7005C7.02186 12.736 6.92378 12.753 6.82521 12.7506C6.72664 12.7482 6.62951 12.7263 6.5394 12.6863C6.44928 12.6463 6.36794 12.5889 6.30002 12.5174C6.16738 12.3778 6.09353 12.1925 6.09377 11.9999Z" fill="black"/>
<path id="Vector_2" d="M6.09377 11.9999C6.09353 11.8073 6.16738 11.622 6.30002 11.4824C6.36794 11.4109 6.44928 11.3535 6.5394 11.3135C6.62951 11.2735 6.72664 11.2517 6.82521 11.2492C6.92378 11.2468 7.02186 11.2638 7.11385 11.2993C7.20583 11.3348 7.28991 11.3881 7.36127 11.4562L11.6738 15.5812C11.818 15.7184 11.9018 15.9073 11.9067 16.1064C11.9116 16.3054 11.8373 16.4982 11.7 16.6424C11.5628 16.7866 11.3739 16.8704 11.1748 16.8753C10.9758 16.8803 10.783 16.8059 10.6388 16.6687L6.32627 12.5437C6.25269 12.4735 6.19414 12.3891 6.15417 12.2957C6.1142 12.2022 6.09365 12.1016 6.09377 11.9999ZM12.0938 11.9999C12.0937 11.8983 12.1142 11.7976 12.1542 11.7042C12.1941 11.6107 12.2527 11.5263 12.3263 11.4562L16.6388 7.33116C16.783 7.19391 16.9758 7.11957 17.1748 7.1245C17.3739 7.12942 17.5628 7.2132 17.7 7.35741C17.8373 7.50163 17.9116 7.69445 17.9067 7.89348C17.9018 8.0925 17.818 8.28142 17.6738 8.41866L13.3613 12.5437C13.2899 12.6117 13.2058 12.665 13.1138 12.7005C13.0219 12.736 12.9238 12.753 12.8252 12.7506C12.7266 12.7482 12.6295 12.7263 12.5394 12.6863C12.4493 12.6463 12.3679 12.5889 12.3 12.5174C12.1674 12.3778 12.0935 12.1925 12.0938 11.9999Z" fill="black"/>
<path id="Vector_3" d="M12.0938 11.9999C12.0935 11.8074 12.1674 11.6221 12.3 11.4824C12.3679 11.411 12.4493 11.3536 12.5394 11.3136C12.6295 11.2735 12.7266 11.2517 12.8252 11.2493C12.9238 11.2468 13.0219 11.2638 13.1138 11.2993C13.2058 11.3349 13.2899 11.3882 13.3613 11.4562L17.6738 15.5812C17.818 15.7184 17.9018 15.9074 17.9067 16.1064C17.9116 16.3054 17.8373 16.4982 17.7 16.6424C17.5628 16.7866 17.3739 16.8704 17.1748 16.8754C16.9758 16.8803 16.783 16.8059 16.6388 16.6687L12.3263 12.5437C12.2527 12.4735 12.1941 12.3892 12.1542 12.2957C12.1142 12.2022 12.0937 12.1016 12.0938 11.9999Z" fill="black"/>
</g>
</svg>
