<svg width="21" height="15" viewBox="0 0 21 15" fill="none" xmlns="http://www.w3.org/2000/svg">
<path fill-rule="evenodd" clip-rule="evenodd" d="M15.0718 4.63818C15.0718 2.26489 13.1473 0.330078 10.7641 0.330078C8.83931 0.330078 7.214 1.58666 6.65569 3.32171C6.31656 4.38879 6.64576 3.94023 5.39911 3.94023C2.43757 3.94023 0.0341797 6.34333 0.0341797 9.30515C0.0341797 12.267 2.43745 14.6701 5.39911 14.6701C8.26132 14.6701 8.95926 13.5732 8.95926 10.7509H7.1545L10.505 7.09127L13.8556 10.7509H12.0507C12.0507 14.1813 13.8458 14.6701 16.1792 14.6701C18.8216 14.6701 20.9658 12.526 20.9658 9.87355C20.9658 7.23095 18.8216 5.08728 16.1792 5.08728C15.072 5.08728 15.072 5.55586 15.072 4.63859L15.0718 4.63818ZM8.14148 11.5389H7.15454C6.45642 11.5389 6.09726 10.7213 6.56584 10.2125L9.91631 6.55285C10.2257 6.21372 10.774 6.21372 11.0832 6.55285L14.4338 10.2125C14.9024 10.7211 14.5435 11.5389 13.8554 11.5389H12.878C13.0776 13.4334 14.0649 13.8725 16.1788 13.8725C18.3825 13.8725 20.1776 12.0873 20.1776 9.87351C20.1776 7.66988 18.3825 5.8848 16.1788 5.8848C15.6502 5.8848 15.1617 6.15393 14.703 5.855C14.2644 5.56569 14.2842 5.09697 14.2842 4.63832C14.2842 2.70379 12.7085 1.12795 10.7641 1.12795C9.23838 1.12795 7.88218 2.11538 7.41343 3.5714C7.28383 3.99015 7.21399 4.48851 6.77536 4.71808C6.36622 4.93739 5.86801 4.72801 5.39898 4.72801C2.87605 4.72801 0.831701 6.78237 0.831701 9.30514C0.831701 11.8282 2.87597 13.8724 5.39898 13.8724C6.06732 13.8724 7.10442 13.8226 7.60294 13.3041C7.97187 12.9151 8.10174 12.1972 8.14148 11.5389Z" fill="#000568" fill-opacity="0.58"/>
</svg>
