<svg width="134" height="108" viewBox="0 0 134 108" fill="none" xmlns="http://www.w3.org/2000/svg">
<g id="Group 632043">
<path id="Vector" d="M49.0721 77.2585H43.0237C41.7223 77.2586 40.4345 76.9936 39.2389 76.4797C38.0433 75.9659 36.9648 75.2138 36.0693 74.2695H56.019C55.1247 75.2133 54.0475 75.965 52.8531 76.4789C51.6588 76.9927 50.3723 77.258 49.0721 77.2585Z" fill="#EEF9FF"/>
<path id="Vector_2" d="M82.2252 77.2585H76.1731C74.8717 77.259 73.5838 76.9942 72.3881 76.4803C71.1924 75.9664 70.114 75.2142 69.2188 74.2695H89.1796C88.2844 75.2142 87.206 75.9664 86.0103 76.4803C84.8146 76.9942 83.5267 77.259 82.2252 77.2585Z" fill="#EEF9FF"/>
<path id="Vector_3" d="M96.4051 2.47266H4.16797V55.1594H96.4051V2.47266Z" fill="#D1E3FF"/>
<path id="Vector_4" d="M101.506 0.845703H1.06726C0.942201 0.845703 0.822262 0.895382 0.73383 0.983814C0.645398 1.07225 0.595718 1.19219 0.595718 1.31725C0.595228 1.37948 0.607063 1.4412 0.630541 1.49884C0.654019 1.55648 0.688674 1.6089 0.73251 1.65308C0.776346 1.69727 0.828496 1.73233 0.885949 1.75626C0.943403 1.78019 1.00502 1.79251 1.06726 1.79251H101.506C101.569 1.79251 101.63 1.78019 101.688 1.75626C101.745 1.73233 101.797 1.69727 101.841 1.65308C101.885 1.6089 101.92 1.55648 101.943 1.49884C101.967 1.4412 101.978 1.37948 101.978 1.31725C101.978 1.19219 101.928 1.07225 101.84 0.983814C101.751 0.895382 101.631 0.845703 101.506 0.845703Z" fill="#CEE0FC"/>
<path id="Vector_5" d="M98.4243 2.47266H5.11035V55.1594H98.4243V2.47266Z" fill="#E3EEFF"/>
<path id="Vector_6" d="M96.4051 55.1562H4.16797V58.91H96.4051V55.1562Z" fill="#D1E3FF"/>
<path id="Vector_7" d="M101.789 55.1562H8.47461V58.91H101.789V55.1562Z" fill="#E3EEFF"/>
<path id="Vector_8" d="M95.5918 52.331V5.30273L7.93641 5.30273V52.331L95.5918 52.331Z" fill="#F5FCFF"/>
<path id="Vector_9" d="M51.3184 52.331L67.919 5.30273H75.7533L59.1527 52.331H51.3184Z" fill="white"/>
<path id="Vector_10" d="M60.8379 52.331L77.4385 5.30273H80.4905L63.8937 52.331H60.8379Z" fill="white"/>
<path id="Vector_11" d="M95.5918 52.3271V5.29883H95.2316V52.3271H95.5918Z" fill="#D1E3FF"/>
<path id="Vector_12" d="M7.96924 0H3.10156V45.3797H7.96924V0Z" fill="#EBF3FF"/>
<path id="Vector_13" d="M9.8671 0H6.07617V45.3797H9.8671V0Z" fill="#D1E3FF"/>
<path id="Vector_14" d="M12.8374 0H7.96973V45.3797H12.8374V0Z" fill="#EBF3FF"/>
<path id="Vector_15" d="M14.7343 0H10.9434V45.3797H14.7343V0Z" fill="#D1E3FF"/>
<path id="Vector_16" d="M17.7046 0H12.8369V45.3797H17.7046V0Z" fill="#E3EEFF"/>
<path id="Vector_17" d="M93.7798 0H90.9766V45.3797H93.7798V0Z" fill="#EDF4FF"/>
<path id="Vector_18" d="M94.8783 0H92.6914V45.3797H94.8783V0Z" fill="#D1E3FF"/>
<path id="Vector_19" d="M96.5865 0H93.7832V45.3797H96.5865V0Z" fill="#EDF4FF"/>
<path id="Vector_20" d="M97.682 0H95.4951V45.3797H97.682V0Z" fill="#D1E3FF"/>
<path id="Vector_21" d="M99.3892 0H96.5859V45.3797H99.3892V0Z" fill="#EDF4FF"/>
<path id="Vector_22" d="M116.318 39.4941L114.877 43.4224H116.318L125.128 39.4941H116.318Z" fill="#F3F8FF"/>
<path id="Vector_23" d="M114.877 39.4941V43.4224L123.692 39.4941H114.877Z" fill="#D1E3FF"/>
<path id="Vector_24" d="M108.412 39.6797H117.995V36.6908H108.412V39.6797Z" fill="#D1E3FF"/>
<path id="Vector_25" d="M37.2351 65.1332C37.2351 65.1332 30.704 53.8793 39.7636 44.9199C39.7636 44.9199 42.1287 46.4608 42.0916 48.5326C42.0545 50.6044 39.5594 51.1317 40.0978 52.8545C40.6361 54.5773 42.9902 56.2816 41.4419 57.711C39.8935 59.1405 41.6906 60.4104 41.5867 62.1666C41.4827 63.9228 37.2351 65.1332 37.2351 65.1332Z" fill="#D1E3FF"/>
<path id="Vector_26" d="M37.7289 66.1619C37.7289 66.1619 40.3763 53.4228 28.9552 47.7754C28.9552 47.7754 27.199 49.9846 27.8859 51.9376C28.5728 53.8906 31.105 53.6047 31.1422 55.4129C31.1793 57.2211 29.4788 59.5752 31.3946 60.444C33.3105 61.3128 32.011 63.0876 32.6645 64.7139C33.318 66.3401 37.7289 66.1619 37.7289 66.1619Z" fill="#D1E3FF"/>
<path id="Vector_27" d="M27.7266 63.3398C27.7266 63.3398 27.9419 71.7385 36.2664 71.7385C44.5908 71.7385 44.8061 63.3398 44.8061 63.3398H27.7266Z" fill="#EEF9FF"/>
<g id="Vector_28" style="mix-blend-mode:multiply" opacity="0.2">
<path d="M48.0549 22.6309C48.0563 21.9393 48.0005 21.2488 47.8878 20.5665C47.3902 17.5506 45.8454 14.8067 43.525 12.817C41.2046 10.8273 38.2571 9.71921 35.2007 9.6875H35.0893C33.0387 9.68874 31.0179 10.1776 29.1934 11.1137C27.369 12.0498 25.7934 13.4063 24.5965 15.0713C24.3997 15.3423 24.2252 15.6208 24.0469 15.8993C24.0324 15.9177 24.02 15.9376 24.0098 15.9587C22.791 17.9745 22.1488 20.2863 22.1533 22.642V22.668C22.161 25.4059 23.0361 28.0709 24.6531 30.2803C26.27 32.4897 28.5456 34.1299 31.153 34.9652C33.7603 35.8004 36.5653 35.7879 39.1651 34.9294C41.7649 34.0709 44.0258 32.4105 45.6229 30.1867C45.816 29.9157 45.9942 29.6409 46.1687 29.3587C46.1832 29.3403 46.1957 29.3204 46.2059 29.2993C47.4232 27.2886 48.063 24.9813 48.0549 22.6309ZM22.7066 22.3375C22.7495 20.2176 23.3418 18.145 24.4257 16.3225H28.4765C27.8575 18.2683 27.5333 20.2958 27.5148 22.3375H22.7066ZM29.0446 16.3225H34.8219V22.3375H28.0718C28.0841 20.2944 28.4122 18.2654 29.0446 16.3225ZM35.3789 15.7656V10.2259C36.1819 10.2987 36.951 10.5845 37.6067 11.0539C38.9842 11.997 40.1389 13.6529 40.9483 15.7656H35.3789ZM41.1488 16.3225C41.6081 17.7134 41.9071 19.1523 42.0399 20.611C42.0956 21.1902 42.1216 21.7657 42.129 22.3375H35.3789V16.3225H41.1488ZM34.0051 10.3818C34.2716 10.3061 34.5454 10.2588 34.8219 10.2407V15.7767H29.2525C30.2921 12.9772 31.9778 10.9425 34.0051 10.3707V10.3818ZM34.8219 22.9056V28.9206H29.0557C28.5963 27.5263 28.2998 26.0835 28.172 24.621C28.1201 24.0418 28.0904 23.4663 28.0829 22.8945L34.8219 22.9056ZM34.8219 29.4775V35.0173C34.019 34.9439 33.2501 34.6582 32.5942 34.1893C31.2204 33.2462 30.0656 31.5902 29.2525 29.4775H34.8219ZM36.1957 34.8725C35.9293 34.9485 35.6554 34.9958 35.3789 35.0136V29.4664H40.9483C39.9087 32.2548 38.223 34.2932 36.1957 34.8613V34.8725ZM35.3789 28.9317V22.8982H42.129C42.1185 24.9415 41.7903 26.9707 41.1562 28.9132L35.3789 28.9317ZM42.686 22.8982H47.5128C47.4679 25.0178 46.8757 27.0899 45.7937 28.9132H41.7243C42.3433 26.9674 42.6675 24.9399 42.686 22.8982ZM47.5128 22.3412H42.686C42.686 21.7546 42.6488 21.1605 42.5931 20.5627C42.4664 19.1236 42.1813 17.7028 41.7429 16.3263H45.7863C46.5677 17.6529 47.0952 19.1135 47.342 20.6333C47.4304 21.1974 47.4825 21.7667 47.498 22.3375L47.5128 22.3412ZM42.3629 12.565C43.5765 13.4392 44.6229 14.5246 45.4521 15.7693H41.5387C40.707 13.471 39.4557 11.6517 37.9223 10.5972L37.8034 10.5192C39.4407 10.8858 40.9867 11.5805 42.3481 12.5613L42.3629 12.565ZM32.3862 10.5266C30.8231 11.5551 29.5384 13.4264 28.6733 15.7693H24.7747L25.0457 15.372C26.809 12.9106 29.4167 11.1844 32.3714 10.5229L32.3862 10.5266ZM22.7326 22.8982H27.5408C27.5408 23.4848 27.578 24.0789 27.6337 24.6767C27.7622 26.1156 28.0473 27.5361 28.4839 28.9132H24.4182C23.6353 27.5872 23.1076 26.1264 22.8625 24.6061C22.7701 24.0412 22.718 23.4705 22.7066 22.8982H22.7326ZM24.7895 29.4701H28.6733C29.505 31.7684 30.7563 33.5878 32.2897 34.6423L32.4122 34.7202C29.2924 34.0117 26.5638 32.1323 24.7895 29.4701ZM37.8257 34.7091C39.3852 33.6843 40.6698 31.8093 41.5387 29.4664H45.4298C45.3407 29.6001 45.2516 29.7337 45.1588 29.8637C43.3941 32.3263 40.7831 34.0515 37.8257 34.7091Z" fill="#9ABDE8"/>
</g>
<path id="Vector_29" d="M132.613 28.8008H15.8779V57.0861H132.613V28.8008Z" fill="#9FC6FF"/>
<path id="Vector_30" d="M129.98 31.4336H13.2451V59.7189H129.98V31.4336Z" fill="#13448A"/>
<path id="Vector_31" d="M127.348 34.0625H10.6133V62.3478H127.348V34.0625Z" fill="#9ABDE8"/>
<path id="Vector_32" d="M121.779 56.7831V39.6367L16.1829 39.6367V56.7831L121.779 56.7831Z" fill="white"/>
<path id="Vector_33" d="M104.017 39.6329V56.7793H104.637V39.6329H104.017Z" fill="#9FC6FF"/>
<path id="Vector_34" d="M18.8154 41.9999V54.416H19.4355V41.9999H18.8154Z" fill="#9FC6FF"/>
<path id="Vector_35" d="M112.615 50.3729C112.164 50.3727 111.721 50.2614 111.324 50.0489C110.926 49.8364 110.588 49.5292 110.337 49.1545C110.087 48.7799 109.933 48.3493 109.889 47.9009C109.845 47.4525 109.912 47.0002 110.085 46.584C110.257 46.1677 110.529 45.8004 110.878 45.5146C111.226 45.2288 111.639 45.0332 112.081 44.9453C112.523 44.8573 112.98 44.8797 113.411 45.0104C113.842 45.1411 114.234 45.3761 114.553 45.6946C114.937 46.0778 115.198 46.5662 115.304 47.0978C115.409 47.6295 115.355 48.1807 115.148 48.6815C114.94 49.1823 114.589 49.6104 114.138 49.9115C113.687 50.2125 113.157 50.3731 112.615 50.3729ZM112.615 45.6389C112.153 45.639 111.705 45.7995 111.348 46.0929C110.99 46.3863 110.746 46.7945 110.656 47.2479C110.566 47.7013 110.636 48.1719 110.855 48.5794C111.073 48.9869 111.426 49.3061 111.853 49.4826C112.28 49.6592 112.755 49.682 113.197 49.5474C113.64 49.4127 114.021 49.1289 114.278 48.7442C114.534 48.3596 114.649 47.8979 114.603 47.4379C114.557 46.978 114.353 46.5482 114.026 46.2218C113.843 46.0327 113.623 45.8821 113.381 45.7788C113.139 45.6755 112.878 45.6216 112.615 45.6203V45.6389Z" fill="#9FC6FF"/>
<path id="Vector_36" d="M116.169 51.5401C116.12 51.5399 116.071 51.53 116.026 51.5109C115.981 51.4917 115.94 51.4638 115.905 51.4287L114.03 49.5537C113.991 49.5204 113.96 49.4795 113.937 49.4334C113.915 49.3873 113.903 49.3371 113.901 49.286C113.899 49.2349 113.907 49.1839 113.926 49.1362C113.945 49.0886 113.973 49.0453 114.009 49.0091C114.045 48.973 114.089 48.9446 114.136 48.926C114.184 48.9073 114.235 48.8987 114.286 48.9007C114.337 48.9026 114.387 48.9152 114.433 48.9375C114.479 48.9597 114.52 48.9913 114.554 49.0302L116.429 50.9052C116.498 50.9748 116.537 51.0689 116.537 51.167C116.537 51.2651 116.498 51.3592 116.429 51.4287C116.36 51.4987 116.267 51.5387 116.169 51.5401Z" fill="#9FC6FF"/>
<path id="Vector_37" d="M87.4265 11.7031H75.7529V11.9927H87.4265V11.7031Z" fill="#9FC6FF"/>
<path id="Vector_38" d="M87.4265 12.9316H75.7529V13.2213H87.4265V12.9316Z" fill="#9FC6FF"/>
<path id="Vector_39" d="M87.4265 14.1602H75.7529V14.4498H87.4265V14.1602Z" fill="#9FC6FF"/>
<path id="Vector_40" d="M87.4265 15.3945H75.7529V15.6841H87.4265V15.3945Z" fill="#9FC6FF"/>
<path id="Vector_41" d="M87.4265 16.623H75.7529V16.9127H87.4265V16.623Z" fill="#9FC6FF"/>
<path id="Vector_42" d="M83.3645 17.8555H75.7529V18.1451H83.3645V17.8555Z" fill="#9FC6FF"/>
<path id="Vector_43" d="M17.163 64.791H4.72461V64.9767H17.163V64.791Z" fill="#9FC6FF"/>
<path id="Vector_44" d="M17.163 65.582H4.72461V65.7677H17.163V65.582Z" fill="#9FC6FF"/>
<path id="Vector_45" d="M17.163 66.3691H4.72461V66.5548H17.163V66.3691Z" fill="#9FC6FF"/>
<path id="Vector_46" d="M17.163 67.1562H4.72461V67.3419H17.163V67.1562Z" fill="#9FC6FF"/>
<path id="Vector_47" d="M17.163 67.9434H4.72461V68.129H17.163V67.9434Z" fill="#9FC6FF"/>
<path id="Vector_48" d="M12.5441 68.7305H4.72461V68.9161H12.5441V68.7305Z" fill="#9FC6FF"/>
<path id="Vector_49" d="M58.0419 13.5254C57.4195 13.5254 56.8227 13.7726 56.3826 14.2127C55.9425 14.6528 55.6953 15.2496 55.6953 15.872V23.6135C55.6953 24.2358 55.9425 24.8327 56.3826 25.2728C56.8227 25.7128 57.4195 25.9601 58.0419 25.9601C58.6642 25.9601 59.2611 25.7128 59.7012 25.2728C60.1413 24.8327 60.3885 24.2358 60.3885 23.6135V15.872C60.3885 15.2496 60.1413 14.6528 59.7012 14.2127C59.2611 13.7726 58.6642 13.5254 58.0419 13.5254Z" fill="#9ABDE8"/>
<path id="Vector_50" d="M63.9233 8.91018C63.3029 8.91313 62.7089 9.16166 62.2712 9.60141C61.8336 10.0412 61.5879 10.6363 61.5879 11.2568V23.6135C61.5879 24.2358 61.8351 24.8327 62.2752 25.2728C62.7153 25.7128 63.3121 25.9601 63.9345 25.9601C64.5568 25.9601 65.1537 25.7128 65.5938 25.2728C66.0338 24.8327 66.2811 24.2358 66.2811 23.6135V11.2568C66.2811 10.9477 66.22 10.6416 66.1014 10.3562C65.9828 10.0708 65.8089 9.81158 65.5898 9.59353C65.3707 9.37548 65.1107 9.20287 64.8248 9.0856C64.5388 8.96833 64.2324 8.90872 63.9233 8.91018Z" fill="#13448A"/>
<path id="Vector_51" d="M69.8017 18.1406C69.1793 18.1406 68.5824 18.3879 68.1424 18.8279C67.7023 19.268 67.4551 19.8649 67.4551 20.4872V23.6135C67.4551 24.2359 67.7023 24.8327 68.1424 25.2728C68.5824 25.7129 69.1793 25.9601 69.8017 25.9601C70.1101 25.9606 70.4157 25.9003 70.7008 25.7825C70.9859 25.6648 71.2451 25.4921 71.4634 25.2741C71.6816 25.0562 71.8548 24.7973 71.973 24.5124C72.0911 24.2274 72.152 23.922 72.152 23.6135V20.4872C72.152 20.1787 72.0911 19.8733 71.973 19.5884C71.8548 19.3034 71.6816 19.0446 71.4634 18.8266C71.2451 18.6087 70.9859 18.4359 70.7008 18.3182C70.4157 18.2005 70.1101 18.1401 69.8017 18.1406Z" fill="#9FC6FF"/>
<path id="Vector_52" d="M119.366 71.2115H128.852L112.656 54.4141L119.366 71.2115Z" fill="#386694"/>
<g id="Vector_53" style="mix-blend-mode:multiply">
<path d="M110.246 62.3486L112.656 54.4141L114.022 62.3486H110.246Z" fill="#9FC6FF"/>
</g>
<path id="Vector_54" d="M112.656 54.4141V77.9208L114.335 76.2425L119.366 71.2115L112.656 54.4141Z" fill="#C5DDF6"/>
<path id="Vector_55" d="M129.431 4.00195H108.638C107.585 4.00586 106.575 4.42595 105.83 5.17075C105.084 5.91556 104.663 6.92474 104.658 7.97852V18.7164C104.663 19.7695 105.084 20.7782 105.828 21.5229C106.573 22.2675 107.582 22.6881 108.635 22.693H123.891L123.78 26.4467L127.63 22.693H129.424C130.477 22.689 131.487 22.269 132.232 21.5242C132.978 20.7794 133.399 19.7702 133.404 18.7164V7.97852C133.399 6.92602 132.979 5.91795 132.235 5.17336C131.491 4.42877 130.484 4.00781 129.431 4.00195ZM108.171 8.57631C108.171 8.28089 108.288 7.99757 108.497 7.78867C108.706 7.57978 108.989 7.46242 109.285 7.46242H114.071C114.366 7.46242 114.649 7.57978 114.858 7.78867C115.067 7.99757 115.184 8.28089 115.184 8.57631C115.184 8.87173 115.067 9.15505 114.858 9.36395C114.649 9.57284 114.366 9.6902 114.071 9.6902H109.281C108.986 9.68921 108.704 9.57142 108.496 9.36264C108.288 9.15385 108.171 8.87109 108.171 8.57631ZM128.25 18.9726H119.978C119.818 19.0006 119.653 18.9933 119.496 18.9511C119.339 18.9089 119.194 18.8328 119.069 18.7283C118.945 18.6237 118.845 18.4932 118.776 18.3459C118.707 18.1985 118.672 18.0379 118.672 17.8754C118.672 17.7128 118.707 17.5523 118.776 17.4049C118.845 17.2576 118.945 17.1271 119.069 17.0225C119.194 16.918 119.339 16.8419 119.496 16.7997C119.653 16.7575 119.818 16.7502 119.978 16.7782H128.25C128.41 16.7502 128.575 16.7575 128.732 16.7997C128.889 16.8419 129.035 16.918 129.159 17.0225C129.283 17.1271 129.384 17.2576 129.452 17.4049C129.521 17.5523 129.556 17.7128 129.556 17.8754C129.556 18.0379 129.521 18.1985 129.452 18.3459C129.384 18.4932 129.283 18.6237 129.159 18.7283C129.035 18.8328 128.889 18.9089 128.732 18.9511C128.575 18.9933 128.41 19.0006 128.25 18.9726ZM128.25 14.3277H110.395C110.235 14.3557 110.07 14.3484 109.913 14.3062C109.756 14.264 109.611 14.1879 109.486 14.0834C109.362 13.9788 109.262 13.8483 109.193 13.701C109.124 13.5536 109.089 13.393 109.089 13.2305C109.089 13.0679 109.124 12.9074 109.193 12.76C109.262 12.6127 109.362 12.4822 109.486 12.3776C109.611 12.2731 109.756 12.197 109.913 12.1548C110.07 12.1126 110.235 12.1053 110.395 12.1333H128.25C128.41 12.1053 128.575 12.1126 128.732 12.1548C128.889 12.197 129.035 12.2731 129.159 12.3776C129.283 12.4822 129.384 12.6127 129.452 12.76C129.521 12.9074 129.556 13.0679 129.556 13.2305C129.556 13.393 129.521 13.5536 129.452 13.701C129.384 13.8483 129.283 13.9788 129.159 14.0834C129.035 14.1879 128.889 14.264 128.732 14.3062C128.575 14.3484 128.41 14.3557 128.25 14.3277ZM128.25 9.68277H117.68C117.384 9.68277 117.101 9.56541 116.892 9.35652C116.683 9.14763 116.566 8.86431 116.566 8.56889C116.566 8.27346 116.683 7.99014 116.892 7.78125C117.101 7.57235 117.384 7.455 117.68 7.455H128.25C128.546 7.455 128.829 7.57235 129.038 7.78125C129.247 7.99014 129.364 8.27346 129.364 8.56889C129.364 8.86431 129.247 9.14763 129.038 9.35652C128.829 9.56541 128.546 9.68277 128.25 9.68277Z" fill="#8BB8E6"/>
<path id="Vector_56" d="M96.9127 38.0391C96.0247 35.5997 94.6689 33.3572 92.9213 31.4375H63.3996C61.6521 33.3572 60.2962 35.5997 59.4082 38.0391L63.4925 58.3713C66.617 61.7584 70.8177 63.9594 75.381 64.6003C79.9444 65.2413 84.5889 64.2828 88.5257 61.8875C92.4624 59.4922 95.4485 55.808 96.9767 51.4606C98.5049 47.1132 98.481 42.3709 96.909 38.0391H96.9127Z" fill="#9ABDE8"/>
<path id="Vector_57" d="M98.0905 45.7731C97.8797 50.4614 96.0174 54.9239 92.833 58.3712H63.5007C61.0244 55.6804 59.3341 52.3617 58.614 48.7765C57.8938 45.1914 58.1714 41.4773 59.4164 38.0391H96.9173C97.8179 40.5136 98.2167 43.1428 98.0905 45.7731Z" fill="white"/>
<path id="Vector_58" opacity="0.4" d="M98.0903 45.7733C97.8594 50.7068 95.8026 55.3783 92.3196 58.88C88.8367 62.3817 84.1763 64.4634 79.2441 64.7208C74.3119 64.9781 69.4601 63.3926 65.6317 60.2724C61.8032 57.1522 59.2715 52.7201 58.5284 47.8374C57.7853 42.9547 58.884 37.9702 61.611 33.8523C64.3379 29.7345 68.4983 26.7775 73.2838 25.556C78.0693 24.3344 83.138 24.9356 87.5049 27.2426C91.8719 29.5496 95.2252 33.3978 96.9133 38.0393C97.814 40.5139 98.214 43.1428 98.0903 45.7733Z" fill="#D4E8FF"/>
<path id="Vector_59" opacity="0.4" d="M89.406 28.3773L60.7198 54.5388C60.5762 54.2739 60.4351 54.0066 60.2965 53.7368C59.4194 51.9809 58.8099 50.1036 58.4883 48.1673L83.2648 25.5703C85.4573 26.1481 87.5344 27.0975 89.406 28.3773Z" fill="#D4E8FF"/>
<path id="Vector_60" opacity="0.4" d="M97.0807 38.519L70.1283 63.1136C67.3326 61.8801 64.8579 60.0203 62.8955 57.6779L92.3466 30.8184C94.4929 32.9894 96.1124 35.6238 97.0807 38.519Z" fill="#D4E8FF"/>
<path id="Vector_61" d="M98.0831 33.3498C95.8078 29.4045 92.4134 26.2228 88.3293 24.2072C84.2453 22.1916 79.6551 21.4328 75.1397 22.0266C70.6242 22.6205 66.3864 24.5404 62.9624 27.5434C59.5384 30.5464 57.082 34.4976 55.9042 38.897C54.7264 43.2964 54.88 47.9463 56.3456 52.2584C57.8112 56.5705 60.5229 60.3509 64.1377 63.1214C67.7524 65.8919 72.1077 67.528 76.6525 67.8225C81.1973 68.1171 85.7274 67.0569 89.6695 64.7762C94.9494 61.7215 98.8011 56.6961 100.379 50.8038C101.956 44.9114 101.13 38.6339 98.0831 33.3498ZM62.4387 53.9344C60.6435 50.8253 59.8106 47.2536 60.0452 43.6711C60.2798 40.0886 61.5715 36.6562 63.7569 33.8078C65.9423 30.9593 68.9232 28.8229 72.3227 27.6687C75.7223 26.5144 79.3878 26.3941 82.8557 27.323C86.3236 28.2519 89.4382 30.1882 91.8057 32.8872C94.1731 35.5862 95.6871 38.9266 96.1561 42.486C96.6251 46.0454 96.0281 49.664 94.4406 52.8841C92.8531 56.1042 90.3464 58.7813 87.2375 60.5768C85.1734 61.769 82.8946 62.5429 80.5313 62.8543C78.168 63.1657 75.7666 63.0085 73.4641 62.3917C71.1615 61.7748 69.0031 60.7105 67.112 59.2594C65.2209 57.8082 63.6341 55.9988 62.4424 53.9344H62.4387Z" fill="#386694"/>
<path id="Vector_62" d="M25.2234 68.5254L28.0675 69.1863L25.7097 70.9462C25.7097 70.9462 24.0204 70.1814 23.9424 68.9821L25.2234 68.5254Z" fill="#E7BAB4"/>
<path id="Vector_63" d="M29.59 71.0811L27.5404 72.4475L25.71 70.9474L28.0677 69.1875L29.59 71.0811Z" fill="#E7BAB4"/>
<path id="Vector_64" d="M61.763 56.9751C58.7406 59.2028 55.6403 61.3192 52.5251 63.3873C49.41 65.4554 46.254 67.4716 43.0831 69.4506C39.9122 71.4296 36.7117 73.3677 33.5 75.2502C31.896 76.2081 30.2771 77.1364 28.6731 78.0795C27.8763 78.5867 27.0077 78.971 26.0963 79.2194C25.6101 79.3484 25.1129 79.4316 24.6112 79.4681C24.0541 79.5136 23.4935 79.4849 22.944 79.3827C22.5514 79.305 22.1779 79.1507 21.8449 78.9285C21.5119 78.7063 21.226 78.4206 21.0036 78.0878C20.7812 77.7551 20.6265 77.3817 20.5486 76.989C20.4706 76.5964 20.4708 76.1923 20.5492 75.7997C20.5746 75.6736 20.6094 75.5495 20.6532 75.4284C20.8324 74.9021 21.0822 74.4025 21.3957 73.9433C21.6754 73.5304 21.9937 73.145 22.3463 72.7922C23.0178 72.1274 23.7849 71.5667 24.6223 71.1288C26.2449 70.2043 27.8563 69.2724 29.49 68.3553C32.7425 66.5173 36.0248 64.7277 39.3144 62.9603C42.6041 61.193 45.9346 59.4813 49.2837 57.8105C52.6328 56.1396 56.0079 54.5134 59.4535 53.0133C59.9735 52.7834 60.5601 52.7537 61.1006 52.93C61.6412 53.1062 62.0975 53.4759 62.3821 53.9681C62.6666 54.4604 62.7593 55.0403 62.6423 55.5967C62.5253 56.1531 62.2068 56.6466 61.7481 56.9825L61.763 56.9751Z" fill="#386694"/>
<path id="Vector_65" d="M29.3453 50.9386C29.1596 51.2393 28.948 51.6032 28.7475 51.9448C28.547 52.2864 28.3502 52.6428 28.1646 53.003C27.7933 53.7122 27.422 54.4325 27.0507 55.1639C26.6794 55.8954 26.3786 56.6491 26.0742 57.3917C25.9256 57.763 25.7697 58.1343 25.6323 58.5056L25.4244 59.0737C25.3836 59.1813 25.3761 59.2259 25.3501 59.3039C25.3241 59.3818 25.313 59.4561 25.2907 59.5304C25.1458 60.2641 25.0724 61.0102 25.0717 61.7581C25.0531 62.5564 25.0717 63.3695 25.1162 64.1901C25.1608 65.0107 25.2053 65.8349 25.2796 66.6592C25.3538 67.4835 25.4281 68.3226 25.5061 69.1395L24.0729 69.4328C23.8204 68.6048 23.6236 67.7805 23.4268 66.9451C23.23 66.1097 23.0815 65.2706 22.9367 64.4166C22.7919 63.5626 22.6954 62.7049 22.6323 61.8175C22.555 60.8882 22.5787 59.9533 22.7028 59.0291C22.7251 58.8991 22.7436 58.7766 22.7771 58.6578C22.8105 58.539 22.8439 58.3719 22.8736 58.2865L23.0555 57.6553C23.1743 57.2357 23.3117 56.8199 23.4528 56.4078C23.7387 55.5798 24.0506 54.7666 24.3996 53.9646C24.7486 53.1626 25.1199 52.3792 25.5135 51.6069C25.7177 51.2356 25.9331 50.8383 26.1521 50.4559C26.3712 50.0735 26.5903 49.7133 26.865 49.3086L29.3453 50.9386Z" fill="#E7BAB4"/>
<path id="Vector_66" d="M27.5738 105.979C27.3282 105.974 27.0842 105.951 26.8459 105.911C26.8332 105.909 26.8214 105.905 26.8123 105.899C26.8032 105.893 26.7971 105.885 26.795 105.876C26.7927 105.868 26.7942 105.858 26.7994 105.85C26.8045 105.842 26.8131 105.835 26.8241 105.83C26.9224 105.786 27.7812 105.413 28.1124 105.513C28.1492 105.525 28.1808 105.542 28.2039 105.565C28.2269 105.587 28.2406 105.614 28.2434 105.641C28.2605 105.685 28.2593 105.731 28.2401 105.774C28.2208 105.817 28.1842 105.856 28.1342 105.886C27.9703 105.962 27.7712 105.995 27.5738 105.979ZM27.017 105.847C27.5119 105.913 27.8831 105.901 28.0251 105.813C28.0562 105.792 28.079 105.767 28.0912 105.739C28.1033 105.711 28.1044 105.681 28.0942 105.653C28.0938 105.641 28.088 105.628 28.0777 105.618C28.0674 105.608 28.0529 105.599 28.036 105.594C27.8649 105.543 27.3664 105.705 27.017 105.847Z" fill="#13448A"/>
<path id="Vector_67" d="M26.8715 105.976C26.8588 105.978 26.8454 105.978 26.8328 105.976C26.8204 105.972 26.8102 105.965 26.8033 105.957C26.7965 105.949 26.7933 105.941 26.7941 105.932C26.7941 105.907 26.7941 105.288 27.1596 105.081C27.2047 105.054 27.2579 105.035 27.3157 105.023C27.3736 105.011 27.4346 105.007 27.495 105.011C27.5584 105.012 27.6195 105.027 27.6681 105.053C27.7167 105.079 27.7497 105.115 27.7616 105.155C27.839 105.396 27.2284 105.86 26.9016 105.984C26.8906 105.983 26.8803 105.98 26.8715 105.976ZM27.4434 105.103C27.3782 105.103 27.3154 105.119 27.2671 105.147C27.0556 105.347 26.9473 105.585 26.9575 105.827C27.2757 105.661 27.6541 105.313 27.6068 105.166C27.6068 105.141 27.5767 105.114 27.4778 105.105L27.4434 105.103Z" fill="#13448A"/>
<path id="Vector_68" d="M40.9968 105.98C40.6644 105.977 40.3333 105.954 40.0083 105.911C39.9928 105.91 39.9784 105.906 39.9674 105.899C39.9564 105.893 39.9495 105.884 39.9478 105.874C39.946 105.865 39.9489 105.855 39.9561 105.847C39.9633 105.839 39.9745 105.832 39.9881 105.827C40.1293 105.783 41.38 105.394 41.7633 105.522C41.8002 105.533 41.8315 105.551 41.8541 105.572C41.8768 105.593 41.89 105.617 41.8924 105.643C41.9012 105.683 41.8933 105.725 41.8694 105.763C41.8454 105.801 41.8062 105.835 41.7553 105.862C41.5322 105.953 41.2643 105.995 40.9968 105.98ZM40.2544 105.847C40.9524 105.919 41.4648 105.899 41.6584 105.795C41.6906 105.777 41.7151 105.754 41.7298 105.729C41.7446 105.704 41.7491 105.677 41.7431 105.65C41.743 105.64 41.7384 105.63 41.7299 105.621C41.7214 105.613 41.7093 105.606 41.6947 105.601C41.4849 105.532 40.7668 105.697 40.2544 105.847Z" fill="#13448A"/>
<path id="Vector_69" d="M40.0094 105.973C40.004 105.975 39.9982 105.976 39.9923 105.976C39.9865 105.976 39.9807 105.975 39.9753 105.973C39.9655 105.969 39.9576 105.963 39.9527 105.955C39.9478 105.947 39.9461 105.938 39.948 105.929C39.948 105.904 40.0128 105.323 40.3432 105.099C40.4382 105.035 40.5605 105.003 40.6839 105.011C40.8577 105.025 40.9054 105.097 40.919 105.155C40.9667 105.398 40.3432 105.862 40.0264 105.984L40.0094 105.973ZM40.643 105.099C40.563 105.1 40.4858 105.124 40.425 105.166C40.2296 105.353 40.1106 105.585 40.0843 105.829C40.4046 105.672 40.8304 105.307 40.7998 105.16C40.7998 105.16 40.7998 105.11 40.6771 105.102L40.643 105.099Z" fill="#13448A"/>
<path id="Vector_70" d="M33.7409 39.7871C33.9674 41.5211 34.4835 45.0372 33.2285 46.0991C33.2285 46.0991 33.5998 47.8665 36.7632 48.0707C40.2608 48.2972 38.5455 46.4444 38.5455 46.4444C36.6667 45.8652 36.8078 44.4506 37.2274 43.1436L33.7409 39.7871Z" fill="#E7BAB4"/>
<path id="Vector_71" d="M40.2273 36.2652C40.205 36.2647 40.1832 36.2583 40.1642 36.2466C40.148 36.2384 40.1336 36.227 40.122 36.2131C40.1104 36.1992 40.1017 36.1831 40.0965 36.1657C40.0912 36.1484 40.0896 36.1301 40.0917 36.1121C40.0938 36.0941 40.0995 36.0767 40.1085 36.0609C40.2049 35.8645 40.3475 35.6944 40.524 35.5651C40.7005 35.4358 40.9057 35.3511 41.1221 35.3184C41.1553 35.3196 41.187 35.3329 41.2111 35.3558C41.2353 35.3786 41.2504 35.4094 41.2536 35.4425C41.2567 35.4756 41.2478 35.5088 41.2284 35.5358C41.209 35.5628 41.1805 35.5818 41.1481 35.5894C40.9788 35.619 40.8186 35.6873 40.6801 35.7891C40.5416 35.8909 40.4286 36.0233 40.3498 36.1761C40.3393 36.2005 40.3223 36.2217 40.3008 36.2374C40.2792 36.2531 40.2538 36.2627 40.2273 36.2652Z" fill="#0F264C"/>
<path id="Vector_72" d="M41.2266 37.7871C41.4824 38.2971 41.8072 38.7693 42.1919 39.1906C42.0816 39.2865 41.9517 39.3571 41.8112 39.3975C41.6708 39.438 41.5232 39.4472 41.3788 39.4245L41.2266 37.7871Z" fill="#FF5652"/>
<path id="Vector_73" d="M40.9815 37.4074C41.0038 37.6413 41.1449 37.8158 41.2934 37.8009C41.4419 37.7861 41.5533 37.5893 41.531 37.3554C41.5088 37.1215 41.3677 36.947 41.2154 36.9618C41.0632 36.9767 40.9592 37.1772 40.9815 37.4074Z" fill="#0F264C"/>
<path id="Vector_74" d="M41.167 36.9812L41.7091 36.7695C41.7091 36.7695 41.4492 37.2299 41.167 36.9812Z" fill="#0F264C"/>
<path id="Vector_75" d="M37.0244 105.984H39.7645L39.9474 101.6H37.2073L37.0244 105.984Z" fill="#E7BAB4"/>
<path id="Vector_76" d="M23.8711 105.984H26.4527L27.2812 101.6H24.7029L23.8711 105.984Z" fill="#E7BAB4"/>
<path id="Vector_77" d="M26.6432 105.496H23.4842C23.4301 105.496 23.3775 105.51 23.3364 105.537C23.2952 105.564 23.2682 105.601 23.2604 105.642L22.8993 107.547C22.8922 107.595 22.8985 107.643 22.9177 107.689C22.937 107.736 22.9688 107.778 23.011 107.814C23.0533 107.85 23.105 107.879 23.1629 107.899C23.2208 107.919 23.2835 107.929 23.347 107.929C24.4301 107.915 24.9789 107.866 26.3689 107.866C27.2209 107.866 28.4701 107.932 29.6507 107.932C30.8312 107.932 30.8926 107.043 30.4016 106.963C28.1993 106.603 27.8527 106.104 27.109 105.628C26.9791 105.544 26.8141 105.497 26.6432 105.496Z" fill="#14365B"/>
<path id="Vector_78" d="M39.779 105.496H36.6358C36.5817 105.495 36.5289 105.509 36.4878 105.536C36.4466 105.563 36.4199 105.601 36.4128 105.642L36.0532 107.547C36.0467 107.595 36.0534 107.644 36.073 107.69C36.0926 107.736 36.1246 107.778 36.167 107.814C36.2093 107.85 36.2611 107.879 36.3189 107.899C36.3768 107.919 36.4394 107.929 36.5027 107.929C37.5816 107.915 38.1283 107.866 39.5093 107.866C40.3616 107.866 42.1202 107.932 43.2962 107.932C44.4722 107.932 44.5333 107.043 44.0442 106.963C41.8505 106.603 40.9873 106.104 40.2465 105.628C40.1162 105.543 39.9504 105.496 39.779 105.496Z" fill="#14365B"/>
<path id="Vector_79" d="M39.9474 101.6L39.853 104.035H37.0244L37.1225 101.6H39.9474Z" fill="#EA7063"/>
<path id="Vector_80" d="M24.7737 101.6H27.2814L26.8661 104.035H24.3584L24.7737 101.6Z" fill="#EA7063"/>
<path id="Vector_81" d="M30.5782 51.3832C30.0293 52.2408 29.3935 53.0396 28.6809 53.7669L28.3504 53.5479L24.6895 51.1159C24.6895 51.1159 26.687 46.6603 28.1908 46.4338C29.6277 46.2036 30.6747 47.6888 31.1611 49.278C31.3468 49.8535 31.0386 50.6332 30.5782 51.3832Z" fill="#9FC6FF"/>
<path id="Vector_82" d="M30.5774 51.3839C30.0285 52.2415 29.3927 53.0403 28.6801 53.7676L28.3496 53.5485C28.513 52.2119 29.0328 50.8864 29.6269 50.4668C29.9907 50.5039 30.3138 50.8901 30.5774 51.3839Z" fill="#77B3FC"/>
<path id="Vector_83" d="M43.1016 53.6071C42.9271 54.721 42.7006 56.0317 42.3962 57.5874C42.0249 59.5776 41.5051 61.965 40.8479 64.8203L29.1335 64.0777C29.6385 59.3214 29.8353 56.3807 28.1904 46.4486C29.8534 46.2163 31.5312 46.1058 33.2103 46.1181C34.9886 46.1064 36.7655 46.2218 38.5273 46.4634C40.7996 46.8347 43.3541 47.5179 43.3541 47.5179C43.3541 47.5179 44.0076 47.7741 43.1016 53.6071Z" fill="#9FC6FF"/>
<path id="Vector_84" d="M43.1016 53.6074C42.9271 54.7213 42.7006 56.0319 42.3962 57.5877C41.7519 56.2173 41.2168 54.7983 40.7959 53.3438H42.9717L43.1016 53.6074Z" fill="#77B3FC"/>
<path id="Vector_85" d="M33.1031 37.3476C33.5449 40.1806 33.6748 41.391 35.2529 42.7165C37.6254 44.7141 41.0079 43.5482 41.4201 40.6373C41.7914 38.0196 41.0042 33.824 38.1044 32.9552C37.4665 32.7595 36.7892 32.7303 36.1369 32.8703C35.4846 33.0104 34.8789 33.315 34.3776 33.7553C33.8763 34.1956 33.496 34.7568 33.2729 35.3856C33.0498 36.0144 32.9913 36.6898 33.1031 37.3476Z" fill="#E7BAB4"/>
<path id="Vector_86" d="M37.5116 64.4697C37.5116 64.4697 37.3302 67.8915 36.8946 72.2075C36.5316 75.8289 35.9835 80.0759 35.2176 83.4608L35.1959 83.5544C33.8202 89.5456 27.7259 103.548 27.7259 103.548H23.8711C23.8711 103.548 27.0471 90.0235 27.744 84.0865C29.5117 69.0912 25.0834 67.3939 29.087 64.0879L37.5116 64.4697Z" fill="#13448A"/>
<path id="Vector_87" d="M40.7057 64.4613C40.7057 64.4613 44.0364 77.6501 43.8366 83.52C43.6404 89.6273 40.2913 103.548 40.2913 103.548H36.3981C36.3981 103.548 37.0124 89.9809 36.6682 83.9849C36.2982 77.4473 32.1533 64.0879 32.1533 64.0879L40.7057 64.4613Z" fill="#13448A"/>
<path id="Vector_88" d="M35.7495 103.547H41.0001L41.4094 102.086L35.5635 102.117L35.7495 103.547Z" fill="#0F264C"/>
<path id="Vector_89" d="M23.3838 103.547H28.355L28.7426 102.086L23.419 102.117L23.3838 103.547Z" fill="#0F264C"/>
<path id="Vector_90" d="M28.9996 63.3694L28.4055 64.3868C28.3572 64.4647 28.4501 64.5538 28.5837 64.5613L40.8699 65.3596C40.9739 65.3596 41.0667 65.3224 41.0778 65.2556L41.2523 64.2123C41.2523 64.1417 41.1744 64.0749 41.0593 64.0675L29.1778 63.2952C29.1445 63.2936 29.1112 63.2995 29.0804 63.3123C29.0496 63.3252 29.022 63.3447 28.9996 63.3694Z" fill="#0F264C"/>
<path id="Vector_91" d="M30.5072 64.7943L30.1916 64.772C30.1285 64.772 30.0802 64.7312 30.0877 64.6941L30.3253 63.3388C30.3253 63.3017 30.3884 63.272 30.4515 63.2757L30.7709 63.2943C30.834 63.2943 30.8785 63.3351 30.8748 63.376L30.6372 64.7275C30.6298 64.7683 30.5703 64.798 30.5072 64.7943Z" fill="#13448A"/>
<path id="Vector_92" d="M38.1967 65.2926L37.8811 65.274C37.818 65.274 37.7697 65.2332 37.7771 65.1923L38.0148 63.8408C38.0148 63.8 38.0779 63.774 38.1447 63.7777L38.4603 63.7963C38.5234 63.7963 38.5717 63.8371 38.5643 63.8779L38.3266 65.2295C38.3304 65.2703 38.2709 65.2963 38.1967 65.2926Z" fill="#13448A"/>
<path id="Vector_93" d="M44.0187 50.4883C44.4643 51.9735 44.8876 53.4772 45.2997 54.9772L46.5435 59.4662L46.6995 60.0231L46.7403 60.1605L46.7589 60.2311V60.2682C46.7722 60.3174 46.7883 60.3657 46.8072 60.413C46.8983 60.6387 47.0235 60.8491 47.1785 61.0368C47.6218 61.5047 48.1354 61.9005 48.7008 62.2101C49.996 62.9111 51.3661 63.4641 52.785 63.8586L52.5697 65.3067C50.9047 65.2209 49.2646 64.866 47.7131 64.2559C46.8546 63.9195 46.0636 63.4315 45.3777 62.8153C44.9848 62.4511 44.6582 62.0214 44.4123 61.5455C44.3459 61.4168 44.2876 61.2841 44.2378 61.1482L44.197 61.0479L44.171 60.9774L44.1227 60.84L43.9259 60.2793C43.4061 58.7942 42.9234 57.309 42.4667 55.8015C42.01 54.2941 41.5608 52.8089 41.1523 51.294L44.0187 50.4883Z" fill="#E7BAB4"/>
<path id="Vector_94" d="M43.3535 47.503C44.8387 47.9894 46.3981 52.8459 46.3981 52.8459L41.0366 55.1554C41.0366 55.1554 38.8088 49.7048 39.7965 48.4721C40.7841 47.2394 41.6493 46.946 43.3535 47.503Z" fill="#9FC6FF"/>
<path id="Vector_95" d="M40.4874 32.7935C39.5406 31.6239 32.226 30.7885 31.8362 33.9742C29.2371 35.7936 31.7025 40.4942 32.0738 41.6898C30.2805 42.1873 24.5031 44.1626 28.7321 48.0018C32.9612 51.841 39.3029 51.1875 40.5431 47.2146C41.4119 44.4373 38.6532 39.7887 38.7126 38.1624C38.772 36.5362 42.1099 34.7799 40.4874 32.7935Z" fill="#0F264C"/>
<path id="Vector_96" d="M32.5869 42.2757C32.5733 42.2762 32.5598 42.2734 32.5476 42.2676C32.5353 42.2618 32.5246 42.2531 32.5163 42.2423C31.8443 41.4255 29.5051 37.1333 30.3257 35.0912C30.4529 34.7743 30.6687 34.5008 30.9472 34.3033C31.2257 34.1058 31.5552 33.9926 31.8963 33.9773C31.9083 33.9757 31.9205 33.9767 31.9321 33.98C31.9437 33.9833 31.9546 33.9889 31.9639 33.9966C31.9733 34.0042 31.9811 34.0137 31.9867 34.0244C31.9923 34.0352 31.9956 34.0469 31.9965 34.059C31.9997 34.0831 31.9933 34.1074 31.9788 34.1269C31.9642 34.1463 31.9426 34.1593 31.9185 34.1629C31.6119 34.1743 31.3149 34.2734 31.0628 34.4484C30.8108 34.6235 30.6142 34.8672 30.4965 35.1506C29.7056 37.1259 32.0002 41.3141 32.6574 42.1198C32.6692 42.1329 32.6768 42.1491 32.6793 42.1665C32.6818 42.1839 32.6791 42.2017 32.6716 42.2175C32.664 42.2334 32.652 42.2467 32.6369 42.2557C32.6218 42.2648 32.6044 42.2691 32.5869 42.2683V42.2757Z" fill="#0F264C"/>
<path id="Vector_97" d="M38.1335 37.987C38.2164 38.5293 38.4777 39.0284 38.8761 39.4054C39.4033 39.9104 39.9009 39.565 39.9491 38.9227C39.9937 38.3472 39.7709 37.393 39.1471 37.1256C38.5234 36.8583 38.0555 37.3447 38.1335 37.987Z" fill="#E7BAB4"/>
<path id="Vector_98" d="M50.9661 63.4588L53.075 62.7422L52.7446 65.2781C52.7446 65.2781 51.9129 65.6494 50.8361 64.7138L49.8076 64.0566L50.617 63.6147C50.728 63.5515 50.8449 63.4993 50.9661 63.4588Z" fill="#E7BAB4"/>
<path id="Vector_99" d="M54.5486 62.7344L53.9026 64.951L52.7441 65.274L53.0746 62.7418L54.5486 62.7344Z" fill="#E7BAB4"/>
</g>
</svg>
