<svg width="44" height="45" viewBox="0 0 44 45" fill="none" xmlns="http://www.w3.org/2000/svg">
<rect y="0.820312" width="44" height="44" rx="22" fill="#F1F1F1"/>
<path d="M21.9997 12.1543C23.4142 12.1543 24.7707 12.7162 25.7709 13.7164C26.7711 14.7166 27.333 16.0731 27.333 17.4876C27.333 18.9021 26.7711 20.2587 25.7709 21.2589C24.7707 22.2591 23.4142 22.821 21.9997 22.821C20.5852 22.821 19.2286 22.2591 18.2284 21.2589C17.2282 20.2587 16.6663 18.9021 16.6663 17.4876C16.6663 16.0731 17.2282 14.7166 18.2284 13.7164C19.2286 12.7162 20.5852 12.1543 21.9997 12.1543ZM21.9997 33.4876C21.9997 33.4876 32.6663 33.4876 32.6663 30.821C32.6663 27.621 27.4663 24.1543 21.9997 24.1543C16.533 24.1543 11.333 27.621 11.333 30.821C11.333 33.4876 21.9997 33.4876 21.9997 33.4876Z" fill="#005DA8"/>
</svg>
